<!--Created with Inkscape (http://www.inkscape.org/)-->
<svg xmlns="http://www.w3.org/2000/svg" xmlns:xlink="http://www.w3.org/1999/xlink" id="svg2383" width="1466.655" height="749.263">
  <defs id="defs2385">
    <clipPath id="clipPath3490" clipPathUnits="userSpaceOnUse">
      <path id="rect3492" d="M683.14 104.104h1511.787v1003.748H683.14z" style="fill:#006a00;fill-opacity:1;fill-rule:nonzero;stroke:none" transform="rotate(135.918)"/>
    </clipPath>
    <clipPath id="clipPath3494" clipPathUnits="userSpaceOnUse">
      <path id="rect3496" d="M-4232.846-2372.13h2168.193v1468.418h-2168.193z" style="fill:#006a00;fill-opacity:1;fill-rule:nonzero;stroke:none" transform="matrix(-.9473 -.32036 .9519 -.3064 0 0)"/>
    </clipPath>
    <pattern id="pattern4256" width="10.794" height="10.774" patternTransform="rotate(223.488 978.446 137.466)scale(.77603)" patternUnits="userSpaceOnUse">
      <g id="g4248" transform="rotate(.594 69171.93 -57749.676)scale(.588)">
        <path id="rect4250" d="M1025.535 1215.281h18.173v18.096h-18.173z" style="opacity:1;fill:#000;fill-opacity:1;stroke:none;stroke-width:.5;stroke-linecap:round;stroke-linejoin:round;stroke-miterlimit:4;stroke-dasharray:none;stroke-dashoffset:0;stroke-opacity:1"/>
        <path id="rect4252" d="M1025.535 1215.281h9.075v9.075h-9.075z" style="opacity:1;fill:#fff;fill-opacity:1;stroke:none;stroke-width:.5;stroke-linecap:round;stroke-linejoin:round;stroke-miterlimit:4;stroke-dasharray:none;stroke-dashoffset:0;stroke-opacity:1"/>
        <path id="rect4254" d="M1034.641 1224.344h9.075v9.075h-9.075z" style="opacity:1;fill:#fff;fill-opacity:1;stroke:none;stroke-width:.5;stroke-linecap:round;stroke-linejoin:round;stroke-miterlimit:4;stroke-dasharray:none;stroke-dashoffset:0;stroke-opacity:1"/>
      </g>
    </pattern>
    <pattern xlink:href="#pattern4256" id="pattern4264" patternTransform="translate(-1600.07 379.48)scale(-.77603)"/>
    <filter id="filter7086" width="1.804" height="1.419" x="-.402" y="-.209" color-interpolation-filters="sRGB">
      <feGaussianBlur id="feGaussianBlur7088" stdDeviation="2.945"/>
    </filter>
    <filter id="filter7090" width="1.583" height="1.419" x="-.292" y="-.209" color-interpolation-filters="sRGB">
      <feGaussianBlur id="feGaussianBlur7092" stdDeviation="2.945"/>
    </filter>
  </defs>
  <g id="layer2" style="display:inline" transform="translate(45.872 -5.92)">
    <path id="path3856" d="M752.935 668.908s-16.032-6.294-30.821-7.859c-8.211-.869-21.554-1.681-29.145-8.134-7.592-6.452-6.652-15.243-5.402-20.569 1.39-5.924 5.767-9.702 10.156-12.89 5.71-4.15 14.07-5.776 18.75-12.11 7.298-9.878 6.976-11.8 11.28-23.438 3.44-9.303 2.87-22.774 2.896-32.905.02-8.49-1.601-19.562 3.929-26.105 1.773-2.097 5.599-2.734 7.422-3.515s9.245-1.563 9.766-1.563l67.4-9.927" style="fill:none;stroke:#8c8c8c;stroke-width:7;stroke-linecap:round;stroke-linejoin:miter;stroke-miterlimit:4;stroke-opacity:1;stroke-dasharray:none"/>
    <path id="path3858" d="m479.208 669.01-16.682-16.53" style="fill:none;stroke:#8c8c8c;stroke-width:7.0999999;stroke-linecap:round;stroke-linejoin:miter;stroke-miterlimit:4;stroke-opacity:1;stroke-dasharray:none"/>
    <path id="path3860" d="m489.564 673.86-100.781 3.515" style="fill:none;stroke:#8c8c8c;stroke-width:7.0999999;stroke-linecap:butt;stroke-linejoin:miter;stroke-miterlimit:4;stroke-opacity:1;stroke-dasharray:none"/>
  </g>
  <g id="layer3" style="display:inline" transform="translate(45.872 -5.92)">
    <path id="path3854" d="m700.067 509.18-505.361 7.428s-15.098 1.774-19.922 4.687-7.228 4.476-9.375 7.422c-2.146 2.947-4.653 7.501-5.469 10.547s-.976 9.18-.976 9.18.409 4.634 1.367 7.617c.958 2.984 3.125 6.12 5.078 8.984 1.953 2.865 6.64 8.204 6.64 8.204s70.27 65.59 90.235 79.296 33.275 23.9 33.275 23.9" style="fill:none;stroke:#8c8c8c;stroke-width:7.0999999;stroke-linecap:round;stroke-linejoin:miter;stroke-miterlimit:4;stroke-opacity:1;stroke-dasharray:none"/>
  </g>
  <g id="layer10" style="display:inline" transform="translate(45.872 -5.92)">
    <path id="path3111" d="M1231.206 662.37c-104.825 3.562-511.7 5.244-616.59 3.798-123.077-1.696-234.643-71.792-234.831-188.562-.177-109.764 89.732-196.932 194.618-196.932s552.045 8.22 656.93 8.22c104.886 0 181.468 86.277 182.927 191.152 1.655 118.953-85.616 179.015-183.054 182.325" style="fill:none;stroke:#c8c8c8;stroke-width:13;stroke-linecap:round;stroke-linejoin:round;stroke-miterlimit:4;stroke-opacity:1;stroke-dasharray:none;stroke-dashoffset:66;marker:none;visibility:visible;display:inline;overflow:visible"/>
  </g>
  <g id="g3109" style="display:inline" transform="translate(-646.736 -335.587)">
    <path id="path3113" d="M1542.844 997.31c-120.027 3.463-239.463 4.389-358.761 5.946-24.664.325.483-34.067-25.999-23.482-36.423 14.558-71.55 27.248-111.072 27.545-37.084.28-89.634.76-113.859-7.277-26.252-8.708-53.207-29.184-63.064-37.215-17.957-14.63-35.274-37.103-48.097-68.18-14.811-35.892-26.799-95.408-35.592-148.166-4.775-28.651-17.45-96.773-20.729-122.54-3.035-23.841-23.465-8.921-29.45-25.473-24.883-68.828-56.787-121.23-59.169-130.663-12.155-24.93-15.525-40.924-10.961-58.61 2.515-9.745 21.184-25.873 31.81-27.914 48.285-9.274 91.728-18.766 141.598-26.89 7.193-1.172 15.502 6.817 19.582 12.146 24.396 31.862 92.032 136.077 132.332 181.511 39.738 44.801 82.04 79.494 131.363 125.07 47.72 44.092 97.879 91.325 145.378 132.394 12.438 10.755 34.384-3.195 57.252-1.377 5.168.411 21.288 4.732 31.402 13.833 5.057 4.55 10.697 12.778 19.175 15.863 8.477 3.086 35.76 3.857 39.478 3.835 180.117-1.078 342.897-.949 523.515.247 36.672-.065 53.001 16.916 55.09 50.136-.289 11.97-1.516 25.148-11.129 37.752-12.753 16.72-34.661 34.72-53.541 42.63-34.325 14.383-69.463 15.392-104.51 19.434-90.31 10.416-189.4 6.773-282.042 9.445z" style="fill:none;stroke:#000;stroke-width:13;stroke-linecap:butt;stroke-linejoin:round;stroke-miterlimit:4;stroke-opacity:1;stroke-dasharray:none"/>
    <path id="path3115" d="M1839.85 983.72c-19.785-.977-104.025-2.858-131.376-2.45-46.473.695-58.044 1.591-111.32 2.061-74.767.66-165.689 11.336-194.548 12.858" style="fill:none;stroke:#000;stroke-width:5.07262278;stroke-linecap:butt;stroke-linejoin:round;stroke-miterlimit:4;stroke-opacity:1;stroke-dasharray:none"/>
  </g>
  <g id="layer11" style="display:inline" transform="translate(45.872 -5.92)">
    <path id="path5276" d="M87.438 380.531c2.3 13.005 4.954 27.945 6.343 36.281 8.793 52.758 20.783 112.264 35.594 148.157 12.824 31.076 30.137 53.557 48.094 68.187 9.856 8.03 36.81 28.51 63.062 37.219 24.225 8.036 76.792 7.56 113.875 7.281 39.523-.297 74.64-13.004 111.063-27.562 26.482-10.585 1.336 23.825 26 23.5 119.298-1.558 274.585-3.284 358.781-5.938 42.3-1.333 167.113-3.29 184.568-3.303" style="fill:none;stroke:#fefe00;stroke-width:4;stroke-linecap:round;stroke-linejoin:round;stroke-miterlimit:4;stroke-opacity:1;stroke-dasharray:4,12;stroke-dashoffset:0;display:inline"/>
    <path id="path5273" d="M1026.966 664.353c92.26-2.6 16.744-.38 105.315-6.165 35.203-2.3 70.175-5.056 104.5-19.438 18.88-7.91 40.81-25.904 53.563-42.625 9.613-12.604 10.836-25.78 11.125-37.75-2.089-33.22-18.422-50.19-55.094-50.125-180.618-1.196-343.414-1.328-523.531-.25-3.718.022-30.992-.758-39.469-3.844s-14.13-11.293-19.188-15.844c-10.113-9.1-26.206-13.432-31.375-13.843-22.867-1.819-44.842 12.13-57.28 1.375-18.614-16.094-37.658-33.257-56.782-50.688" style="fill:none;stroke:#00eaea;stroke-width:4;stroke-linecap:round;stroke-linejoin:round;stroke-miterlimit:4;stroke-opacity:1;stroke-dasharray:4,12;stroke-dashoffset:0;display:inline"/>
    <path id="path3929" d="M517.75 424.25c-29.348-26.76-58.902-54.3-87.594-80.812-49.323-45.576-91.605-80.262-131.343-125.063-40.3-45.434-107.948-149.637-132.344-181.5-4.08-5.329-12.37-13.328-19.563-12.156-49.87 8.124-93.34 17.632-141.625 26.906-10.626 2.041-29.297 18.16-31.812 27.906-4.564 17.686-1.186 33.664 10.968 58.594 2.382 9.433 34.304 61.86 59.188 130.688 5.984 16.552 26.403 1.626 29.438 25.468 2.325 18.27 8.768 54.561 14.374 86.25" style="fill:none;stroke:#fe0000;stroke-width:4;stroke-linecap:round;stroke-linejoin:round;stroke-miterlimit:4;stroke-opacity:1;stroke-dasharray:4,12;stroke-dashoffset:0;display:inline"/>
  </g>
  <g id="layer8" style="display:inline" transform="translate(45.872 -5.92)">
    <path id="path3125" d="M1695.937 1398.52h-24.481l12.24-21.2z" clip-path="url(#clipPath3494)" style="fill:red;fill-opacity:1;stroke:#fff;stroke-width:.867217;stroke-linecap:round;stroke-linejoin:miter;stroke-miterlimit:4;stroke-opacity:1;stroke-dasharray:none;stroke-dashoffset:0;display:inline" transform="rotate(-92.487 -81.539 1926.172)scale(.66234 2.00751)"/>
    <rect id="rect3127" width="13.041" height="53.589" x="-1620.884" y="376.017" clip-path="url(#clipPath3490)" ry="0" style="fill:url(#pattern4264)#000;fill-opacity:1;stroke:#000;stroke-width:.77603;stroke-linecap:round;stroke-linejoin:round;stroke-miterlimit:4;stroke-opacity:1;stroke-dasharray:none;stroke-dashoffset:0;display:inline" transform="rotate(-2.697 2543.01 -65551.469)scale(1.28861)"/>
    <path id="path3131" d="m377.938 275.403 12.5-12.5 20.312 32.031z" style="fill:red;fill-opacity:1;stroke:red;stroke-width:1px;stroke-linecap:butt;stroke-linejoin:miter;stroke-opacity:1;display:inline"/>
    <path id="path3097" d="m851.344 635.852 3.006 60.825" style="fill:none;stroke:#000;stroke-width:4;stroke-linecap:butt;stroke-linejoin:miter;stroke-miterlimit:4;stroke-opacity:1;stroke-dasharray:none;display:inline"/>
    <switch style="font-size:40px;font-style:normal;font-weight:400;line-height:125%;letter-spacing:0;word-spacing:0;fill:#000;fill-opacity:1;stroke:none;font-family:Sans">
      <text xml:space="preserve" id="text3870-lmo" x="827.063" y="721.155" style="font-size:40px;font-style:normal;font-weight:400;line-height:125%;letter-spacing:0;word-spacing:0;fill:#000;fill-opacity:1;stroke:none;font-family:Sans" systemLanguage="lmo"><tspan id="tspan3872-lmo" x="827.063" y="721.155" style="font-size:28px;font-style:normal;font-variant:normal;font-weight:400;font-stretch:normal;font-family:Arial;-inkscape-font-specification:Arial">principi</tspan></text>
      <text xml:space="preserve" id="text3870" x="827.063" y="721.155" style="font-size:40px;font-style:normal;font-weight:400;line-height:125%;letter-spacing:0;word-spacing:0;fill:#000;fill-opacity:1;stroke:none;font-family:Sans"><tspan id="tspan3872" x="827.063" y="721.155" style="font-size:28px;font-style:normal;font-variant:normal;font-weight:400;font-stretch:normal;font-family:Arial;-inkscape-font-specification:Arial">start</tspan></text>
    </switch>
    <switch style="font-size:40px;font-style:normal;font-weight:400;line-height:125%;letter-spacing:0;word-spacing:0;fill:#000;fill-opacity:1;stroke:none;display:inline;font-family:Sans">
      <text xml:space="preserve" id="text3870-1-lmo" x="1004.967" y="721.155" style="font-size:40px;font-style:normal;font-weight:400;line-height:125%;letter-spacing:0;word-spacing:0;fill:#000;fill-opacity:1;stroke:none;display:inline;font-family:Sans" systemLanguage="lmo"><tspan id="tspan3872-7-lmo" x="1004.967" y="721.155" style="font-size:28px;font-style:normal;font-variant:normal;font-weight:400;font-stretch:normal;font-family:Arial;-inkscape-font-specification:Arial">fin</tspan></text>
      <text xml:space="preserve" id="text3870-1" x="1004.967" y="721.155" style="font-size:40px;font-style:normal;font-weight:400;line-height:125%;letter-spacing:0;word-spacing:0;fill:#000;fill-opacity:1;stroke:none;display:inline;font-family:Sans"><tspan id="tspan3872-7" x="1004.967" y="721.155" style="font-size:28px;font-style:normal;font-variant:normal;font-weight:400;font-stretch:normal;font-family:Arial;-inkscape-font-specification:Arial">finish</tspan></text>
    </switch>
  </g>
  <g id="layer6" style="display:inline" transform="translate(45.872 -5.92)">
    <path id="path6980" d="M-44.799 81.328c.397-21.76 15.934-40.558 47.32-48.365s152.665-38.251 165.83-20.53c12.57 16.918 15.164 29.577 11.118 43.304-4.923 16.703-18.143 23.992-35.054 25.157-36.77 2.531-5.57-38.395-73.763-23.233C17.48 69.485 26.755 82.835 20.456 98.543c-5.348 13.335-19.553 19.318-44.078 16.255-16.879-2.108-21.51-15.208-21.177-33.47" style="color:#000;fill:#7b7bff;fill-opacity:.21176471;fill-rule:nonzero;stroke:#000096;stroke-width:2.11244202;stroke-linecap:round;stroke-linejoin:round;stroke-miterlimit:4;stroke-opacity:1;stroke-dasharray:6.33732617,6.33732617;stroke-dashoffset:0;marker:none;visibility:visible;display:inline;overflow:visible;enable-background:accumulate"/>
    <switch style="font-size:32px;font-style:normal;font-variant:normal;font-weight:400;font-stretch:normal;line-height:100%;fill:#000;fill-opacity:1;stroke:none;display:inline;font-family:Arial;-inkscape-font-specification:Arial">
      <text xml:space="preserve" id="text2482-lmo" x="299.385" y="173.524" style="font-size:32px;font-style:normal;font-variant:normal;font-weight:400;font-stretch:normal;line-height:100%;fill:#000;fill-opacity:1;stroke:none;display:inline;font-family:Arial;-inkscape-font-specification:Arial" systemLanguage="lmo"><tspan id="tspan2484-lmo" x="299.385" y="173.524">Curva del</tspan><tspan id="tspan2486-lmo" x="299.385" y="205.524">Saragli</tspan></text>
      <text xml:space="preserve" id="text2482" x="299.385" y="173.524" style="font-size:32px;font-style:normal;font-variant:normal;font-weight:400;font-stretch:normal;line-height:100%;fill:#000;fill-opacity:1;stroke:none;display:inline;font-family:Arial;-inkscape-font-specification:Arial"><tspan id="tspan2484" x="299.385" y="173.524">Curva del</tspan><tspan id="tspan2486" x="299.385" y="205.524">Serraglio</tspan></text>
    </switch>
    <switch style="font-size:32px;font-style:normal;font-variant:normal;font-weight:400;font-stretch:normal;text-align:start;line-height:100%;text-anchor:start;fill:#000;fill-opacity:1;stroke:none;display:inline;font-family:Arial;-inkscape-font-specification:Arial">
      <text xml:space="preserve" id="text2488-lmo" x="103.179" y="256.14" style="font-size:32px;font-style:normal;font-variant:normal;font-weight:400;font-stretch:normal;text-align:start;line-height:100%;text-anchor:start;fill:#000;fill-opacity:1;stroke:none;display:inline;font-family:Arial;-inkscape-font-specification:Arial" systemLanguage="lmo"><tspan id="tspan6956-lmo" x="103.179" y="256.14" style="font-style:normal;font-variant:normal;font-weight:400;font-stretch:normal;text-align:start;text-anchor:start;font-family:Arial;-inkscape-font-specification:Arial">2ª Variant</tspan><tspan id="tspan2492-lmo" x="103.179" y="285.466" style="font-size:28px;font-style:normal;font-variant:normal;font-weight:400;font-stretch:normal;text-align:start;text-anchor:start;font-family:Arial;-inkscape-font-specification:Arial">Variant de</tspan><tspan id="tspan6958-lmo" x="103.179" y="313.466" style="font-size:28px;font-style:normal;font-variant:normal;font-weight:400;font-stretch:normal;text-align:start;text-anchor:start;font-family:Arial;-inkscape-font-specification:Arial">la Ronsgia</tspan></text>
      <text xml:space="preserve" id="text2488" x="103.179" y="256.14" style="font-size:32px;font-style:normal;font-variant:normal;font-weight:400;font-stretch:normal;text-align:start;line-height:100%;text-anchor:start;fill:#000;fill-opacity:1;stroke:none;display:inline;font-family:Arial;-inkscape-font-specification:Arial"><tspan id="tspan6956" x="103.179" y="256.14" style="font-style:normal;font-variant:normal;font-weight:400;font-stretch:normal;text-align:start;text-anchor:start;font-family:Arial;-inkscape-font-specification:Arial">2º Variante</tspan><tspan id="tspan2492" x="103.179" y="285.466" style="font-size:28px;font-style:normal;font-variant:normal;font-weight:400;font-stretch:normal;text-align:start;text-anchor:start;font-family:Arial;-inkscape-font-specification:Arial">(Variante </tspan><tspan id="tspan6958" x="103.179" y="313.466" style="font-size:28px;font-style:normal;font-variant:normal;font-weight:400;font-stretch:normal;text-align:start;text-anchor:start;font-family:Arial;-inkscape-font-specification:Arial">della Roggia)</tspan></text>
    </switch>
    <switch style="font-size:32px;font-style:normal;font-variant:normal;font-weight:400;font-stretch:normal;fill:#000;fill-opacity:1;stroke:none;display:inline;font-family:Arial;-inkscape-font-specification:Arial">
      <text xml:space="preserve" id="text2500-lmo" x="549.439" y="413.749" style="font-size:32px;font-style:normal;font-variant:normal;font-weight:400;font-stretch:normal;fill:#000;fill-opacity:1;stroke:none;display:inline;font-family:Arial;-inkscape-font-specification:Arial" systemLanguage="lmo"><tspan id="tspan2502-lmo" x="549.439" y="413.749">Variant Ascari</tspan></text>
      <text xml:space="preserve" id="text2500" x="549.439" y="413.749" style="font-size:32px;font-style:normal;font-variant:normal;font-weight:400;font-stretch:normal;fill:#000;fill-opacity:1;stroke:none;display:inline;font-family:Arial;-inkscape-font-specification:Arial"><tspan id="tspan2502" x="549.439" y="413.749">Variante Ascari</tspan></text>
    </switch>
    <switch style="font-size:32px;font-style:normal;font-variant:normal;font-weight:400;font-stretch:normal;text-align:end;line-height:100%;text-anchor:end;fill:#000;fill-opacity:1;stroke:none;display:inline;font-family:Arial;-inkscape-font-specification:Arial">
      <text xml:space="preserve" id="text2504-lmo" x="1274.548" y="557.177" style="font-size:32px;font-style:normal;font-variant:normal;font-weight:400;font-stretch:normal;text-align:end;line-height:100%;text-anchor:end;fill:#000;fill-opacity:1;stroke:none;display:inline;font-family:Arial;-inkscape-font-specification:Arial" systemLanguage="lmo"><tspan id="tspan2508-lmo" x="1274.548" y="557.177">Curva</tspan><tspan id="tspan2512-lmo" x="1274.548" y="589.177">Parabolega</tspan></text>
      <text xml:space="preserve" id="text2504" x="1274.548" y="557.177" style="font-size:32px;font-style:normal;font-variant:normal;font-weight:400;font-stretch:normal;text-align:end;line-height:100%;text-anchor:end;fill:#000;fill-opacity:1;stroke:none;display:inline;font-family:Arial;-inkscape-font-specification:Arial"><tspan id="tspan2508" x="1274.548" y="557.177">Curva</tspan><tspan id="tspan2512" x="1274.548" y="589.177">Parabolica</tspan></text>
    </switch>
    <switch style="font-size:32px;font-style:normal;font-variant:normal;font-weight:400;font-stretch:normal;line-height:100%;fill:#000;fill-opacity:1;stroke:none;display:inline;font-family:Arial;-inkscape-font-specification:Arial">
      <text xml:space="preserve" id="text2518-lmo" x="178.273" y="701.336" style="font-size:32px;font-style:normal;font-variant:normal;font-weight:400;font-stretch:normal;line-height:100%;fill:#000;fill-opacity:1;stroke:none;display:inline;font-family:Arial;-inkscape-font-specification:Arial" systemLanguage="lmo" transform="rotate(.7)"><tspan id="tspan2520-lmo" x="178.273" y="701.336" style="font-style:normal;font-variant:normal;font-weight:400;font-stretch:normal;text-align:center;line-height:100%;text-anchor:middle;font-family:Arial;-inkscape-font-specification:Arial">Curva Biasson</tspan><tspan id="tspan6435-lmo" x="178.273" y="730.662" style="font-size:28px;font-style:normal;font-variant:normal;font-weight:400;font-stretch:normal;text-align:center;line-height:100%;text-anchor:middle;font-family:Arial;-inkscape-font-specification:Arial">(Gran Curva)</tspan></text>
      <text xml:space="preserve" id="text2518" x="178.273" y="701.336" style="font-size:32px;font-style:normal;font-variant:normal;font-weight:400;font-stretch:normal;line-height:100%;fill:#000;fill-opacity:1;stroke:none;display:inline;font-family:Arial;-inkscape-font-specification:Arial" transform="rotate(.7)"><tspan id="tspan2520" x="178.273" y="701.336" style="font-style:normal;font-variant:normal;font-weight:400;font-stretch:normal;text-align:center;line-height:100%;text-anchor:middle;font-family:Arial;-inkscape-font-specification:Arial">Curva Biassono</tspan><tspan id="tspan6435" x="178.273" y="730.662" style="font-size:28px;font-style:normal;font-variant:normal;font-weight:400;font-stretch:normal;text-align:center;line-height:100%;text-anchor:middle;font-family:Arial;-inkscape-font-specification:Arial">(Curva Grande)</tspan></text>
    </switch>
    <switch style="font-size:32px;font-style:normal;font-variant:normal;font-weight:400;font-stretch:normal;line-height:100%;fill:#000;fill-opacity:1;stroke:none;display:inline;font-family:Arial;-inkscape-font-specification:Arial">
      <text xml:space="preserve" id="text2554-lmo" x="468.496" y="719.964" style="font-size:32px;font-style:normal;font-variant:normal;font-weight:400;font-stretch:normal;line-height:100%;fill:#000;fill-opacity:1;stroke:none;display:inline;font-family:Arial;-inkscape-font-specification:Arial" systemLanguage="lmo"><tspan id="tspan2556-lmo" x="468.496" y="719.964" style="font-style:normal;font-variant:normal;font-weight:400;font-stretch:normal;text-align:center;line-height:100%;text-anchor:middle;font-family:Arial;-inkscape-font-specification:Arial">1ª Variant</tspan><tspan id="tspan5914-lmo" x="468.496" y="749.29" style="font-size:28px;font-style:normal;font-variant:normal;font-weight:400;font-stretch:normal;text-align:center;line-height:100%;text-anchor:middle;font-family:Arial;-inkscape-font-specification:Arial">(Variant del Drizz)</tspan></text>
      <text xml:space="preserve" id="text2554" x="468.496" y="719.964" style="font-size:32px;font-style:normal;font-variant:normal;font-weight:400;font-stretch:normal;line-height:100%;fill:#000;fill-opacity:1;stroke:none;display:inline;font-family:Arial;-inkscape-font-specification:Arial"><tspan id="tspan2556" x="468.496" y="719.964" style="font-style:normal;font-variant:normal;font-weight:400;font-stretch:normal;text-align:center;line-height:100%;text-anchor:middle;font-family:Arial;-inkscape-font-specification:Arial">1º Variante</tspan><tspan id="tspan5914" x="468.496" y="749.29" style="font-size:28px;font-style:normal;font-variant:normal;font-weight:400;font-stretch:normal;text-align:center;line-height:100%;text-anchor:middle;font-family:Arial;-inkscape-font-specification:Arial">(Variante del Rettifilo)</tspan></text>
    </switch>
    <path id="path4475-0" d="M469.719 691.481c-19.563-2.37-18.472-21.1-31.836-37.213-24.654-29.721-4.163-71.324 44.017-43.177 28.016 16.367 36.125 32.542 24.891 64.507-5.837 16.61-21.18 17.81-37.072 15.883" style="fill:#7b7bff;fill-opacity:.21176471;fill-rule:nonzero;stroke:#000096;stroke-width:2.11628747;stroke-linecap:round;stroke-linejoin:round;stroke-miterlimit:4;stroke-opacity:1;stroke-dasharray:6.34886275,6.34886275;stroke-dashoffset:0;marker:none;visibility:visible;display:inline;overflow:visible;enable-background:accumulate"/>
    <path id="path4475-0-2" d="M29.541 275.812c2.152-27.542-7.618-57.119 33.368-56.84 27.784.188 25.931 26.247 25.19 56.397-.86 35.013 20.791 62.88-15.954 64.207-41.474 1.496-45.12-31.55-42.604-63.764" style="fill:#7b7bff;fill-opacity:.21176471;fill-rule:nonzero;stroke:#000096;stroke-width:2;stroke-linecap:round;stroke-linejoin:round;stroke-miterlimit:4;stroke-opacity:1;stroke-dasharray:6,6;stroke-dashoffset:0;marker:none;visibility:visible;display:inline;overflow:visible;enable-background:accumulate"/>
    <path id="path7029" d="M552.991 450.988c-.38 26.725 5.12 43.956 33.813 49.248 27.124 5.003 56.445 15.541 87.363 19.123 40.213 4.66 51.542-17.858 52.447-38.963.83-19.362-6.926-29.37-22.425-35.12-38.61-14.325-101.513-29.511-130.846-20.574-8.596 2.62-20.264 20.066-20.352 26.286" style="color:#000;fill:#7b7bff;fill-opacity:.21176471;fill-rule:nonzero;stroke:#000096;stroke-width:2;stroke-linecap:round;stroke-linejoin:round;stroke-miterlimit:4;stroke-opacity:1;stroke-dasharray:6,6;stroke-dashoffset:0;marker:none;visibility:visible;display:inline;overflow:visible;enable-background:accumulate"/>
    <switch style="font-size:32px;font-style:normal;font-variant:normal;font-weight:400;font-stretch:normal;line-height:100%;fill:#000;fill-opacity:1;stroke:none;display:inline;font-family:Arial;-inkscape-font-specification:Arial">
      <text xml:space="preserve" id="text2478-lmo" x="38.479" y="109.231" style="font-size:32px;font-style:normal;font-variant:normal;font-weight:400;font-stretch:normal;line-height:100%;fill:#000;fill-opacity:1;stroke:none;display:inline;font-family:Arial;-inkscape-font-specification:Arial" systemLanguage="lmo"><tspan id="tspan2480-lmo" x="38.479" y="109.231">Curve de</tspan><tspan id="tspan3093-lmo" x="38.479" y="141.231">Lesmo</tspan></text>
      <text xml:space="preserve" id="text2478" x="38.479" y="109.231" style="font-size:32px;font-style:normal;font-variant:normal;font-weight:400;font-stretch:normal;line-height:100%;fill:#000;fill-opacity:1;stroke:none;display:inline;font-family:Arial;-inkscape-font-specification:Arial"><tspan id="tspan2480" x="38.479" y="109.231">Curve di </tspan><tspan id="tspan3093" x="38.479" y="141.231">Lesmo</tspan></text>
    </switch>
  </g>
  <g id="layer7" style="display:inline" transform="translate(45.872 -5.92)">
    <switch style="font-size:40px;font-style:normal;font-weight:400;line-height:125%;letter-spacing:0;word-spacing:0;fill:#030000;fill-opacity:1;stroke:#fff;stroke-width:5;stroke-miterlimit:4;stroke-opacity:1;stroke-dasharray:none;display:inline;filter:url(#filter7086);font-family:Sans">
      <text xml:space="preserve" id="text7054" x="483.179" y="658.657" style="font-size:40px;font-style:normal;font-weight:400;line-height:125%;letter-spacing:0;word-spacing:0;fill:#030000;fill-opacity:1;stroke:#fff;stroke-width:5;stroke-miterlimit:4;stroke-opacity:1;stroke-dasharray:none;display:inline;filter:url(#filter7086);font-family:Sans"><tspan id="tspan7056" x="483.179" y="658.657" style="font-style:normal;font-variant:normal;font-weight:700;font-stretch:normal;fill:#030000;fill-opacity:1;stroke:#fff;stroke-width:5;stroke-miterlimit:4;stroke-opacity:1;stroke-dasharray:none;font-family:Arial;-inkscape-font-specification:Arial Bold">1</tspan></text>
    </switch>
    <switch style="font-size:40px;font-style:normal;font-weight:400;line-height:125%;letter-spacing:0;word-spacing:0;fill:#000;fill-opacity:1;stroke:none;display:inline;font-family:Sans">
      <text xml:space="preserve" id="text5781" x="483.179" y="658.657" style="font-size:40px;font-style:normal;font-weight:400;line-height:125%;letter-spacing:0;word-spacing:0;fill:#000;fill-opacity:1;stroke:none;display:inline;font-family:Sans"><tspan id="tspan5783" x="483.179" y="658.657" style="font-style:normal;font-variant:normal;font-weight:700;font-stretch:normal;font-family:Arial;-inkscape-font-specification:Arial Bold">1</tspan></text>
    </switch>
    <switch style="font-size:40px;font-style:normal;font-weight:400;line-height:125%;letter-spacing:0;word-spacing:0;fill:#030000;fill-opacity:1;stroke:#fff;stroke-width:5;stroke-miterlimit:4;stroke-opacity:1;stroke-dasharray:none;display:inline;filter:url(#filter7090);font-family:Sans">
      <text xml:space="preserve" id="text7058" x="441.761" y="635.773" style="font-size:40px;font-style:normal;font-weight:400;line-height:125%;letter-spacing:0;word-spacing:0;fill:#030000;fill-opacity:1;stroke:#fff;stroke-width:5;stroke-miterlimit:4;stroke-opacity:1;stroke-dasharray:none;display:inline;filter:url(#filter7090);font-family:Sans"><tspan id="tspan7060" x="441.761" y="635.773" style="font-style:normal;font-variant:normal;font-weight:700;font-stretch:normal;fill:#030000;fill-opacity:1;stroke:#fff;stroke-width:5;stroke-miterlimit:4;stroke-opacity:1;stroke-dasharray:none;font-family:Arial;-inkscape-font-specification:Arial Bold">2</tspan></text>
    </switch>
    <switch style="font-size:40px;font-style:normal;font-weight:400;line-height:125%;letter-spacing:0;word-spacing:0;fill:#000;fill-opacity:1;stroke:none;display:inline;font-family:Sans">
      <text xml:space="preserve" id="text5781-3" x="441.761" y="635.773" style="font-size:40px;font-style:normal;font-weight:400;line-height:125%;letter-spacing:0;word-spacing:0;fill:#000;fill-opacity:1;stroke:none;display:inline;font-family:Sans"><tspan id="tspan5783-1" x="441.761" y="635.773" style="font-style:normal;font-variant:normal;font-weight:700;font-stretch:normal;font-family:Arial;-inkscape-font-specification:Arial Bold">2</tspan></text>
    </switch>
    <switch style="font-size:40px;font-style:normal;font-weight:400;line-height:125%;letter-spacing:0;word-spacing:0;fill:#000;fill-opacity:1;stroke:none;display:inline;font-family:Sans">
      <text xml:space="preserve" id="text5781-3-6" x="146.04" y="666.848" style="font-size:40px;font-style:normal;font-weight:400;line-height:125%;letter-spacing:0;word-spacing:0;fill:#000;fill-opacity:1;stroke:none;display:inline;font-family:Sans"><tspan id="tspan5783-1-8" x="146.04" y="666.848" style="font-style:normal;font-variant:normal;font-weight:700;font-stretch:normal;font-family:Arial;-inkscape-font-specification:Arial Bold">3</tspan></text>
    </switch>
    <switch style="font-size:40px;font-style:normal;font-weight:400;line-height:125%;letter-spacing:0;word-spacing:0;fill:#000;fill-opacity:1;stroke:none;display:inline;font-family:Sans">
      <text xml:space="preserve" id="text5781-3-6-8" x="40.769" y="321.81" style="font-size:40px;font-style:normal;font-weight:400;line-height:125%;letter-spacing:0;word-spacing:0;fill:#000;fill-opacity:1;stroke:none;display:inline;font-family:Sans"><tspan id="tspan5783-1-8-2" x="40.769" y="321.81" style="font-style:normal;font-variant:normal;font-weight:700;font-stretch:normal;font-family:Arial;-inkscape-font-specification:Arial Bold">4</tspan></text>
    </switch>
    <switch style="font-size:40px;font-style:normal;font-weight:400;line-height:125%;letter-spacing:0;word-spacing:0;fill:#000;fill-opacity:1;stroke:none;display:inline;font-family:Sans">
      <text xml:space="preserve" id="text5781-3-6-7" x="50.996" y="259.425" style="font-size:40px;font-style:normal;font-weight:400;line-height:125%;letter-spacing:0;word-spacing:0;fill:#000;fill-opacity:1;stroke:none;display:inline;font-family:Sans"><tspan id="tspan5783-1-8-7" x="50.996" y="259.425" style="font-style:normal;font-variant:normal;font-weight:700;font-stretch:normal;font-family:Arial;-inkscape-font-specification:Arial Bold">5</tspan></text>
    </switch>
    <switch style="font-size:40px;font-style:normal;font-weight:400;line-height:125%;letter-spacing:0;word-spacing:0;fill:#000;fill-opacity:1;stroke:none;display:inline;font-family:Sans">
      <text xml:space="preserve" id="text5781-3-6-1" x="-10.265" y="99.719" style="font-size:40px;font-style:normal;font-weight:400;line-height:125%;letter-spacing:0;word-spacing:0;fill:#000;fill-opacity:1;stroke:none;display:inline;font-family:Sans"><tspan id="tspan5783-1-8-26" x="-10.265" y="99.719" style="font-style:normal;font-variant:normal;font-weight:700;font-stretch:normal;font-family:Arial;-inkscape-font-specification:Arial Bold">6</tspan></text>
    </switch>
    <switch style="font-size:40px;font-style:normal;font-weight:400;line-height:125%;letter-spacing:0;word-spacing:0;fill:#000;fill-opacity:1;stroke:none;display:inline;font-family:Sans">
      <text xml:space="preserve" id="text5781-3-6-0" x="132.019" y="67.6" style="font-size:40px;font-style:normal;font-weight:400;line-height:125%;letter-spacing:0;word-spacing:0;fill:#000;fill-opacity:1;stroke:none;display:inline;font-family:Sans"><tspan id="tspan5783-1-8-4" x="132.019" y="67.6" style="font-style:normal;font-variant:normal;font-weight:700;font-stretch:normal;font-family:Arial;-inkscape-font-specification:Arial Bold">7</tspan></text>
    </switch>
    <switch style="font-size:40px;font-style:normal;font-weight:400;line-height:125%;letter-spacing:0;word-spacing:0;fill:#000;fill-opacity:1;stroke:none;display:inline;font-family:Sans">
      <text xml:space="preserve" id="text5781-3-6-9" x="575.541" y="461.727" style="font-size:40px;font-style:normal;font-weight:400;line-height:125%;letter-spacing:0;word-spacing:0;fill:#000;fill-opacity:1;stroke:none;display:inline;font-family:Sans"><tspan id="tspan5783-1-8-46" x="575.541" y="461.727" style="font-style:normal;font-variant:normal;font-weight:700;font-stretch:normal;font-family:Arial;-inkscape-font-specification:Arial Bold">8</tspan></text>
    </switch>
    <switch style="font-size:40px;font-style:normal;font-weight:400;line-height:125%;letter-spacing:0;word-spacing:0;fill:#000;fill-opacity:1;stroke:none;display:inline;font-family:Sans">
      <text xml:space="preserve" id="text5781-3-6-03" x="632.858" y="465.818" style="font-size:40px;font-style:normal;font-weight:400;line-height:125%;letter-spacing:0;word-spacing:0;fill:#000;fill-opacity:1;stroke:none;display:inline;font-family:Sans"><tspan id="tspan5783-1-8-6" x="632.858" y="465.818" style="font-style:normal;font-variant:normal;font-weight:700;font-stretch:normal;font-family:Arial;-inkscape-font-specification:Arial Bold">9</tspan></text>
    </switch>
    <switch style="font-size:40px;font-style:normal;font-weight:400;line-height:125%;letter-spacing:0;word-spacing:0;fill:#000;fill-opacity:1;stroke:none;display:inline;font-family:Sans">
      <text xml:space="preserve" id="text5781-3-6-2" x="675.213" y="487.177" style="font-size:40px;font-style:normal;font-weight:400;line-height:125%;letter-spacing:0;word-spacing:0;fill:#000;fill-opacity:1;stroke:none;display:inline;font-family:Sans"><tspan id="tspan5783-1-8-45" x="675.213" y="487.177" style="font-style:normal;font-variant:normal;font-weight:700;font-stretch:normal;font-family:Arial;-inkscape-font-specification:Arial Bold">10</tspan></text>
    </switch>
    <switch style="font-size:40px;font-style:normal;font-weight:400;line-height:125%;letter-spacing:0;word-spacing:0;fill:#000;fill-opacity:1;stroke:none;display:inline;font-family:Sans">
      <text xml:space="preserve" id="text5781-3-6-88" x="1312.232" y="582.452" style="font-size:40px;font-style:normal;font-weight:400;line-height:125%;letter-spacing:0;word-spacing:0;fill:#000;fill-opacity:1;stroke:none;display:inline;font-family:Sans"><tspan id="tspan5783-1-8-1" x="1312.232" y="582.452" style="font-style:normal;font-variant:normal;font-weight:700;font-stretch:normal;font-family:Arial;-inkscape-font-specification:Arial Bold">11</tspan></text>
    </switch>
  </g>
  <g id="layer5" style="display:inline" transform="translate(45.872 -5.92)">
    <path id="path2423" d="M1226.705 404.748v21h360v-21h-4v17h-85.343v-7.594h-4v7.593h-84.938v-13.062h-4v13.063h-85.062v-7.594h-4v7.593h-84.657v-17z" style="fill:#000;fill-opacity:1;fill-rule:evenodd;stroke:#fff;stroke-width:1.5;stroke-linecap:butt;stroke-linejoin:miter;stroke-miterlimit:4;stroke-opacity:1;stroke-dasharray:none;display:inline" transform="translate(-692.608 -329.667)"/>
    <switch style="font-size:20px;font-style:normal;font-weight:400;fill:#000;fill-opacity:1;display:inline;font-family:Times New Roman">
      <text xml:space="preserve" id="text2441-lmo" x="1343.842" y="396.86" style="font-size:20px;font-style:normal;font-weight:400;fill:#000;fill-opacity:1;display:inline;font-family:Times New Roman" systemLanguage="lmo" transform="translate(-692.608 -329.667)"><tspan id="tspan2443-lmo" x="1343.842" y="396.86">619 m (2032 ft)</tspan></text>
      <text xml:space="preserve" id="text2441" x="1343.842" y="396.86" style="font-size:20px;font-style:normal;font-weight:400;fill:#000;fill-opacity:1;display:inline;font-family:Times New Roman" transform="translate(-692.608 -329.667)"><tspan id="tspan2443" x="1343.842" y="396.86">2032 ft (619 m)</tspan></text>
    </switch>
    <switch style="font-size:100px;font-style:normal;font-weight:400;fill:#000;fill-opacity:1;stroke:#fff;stroke-width:1.00000131px;stroke-linecap:butt;stroke-linejoin:miter;stroke-opacity:1;display:inline;font-family:Times New Roman">
      <text xml:space="preserve" id="text3180" x="1737.133" y="468.221" style="font-size:100px;font-style:normal;font-weight:400;fill:#000;fill-opacity:1;stroke:#fff;stroke-width:1.00000131px;stroke-linecap:butt;stroke-linejoin:miter;stroke-opacity:1;display:inline;font-family:Times New Roman" transform="translate(-692.608 -329.667)"><tspan id="tspan3182" x="1737.133" y="468.221" style="font-size:100px;stroke-width:1.00000131">N</tspan></text>
    </switch>
    <path id="path2745" d="m1835.263 448.277 101.628-33.781.246 2.002-19.808 21.702 24.47 16.268.245 2z" style="fill:red;fill-opacity:1;fill-rule:nonzero;stroke:#fff;stroke-width:1.00000131;stroke-linecap:round;stroke-linejoin:round;stroke-miterlimit:4;stroke-opacity:1;stroke-dasharray:none;stroke-dashoffset:0;display:inline" transform="translate(-692.608 -329.667)"/>
  </g>
</svg>
