<svg xmlns="http://www.w3.org/2000/svg" aria-label="Track map of Autodromo Nazionale Monza, Grand Prix layout" role="img" viewBox="0 0 1000 1000">
<!--Production track map for Autodromo Nazionale Monza (Grand Prix layout).
  Derived by path-extract from map-source.svg. The source path3113 is the black
  Grand-Prix-circuit centerline; its raw d is affine-fit (uniform scale + translate)
  into the 0 0 1000 1000 viewBox. Source: Monza_track_map.svg by Will Pittenger,
  CC BY-SA 3.0, via Wikimedia Commons. Retraced 2026-06-11.-->
  <path fill="none" stroke="#1f1f21" stroke-linecap="round" stroke-linejoin="round" stroke-width="10" d="M642.015 709.12c-79.265 2.287-158.14 2.899-236.923 3.927-16.288.215.319-22.497-17.17-15.507-24.053 9.614-47.25 17.994-73.35 18.19-24.49.185-59.194.502-75.192-4.805-17.337-5.751-35.138-19.273-41.647-24.577-11.86-9.661-23.295-24.502-31.763-45.025-9.781-23.703-17.698-63.007-23.505-97.848-3.153-18.921-11.524-63.908-13.69-80.925-2.004-15.744-15.495-5.891-19.448-16.822-16.432-45.454-37.502-80.06-39.075-86.289-8.027-16.464-10.252-27.026-7.238-38.706 1.66-6.435 13.99-17.086 21.007-18.434 31.887-6.124 60.576-12.393 93.51-17.758 4.75-.774 10.238 4.502 12.932 8.021 16.11 21.042 60.777 89.865 87.391 119.869 26.243 29.586 54.179 52.497 86.751 82.595 31.514 29.118 64.639 60.31 96.007 87.432 8.214 7.103 22.707-2.11 37.809-.909 3.413.271 14.058 3.125 20.737 9.135 3.34 3.005 7.065 8.439 12.663 10.476 5.599 2.038 23.616 2.547 26.071 2.533 118.948-.712 226.447-.627 345.726.163 24.218-.043 35.002 11.171 36.381 33.11-.19 7.904-1.001 16.607-7.35 24.93-8.421 11.042-22.89 22.93-35.357 28.153-22.668 9.498-45.873 10.165-69.018 12.834-59.64 6.879-125.079 4.473-186.259 6.237"/>
</svg>
