<!--Created with Inkscape (http://www.inkscape.org/)-->
<svg xmlns="http://www.w3.org/2000/svg" xmlns:xlink="http://www.w3.org/1999/xlink" id="svg2" width="1272.682" height="983.406">
  <defs id="defs4">
    <pattern xlink:href="#pattern4256" id="pattern4264" patternTransform="translate(-1645.844 376.076)scale(.77603)"/>
    <pattern id="pattern4256" width="10.794" height="10.774" patternTransform="rotate(223.488 978.448 137.465)scale(.77603)" patternUnits="userSpaceOnUse">
      <g id="g4248" transform="rotate(.594 69171.93 -57749.58)scale(.588)">
        <path id="rect4250" d="M1025.535 1215.281h18.173v18.096h-18.173z" style="opacity:1;fill:#000;fill-opacity:1;stroke:none;stroke-width:.5;stroke-linecap:round;stroke-linejoin:round;stroke-miterlimit:4;stroke-dasharray:none;stroke-dashoffset:0;stroke-opacity:1"/>
        <path id="rect4252" d="M1025.535 1215.281h9.075v9.075h-9.075z" style="opacity:1;fill:#fff;fill-opacity:1;stroke:none;stroke-width:.5;stroke-linecap:round;stroke-linejoin:round;stroke-miterlimit:4;stroke-dasharray:none;stroke-dashoffset:0;stroke-opacity:1"/>
        <path id="rect4254" d="M1034.641 1224.344h9.075v9.075h-9.075z" style="opacity:1;fill:#fff;fill-opacity:1;stroke:none;stroke-width:.5;stroke-linecap:round;stroke-linejoin:round;stroke-miterlimit:4;stroke-dasharray:none;stroke-dashoffset:0;stroke-opacity:1"/>
      </g>
    </pattern>
    <filter id="filter5277" width="1.073" height="1.333" x="-.037" y="-.167" color-interpolation-filters="sRGB">
      <feGaussianBlur id="feGaussianBlur5279" stdDeviation="4.59"/>
    </filter>
  </defs>
  <g id="layer1" transform="translate(371.29 -31.096)">
    <use xlink:href="#path3880" id="use3884" width="744.094" height="1052.362" x="0" y="0" style="stroke:#fff;stroke-width:10;stroke-miterlimit:4;stroke-opacity:1;stroke-dasharray:none;filter:url(#filter5277)"/>
    <use xlink:href="#path3874" id="use3878" width="744.094" height="1052.362" x="0" y="0" style="stroke:#fff;stroke-width:10;stroke-miterlimit:4;stroke-opacity:1;stroke-dasharray:none;filter:url(#filter5277)"/>
    <use xlink:href="#path3618" id="use3872" width="744.094" height="1052.362" x="0" y="0" style="stroke:#fff;stroke-width:15;stroke-miterlimit:4;stroke-opacity:1;stroke-dasharray:none;filter:url(#filter5277)"/>
    <use xlink:href="#path3616" id="use3870" width="744.094" height="1052.362" x="0" y="0" style="stroke:#fff;stroke-width:15;stroke-miterlimit:4;stroke-opacity:1;stroke-dasharray:none;filter:url(#filter5277)"/>
    <use xlink:href="#path3614" id="use3868" width="744.094" height="1052.362" x="0" y="0" style="stroke:#fff;stroke-width:15;stroke-miterlimit:4;stroke-opacity:1;stroke-dasharray:none;filter:url(#filter5277)"/>
    <use xlink:href="#path4354" id="use4358" width="1272.682" height="887.041" x="0" y="0" style="stroke:#fff;stroke-width:10;stroke-miterlimit:4;stroke-opacity:1;stroke-dasharray:none;filter:url(#filter5277)"/>
    <use xlink:href="#path3612" id="use3866" width="744.094" height="1052.362" x="0" y="0" style="stroke:#fff;stroke-width:15;stroke-miterlimit:4;stroke-opacity:1;stroke-dasharray:none;filter:url(#filter5277)"/>
    <use xlink:href="#path3610" id="use3864" width="744.094" height="1052.362" x="0" y="0" style="stroke:#fff;stroke-width:15;stroke-miterlimit:4;stroke-opacity:1;stroke-dasharray:none;filter:url(#filter5277)"/>
    <path id="path3610" d="M356.477 426.072c42.464 13.965 84.863 28.54 126.235 44.4 6.675 2.558 11.747 8.61 16.32 14.123 14.259 17.189 25.616 37.56 40.174 53.983 2.6 2.932 7.555 4.024 11.3 4.08 3.16.048 7.166-1.567 9.415-3.766 2.46-2.405 4.273-6.568 4.708-10.043.402-3.221-.703-7-2.197-10.044-4.155-8.463-10.026-16.21-14.752-24.48-6.991-12.235-13.963-24.506-20.4-37.036-5.28-10.277-10.954-20.536-14.752-31.385a147 147 0 0 1-7.218-31.386c-.87-7.527-.079-15.376.941-22.912.864-6.378 2.504-12.77 4.708-18.831 3.655-10.05 7.597-20.216 12.868-29.503 6.132-10.8 13.73-20.9 21.343-30.758 5.15-6.671 10.869-12.989 16.948-18.83 10.032-9.642 20.367-19.14 31.386-27.62 10.323-7.946 21.18-15.527 32.64-21.656 11.034-5.902 22.886-10.778 34.839-14.438 9.912-3.035 20.428-4.514 30.758-5.65 8.71-.957 17.643-1.571 26.364-.627 35.742 3.869 71.427 11.942 107.025 15.065 6.144.54 12.771-1.388 18.204-4.08 6.18-3.062 12.213-7.813 16.634-13.182 5.831-7.08 10.539-15.634 14.124-24.167 3.843-9.147 6.816-19.1 8.16-28.875.958-6.964 1.01-14.84-1.256-21.342-2.546-7.307-7.704-14.61-13.182-20.087-3.52-3.52-8.947-5.412-13.81-6.905-5.703-1.75-11.935-3.042-17.89-2.825-8.378.306-16.969 2.063-25.108 4.394-12.68 3.632-24.993 8.752-37.349 13.496-13.799 5.3-27.587 10.689-41.115 16.635-12.417 5.457-24.715 11.266-36.721 17.576-16.66 8.755-33.466 17.446-49.276 27.62-18.819 12.11-36.876 25.546-54.61 39.231-18.464 14.248-35.935 29.778-53.984 44.568-20.765 17.015-41.827 33.67-62.458 50.845-21.217 17.663-42.272 35.531-63.085 53.67-31.287 27.266-63.05 54.264-93.215 82.544-3.313 3.105-5.921 7.295-7.22 11.612-4.142 13.782-7.262 28.31-9.101 42.685-1.614 12.618-2.674 25.663-1.255 38.29 2.975 26.5 8.798 52.908 14.437 79.092 4.928 22.883 13.369 45.157 17.262 68.107 2.07 12.202 1.523 25.258.628 37.35-.15 2.031-1.892 4.267-3.766 5.021-7.751 3.117-17.639 3.085-25.109 6.591-2.782 1.306-5.527 4.842-5.65 7.847-.295 7.248 2.272 15.199 2.895 22.911.737 9.131.942 18.629-.314 27.62-.732 5.237-1.97 10.175-4.15 15.065-2.11 4.735-4.37 9.49-7.218 13.81-3.638 5.515-7.565 11.07-12.24 15.692-4.322 4.271-9.478 7.892-14.752 10.985-11.674 6.846-23.735 13.331-36.094 18.832-7.623 3.392-15.787 5.661-23.853 7.846-7 1.896-14.157 3.337-21.342 4.394-70.338 10.347-140.885 19.424-211.226 29.816-45.786 6.765-91.386 14.779-137.155 21.657-32.905 4.944-65.86 10.025-98.865 13.81-6.227.713-12.607.297-18.832-.315-5.492-.54-11.139-1.33-16.32-3.138-5.908-2.062-11.858-4.832-16.949-8.474a117.5 117.5 0 0 1-19.459-17.576c-5.342-6.048-10.357-12.917-13.81-20.087-1.987-4.129-2.51-9.198-2.51-13.81 0-5.222.561-10.928 2.51-15.693 1.818-4.441 5.36-8.444 8.789-11.926 3.37-3.423 7.369-6.586 11.612-8.788 4.021-2.087 8.665-3.407 13.182-4.08 7.41-1.105 15.059-.986 22.598-1.256 30.438-1.09 61.057-.892 91.332-2.825 4.144-.264 8.257-1.885 11.927-3.766 4.7-2.409 9.377-5.458 13.182-9.102 3.623-3.47 6.482-7.903 9.102-12.24 3.448-5.707 5.304-12.5 9.102-17.89 2.688-3.816 6.429-7.208 10.357-9.73 4.546-2.918 9.847-5.227 15.065-6.59 3.989-1.043 8.38-.776 12.554-.628 4.719.166 9.53.466 14.124 1.569 13.714 3.291 27.094 8.223 40.801 11.613 5.752 1.422 11.748 2.934 17.576 2.824 5.261-.099 10.754-1.537 15.693-3.452 5.314-2.06 10.523-5.038 15.065-8.474 3.618-2.737 6.752-6.326 9.416-10.044 6.856-9.568 12.14-20.38 19.145-29.816 3.247-4.373 7.242-8.424 11.613-11.613 4.521-3.297 9.836-5.766 15.065-7.846a62.5 62.5 0 0 1 14.124-3.766c5.459-.78 11.23-1.36 16.634-.628 4.64.628 9.249 2.643 13.496 4.708 3.285 1.597 6.458 3.748 9.102 6.277 4.575 4.376 8.532 9.491 12.554 14.437 5.08 6.249 9.577 12.98 14.751 19.146 4.66 5.552 9.04 11.75 14.752 16.006 5.378 4.009 12.116 6.592 18.517 8.788 4.27 1.466 8.972 2.056 13.496 2.197 5.52.173 11.38.278 16.634-1.255 7.3-2.129 14.377-5.857 21.029-9.73 8.622-5.02 17.106-10.604 24.795-16.948 7.272-6 13.89-12.97 20.086-20.087 4.37-5.018 8.18-10.613 11.613-16.32 4.308-7.16 8.585-14.54 11.613-22.284 2.412-6.17 3.47-12.91 4.708-19.46 1.273-6.737 2.314-13.567 2.824-20.4.537-7.186.803-14.475.314-21.656-.557-8.198-1.43-16.531-3.452-24.481-2.582-10.15-6.75-19.933-10.357-29.816-9.68-26.525-21.228-52.743-29.503-79.406-1.141-3.677-.235-8.038 1.255-11.613 11.901-28.543 24.908-57.288 38.919-84.741 1.473-2.887 4.663-5.002 7.532-6.277 2.78-1.236 6.414-2.216 9.416-1.256 14.899 4.764 29.85 9.561 44.811 14.42" style="fill:none"/>
    <path id="path3612" d="M216.024 771.17c4.416-3.323 8.958-3.008 13.592-3.168 4.468-.154 8.57.12 12.995 1.261 8.548 2.206 15.367 4.13 23.048 8.033 5.082 2.583 10.154 7.281 12.868 12.176 3.144 5.672 6.761 12.378 7.083 19.023.306 6.328-1.177 12.965-2.825 19.146-1.281 4.804-4.858 12.417-7.908 15.114" style="fill:none"/>
    <path id="path3614" d="M334 724.245c-.724 9.865-2.014 20.83-4 31-.764 3.913-2.052 8.474-4.25 11.25-.97 1.224-3.655 1.29-5.25.75-3.572-1.21-6.74-5.178-10.25-6-1.824-.428-4.377.561-5.594 1.969-1.45 1.676-1.274 2.676-1.687 5.062-.168.969-.38 2.438-.337 3.672" style="fill:none"/>
    <path id="path3616" d="M274.414 687.628c-.724 3.55-1.488 7.59-.664 10.984.592 2.44 2.496 4.95 4.5 6.5 2.413 1.867 5.673 3.13 8.75 3.75 6.006 1.212 12.343 1.08 18.5 1.75 6.843.746 13.693 2.173 20.5 2.5 1.86.09 4.013-.339 5.5-1.25 1.097-.672 1.81-2.218 2.25-3.5.56-1.634 1.04-3.617.953-5.312" style="fill:none"/>
    <path id="path3880" d="M274.272 787.702c2.615 3.871 5.192 8.16 6.002 12.79.655 3.74.814 7.39 0 11.142-1.07 4.931-2.878 9.854-5.021 14.437-1.624 3.472-3.777 6.864-6.278 9.73-1.789 2.05-3.452 3.583-6.277 5.492" style="fill:none"/>
    <path id="path4354" d="M998.841 108.119c-7.883 5.121-17.355 8.262-25.702 12.815-7.23 3.944-15.05 6.952-21.808 11.612-13.916 9.596-27.553 19.992-40.217 31.154-5.65 4.982-9.627 11.69-14.727 17.277-6.795 7.442-11.494 16.946-19.259 23.86" style="fill:none" transform="translate(-371.29 78.756)"/>
    <path id="path3618" d="M505.957 399.393c-.557-4.005-.415-8.338.293-12.28.459-2.558 1.581-5.338 3.25-7.25 1.748-2.004 4.58-3.156 7-4.5 2.83-1.573 6.528-2.174 8.75-4.25 1.612-1.508 2.56-4.254 2.75-6.5.226-2.67-.966-5.507-1.5-8.25-1.3-6.674-3.236-13.303-4-20-.32-2.803.041-5.783.75-8.5.791-3.033 2.351-5.908 3.75-8.75 1.185-2.408 2.3-4.804 3.828-7.067" style="fill:none"/>
    <path id="path3874" d="M300.067 789.193c-.628 4.63-.841 9.411-2.923 13.418-3.463 6.664-5.795 12.909-10.593 18.752-3.362 4.096-7.408 7.737-11.612 10.985-7.304 5.644-14.917 11.08-22.912 15.693-8.325 4.803-17.287 8.543-26.05 12.555-8.604 3.939-16.85 9.495-26.05 11.298-22.29 4.37-45.59 5.129-68.42 7.22-6.882.63-13.94-.007-20.715.94-2.954.414-5.521 2.592-8.475 3.14-15.668 2.904-31.583 4.892-47.392 7.218-46.753 6.88-93.753 12.482-140.294 20.4-13.72 2.335-26.931 7.162-40.488 10.358-13.958 3.29-28.449 7.653-42.468 9.736" style="fill:none"/>
    <use xlink:href="#path3618" id="use3620" width="744.094" height="1052.362" x="0" y="0" style="stroke:#c8c8c8;stroke-width:10;stroke-miterlimit:4;stroke-opacity:1;stroke-dasharray:none"/>
    <use xlink:href="#path3616" id="use3622" width="744.094" height="1052.362" x="0" y="0" style="stroke:#c8c8c8;stroke-width:10;stroke-miterlimit:4;stroke-opacity:1;stroke-dasharray:none"/>
    <use xlink:href="#path3614" id="use3624" width="744.094" height="1052.362" x="0" y="0" style="stroke:#c8c8c8;stroke-width:10;stroke-miterlimit:4;stroke-opacity:1;stroke-dasharray:none"/>
    <use xlink:href="#path3612" id="use3626" width="744.094" height="1052.362" x="0" y="0" style="stroke:#c8c8c8;stroke-width:10;stroke-miterlimit:4;stroke-opacity:1;stroke-dasharray:none"/>
    <use xlink:href="#path4354" id="use4356" width="1272.682" height="887.041" x="0" y="0" style="stroke:#c8c8c8;stroke-width:5;stroke-linecap:butt;stroke-linejoin:miter;stroke-miterlimit:4;stroke-opacity:1;stroke-dasharray:none"/>
    <use xlink:href="#path3880" id="use3882" width="744.094" height="1052.362" x="0" y="0" style="stroke:#c8c8c8;stroke-width:5;stroke-miterlimit:4;stroke-opacity:1;stroke-dasharray:none"/>
    <use xlink:href="#path3610" id="use3628" width="744.094" height="1052.362" x="0" y="0" style="stroke:#000;stroke-width:10;stroke-miterlimit:4;stroke-opacity:1;stroke-dasharray:none"/>
    <use xlink:href="#path3874" id="use3876" width="744.094" height="1052.362" x="0" y="0" style="stroke:#000;stroke-width:5;stroke-linecap:butt;stroke-linejoin:miter;stroke-miterlimit:4;stroke-opacity:1;stroke-dasharray:none"/>
    <g id="g3922" transform="translate(958.23 31.736)">
      <use xlink:href="#text3116" id="use3920" width="1276.099" height="849.693" x="0" y="0" style="stroke:#fff;stroke-width:5;stroke-miterlimit:4;stroke-opacity:1;stroke-dasharray:none;filter:url(#filter5277)"/>
      <text xml:space="preserve" id="text3116" x="-254.324" y="722.448" style="font-size:16px;font-style:normal;font-variant:normal;font-weight:400;font-stretch:normal;text-align:center;line-height:100%;writing-mode:lr-tb;text-anchor:middle;color:#000;fill:#000;fill-opacity:1;fill-rule:nonzero;display:inline;overflow:visible;enable-background:accumulate;font-family:Times New Roman;-inkscape-font-specification:Times New Roman"><tspan id="tspan3118" x="-254.324" y="722.448">Map based on data from May 17, 2005</tspan></text>
    </g>
    <g id="g4801" style="display:inline" transform="rotate(127.697 953.645 523.983)scale(1.28861)">
      <path id="path3463" d="M1695.937 1398.52h-24.481l12.24-21.2z" clip-path="none" style="fill:red;fill-opacity:1;stroke:#fff;stroke-width:.867217;stroke-linecap:round;stroke-linejoin:miter;stroke-miterlimit:4;stroke-opacity:1;stroke-dasharray:none;stroke-dashoffset:0;display:inline" transform="rotate(134.293 1450.706 1612.349)scale(.514 1.55789)"/>
      <rect id="rect3457" width="13.041" height="54.698" x="-1620.884" y="376.017" clip-path="none" ry="0" style="fill:url(#pattern4264);fill-opacity:1;stroke:#000;stroke-width:.77603012;stroke-linecap:round;stroke-linejoin:round;stroke-miterlimit:4;stroke-opacity:1;stroke-dasharray:none;stroke-dashoffset:0;display:inline" transform="rotate(-135.918)"/>
    </g>
    <g id="g3227" transform="translate(-683.19 -766.365)">
      <use xlink:href="#text2441" id="use2445" width="744.094" height="1052.362" x="0" y="0" style="stroke:#fff;stroke-width:5;stroke-miterlimit:4;stroke-opacity:1;stroke-dasharray:none;filter:url(#filter5277)" transform="translate(.111)"/>
      <text xml:space="preserve" id="text2441" x="1371.996" y="1457.795" style="font-size:32px;font-style:normal;font-variant:normal;font-weight:400;font-stretch:normal;text-align:center;line-height:125%;writing-mode:lr-tb;text-anchor:middle;fill:#000;fill-opacity:1;font-family:Times New Roman;-inkscape-font-specification:Times New Roman"><tspan id="tspan2443" x="1371.996" y="1457.795">1786 ft (544 m)</tspan></text>
      <path id="path2423" d="M1192.293 1467.688v21h360v-21h-4v17h-85.344v-7.594h-4v7.594h-84.937v-13.063h-4v13.063h-85.063v-7.594h-4v7.594h-84.656v-17z" style="fill:#000;fill-opacity:1;fill-rule:evenodd;stroke:#fff;stroke-width:1.5;stroke-linecap:butt;stroke-linejoin:miter;stroke-miterlimit:4;stroke-opacity:1;stroke-dasharray:none"/>
    </g>
    <g id="g3804" clip-path="none" style="display:inline" transform="translate(-4136.094 -1587.15)scale(1.95553)">
      <text xml:space="preserve" id="text3180" x="2073.466" y="969.732" style="font-size:64px;font-style:normal;font-weight:400;fill:#000;fill-opacity:1;stroke:#fff;stroke-width:.51137096px;stroke-linecap:butt;stroke-linejoin:miter;stroke-opacity:1;font-family:Times New Roman"><tspan id="tspan3182" x="2073.466" y="969.732" style="stroke-width:.51137096">N</tspan></text>
      <path id="path2745" d="m2180.25 968.672-37.863-39.568 3.176 15.392-15.54 2.349z" style="fill:red;fill-opacity:1;fill-rule:nonzero;stroke:#fff;stroke-width:.51137096;stroke-linecap:round;stroke-linejoin:round;stroke-miterlimit:4;stroke-opacity:1;stroke-dasharray:none;stroke-dashoffset:0"/>
    </g>
    <g id="g5281" transform="translate(668.994 -292.599)">
      <use xlink:href="#text5269" id="use5275" width="744.094" height="1052.362" x="0" y="0" style="stroke:#fff;stroke-width:5;stroke-miterlimit:4;stroke-opacity:1;stroke-dasharray:none;filter:url(#filter5277)"/>
      <text xml:space="preserve" id="text5269" x="-429.145" y="445.246" style="font-size:32px;font-style:normal;font-variant:normal;font-weight:400;font-stretch:normal;text-align:center;line-height:100%;writing-mode:lr-tb;text-anchor:middle;color:#000;fill:#000;fill-opacity:1;fill-rule:nonzero;display:inline;overflow:visible;enable-background:accumulate;font-family:Times New Roman;-inkscape-font-specification:Times New Roman"><tspan id="tspan5271" x="-429.145" y="445.246">Length of black layout:</tspan><tspan id="tspan5273" x="-429.145" y="477.246">3.6135 mi (5.8153 km)</tspan></text>
    </g>
    <g id="g3892">
      <use xlink:href="#text3886" id="use3890" width="744.094" height="1052.362" x="0" y="0" style="stroke:#fff;stroke-width:5;stroke-miterlimit:4;stroke-opacity:1;stroke-dasharray:none;filter:url(#filter5277)"/>
      <text xml:space="preserve" id="text3886" x="-159.439" y="448.501" style="font-size:56px;font-style:normal;font-variant:normal;font-weight:400;font-stretch:normal;text-align:center;line-height:100%;writing-mode:lr-tb;text-anchor:middle;color:#000;fill:#000;fill-opacity:1;fill-rule:nonzero;display:inline;overflow:visible;enable-background:accumulate;font-family:Times New Roman;-inkscape-font-specification:Times New Roman"><tspan id="tspan3888" x="-159.439" y="448.501">As of 2005</tspan></text>
    </g>
    <g id="g4299">
      <path id="path4475" d="M-343.215 938.527c-30.046-21.626-21.902-79.424-20.17-88.398 5.5-28.498 53.681-25.796 74.223-24.682 44.539 2.415 66.884 124.863 34.163 131.294-24.065 4.73-62.462.322-88.216-18.214" style="fill:#7b7bff;fill-opacity:.21176471;fill-rule:nonzero;stroke:#000096;stroke-width:2;stroke-linecap:round;stroke-linejoin:round;stroke-miterlimit:4;stroke-opacity:1;stroke-dasharray:6,6;stroke-dashoffset:0;marker:none;visibility:visible;display:inline;overflow:visible;enable-background:accumulate"/>
      <use xlink:href="#text4241" id="use4297" width="744.094" height="1052.362" x="0" y="0" style="stroke:#fff;stroke-width:5;stroke-miterlimit:4;stroke-opacity:1;stroke-dasharray:none;filter:url(#filter5277)"/>
      <text xml:space="preserve" id="text4241" x="-259.874" y="899.2" style="font-size:32px;font-style:normal;font-variant:normal;font-weight:400;font-stretch:normal;text-align:center;line-height:100%;writing-mode:lr-tb;text-anchor:middle;color:#000;fill:#000;fill-opacity:1;fill-rule:nonzero;display:inline;overflow:visible;enable-background:accumulate;font-family:Times New Roman;-inkscape-font-specification:Times New Roman"><tspan id="tspan4243" x="-259.874" y="899.2">First Turn</tspan></text>
    </g>
    <g id="g4307">
      <path id="path4239" d="M-208.884 855.669c-30.046-21.626 27.64-100.615 73.987-117.273 21.61-7.767 252.039-48.393 272.58-47.28 44.539 2.415 81.95 104.776 49.228 111.207-12.61 2.479-121.147 2.011-218.149 17.46-88.111 14.031-165.388 44.709-177.646 35.886" style="font-size:32px;fill:#7b7bff;fill-opacity:.21176471;fill-rule:nonzero;stroke:#000096;stroke-width:2;stroke-linecap:round;stroke-linejoin:round;stroke-miterlimit:4;stroke-opacity:1;stroke-dasharray:6,6;stroke-dashoffset:0;marker:none;visibility:visible;display:inline;overflow:visible;enable-background:accumulate"/>
      <use xlink:href="#text4245" id="use4305" width="744.094" height="1052.362" x="0" y="0" style="stroke:#fff;stroke-width:5;stroke-miterlimit:4;stroke-opacity:1;stroke-dasharray:none;filter:url(#filter5277)"/>
      <text xml:space="preserve" id="text4245" x="36.521" y="707.245" style="font-size:32px;font-style:normal;font-variant:normal;font-weight:400;font-stretch:normal;text-align:center;line-height:100%;writing-mode:lr-tb;text-anchor:middle;color:#000;fill:#000;fill-opacity:1;fill-rule:nonzero;display:inline;overflow:visible;enable-background:accumulate;font-family:Times New Roman;-inkscape-font-specification:Times New Roman"><tspan id="tspan4247" x="36.521" y="707.245">&apos;S&apos; Curves</tspan></text>
      <g id="g4491-2-3" transform="matrix(1.4 0 0 1.4 -1692.926 -715.943)">
        <path id="path4493-3-2" d="M2241.95 1250.945c0 11.23-9.105 20.334-20.335 20.334s-20.334-9.104-20.334-20.334 9.104-20.334 20.334-20.334 20.334 9.103 20.334 20.334" style="fill:#fff;fill-opacity:1;fill-rule:nonzero;stroke:#0c0c0c;stroke-width:.71428573;stroke-linecap:round;stroke-linejoin:round;stroke-miterlimit:4;stroke-opacity:1;stroke-dasharray:none;stroke-dashoffset:0" transform="translate(-1160.495 -172.295)"/>
        <text xml:space="preserve" id="text4495-2-2" x="1059.107" y="1092.165" style="font-size:40px;font-style:normal;font-weight:400;fill:#000;fill-opacity:1;stroke:none;font-family:Times New Roman" transform="translate(-7.89)"><tspan id="tspan4497-21-1" x="1059.107" y="1092.165">3</tspan></text>
      </g>
      <g id="g4491-2-8" transform="matrix(1.4 0 0 1.4 -1605.694 -692.152)">
        <path id="path4493-3-5" d="M2241.95 1250.945c0 11.23-9.105 20.334-20.335 20.334s-20.334-9.104-20.334-20.334 9.104-20.334 20.334-20.334 20.334 9.103 20.334 20.334" style="fill:#fff;fill-opacity:1;fill-rule:nonzero;stroke:#0c0c0c;stroke-width:.71428573;stroke-linecap:round;stroke-linejoin:round;stroke-miterlimit:4;stroke-opacity:1;stroke-dasharray:none;stroke-dashoffset:0" transform="translate(-1160.495 -172.295)"/>
        <text xml:space="preserve" id="text4495-2-7" x="1059.107" y="1092.165" style="font-size:40px;font-style:normal;font-weight:400;fill:#000;fill-opacity:1;stroke:none;font-family:Times New Roman" transform="translate(-7.89)"><tspan id="tspan4497-21-6" x="1059.107" y="1092.165">4</tspan></text>
      </g>
      <g id="g4491-2-9" transform="matrix(1.4 0 0 1.4 -1536.589 -756.726)">
        <path id="path4493-3-27" d="M2241.95 1250.945c0 11.23-9.105 20.334-20.335 20.334s-20.334-9.104-20.334-20.334 9.104-20.334 20.334-20.334 20.334 9.103 20.334 20.334" style="fill:#fff;fill-opacity:1;fill-rule:nonzero;stroke:#0c0c0c;stroke-width:.71428573;stroke-linecap:round;stroke-linejoin:round;stroke-miterlimit:4;stroke-opacity:1;stroke-dasharray:none;stroke-dashoffset:0" transform="translate(-1160.495 -172.295)"/>
        <text xml:space="preserve" id="text4495-2-9" x="1059.107" y="1092.165" style="font-size:40px;font-style:normal;font-weight:400;fill:#000;fill-opacity:1;stroke:none;font-family:Times New Roman" transform="translate(-7.89)"><tspan id="tspan4497-21-5" x="1059.107" y="1092.165">5</tspan></text>
      </g>
      <g id="g4491-2-1" transform="matrix(1.4 0 0 1.4 -1428.966 -751.062)">
        <path id="path4493-3-23" d="M2241.95 1250.945c0 11.23-9.105 20.334-20.335 20.334s-20.334-9.104-20.334-20.334 9.104-20.334 20.334-20.334 20.334 9.103 20.334 20.334" style="fill:#fff;fill-opacity:1;fill-rule:nonzero;stroke:#0c0c0c;stroke-width:.71428573;stroke-linecap:round;stroke-linejoin:round;stroke-miterlimit:4;stroke-opacity:1;stroke-dasharray:none;stroke-dashoffset:0" transform="translate(-1160.495 -172.295)"/>
        <text xml:space="preserve" id="text4495-2-3" x="1059.107" y="1092.165" style="font-size:40px;font-style:normal;font-weight:400;fill:#000;fill-opacity:1;stroke:none;font-family:Times New Roman" transform="translate(-7.89)"><tspan id="tspan4497-21-4" x="1059.107" y="1092.165">6</tspan></text>
      </g>
      <g id="g4491-2-38" transform="matrix(1.4 0 0 1.4 -1317.944 -761.258)">
        <path id="path4493-3-7" d="M2241.95 1250.945c0 11.23-9.105 20.334-20.335 20.334s-20.334-9.104-20.334-20.334 9.104-20.334 20.334-20.334 20.334 9.103 20.334 20.334" style="fill:#fff;fill-opacity:1;fill-rule:nonzero;stroke:#0c0c0c;stroke-width:.71428573;stroke-linecap:round;stroke-linejoin:round;stroke-miterlimit:4;stroke-opacity:1;stroke-dasharray:none;stroke-dashoffset:0" transform="translate(-1160.495 -172.295)"/>
        <text xml:space="preserve" id="text4495-2-4" x="1059.107" y="1092.165" style="font-size:40px;font-style:normal;font-weight:400;fill:#000;fill-opacity:1;stroke:none;font-family:Times New Roman" transform="translate(-7.89)"><tspan id="tspan4497-21-2" x="1059.107" y="1092.165">7</tspan></text>
      </g>
    </g>
    <use xlink:href="#text4259" id="use4325" width="744.094" height="1052.362" x="0" y="0" style="stroke:#fff;stroke-width:5;stroke-miterlimit:4;stroke-opacity:1;stroke-dasharray:none;filter:url(#filter5277)"/>
    <text xml:space="preserve" id="text4259" x="547.367" y="572.789" style="font-size:32px;font-style:normal;font-variant:normal;font-weight:400;font-stretch:normal;text-align:center;line-height:100%;writing-mode:lr-tb;text-anchor:middle;color:#000;fill:#000;fill-opacity:1;fill-rule:nonzero;display:inline;overflow:visible;enable-background:accumulate;font-family:Times New Roman;-inkscape-font-specification:Times New Roman"><tspan id="tspan4261" x="547.367" y="572.789">Hairpin</tspan></text>
    <g id="g4331">
      <path id="path4263" d="M873.016 224.188c30.046-21.625 25.668-103.276 23.937-112.25-5.5-28.498-53.682-25.796-74.224-24.682-44.538 2.415-76.927 143.694-44.206 150.125 24.065 4.73 68.74 5.344 94.493-13.193" style="fill:#7b7bff;fill-opacity:.21176471;fill-rule:nonzero;stroke:#000096;stroke-width:2;stroke-linecap:round;stroke-linejoin:round;stroke-miterlimit:4;stroke-opacity:1;stroke-dasharray:6,6;stroke-dashoffset:0;marker:none;visibility:visible;display:inline;overflow:visible;enable-background:accumulate"/>
      <g id="g5923-42-8-44-6" transform="matrix(1.4 0 0 1.4 -652.374 -1251.792)">
        <path id="path5921-77-6-6-1" d="M2241.95 1250.945c0 11.23-9.105 20.334-20.335 20.334s-20.334-9.104-20.334-20.334 9.104-20.334 20.334-20.334 20.334 9.103 20.334 20.334" style="fill:#fff;fill-opacity:1;fill-rule:nonzero;stroke:#0c0c0c;stroke-width:.71428573;stroke-linecap:round;stroke-linejoin:round;stroke-miterlimit:4;stroke-opacity:1;stroke-dasharray:none;stroke-dashoffset:0" transform="translate(-1148.767 -172.295)"/>
        <text xml:space="preserve" id="text5794-93-5-0-84" x="1059.107" y="1092.165" style="font-size:40px;font-style:normal;font-weight:400;fill:#000;fill-opacity:1;stroke:none;font-family:Times New Roman" transform="translate(-7.89)"><tspan id="tspan5796-19-0-66-96" x="1059.107" y="1092.165">13</tspan></text>
      </g>
      <g id="g5923-42-8-44-8" transform="matrix(1.4 0 0 1.4 -676.164 -1450.045)">
        <path id="path5921-77-6-6-8" d="M2241.95 1250.945c0 11.23-9.105 20.334-20.335 20.334s-20.334-9.104-20.334-20.334 9.104-20.334 20.334-20.334 20.334 9.103 20.334 20.334" style="fill:#fff;fill-opacity:1;fill-rule:nonzero;stroke:#0c0c0c;stroke-width:.71428573;stroke-linecap:round;stroke-linejoin:round;stroke-miterlimit:4;stroke-opacity:1;stroke-dasharray:none;stroke-dashoffset:0" transform="translate(-1148.767 -172.295)"/>
        <text xml:space="preserve" id="text5794-93-5-0-2" x="1059.107" y="1092.165" style="font-size:40px;font-style:normal;font-weight:400;fill:#000;fill-opacity:1;stroke:none;font-family:Times New Roman" transform="translate(-7.89)"><tspan id="tspan5796-19-0-66-91" x="1059.107" y="1092.165">14</tspan></text>
      </g>
      <use xlink:href="#text4265" id="use4329" width="744.094" height="1052.362" x="0" y="0" style="stroke:#fff;stroke-width:5;stroke-miterlimit:4;stroke-opacity:1;stroke-dasharray:none;filter:url(#filter5277)"/>
      <text xml:space="preserve" id="text4265" x="856.202" y="152.22" style="font-size:32px;font-style:normal;font-variant:normal;font-weight:400;font-stretch:normal;text-align:end;line-height:100%;writing-mode:lr-tb;text-anchor:end;color:#000;fill:#000;fill-opacity:1;fill-rule:nonzero;display:inline;overflow:visible;enable-background:accumulate;font-family:Times New Roman;-inkscape-font-specification:Times New Roman"><tspan id="tspan4267" x="856.202" y="152.22">Spoon</tspan><tspan id="tspan4327" x="856.202" y="184.22">Curve</tspan></text>
    </g>
    <g id="g4315">
      <use xlink:href="#text4249" id="use4313" width="744.094" height="1052.362" x="0" y="0" style="stroke:#fff;stroke-width:5;stroke-miterlimit:4;stroke-opacity:1;stroke-dasharray:none;filter:url(#filter5277)"/>
      <text xml:space="preserve" id="text4249" x="161.95" y="655.647" style="font-size:32px;font-style:normal;font-variant:normal;font-weight:400;font-stretch:normal;text-align:center;line-height:100%;writing-mode:lr-tb;text-anchor:middle;color:#000;fill:#000;fill-opacity:1;fill-rule:nonzero;display:inline;overflow:visible;enable-background:accumulate;font-family:Times New Roman;-inkscape-font-specification:Times New Roman"><tspan id="tspan4251" x="161.95" y="655.647">Dunlop Curve</tspan></text>
      <path id="path3463-1" d="M1695.937 1398.52h-24.481l12.24-21.2z" clip-path="none" style="fill:#000;fill-opacity:1;stroke:#fff;stroke-width:.867217;stroke-linecap:round;stroke-linejoin:miter;stroke-miterlimit:4;stroke-opacity:1;stroke-dasharray:none;stroke-dashoffset:0;display:inline" transform="rotate(140.385 1050.632 1577.345)scale(.66234 2.00752)"/>
    </g>
    <g id="g4491-2" transform="matrix(1.4 0 0 1.4 -1785.21 -524.575)">
      <path id="path4493-3" d="M2241.95 1250.945c0 11.23-9.105 20.334-20.335 20.334s-20.334-9.104-20.334-20.334 9.104-20.334 20.334-20.334 20.334 9.103 20.334 20.334" style="fill:#fff;fill-opacity:1;fill-rule:nonzero;stroke:#0c0c0c;stroke-width:.71428573;stroke-linecap:round;stroke-linejoin:round;stroke-miterlimit:4;stroke-opacity:1;stroke-dasharray:none;stroke-dashoffset:0" transform="translate(-1160.495 -172.295)"/>
      <text xml:space="preserve" id="text4495-2" x="1059.107" y="1092.165" style="font-size:40px;font-style:normal;font-weight:400;fill:#000;fill-opacity:1;stroke:none;font-family:Times New Roman" transform="translate(-7.89)"><tspan id="tspan4497-21" x="1059.107" y="1092.165">1</tspan></text>
    </g>
    <g id="g5923-42-8-44" transform="matrix(1.4 0 0 1.4 -1039.294 -1002.472)">
      <path id="path5921-77-6-6" d="M2241.95 1250.945c0 11.23-9.105 20.334-20.335 20.334s-20.334-9.104-20.334-20.334 9.104-20.334 20.334-20.334 20.334 9.103 20.334 20.334" style="fill:#fff;fill-opacity:1;fill-rule:nonzero;stroke:#0c0c0c;stroke-width:.71428573;stroke-linecap:round;stroke-linejoin:round;stroke-miterlimit:4;stroke-opacity:1;stroke-dasharray:none;stroke-dashoffset:0" transform="translate(-1148.767 -172.295)"/>
      <text xml:space="preserve" id="text5794-93-5-0" x="1059.107" y="1092.165" style="font-size:40px;font-style:normal;font-weight:400;fill:#000;fill-opacity:1;stroke:none;font-family:Times New Roman" transform="translate(-7.89)"><tspan id="tspan5796-19-0-66" x="1059.107" y="1092.165">10</tspan></text>
    </g>
    <g id="g4491-2-7" transform="matrix(1.4 0 0 1.4 -1815.276 -710.278)">
      <path id="path4493-3-4" d="M2241.95 1250.945c0 11.23-9.105 20.334-20.335 20.334s-20.334-9.104-20.334-20.334 9.104-20.334 20.334-20.334 20.334 9.103 20.334 20.334" style="fill:#fff;fill-opacity:1;fill-rule:nonzero;stroke:#0c0c0c;stroke-width:.71428573;stroke-linecap:round;stroke-linejoin:round;stroke-miterlimit:4;stroke-opacity:1;stroke-dasharray:none;stroke-dashoffset:0" transform="translate(-1160.495 -172.295)"/>
      <text xml:space="preserve" id="text4495-2-0" x="1059.107" y="1092.165" style="font-size:40px;font-style:normal;font-weight:400;fill:#000;fill-opacity:1;stroke:none;font-family:Times New Roman" transform="translate(-7.89)"><tspan id="tspan4497-21-9" x="1059.107" y="1092.165">2</tspan></text>
    </g>
    <g id="g5923-42-8-44-1" transform="matrix(1.4 0 0 1.4 -893.676 -990.098)">
      <path id="path5921-77-6-6-3" d="M2241.95 1250.945c0 11.23-9.105 20.334-20.335 20.334s-20.334-9.104-20.334-20.334 9.104-20.334 20.334-20.334 20.334 9.103 20.334 20.334" style="fill:#fff;fill-opacity:1;fill-rule:nonzero;stroke:#0c0c0c;stroke-width:.71428573;stroke-linecap:round;stroke-linejoin:round;stroke-miterlimit:4;stroke-opacity:1;stroke-dasharray:none;stroke-dashoffset:0" transform="translate(-1148.767 -172.295)"/>
      <text xml:space="preserve" id="text5794-93-5-0-8" x="1059.107" y="1092.165" style="font-size:40px;font-style:normal;font-weight:400;fill:#000;fill-opacity:1;stroke:none;font-family:Times New Roman" transform="translate(-7.89)"><tspan id="tspan5796-19-0-66-9" x="1059.107" y="1092.165">11</tspan></text>
    </g>
    <g id="g5923-42-8-44-4" transform="matrix(1.4 0 0 1.4 -929.928 -1173.624)">
      <path id="path5921-77-6-6-4" d="M2241.95 1250.945c0 11.23-9.105 20.334-20.335 20.334s-20.334-9.104-20.334-20.334 9.104-20.334 20.334-20.334 20.334 9.103 20.334 20.334" style="fill:#fff;fill-opacity:1;fill-rule:nonzero;stroke:#0c0c0c;stroke-width:.71428573;stroke-linecap:round;stroke-linejoin:round;stroke-miterlimit:4;stroke-opacity:1;stroke-dasharray:none;stroke-dashoffset:0" transform="translate(-1148.767 -172.295)"/>
      <text xml:space="preserve" id="text5794-93-5-0-6" x="1059.107" y="1092.165" style="font-size:40px;font-style:normal;font-weight:400;fill:#000;fill-opacity:1;stroke:none;font-family:Times New Roman" transform="translate(-7.89)"><tspan id="tspan5796-19-0-66-0" x="1059.107" y="1092.165">12</tspan></text>
    </g>
    <g id="g5923-42-8-44-9" transform="matrix(1.4 0 0 1.4 -1155.37 -1000.294)">
      <path id="path5921-77-6-6-84" d="M2241.95 1250.945c0 11.23-9.105 20.334-20.335 20.334s-20.334-9.104-20.334-20.334 9.104-20.334 20.334-20.334 20.334 9.103 20.334 20.334" style="fill:#fff;fill-opacity:1;fill-rule:nonzero;stroke:#0c0c0c;stroke-width:.71428573;stroke-linecap:round;stroke-linejoin:round;stroke-miterlimit:4;stroke-opacity:1;stroke-dasharray:none;stroke-dashoffset:0" transform="translate(-1148.767 -172.295)"/>
      <text xml:space="preserve" id="text5794-93-5-0-0" x="1059.107" y="1092.165" style="font-size:40px;font-style:normal;font-weight:400;fill:#000;fill-opacity:1;stroke:none;font-family:Times New Roman" transform="translate(-7.89)"><tspan id="tspan5796-19-0-66-7" x="1059.107" y="1092.165">15</tspan></text>
    </g>
    <g id="g5050">
      <path id="path4475-0" d="M288.442 868.58c-30.046-21.626-8.087-122.126-6.355-131.1 5.5-28.498 99.34-54.192 119.437-49.801 97.288 21.254 128.425 221.57 14.068 210.418-24.41-2.38-101.396-10.98-127.15-29.517" style="fill:#7b7bff;fill-opacity:.21176471;fill-rule:nonzero;stroke:#000096;stroke-width:2;stroke-linecap:round;stroke-linejoin:round;stroke-miterlimit:4;stroke-opacity:1;stroke-dasharray:6,6;stroke-dashoffset:0;marker:none;visibility:visible;display:inline;overflow:visible;enable-background:accumulate"/>
      <use xlink:href="#text4269" id="use4338" width="744.094" height="1052.362" x="0" y="0" style="stroke:#fff;stroke-width:5;stroke-miterlimit:4;stroke-opacity:1;stroke-dasharray:none;filter:url(#filter5277)"/>
      <text xml:space="preserve" id="text4269" x="417.651" y="798.798" style="font-size:32px;font-style:normal;font-variant:normal;font-weight:400;font-stretch:normal;text-align:start;line-height:100%;writing-mode:lr-tb;text-anchor:start;color:#000;fill:#000;fill-opacity:1;fill-rule:nonzero;overflow:visible;enable-background:accumulate;font-family:Times New Roman;-inkscape-font-specification:Times New Roman"><tspan id="tspan4271" x="417.651" y="798.798">Casio</tspan><tspan id="tspan4273" x="417.651" y="830.798">Triangle</tspan></text>
      <g id="g5923-42-8-44-61" transform="matrix(1.4 0 0 1.4 -1120.62 -783.448)">
        <path id="path5921-77-6-6-5" d="M2241.95 1250.945c0 11.23-9.105 20.334-20.335 20.334s-20.334-9.104-20.334-20.334 9.104-20.334 20.334-20.334 20.334 9.103 20.334 20.334" style="fill:#fff;fill-opacity:1;fill-rule:nonzero;stroke:#0c0c0c;stroke-width:.71428573;stroke-linecap:round;stroke-linejoin:round;stroke-miterlimit:4;stroke-opacity:1;stroke-dasharray:none;stroke-dashoffset:0" transform="translate(-1148.767 -172.295)"/>
        <text xml:space="preserve" id="text5794-93-5-0-4" x="1059.107" y="1092.165" style="font-size:40px;font-style:normal;font-weight:400;fill:#000;fill-opacity:1;stroke:none;font-family:Times New Roman" transform="translate(-7.89)"><tspan id="tspan5796-19-0-66-2" x="1059.107" y="1092.165">16</tspan></text>
      </g>
      <g id="g5923-42-8-44-7" transform="matrix(1.4 0 0 1.4 -1169.185 -666.22)">
        <path id="path5921-77-6-6-54" d="M2241.95 1250.945c0 11.23-9.105 20.334-20.335 20.334s-20.334-9.104-20.334-20.334 9.104-20.334 20.334-20.334 20.334 9.103 20.334 20.334" style="fill:#fff;fill-opacity:1;fill-rule:nonzero;stroke:#0c0c0c;stroke-width:.71428573;stroke-linecap:round;stroke-linejoin:round;stroke-miterlimit:4;stroke-opacity:1;stroke-dasharray:none;stroke-dashoffset:0" transform="translate(-1148.767 -172.295)"/>
        <text xml:space="preserve" id="text5794-93-5-0-1" x="1059.107" y="1092.165" style="font-size:40px;font-style:normal;font-weight:400;fill:#000;fill-opacity:1;stroke:none;font-family:Times New Roman" transform="translate(-7.89)"><tspan id="tspan5796-19-0-66-20" x="1059.107" y="1092.165">18</tspan></text>
      </g>
      <g id="g5043">
        <g id="g5923-42-8-44-97" transform="matrix(1.4 0 0 1.4 -1127.206 -717.421)">
          <path id="path5921-77-6-6-37" d="M2241.95 1250.945c0 11.23-9.105 20.334-20.335 20.334s-20.334-9.104-20.334-20.334 9.104-20.334 20.334-20.334 20.334 9.103 20.334 20.334" style="fill:#fff;fill-opacity:1;fill-rule:nonzero;stroke:#0c0c0c;stroke-width:.71428573;stroke-linecap:round;stroke-linejoin:round;stroke-miterlimit:4;stroke-opacity:1;stroke-dasharray:none;stroke-dashoffset:0" transform="translate(-1148.767 -172.295)"/>
          <text xml:space="preserve" id="text5794-93-5-0-26" x="1059.107" y="1092.165" style="font-size:40px;font-style:normal;font-weight:400;fill:#000;fill-opacity:1;stroke:none;font-family:Times New Roman" transform="translate(-7.89)"><tspan id="tspan5796-19-0-66-01" x="1059.107" y="1092.165">17</tspan></text>
        </g>
        <path id="path3463-1-1" d="M1695.937 1398.52h-24.481l12.24-21.2z" clip-path="none" style="fill:#000;fill-opacity:1;stroke:#fff;stroke-width:.867217;stroke-linecap:round;stroke-linejoin:miter;stroke-miterlimit:4;stroke-opacity:1;stroke-dasharray:none;stroke-dashoffset:0;display:inline" transform="rotate(-52.56 -1334.946 2569.39)scale(.66234 2.00751)"/>
      </g>
    </g>
    <g id="g5033">
      <use xlink:href="#text4253" id="use4323" width="744.094" height="1052.362" x="0" y="0" style="stroke:#fff;stroke-width:5;stroke-miterlimit:4;stroke-opacity:1;stroke-dasharray:none;filter:url(#filter5277)"/>
      <text xml:space="preserve" id="text4253" x="220.955" y="498.719" style="font-size:32px;font-style:normal;font-variant:normal;font-weight:400;font-stretch:normal;text-align:end;line-height:100%;writing-mode:lr-tb;text-anchor:end;color:#000;fill:#000;fill-opacity:1;fill-rule:nonzero;display:inline;overflow:visible;enable-background:accumulate;font-family:Times New Roman;-inkscape-font-specification:Times New Roman"><tspan id="tspan4255" x="220.955" y="498.719">Degner</tspan><tspan id="tspan4257" x="220.955" y="530.719">Curve</tspan></text>
      <g id="g4491-2-79" transform="matrix(1.4 0 0 1.4 -1398.898 -1006.688)">
        <path id="path4493-3-3" d="M2241.95 1250.945c0 11.23-9.105 20.334-20.335 20.334s-20.334-9.104-20.334-20.334 9.104-20.334 20.334-20.334 20.334 9.103 20.334 20.334" style="fill:#fff;fill-opacity:1;fill-rule:nonzero;stroke:#0c0c0c;stroke-width:.71428573;stroke-linecap:round;stroke-linejoin:round;stroke-miterlimit:4;stroke-opacity:1;stroke-dasharray:none;stroke-dashoffset:0" transform="translate(-1160.495 -172.295)"/>
        <text xml:space="preserve" id="text4495-2-1" x="1059.107" y="1092.165" style="font-size:40px;font-style:normal;font-weight:400;fill:#000;fill-opacity:1;stroke:none;font-family:Times New Roman" transform="translate(-7.89)"><tspan id="tspan4497-21-98" x="1059.107" y="1092.165">8</tspan></text>
      </g>
    </g>
    <g id="g4491-2-0" transform="matrix(1.4 0 0 1.4 -1224.575 -1143.765)">
      <path id="path4493-3-28" d="M2241.95 1250.945c0 11.23-9.105 20.334-20.335 20.334s-20.334-9.104-20.334-20.334 9.104-20.334 20.334-20.334 20.334 9.103 20.334 20.334" style="fill:#fff;fill-opacity:1;fill-rule:nonzero;stroke:#0c0c0c;stroke-width:.71428573;stroke-linecap:round;stroke-linejoin:round;stroke-miterlimit:4;stroke-opacity:1;stroke-dasharray:none;stroke-dashoffset:0" transform="translate(-1160.495 -172.295)"/>
      <text xml:space="preserve" id="text4495-2-6" x="1059.107" y="1092.165" style="font-size:40px;font-style:normal;font-weight:400;fill:#000;fill-opacity:1;stroke:none;font-family:Times New Roman" transform="translate(-7.89)"><tspan id="tspan4497-21-0" x="1059.107" y="1092.165">9</tspan></text>
    </g>
  </g>
</svg>
