<svg xmlns="http://www.w3.org/2000/svg" aria-label="Track map of the Suzuka International Racing Course, Grand Prix layout" role="img" viewBox="0 0 1000 1000">
<!--Production track map for the Suzuka International Racing Course (Grand Prix layout).
  Derived by path-extract from map-source.svg. The source path3610 is the black
  Grand-Prix-circuit centerline (the only figure-8 in F1 — it crosses over itself);
  its raw d is affine-fit (uniform scale + translate) into the 0 0 1000 1000 viewBox.
  Source: Suzuka circuit map (2005), by Will Pittenger, CC BY-SA 3.0, via Wikimedia
  Commons. Retraced 2026-06-11.-->
  <path fill="none" stroke="#1f1f21" stroke-linecap="round" stroke-linejoin="round" stroke-width="10" d="M564.954 431.455c30.232 9.943 60.418 20.32 89.873 31.611 4.753 1.821 8.364 6.13 11.62 10.055 10.151 12.238 18.237 26.741 28.601 38.433 1.852 2.088 5.38 2.865 8.045 2.905 2.25.034 5.102-1.115 6.704-2.681 1.75-1.712 3.042-4.676 3.351-7.15.287-2.293-.5-4.984-1.564-7.151-2.958-6.025-7.138-11.54-10.502-17.429-4.978-8.71-9.941-17.447-14.524-26.368-3.76-7.316-7.8-14.62-10.503-22.344a104.7 104.7 0 0 1-5.139-22.346c-.62-5.358-.056-10.947.67-16.312.615-4.54 1.783-9.091 3.352-13.407 2.602-7.155 5.409-14.392 9.161-21.004 4.366-7.69 9.775-14.88 15.196-21.899 3.666-4.749 7.738-9.247 12.066-13.406 7.142-6.864 14.5-13.626 22.345-19.664 7.35-5.657 15.08-11.054 23.238-15.418 7.856-4.202 16.294-7.673 24.804-10.279 7.057-2.16 14.544-3.214 21.898-4.023 6.201-.68 12.561-1.118 18.77-.446 25.447 2.755 50.853 8.502 76.197 10.726 4.374.384 9.092-.989 12.96-2.905 4.4-2.18 8.695-5.563 11.843-9.385 4.151-5.04 7.503-11.13 10.056-17.206 2.736-6.512 4.852-13.598 5.81-20.558.681-4.958.718-10.565-.895-15.194-1.813-5.202-5.485-10.402-9.385-14.301-2.506-2.506-6.37-3.853-9.832-4.916-4.06-1.246-8.497-2.166-12.737-2.011-5.965.218-12.081 1.468-17.876 3.128-9.027 2.586-17.794 6.231-26.59 9.609-9.825 3.773-19.641 7.61-29.272 11.843-8.84 3.885-17.596 8.02-26.144 12.513-11.861 6.233-23.826 12.42-35.082 19.664-13.398 8.622-26.254 18.188-38.88 27.93-13.146 10.145-25.584 21.201-38.434 31.731-14.784 12.114-29.779 23.972-44.467 36.2-15.106 12.575-30.096 25.296-44.914 38.21-22.275 19.412-44.888 38.633-66.364 58.767-2.36 2.211-4.216 5.194-5.14 8.268a190.6 190.6 0 0 0-6.48 30.39c-1.15 8.983-1.904 18.27-.894 27.26 2.118 18.867 6.264 37.668 10.279 56.31 3.508 16.291 9.518 32.15 12.29 48.489 1.473 8.687 1.084 17.982.447 26.591-.107 1.446-1.347 3.038-2.682 3.575-5.518 2.22-12.558 2.196-17.876 4.692-1.98.93-3.935 3.448-4.023 5.587-.21 5.16 1.618 10.821 2.061 16.312.525 6.5.671 13.263-.223 19.664-.521 3.728-1.403 7.244-2.955 10.725-1.502 3.372-3.11 6.757-5.139 9.832-2.59 3.927-5.386 7.882-8.714 11.172-3.077 3.041-6.748 5.62-10.503 7.821-8.311 4.874-16.898 9.491-25.697 13.408-5.427 2.415-11.24 4.03-16.982 5.586-4.984 1.35-10.08 2.376-15.195 3.128-50.077 7.367-100.303 13.829-150.383 21.228-32.597 4.816-65.062 10.522-97.647 15.418-23.427 3.52-46.89 7.138-70.388 9.832-4.433.508-8.975.212-13.407-.224-3.91-.384-7.93-.947-11.62-2.234-4.205-1.468-8.442-3.44-12.066-6.033a83.7 83.7 0 0 1-13.854-12.513c-3.803-4.306-7.374-9.197-9.832-14.301-1.415-2.94-1.787-6.549-1.787-9.832 0-3.718.4-7.78 1.787-11.173 1.294-3.162 3.816-6.012 6.257-8.49 2.4-2.438 5.247-4.69 8.267-6.257 2.863-1.486 6.17-2.426 9.385-2.905 5.276-.787 10.722-.702 16.09-.894 21.67-.776 43.469-.635 65.023-2.012 2.95-.188 5.879-1.342 8.492-2.68 3.346-1.716 6.676-3.887 9.385-6.481 2.579-2.47 4.615-5.627 6.48-8.714 2.455-4.063 3.776-8.9 6.48-12.737 1.914-2.717 4.577-5.132 7.374-6.928 3.236-2.077 7.01-3.72 10.725-4.691 2.84-.743 5.966-.553 8.938-.447 3.36.118 6.785.331 10.056 1.117 9.764 2.343 19.29 5.854 29.048 8.268 4.095 1.012 8.364 2.088 12.513 2.01 3.746-.07 7.657-1.094 11.173-2.458 3.783-1.466 7.492-3.586 10.726-6.033 2.576-1.948 4.807-4.503 6.703-7.15 4.882-6.812 8.644-14.51 13.63-21.228 2.313-3.113 5.157-5.998 8.269-8.268 3.218-2.347 7.002-4.105 10.725-5.586a44.5 44.5 0 0 1 10.056-2.681c3.886-.556 7.995-.968 11.843-.447 3.303.447 6.584 1.881 9.608 3.352 2.339 1.137 4.598 2.668 6.48 4.469 3.257 3.115 6.075 6.757 8.938 10.278 3.617 4.449 6.818 9.241 10.502 13.631 3.318 3.953 6.436 8.365 10.503 11.396 3.829 2.854 8.626 4.693 13.183 6.256 3.04 1.044 6.388 1.464 9.609 1.564 3.93.124 8.102.198 11.842-.893 5.197-1.516 10.236-4.17 14.972-6.927 6.138-3.574 12.179-7.55 17.653-12.067 5.177-4.271 9.889-9.234 14.3-14.3 3.111-3.573 5.824-7.557 8.268-11.62 3.067-5.097 6.112-10.351 8.268-15.865 1.717-4.393 2.47-9.191 3.352-13.854.906-4.797 1.647-9.66 2.01-14.524.383-5.116.572-10.306.224-15.418-.397-5.837-1.018-11.77-2.458-17.43-1.838-7.226-4.805-14.191-7.374-21.227-6.891-18.885-15.113-37.55-21.004-56.534-.813-2.617-.168-5.722.893-8.268 8.473-20.32 17.734-40.786 27.709-60.331 1.048-2.056 3.32-3.561 5.362-4.47 1.98-.879 4.567-1.577 6.704-.893a7361 7361 0 0 1 31.903 10.266"/>
</svg>
