<svg xmlns="http://www.w3.org/2000/svg" viewBox="0 0 3000 2109.1">
  <defs>
    <style>
      .cls-1{fill:#010101}.cls-2{fill:#ee302d}.cls-4{stroke-miterlimit:10}.cls-5{isolation:isolate}.cls-4{fill:#fff;stroke:#010101;stroke-width:5px}
    </style>
  </defs>
<!--Generator: Adobe Illustrator 28.7.1, SVG Export Plug-In . SVG Version: 1.2.0 Build 142)-->
  <g id="Layer_1">
    <g class="cls-5">
      <path d="M577.3 1768.6c5.8 0 11.1.9 16.1 2.8 5 1.8 9.2 4.6 12.9 8.2 3.6 3.7 6.5 8.2 8.5 13.8 2 5.5 3.1 12 3.1 19.4s-.8 12.5-2.5 18-4.2 10.2-7.6 14.2-7.6 7.1-12.6 9.4-11 3.4-17.8 3.4h-38.5v-89.2h38.5Zm-1.4 72.8c2.8 0 5.6-.5 8.2-1.4 2.7-.9 5-2.4 7.1-4.6 2.1-2.1 3.8-4.9 5-8.3s1.9-7.6 1.9-12.5-.4-8.6-1.3-12.2-2.3-6.7-4.3-9.3-4.6-4.6-7.9-5.9c-3.3-1.4-7.4-2.1-12.2-2.1h-14v56.2h17.5Zm52.9-28.3c.2-4.2 1.3-7.6 3.1-10.4s4.2-5 7-6.6q4.2-2.55 9.6-3.6c3.5-.7 7.1-1.1 10.7-1.1s6.5.2 9.9.7c3.3.5 6.4 1.4 9.1 2.7 2.8 1.3 5 3.2 6.8 5.6s2.6 5.5 2.6 9.4v33.6c0 2.9.2 5.7.5 8.4q.45 4.05 1.8 6h-18c-.3-1-.6-2-.8-3.1-.2-1-.4-2.1-.4-3.2-2.8 2.9-6.2 5-10 6.1-3.8 1.2-7.8 1.8-11.8 1.8s-6-.4-8.6-1.1c-2.7-.8-5-1.9-7-3.5s-3.6-3.6-4.7-6-1.7-5.3-1.7-8.6.6-6.7 1.9-9.1 3-4.3 5-5.7 4.4-2.5 7-3.2 5.3-1.3 7.9-1.7c2.7-.4 5.3-.8 7.9-1s4.9-.6 6.9-1.1 3.6-1.2 4.8-2.2 1.7-2.4 1.6-4.2c0-1.9-.3-3.4-.9-4.6s-1.5-2-2.5-2.6q-1.5-.9-3.6-1.2c-1.4-.2-2.9-.3-4.4-.3-3.5 0-6.2.8-8.2 2.2s-3.2 4-3.5 7.5H629Zm41 13.2c-.8.7-1.7 1.2-2.8 1.6s-2.3.7-3.6.9-2.6.5-4.1.6l-4.2.6c-1.3.2-2.6.6-3.9 1s-2.4 1-3.4 1.7-1.7 1.6-2.3 2.7-.9 2.5-.9 4.1.3 2.9.9 4 1.4 1.9 2.4 2.6 2.2 1.1 3.5 1.3 2.7.4 4.1.4q5.25 0 8.1-1.8t4.2-4.2c.9-1.6 1.5-3.3 1.7-4.9.2-1.7.3-3 .3-4zm55.3 50.8c-3.4 2.2-8.2 3.4-14.2 3.4s-3.6 0-5.4-.2c-1.8-.1-3.6-.3-5.4-.4v-14.6c1.7.2 3.4.3 5.1.5 1.8.2 3.5.2 5.2.1 2.3-.2 4.1-1.2 5.2-2.8s1.7-3.3 1.7-5.2-.2-2.8-.8-4l-22.6-60.6h18.9l14.6 44.2h.2l14.1-44.2h18.4l-27 72.6c-1.9 5.2-4.6 9-8 11.2m81.5-83.8v11.9h-13v32q0 4.5 1.5 6c1.5 1.5 3 1.5 6 1.5s2 0 2.9-.1c.9 0 1.8-.2 2.6-.4v13.8c-1.5.2-3.2.4-5 .5-1.8 0-3.6.1-5.4.1q-4.2 0-7.8-.6c-2.5-.4-4.6-1.1-6.5-2.2s-3.4-2.6-4.4-4.6c-1.1-2-1.6-4.6-1.6-7.9v-38.1h-10.8v-11.9h10.8v-19.4h17.8v19.4h13Zm8.9 18.3c1.6-4.2 3.8-7.8 6.8-10.8 2.9-3 6.4-5.2 10.5-6.9q6.15-2.4 13.8-2.4c7.65 0 9.7.8 13.8 2.4s7.6 3.9 10.6 6.9c2.9 3 5.2 6.5 6.8 10.8q2.4 6.3 2.4 14.1c0 7.8-.8 9.8-2.4 14s-3.8 7.7-6.8 10.7c-2.9 3-6.4 5.2-10.6 6.8s-8.7 2.4-13.8 2.4-9.7-.8-13.8-2.4-7.6-3.9-10.5-6.8c-2.9-3-5.2-6.5-6.8-10.7s-2.4-8.8-2.4-14 .8-9.9 2.4-14.1m16.1 21.6c.5 2.5 1.4 4.7 2.6 6.6 1.2 2 2.8 3.5 4.8 4.7q3 1.8 7.5 1.8c4.5 0 5.5-.6 7.6-1.8 2-1.2 3.7-2.7 4.9-4.7s2.1-4.2 2.6-6.6c.5-2.5.8-5 .8-7.6s-.2-5.1-.8-7.6-1.4-4.7-2.6-6.6-2.8-3.5-4.9-4.7c-2-1.2-4.6-1.8-7.6-1.8s-5.5.6-7.5 1.8-3.6 2.8-4.8 4.7-2.1 4.1-2.6 6.6-.8 5-.8 7.6.2 5.1.8 7.6m76.8-39.9v9h.4c2.2-3.8 5.2-6.5 8.8-8.2s7.2-2.6 11-2.6 8.6.6 11.7 1.9q4.5 1.95 7.2 5.4c1.8 2.3 3 5.1 3.7 8.4s1.1 6.9 1.1 10.9v39.8h-17.8v-36.5c0-5.3-.8-9.3-2.5-11.9s-4.6-3.9-8.9-3.9-8.3 1.4-10.5 4.3-3.2 7.6-3.2 14.2v33.9h-17.8v-64.6h16.9Zm56.5 19.8c.2-4.2 1.3-7.6 3.1-10.4s4.2-5 7-6.6q4.2-2.55 9.6-3.6c3.5-.7 7.1-1.1 10.7-1.1s6.5.2 9.9.7c3.3.5 6.4 1.4 9.1 2.7 2.8 1.3 5 3.2 6.8 5.6s2.6 5.5 2.6 9.4v33.6c0 2.9.2 5.7.5 8.4q.45 4.05 1.8 6h-18c-.3-1-.6-2-.8-3.1-.2-1-.4-2.1-.4-3.2-2.8 2.9-6.2 5-10 6.1-3.8 1.2-7.8 1.8-11.8 1.8s-6-.4-8.6-1.1c-2.7-.8-5-1.9-7-3.5s-3.6-3.6-4.7-6-1.7-5.3-1.7-8.6.6-6.7 1.9-9.1 3-4.3 5-5.7 4.4-2.5 7-3.2 5.3-1.3 7.9-1.7c2.7-.4 5.3-.8 7.9-1s4.9-.6 6.9-1.1 3.6-1.2 4.8-2.2 1.7-2.4 1.6-4.2c0-1.9-.3-3.4-.9-4.6s-1.5-2-2.5-2.6q-1.5-.9-3.6-1.2c-1.4-.2-2.9-.3-4.4-.3-3.5 0-6.2.8-8.2 2.2s-3.2 4-3.5 7.5h-17.8Zm41 13.2c-.8.7-1.7 1.2-2.8 1.6s-2.3.7-3.6.9-2.6.5-4.1.6l-4.2.6c-1.3.2-2.6.6-3.9 1s-2.4 1-3.4 1.7-1.7 1.6-2.3 2.7-.9 2.5-.9 4.1.3 2.9.9 4 1.4 1.9 2.4 2.6 2.2 1.1 3.5 1.3 2.7.4 4.1.4q5.25 0 8.1-1.8t4.2-4.2c.9-1.6 1.5-3.3 1.7-4.9.2-1.7.3-3 .3-4zm87.7-57.7v89.2H1074v-89.2zm32.3 24.7v9h.4c2.2-3.8 5.2-6.5 8.8-8.2s7.2-2.6 11-2.6 8.6.6 11.7 1.9q4.5 1.95 7.2 5.4c1.8 2.3 3 5.1 3.7 8.4s1.1 6.9 1.1 10.9v39.8H1152v-36.5c0-5.3-.8-9.3-2.5-11.9s-4.6-3.9-8.9-3.9-8.3 1.4-10.5 4.3-3.2 7.6-3.2 14.2v33.9h-17.8v-64.6h16.9Zm92.7 0v11.9h-13v32q0 4.5 1.5 6c1.5 1.5 3 1.5 6 1.5s2 0 2.9-.1c.9 0 1.8-.2 2.6-.4v13.8c-1.5.2-3.2.4-5 .5-1.8 0-3.6.1-5.4.1q-4.2 0-7.8-.6c-2.5-.4-4.6-1.1-6.5-2.2s-3.4-2.6-4.4-4.6c-1.1-2-1.6-4.6-1.6-7.9v-38.1h-10.8v-11.9h10.8v-19.4h17.8v19.4h13Zm27.5 49.1c2.7 2.6 6.5 3.9 11.5 3.9s6.7-.9 9.2-2.7q3.9-2.7 4.8-5.7h15.6c-2.5 7.8-6.3 13.3-11.5 16.6s-11.4 5-18.8 5-9.7-.8-13.8-2.4-7.5-3.9-10.4-6.9q-4.2-4.5-6.6-10.8c-1.5-4.2-2.3-8.8-2.3-13.8s.8-9.3 2.4-13.5 3.8-7.8 6.8-10.8c2.9-3 6.4-5.4 10.4-7.2s8.5-2.6 13.4-2.6 10.3 1.1 14.4 3.2 7.4 5 10.1 8.6c2.6 3.6 4.5 7.7 5.7 12.2q1.8 6.9 1.2 14.4h-46.6c.2 5.8 1.7 9.9 4.4 12.5Zm20.1-34c-2.1-2.3-5.4-3.5-9.7-3.5s-5.2.5-7.1 1.4c-1.9 1-3.4 2.1-4.5 3.6q-1.65 2.1-2.4 4.5c-.5 1.6-.7 3-.8 4.2h28.9c-.8-4.5-2.3-7.9-4.4-10.2m49.5-15.1v12h.2c.8-2 2-3.9 3.4-5.6s3-3.2 4.9-4.4c1.8-1.2 3.8-2.1 5.9-2.8s4.2-1 6.5-1 2.5.2 3.9.6v16.5c-.8-.2-1.8-.3-3-.4s-2.3-.2-3.4-.2c-3.2 0-6 .5-8.2 1.6s-4.1 2.6-5.4 4.4-2.4 4.1-2.9 6.6q-.9 3.75-.9 8.1v29.1h-17.8v-64.6h16.9Zm50.9 0v9h.4c2.2-3.8 5.2-6.5 8.8-8.2s7.2-2.6 11-2.6 8.6.6 11.7 1.9q4.5 1.95 7.2 5.4c1.8 2.3 3 5.1 3.7 8.4s1.1 6.9 1.1 10.9v39.8h-17.8v-36.5c0-5.3-.8-9.3-2.5-11.9s-4.6-3.9-8.9-3.9-8.3 1.4-10.5 4.3-3.2 7.6-3.2 14.2v33.9h-17.8v-64.6h16.9Zm56.5 19.8c.2-4.2 1.3-7.6 3.1-10.4s4.2-5 7-6.6q4.2-2.55 9.6-3.6c3.5-.7 7.1-1.1 10.7-1.1s6.5.2 9.9.7c3.3.5 6.4 1.4 9.1 2.7 2.8 1.3 5 3.2 6.8 5.6s2.6 5.5 2.6 9.4v33.6c0 2.9.2 5.7.5 8.4q.45 4.05 1.8 6h-18c-.3-1-.6-2-.8-3.1-.2-1-.4-2.1-.4-3.2-2.8 2.9-6.2 5-10 6.1-3.8 1.2-7.8 1.8-11.8 1.8s-6-.4-8.6-1.1c-2.7-.8-5-1.9-7-3.5s-3.6-3.6-4.7-6-1.7-5.3-1.7-8.6.6-6.7 1.9-9.1 3-4.3 5-5.7 4.4-2.5 7-3.2 5.3-1.3 7.9-1.7c2.7-.4 5.3-.8 7.9-1s4.9-.6 6.9-1.1 3.6-1.2 4.8-2.2 1.7-2.4 1.6-4.2c0-1.9-.3-3.4-.9-4.6s-1.5-2-2.5-2.6q-1.5-.9-3.6-1.2c-1.4-.2-2.9-.3-4.4-.3-3.5 0-6.2.8-8.2 2.2s-3.2 4-3.5 7.5h-17.8Zm41 13.2c-.8.7-1.7 1.2-2.8 1.6s-2.3.7-3.6.9-2.6.5-4.1.6l-4.2.6c-1.3.2-2.6.6-3.9 1s-2.4 1-3.4 1.7-1.7 1.6-2.3 2.7-.9 2.5-.9 4.1.3 2.9.9 4 1.4 1.9 2.4 2.6 2.2 1.1 3.5 1.3 2.7.4 4.1.4q5.25 0 8.1-1.8t4.2-4.2c.9-1.6 1.5-3.3 1.7-4.9.2-1.7.3-3 .3-4zm67-33v11.9h-13v32q0 4.5 1.5 6c1.5 1.5 3 1.5 6 1.5s2 0 2.9-.1c.9 0 1.8-.2 2.6-.4v13.8c-1.5.2-3.2.4-5 .5-1.8 0-3.6.1-5.4.1q-4.2 0-7.8-.6c-2.5-.4-4.6-1.1-6.5-2.2s-3.4-2.6-4.4-4.6c-1.1-2-1.6-4.6-1.6-7.9v-38.1h-10.8v-11.9h10.8v-19.4h17.8v19.4h13Zm9-10v-14.6h17.8v14.6zm17.8 10v64.6h-17.8v-64.6zm14.3 18.3c1.6-4.2 3.8-7.8 6.8-10.8 2.9-3 6.4-5.2 10.5-6.9q6.15-2.4 13.8-2.4c7.65 0 9.7.8 13.8 2.4s7.6 3.9 10.6 6.9c2.9 3 5.2 6.5 6.8 10.8q2.4 6.3 2.4 14.1c0 7.8-.8 9.8-2.4 14s-3.8 7.7-6.8 10.7c-2.9 3-6.4 5.2-10.6 6.8s-8.7 2.4-13.8 2.4-9.7-.8-13.8-2.4-7.6-3.9-10.5-6.8c-2.9-3-5.2-6.5-6.8-10.7s-2.4-8.8-2.4-14 .8-9.9 2.4-14.1m16.2 21.6c.5 2.5 1.4 4.7 2.6 6.6 1.2 2 2.8 3.5 4.8 4.7q3 1.8 7.5 1.8c4.5 0 5.5-.6 7.6-1.8 2-1.2 3.7-2.7 4.9-4.7s2.1-4.2 2.6-6.6c.5-2.5.8-5 .8-7.6s-.2-5.1-.8-7.6-1.4-4.7-2.6-6.6-2.8-3.5-4.9-4.7c-2-1.2-4.6-1.8-7.6-1.8s-5.5.6-7.5 1.8-3.6 2.8-4.8 4.7-2.1 4.1-2.6 6.6-.8 5-.8 7.6.2 5.1.8 7.6m76.7-39.9v9h.4c2.2-3.8 5.2-6.5 8.8-8.2s7.2-2.6 11-2.6 8.6.6 11.7 1.9q4.5 1.95 7.2 5.4c1.8 2.3 3 5.1 3.7 8.4s1.1 6.9 1.1 10.9v39.8h-17.8v-36.5c0-5.3-.8-9.3-2.5-11.9s-4.6-3.9-8.9-3.9-8.3 1.4-10.5 4.3-3.2 7.6-3.2 14.2v33.9h-17.8v-64.6h16.9Zm56.5 19.8c.2-4.2 1.3-7.6 3.1-10.4s4.2-5 7-6.6q4.2-2.55 9.6-3.6c3.5-.7 7.1-1.1 10.7-1.1s6.5.2 9.9.7c3.3.5 6.4 1.4 9.1 2.7 2.8 1.3 5 3.2 6.8 5.6s2.6 5.5 2.6 9.4v33.6c0 2.9.2 5.7.5 8.4q.45 4.05 1.8 6h-18c-.3-1-.6-2-.8-3.1-.2-1-.4-2.1-.4-3.2-2.8 2.9-6.2 5-10 6.1-3.8 1.2-7.8 1.8-11.8 1.8s-6-.4-8.6-1.1c-2.7-.8-5-1.9-7-3.5s-3.6-3.6-4.7-6-1.7-5.3-1.7-8.6.6-6.7 1.9-9.1 3-4.3 5-5.7 4.4-2.5 7-3.2 5.3-1.3 7.9-1.7c2.7-.4 5.3-.8 7.9-1s4.9-.6 6.9-1.1 3.6-1.2 4.8-2.2 1.7-2.4 1.6-4.2c0-1.9-.3-3.4-.9-4.6s-1.5-2-2.5-2.6q-1.5-.9-3.6-1.2c-1.4-.2-2.9-.3-4.4-.3-3.5 0-6.2.8-8.2 2.2s-3.2 4-3.5 7.5h-17.8Zm41 13.2c-.8.7-1.7 1.2-2.8 1.6s-2.3.7-3.6.9-2.6.5-4.1.6l-4.2.6c-1.3.2-2.6.6-3.9 1s-2.4 1-3.4 1.7-1.7 1.6-2.3 2.7-.9 2.5-.9 4.1.3 2.9.9 4 1.4 1.9 2.4 2.6 2.2 1.1 3.5 1.3 2.7.4 4.1.4q5.25 0 8.1-1.8t4.2-4.2c.9-1.6 1.5-3.3 1.7-4.9.2-1.7.3-3 .3-4zm49.8-57.7v89.2h-17.8v-89.2zm65.6 67.3c1.1 2.1 2.5 3.8 4.3 5.1s3.9 2.2 6.3 2.9q3.6.9 7.5.9c3.9 0 3.6-.1 5.6-.4s3.9-.9 5.6-1.7c1.8-.8 3.2-2 4.4-3.4 1.2-1.5 1.8-3.3 1.8-5.6s-.8-4.4-2.3-5.9-3.6-2.8-6.1-3.8-5.3-1.9-8.5-2.6c-3.2-.8-6.4-1.6-9.6-2.5-3.3-.8-6.6-1.9-9.8-3.1s-6-2.8-8.5-4.7-4.5-4.3-6.1-7.2c-1.5-2.9-2.3-6.4-2.3-10.4s1-8.6 2.9-11.9c2-3.4 4.5-6.2 7.7-8.4s6.8-3.9 10.8-5 8-1.6 12-1.6 9.1.5 13.4 1.6q6.45 1.5 11.4 5.1c3.3 2.3 6 5.3 7.9 8.9 2 3.6 2.9 8 2.9 13.2h-19c-.2-2.7-.7-4.9-1.7-6.6-1-1.8-2.2-3.1-3.8-4.1q-2.4-1.5-5.4-2.1c-2-.4-4.3-.6-6.7-.6s-3.2.2-4.8.5-3 .9-4.3 1.8c-1.3.8-2.4 1.9-3.2 3.1q-1.2 1.8-1.2 4.8c0 3 .3 3.2 1 4.2q1.05 1.65 3.9 3c2 .9 4.7 1.8 8.1 2.8 3.5.9 8 2.1 13.6 3.5q2.55.45 6.9 1.8c3 .9 5.9 2.3 8.8 4.2s5.4 4.5 7.6 7.7c2.1 3.2 3.2 7.3 3.2 12.3s-.8 7.9-2.4 11.4-3.9 6.5-7.1 9.1c-3.1 2.5-7 4.5-11.6 5.9s-10 2.1-16.1 2.1-9.7-.6-14.3-1.8-8.7-3.1-12.2-5.7-6.4-5.9-8.4-9.9c-2.1-4-3.1-8.8-3-14.2h19c0 3 .5 5.5 1.6 7.6Zm81.1-42.6v8.2h.2c2.2-3.5 4.9-6 8.2-7.6s7-2.4 11-2.4 9.5 1 13.1 2.9c3.7 1.9 6.7 4.5 9.1 7.6q3.6 4.8 5.4 11.1t1.8 13.2c0 6.9-.6 8.5-1.8 12.5s-2.9 7.5-5.3 10.6-5.3 5.5-8.9 7.4c-3.5 1.8-7.7 2.8-12.4 2.8s-7.7-.8-11.1-2.4-6.1-4-8.3-7.2h-.2v30.6h-17.8v-87.2h16.9Zm23.1 51.2c2-1.2 3.5-2.7 4.8-4.6 1.2-1.9 2.1-4.1 2.6-6.6s.8-5 .8-7.6-.3-5.1-.8-7.6-1.4-4.7-2.7-6.7c-1.2-2-2.9-3.5-4.8-4.8q-3-1.8-7.2-1.8c-4.2 0-5.4.6-7.3 1.8-2 1.2-3.5 2.8-4.8 4.7-1.2 1.9-2.1 4.1-2.6 6.6s-.8 5.1-.8 7.8.3 5.1.8 7.6 1.4 4.7 2.6 6.6 2.8 3.4 4.8 4.6q3 1.8 7.2 1.8c4.2 0 5.4-.6 7.3-1.8Zm55.4-2.1c2.7 2.6 6.5 3.9 11.5 3.9s6.7-.9 9.2-2.7q3.9-2.7 4.8-5.7h15.6c-2.5 7.8-6.3 13.3-11.5 16.6s-11.4 5-18.8 5-9.7-.8-13.8-2.4-7.5-3.9-10.4-6.9q-4.2-4.5-6.6-10.8c-1.5-4.2-2.3-8.8-2.3-13.8s.8-9.3 2.4-13.5 3.8-7.8 6.8-10.8c2.9-3 6.4-5.4 10.4-7.2s8.5-2.6 13.4-2.6 10.3 1.1 14.4 3.2 7.4 5 10.1 8.6c2.6 3.6 4.5 7.7 5.7 12.2q1.8 6.9 1.2 14.4h-46.6c.2 5.8 1.7 9.9 4.4 12.5Zm20.1-34c-2.1-2.3-5.4-3.5-9.7-3.5s-5.2.5-7.1 1.4c-1.9 1-3.4 2.1-4.5 3.6q-1.65 2.1-2.4 4.5c-.5 1.6-.7 3-.8 4.2h28.9c-.8-4.5-2.3-7.9-4.4-10.2m51.7 34c2.7 2.6 6.5 3.9 11.5 3.9s6.7-.9 9.2-2.7q3.9-2.7 4.8-5.7h15.6c-2.5 7.8-6.3 13.3-11.5 16.6s-11.4 5-18.8 5-9.7-.8-13.8-2.4-7.5-3.9-10.4-6.9q-4.2-4.5-6.6-10.8c-1.5-4.2-2.3-8.8-2.3-13.8s.8-9.3 2.4-13.5 3.8-7.8 6.8-10.8c2.9-3 6.4-5.4 10.4-7.2s8.5-2.6 13.4-2.6 10.3 1.1 14.4 3.2 7.4 5 10.1 8.6c2.6 3.6 4.5 7.7 5.7 12.2q1.8 6.9 1.2 14.4h-46.6c.2 5.8 1.7 9.9 4.4 12.5Zm20-34c-2.1-2.3-5.4-3.5-9.7-3.5s-5.2.5-7.1 1.4c-1.9 1-3.4 2.1-4.5 3.6q-1.65 2.1-2.4 4.5c-.5 1.6-.7 3-.8 4.2h28.9c-.8-4.5-2.3-7.9-4.4-10.2m78.6 41.2c-2.1 3.5-4.8 6-8.2 7.6s-7.2 2.3-11.4 2.3-9.1-.9-12.8-2.8-6.7-4.4-9.1-7.6q-3.6-4.8-5.4-11.1c-1.2-4.2-1.8-8.5-1.8-13s.6-8.5 1.8-12.6c1.2-4 3-7.6 5.4-10.7s5.4-5.6 8.9-7.4c3.6-1.9 7.8-2.8 12.5-2.8s7.5.8 10.9 2.4c3.5 1.6 6.2 4 8.2 7.2h.2v-32.5h17.8v89.2h-16.9v-8.2h-.2Zm-.8-31.9c-.5-2.5-1.4-4.6-2.6-6.5s-2.8-3.4-4.7-4.6q-2.85-1.8-7.2-1.8c-4.35 0-5.4.6-7.4 1.8s-3.6 2.7-4.8 4.6-2.1 4.1-2.6 6.6-.8 5-.8 7.7.3 5 .9 7.5 1.5 4.7 2.8 6.7 2.9 3.5 4.9 4.8c2 1.2 4.3 1.8 7.1 1.8s5.4-.6 7.3-1.8c2-1.2 3.5-2.7 4.7-4.7s2-4.2 2.5-6.7.8-5.1.8-7.8-.2-5.2-.8-7.7Zm86.9 40.2-11.5-43.4h-.2l-11 43.4H2253l-20.5-64.6h18.8l11.9 43.9h.2l10.8-43.9h17.2l11 43.8h.2l11.9-43.8h18.2l-20.4 64.6zm45.4-44.8c.2-4.2 1.3-7.6 3.1-10.4s4.2-5 7-6.6q4.2-2.55 9.6-3.6c3.5-.7 7.1-1.1 10.7-1.1s6.5.2 9.9.7c3.3.5 6.4 1.4 9.1 2.7 2.8 1.3 5 3.2 6.8 5.6s2.6 5.5 2.6 9.4v33.6c0 2.9.2 5.7.5 8.4q.45 4.05 1.8 6h-18c-.3-1-.6-2-.8-3.1-.2-1-.4-2.1-.4-3.2-2.8 2.9-6.2 5-10 6.1-3.8 1.2-7.8 1.8-11.8 1.8s-6-.4-8.6-1.1c-2.7-.8-5-1.9-7-3.5s-3.6-3.6-4.7-6-1.7-5.3-1.7-8.6.6-6.7 1.9-9.1 3-4.3 5-5.7 4.4-2.5 7-3.2 5.3-1.3 7.9-1.7c2.7-.4 5.3-.8 7.9-1s4.9-.6 6.9-1.1 3.6-1.2 4.8-2.2 1.7-2.4 1.6-4.2c0-1.9-.3-3.4-.9-4.6s-1.5-2-2.5-2.6q-1.5-.9-3.6-1.2c-1.4-.2-2.9-.3-4.4-.3-3.5 0-6.2.8-8.2 2.2s-3.2 4-3.5 7.5h-17.8Zm41 13.2c-.8.7-1.7 1.2-2.8 1.6s-2.3.7-3.6.9-2.6.5-4.1.6l-4.2.6c-1.3.2-2.6.6-3.9 1s-2.4 1-3.4 1.7-1.7 1.6-2.3 2.7-.9 2.5-.9 4.1.3 2.9.9 4 1.4 1.9 2.4 2.6 2.2 1.1 3.5 1.3 2.7.4 4.1.4q5.25 0 8.1-1.8t4.2-4.2c.9-1.6 1.5-3.3 1.7-4.9.2-1.7.3-3 .3-4zm55.3 50.8c-3.4 2.2-8.2 3.4-14.2 3.4s-3.6 0-5.4-.2c-1.8-.1-3.6-.3-5.4-.4v-14.6c1.7.2 3.4.3 5.1.5 1.8.2 3.5.2 5.2.1 2.3-.2 4.1-1.2 5.2-2.8s1.7-3.3 1.7-5.2-.2-2.8-.8-4l-22.6-60.6h18.9l14.6 44.2h.2l14.1-44.2h18.4l-27 72.6c-1.9 5.2-4.6 9-8 11.2m-1593.4 67c-2.2 9.5-3.2 19.2-3.2 29.1s1.1 19.8 3.2 29.4 5.6 18.9 10.3 28h-14.8c-5.2-8.6-9.3-17.6-12.2-27.1s-4.3-19.2-4.3-29 .4-9.6 1.1-14.7 1.8-10.2 3.1-15.3c1.4-5.1 3.1-10 5.1-14.8s4.4-9.1 7.2-13.1h14.9c-4.8 8.8-8.2 18-10.4 27.6Zm15.8-4c1.3-4.3 3.3-8 6-11.2s6-5.7 10.1-7.5c4-1.8 8.7-2.7 13.9-2.7s7.8.6 11.4 1.9 6.8 3 9.6 5.4c2.8 2.3 4.9 5.2 6.6 8.6 1.6 3.4 2.4 7.2 2.4 11.5s-.7 8.2-2.1 11.4-3.3 6-5.6 8.4c-2.3 2.5-5 4.7-7.9 6.7-3 2-5.9 4-8.9 5.9-3 2-5.9 4.1-8.8 6.3-2.8 2.2-5.3 4.9-7.5 7.9h41.4v15.2h-64.2c0-5.1.7-9.5 2.2-13.2 1.5-3.8 3.4-7.1 5.9-10.1s5.4-5.7 8.8-8.2 6.9-5 10.7-7.6c1.9-1.3 4-2.7 6.1-4.1 2.2-1.4 4.1-2.9 5.9-4.6s3.3-3.5 4.5-5.6 1.8-4.5 1.8-7.1c0-4.2-1.2-7.6-3.7-9.9-2.5-2.4-5.6-3.6-9.4-3.6s-4.8.6-6.6 1.8-3.2 2.8-4.3 4.8-1.9 4.1-2.3 6.5c-.5 2.4-.7 4.7-.7 7.1h-17c-.2-5 .4-9.6 1.8-13.9Zm65.2 47.5v-16.2l38-51h15.9v52.6h11.6v14.6h-11.6v20.2h-16.9v-20.2zm36.6-45-22.6 30.4h23v-30.4zm75.1 23.5v15.2h-37.6v-15.2zm34.9-47.5v34.2h36.1v-34.2h19.6v89.2h-19.6v-38.5H1070v38.5h-19.6v-89.2zm71.5 43c1.6-4.2 3.8-7.8 6.8-10.8 2.9-3 6.4-5.2 10.5-6.9q6.15-2.4 13.8-2.4c7.65 0 9.7.8 13.8 2.4s7.6 3.9 10.6 6.9c2.9 3 5.2 6.5 6.8 10.8q2.4 6.3 2.4 14.1c0 7.8-.8 9.8-2.4 14s-3.8 7.7-6.8 10.7c-2.9 3-6.4 5.2-10.6 6.8s-8.7 2.4-13.8 2.4-9.7-.8-13.8-2.4-7.6-3.9-10.5-6.8c-2.9-3-5.2-6.5-6.8-10.7s-2.4-8.8-2.4-14 .8-9.9 2.4-14.1m16.1 21.6c.5 2.5 1.4 4.7 2.6 6.6 1.2 2 2.8 3.5 4.8 4.7q3 1.8 7.5 1.8c4.5 0 5.5-.6 7.6-1.8 2-1.2 3.7-2.7 4.9-4.7s2.1-4.2 2.6-6.6c.5-2.5.8-5 .8-7.6s-.2-5.1-.8-7.6-1.4-4.7-2.6-6.6-2.8-3.5-4.9-4.7c-2-1.2-4.6-1.8-7.6-1.8s-5.5.6-7.5 1.8-3.6 2.8-4.8 4.7-2.1 4.1-2.6 6.6-.8 5-.8 7.6.2 5.1.8 7.6m103.6 24.7v-9h-.4c-2.2 3.8-5.2 6.5-8.8 8.1-3.6 1.7-7.2 2.5-11 2.5s-8.6-.6-11.7-1.9c-3-1.2-5.4-3-7.2-5.3s-3-5.1-3.7-8.4-1.1-6.9-1.1-10.9v-39.8h17.8v36.5c0 5.3.8 9.3 2.5 11.9s4.6 3.9 8.9 3.9 8.3-1.4 10.5-4.3 3.2-7.6 3.2-14.2v-33.9h17.8v64.6h-16.9Zm47.3-64.6v12h.2c.8-2 2-3.9 3.4-5.6s3-3.2 4.9-4.4c1.8-1.2 3.8-2.1 5.9-2.8s4.2-1 6.5-1 2.5.2 3.9.6v16.5c-.8-.2-1.8-.3-3-.4s-2.3-.2-3.4-.2c-3.2 0-6 .5-8.2 1.6s-4.1 2.6-5.4 4.4-2.4 4.1-2.9 6.6q-.9 3.75-.9 8.1v29.1h-17.8v-64.6h16.9Zm116.5-24.7c4 0 7.6.6 10.8 1.9s6 3.1 8.2 5.3c2.3 2.2 4 4.9 5.2 7.8 1.2 3 1.8 6.1 1.8 9.6 0 5.2-1.1 9.8-3.3 13.6s-5.8 6.8-10.8 8.8v.2c2.4.7 4.4 1.7 6 3.1s2.9 3 3.9 4.9 1.7 3.9 2.2 6.2c.5 2.2.8 4.5.9 6.8 0 1.4.2 3.1.2 5s.2 3.9.4 5.9.5 3.9 1 5.7 1.1 3.3 2.1 4.6H1434c-1.1-2.8-1.8-6.2-2-10.1s-.6-7.7-1.1-11.2q-1.05-7.05-4.2-10.2c-2.2-2.2-5.7-3.2-10.6-3.2h-19.6v34.9h-19.6V1919h48.1Zm-7 40.4c4.5 0 7.9-1 10.1-3s3.4-5.2 3.4-9.8-1.1-7.5-3.4-9.4c-2.2-2-5.6-2.9-10.1-2.9h-21.5v25.1zm47.6 2.6c1.6-4.2 3.8-7.8 6.8-10.8 2.9-3 6.4-5.2 10.5-6.9q6.15-2.4 13.8-2.4c7.65 0 9.7.8 13.8 2.4s7.6 3.9 10.6 6.9c2.9 3 5.2 6.5 6.8 10.8q2.4 6.3 2.4 14.1c0 7.8-.8 9.8-2.4 14s-3.8 7.7-6.8 10.7c-2.9 3-6.4 5.2-10.6 6.8s-8.7 2.4-13.8 2.4-9.7-.8-13.8-2.4-7.6-3.9-10.5-6.8c-2.9-3-5.2-6.5-6.8-10.7s-2.4-8.8-2.4-14 .8-9.9 2.4-14.1m16.1 21.6c.5 2.5 1.4 4.7 2.6 6.6 1.2 2 2.8 3.5 4.8 4.7q3 1.8 7.5 1.8c4.5 0 5.5-.6 7.6-1.8 2-1.2 3.7-2.7 4.9-4.7s2.1-4.2 2.6-6.6c.5-2.5.8-5 .8-7.6s-.2-5.1-.8-7.6-1.4-4.7-2.6-6.6-2.8-3.5-4.9-4.7c-2-1.2-4.6-1.8-7.6-1.8s-5.5.6-7.5 1.8-3.6 2.8-4.8 4.7-2.1 4.1-2.6 6.6-.8 5-.8 7.6.2 5.1.8 7.6m59.2-20.1c.2-4.2 1.3-7.6 3.1-10.4s4.2-5 7-6.6q4.2-2.55 9.6-3.6c3.5-.7 7.1-1.1 10.7-1.1s6.5.2 9.9.7c3.3.5 6.4 1.4 9.1 2.7 2.8 1.3 5 3.2 6.8 5.6s2.6 5.5 2.6 9.4v33.6c0 2.9.2 5.7.5 8.4q.45 4.05 1.8 6h-18c-.3-1-.6-2-.8-3.1-.2-1-.4-2.1-.4-3.2-2.8 2.9-6.2 5-10 6.1-3.8 1.2-7.8 1.8-11.8 1.8s-6-.4-8.6-1.1c-2.7-.8-5-1.9-7-3.5s-3.6-3.6-4.7-6-1.7-5.3-1.7-8.6.6-6.7 1.9-9.1 3-4.3 5-5.7 4.4-2.5 7-3.2 5.3-1.3 7.9-1.7c2.7-.4 5.3-.8 7.9-1s4.9-.6 6.9-1.1 3.6-1.2 4.8-2.2 1.7-2.4 1.6-4.2c0-1.9-.3-3.4-.9-4.6s-1.5-2-2.5-2.6q-1.5-.9-3.6-1.2c-1.4-.2-2.9-.3-4.4-.3-3.5 0-6.2.8-8.2 2.2s-3.2 4-3.5 7.5h-17.8Zm41 13.2c-.8.7-1.7 1.2-2.8 1.6s-2.3.7-3.6.9-2.6.5-4.1.6l-4.2.6c-1.3.2-2.6.6-3.9 1s-2.4 1-3.4 1.7-1.7 1.6-2.3 2.7-.9 2.5-.9 4.1.3 2.9.9 4 1.4 1.9 2.4 2.6 2.2 1.1 3.5 1.3 2.7.4 4.1.4q5.25 0 8.1-1.8t4.2-4.2c.9-1.6 1.5-3.3 1.7-4.9.2-1.7.3-3 .3-4zm77.3 23.3c-2.1 3.5-4.8 6-8.2 7.6s-7.2 2.3-11.4 2.3-9.1-.9-12.8-2.8-6.7-4.4-9.1-7.6q-3.6-4.8-5.4-11.1c-1.2-4.2-1.8-8.5-1.8-13s.6-8.5 1.8-12.6c1.2-4 3-7.6 5.4-10.7s5.4-5.6 8.9-7.4c3.6-1.9 7.8-2.8 12.5-2.8s7.5.8 10.9 2.4c3.5 1.6 6.2 4 8.2 7.2h.2v-32.5h17.8v89.2h-16.9v-8.2h-.2Zm-.7-31.9c-.5-2.5-1.4-4.6-2.6-6.5s-2.8-3.4-4.7-4.6q-2.85-1.8-7.2-1.8c-4.35 0-5.4.6-7.4 1.8s-3.6 2.7-4.8 4.6-2.1 4.1-2.6 6.6-.8 5-.8 7.7.3 5 .9 7.5 1.5 4.7 2.8 6.7 2.9 3.5 4.9 4.8c2 1.2 4.3 1.8 7.1 1.8s5.4-.6 7.3-1.8c2-1.2 3.5-2.7 4.7-4.7s2-4.2 2.5-6.7.8-5.1.8-7.8-.2-5.2-.8-7.7Zm125.1-25.2c-1.2-1.9-2.6-3.5-4.4-4.9s-3.7-2.5-5.9-3.3q-3.3-1.2-6.9-1.2c-4.4 0-8.2.9-11.2 2.6q-4.65 2.55-7.5 6.9c-1.9 2.9-3.3 6.1-4.2 9.8s-1.3 7.5-1.3 11.4.4 7.4 1.3 10.9q1.35 5.25 4.2 9.6c1.9 2.8 4.4 5.1 7.5 6.8s6.8 2.6 11.2 2.6 10.7-1.8 14.1-5.5 5.4-8.5 6.2-14.5h19c-.5 5.6-1.8 10.6-3.9 15.1s-4.8 8.3-8.2 11.5q-5.1 4.8-12 7.2c-4.6 1.7-9.6 2.5-15.1 2.5s-13-1.2-18.4-3.6c-5.5-2.4-10.1-5.6-13.8-9.8-3.8-4.2-6.6-9.1-8.6-14.7s-3-11.7-3-18.2 1-12.9 3-18.6 4.9-10.7 8.6-14.9 8.4-7.6 13.8-10c5.5-2.4 11.6-3.6 18.4-3.6s9.6.7 13.9 2.1c4.4 1.4 8.3 3.5 11.8 6.2s6.3 6.1 8.6 10.1 3.7 8.6 4.2 13.8h-19c-.3-2.2-1.1-4.3-2.2-6.2Zm33.9 19.1c1.6-4.2 3.8-7.8 6.8-10.8 2.9-3 6.4-5.2 10.5-6.9q6.15-2.4 13.8-2.4c7.65 0 9.7.8 13.8 2.4s7.6 3.9 10.6 6.9c2.9 3 5.2 6.5 6.8 10.8q2.4 6.3 2.4 14.1c0 7.8-.8 9.8-2.4 14s-3.8 7.7-6.8 10.7c-2.9 3-6.4 5.2-10.6 6.8s-8.7 2.4-13.8 2.4-9.7-.8-13.8-2.4-7.6-3.9-10.5-6.8c-2.9-3-5.2-6.5-6.8-10.7s-2.4-8.8-2.4-14 .8-9.9 2.4-14.1m16.1 21.6c.5 2.5 1.4 4.7 2.6 6.6 1.2 2 2.8 3.5 4.8 4.7q3 1.8 7.5 1.8c4.5 0 5.5-.6 7.6-1.8 2-1.2 3.7-2.7 4.9-4.7s2.1-4.2 2.6-6.6c.5-2.5.8-5 .8-7.6s-.2-5.1-.8-7.6-1.4-4.7-2.6-6.6-2.8-3.5-4.9-4.7c-2-1.2-4.6-1.8-7.6-1.8s-5.5.6-7.5 1.8-3.6 2.8-4.8 4.7-2.1 4.1-2.6 6.6-.8 5-.8 7.6.2 5.1.8 7.6m103.6 24.7v-9h-.4c-2.2 3.8-5.2 6.5-8.8 8.1-3.6 1.7-7.2 2.5-11 2.5s-8.6-.6-11.7-1.9c-3-1.2-5.4-3-7.2-5.3s-3-5.1-3.7-8.4-1.1-6.9-1.1-10.9v-39.8h17.8v36.5c0 5.3.8 9.3 2.5 11.9s4.6 3.9 8.9 3.9 8.3-1.4 10.5-4.3 3.2-7.6 3.2-14.2v-33.9h17.8v64.6h-16.9Zm47.3-64.6v12h.2c.8-2 2-3.9 3.4-5.6s3-3.2 4.9-4.4c1.8-1.2 3.8-2.1 5.9-2.8s4.2-1 6.5-1 2.5.2 3.9.6v16.5c-.8-.2-1.8-.3-3-.4s-2.3-.2-3.4-.2c-3.2 0-6 .5-8.2 1.6s-4.1 2.6-5.4 4.4-2.4 4.1-2.9 6.6q-.9 3.75-.9 8.1v29.1h-17.8v-64.6h16.9Zm46.7 48.5c.8 1.4 1.8 2.5 3.1 3.4s2.7 1.5 4.3 1.9q2.4.6 5.1.6c2.7 0 2.6-.1 3.9-.4 1.4-.3 2.6-.8 3.8-1.4s2.1-1.5 2.8-2.5c.8-1 1.1-2.4 1.1-3.9 0-2.7-1.8-4.7-5.3-6s-8.5-2.7-14.8-4c-2.6-.6-5.1-1.3-7.6-2.1s-4.6-1.8-6.6-3.1c-1.9-1.3-3.5-2.9-4.6-4.9q-1.8-3-1.8-7.2 0-6.3 2.4-10.2c1.6-2.7 3.8-4.8 6.4-6.3 2.7-1.5 5.7-2.6 9-3.2s6.8-.9 10.2-.9 6.9.3 10.2 1 6.2 1.8 8.8 3.4 4.7 3.7 6.4 6.3 2.7 5.9 3.1 9.9h-16.9q-.3-5.1-3.9-6.9c-2.3-1.2-5.1-1.8-8.2-1.8s-2.1 0-3.2.2c-1.2.1-2.2.4-3.2.8q-1.5.6-2.4 1.8c-.7.8-1 1.9-1 3.2s.6 2.9 1.8 3.9 2.7 1.8 4.6 2.4 4 1.2 6.4 1.7 4.9 1 7.4 1.6c2.6.6 5.1 1.3 7.6 2.1s4.6 1.9 6.6 3.3c1.9 1.4 3.5 3.1 4.6 5.1 1.2 2 1.8 4.6 1.8 7.6 0 4.2-.9 7.8-2.6 10.7s-3.9 5.2-6.7 6.9-5.9 3-9.4 3.7-7.1 1.1-10.8 1.1-7.4-.4-11-1.1c-3.6-.8-6.8-2-9.6-3.8q-4.2-2.7-6.9-6.9c-1.8-2.9-2.8-6.5-2.9-10.8h16.9c0 1.9.4 3.6 1.2 4.9Zm71.2.6c2.7 2.6 6.5 3.9 11.5 3.9s6.7-.9 9.2-2.7q3.9-2.7 4.8-5.7h15.6c-2.5 7.8-6.3 13.3-11.5 16.6s-11.4 5-18.8 5-9.7-.8-13.8-2.4-7.5-3.9-10.4-6.9q-4.2-4.5-6.6-10.8c-1.5-4.2-2.3-8.8-2.3-13.8s.8-9.3 2.4-13.5 3.8-7.8 6.8-10.8c2.9-3 6.4-5.4 10.4-7.2s8.5-2.6 13.4-2.6 10.3 1.1 14.4 3.2 7.4 5 10.1 8.6c2.6 3.6 4.5 7.7 5.7 12.2q1.8 6.9 1.2 14.4h-46.6c.2 5.8 1.7 9.9 4.4 12.5Zm20-34c-2.1-2.3-5.4-3.5-9.7-3.5s-5.2.5-7.1 1.4c-1.9 1-3.4 2.1-4.5 3.6q-1.65 2.1-2.4 4.5c-.5 1.6-.7 3-.8 4.2h28.9c-.8-4.5-2.3-7.9-4.4-10.2m35.4 44.7c2.2-9.5 3.3-19.1 3.3-28.9s-1.1-19.8-3.2-29.5c-2.2-9.7-5.5-19-10.1-28.1h14.6c5.2 8.6 9.3 17.7 12.2 27.2 2.9 9.6 4.3 19.3 4.3 29.1s-.3 9.6-1 14.7-1.7 10.2-3.1 15.2-3.1 9.9-5.2 14.7-4.5 9.1-7.2 13h-14.8c4.6-8.8 8-18 10.2-27.4" class="cls-5"/>
    </g>
    <path d="M1064.6 1172.2c3.4 0 6.2.5 8.6 1.5s4.3 2.3 5.8 3.9 2.6 3.4 3.2 5.5c.7 2.1 1 4.2 1 6.4s-.3 4.3-1 6.3-1.8 3.9-3.2 5.5c-1.5 1.6-3.4 2.9-5.8 3.9s-5.2 1.5-8.6 1.5h-12.4v19.2h-11.8v-53.7zm-3.3 25.3c1.3 0 2.7 0 3.9-.3 1.2-.2 2.4-.6 3.3-1.2s1.7-1.4 2.3-2.4c.6-1.1.9-2.4.9-4.1s-.3-3.1-.9-4.1c-.6-1.1-1.3-1.9-2.3-2.4-.9-.6-2.1-1-3.3-1.2s-2.6-.3-3.9-.3h-9.2v16.1h9.2Zm41-25.3v53.7h-11.8v-53.7zm6.2 10v-9.9h44v9.9h-16.1v43.8h-11.8v-43.8zm25.2 97-69.4 28.3 16.5-28.3-16.5-28.3z"/>
    <g style="opacity:.5">
      <path d="m2468 593.6-4.7 1.8-85.6 84.1 1.2.8c5.8-4.7 11.5-9.6 17.2-14.3q8.55-7.2 17.4-14.1c8.85-6.9 11.7-9.2 17.7-13.6s12-8.8 18.1-13c1.8-1.3 3.7-2.5 5.5-3.8 22.7-15.2 45.8-30.6 72-38.8 11.1-3.5 22.6-4.5 33.1 1.6 8.6 5 15.4 13.2 17.4 23.2 2.2 11.1-.3 22.9-3.5 33.5-3.1 10.1-6.7 20.1-10.6 30-10.8 27.7-25.3 53.3-41.7 78l-18.4 26.4 2.5 1.4 52.3-52 3.9-7.3c10-20.4 16.6-38.2 21.3-50.7 3.2-8.4 5.8-17.1 7.9-25.8 3.1-12.3 5.4-25.7 2.2-38.4-3.2-12.5-11.7-24.1-22.2-31.5-25.6-18-57.5-1.4-81.6 11.1-1.7.9-3.3 1.7-5 2.6-5.5 2.9-11.1 5.7-16.6 8.7h-.1m-909.2 245c-37.9 5.3-85.5 17.3-85.5 17.3l.6 3.1c-9.8 13.6-20.9 29.7-21.6 47.1-.3 7.8 1.4 15.7 4.9 22.7 3.4 6.8 9.2 12.2 14.7 17.2 4.3 3.8 8.9 7.5 13.6 10.9.2.1.3.2.5.4 1.1.8 4.1 3.2 5.4 3.3l.2 3.4 82.1 3v-3.1c-11.3-.3-22.5-.4-33.6-2.9-20.2-4.6-40.1-13.7-55.6-27.6-10.5-9.4-16.1-21.3-11.4-35.2 4.7-14.1 16-29.4 28.3-37.5 17.3-11.3 37.8-16.2 58-19.1l-.7-2.9Z" style="fill:#ddd"/>
    </g>
    <g style="opacity:.6">
      <path d="M1288 101.2s-42 .7-41.8 21.3h-231c-18.3-19.3-72.9-21.3-72.9-21.3m954.8 1304 575.8-228.5s-38.7 10.9-63.4 2.2l-156.3 62c-3.1 1-6.2 1.9-9.3 2.9-35.8 11.2-71.6 22.4-107.4 33.5-16.2 5-32.5 10.1-48.7 15.1-49.8 57.3-190.7 112.8-190.7 112.8m0 0 566.1-224.6 9.6-3.9m-655.6-206.8s30.4 4 45.5 15.8l200.6 5s55.5 2.5 104.5-11.3c12.5-3.5 32-9.9 54.1-17.5 2.9 4.8 6.6 9 12 12.1 8.6 4.9 19.7 4 28.9 1.9 11.3-2.5 22.3-6.5 33-10.8 8.9-3.5 17.6-7.4 26.4-11.2h.2l3.2-1.6c4.2-1.5 78.9-76.8 78.9-76.8l-1.9-1.7c-6.4 4.2-12.9 8.3-19.3 12.5-15.3 9.9-32.6 14.7-49.7 20.5-12.6 4.3-25.2 8.7-37.8 13-21.7 7.5-43.5 14.9-65.2 22.4-8.9-27.1-32.5-103.1-32.6-103.3-1.5-4.9-2.5-10.9 0-15.7 2.9-5.5 9.7-7.3 14.8-10.1m.1-.2-1.4-2.5c-46.6 22.7-152.7 18.7-152.7 18.7v2.7c16.1.3 32.2.5 48.4.8 15.3.2 31 0 46 3.9 9.1 2.4 18 6.8 24.9 13.4 7.9 7.6 11.4 17.8 14.9 27.9 1.6 4.8 3.1 9.7 4.7 14.5 2.6 8.2 5.3 16.3 8 24.5 2.9 9 5.9 18.1 8.8 27.1.4 1.2.8 2.4 1.2 3.5-1 .4-2.1.7-3.1 1.1-11.8 4-23.5 8.3-35.4 12.1 0 0-17.7 5.7-37.2 9.1s-43.7 6.2-74.6 5.2-248.1-4.8-248.1-4.8m498.5-30.9c-13.3 6.6-27.1 12.2-41.1 16.9-8.8 2.9-18.5 6.2-27.9 5.1-3.4-.4-6.9-1.7-9.6-4.5 47.4-16.5 101.9-36.3 125.5-45-14.9 10.3-30.7 19.5-46.9 27.6Z" style="fill:#c4c4c4"/>
    </g>
    <path d="M2020.9 1312.8c.2 0 .3-.1.3-.2 0 0-.2 0-.3.2" class="cls-1"/>
    <path d="M2868.7 466.5c-19.3-54.5-47.4-105.2-83.5-150.8-35.7-45.2-78.3-84.1-126.5-115.7-49-32.1-102.6-55.8-159.3-70.4-50.6-13-104.7-21.2-165.3-24.9-50.3-3.1-100.6-3.5-138.7-3.5h-925.1c-32.8 0-29.1 16.5-29.1 16.5l1.4 17.8c0 3.9-.2 8.4-2 11.9-12.1 24.4-38.7 34.7-64.2 37.5-19.7 2.2-39.5 3.9-59.3 5.9-12.6 1.2-25.7-1.1-36.7-7.5-9.6-5.6-16.1-14.3-23.3-22.5l-43.5-46.9s-10.8-12.7-35.5-12.7H804.7c-38.1 0-88.4.4-138.7 3.5-60.6 3.7-114.7 11.8-165.3 24.9-56.7 14.6-110.3 38.3-159.3 70.4-48.2 31.6-90.8 70.5-126.5 115.7-36.1 45.6-64.1 96.4-83.5 150.8-20 56.3-30.1 115.5-30.1 175.7s10.9 124.8 32.5 183.3c16.8 45.5 38.1 86.5 63.4 121.6 25.6 35.7 56.9 68.6 93 97.9 22.4 18.2 45.4 34.3 68.2 48 52.9 31.7 109.7 59.8 168.8 83.7l9.6 3.9 566 224.6c44.7 17.2 81.2 30 114.8 40.3 65.4 20 128.2 33 186.9 38.6 29.6 2.8 60.8 4.2 95.4 4.2s65.8-1.4 95.4-4.2c58.6-5.6 121.5-18.6 186.9-38.6 33.7-10.3 70.2-23.1 114.8-40.3 0 0 157.5-58.7 199.8-115.6 14.3-17.6 28.1-35.6 40.7-54.5 9.3-14.1 18.4-28.5 25.6-43.8 8.8-18.5 10.1-39.5 4.3-59-8.5-28.5-28.8-47.8-53.9-62.3-19.7-11.4-40.5-20.7-62.5-26.5-19-4.9-38.6-7.6-58.1-9.3-19.6-1.7-40.3-3.2-59.1-10.4-15.2-5.8-29.5-14.1-43-22.8-11.1-7.2-21.7-15.1-33.1-21.9-10.7-6.3-23.8-9.2-36.1-9.2s-40.7-.9-61.9-1.5l-21.7-.7-68.8-1.8c-21.7-.6-43.4-1-65.1-1.5-32.9-.8-65.8-2-98.6-3.4-17.6-.7-35.1-1.1-52.7-1.3-19.7-.2-35.7-11.8-42.7-30.1q-.9-2.25-1.5-4.5c-3.2-11-2.6-22.9 2.7-33.2 4.2-8.3 11.1-15.2 19.2-19.8 7.5-4.2 15.9-5.9 24.1-8.1 6.3-1.7 12.6-3.6 18.9-5.1 0 0 57.6-13.9 85.6-17.5 21.4-2.8 43.1-5.5 64.7-7.2 46.7-3.6 93.4-3.6 140.2-3.4 37.6.1 75.2.2 112.8.4 33.7.1 67.4.2 101.2.4h66.5c41 0 82.6 2.1 123.3-4.8 15.4-2.6 30.9-6.8 45-13.9 2.3-1.2 4.6-2.4 6.8-3.7 11-6.3 21.6-14 31.9-21.3 17.1-12.1 33.7-25 49.8-38.4 36.5-30.3 71.3-62.9 105.4-96 16.6-16 32.9-32.3 49.4-48.5 3.9-3.9 7.9-7.7 11.9-11.5 7.2-6.8 14.6-13.4 22.6-19.4 9.4-7.1 19.3-13.5 29.9-18.7 23.2-11.4 48.7-20.8 64.3-20.4 11.9.3 24 4.8 32.8 13 10.1 9.3 15.3 24.6 18.2 37.7 3.6 16.3 2.5 33.6-3 49.3-6 17.2-17.2 29.7-29.9 42.3-8.3 8.2-16.8 16.2-25.1 24.4-5.4 5.3-10.8 10.5-16.2 15.8l-58.6 57.8c-2.4 2.4-4.8 4.8-7.3 7.2-11.6 11.4-23.1 22.9-34.7 34.3-3.2 3.2-6.4 6.5-9.7 9.6-5.4 5.2-10.7 10.4-16.1 15.6-13 12.4-25.9 25.1-38.8 37.6-22.7 22.7-46.3 45.1-69.4 67.7-15.3 15-30.5 30.1-44.9 45.9-9.3 10.2-18.2 20.8-26.3 32-3.7 5.1-8.2 10.7-10.4 16.7-6.5 17.2 1.9 33.7 13.1 47.1 5.4 6.5 11.5 12.5 17.9 18 16.2 14.1 34.7 24.9 52.6 36.8 22.6 15 45.8 30.4 71.7 38.7 2.2.6 35.9 9.5 72.1-5.8 59-23.8 115.8-52 168.8-83.7 22.8-13.7 45.8-29.8 68.2-48 36.1-29.3 67.4-62.2 93-97.8 25.3-35.2 46.6-76.1 63.4-121.7 21.6-58.5 32.5-120.2 32.5-183.3s-10.1-119.4-30.1-175.7Zm-979.3 918.8c-44.2 17-80.2 29.6-113.3 39.8-64 19.6-125.4 32.3-182.7 37.8-28.9 2.8-59.4 4.1-93.4 4.1s-64.5-1.3-93.4-4.1c-57.2-5.4-118.7-18.2-182.7-37.8-33.2-10.2-69.2-22.8-113.3-39.8l-47.7-18.9c41.1-.1 82.1-.2 123.2-.2H1822c38.3 0 76.7 0 115.1.1l-47.7 18.9Zm-102.2-401.9c20.2 1.5 40.4 7 58.4 16.4 9 4.7 16.4 10.8 24.6 16.7 7.6 5.5 15.6 10.5 24.2 14.2 41.6 18.2 88.8 18.2 132.6 26.8 41 8.1 85.8 22.8 111 58.4 10.3 14.6 18.4 36.1 14.3 54.1-1.9 8.4-5.1 16.4-9.2 23.9-7.1 13-16.4 25.1-25 37.2-9.5 13.3-19.3 26.3-29.9 38.7-11.3 13.2-27.1 25.6-31.1 28.7-4.1 3.2-9.9 5.4-9.9 5.4l-26 8.7h-.3c8.4-5.8 16.9-11.6 25.3-17.5 6.3-4.3 12.5-8.6 18.8-12.9 7.5-5.2 14.9-10.1 21-16.9 9.8-11 18.3-23.5 26.8-35.5 1.6-2.3 3.3-4.7 4.9-7l2.8-4.3c6.1-9.2 12.4-18.7 17.2-26.6 5.1-8.5 10.7-18.3 11.5-27.7 2.1-24.4-14.2-44.1-24.1-53.7-18.9-18.2-43.4-29.4-60.2-36.2-21.3-8.6-43.2-15.2-65.8-19.3-5.2-1-10.5-1.9-15.8-2.6-27.8-3.6-56.4-7.3-82.8-17.6-8.9-3.2-17.6-6.9-26-11.4l-8.1-4.2c-13.7-6.9-27.1-14.5-41-20.9-.5-.2-1-.5-1.5-.7-8.3-3.7-16.9-6.5-25.6-9.1-13.4-4.1-33.7-6-33.7-6 7.6 0 15.1 0 22.7.5Zm1059.1-165.2c-16.1 43.7-36.6 83-60.7 116.6-24.5 34.1-54.5 65.6-89.1 93.7-21.7 17.6-43.8 33.1-65.8 46.3-37.9 22.7-77.2 43.5-117.6 61.5-11.6 5.2-22.4 9-35 10.3-27.3 3-53.8.2-80.1-7.6-11.1-3.3-22.1-7-33.1-10.8-19.9-7-40.1-14.5-58.4-25.1-12.1-7.1-22.4-17.5-28.8-30-5.5-10.7-9.4-24.2-6.1-36.2 4-14.7 15.8-26.4 25.7-37.5 13-14.5 26.9-28.3 40.9-41.9l.7-.7c10.2-9.8 20.3-19.7 30.5-29.5 23.4-22.6 47.1-44.8 70.1-67.8 13.7-13.3 27.5-26.6 41.2-39.9 17.7-17.1 35.4-34 53.5-50.7 8.2-7.6 16.5-15.3 24.7-23 23-21.6 46.7-43 67.5-66.7 11-12.6 20.2-27 25.1-43.1 7.1-23.2 5.6-48.6-2.5-71.3-4.4-12.2-10.4-25-20.5-33.5-14.1-12-32.4-15.5-50.4-14-21.3 1.8-42.2 8.2-61.3 17.6-13.4 6.6-24.7 14.7-35.5 25-10.6 10.1-20.3 21-30.6 31.3-13.3 13.3-26.7 26.5-40.1 39.7-17 16.8-34.2 33.3-51.8 49.4-20.2 18.5-40.6 37-61.9 54.3-17 13.8-34.7 26.2-52.9 38.4-9.9 6.6-20.1 12.6-30.7 18-13.6 6.9-27.7 12.9-42.5 16.6l-2.4.6c-26.6 6.2-54.3 7.7-81.6 7.8h-405.6c-39.5 0-48.1-.2-71.3.8-18 .8-35.9 2.1-53.8 4.1-30.2 3.3-60.4 7-90 14-26.3 6.2-53.4 13.5-70.8 35.8-7.4 9.5-12.4 21-13.6 33-1.8 19.3 6 39.9 20.3 53.1 19.9 18.4 47.4 26.7 74.1 27.7 14.6.6 29.2.7 43.8 1.1l58.5 1.7c20.7.6 41.4 1.2 62.2 1.8l51.3 1.5 20.1.6c12.9.4 25.8.9 38.7 1.6 5.8.3 11.5.6 17.3 1.1 15.3 1.4 30.5 6.7 44.9 11.9 13.7 5 26.8 12 39.8 18.8 13.2 6.9 26.5 13 40.4 18 4.5 1.6 9.1 3.2 13.6 4.7 1.2.4 2.4.8 3.7 1.2 16.6 5.1 33.9 7.8 48.6 9.8 5.4.7 10.8 1.4 16.1 2 12 1.4 24.3 2.9 36.3 5.4 16.3 3.5 33.4 8.8 50.8 15.9 16.2 6.6 39.9 17.3 57.8 34.6 8.9 8.6 23.6 26.3 21.8 47.7-.7 7.8-5.7 16.7-10.4 24.5-4.7 7.7-10.9 17.2-17 26.3l-2.8 4.3c-6.6 9.9-23.7 32.5-28.4 38.5-3.8 4.8-8.1 7.9-8.1 7.9l-78.5 54.8c-2.3.7-4.5 1.3-6.8 2-29.7 8.9-59.8 12.4-90.8 12.4h-789.4c-30.9 0-61.1-3.5-90.8-12.4-13.2-4-26.5-7.8-39.7-11.8-35.8-10.8-71.5-21.9-107.3-33s-71.6-22.3-107.4-33.5c-16.1-5.1-32.2-10.1-48.4-15.2l-171.3-68c-3.2-1.3-6.3-2.5-9.5-3.8-58-23.4-113.8-51.1-165.8-82.2-22-13.1-44.1-28.7-65.8-46.3-34.6-28.1-64.6-59.6-89.1-93.7-24.2-33.6-44.6-72.8-60.7-116.6-20.7-56.1-31.2-115.3-31.2-175.9s9.7-114.6 28.9-168.6c18.5-52.2 45.5-100.9 80.1-144.7 34.3-43.4 75.2-80.7 121.5-111.1 47.1-30.8 98.5-53.6 153-67.6 49.3-12.7 102-20.6 161.3-24.3 34-2.1 68.1-2.9 98.4-3.2h.3c12.1.5 24.2.9 36.3 2.1 12.1 1.1 24 3.4 36 5.4 17.2 2.8 34.4 5.7 51.6 8.5.8.1 1.5.2 2.3.4 20.6 3.2 41.2 6.9 61.7 10.5 19.1 3.4 38.6 6.6 56.1 15.3 16.1 8.1 30.4 19.2 44.6 30.1 13.2 10.2 26.8 16 43.8 14.3l24.3-2.4c16-1.6 67.4-6.8 83.4-8.4 9.2-.9 18.6-3.3 26.3-8.5 8.3-5.6 15-14.3 20.2-22.6 5.5-8.7 11.1-16.4 19.7-22.2 8.6-5.7 18.2-9.8 27.7-13.6 20.1-8.1 42.3-9 48.8-9.1h846.6c37.8 0 87.7.4 137.4 3.4 59.2 3.6 112 11.6 161.3 24.3 54.4 14 105.9 36.8 153 67.6 46.3 30.3 87.2 67.7 121.5 111.1 34.6 43.8 61.6 92.5 80.1 144.7 19.2 54 28.9 110.8 28.9 168.6s-10.5 119.8-31.2 175.9Zm-825.4 494.6" class="cls-1"/>
    <path d="M1337 1641.8h276.7" style="fill:none;stroke:#ee302d;stroke-width:13.9px;stroke-miterlimit:10"/>
    <path d="m1662.9 1641.8-69.4 28.4 16.5-28.4-16.5-28.3z" class="cls-2"/>
    <path d="M1499.9 1558.4h14v14h-14z"/>
    <path d="M1485.9 1558.4h14v14h-14zm14-13.9h14v14h-14zm-14-14h14v14h-14zm14-14h14v14h-14zm-14-14h14v14h-14zm14-14h14v14h-14zm-14-14h14v14h-14zm14-14h14v14h-14zm-14-14h14v14h-14zm14-14h14v14h-14zm-14-13.9h14v14h-14zm14-14h14v14h-14zm-14-14h14v14h-14zm14-14h14v14h-14z" style="fill:#fff"/>
    <path d="M1485.9 1544.5h14v14h-14zm14-14h14v14h-14zm-14-14h14v14h-14zm14-14h14v14h-14zm-14-14h14v14h-14zm14-14h14v14h-14zm-14-14h14v14h-14zm14-14h14v14h-14zm-14-14h14v14h-14zm14-13.9h14v14h-14zm-14-14h14v14h-14zm14-14h14v14h-14zm-14-14h14v14h-14z"/>
    <g class="cls-5">
      <path d="M1082.4 238.6v28.1h16.8v6.4h-24.4v-34.5zm27.7 28.5c1 1 2.5 1.5 4.4 1.5s2.6-.3 3.6-1 1.6-1.4 1.8-2.2h6c-1 3-2.4 5.1-4.4 6.4s-4.4 1.9-7.2 1.9-3.7-.3-5.3-.9-2.9-1.5-4-2.7-1.9-2.5-2.5-4.2c-.6-1.6-.9-3.4-.9-5.3s.3-3.6.9-5.2 1.5-3 2.6-4.2 2.5-2.1 4-2.8c1.6-.7 3.3-1 5.2-1s4 .4 5.6 1.2q2.4 1.2 3.9 3.3c1 1.4 1.7 3 2.2 4.7.5 1.8.6 3.6.5 5.6h-18c0 2.2.7 3.8 1.7 4.8Zm7.7-13.2c-.8-.9-2.1-1.4-3.7-1.4s-2 .2-2.7.6-1.3.8-1.7 1.4c-.4.5-.7 1.1-.9 1.7s-.3 1.2-.3 1.6h11.2c-.3-1.7-.9-3.1-1.7-4Zm37.5-15.3 8.1 23.7 7.6-23.7h10.7v34.5h-7.1v-24.4l-8.4 24.4h-5.8l-8.4-24.2v24.2h-7.1v-34.5h10.7Zm32.1 17.2c0-1.6.5-2.9 1.2-4s1.6-1.9 2.7-2.6c1.1-.6 2.3-1.1 3.7-1.4s2.7-.4 4.1-.4 2.5 0 3.8.3c1.3.2 2.5.5 3.5 1s1.9 1.2 2.6 2.1 1 2.1 1 3.6v13c0 1.1 0 2.2.2 3.2.1 1 .4 1.8.7 2.3h-7l-.3-1.2c-.1-.4-.1-.8-.2-1.2q-1.65 1.65-3.9 2.4c-1.5.5-3 .7-4.5.7s-2.3-.1-3.3-.4-1.9-.7-2.7-1.4c-.8-.6-1.4-1.4-1.8-2.3s-.7-2-.7-3.3.2-2.6.7-3.5 1.1-1.6 1.9-2.2c.8-.5 1.7-1 2.7-1.2s2-.5 3.1-.7c1-.2 2-.3 3-.4 1 0 1.9-.2 2.7-.4s1.4-.5 1.8-.8c.5-.4.7-.9.6-1.6 0-.7-.1-1.3-.4-1.8s-.6-.8-1-1-.9-.4-1.4-.5c-.5 0-1.1-.1-1.7-.1-1.4 0-2.4.3-3.2.9s-1.2 1.5-1.4 2.9h-6.9Zm15.8 5c-.3.3-.7.5-1.1.6s-.9.3-1.4.4c-.5 0-1 .2-1.6.2-.5 0-1.1.1-1.6.2-.5 0-1 .2-1.5.4s-.9.4-1.3.7-.7.6-.9 1-.3 1-.3 1.6.1 1.1.3 1.5.5.7.9 1c.4.2.8.4 1.4.5.5 0 1 .1 1.6.1 1.4 0 2.4-.2 3.1-.7s1.3-1 1.6-1.6c.4-.6.6-1.3.7-1.9 0-.6.1-1.2.1-1.5v-2.6Zm18.7-12.7v3.5h.1c.9-1.4 2-2.5 3.4-3.2s2.8-1 4.2-1 3.3.2 4.5.7 2.1 1.2 2.8 2.1 1.2 2 1.4 3.2.4 2.7.4 4.2V273h-6.9v-14.1c0-2.1-.3-3.6-1-4.6-.6-1-1.8-1.5-3.4-1.5s-3.2.6-4.1 1.7c-.8 1.1-1.3 2.9-1.3 5.5v13.1h-6.9v-25h6.5Zm27.9 18.7c.3.5.7 1 1.2 1.3s1 .6 1.7.7c.6.2 1.3.2 2 .2s1 0 1.5-.2c.5-.1 1-.3 1.4-.5s.8-.6 1.1-1 .4-.9.4-1.5c0-1-.7-1.8-2.1-2.3q-2.1-.75-5.7-1.5c-1-.2-2-.5-2.9-.8-1-.3-1.8-.7-2.5-1.2s-1.3-1.1-1.8-1.9-.7-1.7-.7-2.8c0-1.6.3-2.9.9-4 .6-1 1.5-1.8 2.5-2.4s2.2-1 3.5-1.3 2.6-.4 4-.4 2.7.1 3.9.4c1.3.3 2.4.7 3.4 1.3s1.8 1.4 2.5 2.4 1.1 2.3 1.2 3.8h-6.5c0-1.3-.6-2.2-1.5-2.7s-2-.7-3.2-.7h-1.3c-.5 0-.9.2-1.2.3-.4.2-.7.4-.9.7-.3.3-.4.7-.4 1.2s.2 1.1.7 1.5 1 .7 1.8.9c.7.2 1.6.5 2.5.7s1.9.4 2.8.6c1 .2 2 .5 2.9.8s1.8.7 2.5 1.3 1.3 1.2 1.8 2 .7 1.8.7 2.9c0 1.6-.3 3-1 4.1s-1.5 2-2.6 2.7-2.3 1.2-3.6 1.4c-1.4.3-2.8.4-4.2.4s-2.9-.1-4.2-.4c-1.4-.3-2.6-.8-3.7-1.4q-1.65-1.05-2.7-2.7c-1.05-1.65-1.1-2.5-1.1-4.2h6.5c0 .7.2 1.4.5 1.9Zm-149.2 32.9c-.5-.7-1-1.4-1.7-1.9s-1.4-1-2.3-1.3-1.7-.5-2.7-.5c-1.7 0-3.2.3-4.3 1-1.2.7-2.2 1.5-2.9 2.7-.7 1.1-1.3 2.4-1.6 3.8s-.5 2.9-.5 4.4.2 2.9.5 4.2.9 2.6 1.6 3.7 1.7 2 2.9 2.6c1.2.7 2.6 1 4.3 1s4.1-.7 5.4-2.1 2.1-3.3 2.4-5.6h7.3c-.2 2.2-.7 4.1-1.5 5.8s-1.9 3.2-3.2 4.4-2.9 2.2-4.6 2.8c-1.8.6-3.7 1-5.8 1s-5-.5-7.1-1.4-3.9-2.2-5.3-3.8-2.6-3.5-3.3-5.7-1.2-4.5-1.2-7 .4-5 1.2-7.2 1.9-4.1 3.3-5.8 3.2-2.9 5.3-3.9c2.1-.9 4.5-1.4 7.1-1.4s3.7.3 5.4.8q2.55.75 4.5 2.4 1.95 1.5 3.3 3.9c1.35 2.4 1.4 3.3 1.6 5.3h-7.3q-.15-1.35-.9-2.4Zm19.7-9.2v13h.1c.9-1.4 2-2.5 3.3-3.2 1.4-.7 2.7-1 4-1 1.8 0 3.3.2 4.5.7s2.1 1.2 2.8 2.1 1.2 2 1.4 3.2.4 2.7.4 4.2v15.4h-6.9v-14.1c0-2.1-.3-3.6-1-4.6-.6-1-1.8-1.5-3.4-1.5s-3.2.6-4.1 1.7c-.8 1.1-1.3 2.9-1.3 5.5V325h-6.9v-34.5h6.9Zm22 5.7v-5.6h6.9v5.6zm6.9 3.8v25h-6.9v-25zm17.3 4.5c-1.1 0-2 .2-2.8.7-.7.5-1.3 1.1-1.8 1.9s-.8 1.7-1 2.6-.3 1.9-.3 2.8 0 1.8.3 2.8c.2.9.5 1.8.9 2.5.4.8 1 1.4 1.8 1.9.7.5 1.6.7 2.7.7 1.6 0 2.9-.5 3.8-1.4s1.4-2.1 1.7-3.7h6.6c-.5 3.3-1.7 5.8-3.9 7.6-2.1 1.7-4.8 2.6-8.2 2.6s-3.6-.3-5.1-.9c-1.6-.6-2.9-1.5-4-2.6s-1.9-2.5-2.6-4q-.9-2.4-.9-5.1c0-2.7.3-3.7.8-5.4.6-1.7 1.4-3.1 2.5-4.3s2.4-2.1 4-2.8 3.4-1 5.4-1 2.9.2 4.3.6 2.6 1 3.7 1.8 2 1.8 2.6 2.9 1.1 2.6 1.2 4.2h-6.7c-.5-2.9-2.1-4.3-5.1-4.3Zm15.5 3.2c0-1.6.5-2.9 1.2-4s1.6-1.9 2.7-2.6c1.1-.6 2.3-1.1 3.7-1.4s2.7-.4 4.1-.4 2.5 0 3.8.3c1.3.2 2.5.5 3.5 1 1.1.5 1.9 1.2 2.6 2.1s1 2.1 1 3.6v13c0 1.1 0 2.2.2 3.2.1 1 .4 1.8.7 2.3h-7l-.3-1.2c0-.4-.1-.8-.2-1.2q-1.65 1.65-3.9 2.4c-1.5.5-3 .7-4.5.7s-2.3-.1-3.3-.4-1.9-.7-2.7-1.4c-.8-.6-1.4-1.4-1.8-2.3s-.7-2-.7-3.3.2-2.6.7-3.5 1.1-1.6 1.9-2.2c.8-.5 1.7-1 2.7-1.2 1-.3 2-.5 3.1-.7 1-.2 2-.3 3-.4 1 0 1.9-.2 2.7-.4s1.4-.5 1.8-.8c.5-.4.7-.9.6-1.6 0-.7-.1-1.3-.4-1.8-.2-.4-.6-.8-1-1s-.9-.4-1.4-.5c-.5 0-1.1-.1-1.7-.1-1.4 0-2.4.3-3.2.9s-1.2 1.5-1.4 2.9h-6.9Zm15.8 5.1c-.3.3-.7.5-1.1.6s-.9.3-1.4.4c-.5 0-1 .2-1.6.2-.5 0-1.1.1-1.6.2-.5 0-1 .2-1.5.4s-.9.4-1.3.7-.7.6-.9 1-.3 1-.3 1.6.1 1.1.3 1.5.5.7.9 1c.4.2.8.4 1.4.5.5 0 1 .1 1.6.1 1.4 0 2.4-.2 3.1-.7s1.3-1 1.6-1.6c.4-.6.6-1.3.7-1.9 0-.6.1-1.2.1-1.5v-2.6Zm18.7-12.8v3.5h.1c.9-1.4 2-2.5 3.4-3.2s2.8-1 4.2-1 3.3.2 4.5.7 2.1 1.2 2.8 2.1 1.2 2 1.4 3.2.4 2.7.4 4.2v15.4h-6.9v-14.1c0-2.1-.3-3.6-1-4.6-.6-1-1.8-1.5-3.4-1.5s-3.2.6-4.1 1.7c-.8 1.1-1.3 2.9-1.3 5.5V325h-6.9v-25h6.5Zm29.5 19c1 1 2.5 1.5 4.4 1.5s2.6-.3 3.6-1 1.6-1.4 1.8-2.2h6c-1 3-2.4 5.1-4.4 6.4s-4.4 1.9-7.2 1.9-3.7-.3-5.3-.9-2.9-1.5-4-2.7-1.9-2.5-2.5-4.2c-.6-1.6-.9-3.4-.9-5.3s.3-3.6.9-5.2 1.5-3 2.6-4.2 2.5-2.1 4-2.8c1.6-.7 3.3-1 5.2-1s4 .4 5.6 1.2q2.4 1.2 3.9 3.3c1 1.4 1.7 3 2.2 4.7.5 1.8.6 3.6.5 5.6h-18c0 2.2.7 3.8 1.7 4.8Zm7.7-13.1c-.8-.9-2.1-1.4-3.7-1.4s-2 .2-2.7.6-1.3.8-1.7 1.4c-.4.5-.7 1.1-.9 1.7s-.3 1.2-.3 1.6h11.2c-.3-1.7-.9-3.1-1.7-4Z" class="cls-5"/>
    </g>
    <g class="cls-5">
      <path d="M1753.7 151.3c1.6 0 3.1.1 4.5.4s2.5.8 3.5 1.4c1 .7 1.7 1.5 2.2 2.6s.8 2.4.8 4.1-.4 3.2-1.2 4.3c-.8 1.2-2 2.1-3.5 2.8 2.1.6 3.7 1.7 4.8 3.2 1 1.5 1.6 3.4 1.6 5.5s-.3 3.2-1 4.5-1.6 2.3-2.7 3.1q-1.65 1.2-3.9 1.8t-4.5.6h-16.7v-34.5h16.2Zm-1 14c1.4 0 2.5-.3 3.3-1s1.3-1.7 1.3-3.1-.1-1.5-.4-2q-.45-.75-1.2-1.2c-.5-.3-1-.5-1.7-.6-.6-.1-1.3-.2-2-.2h-7.1v8.1h7.7Zm.4 14.6c.7 0 1.4 0 2.1-.2s1.3-.4 1.8-.7.9-.8 1.2-1.4.5-1.3.5-2.2c0-1.8-.5-3-1.5-3.8s-2.3-1.1-4-1.1h-8.3v9.5h8.1Zm17.3-11.4c0-1.6.5-2.9 1.2-4s1.6-1.9 2.7-2.6c1.1-.6 2.3-1.1 3.7-1.4s2.7-.4 4.1-.4 2.5 0 3.8.3c1.3.2 2.5.5 3.5 1 1.1.5 1.9 1.2 2.6 2.1s1 2.1 1 3.6v13c0 1.1 0 2.2.2 3.2.1 1 .4 1.8.7 2.3h-7l-.3-1.2c0-.4-.1-.8-.2-1.2q-1.65 1.65-3.9 2.4c-1.5.5-3 .7-4.5.7s-2.3-.1-3.3-.4-1.9-.7-2.7-1.4c-.8-.6-1.4-1.4-1.8-2.3s-.7-2-.7-3.3.2-2.6.7-3.5 1.1-1.6 1.9-2.2c.8-.5 1.7-1 2.7-1.2 1-.3 2-.5 3.1-.7 1-.2 2-.3 3-.4 1 0 1.9-.2 2.7-.4s1.4-.5 1.8-.8c.5-.4.7-.9.6-1.6 0-.7-.1-1.3-.4-1.8-.2-.4-.6-.8-1-1s-.9-.4-1.4-.5c-.5 0-1.1-.1-1.7-.1-1.4 0-2.4.3-3.2.9s-1.2 1.5-1.4 2.9h-6.9Zm15.9 5.1c-.3.3-.7.5-1.1.6s-.9.3-1.4.4-1 .2-1.6.2-1.1.1-1.6.2c-.5 0-1 .2-1.5.4s-.9.4-1.3.7-.7.6-.9 1-.3 1-.3 1.6.1 1.1.3 1.5.5.7.9 1 .8.4 1.4.5 1 .1 1.6.1c1.4 0 2.4-.2 3.1-.7s1.3-1 1.6-1.6c.4-.6.6-1.3.7-1.9 0-.6.1-1.2.1-1.5v-2.6Zm24.1-8.3c-1.1 0-2 .2-2.8.7-.7.5-1.3 1.1-1.8 1.9s-.8 1.7-1 2.6-.3 1.9-.3 2.8 0 1.8.3 2.8c.2.9.5 1.8.9 2.5.4.8 1 1.4 1.8 1.9.7.5 1.6.7 2.7.7 1.6 0 2.9-.5 3.8-1.4s1.4-2.1 1.7-3.7h6.6c-.5 3.3-1.7 5.8-3.9 7.6s-4.8 2.6-8.2 2.6-3.6-.3-5.1-.9c-1.6-.6-2.9-1.5-4-2.6s-1.9-2.5-2.6-4q-.9-2.4-.9-5.1c0-2.7.3-3.7.8-5.4.6-1.7 1.4-3.1 2.5-4.3s2.4-2.1 4-2.8 3.4-1 5.4-1 2.9.2 4.3.6 2.6 1 3.7 1.8 2 1.8 2.6 2.9 1.1 2.6 1.2 4.2h-6.7c-.5-2.9-2.1-4.3-5.1-4.3Zm23.2-14v18.5l8.6-9h8.1l-9.4 9.2 10.5 15.8h-8.3l-6.9-11.2-2.7 2.6v8.6h-6.9v-34.5h6.9Zm26 28.3c.3.5.7 1 1.2 1.3s1 .6 1.7.7c.6.2 1.3.2 2 .2s1 0 1.5-.2c.5-.1 1-.3 1.4-.5s.8-.6 1.1-1 .4-.9.4-1.5c0-1-.7-1.8-2.1-2.3q-2.1-.75-5.7-1.5c-1-.2-2-.5-2.9-.8s-1.8-.7-2.5-1.2-1.3-1.1-1.8-1.9-.7-1.7-.7-2.8c0-1.6.3-2.9.9-4 .6-1 1.5-1.8 2.5-2.4s2.2-1 3.5-1.3c1.3-.2 2.6-.4 4-.4s2.7.1 3.9.4 2.4.7 3.4 1.3 1.8 1.4 2.5 2.4 1.1 2.3 1.2 3.8h-6.5c0-1.3-.6-2.2-1.5-2.7s-2-.7-3.2-.7h-1.3c-.5 0-.9.2-1.2.3-.4.2-.7.4-.9.7-.3.3-.4.7-.4 1.2s.2 1.1.7 1.5 1 .7 1.8.9c.7.2 1.6.5 2.5.7s1.9.4 2.8.6c1 .2 2 .5 2.9.8s1.8.7 2.5 1.3c.7.5 1.3 1.2 1.8 2s.7 1.8.7 2.9c0 1.6-.3 3-1 4.1s-1.5 2-2.6 2.7-2.3 1.2-3.6 1.4c-1.4.3-2.8.4-4.2.4s-2.9-.1-4.2-.4c-1.4-.3-2.6-.8-3.7-1.4q-1.65-1.05-2.7-2.7c-.7-1.1-1.1-2.5-1.1-4.2h6.5c0 .7.2 1.4.5 1.9Zm33.9-18.8v4.6h-5v12.4c0 1.2.2 1.9.6 2.3s1.2.6 2.3.6h1.1c.4 0 .7 0 1-.1v5.3c-.6 0-1.2.2-1.9.2h-2.1c-1.1 0-2.1 0-3-.2-.9-.1-1.8-.4-2.5-.8s-1.3-1-1.7-1.8-.6-1.8-.6-3v-14.7h-4.2V161h4.2v-7.5h6.9v7.5h5Zm9.8 0v4.6c.3-.8.8-1.5 1.3-2.1.5-.7 1.2-1.2 1.9-1.7s1.5-.8 2.3-1.1 1.6-.4 2.5-.4.9 0 1.5.2v6.4c-.3 0-.7-.1-1.2-.2h-1.3c-1.3 0-2.3.2-3.2.6s-1.6 1-2.1 1.7-.9 1.6-1.1 2.5c-.2 1-.3 2-.3 3.1v11.2h-6.9v-25h6.5Zm18.7 19c1 1 2.5 1.5 4.4 1.5s2.6-.3 3.6-1 1.6-1.4 1.8-2.2h6c-1 3-2.4 5.1-4.4 6.4s-4.4 1.9-7.2 1.9-3.7-.3-5.3-.9-2.9-1.5-4-2.7-1.9-2.5-2.5-4.2c-.6-1.6-.9-3.4-.9-5.3s.3-3.6.9-5.2 1.5-3 2.6-4.2 2.5-2.1 4-2.8c1.6-.7 3.3-1 5.2-1s4 .4 5.6 1.2q2.4 1.2 3.9 3.3c1 1.4 1.7 3 2.2 4.7.5 1.8.6 3.6.5 5.6h-18c0 2.2.7 3.8 1.7 4.8Zm7.8-13.1c-.8-.9-2.1-1.4-3.7-1.4s-2 .2-2.7.6-1.3.8-1.7 1.4c-.4.5-.7 1.1-.9 1.7s-.3 1.2-.3 1.6h11.2c-.3-1.7-.9-3.1-1.7-4Zm26.3-5.9v4.6h-5v12.4c0 1.2.2 1.9.6 2.3s1.2.6 2.3.6h1.1c.4 0 .7 0 1-.1v5.3c-.6 0-1.2.2-1.9.2h-2.1c-1.1 0-2.1 0-3-.2-.9-.1-1.8-.4-2.5-.8s-1.3-1-1.7-1.8-.6-1.8-.6-3v-14.7h-4.2V161h4.2v-7.5h6.9v7.5h5Zm15.2 4.5c-1.1 0-2 .2-2.8.7-.7.5-1.3 1.1-1.8 1.9s-.8 1.7-1 2.6-.3 1.9-.3 2.8 0 1.8.3 2.8c.2.9.5 1.8.9 2.5.4.8 1 1.4 1.8 1.9.7.5 1.6.7 2.7.7 1.6 0 2.9-.5 3.8-1.4s1.4-2.1 1.7-3.7h6.6c-.5 3.3-1.7 5.8-3.9 7.6s-4.8 2.6-8.2 2.6-3.6-.3-5.1-.9c-1.6-.6-2.9-1.5-4-2.6s-1.9-2.5-2.6-4q-.9-2.4-.9-5.1c0-2.7.3-3.7.8-5.4.6-1.7 1.4-3.1 2.5-4.3s2.4-2.1 4-2.8 3.4-1 5.4-1 2.9.2 4.3.6 2.6 1 3.7 1.8 2 1.8 2.6 2.9 1.1 2.6 1.2 4.2h-6.7c-.5-2.9-2.1-4.3-5.1-4.3Zm22.7-14v13h.1c.9-1.4 2-2.5 3.3-3.2 1.4-.7 2.7-1 4-1 1.8 0 3.3.2 4.5.7s2.1 1.2 2.8 2.1 1.2 2 1.4 3.2.4 2.7.4 4.2v15.4h-6.9v-14.1c0-2.1-.3-3.6-1-4.6-.6-1-1.8-1.5-3.4-1.5s-3.2.6-4.1 1.7c-.8 1.1-1.3 2.9-1.3 5.5v13.1h-6.9v-34.5h6.9Z" class="cls-5"/>
    </g>
    <g class="cls-5">
      <path d="M1190.1 1517.1v6.4h-16.7v8h14.4v5.9h-14.4v14.2h-7.6v-34.5h24.2Zm10.2 9.5v4.6c.3-.8.8-1.5 1.3-2.1.5-.7 1.2-1.2 1.9-1.7s1.5-.8 2.3-1.1 1.6-.4 2.5-.4.9 0 1.5.2v6.4c-.3 0-.7-.1-1.2-.2h-1.3c-1.3 0-2.3.2-3.2.6s-1.6 1-2.1 1.7-.9 1.6-1.1 2.5c-.2 1-.3 2-.3 3.1v11.2h-6.9v-25h6.5Zm11.5 7c.6-1.6 1.5-3 2.6-4.2 1.1-1.1 2.5-2 4.1-2.7 1.6-.6 3.3-.9 5.3-.9s3.7.3 5.3.9 3 1.5 4.1 2.7c1.1 1.1 2 2.5 2.6 4.2q.9 2.4.9 5.4c0 3-.3 3.8-.9 5.4s-1.5 3-2.6 4.1-2.5 2-4.1 2.6-3.4.9-5.3.9-3.7-.3-5.3-.9-2.9-1.5-4.1-2.6c-1.1-1.1-2-2.5-2.6-4.1q-.9-2.4-.9-5.4c0-3 .3-3.8.9-5.4m6.3 8.4c.2.9.5 1.8 1 2.6s1.1 1.4 1.9 1.8c.8.5 1.7.7 2.9.7s2.1-.2 2.9-.7 1.4-1.1 1.9-1.8c.5-.8.8-1.6 1-2.6.2-.9.3-1.9.3-2.9s0-2-.3-2.9c-.2-1-.5-1.8-1-2.6-.5-.7-1.1-1.3-1.9-1.8s-1.8-.7-2.9-.7-2.1.2-2.9.7-1.4 1.1-1.9 1.8-.8 1.6-1 2.6-.3 1.9-.3 2.9 0 2 .3 2.9m29.6-15.4v3.5h.1c.9-1.4 2-2.5 3.4-3.2s2.8-1 4.2-1 3.3.2 4.5.7 2.1 1.2 2.8 2.1 1.2 2 1.4 3.2.4 2.7.4 4.2v15.4h-6.9v-14.1c0-2.1-.3-3.6-1-4.6-.6-1-1.8-1.5-3.4-1.5s-3.2.6-4.1 1.7c-.8 1.1-1.3 2.9-1.3 5.5v13.1h-6.9v-25h6.5Zm35.8 0v4.6h-5v12.4c0 1.2.2 1.9.6 2.3s1.2.6 2.3.6h1.1c.4 0 .7 0 1-.1v5.3c-.6 0-1.2.2-1.9.2h-2.1c-1.1 0-2.1 0-3-.2-.9-.1-1.8-.4-2.5-.8s-1.3-1-1.7-1.8q-.6-1.2-.6-3v-14.7h-4.2v-4.6h4.2v-7.5h6.9v7.5h5Zm9.1 18.7c.3.5.7 1 1.2 1.3s1 .6 1.7.7c.6.2 1.3.2 2 .2s1 0 1.5-.2c.5-.1 1-.3 1.4-.5s.8-.6 1.1-1 .4-.9.4-1.5c0-1-.7-1.8-2.1-2.3q-2.1-.75-5.7-1.5c-1-.2-2-.5-2.9-.8s-1.8-.7-2.5-1.2-1.3-1.1-1.8-1.9-.7-1.7-.7-2.8c0-1.6.3-2.9.9-4s1.5-1.8 2.5-2.4 2.2-1 3.5-1.3c1.3-.2 2.6-.4 4-.4s2.7.1 3.9.4c1.3.3 2.4.7 3.4 1.3s1.8 1.4 2.5 2.4 1.1 2.3 1.2 3.8h-6.5c0-1.3-.6-2.2-1.5-2.7s-2-.7-3.2-.7h-1.3c-.5 0-.9.2-1.2.3-.4.2-.7.4-.9.7-.3.3-.4.7-.4 1.2s.2 1.1.7 1.5 1 .7 1.8.9c.7.2 1.6.5 2.5.7s1.9.4 2.8.6c1 .2 2 .5 2.9.8s1.8.7 2.5 1.3c.7.5 1.3 1.2 1.8 2s.7 1.8.7 2.9c0 1.6-.3 3-1 4.1s-1.5 2-2.6 2.7-2.3 1.2-3.6 1.4c-1.4.3-2.8.4-4.2.4s-2.9-.1-4.2-.4c-1.4-.3-2.6-.8-3.7-1.4q-1.65-1.05-2.7-2.7c-.7-1.1-1.1-2.5-1.1-4.2h6.5c0 .7.2 1.4.5 1.9Zm33.8-18.7v4.6h-5v12.4c0 1.2.2 1.9.6 2.3s1.2.6 2.3.6h1.1c.4 0 .7 0 1-.1v5.3c-.6 0-1.2.2-1.9.2h-2.1c-1.1 0-2.1 0-3-.2-.9-.1-1.8-.4-2.5-.8s-1.3-1-1.7-1.8q-.6-1.2-.6-3v-14.7h-4.2v-4.6h4.2v-7.5h6.9v7.5h5Zm9.8 0v4.6c.3-.8.8-1.5 1.3-2.1.5-.7 1.2-1.2 1.9-1.7s1.5-.8 2.3-1.1 1.6-.4 2.5-.4.9 0 1.5.2v6.4c-.3 0-.7-.1-1.2-.2h-1.3c-1.3 0-2.3.2-3.2.6s-1.6 1-2.1 1.7-.9 1.6-1.1 2.5c-.2 1-.3 2-.3 3.1v11.2h-6.9v-25h6.5Zm18.8 18.9c1 1 2.5 1.5 4.4 1.5s2.6-.3 3.6-1 1.6-1.4 1.8-2.2h6c-1 3-2.4 5.1-4.4 6.4s-4.4 1.9-7.2 1.9-3.7-.3-5.3-.9-2.9-1.5-4-2.7-1.9-2.5-2.5-4.2c-.6-1.6-.9-3.4-.9-5.3s.3-3.6.9-5.2 1.5-3 2.6-4.2 2.5-2.1 4-2.8c1.6-.7 3.3-1 5.2-1s4 .4 5.6 1.2q2.4 1.2 3.9 3.3c1 1.4 1.7 3 2.2 4.7.5 1.8.6 3.6.5 5.6h-18c0 2.2.7 3.8 1.7 4.8Zm7.7-13.1c-.8-.9-2.1-1.4-3.7-1.4s-2 .2-2.7.6-1.3.8-1.7 1.4c-.4.5-.7 1.1-.9 1.7s-.3 1.2-.3 1.6h11.2c-.3-1.7-.9-3.1-1.7-4Zm26.4-5.8v4.6h-5v12.4c0 1.2.2 1.9.6 2.3s1.2.6 2.3.6h1.1c.4 0 .7 0 1-.1v5.3c-.6 0-1.2.2-1.9.2h-2.1c-1.1 0-2.1 0-3-.2-.9-.1-1.8-.4-2.5-.8s-1.3-1-1.7-1.8q-.6-1.2-.6-3v-14.7h-4.2v-4.6h4.2v-7.5h6.9v7.5h5Zm15.2 4.5c-1.1 0-2 .2-2.8.7-.7.5-1.3 1.1-1.8 1.9s-.8 1.7-1 2.6-.3 1.9-.3 2.8 0 1.8.3 2.8c.2.9.5 1.8.9 2.5.4.8 1 1.4 1.8 1.9.7.5 1.6.7 2.7.7 1.6 0 2.9-.5 3.8-1.4s1.4-2.1 1.7-3.7h6.6c-.5 3.3-1.7 5.8-3.9 7.6-2.1 1.7-4.8 2.6-8.2 2.6s-3.6-.3-5.1-.9c-1.6-.6-2.9-1.5-4-2.6s-1.9-2.5-2.6-4q-.9-2.4-.9-5.1c0-2.7.3-3.7.8-5.4.6-1.7 1.4-3.1 2.5-4.3s2.4-2.1 4-2.8 3.4-1 5.4-1 2.9.2 4.3.6 2.6 1 3.7 1.8 2 1.8 2.6 2.9 1.1 2.6 1.2 4.2h-6.7c-.5-2.9-2.1-4.3-5.1-4.3Zm22.6-14v13h.1c.9-1.4 2-2.5 3.3-3.2 1.4-.7 2.7-1 4-1 1.8 0 3.3.2 4.5.7s2.1 1.2 2.8 2.1 1.2 2 1.4 3.2.4 2.7.4 4.2v15.4h-6.9v-14.1c0-2.1-.3-3.6-1-4.6-.6-1-1.8-1.5-3.4-1.5s-3.2.6-4.1 1.7c-.8 1.1-1.3 2.9-1.3 5.5v13.1h-6.9v-34.5h6.9Z" class="cls-5"/>
    </g>
    <path d="M998 834c1.5 0 2.9.2 4.2.8s2.3 1.2 3.2 2 1.6 1.9 2 3c.5 1.1.7 2.4.7 3.7 0 2-.4 3.8-1.3 5.3-.8 1.5-2.2 2.6-4.2 3.4.9.4 1.7.8 2.3 1.3s1.1 1.2 1.5 1.9.7 1.5.8 2.4c.2.9.3 1.7.4 2.6v1.9c0 .7 0 1.5.2 2.3 0 .8.2 1.5.4 2.2s.4 1.3.8 1.8h-7.6c-.4-1.1-.7-2.4-.8-3.9 0-1.5-.2-3-.4-4.3-.3-1.8-.8-3.1-1.6-4s-2.2-1.3-4.1-1.3h-7.6v13.5h-7.6v-34.5h18.6Zm-2.8 15.6q2.55 0 3.9-1.2c1.35-1.2 1.3-2 1.3-3.8s-.4-2.9-1.3-3.7-2.2-1.1-3.9-1.1h-8.3v9.7h8.3Zm18.4 1c.6-1.6 1.5-3 2.6-4.2s2.5-2 4.1-2.7c1.6-.6 3.3-.9 5.3-.9s3.7.3 5.3.9 2.9 1.5 4.1 2.7c1.1 1.1 2 2.5 2.6 4.2s.9 3.4.9 5.4-.3 3.8-.9 5.4-1.5 3-2.6 4.1-2.5 2-4.1 2.6-3.4.9-5.3.9-3.7-.3-5.3-.9-2.9-1.5-4.1-2.6-2-2.5-2.6-4.1-.9-3.4-.9-5.4.3-3.8.9-5.4m6.3 8.4c.2 1 .5 1.8 1 2.6s1.1 1.4 1.9 1.8c.8.5 1.7.7 2.9.7s2.1-.2 2.9-.7 1.4-1 1.9-1.8.8-1.6 1-2.6.3-1.9.3-2.9 0-2-.3-3c-.2-1-.5-1.8-1-2.6s-1.1-1.3-1.9-1.8-1.8-.7-2.9-.7-2.1.2-2.9.7-1.4 1.1-1.9 1.8-.8 1.6-1 2.6-.3 2-.3 3 0 2 .3 2.9m40.8 6.3c-.8 1.3-1.9 2.3-3.2 2.9s-2.8.9-4.4.9-3.5-.4-4.9-1.1-2.6-1.7-3.5-3-1.6-2.7-2.1-4.3-.7-3.3-.7-5 .2-3.3.7-4.8 1.2-2.9 2.1-4.1 2.1-2.2 3.4-2.9 3-1.1 4.8-1.1 2.9.3 4.2.9 2.4 1.5 3.2 2.8V834h6.9v34.5h-6.5zm-.3-12.3c-.2-1-.5-1.8-1-2.5q-.75-1.05-1.8-1.8c-.7-.5-1.7-.7-2.8-.7s-2.1.2-2.8.7-1.4 1-1.9 1.8-.8 1.6-1 2.5c-.2 1-.3 1.9-.3 3s.1 1.9.3 2.9.6 1.8 1.1 2.6 1.1 1.4 1.9 1.8c.8.5 1.7.7 2.7.7s2.1-.2 2.8-.7c.8-.5 1.4-1 1.8-1.8s.8-1.6 1-2.6.3-2 .3-3 0-2-.3-3Zm18.6-9.5v4.6c.3-.8.8-1.5 1.3-2.2.6-.7 1.2-1.2 1.9-1.7s1.5-.8 2.3-1.1 1.6-.4 2.5-.4.9 0 1.5.2v6.4c-.3 0-.7-.1-1.2-.2h-1.3c-1.2 0-2.3.2-3.2.6s-1.6 1-2.1 1.7-.9 1.6-1.1 2.5c-.2 1-.3 2-.3 3.1v11.2h-6.9v-25h6.5Zm24.9-12.9-7.9 8.5h-4.8l5.1-8.5h7.5Zm-12.4 12.9v25h6.9v-25zm35.8 26.8q-.45 1.95-1.8 3.6c-1.35 1.65-2.2 2-3.9 2.8s-4 1.2-6.9 1.2-2.5-.2-3.7-.5-2.4-.8-3.5-1.4-1.9-1.5-2.6-2.5-1.1-2.2-1.2-3.7h6.8c.3 1.3.9 2.2 1.9 2.7s2 .8 3.2.8c1.9 0 3.3-.6 4.2-1.7s1.3-2.6 1.3-4.4v-3.3c-.7 1.3-1.8 2.3-3.2 2.9s-2.8.9-4.3.9-3.5-.3-4.8-1-2.5-1.6-3.3-2.7-1.5-2.5-1.9-4-.6-3.2-.6-4.8.2-3.2.7-4.7 1.2-2.8 2.1-4 2-2 3.4-2.7c1.3-.7 2.9-1 4.6-1s3.1.3 4.3.9 2.3 1.6 3.1 3.1v-3.3h6.5v23.4c0 1-.1 2.1-.4 3.4m-9.4-8.3q1.05-.6 1.8-1.5c.5-.6.8-1.4 1.1-2.2.2-.8.4-1.7.4-2.6s0-2-.3-2.9c-.2-.9-.5-1.7-1-2.4s-1.1-1.3-1.8-1.7-1.7-.6-2.8-.6-1.8.2-2.5.6-1.3.9-1.7 1.6c-.5.7-.8 1.4-1 2.3-.2.8-.3 1.8-.3 2.7s0 1.8.3 2.7.5 1.7.9 2.4 1 1.3 1.7 1.7c.7.5 1.6.7 2.7.7s1.8-.2 2.6-.6Zm32.2 6.5V865h-.1c-.9 1.5-2 2.5-3.4 3.1s-2.8 1-4.2 1-3.3-.2-4.5-.7-2.1-1.2-2.8-2-1.2-2-1.4-3.2c-.3-1.3-.4-2.7-.4-4.2v-15.3h6.9v14.1c0 2.1.3 3.6 1 4.6.6 1 1.8 1.5 3.4 1.5s3.2-.6 4.1-1.7c.8-1.1 1.2-2.9 1.2-5.5v-13.1h6.9v25h-6.5Zm19.1-6c1 1 2.5 1.5 4.4 1.5s2.6-.3 3.6-1 1.6-1.4 1.8-2.2h6c-1 3-2.4 5.1-4.4 6.4s-4.4 1.9-7.2 1.9-3.7-.3-5.3-.9-2.9-1.5-4-2.7-1.9-2.5-2.5-4.2-.9-3.4-.9-5.3.3-3.6.9-5.2 1.5-3 2.6-4.2 2.5-2.1 4-2.8c1.6-.7 3.3-1 5.2-1s4 .4 5.6 1.2q2.4 1.2 3.9 3.3c1 1.4 1.8 3 2.2 4.7.4 1.8.6 3.6.5 5.5h-18c0 2.2.7 3.8 1.7 4.8Zm7.7-13.1c-.8-.9-2.1-1.3-3.7-1.3s-2 .2-2.7.5c-.7.4-1.3.8-1.7 1.4-.4.5-.7 1.1-.9 1.7s-.3 1.2-.3 1.6h11.2c-.3-1.7-.9-3.1-1.7-4Zm24.1-.7h-12v-5.2h21.1v5.2l-13 14.6h13.9v5.2h-22.9v-5.2l13-14.6ZM959.3 886v34.5h-7.6V886zm12.4 9.5v3.5h.1c.9-1.5 2-2.5 3.4-3.2s2.8-1 4.2-1 3.3.2 4.5.8 2.1 1.2 2.8 2.1 1.2 2 1.4 3.2c.3 1.3.4 2.7.4 4.2v15.3h-6.9v-14.1c0-2.1-.3-3.6-1-4.6-.6-1-1.8-1.5-3.4-1.5s-3.2.6-4.1 1.7-1.2 2.9-1.2 5.5v13.1H965v-25h6.5Zm35.9 0v4.6h-5v12.4c0 1.2.2 1.9.6 2.3s1.2.6 2.3.6h1.1c.3 0 .7 0 1-.1v5.3c-.6 0-1.2.2-1.9.2h-2.1c-1.1 0-2.1 0-3-.2-1-.1-1.8-.4-2.5-.8s-1.3-1-1.7-1.8q-.6-1.2-.6-3v-14.7h-4.2v-4.6h4.2v-7.5h6.9v7.5h5Zm10.6 19c1 1 2.5 1.5 4.4 1.5s2.6-.3 3.6-1 1.6-1.4 1.8-2.2h6c-1 3-2.4 5.1-4.4 6.4s-4.4 1.9-7.2 1.9-3.7-.3-5.3-.9-2.9-1.5-4-2.7-1.9-2.5-2.5-4.2-.9-3.4-.9-5.3.3-3.6.9-5.2 1.5-3 2.6-4.2 2.5-2.1 4-2.8c1.6-.7 3.3-1 5.2-1s4 .4 5.6 1.2q2.4 1.2 3.9 3.3c1 1.4 1.8 3 2.2 4.7.4 1.8.6 3.6.5 5.5h-18c0 2.2.7 3.8 1.7 4.8Zm7.7-13.2c-.8-.9-2.1-1.3-3.7-1.3s-2 .2-2.7.5c-.7.4-1.3.8-1.7 1.4-.4.5-.7 1.1-.9 1.7s-.3 1.2-.3 1.6h11.2c-.3-1.7-.9-3.1-1.7-4Zm19.2-5.8v4.6c.3-.8.8-1.5 1.3-2.2.6-.7 1.2-1.2 1.9-1.7s1.5-.8 2.3-1.1 1.6-.4 2.5-.4.9 0 1.5.2v6.4c-.3 0-.7-.1-1.2-.2h-1.3c-1.2 0-2.3.2-3.2.6s-1.6 1-2.1 1.7-.9 1.6-1.1 2.5c-.2 1-.3 2-.3 3.1v11.2h-6.9v-25h6.5Zm19.6 0v3.5h.1c.9-1.5 2-2.5 3.4-3.2s2.8-1 4.2-1 3.3.2 4.5.8 2.1 1.2 2.8 2.1 1.2 2 1.4 3.2c.3 1.3.4 2.7.4 4.2v15.3h-6.9v-14.1c0-2.1-.3-3.6-1-4.6-.6-1-1.8-1.5-3.4-1.5s-3.2.6-4.1 1.7-1.2 2.9-1.2 5.5v13.1h-6.9v-25h6.5Zm21.8 7.7c0-1.6.5-3 1.2-4s1.6-1.9 2.7-2.6c1.1-.6 2.3-1.1 3.7-1.4s2.7-.4 4.1-.4 2.5 0 3.8.3 2.5.5 3.5 1c1.1.5 1.9 1.2 2.6 2.2.7.9 1 2.1 1 3.6v13c0 1.1 0 2.2.2 3.2.1 1 .3 1.8.7 2.3h-6.9l-.3-1.2c0-.4-.1-.8-.2-1.2q-1.65 1.65-3.9 2.4c-2.25.75-3 .7-4.5.7s-2.3-.1-3.3-.4-1.9-.7-2.7-1.3-1.4-1.4-1.8-2.3-.7-2-.7-3.3.2-2.6.8-3.5 1.1-1.7 1.9-2.2 1.7-1 2.7-1.2c1-.3 2-.5 3.1-.7 1-.2 2-.3 3-.4 1 0 1.9-.2 2.7-.4s1.4-.5 1.8-.8c.4-.4.7-.9.6-1.6 0-.7-.1-1.3-.4-1.8s-.6-.8-1-1-.9-.4-1.4-.5c-.5 0-1.1-.1-1.7-.1-1.3 0-2.4.3-3.2.9s-1.2 1.5-1.3 2.9h-6.9Zm15.9 5c-.3.3-.7.5-1.1.6s-.9.3-1.4.4c-.5 0-1 .2-1.6.2s-1.1.1-1.6.2c-.5 0-1 .2-1.5.4s-.9.4-1.3.7-.7.6-.9 1-.3 1-.3 1.6.1 1.1.3 1.5.5.8.9 1 .8.4 1.3.5c.5 0 1.1.1 1.6.1 1.3 0 2.4-.2 3.1-.7s1.3-1 1.6-1.6.6-1.3.7-1.9c0-.6.1-1.2.1-1.5v-2.6Zm25.9-12.7v4.6h-5v12.4c0 1.2.2 1.9.6 2.3s1.2.6 2.3.6h1.1c.3 0 .7 0 1-.1v5.3c-.6 0-1.2.2-1.9.2h-2.1c-1.1 0-2.1 0-3-.2-.9-.1-1.8-.4-2.5-.8s-1.3-1-1.7-1.8q-.6-1.2-.6-3v-14.7h-4.2v-4.6h4.2v-7.5h6.9v7.5h5Zm3.4-3.9v-5.7h6.9v5.7zm6.9 3.9v25h-6.9v-25zm5.5 7.1c.6-1.6 1.5-3 2.6-4.2s2.5-2 4.1-2.7c1.6-.6 3.3-.9 5.3-.9s3.7.3 5.3.9 2.9 1.5 4.1 2.7c1.1 1.1 2 2.5 2.6 4.2s.9 3.4.9 5.4-.3 3.8-.9 5.4-1.5 3-2.6 4.1-2.5 2-4.1 2.6-3.4.9-5.3.9-3.7-.3-5.3-.9-2.9-1.5-4.1-2.6-2-2.5-2.6-4.1-.9-3.4-.9-5.4.3-3.8.9-5.4m6.3 8.3c.2 1 .5 1.8 1 2.6s1.1 1.4 1.9 1.8 1.7.7 2.9.7 2.1-.2 2.9-.7 1.4-1 1.9-1.8.8-1.6 1-2.6.3-1.9.3-2.9 0-2-.3-3c-.2-1-.5-1.8-1-2.6s-1.1-1.3-1.9-1.8-1.8-.7-2.9-.7-2.1.2-2.9.7-1.4 1.1-1.9 1.8-.8 1.6-1 2.6-.3 2-.3 3 0 2 .3 2.9m29.6-15.4v3.5h.1c.9-1.5 2-2.5 3.4-3.2s2.8-1 4.2-1 3.3.2 4.5.8 2.1 1.2 2.8 2.1 1.2 2 1.4 3.2c.3 1.3.4 2.7.4 4.2v15.3h-6.9v-14.1c0-2.1-.3-3.6-1-4.6-.6-1-1.8-1.5-3.4-1.5s-3.2.6-4.1 1.7-1.2 2.9-1.2 5.5v13.1h-6.9v-25h6.5Zm21.8 7.7c0-1.6.5-3 1.2-4s1.6-1.9 2.7-2.6c1.1-.6 2.3-1.1 3.7-1.4s2.7-.4 4.1-.4 2.5 0 3.8.3 2.5.5 3.5 1c1.1.5 1.9 1.2 2.6 2.2.7.9 1 2.1 1 3.6v13c0 1.1 0 2.2.2 3.2.1 1 .3 1.8.7 2.3h-6.9l-.3-1.2c0-.4-.1-.8-.2-1.2q-1.65 1.65-3.9 2.4c-2.25.75-3 .7-4.5.7s-2.3-.1-3.3-.4-1.9-.7-2.7-1.3-1.4-1.4-1.8-2.3-.7-2-.7-3.3.2-2.6.8-3.5 1.1-1.7 1.9-2.2 1.7-1 2.7-1.2c1-.3 2-.5 3.1-.7 1-.2 2-.3 3-.4 1 0 1.9-.2 2.7-.4s1.4-.5 1.8-.8c.4-.4.7-.9.6-1.6 0-.7-.1-1.3-.4-1.8s-.6-.8-1-1-.9-.4-1.4-.5c-.5 0-1.1-.1-1.7-.1-1.3 0-2.4.3-3.2.9s-1.2 1.5-1.3 2.9h-6.9Zm15.9 5c-.3.3-.7.5-1.1.6s-.9.3-1.4.4c-.5 0-1 .2-1.6.2s-1.1.1-1.6.2c-.5 0-1 .2-1.5.4s-.9.4-1.3.7-.7.6-.9 1-.3 1-.3 1.6.1 1.1.3 1.5.5.8.9 1 .8.4 1.3.5c.5 0 1.1.1 1.6.1 1.3 0 2.4-.2 3.1-.7s1.3-1 1.6-1.6.6-1.3.7-1.9c0-.6.1-1.2.1-1.5v-2.6Zm19.2-22.2v34.5h-6.9V886zm-256.7 51.9v13.2h14v-13.2h7.6v34.5h-7.6v-14.9h-14v14.9h-7.6v-34.5zm27.6 16.6c.6-1.6 1.5-3 2.6-4.2s2.5-2 4.1-2.7c1.6-.6 3.3-.9 5.3-.9s3.7.3 5.3.9 2.9 1.5 4.1 2.7 2 2.5 2.6 4.2q.9 2.4.9 5.4c0 3-.3 3.8-.9 5.4s-1.5 3-2.6 4.1-2.5 2-4.1 2.6-3.4.9-5.3.9-3.7-.3-5.3-.9-2.9-1.5-4.1-2.6-2-2.5-2.6-4.1-.9-3.4-.9-5.4.3-3.8.9-5.4m6.3 8.3c.2 1 .5 1.8 1 2.6s1.1 1.4 1.9 1.8c.8.5 1.7.7 2.9.7s2.1-.2 2.9-.7 1.4-1 1.9-1.8.8-1.6 1-2.6.3-1.9.3-2.9 0-2-.3-3c-.2-1-.5-1.8-1-2.6s-1.1-1.3-1.9-1.8-1.8-.7-2.9-.7-2.1.2-2.9.7-1.4 1.1-1.9 1.8-.8 1.6-1 2.6-.3 2-.3 3 0 2 .3 2.9m29.6-15.4v4.6c.3-.8.8-1.5 1.3-2.2.6-.7 1.2-1.2 1.9-1.7s1.5-.8 2.3-1.1 1.6-.4 2.5-.4.9 0 1.5.2v6.4c-.3 0-.7-.1-1.2-.2h-1.3c-1.2 0-2.3.2-3.2.6s-1.6 1-2.1 1.7-.9 1.6-1.1 2.5c-.2 1-.3 2-.3 3.1v11.2h-6.9v-25h6.5Zm18 18.8c.3.5.7 1 1.2 1.3s1 .6 1.7.8 1.3.2 2 .2 1 0 1.5-.2 1-.3 1.4-.5.8-.6 1.1-1 .4-.9.4-1.5c0-1-.7-1.8-2.1-2.3s-3.3-1-5.7-1.5c-1-.2-2-.5-2.9-.8s-1.8-.7-2.5-1.2-1.3-1.1-1.8-1.9c-.4-.8-.7-1.7-.7-2.8 0-1.6.3-2.9.9-4 .6-1 1.5-1.8 2.5-2.4s2.2-1 3.5-1.3c1.3-.2 2.6-.4 4-.4s2.7.1 3.9.4 2.4.7 3.4 1.3 1.8 1.4 2.5 2.4 1.1 2.3 1.2 3.8h-6.5c0-1.3-.6-2.2-1.5-2.7s-2-.7-3.2-.7h-1.3c-.4 0-.9.2-1.2.3s-.7.4-.9.7c-.3.3-.4.7-.4 1.2s.2 1.1.7 1.5q.6.6 1.8.9c1.2.3 1.6.5 2.5.7s1.9.4 2.8.6c1 .2 2 .5 2.9.8s1.8.8 2.5 1.3 1.3 1.2 1.8 2c.4.8.7 1.8.7 2.9s-.3 3-1 4.1-1.5 2-2.6 2.7-2.3 1.2-3.6 1.4c-1.4.3-2.8.4-4.2.4s-2.9-.1-4.2-.4-2.6-.8-3.7-1.5q-1.65-1.05-2.7-2.7c-.7-1.1-1.1-2.5-1.1-4.2h6.5c0 .7.2 1.4.5 1.9Zm27.5.2c1 1 2.5 1.5 4.4 1.5s2.6-.3 3.6-1 1.6-1.4 1.8-2.2h6c-1 3-2.4 5.1-4.4 6.4s-4.4 1.9-7.2 1.9-3.7-.3-5.3-.9-2.9-1.5-4-2.7-1.9-2.5-2.5-4.2c-.6-1.6-.9-3.4-.9-5.3s.3-3.6.9-5.2 1.5-3 2.6-4.2 2.5-2.1 4-2.8c1.6-.7 3.3-1 5.2-1s4 .4 5.6 1.2q2.4 1.2 3.9 3.3c1.5 2.1 1.8 3 2.2 4.7.4 1.8.6 3.6.5 5.5h-18c0 2.2.7 3.8 1.7 4.8Zm7.8-13.1c-.8-.9-2.1-1.3-3.7-1.3s-2 .2-2.7.6-1.3.8-1.7 1.4c-.4.5-.7 1.1-.9 1.7s-.3 1.2-.3 1.6h11.2c-.3-1.7-.9-3.1-1.7-4Zm18.4 12.9c.3.5.7 1 1.2 1.3s1 .6 1.7.8 1.3.2 2 .2 1 0 1.5-.2 1-.3 1.4-.5.8-.6 1.1-1 .4-.9.4-1.5c0-1-.7-1.8-2.1-2.3s-3.3-1-5.7-1.5c-1-.2-2-.5-2.9-.8s-1.8-.7-2.5-1.2-1.3-1.1-1.8-1.9c-.4-.8-.7-1.7-.7-2.8 0-1.6.3-2.9.9-4 .6-1 1.5-1.8 2.5-2.4s2.2-1 3.5-1.3c1.3-.2 2.6-.4 4-.4s2.7.1 3.9.4 2.4.7 3.4 1.3 1.8 1.4 2.5 2.4 1.1 2.3 1.2 3.8h-6.5c0-1.3-.6-2.2-1.5-2.7s-2-.7-3.2-.7h-1.3c-.4 0-.9.2-1.2.3s-.7.4-.9.7c-.3.3-.4.7-.4 1.2s.2 1.1.7 1.5q.6.6 1.8.9c1.2.3 1.6.5 2.5.7s1.9.4 2.8.6c1 .2 2 .5 2.9.8s1.8.8 2.5 1.3 1.3 1.2 1.8 2c.4.8.7 1.8.7 2.9s-.3 3-1 4.1-1.5 2-2.6 2.7-2.3 1.2-3.6 1.4c-1.4.3-2.8.4-4.2.4s-2.9-.1-4.2-.4-2.6-.8-3.7-1.5q-1.65-1.05-2.7-2.7c-.7-1.1-1.1-2.5-1.1-4.2h6.5c0 .7.2 1.4.5 1.9Zm27-28.3v13h.1c.9-1.5 2-2.5 3.3-3.2s2.7-1 4-1c1.8 0 3.3.2 4.5.8s2.1 1.2 2.8 2.1 1.2 2 1.4 3.2.4 2.7.4 4.2v15.3h-6.9v-14.1c0-2.1-.3-3.6-1-4.6s-1.8-1.5-3.4-1.5-3.2.5-4.1 1.7-1.2 2.9-1.2 5.5v13.1h-6.9v-34.5h6.9Zm21.9 16.6c.6-1.6 1.5-3 2.6-4.2s2.5-2 4.1-2.7c1.6-.6 3.3-.9 5.3-.9s3.7.3 5.3.9 2.9 1.5 4.1 2.7 2 2.5 2.6 4.2q.9 2.4.9 5.4c0 3-.3 3.8-.9 5.4s-1.5 3-2.6 4.1-2.5 2-4.1 2.6-3.4.9-5.3.9-3.7-.3-5.3-.9-2.9-1.5-4.1-2.6-2-2.5-2.6-4.1-.9-3.4-.9-5.4.3-3.8.9-5.4m6.2 8.3c.2 1 .5 1.8 1 2.6s1.1 1.4 1.9 1.8 1.7.7 2.9.7 2.1-.2 2.9-.7 1.4-1 1.9-1.8.8-1.6 1-2.6.3-1.9.3-2.9 0-2-.3-3c-.2-1-.5-1.8-1-2.6s-1.1-1.3-1.9-1.8-1.8-.7-2.9-.7-2.1.2-2.9.7-1.4 1.1-1.9 1.8-.8 1.6-1 2.6-.3 2-.3 3 0 2 .3 2.9m30.5 3.6c1 1 2.5 1.5 4.4 1.5s2.6-.3 3.6-1 1.6-1.4 1.8-2.2h6c-1 3-2.4 5.1-4.4 6.4s-4.4 1.9-7.2 1.9-3.7-.3-5.3-.9-2.9-1.5-4-2.7-1.9-2.5-2.5-4.2c-.6-1.6-.9-3.4-.9-5.3s.3-3.6.9-5.2 1.5-3 2.6-4.2 2.5-2.1 4-2.8c1.6-.7 3.3-1 5.2-1s4 .4 5.6 1.2q2.4 1.2 3.9 3.3c1.5 2.1 1.8 3 2.2 4.7.4 1.8.6 3.6.5 5.5h-18c0 2.2.7 3.8 1.7 4.8Zm7.7-13.1c-.8-.9-2.1-1.3-3.7-1.3s-2 .2-2.7.6-1.3.8-1.7 1.4c-.4.5-.7 1.1-.9 1.7s-.3 1.2-.3 1.6h11.2c-.3-1.7-.9-3.1-1.7-4Z"/>
    <g class="cls-5">
      <path d="m2445.1 437-5.8-23.5-5.7 23.5h-7.7l-9.1-34.5h7.6l5.5 23.5 6-23.5h7.1l5.9 23.8 5.6-23.8h7.4l-9.3 34.5zm24.1-6c1 1 2.5 1.5 4.4 1.5s2.6-.3 3.6-1 1.6-1.4 1.8-2.2h6c-1 3-2.4 5.1-4.4 6.4s-4.4 1.9-7.2 1.9-3.7-.3-5.3-.9-2.9-1.5-4-2.7-1.9-2.5-2.5-4.2c-.6-1.6-.9-3.4-.9-5.3s.3-3.6.9-5.2 1.5-3 2.6-4.2 2.5-2.1 4-2.8c1.6-.7 3.3-1 5.2-1s4 .4 5.6 1.2q2.4 1.2 3.9 3.3c1 1.4 1.7 3 2.2 4.7.5 1.8.6 3.6.5 5.6h-18c0 2.2.7 3.8 1.7 4.8Zm7.8-13.1c-.8-.9-2.1-1.4-3.7-1.4s-2 .2-2.7.6-1.3.8-1.7 1.4c-.4.5-.7 1.1-.9 1.7s-.3 1.2-.3 1.6h11.2c-.3-1.7-.9-3.1-1.7-4Zm18.4 12.9c.3.5.7 1 1.2 1.3s1 .6 1.7.7c.6.2 1.3.2 2 .2s1 0 1.5-.2c.5-.1 1-.3 1.4-.5s.8-.6 1.1-1 .4-.9.4-1.5c0-1-.7-1.8-2.1-2.3q-2.1-.75-5.7-1.5c-1-.2-2-.5-2.9-.8-1-.3-1.8-.7-2.5-1.2s-1.3-1.1-1.8-1.9-.7-1.7-.7-2.8c0-1.6.3-2.9.9-4 .6-1 1.5-1.8 2.5-2.4s2.2-1 3.5-1.3 2.6-.4 4-.4 2.7.1 3.9.4c1.3.3 2.4.7 3.4 1.3s1.8 1.4 2.5 2.4 1.1 2.3 1.2 3.8h-6.5c0-1.3-.6-2.2-1.5-2.7s-2-.7-3.2-.7h-1.3c-.5 0-.9.2-1.2.3-.4.2-.7.4-.9.7-.3.3-.4.7-.4 1.2s.2 1.1.7 1.5 1 .7 1.8.9c.7.2 1.6.5 2.5.7s1.9.4 2.8.6c1 .2 2 .5 2.9.8s1.8.7 2.5 1.3 1.3 1.2 1.8 2 .7 1.8.7 2.9c0 1.6-.3 3-1 4.1s-1.5 2-2.6 2.7-2.3 1.2-3.6 1.4c-1.4.3-2.8.4-4.2.4s-2.9-.1-4.2-.4c-1.4-.3-2.6-.8-3.7-1.4q-1.65-1.05-2.7-2.7c-1.05-1.65-1.1-2.5-1.1-4.2h6.5c0 .7.2 1.4.5 1.9Zm33.9-18.8v4.6h-5V429c0 1.2.2 1.9.6 2.3s1.2.6 2.3.6h1.1c.4 0 .7 0 1-.1v5.3c-.6 0-1.2.2-1.9.2h-2.1c-1.1 0-2.1 0-3-.2-1-.1-1.8-.4-2.5-.8s-1.3-1-1.7-1.8q-.6-1.2-.6-3v-14.7h-4.2v-4.6h4.2v-7.5h6.9v7.5h5Zm-169.9 42.4v13.2h14v-13.2h7.6v34.5h-7.6V474h-14v14.9h-7.6v-34.5zM2387 471c.6-1.6 1.5-3 2.6-4.2 1.1-1.1 2.5-2 4.1-2.7 1.6-.6 3.3-.9 5.3-.9s3.7.3 5.3.9 3 1.5 4.1 2.7c1.1 1.1 2 2.5 2.6 4.2q.9 2.4.9 5.4c0 3-.3 3.8-.9 5.4s-1.5 3-2.6 4.1-2.5 2-4.1 2.6-3.4.9-5.3.9-3.7-.3-5.3-.9-2.9-1.5-4.1-2.6c-1.1-1.1-2-2.5-2.6-4.1q-.9-2.4-.9-5.4c0-3 .3-3.8.9-5.4m6.2 8.4c.2.9.5 1.8 1 2.6s1.1 1.4 1.9 1.8c.8.5 1.7.7 2.9.7s2.1-.2 2.9-.7 1.4-1.1 1.9-1.8c.5-.8.8-1.6 1-2.6.2-.9.3-1.9.3-2.9s0-2-.3-2.9c-.2-1-.5-1.8-1-2.6-.5-.7-1.1-1.3-1.9-1.8s-1.8-.7-2.9-.7-2.1.2-2.9.7-1.4 1.1-1.9 1.8-.8 1.6-1 2.6-.3 1.9-.3 2.9 0 2 .3 2.9m29.7-15.5v4.6c.3-.8.8-1.5 1.3-2.1.5-.7 1.2-1.2 1.9-1.7s1.5-.8 2.3-1.1 1.6-.4 2.5-.4.9 0 1.5.2v6.4c-.3 0-.7-.1-1.2-.2h-1.3c-1.3 0-2.3.2-3.2.6s-1.6 1-2.1 1.7-.9 1.6-1.1 2.5c-.2 1-.3 2-.3 3.1v11.2h-6.9v-25h6.5Zm18 18.8c.3.5.7 1 1.2 1.3s1 .6 1.7.7c.6.2 1.3.2 2 .2s1 0 1.5-.2c.5-.1 1-.3 1.4-.5s.8-.6 1.1-1 .4-.9.4-1.5c0-1-.7-1.8-2.1-2.3q-2.1-.75-5.7-1.5c-1-.2-2-.5-2.9-.8-1-.3-1.8-.7-2.5-1.2s-1.3-1.1-1.8-1.9-.7-1.7-.7-2.8c0-1.6.3-2.9.9-4 .6-1 1.5-1.8 2.5-2.4s2.2-1 3.5-1.3 2.6-.4 4-.4 2.7.1 3.9.4c1.3.3 2.4.7 3.4 1.3s1.8 1.4 2.5 2.4 1.1 2.3 1.2 3.8h-6.5c0-1.3-.6-2.2-1.5-2.7s-2-.7-3.2-.7h-1.3c-.5 0-.9.2-1.2.3-.4.2-.7.4-.9.7-.3.3-.4.7-.4 1.2s.2 1.1.7 1.5 1 .7 1.8.9c.7.2 1.6.5 2.5.7s1.9.4 2.8.6c1 .2 2 .5 2.9.8s1.8.7 2.5 1.3c.7.5 1.3 1.2 1.8 2s.7 1.8.7 2.9c0 1.6-.3 3-1 4.1s-1.5 2-2.6 2.7-2.3 1.2-3.6 1.4c-1.4.3-2.8.4-4.2.4s-2.9-.1-4.2-.4c-1.4-.3-2.6-.8-3.7-1.4q-1.65-1.05-2.7-2.7c-1.05-1.65-1.1-2.5-1.1-4.2h6.5c0 .7.2 1.4.5 1.9Zm27.5.2c1 1 2.5 1.5 4.4 1.5s2.6-.3 3.6-1 1.6-1.4 1.8-2.2h6c-1 3-2.4 5.1-4.4 6.4s-4.4 1.9-7.2 1.9-3.7-.3-5.3-.9-2.9-1.5-4-2.7-1.9-2.5-2.5-4.2c-.6-1.6-.9-3.4-.9-5.3s.3-3.6.9-5.2 1.5-3 2.6-4.2 2.5-2.1 4-2.8 3.3-1 5.2-1 4 .4 5.6 1.2q2.4 1.2 3.9 3.3c1 1.4 1.7 3 2.2 4.7.5 1.8.6 3.6.5 5.6h-18c0 2.2.7 3.8 1.7 4.8Zm7.8-13.1c-.8-.9-2.1-1.4-3.7-1.4s-2 .2-2.7.6-1.3.8-1.7 1.4c-.4.5-.7 1.1-.9 1.7s-.3 1.2-.3 1.6h11.2c-.3-1.7-.9-3.1-1.7-4Zm18.3 12.9c.3.5.7 1 1.2 1.3s1 .6 1.7.7c.6.2 1.3.2 2 .2s1 0 1.5-.2c.5-.1 1-.3 1.4-.5s.8-.6 1.1-1 .4-.9.4-1.5c0-1-.7-1.8-2.1-2.3q-2.1-.75-5.7-1.5c-1-.2-2-.5-2.9-.8s-1.8-.7-2.5-1.2-1.3-1.1-1.8-1.9-.7-1.7-.7-2.8c0-1.6.3-2.9.9-4 .6-1 1.5-1.8 2.5-2.4s2.2-1 3.5-1.3c1.3-.2 2.6-.4 4-.4s2.7.1 3.9.4 2.4.7 3.4 1.3 1.8 1.4 2.5 2.4 1.1 2.3 1.2 3.8h-6.5c0-1.3-.6-2.2-1.5-2.7s-2-.7-3.2-.7h-1.3c-.5 0-.9.2-1.2.3-.4.2-.7.4-.9.7-.3.3-.4.7-.4 1.2s.2 1.1.7 1.5 1 .7 1.8.9c.7.2 1.6.5 2.5.7s1.9.4 2.8.6c1 .2 2 .5 2.9.8s1.8.7 2.5 1.3 1.3 1.2 1.8 2 .7 1.8.7 2.9c0 1.6-.3 3-1 4.1s-1.5 2-2.6 2.7-2.3 1.2-3.6 1.4c-1.4.3-2.8.4-4.2.4s-2.9-.1-4.2-.4c-1.4-.3-2.6-.8-3.7-1.4q-1.65-1.05-2.7-2.7c-.7-1.1-1.1-2.5-1.1-4.2h6.5c0 .7.2 1.4.5 1.9Zm27.1-28.3v13h.1c.9-1.4 2-2.5 3.3-3.2 1.4-.7 2.7-1 4-1 1.8 0 3.3.2 4.5.7s2.1 1.2 2.8 2.1 1.2 2 1.4 3.2.4 2.7.4 4.2v15.4h-6.9v-14.1c0-2.1-.3-3.6-1-4.6-.6-1-1.8-1.5-3.4-1.5s-3.2.6-4.1 1.7c-.8 1.1-1.3 2.9-1.3 5.5v13.1h-6.9v-34.5h6.9Zm21.9 16.6c.6-1.6 1.5-3 2.6-4.2 1.1-1.1 2.5-2 4.1-2.7 1.6-.6 3.3-.9 5.3-.9s3.7.3 5.3.9 3 1.5 4.1 2.7c1.1 1.1 2 2.5 2.6 4.2q.9 2.4.9 5.4c0 3-.3 3.8-.9 5.4s-1.5 3-2.6 4.1-2.5 2-4.1 2.6-3.4.9-5.3.9-3.7-.3-5.3-.9-2.9-1.5-4.1-2.6-2-2.5-2.6-4.1q-.9-2.4-.9-5.4c0-3 .3-3.8.9-5.4m6.2 8.4c.2.9.5 1.8 1 2.6s1.1 1.4 1.9 1.8c.8.5 1.7.7 2.9.7s2.1-.2 2.9-.7 1.4-1.1 1.9-1.8c.5-.8.8-1.6 1-2.6s.3-1.9.3-2.9 0-2-.3-2.9-.5-1.8-1-2.6c-.5-.7-1.1-1.3-1.9-1.8s-1.8-.7-2.9-.7-2.1.2-2.9.7-1.4 1.1-1.9 1.8-.8 1.6-1 2.6-.3 1.9-.3 2.9 0 2 .3 2.9m30.5 3.5c1 1 2.5 1.5 4.4 1.5s2.6-.3 3.6-1 1.6-1.4 1.8-2.2h6c-1 3-2.4 5.1-4.4 6.4s-4.4 1.9-7.2 1.9-3.7-.3-5.3-.9-2.9-1.5-4-2.7-1.9-2.5-2.5-4.2c-.6-1.6-.9-3.4-.9-5.3s.3-3.6.9-5.2 1.5-3 2.6-4.2 2.5-2.1 4-2.8c1.6-.7 3.3-1 5.2-1s4 .4 5.6 1.2q2.4 1.2 3.9 3.3c1 1.4 1.7 3 2.2 4.7.5 1.8.6 3.6.5 5.6h-18c0 2.2.7 3.8 1.7 4.8Zm7.7-13.1c-.8-.9-2.1-1.4-3.7-1.4s-2 .2-2.7.6-1.3.8-1.7 1.4c-.4.5-.7 1.1-.9 1.7s-.3 1.2-.3 1.6h11.2c-.3-1.7-.9-3.1-1.7-4Z" class="cls-5"/>
    </g>
    <g class="cls-5">
      <path d="M1961.7 717.1c2.2 0 4.3.4 6.2 1.1s3.6 1.8 5 3.2 2.5 3.2 3.3 5.3q1.2 3.15 1.2 7.5c0 4.35-.3 4.8-1 7-.6 2.1-1.6 4-2.9 5.5s-2.9 2.8-4.9 3.6c-1.9.9-4.2 1.3-6.9 1.3h-14.9v-34.5zm-.5 28.1c1.1 0 2.2-.2 3.2-.5 1-.4 1.9-.9 2.8-1.8.8-.8 1.4-1.9 1.9-3.2s.7-2.9.7-4.8-.2-3.3-.5-4.7-.9-2.6-1.7-3.6-1.8-1.8-3.1-2.3-2.8-.8-4.7-.8h-5.4v21.7zm20.8-11.5c.6-1.6 1.5-3 2.6-4.2 1.1-1.1 2.5-2 4.1-2.7s3.3-.9 5.3-.9 3.7.3 5.3.9 3 1.5 4.1 2.7c1.1 1.1 2 2.5 2.6 4.2q.9 2.4.9 5.4c0 3-.3 3.8-.9 5.4s-1.5 3-2.6 4.1-2.5 2-4.1 2.6-3.4.9-5.3.9-3.7-.3-5.3-.9-2.9-1.5-4.1-2.6-2-2.5-2.6-4.1-.9-3.4-.9-5.4.3-3.8.9-5.4m6.3 8.4c.2.9.5 1.8 1 2.6s1.1 1.4 1.9 1.8c.8.5 1.7.7 2.9.7s2.1-.2 2.9-.7 1.4-1.1 1.9-1.8c.5-.8.8-1.6 1-2.6s.3-1.9.3-2.9 0-2-.3-2.9-.5-1.8-1-2.6-1.1-1.3-1.9-1.8-1.8-.7-2.9-.7-2.1.2-2.9.7-1.4 1.1-1.9 1.8-.8 1.6-1 2.6-.3 1.9-.3 2.9 0 2 .3 2.9m46.7 11.4q-.45 1.95-1.8 3.6c-1.35 1.65-2.2 2.1-3.9 2.8s-4 1.2-6.9 1.2-2.5-.2-3.7-.5c-1.3-.3-2.4-.8-3.5-1.4s-1.9-1.5-2.6-2.5q-1.05-1.5-1.2-3.6h6.8c.3 1.3.9 2.2 1.9 2.7.9.5 2 .7 3.2.7 1.9 0 3.3-.6 4.2-1.7.9-1.2 1.3-2.6 1.3-4.4v-3.3c-.7 1.3-1.8 2.3-3.2 2.9s-2.8.9-4.3.9-3.5-.3-4.8-1q-2.1-1.05-3.3-2.7c-.9-1.1-1.5-2.5-1.9-4s-.6-3.1-.6-4.9.2-3.2.7-4.7 1.2-2.8 2.1-4c.9-1.1 2-2.1 3.4-2.7 1.3-.7 2.9-1 4.6-1s3.1.3 4.3.9 2.3 1.6 3.1 3.1v-3.3h6.5V750c0 1-.1 2.1-.4 3.4Zm-9.4-8.3c.7-.4 1.4-.9 1.8-1.5.5-.6.8-1.4 1.1-2.2.2-.8.4-1.7.4-2.6s0-2-.3-2.9c-.2-.9-.5-1.7-1-2.4s-1-1.3-1.8-1.7c-.7-.4-1.7-.6-2.8-.6s-1.8.2-2.5.6-1.3.9-1.7 1.6c-.5.7-.8 1.4-1 2.3s-.3 1.7-.3 2.7 0 1.8.3 2.7q.3 1.35.9 2.4c.6 1.05 1 1.3 1.7 1.7.7.5 1.6.7 2.7.7s1.8-.2 2.6-.6Zm22.3-28.1v34.5h-6.9v-34.5zm12.8 28.5c1 1 2.5 1.5 4.4 1.5s2.6-.3 3.6-1 1.6-1.4 1.8-2.2h6c-1 3-2.4 5.1-4.4 6.4s-4.4 1.9-7.2 1.9-3.7-.3-5.3-.9-2.9-1.5-4-2.7-1.9-2.5-2.5-4.2c-.6-1.6-.9-3.4-.9-5.3s.3-3.6.9-5.2 1.5-3 2.6-4.2 2.5-2.1 4-2.8c1.6-.7 3.3-1 5.2-1s4 .4 5.6 1.2q2.4 1.2 3.9 3.3c1 1.4 1.7 3 2.2 4.7.4 1.8.6 3.6.5 5.6h-18c0 2.2.7 3.8 1.7 4.8Zm7.7-13.1c-.8-.9-2.1-1.4-3.7-1.4s-2 .2-2.7.6-1.3.8-1.7 1.4c-.4.5-.7 1.1-.9 1.7s-.3 1.2-.3 1.6h11.2c-.3-1.7-.9-3.1-1.7-4Zm36.3 21q-.45 1.95-1.8 3.6c-.9 1.1-2.2 2.1-3.9 2.8q-2.55 1.2-6.9 1.2c-4.35 0-2.5-.2-3.7-.5-1.3-.3-2.4-.8-3.5-1.4-1-.6-1.9-1.5-2.6-2.5q-1.05-1.5-1.2-3.6h6.8c.3 1.3.9 2.2 1.9 2.7.9.5 2 .7 3.2.7 1.9 0 3.3-.6 4.2-1.7.9-1.2 1.3-2.6 1.3-4.4v-3.3c-.7 1.3-1.8 2.3-3.2 2.9s-2.8.9-4.3.9-3.5-.3-4.8-1q-2.1-1.05-3.3-2.7c-.9-1.1-1.5-2.5-1.9-4s-.6-3.1-.6-4.9.2-3.2.7-4.7 1.2-2.8 2.1-4c.9-1.1 2-2.1 3.4-2.7s2.9-1 4.6-1 3.1.3 4.3.9 2.3 1.6 3.1 3.1v-3.3h6.5V750c0 1-.1 2.1-.4 3.4Zm-9.4-8.3c.7-.4 1.4-.9 1.8-1.5.5-.6.8-1.4 1.1-2.2.2-.8.4-1.7.4-2.6s0-2-.3-2.9c-.2-.9-.5-1.7-1-2.4s-1-1.3-1.8-1.7-1.7-.6-2.8-.6-1.8.2-2.5.6-1.3.9-1.7 1.6c-.5.7-.8 1.4-1 2.3s-.3 1.7-.3 2.7 0 1.8.3 2.7q.3 1.35.9 2.4c.4.7 1 1.3 1.7 1.7.7.5 1.6.7 2.7.7s1.8-.2 2.6-.6Z" class="cls-5"/>
    </g>
    <circle cx="2170.8" cy="735.1" r="41.2" class="cls-4"/>
    <g class="cls-5">
      <path d="M2158.2 743.8v-6.3l14.7-19.7h6.1v20.3h4.5v5.6h-4.5v7.8h-6.5v-7.8h-14.3Zm14.1-17.4-8.7 11.7h8.9v-11.7h-.1Z" class="cls-5"/>
    </g>
    <circle cx="2669" cy="472.5" r="41.2" class="cls-4"/>
    <g class="cls-5">
      <path d="m2666.3 460.9-1.4 7.7c.9-.8 1.9-1.5 3-1.9q1.65-.6 3.6-.6c1.95 0 3.2.3 4.4.9s2.4 1.4 3.3 2.5c.9 1 1.6 2.2 2 3.6.5 1.4.7 2.9.7 4.5s-.3 3.4-1 4.9q-1.05 2.25-2.7 3.9c-1.1 1.1-2.5 1.9-4 2.5s-3.1.9-4.8.8c-1.6 0-3.2-.2-4.7-.7-1.5-.4-2.8-1.1-4-2s-2.1-2-2.8-3.4c-.7-1.3-1.1-2.9-1.1-4.7h6.9c.2 1.5.7 2.8 1.7 3.7s2.3 1.4 3.8 1.4 1.7-.2 2.4-.6 1.3-.9 1.8-1.4q.75-.9 1.2-2.1c.3-.8.4-1.6.4-2.4s-.1-1.7-.4-2.5-.6-1.4-1.2-2c-.5-.6-1.1-1-1.8-1.4-.7-.3-1.5-.5-2.5-.5s-2.2.2-3 .7c-.8.4-1.5 1.1-2.2 2.1h-6.2l3.3-18.7h18.9v5.6h-14Z" class="cls-5"/>
    </g>
    <circle cx="2351.4" cy="1047.7" r="41.2" class="cls-4"/>
    <g class="cls-5">
      <path d="M2355.8 1036.1c-.8-.8-1.8-1.3-3-1.3s-2.2.4-3.1 1.1c-.8.7-1.5 1.6-2 2.7-.5 1-.8 2.2-1.1 3.4-.2 1.2-.4 2.3-.4 3.2.9-1.3 2-2.2 3.3-2.8s2.7-.9 4.3-.9 2.9.3 4.2.9 2.6 1.5 3.5 2.5 1.6 2.2 2 3.5.6 2.7.6 4-.3 3.4-.8 4.9q-.9 2.25-2.4 3.9c-1 1.1-2.3 2-3.7 2.6s-3.1.9-4.8.9c-2.5 0-4.7-.5-6.3-1.5-1.7-1-3-2.3-4-4-1-1.6-1.7-3.5-2.1-5.6q-.6-3.15-.6-6.3c0-3.15.2-4.2.7-6.3s1.3-4 2.3-5.7c1.1-1.7 2.4-3.1 4.1-4.1 1.7-1.1 3.7-1.6 6.1-1.6s2.8.2 4.1.6q1.95.6 3.3 1.8c1 .8 1.8 1.8 2.4 2.9.6 1.2 1 2.5 1.2 4h-6.5c-.2-1.1-.7-2.1-1.5-2.9Zm-5.8 11.1c-.7.3-1.3.8-1.7 1.4-.5.6-.8 1.2-1 2q-.3 1.2-.3 2.4c0 1.2.1 1.5.4 2.3.2.8.6 1.4 1.1 2s1 1.1 1.7 1.4c.7.4 1.4.5 2.3.5s1.6-.2 2.2-.5c.6-.4 1.2-.8 1.6-1.4.5-.6.8-1.2 1-2 .2-.7.3-1.5.3-2.3s-.1-1.6-.3-2.3c-.2-.8-.5-1.4-.9-2s-1-1.1-1.6-1.4c-.7-.4-1.4-.6-2.3-.6s-1.7.2-2.4.5Z" class="cls-5"/>
    </g>
    <circle cx="1309.3" cy="902.6" r="41.2" class="cls-4"/>
    <g class="cls-5">
      <path d="M1310 899c.8 0 1.6-.2 2.3-.6.7-.3 1.3-.7 1.8-1.3s.7-1.4.7-2.3c0-1.4-.5-2.6-1.4-3.3q-1.5-1.2-3.3-1.2c-1.8 0-3 .6-3.9 1.7s-1.3 2.6-1.3 4.3h-6.5c0-1.7.4-3.3.9-4.8.6-1.4 1.4-2.7 2.4-3.7q1.5-1.5 3.6-2.4c1.4-.6 3-.8 4.7-.8s2.7.2 4.1.6q2.1.6 3.6 1.8c1.1.8 2 1.8 2.6 2.9.7 1.2 1 2.5 1 4s-.4 3.1-1.2 4.3c-.8 1.3-2 2.1-3.5 2.6 1.9.5 3.3 1.4 4.4 2.8s1.6 3 1.6 5-.3 3.3-1 4.7-1.6 2.5-2.8 3.5-2.5 1.6-4 2.1-3.1.7-4.7.7-3.6-.3-5.2-.8-2.9-1.3-4-2.4c-1.1-1-1.9-2.3-2.5-3.8s-.9-3.3-.8-5.2h6.5c0 .9.2 1.8.4 2.6.3.8.6 1.5 1.1 2.1s1.1 1.1 1.8 1.4c.7.4 1.6.5 2.6.5 1.5 0 2.8-.5 3.9-1.4s1.6-2.2 1.6-3.9-.2-2.3-.7-2.9c-.5-.7-1.1-1.2-1.9-1.5s-1.6-.5-2.5-.5h-2.6V899h2.4Z" class="cls-5"/>
    </g>
    <circle cx="2857.5" cy="993.9" r="41.2" class="cls-4"/>
    <g class="cls-5">
      <path d="M2865.8 988.2c-1.4 2.3-2.5 4.7-3.4 7.2s-1.6 5.1-2.1 7.7-.8 5-.8 7.3h-7.3c.4-5.1 1.6-9.9 3.5-14.6s4.6-8.9 7.8-12.8h-16v-6.4h23.1v5.9c-1.8 1.5-3.3 3.4-4.7 5.7Z" class="cls-5"/>
    </g>
    <circle cx="1965.1" cy="963.3" r="41.2" class="cls-4"/>
    <g class="cls-5">
      <path d="M1955 953.6c.5-1.7 1.3-3.1 2.3-4.3s2.3-2.2 3.9-2.9 3.4-1 5.4-1 3 .2 4.4.7 2.6 1.2 3.7 2.1 1.9 2 2.5 3.3.9 2.8.9 4.4-.3 3.2-.8 4.4-1.3 2.3-2.2 3.3c-.9.9-1.9 1.8-3.1 2.6s-2.3 1.5-3.5 2.3-2.3 1.6-3.4 2.4c-1.1.9-2.1 1.9-2.9 3h16v5.9h-24.8c0-2 .3-3.7.8-5.1.6-1.4 1.3-2.7 2.3-3.9 1-1.1 2.1-2.2 3.4-3.2s2.7-1.9 4.1-2.9c.7-.5 1.5-1 2.4-1.6.8-.5 1.6-1.1 2.3-1.8.7-.6 1.3-1.4 1.7-2.2.5-.8.7-1.7.7-2.8 0-1.6-.5-2.9-1.4-3.8s-2.2-1.4-3.6-1.4-1.8.2-2.5.7-1.2 1.1-1.7 1.8c-.4.8-.7 1.6-.9 2.5q-.3 1.35-.3 2.7h-6.6c0-1.9.2-3.7.7-5.4Z" class="cls-5"/>
    </g>
    <circle cx="2062.1" cy="1161.4" r="41.2" class="cls-4"/>
    <g class="cls-5">
      <path d="M2062.2 1177.9V1156h-8.5v-5.2c1.2 0 2.3 0 3.5-.3 1.1-.2 2.1-.6 3-1.1s1.6-1.2 2.2-2.1 1-1.9 1.2-3.2h5.5v33.8z" class="cls-5"/>
    </g>
    <circle cx="2857.5" cy="292.7" r="41.2" class="cls-4"/>
    <g class="cls-5">
      <path d="M2848.6 280c.7-1.2 1.6-2.1 2.6-2.9 1.1-.8 2.3-1.4 3.6-1.7 1.4-.4 2.7-.6 4.1-.6 2.1 0 3.9.3 5.3 1 1.4.6 2.6 1.4 3.5 2.3s1.5 1.9 1.9 2.9.6 2 .6 2.8c0 1.7-.4 3.1-1.2 4.4s-2.1 2.2-3.7 2.7c2 .5 3.6 1.5 4.7 3s1.6 3.3 1.6 5.4-.4 3.4-1.1 4.7-1.7 2.4-2.9 3.3-2.5 1.5-4.1 2c-1.5.4-3.1.7-4.6.7s-3.2-.2-4.8-.6c-1.5-.4-2.9-1-4.1-1.9s-2.2-2-2.9-3.3-1.1-2.9-1.1-4.7.6-4 1.7-5.4 2.7-2.4 4.7-2.9c-1.6-.5-2.9-1.4-3.7-2.7s-1.3-2.7-1.3-4.4.3-2.8 1-4Zm4.9 21.3c.3.7.7 1.3 1.3 1.8.5.5 1.2.9 1.9 1.2s1.5.4 2.3.4 1.6-.1 2.3-.4q1.05-.45 1.8-1.2t1.2-1.8c.3-.7.4-1.5.4-2.3s-.2-1.5-.5-2.2-.7-1.2-1.3-1.7c-.5-.5-1.1-.9-1.8-1.1-.7-.3-1.4-.4-2.2-.4-1.7 0-3.1.5-4.2 1.4-1.2.9-1.7 2.2-1.7 4s.2 1.7.5 2.4Zm1.9-13.4c1 .8 2.2 1.1 3.6 1.1s2.7-.4 3.6-1.1c1-.8 1.4-1.9 1.4-3.3s0-.9-.2-1.5c-.1-.5-.4-1-.7-1.5s-.9-.9-1.5-1.2c-.7-.3-1.5-.5-2.6-.5s-1.3.1-2 .3c-.6.2-1.2.5-1.7.9s-.9.9-1.1 1.4-.4 1.3-.4 2c0 1.4.5 2.6 1.5 3.3Z" class="cls-5"/>
    </g>
    <circle cx="1327.1" cy="194.8" r="41.2" class="cls-4"/>
    <g class="cls-5">
      <path d="M1324.7 205.6c.8.8 1.8 1.3 3 1.3s2.3-.4 3.1-1.1 1.4-1.6 1.9-2.7.8-2.2 1-3.4.3-2.3.4-3.2c-.9 1.3-2 2.2-3.3 2.8s-2.7.9-4.3.9-2.9-.3-4.2-.9c-1.4-.6-2.6-1.5-3.5-2.5s-1.6-2.2-2-3.5-.6-2.7-.6-4 .3-3.4.8-4.9q.9-2.25 2.4-3.9c1-1.1 2.3-2 3.7-2.6s3.1-1 4.8-1q3.9 0 6.3 1.5c1.7 1 3 2.3 4 4s1.7 3.5 2.1 5.6q.6 3.15.6 6.3c0 3.15-.2 4.2-.7 6.3s-1.3 4-2.3 5.7c-1.1 1.7-2.4 3.1-4.1 4.1s-3.7 1.6-6.1 1.6-2.8-.2-4.1-.6q-1.95-.6-3.3-1.8c-1-.8-1.8-1.8-2.4-2.9-.6-1.2-1-2.5-1.2-4h6.5c.2 1.1.7 2.1 1.5 2.9m5.8-11.1c.7-.3 1.2-.8 1.7-1.4s.8-1.2 1-2q.3-1.2.3-2.4c0-1.2-.1-1.5-.4-2.3-.2-.8-.6-1.4-1.1-2s-1-1.1-1.7-1.4c-.7-.4-1.4-.5-2.3-.5s-1.5.2-2.2.5c-.6.4-1.2.8-1.6 1.4-.5.6-.8 1.2-1 2-.2.7-.3 1.5-.3 2.3s.1 1.6.3 2.3c.2.8.5 1.4.9 2s1 1.1 1.6 1.4c.7.4 1.4.6 2.3.6s1.7-.2 2.4-.5Z" class="cls-5"/>
    </g>
    <circle cx="993.1" cy="238.5" r="41.2" class="cls-4" transform="rotate(-82.5 993.472 238.337)"/>
    <g class="cls-5">
      <path d="M977.8 255v-21.9h-8.5v-5.2c1.2 0 2.3 0 3.5-.3 1.1-.2 2.1-.6 3-1.1s1.6-1.2 2.2-2.1 1-1.9 1.2-3.2h5.5V255zm14.9-25.3q1.05-3.3 2.7-5.4c1.1-1.4 2.4-2.3 3.9-2.9q2.25-.9 4.8-.9c2.55 0 3.3.3 4.8.9s2.8 1.5 4 2.9c1.1 1.4 2 3.1 2.7 5.4.7 2.2 1 5 1 8.3s-.3 6.2-1 8.5q-1.05 3.45-2.7 5.4c-1.1 1.4-2.5 2.3-4 2.9q-2.25.9-4.8.9c-2.55 0-3.3-.3-4.8-.9s-2.8-1.5-3.9-2.9q-1.65-2.1-2.7-5.4c-.7-2.3-1-5.1-1-8.5s.3-6 1-8.3m5.9 11.8c0 1.4.3 2.7.6 4s.9 2.4 1.6 3.3 1.8 1.4 3.2 1.4 2.5-.5 3.3-1.4 1.3-2 1.6-3.3.5-2.6.6-4v-5.6c0-.8 0-1.7-.2-2.5-.1-.9-.3-1.7-.5-2.6s-.5-1.6-.9-2.3-.9-1.2-1.6-1.6q-.9-.6-2.4-.6c-1.5 0-1.7.2-2.3.6s-1.1 1-1.5 1.6c-.4.7-.7 1.4-.9 2.3s-.4 1.7-.5 2.6c0 .9-.2 1.7-.2 2.5v5.6Z" class="cls-5"/>
    </g>
    <circle cx="142.5" cy="292.7" r="41.2" class="cls-4"/>
    <g class="cls-5">
      <path d="M129.6 309.2v-21.9h-8.5v-5.2c1.2 0 2.3 0 3.5-.3 1.1-.2 2.1-.6 3-1.1s1.6-1.2 2.2-2.1 1-1.9 1.2-3.2h5.5v33.8zm23 0v-21.9h-8.5v-5.2c1.2 0 2.3 0 3.5-.3 1.1-.2 2.1-.6 3-1.1s1.6-1.2 2.2-2.1 1-1.9 1.2-3.2h5.5v33.8z" class="cls-5"/>
    </g>
    <circle cx="142.5" cy="993.9" r="41.2" class="cls-4"/>
    <g class="cls-5">
      <path d="M126.8 1010.4v-21.9h-8.5v-5.2c1.2 0 2.3 0 3.5-.3 1.1-.2 2.1-.6 3-1.1s1.6-1.2 2.2-2.1 1-1.9 1.2-3.2h5.5v33.8zm15.3-26.2c.5-1.7 1.3-3.1 2.3-4.3s2.3-2.2 3.9-2.9 3.4-1 5.4-1 3 .2 4.4.7 2.6 1.2 3.7 2.1 1.9 2 2.5 3.3.9 2.8.9 4.4-.3 3.2-.8 4.4-1.3 2.3-2.2 3.3c-.9.9-1.9 1.8-3.1 2.6-1.1.8-2.3 1.5-3.5 2.3s-2.3 1.6-3.4 2.4c-1.1.9-2.1 1.9-2.9 3h16v5.9h-24.8c0-2 .3-3.7.8-5.1.6-1.4 1.3-2.7 2.3-3.9 1-1.1 2.1-2.2 3.4-3.2s2.7-1.9 4.1-2.9c.7-.5 1.5-1 2.4-1.6.8-.5 1.6-1.1 2.3-1.8.7-.6 1.3-1.4 1.7-2.2.5-.8.7-1.7.7-2.8 0-1.6-.5-2.9-1.4-3.8s-2.2-1.4-3.6-1.4-1.8.2-2.5.7-1.2 1.1-1.7 1.8c-.4.8-.7 1.6-.9 2.5q-.3 1.35-.3 2.7h-6.6c0-1.9.2-3.7.7-5.4Z" class="cls-5"/>
    </g>
    <path d="m2790.1 2007.9 59.7-94.3 4.5 48.6 44.5 20.2z" class="cls-2"/>
    <path d="m2702 1916.1 37.2 59.9h.2v-59.9h18.4v89.2h-19.6l-37.1-59.8h-.2v59.8h-18.4v-89.2z"/>
  </g>
</svg>
