<!--Mobility Resort Motegi Road Course, traced single-line outline.
     Derived from File:Twin_Ring_Motegi_map-2.svg by Ronny Astrada on Wikimedia
     Commons (https://commons.wikimedia.org/wiki/File:Twin_Ring_Motegi_map-2.svg,
     CC BY-SA 3.0). The source's path10 (the road-course centerline; the oval
     Super Speedway and the grey infield connector were left out) was extracted
     and affine-fit to the normalized 0 0 1000 1000 viewBox. License is recorded
     in LICENSE-ASSETS.md. To re-fetch the source, see scripts/fetch-map.mjs.-->
<svg xmlns="http://www.w3.org/2000/svg" aria-label="Mobility Resort Motegi track map" role="img" viewBox="0 0 1000 1000">
  <path fill="none" stroke="#1f1f21" stroke-linecap="round" stroke-linejoin="round" stroke-width="10" d="M543.442 822.661c6.959 8.057 19.133 8.949 27.192 1.99L950 362.38c5.849-9.457 3.957-21.76-4.462-29.023-8.418-7.263-20.865-7.33-29.361-.16l-196.979 215.55a24.858 24.858 0 0 1-38.467-13.265l-18.57-161.827a52.85 52.85 0 0 0-82.904-25.866c-20.313 19.738-52.643 19.738-72.955 0L377.635 191.267a105.92 105.92 0 0 0-90.199-15.917L158.77 207.184a20.204 20.204 0 0 0-7.96 35.814L450.59 504.31a56.57 56.57 0 0 1 2.652 53.06l-26.528 38.466a20.797 20.797 0 0 1-34.488-1.327L112.343 290.751a33.9 33.9 0 0 0-37.14 0A52.55 52.55 0 0 0 50 310.648a39.38 39.38 0 0 0 0 39.794l273.25 367.43a16.91 16.91 0 0 0 25.202 0l13.265-14.59c5.658-8.849 16.935-12.232 26.529-7.96l63.006 9.285z"/>
</svg>
