<svg xmlns="http://www.w3.org/2000/svg" width="900" height="600" viewBox="0 0 676.782 451.188">
  <path fill="#ed1c24" d="M270.713 0h406.069v451.188h-406.07Z"/>
  <path fill="#006035" d="M0 0h270.713v451.188H0Z"/>
  <path fill="#fff200" d="M359.43 295.739c-34.256-1.025-191.336-99.077-192.413-114.681l8.674-14.467c15.582 22.64 176.167 117.99 191.938 114.607z"/>
  <path fill="#fff200" stroke="#231f20" stroke-linecap="round" stroke-linejoin="round" stroke-miterlimit="2.613" stroke-width=".648" d="M360.244 296.196c-.582 1.054-1.664 1.09-3.722.862-12.812-1.417-51.693-20.324-97.7-47.864-53.533-32.046-97.746-61.24-92.943-68.876l1.305-2.306.258.081c-4.313 12.93 87.252 65.284 92.642 68.623 52.98 32.823 97.645 51.99 101.598 47.008zM173.87 164.627c-3.072 8.27 40.99 35.51 94.005 67.752s98.724 52.165 102.112 49.308c.207-.37 1.667-2.882 1.533-2.862-.635.957-2.181 1.26-4.593.564-14.321-4.13-51.678-21.277-97.94-49.33-46.261-28.056-86.51-53.908-92.766-64.894-.435-.762-.746-2.15-.682-3.229h-.152l-1.333 2.325z"/>
  <path fill="#fff200" d="M270.904 190.51c34.286-.271 76.595-4.685 100.944-14.39l-5.246-8.523c-14.391 7.965-56.934 13.204-95.988 13.988-46.19-.427-78.795-4.729-95.132-15.689l-4.952 9.078c30.03 12.706 60.803 15.405 100.374 15.537"/>
  <path fill="#fff200" stroke="#231f20" stroke-linecap="round" stroke-linejoin="round" stroke-miterlimit="2.613" stroke-width=".65" d="M368.662 167.673c-2.601 2.088-15.555 6.68-38.348 10.32-15.212 2.182-34.553 4.133-59.264 4.157-23.476.024-42.658-1.558-57.246-3.684-23.148-3.023-35.467-8.477-39.91-10.066q.662-1.143 1.354-2.284c3.456 1.74 15.346 6.568 38.809 9.892 14.424 2.043 33.633 3.567 56.993 3.544 24.594-.024 43.715-2.014 58.83-4.18 22.912-3.153 35.24-9.013 37.112-10.48zm4.605 8.643c-.838 1.34-16.718 6.817-40.111 10.857-15.86 2.417-36.55 4.484-62.37 4.51-24.53.024-44.568-1.723-59.74-3.78-24.556-3.85-37.23-9.207-41.916-11.098.448-.892.737-1.518 1.169-2.35 13.488 5.37 26.22 8.608 41.136 10.902 15.07 2.043 34.868 3.814 59.277 3.79 25.699-.026 46.16-2.249 61.929-4.595 23.988-3.87 37.09-8.849 38.932-11.16z"/>
  <path fill="#fff200" d="M158.323 231.813c21.087 11.34 67.927 17.059 112.25 17.453 40.358.062 92.934-6.24 112.594-16.66l-.542-11.35c-6.151 9.61-62.493 18.833-112.49 18.456s-96.425-8.101-111.903-18.095z"/>
  <path fill="#fff200" stroke="#231f20" stroke-linecap="round" stroke-linejoin="round" stroke-miterlimit="2.613" stroke-width=".65" d="M384.256 220.553v2.708c-2.954 3.532-21.483 8.872-44.717 12.632-17.684 2.71-40.74 4.756-69.466 4.756-27.292 0-49.056-1.945-65.935-4.538-26.68-3.883-43.745-10.686-47.17-12.718l.015-3.157c10.29 6.839 38.169 11.845 47.53 13.375 16.769 2.577 38.404 4.507 65.56 4.507 28.593 0 51.518-2.031 69.09-4.725 16.67-2.41 40.417-8.67 45.093-12.84m-.012 9.629v2.708c-2.953 3.532-21.481 8.872-44.716 12.632-17.684 2.71-40.74 4.755-69.466 4.755-27.292 0-49.055-1.944-65.935-4.537-26.68-3.884-43.744-10.687-47.17-12.719l.015-3.157c10.29 6.84 38.169 11.846 47.53 13.376 16.768 2.576 38.404 4.507 65.56 4.507 28.593 0 51.518-2.031 69.09-4.725 16.67-2.41 40.417-8.67 45.092-12.84"/>
  <path fill="#fff200" d="M270.473 293.794c-48.5-.29-90.055-13.221-98.831-15.358l6.399 10.019c15.5 6.519 56.042 16.236 92.898 15.16s69.067-3.93 91.765-14.978l6.56-10.381c-15.467 7.284-68.11 15.465-98.791 15.538"/>
  <path fill="#fff200" stroke="#231f20" stroke-linecap="round" stroke-linejoin="round" stroke-miterlimit="2.613" stroke-width=".65" d="m370.859 276.925.074.088a286 286 0 0 1-2.225 3.699c-5.711 2.042-21.207 6.575-43.836 9.739-14.91 2.03-24.177 3.998-53.837 4.575-55.58-1.414-91.563-12.282-100.112-14.961l-1.268-2.43c32.21 8.409 65.11 14.277 101.38 14.877 27.136-.578 38.68-2.575 53.465-4.59 26.387-4.105 39.682-8.45 43.674-9.702a3 3 0 0 0-.176-.227zm-5.688 9.384a156 156 0 0 1-2.945 4.34c-10.706 3.776-27.576 7.739-34.694 8.895-14.54 2.997-37.04 5.21-57.005 5.22-42.965-.63-78.133-9.04-94.678-16.213l-1.334-2.296.218-.346 2.264.88c29.423 10.524 62.468 14.723 93.77 15.478 19.887.07 39.796-2.281 55.894-5.16 24.687-4.944 34.669-8.672 37.73-10.362z"/>
  <path fill="#fff200" d="M270.534 124.546c-55.694 0-100.814 45.128-100.814 100.831s45.12 100.831 100.814 100.831 100.662-44.977 100.662-100.68-44.968-100.982-100.662-100.982m0-9.98c61.022 0 110.792 49.779 110.792 110.812s-49.77 110.81-110.792 110.81-110.792-49.779-110.792-110.81c0-61.034 49.77-110.813 110.792-110.813"/>
  <path fill="#fff200" stroke="#231f20" stroke-linecap="round" stroke-linejoin="round" stroke-miterlimit="2.613" stroke-width=".65" d="M160.81 225.51c0 60.39 49.593 109.806 109.8 109.806S380.409 285.9 380.409 225.51s-49.593-109.805-109.8-109.805-109.798 49.416-109.798 109.805M270.61 113.235c61.836 0 112.269 50.437 112.269 112.276 0 61.84-50.433 112.275-112.27 112.275S158.342 287.35 158.342 225.51s50.433-112.276 112.269-112.276"/>
  <path fill="#fff200" stroke="#231f20" stroke-linecap="round" stroke-linejoin="round" stroke-miterlimit="2.613" stroke-width=".65" d="M170.34 225.413c0 55.201 45.333 100.373 100.368 100.373 55.036 0 100.369-45.172 100.369-100.373s-45.333-100.376-100.37-100.376c-55.034 0-100.367 45.173-100.367 100.375m100.368-102.845c56.39 0 102.839 46.285 102.839 102.846s-46.45 102.843-102.84 102.843c-56.388 0-102.837-46.283-102.837-102.843s46.449-102.846 102.838-102.846"/>
  <path fill="#fff200" d="M266.065 112.708h9.768v225.91h-9.768z"/>
  <path fill="none" stroke="#231f20" stroke-linecap="round" stroke-linejoin="round" stroke-miterlimit="2.613" stroke-width=".65" d="M267.349 338.382h6.858m-6.871-225.594h6.825"/>
  <path fill="#fff200" stroke="#231f20" stroke-linecap="round" stroke-linejoin="round" stroke-miterlimit="2.613" stroke-width=".65" d="M264.713 111.502h2.468l.002 228.185h-2.47zm9.549-.003h2.448l.02 228.19h-2.45z"/>
  <path fill="#fff200" d="M157.938 220.73c14.08-12.96 66.025-21.364 112.113-21.146s100.669 9.687 112.544 20.87l.119 9.667c-9.945-9.353-52.35-20.51-112.572-20.634s-103.948 11.337-112.205 20.883z"/>
  <path fill="none" stroke="#231f20" stroke-linecap="round" stroke-linejoin="round" stroke-miterlimit="2.613" stroke-width=".651" d="M382.965 221.524v8.34m-225.053-8.684v8.342"/>
  <path fill="#fff200" stroke="#231f20" stroke-linecap="round" stroke-linejoin="round" stroke-miterlimit="2.613" stroke-width=".65" d="M270.674 198.499c26.515-.05 52.238 2.513 72.644 6.484 21.057 4.21 35.873 9.476 40.94 15.39l-.006 2.927c-6.11-7.36-26.05-12.754-41.407-15.838-20.251-3.94-45.804-6.482-72.171-6.433-27.824.052-53.607 2.688-73.561 6.58-15.452 2.928-37.676 9.489-40.155 15.713v-3.05c1.465-4.261 17.685-10.932 39.67-15.212 20.103-3.921 46.059-6.51 74.046-6.561m-.011 9.629c26.515-.05 52.239 2.513 72.644 6.484 21.056 4.21 35.874 9.476 40.94 15.39l-.006 2.927c-6.11-7.36-26.05-12.753-41.408-15.837-20.25-3.941-45.803-6.484-72.17-6.434-27.824.052-53.732 2.688-73.686 6.58-16.011 3.177-37.364 9.489-40.03 15.713v-3.05c1.464-4.307 17.364-10.748 39.67-15.212 20.103-3.921 46.059-6.51 74.046-6.561"/>
  <path fill="#fff200" d="M270.123 149.388c41.783-.21 78.228 5.84 94.902 14.381l6.082 10.521c-14.492-7.81-53.811-15.931-100.924-14.717-38.387.237-79.404 4.227-99.984 15.207l7.26-12.143c16.89-8.758 56.72-13.202 92.664-13.25"/>
  <path fill="none" stroke="#231f20" stroke-linecap="round" stroke-linejoin="round" stroke-miterlimit="2.613" stroke-width=".649" d="m366.084 165.468 4.139 6.645"/>
  <path fill="#fff200" stroke="#231f20" stroke-linecap="round" stroke-linejoin="round" stroke-miterlimit="2.613" stroke-width=".65" d="M270.666 148.457c22.807-.062 45.325 1.21 62.878 4.365 13.844 2.695 27.535 6.903 32.548 10.646l2.636 4.19c-4.482-4.982-21.358-9.704-36.255-12.348-17.418-3.005-39.001-4.194-61.807-4.383-23.934.065-46.053 1.53-63.218 4.658-16.375 3.114-26.942 6.804-31.413 9.683l2.319-3.5c6.17-3.248 16.138-6.23 28.69-8.668 17.293-3.15 39.548-4.577 63.622-4.643m.01 9.617c23.832-.064 46.86 1.281 65.174 4.586 17.055 3.174 33.32 7.936 35.646 10.501l1.802 3.185c-5.657-3.694-19.731-7.804-37.803-11.233-18.15-3.408-41.162-4.54-64.86-4.478-26.9-.09-47.798 1.327-65.733 4.454-18.968 3.55-32.128 8.62-35.375 11.028l1.768-3.367c6.308-3.219 16.316-7.097 33.136-10.125 18.546-3.389 39.667-4.406 66.246-4.552"/>
  <path fill="#fff200" d="M326.446 272.185c-20.658-3.857-41.353-4.416-55.807-4.246-69.63.815-92.123 14.296-94.868 18.377l-5.204-8.481c17.727-12.851 55.645-20.056 100.45-19.32 23.265.382 43.342 1.926 60.23 5.197Z"/>
  <path fill="none" stroke="#231f20" stroke-linecap="round" stroke-linejoin="round" stroke-miterlimit="2.613" stroke-width=".65" d="m171.722 279.01 3.416 5.88"/>
  <path fill="#fff200" stroke="#231f20" stroke-linecap="round" stroke-linejoin="round" stroke-miterlimit="2.613" stroke-width=".65" d="M271.119 256.995c20.068.375 40.792 1.304 60.937 5.293l-1.385 2.442c-18.19-3.61-35.568-4.813-59.433-5.181-25.78.047-53.124 1.885-77.988 9.113-8.027 2.338-21.881 7.393-22.344 11.393l-1.322-2.341c.3-3.635 12.295-8.376 23.084-11.516 25.056-7.284 52.473-9.156 78.45-9.203m-.877 9.745c19.368.29 38.382 1.092 56.732 4.513l-1.33 2.346c-17.043-3.148-35.212-4.35-55.337-4.253-25.698-.2-51.69 2.2-74.317 8.694-7.14 1.985-18.961 6.575-20.166 10.369l-1.323-2.18c.382-2.242 7.527-6.893 20.88-10.645 25.919-7.422 50.163-8.674 74.86-8.844"/>
  <path fill="#fff200" d="M176.485 162.487c34.492-.447 193.794 97.34 194.264 115.348l-9.87 15.126c-4.448-20.906-166.094-116.066-192.76-114.272z"/>
  <path fill="none" stroke="#231f20" stroke-linecap="round" stroke-linejoin="round" stroke-miterlimit="2.613" stroke-width=".648" d="m176.23 163.342-7.784 14.421m201.577 101.354-8.366 12.984"/>
  <path fill="#fff200" stroke="#231f20" stroke-linecap="round" stroke-linejoin="round" stroke-miterlimit="2.613" stroke-width=".648" d="M371.737 278.94c4.047-7.996-39.593-40.87-93.697-72.876-55.35-31.368-95.24-49.834-102.528-44.329l-1.62 2.947c-.013.163.06-.2.402-.464 1.325-1.158 3.52-1.079 4.512-1.098 12.548.188 48.38 16.68 98.657 45.501 22.029 12.831 93.06 58.382 92.79 71.193.019 1.103.09 1.328-.323 1.873zM167.132 178.11c6.403-4.34 53.45 16.617 102.68 46.301 49.099 29.768 96.017 63.405 91.782 69.701l-1.394 2.192-.64.505c.138-.099.844-.96-.068-3.295-2.093-6.882-35.372-33.44-90.593-66.78-53.832-32.099-98.697-51.443-103.182-45.915Z"/>
  <path fill="#fff" stroke="#231f20" stroke-miterlimit="2.613" stroke-width=".76" d="M203.357 237.88c0 18.447 7.555 35.135 19.796 47.33 12.264 12.22 28.928 19.933 47.407 19.933 18.575 0 35.43-7.545 47.643-19.718 12.21-12.171 19.779-28.972 19.78-47.485h-.001v-89.79l-134.64-.16Z"/>
  <path fill="#ed1c24" stroke="#231f20" stroke-miterlimit="2.613" stroke-width=".574" d="m309.088 177.064.005 55.436-.048 5.863c0 1.544-.092 3.303-.271 4.8-1.05 8.766-5.08 16.403-11.05 22.347-6.99 6.959-16.636 11.27-27.267 11.27-10.575 0-20.001-4.464-27.02-11.45-7.2-7.165-11.373-16.991-11.373-27.152l-.015-61.253zm-103.211 60.943v.05c0 17.639 7.306 33.704 19.023 45.366 11.74 11.684 27.91 18.949 45.599 18.949 17.78 0 33.917-7.214 45.607-18.852 11.689-11.64 18.934-27.704 18.936-45.406h-.002v-87.108l-129.084-.022z"/>
  <g id="quina">
    <path fill="#2e2c70" d="M262.365 228.122v.006c0 2.51.963 4.794 2.508 6.452 1.548 1.661 3.68 2.693 6.012 2.693 2.344 0 4.472-1.025 6.013-2.68s2.496-3.94 2.496-6.456v-12.21l-17-.012z"/>
    <path fill="none" stroke="#fff" stroke-linecap="round" stroke-width="3.365" d="M275.69 220.558v0m-4.724 4.536v0m4.725 4.74v0m-9.23 0v0m0-9.276v0"/>
  </g>
  <use href="#quina" transform="translate(0 29.233)"/>
  <use href="#quina" transform="translate(-23.583)"/>
  <use href="#quina" transform="translate(23.525)"/>
  <use href="#quina" transform="translate(0 -29.499)"/>
  <g id="castle">
    <path fill="#fff200" d="M214.237 173.733c.153-6.26 4.595-7.744 4.627-7.765.03-.02 4.797 1.596 4.782 7.822z"/>
    <path fill="#fff200" stroke="#231f20" stroke-miterlimit="2.613" stroke-width=".566" d="m210.402 166.082-.773 7.193 4.694.01c.045-5.95 4.507-6.941 4.615-6.92.1-.006 4.523 1.316 4.64 6.92l4.708.002-.851-7.25zm-1.087 7.227h19.215c.405 0 .736.4.736.888 0 .489-.331.889-.736.889h-19.215c-.405 0-.737-.4-.737-.89 0-.487.332-.887.737-.887z"/>
    <path fill="none" stroke="#231f20" stroke-miterlimit="2.613" stroke-width=".566" d="M216.304 173.274c.02-3.756 2.565-4.818 2.578-4.816 0 0 2.656 1.096 2.677 4.817z"/>
    <path fill="#fff200" stroke="#231f20" stroke-miterlimit="2.613" stroke-width=".566" d="M209.72 163.099h18.42c.388 0 .706.36.706.799s-.318.798-.706.798h-18.42c-.39 0-.706-.36-.706-.798s.317-.8.706-.8zm.388 1.599h17.62c.37 0 .676.36.676.798 0 .44-.305.8-.676.8h-17.62c-.371 0-.675-.36-.675-.8 0-.439.304-.799.675-.799zm5.694-12.001 1.39.001v.99h1.016v-1.011l1.426.004v1.006h1.019l-.001-1.01h1.426l-.002 2.282c-.001.357-.29.589-.622.589h-5.002c-.336 0-.646-.268-.647-.596zm5.24 3.052.314 7.316-4.88-.018.324-7.315zm.814.524 1.36.002v.989h.995v-1.011l1.395.004v1.007h.997l-.001-1.011h1.395l-.002 2.282c0 .357-.281.589-.607.589h-4.896c-.33 0-.633-.268-.633-.597zm5.258 2.852.149 3.943-4.68.002.133-3.945zm-17.287-2.841 1.36.002v.989h.994v-1.011l1.396.004v1.007h.997l-.001-1.01h1.396l-.003 2.28c0 .357-.282.59-.608.59h-4.895c-.33 0-.633-.268-.634-.597zm5.258 2.852.149 3.943-4.68.002.133-3.946z"/>
    <path fill="#231f20" d="M218.439 158.058c-.03-.711.994-.718.982 0v1.744h-.982zm6.02 2.522c-.003-.688.949-.703.937 0v1.344h-.937zm-12.066.012c-.003-.688.949-.703.937 0v1.345h-.937z"/>
  </g>
  <use href="#castle" transform="translate(51.835)"/>
  <use href="#castle" transform="translate(103.093)"/>
  <use href="#castle" transform="translate(0 52.51)"/>
  <use href="#castle" transform="rotate(45 135.583 327.444)"/>
  <use href="#castle" transform="translate(103.015 52.52)"/>
  <use href="#castle" transform="rotate(-45 353.857 202.654)"/>
</svg>
