<svg xmlns="http://www.w3.org/2000/svg" xmlns:xlink="http://www.w3.org/1999/xlink" width="1103" height="538">
  <defs>
    <pattern xlink:href="#pattern5252" id="pattern1876" patternTransform="translate(604.71 537.66)"/>
    <pattern xlink:href="#pattern5250" id="pattern5255" patternTransform="matrix(9.7434 0 0 10.862 -692.45 -355.09)"/>
    <pattern xlink:href="#Checkerboard" id="pattern5250" patternTransform="matrix(9.7434 0 0 10.862 3.952 178.41)"/>
    <pattern id="Checkerboard" width="2" height="2" patternTransform="scale(10)" patternUnits="userSpaceOnUse">
      <path d="M0 0h1v1H0zm1 1h1v1H1z"/>
    </pattern>
    <pattern id="pattern5252" width="23.063" height="77.094" patternTransform="translate(696.41 533.5)" patternUnits="userSpaceOnUse">
      <rect width="22.025" height="76.056" x=".52" y=".518" fill="url(#pattern5255)" stroke="#000" stroke-width="1.029" ry="0"/>
    </pattern>
  </defs>
  <g fill="none">
    <g stroke="#b2b2b2">
      <path stroke-width="12.402" d="M559.8 353.34s11.431-5.495 16.351-9.412c2.747-2.187 5.355-4.712 7.167-7.719 2.011-3.335 3.272-7.567 3.86-11.027s.559-6.29 0-9.372-1.927-5.96-3.308-8.822-5.352-9.44-5.352-9.44"/>
      <path stroke-miterlimit="4.2" stroke-width="11.693" d="M427.55 262.72s-17.499-8.875-21.703-13.071-6.941-6.558-8.888-11.027-3.582-10.489-3.308-15.437 2.19-9.032 4.41-13.232 5.391-8.147 8.822-11.578 12.748-8.432 12.748-8.432"/>
      <path stroke-width="12.047" d="M812.8 294.6s1.88 1.747 13.004-4.21 48.624-38.538 48.624-38.538 3.172-3.611 4.64-8.66c1.466-5.049 0-13.043 0-13.043M1023.8 274.84s3.897 10.702 3.308 24.983-34.734 137.28-34.734 137.28-2.781 10.948-7.073 18.3-10.113 10.637-10.113 10.637"/>
    </g>
    <path stroke="#000" stroke-width="4.606" d="m844.65 477.35-81.598-13.232-396.96-1.654-89.317-2.757-106.22 10.381"/>
  </g>
  <path fill="red" stroke="red" stroke-width=".743" d="m388.169 167.765 2.897-16.804 34.766 16.224z"/>
  <path fill="none" stroke="#000" stroke-width="13.819" d="M56.788 337.31c.954-4.956 5.513-13.783 5.513-13.783l47.966-82.149s6.825-8.232 10.475-9.373 6.157-2.347 9.212-1.626c3.054.72 6.82 3.51 8.983 6.037s3.859 8.27 3.859 8.27l17.643 67.263s5.642 10.164 9.373 14.335 8.786 8.19 12.68 10.475 4.618 2.448 9.925 3.86 22.054 3.307 22.054 3.307l65.609 2.757 86.009 3.86 71.674 3.307h82.7l69.47-2.205 44.658.552s7.723-1.182 10.475-3.86 4.269-7.22 4.41-11.027-1.245-7.598-3.307-10.475-8.27-6.065-8.27-6.065l-152.17-58.993s-11.484-2.448-18.746-2.662-14.005.665-24.81 1.56-39.696 6.616-39.696 6.616l-92.625 13.783s-9.015-.13-15.437-2.206-11.89-3.615-22.054-11.578-44.658-70.57-44.658-70.57-3.08-7.45-1.103-17.644 4.236-10.835 9.373-15.827 19.848-5.123 19.848-5.123 60.867 8.607 97.587 15.989 122.4 29.22 122.4 29.22 15.393 2.666 23.156 2.758c7.763.091 15.874-.117 23.156-2.206s12.446-5.07 19.848-9.924 23.708-19.848 23.708-19.848 80.87-88.476 86.009-92.074 7.017-7.407 18.612-11.255 16.613-3.818 24.944-4.734 20.206-.325 27.016.552 9.538.58 13.783 3.308 7.942 7.796 9.924 12.68 1.654 15.438 1.654 15.438l-.552 121.85s-.117 10.439 2.206 17.643 3.888 16.378 12.68 27.016 13.774 12.468 19.849 16.54 105.6 47.847 110.82 49.069 11.459 1.64 15.989 0 8.723-3.942 11.484-7.49 3.648-8.513 4.505-13.46.26-12.134-1.654-15.99-71.123-103.65-71.123-103.65-4.7-14.178-3.308-21.502 4.795-15.073 10.02-19.848 12.773-8.392 19.981-10.609c7.702-2.369 15.986-3.085 24.031-2.623 8.279.476 17.061 1.768 24.26 5.514s13.111 10.919 17.642 15.989 9.924 13.783 9.924 13.783l73.88 110.82s9.308 19.5 12.128 29.22 4.493 18.208 4.962 28.67-.835 23.3-2.756 33.633-3.934 18.336-8.27 28.118-11.43 20.747-18.195 29.772-10.484 15.578-22.053 24.259-27.362 18.913-48.518 23.708-15.975 2.207-38.594 2.757-97.036-2.206-97.036-2.206l-682.01-7.167s-18.077-.708-23.708-3.308-8.078-5.205-9.924-8.822"/>
  <path fill="#fff" d="M725.009 433.245h22.605v76.636h-22.605z"/>
  <path fill="red" stroke="red" d="m800.009 507.955.04-14.893-45.843 7.497z"/>
  <g fill="#fff" stroke="#000" stroke-linecap="round" stroke-width="1.417" transform="translate(28.649 -99.655)">
    <path d="M64.46 588.37a13.645 14.035 0 0 1-13.645 14.035A13.645 14.035 0 0 1 37.17 588.37a13.645 14.035 0 0 1 13.645-14.035A13.645 14.035 0 0 1 64.46 588.37zM10.73 436.495A13.645 14.035 0 0 1-2.915 450.53a13.645 14.035 0 0 1-13.645-14.035A13.645 14.035 0 0 1-2.915 422.46a13.645 14.035 0 0 1 13.645 14.035zM88.7 305.5a13.645 14.035 0 0 1-13.645 14.035A13.645 14.035 0 0 1 61.41 305.5a13.645 14.035 0 0 1 13.645-14.035A13.645 14.035 0 0 1 88.7 305.5zm57.699 144.25a13.645 14.035 0 0 1-13.645 14.035 13.645 14.035 0 0 1-13.645-14.035 13.645 14.035 0 0 1 13.645-14.035 13.645 14.035 0 0 1 13.645 14.035zm502.911 23.391a13.645 14.035 0 0 1-13.645 14.035 13.645 14.035 0 0 1-13.645-14.035 13.645 14.035 0 0 1 13.645-14.035 13.645 14.035 0 0 1 13.645 14.035zm-189.52-88.349a13.645 14.035 0 0 1-13.645 14.035 13.645 14.035 0 0 1-13.645-14.035 13.645 14.035 0 0 1 13.645-14.035 13.645 14.035 0 0 1 13.645 14.035zm-180.76 17.343a13.645 14.035 0 0 1-13.645 14.035 13.645 14.035 0 0 1-13.645-14.035 13.645 14.035 0 0 1 13.645-14.035 13.645 14.035 0 0 1 13.645 14.035zM206.561 234.74a13.645 14.035 0 0 1-13.645 14.035 13.645 14.035 0 0 1-13.645-14.035 13.645 14.035 0 0 1 13.645-14.035 13.645 14.035 0 0 1 13.645 14.035z"/>
    <ellipse cx="604.76" cy="155.2" rx="13.645" ry="14.035"/>
    <path d="M713.25 368.66a13.645 14.035 0 0 1-13.645 14.035 13.645 14.035 0 0 1-13.645-14.035 13.645 14.035 0 0 1 13.645-14.035 13.645 14.035 0 0 1 13.645 14.035zm192.59 84.209a13.645 14.035 0 0 1-13.645 14.035 13.645 14.035 0 0 1-13.645-14.035 13.645 14.035 0 0 1 13.645-14.035 13.645 14.035 0 0 1 13.645 14.035zM826.19 227.83a13.645 14.035 0 0 1-13.645 14.035A13.645 14.035 0 0 1 798.9 227.83a13.645 14.035 0 0 1 13.645-14.035 13.645 14.035 0 0 1 13.645 14.035zm222.33 283.517a13.645 14.035 0 0 1-13.645 14.035 13.645 14.035 0 0 1-13.645-14.035 13.645 14.035 0 0 1 13.645-14.035 13.645 14.035 0 0 1 13.645 14.035z"/>
  </g>
  <path d="m76.428 481.615 3.867-1.887h.387v13.418q0 1.336.105 1.664.118.329.47.504.35.176 1.429.2v.433h-5.977v-.433q1.125-.024 1.453-.188.328-.176.457-.457.13-.293.13-1.723v-8.578q0-1.734-.118-2.226-.082-.375-.305-.551-.21-.176-.515-.176-.434 0-1.207.363z" aria-label="1"/>
  <path d="m31.276 340.405-1.113 3.059h-9.375v-.434q4.137-3.773 5.824-6.164t1.688-4.371q0-1.512-.926-2.485t-2.215-.972q-1.172 0-2.11.691-.925.68-1.37 2.004h-.434q.293-2.168 1.5-3.328 1.219-1.16 3.035-1.16 1.934 0 3.223 1.242 1.3 1.242 1.3 2.93 0 1.207-.562 2.414-.867 1.898-2.812 4.02-2.918 3.187-3.645 3.843h4.148q1.266 0 1.77-.094.516-.093.926-.375.41-.293.715-.82z" aria-label="2"/>
  <path d="M98.292 200.385q.68-1.605 1.71-2.473 1.044-.879 2.59-.879 1.91 0 2.93 1.243.774.925.774 1.98 0 1.735-2.18 3.586 1.465.574 2.215 1.64.75 1.067.75 2.508 0 2.063-1.313 3.575-1.71 1.968-4.957 1.968-1.605 0-2.191-.398-.574-.398-.574-.856 0-.34.27-.597.28-.258.667-.258.293 0 .598.094.2.058.902.433.703.364.973.434.434.129.926.129 1.195 0 2.074-.926.89-.926.89-2.191 0-.926-.41-1.805-.304-.656-.668-.996-.503-.469-1.382-.844-.88-.387-1.793-.387h-.375v-.351q.925-.117 1.851-.668.938-.55 1.36-1.324t.422-1.7q0-1.207-.762-1.945-.75-.75-1.875-.75-1.817 0-3.035 1.945z" aria-label="3"/>
  <path d="M167.109 351.635v1.664h-2.133v4.195h-1.933V353.3h-6.727v-1.5l7.371-10.523h1.29v10.36zm-4.066 0v-7.887l-5.578 7.887z" aria-label="4"/>
  <path d="m668.099 364.215-.914 1.992h-4.781l-1.043 2.133q3.105.457 4.922 2.309 1.558 1.593 1.558 3.75 0 1.254-.515 2.32-.504 1.066-1.278 1.816t-1.722 1.207q-1.348.645-2.766.645-1.43 0-2.086-.48-.644-.493-.644-1.079 0-.328.27-.574.269-.258.679-.258.305 0 .527.094.235.094.785.48.88.61 1.782.61 1.37 0 2.402-1.031 1.043-1.043 1.043-2.532 0-1.441-.926-2.683-.926-1.254-2.555-1.934-1.277-.527-3.48-.61l3.047-6.175z" aria-label="5"/>
  <path d="M479.479 276.875v.434q-1.547.152-2.531.62-.973.458-1.934 1.407-.949.95-1.582 2.121-.62 1.16-1.043 2.766 1.688-1.16 3.387-1.16 1.629 0 2.824 1.312t1.195 3.375q0 1.992-1.207 3.633-1.453 1.992-3.843 1.992-1.63 0-2.766-1.078-2.227-2.098-2.227-5.438 0-2.133.856-4.054.855-1.922 2.437-3.41 1.594-1.489 3.047-2.005t2.707-.515zm-7.29 8.203q-.21 1.582-.21 2.555 0 1.125.41 2.449.422 1.313 1.242 2.086.598.55 1.453.55 1.02 0 1.817-.96.808-.961.808-2.742 0-2.004-.796-3.47-.797-1.464-2.262-1.464-.445 0-.961.187-.504.188-1.5.809" aria-label="6"/>
  <path d="M291.699 294.385h8.52v.445l-5.297 15.773h-1.313l4.746-14.309h-4.37q-1.325 0-1.888.317-.984.539-1.582 1.664l-.34-.13z" aria-label="7"/>
  <path d="M220.319 135.745q-1.887-1.547-2.437-2.484-.54-.938-.54-1.946 0-1.547 1.196-2.66 1.195-1.125 3.176-1.125 1.921 0 3.093 1.043t1.172 2.379q0 .89-.633 1.816t-2.636 2.18q2.062 1.594 2.73 2.508.89 1.195.89 2.52 0 1.675-1.277 2.87-1.277 1.184-3.351 1.184-2.262 0-3.527-1.418-1.008-1.137-1.008-2.484 0-1.055.703-2.086.715-1.043 2.45-2.297zm1.84-1.254q1.406-1.265 1.781-1.992.375-.738.375-1.664 0-1.23-.691-1.922-.692-.703-1.887-.703t-1.945.691-.75 1.617q0 .61.304 1.22.317.609.89 1.16zm-1.29 1.7q-.972.82-1.44 1.792-.47.961-.47 2.086 0 1.512.82 2.426.833.902 2.11.902 1.266 0 2.028-.714.761-.715.761-1.735 0-.844-.445-1.512-.832-1.242-3.363-3.246" aria-label="8"/>
  <path d="m624.299 48.625 3.867-1.887h.387v13.418q0 1.336.105 1.664.118.329.47.504.35.176 1.429.2v.433h-5.977v-.433q1.125-.024 1.453-.188.328-.176.457-.457.13-.293.13-1.723v-8.578q0-1.734-.118-2.226-.082-.375-.305-.551-.21-.176-.515-.176-.434 0-1.207.363zm10.05 6.48q0-2.719.82-4.676.82-1.969 2.18-2.93 1.055-.761 2.18-.761 1.828 0 3.28 1.863 1.817 2.309 1.817 6.258 0 2.765-.797 4.7-.796 1.933-2.039 2.812-1.23.867-2.379.867-2.273 0-3.785-2.684-1.277-2.262-1.277-5.449m2.297.293q0 3.281.808 5.355.668 1.747 1.993 1.747.633 0 1.312-.563.68-.574 1.031-1.91.54-2.016.54-5.684 0-2.719-.563-4.535-.422-1.348-1.09-1.91-.48-.387-1.16-.387-.797 0-1.418.715-.844.973-1.148 3.059t-.305 4.113" aria-label="10"/>
  <path d="m718.589 261.685 3.867-1.887h.387v13.418q0 1.336.105 1.664.118.329.47.504t1.429.2v.433h-5.977v-.433q1.125-.024 1.453-.188.328-.176.457-.457.13-.293.13-1.723v-8.578q0-1.734-.118-2.226-.082-.375-.305-.551-.21-.176-.515-.176-.434 0-1.207.363zm20.19 11.27-1.113 3.059h-9.375v-.434q4.136-3.773 5.824-6.164t1.687-4.371q0-1.512-.925-2.485-.926-.972-2.215-.972-1.172 0-2.11.691-.925.68-1.37 2.004h-.434q.293-2.168 1.5-3.328 1.219-1.16 3.035-1.16 1.934 0 3.223 1.242 1.3 1.242 1.3 2.93 0 1.207-.562 2.414-.867 1.898-2.813 4.02-2.918 3.187-3.644 3.843h4.148q1.266 0 1.77-.094.515-.093.926-.375.41-.293.714-.82z" aria-label="12"/>
  <path d="m911.959 347.065 3.867-1.887h.387v13.418q0 1.336.105 1.664.118.329.47.504.35.176 1.429.2v.433h-5.977v-.433q1.125-.024 1.453-.188.328-.176.457-.457.13-.293.13-1.723v-8.578q0-1.734-.118-2.226-.082-.375-.305-.551-.21-.176-.515-.176-.434 0-1.207.363zm10.4 1.46q.68-1.605 1.71-2.473 1.044-.879 2.59-.879 1.91 0 2.93 1.243.774.925.774 1.98 0 1.735-2.18 3.586 1.465.574 2.215 1.64.75 1.067.75 2.508 0 2.063-1.313 3.575-1.71 1.968-4.957 1.968-1.605 0-2.191-.398-.574-.398-.574-.856 0-.34.27-.597.28-.258.667-.258.293 0 .598.094.2.058.902.433.703.364.973.434.434.129.926.129 1.195 0 2.074-.926.89-.926.89-2.191 0-.926-.41-1.805-.304-.656-.668-.996-.503-.469-1.382-.844-.88-.387-1.793-.387h-.375v-.351q.925-.117 1.851-.668.938-.55 1.36-1.324t.422-1.7q0-1.207-.762-1.945-.75-.75-1.875-.75-1.817 0-3.035 1.945z" aria-label="13"/>
  <path d="m831.519 122.185 3.867-1.887h.387v13.418q0 1.336.105 1.664.118.329.47.504.35.176 1.429.2v.433H831.8v-.433q1.125-.024 1.453-.188.328-.176.457-.457.13-.293.13-1.723v-8.578q0-1.734-.118-2.226-.082-.375-.305-.551-.21-.176-.515-.176-.434 0-1.207.363zm20.36 8.47v1.664h-2.133v4.195h-1.933v-4.195h-6.727v-1.5l7.371-10.523h1.29v10.36zm-4.066 0v-7.887l-5.579 7.887z" aria-label="14"/>
  <path d="m1053.849 405.545 3.867-1.887h.387v13.418q0 1.336.105 1.664.118.329.47.504.35.176 1.429.2v.433h-5.977v-.433q1.125-.024 1.453-.188.328-.176.457-.457.13-.293.13-1.723v-8.578q0-1.734-.118-2.226-.082-.375-.305-.551-.21-.176-.515-.176-.434 0-1.207.363zm19.6-1.56-.914 1.992h-4.781l-1.043 2.133q3.105.457 4.922 2.309 1.558 1.593 1.558 3.75 0 1.254-.515 2.32-.504 1.066-1.278 1.816t-1.722 1.207q-1.348.645-2.766.645-1.43 0-2.086-.48-.644-.493-.644-1.079 0-.328.269-.574.27-.258.68-.258.304 0 .527.094.234.094.785.48.88.61 1.781.61 1.372 0 2.403-1.031 1.043-1.043 1.043-2.532 0-1.441-.926-2.683-.926-1.254-2.555-1.934-1.277-.527-3.48-.61l3.047-6.175z" aria-label="15"/>
  <path d="M104.162 493.615v4.629q0 1.5.328 1.863.445.516 1.348.516h.61v.433h-6.81v-.433h.598q1.008 0 1.442-.656.234-.364.234-1.723v-10.266q0-1.5-.316-1.863-.457-.516-1.36-.516h-.597v-.434h5.824q2.133 0 3.363.446 1.23.433 2.074 1.476t.844 2.473q0 1.945-1.29 3.164-1.276 1.219-3.62 1.219-.574 0-1.242-.082t-1.43-.246m0-.668q.621.117 1.102.176.48.058.82.058 1.219 0 2.098-.937.89-.95.89-2.45 0-1.03-.422-1.91-.422-.89-1.195-1.324-.773-.445-1.758-.445-.597 0-1.535.223zm12.317-2.942v2.414q1.348-2.414 2.766-2.414.644 0 1.066.398.422.387.422.903 0 .457-.305.773-.304.317-.726.317-.41 0-.926-.399-.504-.41-.75-.41-.211 0-.457.234-.528.48-1.09 1.582v5.145q0 .89.223 1.347.152.317.539.528.386.21 1.113.21v.423h-5.496v-.422q.82 0 1.219-.258.293-.188.41-.598.058-.199.058-1.136v-4.16q0-1.876-.082-2.227-.07-.363-.28-.528-.2-.164-.505-.164-.363 0-.82.176l-.117-.422 3.246-1.312zm7.582-5.61q.492 0 .832.352.352.34.352.832t-.352.843q-.34.352-.832.352t-.844-.352-.351-.843.34-.832q.351-.352.855-.352m.973 5.613v8.625q0 1.008.14 1.348.153.328.434.492.293.164 1.055.164v.422h-5.215v-.422q.785 0 1.054-.152.27-.153.422-.504.164-.352.164-1.348v-4.136q0-1.747-.105-2.262-.082-.375-.258-.516-.176-.152-.48-.152-.328 0-.797.176l-.164-.422 3.234-1.313zm6.155 2.287q1.172-1.172 1.383-1.348.527-.445 1.137-.691.609-.246 1.207-.246 1.007 0 1.734.586.726.586.973 1.699 1.207-1.406 2.039-1.84.832-.445 1.71-.445.856 0 1.512.445.668.434 1.055 1.43.258.68.258 2.133v4.617q0 1.008.152 1.383.117.258.434.445.316.176 1.03.176v.422h-5.296v-.422h.223q.691 0 1.078-.27.27-.187.386-.597.047-.2.047-1.137v-4.617q0-1.313-.316-1.852-.457-.75-1.465-.75-.62 0-1.254.317-.62.304-1.511 1.148l-.024.129.024.504v5.12q0 1.102.117 1.372.129.27.469.457.34.176 1.16.176v.422h-5.426v-.422q.89 0 1.219-.211.34-.211.468-.633.06-.2.06-1.16v-4.617q0-1.313-.388-1.887-.515-.75-1.441-.75-.633 0-1.254.34-.973.515-1.5 1.16v5.754q0 1.055.14 1.371.153.316.434.48.293.153 1.172.153v.422h-5.308v-.422q.738 0 1.03-.153.294-.164.446-.503.153-.352.153-1.348v-4.102q0-1.77-.106-2.285-.082-.387-.258-.527-.176-.153-.48-.153-.328 0-.785.176l-.176-.422 3.234-1.312h.504zm17.28 2.07q-.012 2.39 1.16 3.75t2.754 1.36q1.055 0 1.828-.575.785-.586 1.313-1.992l.363.234q-.246 1.606-1.43 2.93-1.183 1.313-2.965 1.313-1.933 0-3.316-1.5-1.371-1.512-1.371-4.055 0-2.754 1.406-4.29 1.418-1.546 3.551-1.546 1.805 0 2.965 1.195 1.16 1.184 1.16 3.176zm0-.68h4.969q-.059-1.03-.246-1.453-.293-.656-.88-1.031-.573-.375-1.206-.375-.973 0-1.746.762-.762.75-.89 2.097zm11.58-9.29q.492 0 .832.352.352.34.352.832t-.352.843q-.34.352-.832.352t-.844-.352-.351-.843.34-.832q.351-.352.855-.352m.973 5.613v8.625q0 1.008.14 1.348.153.328.434.492.293.164 1.055.164v.422h-5.215v-.422q.785 0 1.054-.152.27-.153.422-.504.164-.352.164-1.348v-4.136q0-1.747-.105-2.262-.082-.375-.258-.516-.176-.152-.48-.152-.328 0-.797.176l-.164-.422 3.234-1.313zm6.107-.003v2.414q1.348-2.414 2.766-2.414.644 0 1.066.398.422.387.422.903 0 .457-.305.773-.305.317-.726.317-.41 0-.926-.399-.504-.41-.75-.41-.211 0-.457.234-.528.48-1.09 1.582v5.145q0 .89.223 1.347.152.317.539.528.386.21 1.113.21v.423h-5.496v-.422q.82 0 1.219-.258.293-.188.41-.598.058-.199.058-1.136v-4.16q0-1.876-.082-2.227-.07-.363-.28-.528-.2-.164-.505-.164-.363 0-.82.176l-.117-.422 3.246-1.312zm10.93 9.51q-1.652 1.277-2.074 1.477-.633.293-1.348.293-1.113 0-1.84-.762-.715-.762-.715-2.004 0-.785.352-1.36.48-.796 1.664-1.5 1.195-.703 3.961-1.71v-.422q0-1.606-.516-2.203-.504-.598-1.476-.598-.738 0-1.172.398-.445.399-.445.915l.023.68q0 .538-.281.831-.27.293-.715.293-.434 0-.715-.304-.27-.305-.27-.833 0-1.007 1.032-1.851t2.894-.844q1.43 0 2.344.48.691.364 1.02 1.137.21.504.21 2.063v3.644q0 1.536.06 1.887.058.34.187.457.14.117.316.117.187 0 .328-.082.246-.152.95-.855v.656q-1.313 1.758-2.509 1.758-.574 0-.914-.399t-.351-1.359m0-.762v-4.09q-1.77.704-2.285.997-.926.515-1.324 1.078t-.399 1.23q0 .844.504 1.406.504.551 1.16.551.89 0 2.344-1.172" aria-label="Primeira"/>
  <path d="m139.46 208.87.387.082-1.36 4.313h-12.305v-.434h.598q1.008 0 1.441-.656.246-.375.246-1.735v-10.254q0-1.488-.328-1.863-.457-.516-1.36-.516h-.597v-.433h7.196v.433q-1.266-.011-1.782.235-.504.246-.691.62t-.188 1.794v9.984q0 .973.188 1.336.14.246.434.363t1.828.118h1.16q1.828 0 2.566-.27.739-.27 1.348-.95.61-.69 1.219-2.167m7.74 2.84q-1.652 1.277-2.074 1.477-.633.293-1.348.293-1.113 0-1.84-.762-.715-.762-.715-2.004 0-.785.352-1.36.48-.796 1.664-1.5 1.195-.703 3.961-1.71v-.422q0-1.606-.516-2.203-.504-.598-1.476-.598-.738 0-1.172.398-.445.399-.445.915l.023.68q0 .538-.281.831-.27.293-.715.293-.434 0-.715-.304-.27-.305-.27-.833 0-1.007 1.032-1.851t2.894-.844q1.43 0 2.344.48.691.364 1.02 1.137.21.504.21 2.063v3.644q0 1.536.059 1.887.059.34.188.457.14.117.316.117.187 0 .328-.082.246-.152.95-.855v.656q-1.313 1.758-2.509 1.758-.574 0-.914-.399t-.351-1.359m0-.762v-4.09q-1.77.704-2.285.997-.926.515-1.324 1.078t-.399 1.23q0 .844.504 1.406.504.551 1.16.551.89 0 2.344-1.172m7.44-1.598q-.984-.48-1.512-1.336-.527-.867-.527-1.91 0-1.594 1.195-2.742 1.207-1.149 3.082-1.149 1.535 0 2.66.75h2.274q.504 0 .586.035.082.024.117.094.07.106.07.375 0 .305-.058.422-.036.059-.13.094-.081.035-.585.035h-1.395q.657.844.657 2.156 0 1.5-1.149 2.567t-3.082 1.066q-.797 0-1.629-.234-.515.445-.703.785-.176.328-.176.562 0 .2.188.387.2.187.762.27.328.046 1.64.082 2.414.058 3.13.164 1.089.152 1.733.808.657.656.657 1.617 0 1.325-1.242 2.485-1.829 1.71-4.77 1.71-2.262 0-3.82-1.019-.88-.586-.88-1.219 0-.28.13-.562.199-.434.82-1.207.082-.106 1.195-1.266-.609-.363-.867-.644-.246-.293-.246-.657 0-.41.328-.96.34-.551 1.547-1.559m2.04-6.574q-.868 0-1.454.691-.586.692-.586 2.121 0 1.852.797 2.871.61.774 1.547.774.89 0 1.465-.668t.574-2.098q0-1.863-.809-2.918-.597-.773-1.535-.773m-2.157 10.488q-.55.597-.832 1.113t-.281.95q0 .562.68.984 1.171.726 3.386.726 2.11 0 3.105-.75 1.008-.738 1.008-1.582 0-.61-.597-.867-.61-.258-2.414-.305-2.637-.07-4.055-.27m14.498-11.053q2.438 0 3.914 1.852 1.254 1.582 1.254 3.632 0 1.442-.691 2.918-.692 1.477-1.91 2.227-1.208.75-2.696.75-2.426 0-3.855-1.934-1.207-1.629-1.207-3.656 0-1.476.726-2.93.738-1.464 1.934-2.156 1.195-.703 2.531-.703m-.363.762q-.621 0-1.254.375-.621.363-1.008 1.289t-.387 2.379q0 2.344.926 4.043.938 1.699 2.461 1.699 1.137 0 1.875-.938t.738-3.222q0-2.86-1.23-4.5-.832-1.125-2.121-1.125m14.053-.762v3.656h-.387q-.445-1.722-1.148-2.344-.692-.62-1.77-.62-.82 0-1.324.433t-.504.96q0 .657.375 1.126.364.48 1.477 1.02l1.71.831q2.38 1.16 2.38 3.059 0 1.465-1.114 2.367-1.101.89-2.472.89-.985 0-2.25-.35-.387-.118-.633-.118-.27 0-.422.305h-.387v-3.832h.387q.328 1.64 1.254 2.472t2.074.832q.809 0 1.313-.468.515-.48.515-1.149 0-.808-.574-1.36-.562-.55-2.262-1.394t-2.226-1.523q-.528-.668-.528-1.687 0-1.325.903-2.215.914-.89 2.355-.89.633 0 1.535.269.598.175.797.175.188 0 .293-.082t.246-.363z" aria-label="Lagos"/>
  <g aria-label="Torre Vip">
    <path d="m563.569 367.185.176 3.727h-.446q-.128-.985-.351-1.407-.363-.68-.973-.996-.597-.328-1.582-.328h-2.238v12.141q0 1.465.316 1.828.446.492 1.371.492h.551v.434h-6.738v-.434h.562q1.008 0 1.43-.609.258-.375.258-1.71V368.18h-1.91q-1.114 0-1.582.164-.61.223-1.043.856-.434.633-.516 1.71h-.445l.187-3.726zm5.1 4.84q2.438 0 3.914 1.852 1.254 1.582 1.254 3.632 0 1.442-.691 2.918-.692 1.477-1.91 2.227-1.208.75-2.696.75-2.426 0-3.855-1.934-1.207-1.629-1.207-3.656 0-1.476.726-2.93.738-1.464 1.934-2.156 1.195-.703 2.531-.703m-.363.762q-.621 0-1.254.375-.621.363-1.008 1.289t-.387 2.379q0 2.344.926 4.043.938 1.699 2.461 1.699 1.137 0 1.875-.938t.738-3.222q0-2.86-1.23-4.5-.832-1.125-2.121-1.125m10.253-.762v2.414q1.348-2.414 2.766-2.414.644 0 1.066.398.422.387.422.903 0 .457-.305.773-.305.317-.726.317-.41 0-.926-.399-.504-.41-.75-.41-.211 0-.457.234-.528.48-1.09 1.582v5.145q0 .89.223 1.348.152.316.539.527t1.113.21v.423h-5.496v-.422q.82 0 1.219-.258.293-.188.41-.598.058-.199.058-1.136v-4.16q0-1.876-.082-2.227-.07-.363-.28-.528-.2-.164-.505-.164-.363 0-.82.176l-.117-.422 3.246-1.312z"/>
    <path d="M586.549 372.025v2.414q1.348-2.414 2.766-2.414.644 0 1.066.398.422.387.422.903 0 .457-.305.773-.305.317-.726.317-.41 0-.926-.399-.504-.41-.75-.41-.211 0-.457.234-.528.48-1.09 1.582v5.145q0 .89.223 1.348.152.316.539.527t1.113.21v.423h-5.496v-.422q.82 0 1.219-.258.293-.188.41-.598.058-.199.058-1.136v-4.16q0-1.876-.082-2.227-.07-.363-.28-.528-.2-.164-.505-.164-.363 0-.82.176l-.117-.422 3.246-1.312zm6.66 4.36q-.012 2.39 1.16 3.75t2.754 1.36q1.055 0 1.828-.575.785-.586 1.313-1.992l.363.234q-.246 1.606-1.43 2.93-1.183 1.313-2.965 1.313-1.933 0-3.316-1.5-1.371-1.512-1.371-4.055 0-2.754 1.406-4.29 1.418-1.546 3.551-1.546 1.805 0 2.965 1.195 1.16 1.184 1.16 3.176zm0-.68h4.969q-.059-1.03-.246-1.453-.293-.656-.88-1.031-.573-.375-1.206-.375-.973 0-1.746.762-.762.75-.89 2.097zm30.7-8.52v.434q-.844.152-1.277.539-.621.574-1.102 1.757l-5.543 13.523h-.434L609.6 369.74q-.457-1.054-.644-1.289-.293-.363-.727-.562-.422-.211-1.148-.27v-.433h6.492v.433q-1.102.106-1.43.375-.328.27-.328.692 0 .586.54 1.828l4.042 9.316 3.75-9.199q.551-1.36.551-1.887 0-.34-.34-.644-.34-.317-1.148-.446l-.2-.035v-.433zm2.33-.77q.492 0 .832.352.352.34.352.832t-.352.843q-.34.352-.832.352t-.844-.352-.351-.843.34-.832q.351-.352.855-.352m.973 5.613v8.625q0 1.008.14 1.348.153.328.434.492.293.164 1.055.164v.422h-5.215v-.422q.785 0 1.054-.152.27-.152.422-.504.164-.352.164-1.348v-4.136q0-1.747-.105-2.262-.082-.375-.258-.516-.176-.152-.48-.152-.328 0-.797.176l-.164-.422 3.234-1.313zm2.197 1.377 3.305-1.336h.445v2.508q.832-1.418 1.664-1.98.844-.575 1.77-.575 1.617 0 2.695 1.266 1.324 1.547 1.324 4.031 0 2.777-1.594 4.594-1.312 1.488-3.304 1.488-.868 0-1.5-.246-.47-.176-1.055-.703v3.27q0 1.101.129 1.394.14.305.469.48.34.176 1.218.176v.434h-5.625v-.434h.293q.645.012 1.102-.246.223-.129.34-.422.129-.281.129-1.453v-10.148q0-1.043-.094-1.324t-.305-.422q-.199-.14-.55-.14-.282 0-.715.163zm3.75 1.863v4.008q0 1.3.105 1.711.165.68.797 1.195.645.516 1.618.516 1.171 0 1.898-.914.95-1.195.95-3.363 0-2.461-1.079-3.786-.75-.914-1.781-.914-.563 0-1.113.282-.422.21-1.395 1.265"/>
  </g>
  <path d="M252.489 123.685v5.496h-.434q-.21-1.582-.761-2.52-.54-.937-1.547-1.488t-2.086-.55q-1.219 0-2.016.75-.797.738-.797 1.687 0 .727.504 1.324.727.88 3.457 2.344 2.227 1.195 3.036 1.84.82.633 1.253 1.5.446.867.446 1.816 0 1.805-1.406 3.117-1.395 1.301-3.598 1.301-.691 0-1.3-.105-.364-.059-1.513-.422-1.136-.375-1.441-.375-.293 0-.469.176-.164.175-.246.726h-.433v-5.449h.433q.305 1.71.82 2.566.516.844 1.57 1.407 1.067.562 2.333.562 1.465 0 2.308-.773.856-.774.856-1.828 0-.586-.328-1.184-.317-.598-.996-1.113-.457-.352-2.496-1.489-2.04-1.148-2.907-1.828-.855-.68-1.3-1.5t-.446-1.804q0-1.711 1.313-2.942 1.312-1.242 3.34-1.242 1.265 0 2.683.621.656.293.926.293.305 0 .492-.176.2-.187.316-.738zm9.18 14.7q-1.652 1.277-2.074 1.477-.633.293-1.348.293-1.113 0-1.84-.762-.715-.762-.715-2.004 0-.785.352-1.36.48-.796 1.664-1.5 1.195-.703 3.961-1.71v-.422q0-1.606-.516-2.203-.504-.598-1.476-.598-.738 0-1.172.398-.445.399-.445.915l.023.68q0 .538-.281.831-.27.293-.715.293-.434 0-.715-.304-.27-.305-.27-.833 0-1.007 1.032-1.851t2.894-.844q1.43 0 2.344.48.691.364 1.02 1.137.21.504.21 2.063v3.644q0 1.535.059 1.887.059.34.188.457.14.117.316.117.187 0 .328-.082.246-.152.95-.855v.656q-1.313 1.758-2.509 1.758-.574 0-.914-.399-.34-.398-.351-1.359m0-.762v-4.09q-1.77.704-2.285.997-.926.515-1.324 1.078t-.399 1.23q0 .844.504 1.406.504.551 1.16.551.89 0 2.344-1.172m7.75-6.458q1.172-1.172 1.383-1.348.527-.445 1.136-.691.61-.246 1.207-.246 1.008 0 1.735.586.726.586.973 1.699 1.207-1.406 2.039-1.84.832-.445 1.71-.445.856 0 1.512.445.668.434 1.055 1.43.258.68.258 2.133v4.617q0 1.008.152 1.383.117.258.434.445.316.176 1.03.176v.422h-5.296v-.422h.223q.691 0 1.078-.27.27-.187.386-.597.047-.2.047-1.137v-4.617q0-1.313-.316-1.852-.457-.75-1.465-.75-.62 0-1.254.317-.62.304-1.511 1.148l-.024.129.024.504v5.12q0 1.102.117 1.372.129.27.468.457.34.176 1.16.176v.422h-5.425v-.422q.89 0 1.219-.211.34-.211.468-.633.059-.2.059-1.16v-4.617q0-1.313-.387-1.887-.515-.75-1.441-.75-.633 0-1.254.34-.973.515-1.5 1.16v5.754q0 1.055.14 1.37.153.317.434.481.293.153 1.172.153v.422h-5.308v-.422q.738 0 1.03-.153.294-.164.446-.503.152-.352.152-1.348v-4.102q0-1.77-.105-2.285-.082-.387-.258-.527-.176-.153-.48-.153-.328 0-.785.176l-.176-.422 3.234-1.312h.504zm22.42-2.28v3.656h-.387q-.445-1.722-1.148-2.344-.692-.62-1.77-.62-.82 0-1.324.433t-.504.96q0 .657.375 1.126.364.48 1.477 1.02l1.71.831q2.38 1.16 2.38 3.059 0 1.465-1.114 2.367-1.101.89-2.472.89-.985 0-2.25-.35-.387-.118-.633-.118-.27 0-.422.305h-.387v-3.832h.387q.328 1.64 1.254 2.472t2.074.832q.809 0 1.313-.468.515-.48.515-1.149 0-.808-.574-1.36-.562-.55-2.262-1.394t-2.226-1.523q-.528-.668-.528-1.688 0-1.324.903-2.214.914-.891 2.355-.891.633 0 1.535.27.598.175.797.175.188 0 .293-.082.106-.082.246-.363zm11.81.31v6.504q0 1.863.082 2.285.094.41.281.574.2.164.457.164.364 0 .82-.199l.165.41-3.211 1.325h-.528v-2.274q-1.382 1.5-2.109 1.887t-1.535.387q-.903 0-1.57-.516-.657-.527-.915-1.348t-.257-2.32v-4.793q0-.762-.164-1.055t-.493-.445q-.316-.164-1.16-.152v-.434h3.762v7.184q0 1.5.516 1.968.527.47 1.265.47.504 0 1.137-.317.644-.317 1.523-1.207v-6.082q0-.914-.34-1.23-.328-.329-1.382-.352v-.434zm5.72 1.96q1.887-2.273 3.598-2.273.879 0 1.511.445.633.433 1.008 1.441.258.703.258 2.157v4.582q0 1.019.164 1.382.129.293.41.457.293.164 1.067.164v.422h-5.31v-.422h.224q.75 0 1.043-.222.304-.235.421-.68.047-.176.047-1.102v-4.394q0-1.465-.386-2.121-.375-.668-1.278-.668-1.394 0-2.777 1.523v5.66q0 1.09.129 1.348.164.34.445.504.293.152 1.172.152v.422h-5.309v-.422h.235q.82 0 1.101-.41.293-.422.293-1.594v-3.984q0-1.934-.093-2.356-.082-.421-.27-.574-.176-.152-.48-.152-.328 0-.785.176l-.176-.422 3.234-1.313h.504zm11.75 4.87q-.984-.48-1.512-1.336-.527-.867-.527-1.91 0-1.594 1.195-2.742 1.207-1.149 3.082-1.149 1.535 0 2.66.75h2.274q.504 0 .586.035.082.024.117.094.07.106.07.375 0 .305-.058.422-.036.059-.13.094-.081.035-.585.035h-1.395q.657.844.657 2.156 0 1.5-1.149 2.567t-3.082 1.066q-.797 0-1.629-.234-.515.445-.703.785-.176.328-.176.562 0 .2.188.387.2.187.762.27.328.046 1.64.082 2.414.058 3.13.164 1.089.152 1.734.808.656.656.656 1.617 0 1.325-1.242 2.485-1.829 1.71-4.77 1.71-2.262 0-3.82-1.019-.88-.586-.88-1.219 0-.28.13-.562.199-.434.82-1.207.082-.106 1.195-1.266-.609-.363-.867-.644-.246-.293-.246-.657 0-.41.328-.96.34-.551 1.547-1.56zm2.04-6.574q-.868 0-1.454.691-.586.692-.586 2.121 0 1.852.797 2.871.61.774 1.547.774.89 0 1.465-.668t.574-2.098q0-1.863-.809-2.918-.597-.773-1.535-.773m-2.157 10.488q-.55.597-.832 1.113t-.281.95q0 .562.68.984 1.171.726 3.386.726 2.11 0 3.106-.75 1.007-.738 1.007-1.582 0-.61-.597-.867-.61-.258-2.414-.305-2.637-.07-4.055-.27" aria-label="Samsung"/>
  <path d="m446.699 216.305.363 5.402h-.363q-.727-2.425-2.074-3.492-1.348-1.066-3.235-1.066-1.582 0-2.859.808-1.277.797-2.016 2.555-.726 1.758-.726 4.371 0 2.156.691 3.739.692 1.582 2.074 2.425 1.395.844 3.176.844 1.547 0 2.73-.656 1.184-.668 2.602-2.637l.364.234q-1.196 2.122-2.79 3.106-1.593.984-3.785.984-3.949 0-6.117-2.93-1.617-2.179-1.617-5.132 0-2.379 1.066-4.371t2.93-3.082q1.875-1.102 4.09-1.102 1.723 0 3.398.844.492.258.703.258.317 0 .551-.223.305-.316.434-.879zm5.45 5.2v2.414q1.348-2.414 2.766-2.414.644 0 1.066.398.422.387.422.903 0 .457-.305.773-.305.317-.726.317-.41 0-.926-.399-.504-.41-.75-.41-.211 0-.457.234-.528.48-1.09 1.582v5.145q0 .89.223 1.348.152.316.539.527.386.21 1.113.21v.423h-5.496v-.422q.82 0 1.219-.258.293-.188.41-.598.059-.199.059-1.136v-4.16q0-1.876-.082-2.227-.07-.363-.282-.528-.199-.164-.504-.164-.363 0-.82.176l-.117-.422 3.246-1.312zm10.93 9.51q-1.652 1.277-2.074 1.477-.633.293-1.348.293-1.113 0-1.84-.762-.715-.762-.715-2.004 0-.785.352-1.36.48-.796 1.664-1.5 1.195-.703 3.961-1.71v-.422q0-1.606-.516-2.203-.504-.598-1.476-.598-.738 0-1.172.398-.445.399-.445.915l.023.68q0 .538-.281.831-.27.293-.715.293-.434 0-.715-.304-.27-.305-.27-.833 0-1.007 1.032-1.851t2.894-.844q1.43 0 2.344.48.691.364 1.02 1.137.21.504.21 2.063v3.644q0 1.536.059 1.887.059.34.188.457.14.117.316.117.187 0 .328-.082.246-.152.95-.855v.656q-1.313 1.758-2.509 1.758-.574 0-.914-.399t-.351-1.359m0-.762v-4.09q-1.77.704-2.285.997-.926.515-1.324 1.078t-.399 1.23q0 .844.504 1.406.504.551 1.16.551.89 0 2.344-1.172m7.3-14.358q.492 0 .832.352.352.34.352.832t-.352.843q-.34.352-.832.352t-.844-.352-.351-.843.34-.832q.351-.352.855-.352m.973 5.613v8.625q0 1.008.14 1.348.153.328.434.492.293.164 1.055.164v.422h-5.215v-.422q.785 0 1.054-.152.27-.153.422-.504.164-.352.164-1.348v-4.136q0-1.746-.105-2.262-.082-.375-.258-.516-.176-.152-.48-.152-.328 0-.797.176l-.164-.422 3.234-1.313zm5.837 7.137q-.984-.48-1.512-1.336-.527-.867-.527-1.91 0-1.594 1.195-2.742 1.207-1.149 3.082-1.149 1.535 0 2.66.75h2.274q.504 0 .586.035.082.024.117.094.07.106.07.375 0 .305-.058.422-.036.059-.13.094-.081.035-.585.035h-1.395q.657.844.657 2.156 0 1.5-1.149 2.567-1.148 1.066-3.082 1.066-.797 0-1.629-.234-.515.445-.703.785-.176.328-.176.562 0 .2.188.387.2.187.762.27.328.046 1.64.082 2.414.058 3.13.164 1.089.152 1.733.808.657.656.657 1.617 0 1.325-1.242 2.485-1.829 1.71-4.77 1.71-2.262 0-3.82-1.019-.88-.586-.88-1.219 0-.28.13-.562.199-.434.82-1.207.082-.106 1.195-1.266-.609-.363-.867-.644-.246-.293-.246-.657 0-.41.328-.96.34-.551 1.547-1.559m2.04-6.574q-.868 0-1.454.691-.586.692-.586 2.121 0 1.852.797 2.871.61.774 1.547.774.89 0 1.465-.668.574-.668.574-2.098 0-1.863-.809-2.918-.597-.773-1.535-.773m-2.157 10.488q-.55.597-.832 1.113t-.281.95q0 .562.68.984 1.171.726 3.386.726 2.11 0 3.106-.75 1.007-.738 1.007-1.582 0-.61-.597-.867-.61-.258-2.414-.305-2.637-.07-4.055-.27m16.888-15.453v-.434h6.809v.434h-.575q-.972 0-1.418.574-.28.375-.28 1.805v7.77q0 1.792-.4 2.906-.386 1.113-1.347 1.945-.96.82-2.32.82-1.102 0-1.735-.539-.632-.55-.632-1.254 0-.574.293-.867.386-.363.902-.363.375 0 .668.246.305.246.762 1.312.27.633.691.633.316 0 .586-.387.281-.386.281-1.37v-10.853q0-1.207-.152-1.593-.117-.293-.492-.504-.504-.282-1.067-.282zm12.95 4.4q2.438 0 3.914 1.852 1.254 1.582 1.254 3.632 0 1.442-.691 2.918-.692 1.477-1.91 2.227-1.208.75-2.696.75-2.426 0-3.855-1.934-1.207-1.628-1.207-3.656 0-1.476.726-2.93.738-1.464 1.934-2.156 1.195-.703 2.531-.703m-.363.762q-.621 0-1.254.375-.621.363-1.008 1.289t-.387 2.379q0 2.344.926 4.043.938 1.699 2.461 1.699 1.137 0 1.875-.938t.738-3.222q0-2.86-1.23-4.5-.832-1.125-2.121-1.125m10.243 1.518q1.887-2.273 3.598-2.273.879 0 1.511.445.633.433 1.008 1.441.258.703.258 2.157v4.582q0 1.019.164 1.382.129.293.41.457.293.164 1.067.164v.422h-5.31v-.422h.224q.75 0 1.043-.222.304-.235.421-.68.047-.176.047-1.102v-4.394q0-1.465-.386-2.121-.375-.668-1.278-.668-1.394 0-2.777 1.523v5.66q0 1.09.129 1.348.164.34.445.504.293.152 1.172.152v.422h-5.309v-.422h.235q.82 0 1.101-.41.293-.422.293-1.594v-3.984q0-1.934-.093-2.356-.082-.421-.27-.574-.176-.152-.48-.152-.328 0-.785.176l-.176-.422 3.234-1.313h.504zm10.67 2.08q-.012 2.39 1.16 3.75t2.754 1.36q1.055 0 1.828-.575.785-.586 1.313-1.992l.363.234q-.246 1.606-1.43 2.93-1.183 1.313-2.965 1.313-1.933 0-3.316-1.5-1.371-1.512-1.371-4.055 0-2.754 1.406-4.29 1.418-1.546 3.551-1.546 1.805 0 2.965 1.195 1.16 1.184 1.16 3.176zm0-.68h4.969q-.059-1.03-.246-1.453-.293-.656-.88-1.031-.573-.375-1.206-.375-.973 0-1.746.762-.762.75-.89 2.097zm15.79-3.68v3.656h-.387q-.445-1.722-1.148-2.344-.692-.62-1.77-.62-.82 0-1.324.433t-.504.96q0 .657.375 1.126.364.48 1.477 1.02l1.71.831q2.38 1.16 2.38 3.059 0 1.465-1.114 2.367-1.101.89-2.472.89-.985 0-2.25-.35-.387-.118-.633-.118-.27 0-.422.305h-.387v-3.832h.387q.328 1.64 1.254 2.472t2.074.832q.809 0 1.313-.468.515-.48.515-1.149 0-.808-.574-1.36-.563-.55-2.262-1.394t-2.226-1.523q-.528-.668-.528-1.687 0-1.325.903-2.215.914-.89 2.355-.89.633 0 1.535.269.598.175.797.175.188 0 .293-.082t.246-.363z" aria-label="Craig Jones"/>
  <path d="M661.569 45.935v4.629q0 1.5.328 1.863.445.516 1.348.516h.61v.433h-6.81v-.433h.598q1.008 0 1.442-.656.234-.364.234-1.723V40.298q0-1.5-.316-1.863-.457-.516-1.36-.516h-.597v-.434h5.824q2.133 0 3.363.446 1.23.433 2.074 1.476t.844 2.473q0 1.945-1.29 3.164-1.276 1.219-3.62 1.219-.574 0-1.242-.082t-1.43-.246m0-.668q.621.117 1.102.176.48.058.82.058 1.219 0 2.098-.937.89-.95.89-2.45 0-1.03-.422-1.91-.422-.89-1.195-1.324-.773-.445-1.758-.445-.597 0-1.535.223zm14.42-2.942q2.438 0 3.914 1.852 1.254 1.582 1.254 3.632 0 1.442-.691 2.918-.692 1.477-1.91 2.227-1.208.75-2.696.75-2.426 0-3.855-1.934-1.207-1.629-1.207-3.656 0-1.476.726-2.93.738-1.464 1.934-2.156 1.195-.703 2.531-.703m-.363.762q-.621 0-1.254.375-.621.363-1.008 1.289t-.387 2.379q0 2.344.926 4.043.938 1.699 2.461 1.699 1.137 0 1.875-.938t.738-3.222q0-2.86-1.23-4.5-.832-1.125-2.121-1.125m10.253-.762v2.414q1.348-2.414 2.766-2.414.644 0 1.066.398.422.387.422.903 0 .457-.305.773-.305.317-.726.317-.41 0-.926-.399-.504-.41-.75-.41-.211 0-.457.234-.528.48-1.09 1.582v5.145q0 .89.223 1.348.152.316.539.527.386.21 1.113.21v.423h-5.496v-.422q.82 0 1.219-.258.293-.187.41-.598.058-.199.058-1.136v-4.16q0-1.875-.082-2.227-.07-.363-.28-.527-.2-.165-.505-.165-.363 0-.82.176l-.117-.422 3.246-1.312zm7.97-3.21v3.527h2.508v.82h-2.508v6.962q0 1.043.293 1.406.305.363.773.363.387 0 .75-.234.364-.246.563-.715h.457q-.41 1.148-1.16 1.734-.75.574-1.547.574-.54 0-1.055-.293-.515-.304-.762-.855-.246-.563-.246-1.723v-7.219h-1.699v-.386q.645-.258 1.313-.867.68-.622 1.207-1.465.27-.446.75-1.63zm6.28-2.41q.492 0 .832.352.352.34.352.832t-.352.843q-.34.352-.832.352t-.844-.352-.351-.843.34-.832q.351-.352.855-.352m.973 5.613v8.625q0 1.008.14 1.348.153.328.434.492.293.164 1.055.164v.422h-5.215v-.422q.785 0 1.054-.152.27-.153.422-.504.164-.352.164-1.348v-4.136q0-1.746-.105-2.262-.082-.375-.258-.516-.176-.152-.48-.152-.328 0-.797.176l-.164-.422 3.234-1.313zm6.157 2.287q1.172-1.172 1.383-1.348.527-.445 1.136-.691.61-.246 1.207-.246 1.008 0 1.735.586.726.586.973 1.699 1.207-1.406 2.039-1.84.832-.445 1.71-.445.856 0 1.512.445.668.434 1.055 1.43.258.68.258 2.133v4.617q0 1.008.152 1.383.117.258.434.445.316.176 1.03.176v.422h-5.296v-.422h.223q.691 0 1.078-.27.27-.187.386-.597.047-.2.047-1.137v-4.617q0-1.313-.316-1.852-.457-.75-1.465-.75-.62 0-1.254.317-.62.304-1.511 1.148l-.024.129.024.504v5.12q0 1.102.117 1.372.129.27.468.457.34.176 1.16.176v.422h-5.425v-.422q.89 0 1.219-.211.34-.211.468-.633.059-.2.059-1.16v-4.617q0-1.313-.387-1.887-.515-.75-1.441-.75-.633 0-1.254.34-.973.515-1.5 1.16v5.754q0 1.055.14 1.37.153.317.434.481.293.153 1.172.153v.422h-5.308v-.422q.738 0 1.03-.153.294-.164.446-.504.152-.351.152-1.347v-4.102q0-1.77-.105-2.285-.082-.387-.258-.527-.176-.153-.48-.153-.328 0-.786.176l-.175-.422 3.234-1.312h.504zm21.56 7.22q-1.652 1.277-2.074 1.477-.633.293-1.348.293-1.113 0-1.84-.762-.714-.762-.714-2.004 0-.785.351-1.36.48-.796 1.664-1.5 1.196-.703 3.961-1.71v-.422q0-1.606-.516-2.203-.503-.598-1.476-.598-.738 0-1.172.398-.445.399-.445.915l.023.68q0 .538-.281.831-.27.293-.715.293-.434 0-.715-.304-.27-.305-.27-.833 0-1.007 1.032-1.851t2.894-.844q1.43 0 2.344.48.692.364 1.02 1.137.21.504.21 2.063v3.644q0 1.535.06 1.887.058.34.187.457.14.117.316.117.188 0 .328-.082.246-.152.95-.855v.656q-1.313 1.758-2.508 1.758-.575 0-.914-.399-.34-.398-.352-1.359m0-.762v-4.09q-1.77.704-2.285.997-.926.515-1.324 1.078-.399.562-.399 1.23 0 .844.504 1.406.504.551 1.16.551.89 0 2.344-1.172m-4.828-10.547h-.375q.047-1.605.668-2.32t1.535-.715q.48 0 .879.152.527.2 1.488.844.973.633 1.442.633.375 0 .656-.316.293-.317.457-1.313h.363q.012 1.09-.293 1.735-.293.632-.843.996-.54.351-1.09.351-.926 0-2.297-.937-.738-.504-.996-.61t-.504-.105q-.48 0-.762.422-.129.199-.328 1.183m14.648 1.809q2.438 0 3.914 1.852 1.254 1.582 1.254 3.632 0 1.442-.691 2.918-.692 1.477-1.91 2.227-1.208.75-2.696.75-2.426 0-3.855-1.934-1.207-1.629-1.207-3.656 0-1.476.726-2.93.738-1.464 1.934-2.156 1.195-.703 2.531-.703m-.363.762q-.621 0-1.254.375-.621.363-1.008 1.289t-.387 2.379q0 2.344.926 4.043.938 1.699 2.461 1.699 1.137 0 1.875-.938t.738-3.222q0-2.86-1.23-4.5-.832-1.125-2.121-1.125" aria-label="Portimão"/>
  <path d="M868.34 104.38v5.496h-.434q-.21-1.582-.761-2.52-.54-.937-1.547-1.488-1.008-.55-2.086-.55-1.219 0-2.016.75-.797.738-.797 1.687 0 .727.504 1.324.727.88 3.457 2.344 2.227 1.195 3.036 1.84.82.633 1.253 1.5.446.867.446 1.816 0 1.805-1.406 3.117-1.395 1.301-3.598 1.301-.692 0-1.301-.105-.363-.059-1.512-.422-1.136-.375-1.441-.375-.293 0-.469.176-.164.175-.246.726h-.434v-5.449h.434q.305 1.71.82 2.566.516.844 1.57 1.407 1.067.562 2.333.562 1.465 0 2.308-.773.856-.774.856-1.828 0-.586-.328-1.184-.317-.598-.996-1.113-.457-.352-2.497-1.489-2.039-1.148-2.906-1.828-.855-.68-1.3-1.5t-.446-1.804q0-1.711 1.313-2.942 1.312-1.242 3.34-1.242 1.265 0 2.683.621.656.293.926.293.305 0 .492-.176.2-.187.316-.738zm9.17 14.71q-1.652 1.277-2.074 1.477-.633.293-1.348.293-1.113 0-1.84-.762-.714-.762-.714-2.004 0-.785.351-1.36.48-.796 1.664-1.5 1.196-.703 3.961-1.71v-.422q0-1.606-.516-2.203-.503-.598-1.476-.598-.738 0-1.172.398-.445.399-.445.915l.023.68q0 .538-.281.831-.27.293-.715.293-.434 0-.715-.304-.27-.305-.27-.833 0-1.007 1.032-1.851t2.894-.844q1.43 0 2.344.48.692.364 1.02 1.137.21.504.21 2.063v3.644q0 1.535.06 1.887.058.34.187.457.14.117.316.117.188 0 .328-.082.246-.152.95-.855v.656q-1.313 1.758-2.508 1.758-.575 0-.914-.399-.34-.398-.352-1.36m0-.762v-4.09q-1.77.704-2.285.997-.926.515-1.324 1.078t-.399 1.23q0 .844.504 1.406.504.551 1.16.551.89 0 2.344-1.172m7.44-1.607q-.984-.48-1.512-1.336-.527-.867-.527-1.91 0-1.594 1.195-2.742 1.207-1.149 3.082-1.149 1.535 0 2.66.75h2.274q.504 0 .586.036.082.023.117.093.07.106.07.375 0 .305-.058.422-.036.059-.13.094-.081.035-.585.035h-1.395q.657.844.657 2.156 0 1.5-1.149 2.567-1.148 1.066-3.082 1.066-.797 0-1.629-.234-.515.445-.703.785-.176.328-.176.562 0 .2.188.387.2.187.762.27.328.046 1.64.082 2.414.058 3.13.164 1.089.152 1.733.808.657.656.657 1.617 0 1.325-1.242 2.485-1.829 1.71-4.77 1.71-2.262 0-3.82-1.019-.88-.586-.88-1.219 0-.28.13-.562.199-.434.82-1.207.082-.106 1.195-1.266-.609-.363-.867-.644-.246-.293-.246-.657 0-.41.328-.96.34-.551 1.547-1.559m2.04-6.574q-.868 0-1.454.691-.586.692-.586 2.121 0 1.852.797 2.871.61.774 1.547.774.89 0 1.465-.668t.574-2.098q0-1.863-.809-2.918-.597-.773-1.535-.773m-2.157 10.488q-.55.597-.832 1.113t-.281.95q0 .562.68.984 1.171.726 3.386.726 2.11 0 3.106-.75 1.007-.738 1.007-1.582 0-.61-.597-.867-.61-.258-2.414-.305-2.637-.07-4.055-.27m12.388-11.043v2.414q1.348-2.414 2.766-2.414.644 0 1.066.398.422.387.422.903 0 .457-.305.773-.305.317-.726.317-.41 0-.926-.399-.504-.41-.75-.41-.211 0-.457.234-.528.48-1.09 1.582v5.145q0 .89.223 1.347.152.317.539.528.386.21 1.113.21v.423h-5.496v-.422q.82 0 1.219-.258.293-.188.41-.598.058-.199.058-1.136v-4.16q0-1.876-.082-2.227-.07-.363-.28-.528-.2-.164-.505-.164-.363 0-.82.176l-.117-.422 3.246-1.312zm6.66 4.36q-.012 2.39 1.16 3.75t2.754 1.36q1.055 0 1.828-.575.785-.586 1.313-1.992l.363.234q-.246 1.606-1.43 2.93-1.183 1.313-2.965 1.313-1.933 0-3.316-1.5-1.371-1.512-1.371-4.055 0-2.754 1.406-4.29 1.418-1.546 3.551-1.546 1.805 0 2.965 1.195 1.16 1.184 1.16 3.176zm0-.68h4.969q-.059-1.03-.246-1.453-.293-.656-.88-1.031-.573-.375-1.206-.375-.973 0-1.746.762-.762.75-.89 2.097zm15.78-3.68v3.656h-.387q-.445-1.722-1.148-2.344-.692-.62-1.77-.62-.82 0-1.324.433t-.504.96q0 .657.375 1.126.364.48 1.477 1.02l1.71.831q2.38 1.16 2.38 3.059 0 1.465-1.114 2.367-1.101.89-2.472.89-.985 0-2.25-.35-.387-.118-.633-.118-.27 0-.422.305h-.387v-3.832h.387q.328 1.64 1.254 2.472t2.074.832q.809 0 1.313-.468.515-.48.515-1.149 0-.808-.574-1.36-.562-.55-2.262-1.394t-2.226-1.523q-.528-.668-.528-1.687 0-1.325.903-2.215.914-.89 2.355-.89.633 0 1.535.269.598.175.797.175.188 0 .293-.082.106-.082.246-.363z" aria-label="Sagres"/>
  <path d="m1055.649 432.425.41 5.016h-.41q-.621-1.875-1.605-2.825-1.418-1.37-3.645-1.37-3.035 0-4.617 2.402-1.324 2.027-1.324 4.828 0 2.273.878 4.148t2.297 2.754q1.43.867 2.93.867.879 0 1.7-.222.82-.223 1.581-.657v-4.594q0-1.195-.187-1.558-.176-.375-.563-.563-.375-.199-1.336-.199v-.445h6.153v.445h-.293q-.914 0-1.254.61-.234.433-.234 1.71v4.864q-1.348.726-2.66 1.066t-2.919.34q-4.605 0-6.996-2.953-1.793-2.215-1.793-5.11 0-2.097 1.008-4.019 1.195-2.285 3.281-3.516 1.746-1.02 4.125-1.02.868 0 1.57.141.716.141 2.016.622.657.246.88.246t.374-.2q.164-.21.2-.808zm9.4 14.71q-1.652 1.277-2.074 1.477-.633.293-1.348.293-1.113 0-1.84-.762-.715-.762-.715-2.004 0-.785.352-1.36.48-.796 1.664-1.5 1.195-.703 3.961-1.71v-.422q0-1.606-.516-2.203-.503-.598-1.476-.598-.738 0-1.172.398-.445.399-.445.915l.024.68q0 .538-.282.831-.27.293-.715.293-.433 0-.714-.304-.27-.305-.27-.833 0-1.007 1.031-1.851 1.032-.844 2.895-.844 1.43 0 2.344.48.691.364 1.02 1.137.21.504.21 2.063v3.644q0 1.536.06 1.887.058.34.187.457.14.117.316.117.187 0 .328-.082.246-.152.95-.855v.656q-1.313 1.758-2.509 1.758-.574 0-.914-.399-.34-.398-.351-1.359zm0-.762v-4.09q-1.77.704-2.285.997-.926.515-1.324 1.078-.399.562-.399 1.23 0 .844.504 1.406.504.551 1.16.551.89 0 2.344-1.172m8.3-14.358v14.238q0 1.008.14 1.336.153.328.458.504.304.164 1.136.164v.422h-5.261v-.422q.738 0 1.008-.152.269-.153.421-.504.153-.352.153-1.348v-9.75q0-1.816-.082-2.227-.082-.422-.27-.574-.176-.152-.457-.152-.305 0-.773.187l-.2-.41 3.2-1.312zm2.2 7 3.305-1.336h.445v2.508q.832-1.418 1.664-1.98.844-.575 1.77-.575 1.617 0 2.695 1.266 1.324 1.547 1.324 4.031 0 2.777-1.594 4.594-1.312 1.488-3.304 1.488-.867 0-1.5-.246-.469-.176-1.055-.703v3.27q0 1.101.129 1.394.14.305.469.48.34.176 1.218.176v.434h-5.625v-.434h.293q.645.012 1.102-.246.223-.129.34-.422.129-.281.129-1.453v-10.148q0-1.043-.094-1.324t-.305-.422q-.2-.14-.55-.14-.282 0-.716.163zm3.75 1.863v4.008q0 1.3.106 1.711.164.68.796 1.195.645.516 1.618.516 1.171 0 1.898-.914.95-1.195.95-3.363 0-2.461-1.079-3.786-.75-.914-1.781-.914-.563 0-1.113.282-.422.21-1.395 1.265" aria-label="Galp"/>
  <path fill="none" stroke="#b2b2b2" stroke-width="13.819" d="M94.275 459.725c-1.846-3.616-3.188-3.776-1.103-11.027s17.63-20.287 20.951-27.016 3.148-7.13 2.757-10.475-4.41-8.27-4.41-8.27l-47.967-36.388s-6.404-8.746-7.718-13.783-.955-10.481 0-15.437"/>
  <path fill="none" stroke="#000" stroke-width="13.819" d="M127.91 471.845s-18.077-.707-23.708-3.308-8.078-5.205-9.924-8.821c-1.301-2.55-2.69-5.959-2.69-5.959l-33.67-97.866-1.131-3.135c-1.315-5.037-.955-10.481 0-15.437.954-4.956 5.513-13.783 5.513-13.783"/>
  <g transform="translate(28.649 -99.655)">
    <ellipse cx="535.26" cy="317.9" fill="#fff" stroke="#000" stroke-linecap="round" stroke-width="1.417" rx="13.645" ry="14.035"/>
    <path d="M530.67 326.9v-.434q1.523-.023 2.836-.703 1.312-.691 2.531-2.402 1.23-1.711 1.711-3.762-1.84 1.184-3.328 1.184-1.676 0-2.871-1.29-1.195-1.3-1.195-3.445 0-2.086 1.195-3.714 1.441-1.98 3.762-1.98 1.957 0 3.351 1.616 1.711 2.004 1.711 4.946 0 2.648-1.3 4.945-1.302 2.285-3.622 3.797-1.887 1.242-4.113 1.242zm7.266-8.168q.21-1.523.21-2.438 0-1.136-.386-2.449-.387-1.324-1.102-2.027-.703-.703-1.605-.703-1.043 0-1.828.937t-.786 2.79q0 2.472 1.043 3.867.762 1.007 1.875 1.007.54 0 1.278-.257t1.3-.727" aria-label="9"/>
    <ellipse cx="740.47" cy="163.25" fill="#fff" stroke="#000" stroke-linecap="round" stroke-width="1.417" rx="13.645" ry="14.035"/>
    <path d="m731.36 156.33 3.867-1.887h.387v13.418q0 1.336.105 1.664.118.329.47.504t1.429.2v.433h-5.977v-.433q1.125-.024 1.453-.188.328-.176.457-.457.13-.293.13-1.723v-8.578q0-1.734-.118-2.226-.082-.375-.305-.551-.21-.176-.515-.176-.434 0-1.207.363zm11.11 0 3.867-1.887h.387v13.418q0 1.336.105 1.664.118.329.47.504.35.176 1.429.2v.433h-5.977v-.433q1.125-.024 1.453-.188.328-.176.457-.457.13-.293.13-1.723v-8.578q0-1.734-.118-2.226-.082-.375-.305-.551-.21-.176-.515-.176-.434 0-1.207.363z" aria-label="11"/>
  </g>
  <g fill="none">
    <path stroke="#ff0606" stroke-dasharray="3, 3" stroke-width="3" d="M637.149 477.285c-169.74-1.814-339.49-3.629-426.13-4.632s-90.173-1.193-93.618-1.543-6.799-.858-9.882-1.722c-3.084-.864-5.896-2.084-8.048-3.286-2.152-1.203-3.642-2.39-5.473-5.49S90 452.499 83.753 434.24s-16.617-49.908-22.005-66.85-5.816-19.251-5.816-21.822.426-5.405 1.171-8.522a66 66 0 0 1 3.257-9.982c1.446-3.463 3.276-6.987 5.479-10.68 2.202-3.694 4.777-7.556 12.245-20.085s19.826-33.722 26.705-45.107 8.276-12.962 9.958-14.496 3.647-3.025 6.19-4.11 5.658-1.761 8.572-1.388c2.915.373 5.625 1.796 7.76 3.592s3.693 3.965 5.523 9.15c1.83 5.184 3.93 13.384 6.268 22.703s4.913 19.755 6.85 27.493 3.234 12.779 4.59 16.744 2.768 6.852 4.762 9.923 4.57 6.323 7.349 8.932 5.76 4.574 8.776 6.303c3.016 1.728 6.065 3.218 10.267 4.54 4.202 1.321 9.555 2.473 17.315 3.252 7.76.78 17.925 1.186 57.367 2.779s108.16 4.371 176.88 7.15"/>
    <path stroke="#0ad6ff" stroke-dasharray="3, 3" stroke-width="3" d="M443.209 353.755c27.244-.136 54.487-.271 86.384-.53s68.446-.643 87.506-.948 20.63-.532 22.482-1.187c1.852-.656 3.987-1.74 5.664-3.214s2.897-3.337 3.66-5.404 1.067-4.337.83-6.607-1.017-4.54-1.982-6.353-2.118-3.169-3.791-4.549-3.87-2.785-8.901-5.055c-5.032-2.27-12.9-5.406-38.262-15.238s-68.216-26.361-90.883-34.911-25.147-9.123-28.531-9.566-7.674-.753-11.722-.741c-4.05.012-7.86.347-14.17.946-6.312.599-15.125 1.461-24.565 2.767s-19.507 3.055-32.783 5.08-29.76 4.325-44.344 6.51-27.266 4.253-35.744 5.253-12.751.931-17.226-.052-9.151-2.88-13.37-5.303-7.98-5.37-11.384-8.539c-3.406-3.168-6.456-6.556-9.54-10.707s-6.2-9.064-12.012-18.972-14.317-24.81-18.875-33.433-5.167-10.969-5.404-14.276-.102-7.577.678-11.372c.779-3.795 2.202-7.116 4.642-10.03s5.896-5.422 10.108-6.886 9.18-1.886 33.335 1.834 67.499 11.582 104.16 19.117c36.664 7.535 66.648 14.743 84.57 18.768s23.782 4.867 30.258 5.192 13.568.134 19.989-.729c6.421-.862 12.172-2.396 17.922-5.08 5.75-2.683 11.5-6.516 17.189-11.001s11.068-9.396 28.894-27.99c17.827-18.592 47.975-50.754 64.104-67.697s18.237-18.67 23.03-20.586c4.792-1.917 12.268-4.026 21.085-5.271s18.976-1.63 27.41-1.15 15.143 1.82 19.647 3.546 6.805 3.834 9.009 6.614 4.312 6.23 5.27 17.06.767 29.039.575 47.248"/>
    <path stroke="#000" stroke-width="14" d="m690.619 477.845 100.64.893"/>
    <path stroke="#000" stroke-width="4.6" d="m722.249 463.935 28.466.108"/>
    <path stroke="#f5ff00" stroke-dasharray="3, 3" stroke-width="3" d="M748.129 140.315c-.12 28.726-.242 57.451-.17 72.905s.337 17.638 1.044 20.934 1.858 7.705 3.295 11.802 3.163 7.883 5.775 11.98 6.11 8.506 9.944 12.291 8.003 6.948 11.237 9.129 5.535 3.378 24.29 11.718c18.758 8.341 53.969 23.823 72.355 31.734 18.385 7.911 19.944 8.25 22.418 8.284 2.473.033 5.862-.238 8.776-.915 2.914-.678 5.353-1.762 7.59-3.22 2.236-1.456 4.269-3.286 5.76-5.522s2.439-4.88 3.252-7.895c.813-3.016 1.491-6.404 1.66-9.182.17-2.779-.169-4.947-1.287-7.692s-3.015-6.065-12.097-19.585c-9.08-13.52-25.345-37.239-36.568-53.526s-17.403-25.14-20.96-30.664c-3.559-5.523-4.494-7.715-5.232-10.81-.74-3.096-1.281-7.095-1.18-10.755s.847-6.98 2.236-10.437 3.423-7.048 5.727-9.996 4.88-5.252 8.031-7.286 6.879-3.795 11.284-5.252 9.488-2.609 14.605-3.185 10.267-.576 15.723-.101c5.455.474 11.216 1.423 16.095 3.016 4.88 1.593 8.878 3.83 13.045 7.353s8.505 8.336 12.097 12.91c3.592 4.575 6.438 8.912 19.876 29.328s37.468 56.911 50.813 77.957c13.345 21.047 16.004 26.645 18.271 32.1s4.143 10.766 5.605 16.167c1.463 5.4 2.514 10.89 3.039 17.802.525 6.913.525 15.248.017 23.11-.509 7.86-1.525 15.247-3.321 22.956s-4.371 15.74-7.709 23.414-7.437 14.994-11.775 21.686-8.911 12.757-13.384 17.925-8.844 9.437-14.807 14.045-13.52 9.556-20.314 13.367-12.825 6.49-19.907 8.573-15.214 3.575-35.748 4.05-53.469-.068-81.865-.61c-28.396-.543-52.25-1.085-84.58-1.573s-73.133-.922-113.94-1.356"/>
  </g>
  <path fill="#fff" d="M633.359 438.005h23.062v77.094h-23.062z"/>
  <path fill="url(#pattern1876)" d="M604.71 537.66h23.062v77.094H604.71z" transform="translate(28.649 -99.655)"/>
</svg>
