<svg xmlns="http://www.w3.org/2000/svg" aria-label="Track map of the Autodromo Internacional do Algarve (Portimao), Grand Prix layout" role="img" viewBox="0 0 1000 1000">
<!--Production track map for the Autodromo Internacional do Algarve (Portimao),
  FIA Grand Prix layout. Derived by path-extract from map-source.svg: the racing-line
  centerline, drawn in the F1-sectors diagram as three dashed sector segments (red,
  cyan, yellow) that chain end-to-end. Joined into one closed loop in race order and
  affine-fit (uniform scale + translate) into the 0 0 1000 1000 viewBox. Source:
  Autodromo do Algarve F1 Sectors.svg, CC BY-SA 4.0, via Wikimedia Commons. Retraced 2026-06-12.-->
  <path fill="none" stroke="#1f1f21" stroke-linecap="round" stroke-linejoin="round" stroke-width="10" d="M577.123 681.671c-151.022-1.614-302.053-3.228-379.138-4.12s-80.23-1.062-83.295-1.374-6.049-.763-8.792-1.532c-2.744-.768-5.246-1.854-7.16-2.923-1.915-1.07-3.24-2.127-4.87-4.885s-3.557-7.218-9.115-23.464-14.784-44.404-19.578-59.478S60 566.767 60 564.48s.38-4.81 1.042-7.583a59 59 0 0 1 2.898-8.88c1.286-3.082 2.914-6.217 4.875-9.503 1.959-3.287 4.25-6.723 10.894-17.87s17.64-30.003 23.76-40.133 7.364-11.533 8.86-12.897 3.245-2.692 5.508-3.657 5.034-1.567 7.626-1.235c2.594.332 5.005 1.598 6.905 3.196s3.285 3.528 4.913 8.14c1.629 4.613 3.497 11.909 5.577 20.2s4.371 17.577 6.095 24.461 2.877 11.37 4.084 14.898 2.462 6.096 4.237 8.829 4.066 5.625 6.538 7.947 5.125 4.07 7.808 5.608c2.684 1.537 5.397 2.863 9.135 4.039 3.739 1.175 8.501 2.2 15.406 2.893 6.904.694 15.948 1.056 51.04 2.473s96.233 3.889 157.375 6.361l-.006-.003c24.24-.121 48.478-.241 76.858-.472s60.898-.572 77.856-.843 18.355-.474 20.003-1.056c1.647-.584 3.547-1.548 5.039-2.86s2.577-2.969 3.256-4.808.95-3.859.739-5.878-.905-4.04-1.764-5.653-1.884-2.82-3.373-4.047-3.443-2.478-7.919-4.498c-4.477-2.02-11.477-4.81-34.043-13.557s-60.693-23.454-80.86-31.061-22.374-8.117-25.385-8.512-6.828-.67-10.43-.659c-3.603.01-6.993.309-12.607.842-5.616.533-13.457 1.3-21.856 2.462s-17.356 2.718-29.168 4.52-26.478 3.848-39.454 5.792-24.259 3.784-31.802 4.673-11.345.829-15.326-.046-8.142-2.562-11.896-4.718-7.1-4.778-10.129-7.597-5.744-5.834-8.488-9.527-5.516-8.064-10.687-16.88-12.738-22.074-16.793-29.746-4.598-9.76-4.809-12.701-.09-6.742.604-10.118c.693-3.377 1.959-6.332 4.13-8.924s5.246-4.824 8.993-6.127 8.168-1.678 29.66 1.632 60.055 10.305 92.673 17.009c32.62 6.704 59.298 13.117 75.244 16.698s21.16 4.33 26.921 4.62 12.072.119 17.785-.65c5.713-.766 10.83-2.131 15.945-4.519 5.116-2.387 10.232-5.797 15.294-9.788s9.847-8.36 25.707-24.903c15.862-16.542 42.685-45.157 57.035-60.232s16.226-16.611 20.49-18.316 10.916-3.582 18.76-4.69 16.884-1.45 24.388-1.023 13.473 1.62 17.48 3.155 6.055 3.412 8.016 5.885 3.836 5.543 4.689 15.179.682 25.836.511 42.037l.007.002c-.106 25.558-.215 51.116-.15 64.865s.299 15.693.928 18.626 1.653 6.855 2.932 10.5 2.814 7.014 5.138 10.66 5.436 7.567 8.847 10.935 7.12 6.182 9.998 8.122 4.925 3.006 21.611 10.426c16.69 7.421 48.018 21.196 64.376 28.235s17.745 7.34 19.946 7.37c2.2.03 5.216-.212 7.808-.814 2.593-.603 4.763-1.568 6.753-2.865 1.99-1.295 3.799-2.924 5.125-4.913s2.17-4.342 2.894-7.024c.723-2.684 1.326-5.698 1.477-8.17.15-2.472-.15-4.401-1.146-6.844s-2.682-5.396-10.763-17.425c-8.078-12.029-22.55-33.132-32.535-47.623s-15.484-22.368-18.649-27.283c-3.166-4.914-3.998-6.864-4.655-9.618-.658-2.754-1.14-6.312-1.05-9.569s.754-6.21 1.99-9.286 3.045-6.27 5.095-8.893 4.342-4.673 7.146-6.483 6.12-3.376 10.04-4.673 8.441-2.321 12.994-2.834 9.135-.512 13.989-.09c4.853.422 9.98 1.267 14.32 2.684 4.342 1.417 7.9 3.408 11.607 6.542s7.567 7.417 10.763 11.487 5.728 7.929 17.684 26.093 33.336 50.635 45.21 69.36c11.873 18.727 14.238 23.707 16.255 28.56s3.686 9.58 4.987 14.385 2.237 9.689 2.704 15.839.467 13.566.015 20.561c-.453 6.993-1.357 13.566-2.955 20.425s-3.888 14.004-6.858 20.832-6.617 13.34-10.477 19.294-7.928 11.35-11.908 15.949-7.869 8.396-13.174 12.496-12.03 8.502-18.074 11.893-11.41 5.774-17.712 7.627-13.536 3.181-31.806 3.604-47.572-.06-72.837-.543c-25.264-.483-46.488-.965-75.253-1.4s-65.068-.82-101.375-1.206Z"/>
</svg>
