<svg xmlns="http://www.w3.org/2000/svg" aria-label="Track map of the Autodromo Internacional do Algarve (Portimao), Grand Prix layout" role="img" viewBox="0 0 1000 1000">
<!--Production track map for the Autodromo Internacional do Algarve (Portimao),
  FIA Grand Prix layout. Derived by path-extract from map-source.svg: the black
  stroked centerline of the F1-sectors diagram, affine-fit (uniform scale + translate)
  into the 0 0 1000 1000 viewBox. Source: Autodromo do Algarve F1 Sectors.svg,
  CC BY-SA 4.0, via Wikimedia Commons. Retraced 2026-06-12.-->
  <path fill="none" stroke="#1f1f21" stroke-linecap="round" stroke-linejoin="round" stroke-width="10" d="M60 556.827c.85-4.412 4.908-12.27 4.908-12.27l42.698-73.128s6.076-7.328 9.325-8.343 5.481-2.09 8.2-1.448c2.72.641 6.072 3.125 7.997 5.374s3.435 7.362 3.435 7.362l15.706 59.877s5.022 9.048 8.344 12.76 7.82 7.291 11.287 9.325 4.111 2.18 8.835 3.437 19.633 2.943 19.633 2.943l58.404 2.455 76.564 3.436 63.804 2.944h73.618l61.842-1.963 39.754.491s6.875-1.052 9.325-3.436 3.8-6.427 3.925-9.816-1.108-6.764-2.944-9.325-7.361-5.399-7.361-5.399l-135.46-52.515s-10.223-2.179-16.688-2.37-12.467.593-22.086 1.39-35.337 5.889-35.337 5.889l-82.453 12.27s-8.025-.116-13.742-1.964-10.584-3.219-19.632-10.307-39.754-62.82-39.754-62.82-2.742-6.633-.982-15.707 3.77-9.645 8.343-14.09 17.669-4.56 17.669-4.56 54.183 7.662 86.87 14.234 108.96 26.01 108.96 26.01 13.703 2.374 20.613 2.456 14.131-.104 20.613-1.964 11.08-4.513 17.669-8.834 21.104-17.668 21.104-17.668 71.99-78.76 76.565-81.964 6.246-6.593 16.568-10.019 14.789-3.399 22.205-4.214 17.987-.29 24.05.491 8.49.517 12.269 2.945 7.07 6.94 8.834 11.288 1.472 13.743 1.472 13.743l-.491 108.47s-.104 9.292 1.964 15.705 3.46 14.58 11.287 24.049 12.262 11.099 17.67 14.724 94.004 42.593 98.65 43.68 10.201 1.46 14.234 0 7.765-3.509 10.222-6.667 3.248-7.578 4.01-11.982.232-10.802-1.472-14.234S767.73 425.3 767.73 425.3s-4.183-12.621-2.944-19.141 4.268-13.418 8.92-17.669 11.37-7.47 17.786-9.444c6.857-2.108 14.23-2.746 21.392-2.335 7.37.424 15.188 1.574 21.596 4.909s11.672 9.72 15.705 14.233 8.834 12.27 8.834 12.27l65.768 98.65s8.285 17.36 10.796 26.012 4 16.208 4.417 25.521-.743 20.742-2.454 29.94-3.502 16.323-7.361 25.03-10.175 18.47-16.197 26.503-9.333 13.868-19.632 21.595S870 678.21 851.166 682.48s-14.22 1.965-34.356 2.454-86.38-1.964-86.38-1.964l-607.118-6.38s-16.092-.63-21.105-2.944-7.19-4.634-8.834-7.854"/>
</svg>
