<svg xmlns="http://www.w3.org/2000/svg" aria-label="Track map of Canadian Tire Motorsport Park, Grand Prix layout" role="img" viewBox="0 0 1000 1000">
<!--Production track map for Canadian Tire Motorsport Park (Grand Prix layout).
  Derived by path-extract from map-source.svg. The source path3571 is the
  black centerline stroke; its raw d is affine-fit (uniform scale + translate)
  into the 0 0 1000 1000 viewBox. Source: Mosport-CTMP.svg by Apex-Ash,
  CC BY-SA 4.0, via Wikimedia Commons. Retraced 2026-06-11.-->
  <path fill="none" stroke="#1f1f21" stroke-linecap="round" stroke-linejoin="round" stroke-width="10" d="M835.958 755.52c-29.993 19.074-59.379 37.011-88.762 54.751-6.711 4.052-14.721 6.164-22.4 7.466-8.636 1.464-18.57.453-27.167-1.037-12.143-2.104-24.534-5.33-34.842-11.82-12.09-7.613-31.204-29.542-36.085-43.138-21.917-61.04-31.097-92.635-55.995-157.616-4.35-11.35-18.432-34.953-26.754-43.551-8.27-8.546-19.817-15.21-30.693-20.117-11.798-5.323-24.424-8.711-37.33-10.577-10.045-1.452-20.75-1.681-30.694 0-9.69 1.637-33.167 13.902-40.234 20.74-34.269 33.155-56.865 55.262-90.422 91.664-5.7 6.186-18.021 14.716-25.923 17.007-11.178 3.24-23.486 4.36-35.049 3.11-8.9-.961-17.8-6.622-24.886-12.028-9.227-7.038-15.609-15.075-20.947-25.509-6.828-13.347-14.874-31.156-16.591-46.247-3.536-31.088-3.31-59.534-2.281-91.044 1.101-33.733 3.707-67.822 1.659-101.207-.717-11.688-5.502-23.125-9.955-34.011-5.501-13.449-11.602-27.209-19.91-38.99-6.9-9.787-15.818-18.724-25.715-25.716-18.128-12.808-44.363-26.962-62.01-40.648-12.972-10.06-8.912-30.94-2.696-42.308 3.82-6.984 9.895-17.193 15.969-19.909 8.914-3.986 16.938 4.38 22.398 9.125 12.568 10.923 24.965 19.382 39.82 27.79 14.457 8.184 30.713 15.095 47.076 17.006 38.111 4.45 77.98.137 116.968 0 39.82-.14 80.133-1.746 119.663 2.074 55.578 5.39 164.063 13.726 220.456 29.45 79.732 22.23 148.628 55.081 223.773 89.8 15.83 7.312 37.991 22.638 46.662 36.914 7.93 13.056 14.726 30.2 15.762 46.248 1.176 18.24-2.316 38.552-9.126 55.373-7.294 18.02-25.14 31.53-31.316 49.773-4.433 13.1-4.055 30.954 2.074 43.345 8.536 17.256 19.42 31.2 30.072 48.529 4.982 8.104 5.977 20.03 4.148 29.034-1.766 8.693-4.941 18.497-11.964 24.635-25.883 22.62-57.427 42.99-86.753 61.64"/>
</svg>
