<!--Generator: Adobe Illustrator 15.1.0, SVG Export Plug-In-->
<svg xmlns="http://www.w3.org/2000/svg" xml:space="preserve" width="1490" height="827" viewBox="-0.1 0.6 1490 827">
  <path fill="#fff" d="M1283.5 279.7c3.1 3.2 4.6 6.4 5.7 9.5.5 1.5.9 3.1 1.3 4.6s.8 2.9 1.3 4.3c3 7.8 5.2 14.8 7.3 21.6 2 6.8 3.8 13.5 6.1 20.8 1.8 5.9 3.8 11.5 5.4 17s2.7 10.9 2.9 16.3c0 1 .1 2.1.1 3.2 0 7.3-.9 14.9-2.2 22.5s-2.9 15.3-4.3 23c-.5 2.7-1.5 5.6-2.6 8.7s-2.3 6.3-2.8 10-.8 7.5-.8 11.3c0 3.7.3 7.5 1 11.2.9 4.8 2.8 9.1 4.5 13.2 1.8 4.1 3.3 7.9 3.9 11.6.2 1.3.3 2.6.3 4s-.1 2.8-.5 4.1c-.3 1.2-.8 2.2-1.4 3-9.8 12.7-21 25.1-31.4 37.8-18.7 23-37.5 45.9-56.6 68.5-21.2 25-43 49.5-64.5 74.4-22.4 26-42.7 52.8-65.6 77.9-5.5 6-12 11.5-18.7 16.3-10 7.2-20.1 14.8-30.7 19.2-8.7 3.6-19.1 5-29.1 5.8-1.3.1-2.6.2-4 .2-5 0-10.1-.7-15-1.7-9.9-2.1-19.7-4.1-28.6-8.6l-3.1 6.3c10 5 20.4 7 30.3 9.1 5.3 1.1 10.9 1.9 16.5 1.9 1.5 0 3-.1 4.5-.2 10.2-.8 21.3-2.1 31.3-6.3 11.8-4.9 22.2-12.8 32.1-20 7-5.1 13.9-10.8 19.8-17.3 23.1-25.4 43.4-52.3 65.7-78 21.4-24.8 43.3-49.3 64.6-74.4 19.2-22.6 38-45.6 56.7-68.6 10.2-12.5 21.4-25 31.5-38 1.3-1.7 2.1-3.6 2.6-5.5s.7-3.9.7-5.8c0-1.8-.2-3.5-.4-5.1-.8-4.8-2.6-9.1-4.4-13.2s-3.4-8-4.1-11.7c-.6-3.2-.8-6.5-.8-9.9 0-3.5.3-7 .7-10.4.3-2.7 1.3-5.5 2.4-8.5s2.3-6.3 3-9.8c1.3-7.5 3-15.3 4.3-23.1s2.3-15.7 2.3-23.7c0-1.1 0-2.3-.1-3.4-.2-6.2-1.5-12.1-3.2-17.9s-3.7-11.5-5.4-17.2c-2.2-7.1-4-13.8-6-20.7s-4.3-14.1-7.4-22.2c-.3-.9-.7-2.1-1.1-3.6-.6-2.2-1.3-5-2.6-7.9-1.3-3-3.2-6.1-6.1-9.2zm-762.6 50.7c-1-2.6-2-5.7-2.9-9.2-1.3-5.2-2.3-11.2-3.1-17-.7-5.8-1.1-11.6-1.1-16.5 0-1.4 0-2.8.1-4 .9-18.5 3.8-38 10.2-54.3 2.5-6.3 6.1-12.7 10.5-18.7 4.3-6.1 9.4-11.9 14.5-17.3 11.5-12 24.9-23.2 39-30.4 23.2-11.8 47.9-20 73.7-26.6 9.5-2.4 18.4-4.1 27.5-5.3s18.3-2.1 28.5-3c4.3-.4 8.2-.7 12.3-1s8.3-.4 13.2-.4c4.7 0 10.1.2 16.6.6l1.1-17c-6.8-.4-12.6-.6-17.7-.6-5.3 0-9.9.2-14.3.5-4.3.3-8.4.7-12.6 1-10.3.9-19.8 1.7-29.4 3s-19.1 3-29.4 5.7c-26.6 6.8-52.5 15.3-77.2 27.9-16.6 8.4-31.2 20.9-43.6 33.7-5.6 5.8-11.2 12.2-16.1 19.2-5 6.9-9.3 14.4-12.5 22.4-7.4 18.9-10.4 40-11.4 59.7-.1 1.6-.1 3.2-.1 4.9 0 7.6.7 16.4 2.1 25 .7 4.3 1.5 8.6 2.5 12.6s2.2 7.9 3.6 11.4zm-51.3-203.8c4.2.1 9.4.9 14.1 2.4 2.4.7 4.6 1.6 6.7 2.6 2 1 3.8 2.1 5.2 3.2 1.3 1 2.4 1.8 3.3 2.7 1.4 1.2 2.3 2.3 2.9 3.3.7 1 1.1 2.1 1.5 3.6.9 3.8 1.8 7.6 2.4 11.1.7 3.6 1.1 6.9 1.1 10 0 2.6-.3 4.9-.9 7.1-.7 2.2-1.6 4.5-2.9 6.8-1.8 3.4-4.3 6.9-7.1 10.4s-5.9 7-9 10.5c-5.5 6.2-11.1 12.6-16.8 18.1-5.8 5.5-11.7 10.2-17.9 13.3-6 3-12.6 5.2-19.7 6.7s-14.6 2.5-22.2 3.2c-7.7.7-15.6 1.2-23.3 1.2s-15.2-.4-22.3-1.5L362 258c8.1 1.2 16.5 1.7 24.8 1.7 8.4 0 16.8-.5 24.9-1.2 8-.7 16.2-1.7 24.3-3.5s16.1-4.3 23.7-8.1c8.3-4.2 15.5-10 22-16.2s12.3-12.9 17.8-19.1c4.1-4.6 8.6-9.7 12.7-15.3 2-2.8 4-5.7 5.7-8.9 1.7-3.1 3.1-6.5 4.2-10 1.2-4 1.6-8 1.6-11.9 0-4.6-.6-9-1.4-13.1-.8-4.2-1.7-8.1-2.6-11.8-.5-2.2-1.3-4.3-2.2-6.3-1.4-2.9-3.3-5.4-5.3-7.5s-4.2-3.8-6.4-5.5c-2.5-1.9-5.2-3.5-8.1-4.9-4.3-2.1-9-3.7-13.7-4.9-4.7-1.1-9.5-1.8-14.2-1.9z"/>
  <path fill="#fff" d="m1152.1 713.6-6.4-5.6c-7.2 8.1-14.9 18-22.9 28s-16.4 20-24.8 28.4c-12.5 12.5-26.8 23.9-41.7 33.3-5.6 3.5-11.4 6.8-17.2 9.2s-11.5 3.8-16.6 4h-1.1c-6.5 0-14-1.6-21.6-4.3s-15.3-6.4-22.4-10.1c-20.1-10.6-37.4-23.4-53.8-39.3-3.1-3-6.6-7.2-10.2-12-5.5-7.3-11.3-16.1-17.5-25s-12.6-18-19.5-26c-5.5-6.3-11.9-12-18.6-17.2-6.7-5.1-13.7-9.7-20.4-13.8-4.6-2.7-9.3-4.8-14.1-6.5-7.1-2.6-14.2-4.6-20.4-6.9-3.1-1.1-5.9-2.3-8.5-3.6-2.5-1.3-4.7-2.7-6.5-4.2-.3-.2-.6-.5-.9-1-.5-.7-1.1-1.9-1.6-3.5-.4-1.2-.8-2.6-1.1-4.1-.6-2.3-1.2-4.9-2.2-7.7-.5-1.4-1.1-2.8-1.9-4.3s-1.8-2.9-3-4.3c-.8-.8-1.6-1.5-2.3-2-1.4-.9-2.8-1.5-4-1.9-1.1-.3-2.1-.6-3.2-.8-1.8-.3-3.5-.5-5.2-.6-2.5-.2-4.8-.3-6.6-.5-.9-.1-1.6-.2-2-.3-.2 0-.4-.1-.4-.1l-.7 1.9.9-1.7c-.1-.1-.2-.1-.2-.1l-.7 1.9.9-1.7c-1.7-.9-3.1-2.1-3.9-3.2-.4-.6-.7-1.1-.9-1.7s-.3-1.1-.3-1.8c0-.4 0-.8.1-1.2q.6-3.6.6-6.9c0-3.4-.5-6.6-1.3-9.5-1.2-4.4-3.1-8.2-5-11.5-1.9-3.4-3.9-6.3-5.6-9.1-4.1-6.8-9-13.6-14.4-20.1-5.5-6.5-11.5-12.5-18.1-17.6-8.1-6.3-16.7-11.3-25.6-15.8-8.9-4.4-17.9-8.2-26.9-11.9-6.4-2.6-12.2-4.9-17.4-7.2-7.8-3.4-14.3-6.7-20.1-10.8s-11.1-9.1-16.5-16.2c-2.6-3.5-4.9-7.7-6.8-12.5-2.9-7.2-5.2-15.7-7.7-24.5s-5.3-17.9-9.6-26.4c-3.1-6-6.9-11.6-11-17-6.2-8-13.1-15.4-19.6-22.7s-12.5-14.3-16.9-21.4c-3.2-5-5.7-10.6-8-16.5-1.8-4.4-3.4-9.1-5.2-13.8-2.7-7.1-5.7-14.5-10.1-21.7-4.3-7.1-10.1-14-18-19.9-4.2-3.1-8.8-5.4-13.5-7.2-7-2.6-14.3-4.1-21.4-5.3s-14.1-2.1-20.6-3.5c-44.2-9-94.8-18.5-142.5-26-23.9-3.7-47-7-68.2-9.4s-40.5-4-56.9-4.5c-17.5-.5-34-1.8-50.7-3.1-16.6-1.3-33.4-2.6-51-3-2.2-.1-5.1-.4-8.2-1.1-4.7-1-9.8-2.8-14-4.8-2.1-1-4-2.1-5.6-3.1-1.5-1-2.6-2.1-3.2-2.7-3.6-4.3-6.9-10.1-9.2-16.5s-3.6-13.4-3.6-20.1c0-.8 0-1.7.1-2.5 1.2-24.8 2.4-51.2 4.9-74.4.3-3.1 1.6-5.9 3.2-7.9.8-1 1.7-1.8 2.7-2.3.9-.6 1.9-.9 2.9-1 1.6-.2 3.3-.3 5-.3 5.1 0 11 1 17.1 2.4 6.2 1.5 12.6 3.4 19.1 5.1 20.1 5.3 40 12 60.2 18.4s40.7 12.7 61.9 17.1c43.9 9.2 89.9 12.3 134.7 12.8 17.1.2 34.1.3 51.2.3 94.1 0 188.1-2.7 281.9-2.7 14.3 0 28.6.1 42.8.2 40 .4 80.2 3.5 118.5 11.5 32.4 6.8 61.2 17.1 89.3 28.7s55.5 24.6 84.9 36.5c45 18.2 86.7 37.2 131.4 56.3 2.1.9 4.4 1.3 6.4 1.3s3.9-.3 5.7-.8c3.1-.9 5.8-2.3 8.3-4 3.8-2.5 7.3-5.5 10.3-8.6s5.6-6.3 7.5-9.3c.9-1.5 2.3-3 3.8-4.4 2.4-2.2 5.4-4.1 8.8-5.4s7-2.1 10.7-2.1c4.4 0 8.9 1 13.3 3.6 2.8 1.6 5.1 3.1 6.8 4.3 1.3.9 2.2 1.7 2.8 2.4.5.5.8.9 1.1 1.3.4.6.6 1 .7 1.7.2.6.3 1.5.3 2.8 0 1.8-.3 4.3-.8 7.6s-1.4 7.3-2.3 12.2c-.2 1.1-.3 2.1-.3 3.1 0 3 .7 5.6 1.8 7.9.8 1.7 1.7 3.3 2.8 4.7 1.6 2.1 3.4 3.9 5.5 5.4 1.1.7 2.2 1.4 3.4 2 1.2.5 2.6 1 4.2 1.2.7.1 1.3.1 2 .1 1.3 0 2.5-.2 3.7-.4 2-.4 3.9-1.1 5.8-1.9 2.7-1.3 5.4-2.9 7.8-4.9s4.6-4.3 6.4-7.1c.7-1.2 1.4-2.3 2.1-3.4.5-.8 1-1.6 1.5-2.2.7-1 1.4-1.6 1.6-1.8h.1l-.1-.2.1.2-.1-.2.1.2-.8-1.5.5 1.7c.2-.1.3-.1.4-.1l-.8-1.5.5 1.7-.8-2.9v3c.3 0 .6 0 .8-.1l-.8-2.9v3-2.8l-.9 2.7c.2.1.5.1.9.1v-2.8l-.9 2.7.5-1.6-.7 1.6s.1.1.2.1l.5-1.6-.7 1.6.3-.6-.3.6.3-.6-.3.6c3.8 2.4 7.8 4.8 11.9 7.3 6.1 3.8 12.3 8 17.4 12.8 2.6 2.4 4.8 4.9 6.8 7.6 1.9 2.7 3.5 5.5 4.6 8.5 8.5 22.6 14.8 42.8 20.5 63.6s10.9 42.3 17.1 67.3c1.1 4.2 1.5 8.7 1.5 13.1 0 6.3-.9 12.6-2 18.3-.6 2.9-1.2 5.6-1.7 8.1-.6 2.5-1.1 4.8-1.5 7 0 .2-.2.9-.6 1.9-.6 1.7-1.8 4.3-3.6 7.4-2.6 4.7-6.6 10.9-12.1 18.1s-12.6 15.5-21.5 24.7l-.6.6c-.4.4-.8.9-1.4 1.6-2.1 2.5-5.8 6.8-10.7 12.6-17 20.4-48.6 58.6-77.2 93.3-14.3 17.3-27.9 33.7-38.5 46.5-5.3 6.4-9.9 11.9-13.4 16.1q-2.7 3.15-4.5 5.4c-1.2 1.4-2.2 2.5-2.7 3.2zl6.4 5.6c.9-1 2.1-2.4 3.7-4.4 6.2-7.3 17.9-21.4 32.2-38.7 21.5-25.9 48.6-58.8 70.9-85.8 11.2-13.5 21.1-25.5 28.6-34.4 3.7-4.5 6.8-8.1 9.1-10.8 1.1-1.3 2.1-2.4 2.8-3.2.3-.4.6-.7.9-1l.3-.3.1-.1c14.2-14.7 24.2-27.4 30.9-37.5 3.4-5.1 5.9-9.5 7.7-13.3.9-1.9 1.7-3.6 2.3-5.2s1.1-3.1 1.4-4.6c.3-1.7.8-3.9 1.4-6.4.9-3.8 1.9-8.5 2.7-13.6s1.4-10.7 1.4-16.7c0-5.6-.5-11.4-2-17.2-6.2-24.9-11.4-46.4-17.2-67.6s-12.2-42-21-65.2c-2.3-6.1-5.7-11.4-9.5-16-5.8-6.9-12.7-12.3-19.5-16.9-6.7-4.6-13.3-8.3-18.4-11.6-1.2-.7-2.4-1.4-3.8-1.8s-2.8-.7-4.2-.6c-1.6 0-3.2.3-4.6.8-1.2.4-2.3 1-3.3 1.6-1.7 1.1-3 2.3-4.1 3.5-1.7 1.8-2.9 3.6-4 5.3s-1.9 3.2-2.5 4.2c-.3.5-1 1.3-1.8 2.1-1.3 1.2-3 2.4-4.5 3.1-.8.4-1.5.6-2 .8-.3.1-.5.1-.6.1h-.2v.2-.2.2-.2 1.7l.2-1.7h-.2v1.7l.2-1.7-.4 2.7.7-2.6c-.1 0-.2-.1-.4-.1l-.4 2.7.7-2.6-.3.9.4-.9h-.1l-.3.9.4-.9s-.4-.2-.9-.6c-.7-.6-1.5-1.5-2-2.3-.2-.4-.4-.8-.5-1.1 0-.1-.1-.2-.1-.3v-.1h-.5l.5.1v-.1h-.5l.5.1c.9-4.8 1.7-8.9 2.4-12.6.6-3.7 1-7.1 1.1-10.4 0-2.8-.3-5.6-1.2-8.3-.7-2.1-1.6-4-2.9-5.8-.9-1.3-2-2.6-3.1-3.7-1.7-1.7-3.6-3.3-5.8-4.8q-3.15-2.25-7.2-4.5c-7.1-4.1-14.7-5.9-21.8-5.9-8.1 0-15.6 2.2-22.1 5.7-3.2 1.8-6.2 3.8-8.8 6.2s-4.9 5-6.8 7.9c-.9 1.3-2.2 3.1-3.8 4.9-2.4 2.7-5.4 5.5-8.2 7.4-1.4.9-2.7 1.6-3.7 2.1-1 .4-1.7.5-1.8.5l-.1.9.4-.9c-.1-.1-.3-.1-.3-.1l-.1.9.4-.9c-44.4-19-86.2-38-131.7-56.4-28.8-11.7-56.2-24.6-84.8-36.4s-58.5-22.6-92.3-29.6c-39.8-8.4-81.1-11.5-121.8-11.9-14.3-.1-28.7-.2-43-.2-94.1 0-188.1 2.7-281.9 2.7q-25.5 0-51-.3c-44.1-.5-89.1-3.6-131.5-12.5-20.2-4.2-40.2-10.3-60.2-16.7-20.1-6.4-40.2-13.1-61-18.7-6.1-1.6-12.7-3.6-19.5-5.2-6.6-1.7-13.6-2.9-20.8-2.9-2.5 0-5 .2-7.5.5-3.3.5-6.4 1.6-9.2 3.3-4.1 2.4-7.4 5.9-9.7 9.9C7 71.8 5.5 76.2 5 81c-2.6 24-3.7 50.6-5 75.3v3.3c0 8.9 1.7 17.7 4.6 25.8s7.1 15.6 12.2 21.7c1.3 1.5 2.7 2.8 4.2 4 2.7 2.1 5.6 3.9 8.8 5.5 4.8 2.4 10 4.3 15.3 5.8 2.6.7 5.2 1.3 7.8 1.7 2.5.4 5 .7 7.5.8 17.1.5 33.5 1.7 50.2 3 16.6 1.3 33.5 2.6 51.5 3.2 15.6.5 34.6 2.1 55.5 4.4 62.8 7.2 143.4 21.6 209.3 35.1 4.8 1 9.6 1.7 14.2 2.5 7 1.1 13.7 2.2 19.6 3.8 2.9.8 5.7 1.7 8.2 2.9 2.5 1.1 4.7 2.4 6.7 3.9 5.3 3.9 9.2 8.3 12.4 13.2 2.4 3.7 4.5 7.7 6.3 11.9 2.8 6.3 5.1 13.3 7.9 20.5 2.7 7.2 5.9 14.6 10.4 21.8 3.6 5.7 7.7 10.9 12 16.1 6.5 7.7 13.4 14.9 19.5 22.1 6.2 7.2 11.6 14.3 15.2 21.5 2.3 4.5 4.2 9.5 5.9 15 2.6 8.2 4.8 17.1 7.7 25.9 1.4 4.4 3 8.8 5 13s4.3 8.3 7.2 12.1c4.2 5.6 8.6 10.3 13.2 14.3 6.9 6 14.2 10.5 22.1 14.4s16.3 7.2 25.9 11c8.9 3.6 17.5 7.2 25.7 11.3s15.8 8.6 22.8 14c5.4 4.2 10.7 9.4 15.5 15.1s9.2 11.9 12.9 18c2.6 4.3 5.1 7.9 6.8 11.3.8 1.7 1.5 3.3 1.9 4.9s.7 3.2.7 5c0 1.2-.1 2.5-.4 3.9s-.4 2.9-.4 4.3c0 2.5.4 5 1.2 7.2 1.1 3.4 3 6.3 5.3 8.7 2.2 2.4 4.8 4.3 7.5 5.8 1.5.8 2.9 1.2 4.1 1.5 1.1.3 2.2.4 3.2.6 1.8.2 3.6.4 5.3.5q1.95.15 3.6.3c1.6.1 3 .3 3.7.5.2 0 .3.1.3.1l.8-2-1.2 1.8c.2.1.3.2.3.2l.8-2-1.2 1.8 2.5-3.9-3.4 3.2c.4.4.7.7.9.8l2.5-3.9-3.4 3.2c.2.2.4.5.6 1 .5.8 1 2.2 1.4 3.9.4 1.3.7 2.8 1.2 4.5.6 2.5 1.4 5.3 2.7 8.2.6 1.5 1.4 3 2.5 4.4 1 1.5 2.3 2.9 3.8 4.2 4 3.5 8.6 6 13.2 8.1 6.9 3.1 14.1 5.2 20.8 7.5 6.7 2.2 12.9 4.5 17.8 7.5 6.4 3.8 12.8 8.1 18.8 12.7s11.6 9.6 16.1 14.9c4.1 4.7 8.2 10.1 12.3 15.8 6.1 8.5 12.1 17.6 18 26 3 4.2 5.9 8.3 8.9 12s5.9 7.2 9 10.2c17.4 16.8 36.2 30.7 57.7 42.1 7.5 4 15.9 8 24.7 11.1s18 5.3 27.3 5.3h1.6c7.9-.2 15.5-2.3 22.6-5.2s13.8-6.7 19.9-10.6c15.9-10.1 31.1-22.2 44.6-35.7 9.1-9.1 17.8-19.6 26-29.7s15.8-19.9 22.4-27.4zm-676.8 24.8v17.7h-352v-17.7h-4v21.7h360v-21.7zm-89.4 9.4v10.3h4v-10.3zm-178 0v10.3h4v-10.3zm89.1-5.5v15.8h4v-15.8z"/>
  <path d="M476.3 739.1v18h-354v-18h-2v20h358v-20zm-89.4 9.4v9.6h2v-9.6zm-178 0v9.6h2v-9.6zm89.1-5.4v15h2v-15zm58.9-23.9c.4.5.7 1 1 1.6s.4 1.3.6 2.2c.2 1.1.3 2.4.3 3.8 0 1.3-.1 2.5-.4 3.7s-.6 2.2-1.2 2.9-1.2 1.4-2 1.8v.4q2.4-1.05 3.9-3.6c1.5-2.55 1.5-3.5 1.5-5.5 0-1.4-.3-2.7-.8-4s-1.2-2.4-2.2-3.3c-.7-.7-1.5-1.2-2.5-1.7v.4c.9.3 1.4.8 1.8 1.3m-14.3 2.8h-.4l-2.7 1.1.1.4c.3-.1.5-.1.7-.1s.3 0 .4.1.2.2.2.4c.1.3.1.9.1 1.9v3.4c0 .6 0 .9-.1 1.1s-.2.3-.4.4-.4.1-.9.1v.4h4.4v-.4c-.5 0-.8 0-1-.1s-.3-.2-.4-.4-.1-.6-.1-1.1v-4.8c.3-.4.7-.7 1.3-1 .3-.2.7-.3 1-.3q.75 0 1.2.6c.2.3.3.8.3 1.6v4.8c-.1.2-.2.4-.4.5s-.5.2-1 .2v.4h4.5v-.4c-.5 0-.8-.1-1-.2s-.3-.2-.4-.4-.1-.5-.1-1.1v-4.8c.5-.5.9-.8 1.3-1s.7-.3 1-.3q.9 0 1.2.6.3.45.3 1.5v4.7c-.1.2-.2.4-.3.5-.2.1-.5.2-.9.2h-.2v.4h4.4v-.4c-.4 0-.7-.1-.9-.2s-.3-.2-.4-.4-.1-.6-.1-1.2v-3.8c0-.8-.1-1.4-.2-1.8q-.3-.9-.9-1.2c-.6-.3-.8-.4-1.3-.4s-1 .1-1.4.4-1 .8-1.7 1.5c-.1-.6-.4-1.1-.8-1.4s-.9-.5-1.4-.5c-.3 0-.7.1-1 .2s-.7.3-.9.6c-.1.1-.5.5-1.2 1.1V722zm-14.1 1.9c.3-.1.5-.2.8-.2.8 0 1.4.4 1.9 1.2s.7 1.8.7 2.9c0 1-.2 1.8-.7 2.3s-1 .8-1.5.8-.9-.2-1.2-.5c-.5-.4-.8-1-1-1.7s-.3-1.4-.3-2c0-.5.1-1.3.2-2.1.4-.4.8-.6 1.1-.7m4.2-6.2c-.7 0-1.4.1-2.3.4s-1.7.8-2.5 1.7-1.6 1.8-2 2.8-.7 2.2-.7 3.4c0 1.9.6 3.4 1.9 4.5.6.6 1.4.9 2.3.9 1.3 0 2.4-.6 3.2-1.7.7-.9 1-1.9 1-3s-.3-2.1-1-2.8-1.4-1.1-2.4-1.1c-.9 0-1.9.3-2.8 1 .2-.9.5-1.7.9-2.3s.8-1.2 1.3-1.8 1.1-.9 1.6-1.2 1.2-.4 2.1-.5v-.4h-.6zm-9.6 11c-.2.3-.4.5-.6.7s-.5.3-.8.3-.8.1-1.5.1h-3.5c.4-.4 1.4-1.4 3-3.2 1.1-1.2 1.9-2.3 2.3-3.3.3-.7.5-1.3.5-2 0-.9-.4-1.8-1.1-2.4s-1.6-1-2.7-1c-1 0-1.9.3-2.5 1s-1.1 1.6-1.3 2.8h.4c.2-.7.6-1.3 1.1-1.7s1.1-.6 1.8-.6 1.3.3 1.8.8.8 1.2.8 2.1c0 1.1-.5 2.3-1.4 3.6s-2.6 3-4.9 5.1v.4h7.8l.9-2.5h-.1zm-17.5-2.3 4.6-6.6v6.6zm6.2 0v-8.6h-1.1l-6.1 8.8v1.3h5.6v3.5h1.6v-3.5h1.8v-1.4h-1.8zm-9.5 7.3c-.4-.5-.7-1-1-1.6s-.4-1.3-.6-2.2c-.2-1.1-.3-2.4-.3-3.8 0-1.3.1-2.5.4-3.7s.6-2.2 1.2-2.9 1.2-1.4 2-1.8v-.4q-2.4 1.05-3.9 3.6c-1.5 2.55-1.5 3.5-1.5 5.5 0 1.4.3 2.7.8 4s1.2 2.4 2.2 3.3c.7.7 1.5 1.2 2.5 1.7v-.4c-.9-.3-1.4-.8-1.8-1.3M290 719.4c-.3.7-.5 1.1-.6 1.4-.3.5-.6.9-1 1.2s-.7.6-1.1.7v.3h1.4v6c0 .6.1 1.1.2 1.4s.3.5.6.7.6.2.9.2c.4 0 .9-.2 1.3-.5s.7-.8 1-1.4h-.4c-.1.3-.3.5-.5.6s-.4.2-.6.2q-.45 0-.6-.3c-.15-.3-.2-.6-.2-1.2V723h2.1v-.7h-2.1v-2.9zm-3.1 3.6v-.7h-2.3v-.6c0-1.4 0-2.3.1-2.6s.2-.6.4-.7.5-.2.8-.2c.2 0 .5.1.7.2s.4.4.7.7.4.6.6.7.3.2.5.2.4-.1.5-.3.3-.4.3-.6c0-.4-.2-.7-.6-1-.6-.4-1.2-.7-1.9-.7s-1.4.2-2 .6-1 .9-1.3 1.5-.4 1.4-.4 2.3v.6h-1.7v.7h1.7v5.9c0 .6 0 1.1-.1 1.3s-.2.4-.4.5-.5.2-.7.2h-.4v.4h5.3v-.4h-.8c-.4 0-.7-.1-1-.4-.2-.2-.3-.7-.3-1.6v-6zm-15.4 2.3c-.4.1-.8.2-1.1.2-.6 0-1.1-.3-1.6-.8-.6-.8-.9-1.8-.9-3.2 0-1 .2-1.8.7-2.3s.9-.8 1.5-.8c.5 0 .9.2 1.3.6s.7 1 .9 1.7.3 1.4.3 2c0 .5-.1 1.2-.2 2q-.3.45-.9.6m-4.5 6.2c1.2 0 2.4-.3 3.4-1 1.3-.8 2.3-1.9 3-3.2s1.1-2.6 1.1-4.1c0-1.6-.5-3-1.4-4.1-.8-.9-1.7-1.3-2.8-1.3-1.3 0-2.3.5-3.1 1.7-.7.9-1 1.9-1 3.1s.3 2.1 1 2.9 1.5 1.1 2.4 1.1c.8 0 1.8-.3 2.8-1-.3 1.1-.7 2.2-1.4 3.1s-1.4 1.6-2.1 2-1.5.6-2.4.6v.4h.5zm-5.5-6.2c-.4.1-.8.2-1.1.2-.6 0-1.1-.3-1.6-.8-.6-.8-.9-1.8-.9-3.2 0-1 .2-1.8.7-2.3s.9-.8 1.5-.8c.5 0 .9.2 1.3.6s.7 1 .9 1.7.3 1.4.3 2c0 .5-.1 1.2-.2 2q-.3.45-.9.6m-4.5 6.2c1.2 0 2.4-.3 3.4-1 1.3-.8 2.3-1.9 3-3.2s1.1-2.6 1.1-4.1c0-1.6-.5-3-1.4-4.1-.8-.9-1.7-1.3-2.8-1.3-1.3 0-2.3.5-3.1 1.7-.7.9-1 1.9-1 3.1s.3 2.1 1 2.9 1.5 1.1 2.4 1.1c.8 0 1.8-.3 2.8-1-.3 1.1-.7 2.2-1.4 3.1s-1.4 1.6-2.1 2-1.5.6-2.4.6v.4h.5zm-10.2-10.8c.7-1.1 1.5-1.6 2.5-1.6.6 0 1.1.2 1.6.6s.6 1 .6 1.6c0 .5-.1 1-.4 1.4s-.6.8-1.1 1.1-1 .5-1.5.6v.3h.3q.75 0 1.5.3c.75.3.9.4 1.2.7.2.2.4.5.6.8q.3.75.3 1.5c0 .7-.2 1.3-.7 1.8s-1.1.8-1.7.8c-.3 0-.5 0-.8-.1-.1 0-.4-.2-.8-.4l-.8-.4c-.2-.1-.3-.1-.5-.1s-.4.1-.6.2-.2.3-.2.5c0 .3.2.5.5.7s.9.3 1.8.3c1.8 0 3.2-.5 4.1-1.6.7-.8 1.1-1.8 1.1-3q0-1.2-.6-2.1c-.6-.9-1-1-1.8-1.4q1.8-1.5 1.8-3c0-.6-.2-1.1-.6-1.7-.6-.7-1.4-1-2.4-1-.9 0-1.6.2-2.2.7s-1.1 1.2-1.4 2.1zm-8.9-1.1c.4-.2.8-.3 1-.3s.3 0 .4.1.2.3.2.5c.1.3.1.9.1 1.9v7.1c0 .8 0 1.3-.1 1.4s-.2.3-.4.4-.6.1-1.2.2v.4h5v-.4c-.6 0-1-.1-1.2-.2s-.3-.2-.4-.4-.1-.6-.1-1.4v-11.2h-.2l-3.2 1.6z"/>
  <path fill="#fff" d="m356.9 719.2-1.2.9c.3.4.6.8.8 1.2s.4 1 .5 1.8c.2 1 .3 2.2.3 3.5 0 1.2-.1 2.3-.3 3.4q-.3 1.5-.9 2.4c-.4.6-.9 1-1.5 1.4l-.8.4v3.5l2.1-.9c1.9-.8 3.5-2.3 4.6-4.2s1.7-4 1.7-6.3c0-1.6-.3-3.1-.9-4.6s-1.4-2.7-2.5-3.8c-.8-.8-1.8-1.5-2.9-2l-2.2-1.1v3.6l.7.4c.6.4 1 .8 1.3 1.1zl1.2-.9c-.5-.6-1.2-1.2-1.9-1.7l-.8 1.2h1.5v-.4h-1.5l-.7 1.3c.9.4 1.5.9 2.1 1.4.8.8 1.4 1.7 1.8 2.8s.7 2.2.7 3.4c0 1.8-.4 3.3-1.3 4.8-.9 1.4-1.9 2.4-3.2 3l.6 1.4h1.5v-.4h-1.5l.7 1.3c1-.6 1.8-1.3 2.5-2.3s1.1-2.1 1.4-3.4.4-2.6.4-4c0-1.5-.1-2.8-.3-4.1-.2-1-.4-1.8-.7-2.5s-.7-1.3-1.2-1.9zm-14.3 2.8v-1.5h-.7l-4.4 1.8 1.3 3.1 1.4-.5h.1v-.1.1-.1.1-.9l-.6.7c.2.2.5.2.6.2v-.9l-.6.7.6-.8-.9.4q0 .15.3.3l.6-.8-.9.4.3-.1-.3.1v.1l.3-.1-.3.1s.1.7.1 1.6v4l.5.1-.5-.2v.1l.5.1-.5-.2.6.3-.3-.6c-.1.1-.3.2-.3.3l.6.3-.3-.6.4.7-.2-.7-.1.1.4.7-.2-.7v.1-.1.1-.1h-1.8v3.4h7.4v-3.4h-1.9l-.2.8.4-.7c-.1-.1-.2-.1-.2-.1l-.2.8.4-.7-.3.6.6-.3c0-.1-.2-.2-.3-.3l-.3.6.6-.3-.6.3.7-.1-.1-.1-.6.3.7-.1v-5.5h-1.5l1.2.9c.1-.2.4-.4.8-.6.2-.1.2-.1.3-.1l.1-.2-.1.1.1-.2-.1.1.1-.1h-.1l.1-.1h-.1s.1.3.1.8v4.5l.8.1-.8-.2v.1l.8.1-.8-.2.5.2-.3-.5c-.1.1-.2.3-.2.3l.5.2-.3-.5.4.6-.2-.7-.2.1.4.6-.2-.7v.1-.1.1-.1h-1.9v3.4h7.5v-3.4h-1.9l-.2.6.3-.5h-.1l-.2.6.3-.5-.3.6.6-.3c-.1-.2-.3-.3-.3-.3l-.3.6.6-.3-.7.3.8-.2-.1-.2-.7.3.8-.2v-5.5l-1.5.1 1.5.3v-.1l-1.5-.3 1 1.1c.4-.4.8-.6.9-.7.2-.1.3-.1.4-.1h.1v-.2l-.2.1.1.1v-.2l-.2.1 1.3-.8-1.3.8.1-.1-.2.1.1-.1-.2.1c0 .1.1.4.1.8v4.5l.6.1-.6-.1v.1l.6.1-.6-.1 1.5.3-1.4-.4.6.2-.3-.5c-.2.1-.3.3-.3.3l.6.2-.3-.5.2.3-.1-.3-.1.1.2.3-.1-.3h-1.8v3.4h7.4v-3.4h-1.8l-.1.4.2-.4-.1-.1-.1.4.2-.4-.3.6.6-.3q-.15-.3-.3-.3l-.3.6.6-.3-1.4.6 1.4-.6-.3.1.4-.1v-.1l-.3.1.4-.1v-4.4c0-.9-.1-1.6-.3-2.3-.3-.8-.7-1.5-1.4-1.9-.6-.4-1.4-.6-2.1-.6s-1.5.2-2.1.5c-.8.4-1.4 1-2.1 1.9l1.1 1 1.5-.3c-.2-.9-.6-1.7-1.3-2.3-.7-.5-1.5-.8-2.4-.8-.5 0-1.1.1-1.6.3s-.9.5-1.4.8c-.2.2-.6.5-1.2 1.2l1.1 1.1h1.5v-3.4h-1.5v1.4h-1.5v5.5l2.6-2.6c.6-.6 1-1 1.1-1 .2-.2.4-.3.5-.3.2-.1.3-.1.4-.1.3 0 .4.1.5.2s.2.2.3.6l.6 2.9 2-2.3c.6-.7 1.1-1.1 1.3-1.2.3-.1.5-.2.7-.2s.3 0 .4.1c0 0 .2.1.3.5 0 0 .1.5.1 1.2v3.8c0 .7 0 1.1.2 1.7.2.5.6.8 1 1 .6.3 1.1.3 1.6.3v-1.5h-1.5v.4h1.5v-1.5h-4.4v1.5h1.5v-.4h-1.5v1.5h.2c.6 0 1.2-.1 1.8-.5.5-.3.8-.9.9-1.3.1-.5.1-.7.1-1.3v-3.8c0-.9-.1-1.5-.5-2.3-.5-.9-1.6-1.4-2.5-1.3-.6 0-1.2.2-1.7.4-.6.3-1.1.7-1.6 1.2l-.4.3-.1.6v5.9c0 .3 0 .5.2.9.2.5.7.9 1 1.1.6.3 1.1.3 1.7.3v-1.5H348v.4h1.5v-1.5H345v1.5h1.5v-.4H345v1.5c.6 0 1.1 0 1.8-.4.5-.3.9-.8 1-1.4s.1-.8.1-1.4v-3.8c0-.9-.1-1.6-.6-2.4s-1.5-1.3-2.4-1.3c-.6 0-1.2.2-1.8.5l.7 1.3-.7-1.3c-.7.4-1.3.8-1.7 1.3l-.3.4v5.3c0 .7 0 1.1.3 1.8.2.4.6.8 1 1.1.7.3 1.1.3 1.7.3v-1.5h-1.5v.4h1.5v-1.5h-4.4v1.5h1.5v-.4h-1.5v1.5c.5 0 .9 0 1.6-.3.5-.3.8-.7 1-1.1.3-.6.2-1.1.3-1.7v-3.4c0-1 0-1.6-.1-2.2-.1-.4-.2-.8-.7-1.3-.4-.4-1-.5-1.4-.5-.5 0-.8.1-1.2.2l.5 1.4 1.4-.6-.1-.4-1.4.6.6 1.4 2.4-1h.1V722h-1.5zm-14.1 1.9.5 1.4c.1-.1.2-.1.3-.1.3 0 .3 0 .6.4.3.6.5 1.3.5 2.2 0 .8-.2 1.2-.3 1.3-.3.3-.3.2-.4.3-.2 0-.1 0-.2-.1l-1 1.1 1-1.1c-.2-.2-.5-.6-.6-1.1-.2-.6-.3-1.1-.3-1.6 0-.4.1-1.1.2-1.9l-1.5-.2.8 1.3c.5-.3.9-.5 1-.5zl-.5-1.4c-.5.2-.9.4-1.5.8l-.6.4-.1.7c-.1.9-.2 1.7-.2 2.3 0 .8.1 1.6.4 2.5s.8 1.7 1.4 2.4c.6.6 1.4.9 2.2.9 1.1 0 2-.6 2.7-1.3.7-.9 1-2 1-3.2 0-1.3-.3-2.5-.8-3.6-.6-1.2-1.9-2-3.2-2-.5 0-.9.1-1.3.2zm4.2-6.2v-1.5c-.9 0-1.8.2-2.8.5-1.1.4-2.1 1.1-3.1 2q-1.5 1.5-2.4 3.3c-.6 1.3-.8 2.6-.8 4 0 2.2.8 4.2 2.3 5.6.9.9 2.1 1.3 3.3 1.3 1.8 0 3.4-.8 4.4-2.3.8-1.1 1.3-2.5 1.3-3.9s-.4-2.8-1.4-3.8c-.9-1-2.1-1.6-3.5-1.6-1.3 0-2.5.5-3.7 1.2l.9 1.2 1.5.4c.2-.8.5-1.5.7-2 .3-.5.6-1 1.1-1.4q.6-.6 1.2-.9c.3-.2.9-.3 1.6-.4l1.4-.1v-3.2h-2.1v3.1h.6v-1.5h-1.5v.4h1.5l-.1-1.5c-1 .1-1.8.3-2.6.6-.7.3-1.4.8-2 1.5-.6.6-1.2 1.3-1.6 2.1s-.7 1.7-1 2.6l-1 3.9 3.3-2.3c.8-.5 1.4-.7 2-.7.5 0 .8.1 1.2.6.4.4.6.9.6 1.8 0 .8-.2 1.5-.7 2.1-.6.8-1.1 1-2 1-.6 0-.9-.1-1.3-.5-.9-.9-1.4-1.9-1.4-3.4 0-1 .2-1.9.6-2.8s.9-1.7 1.7-2.4 1.5-1.2 2-1.4q1.05-.3 1.8-.3zm-9.6 11-1.3-.8c-.1.1-.1.2-.2.2l-.2.1c-.1 0-.6.1-1.2.1h-3.5v1.5l1 1.1c.5-.5 1.5-1.5 3.1-3.3 1.2-1.3 2-2.5 2.6-3.7.4-.8.6-1.7.6-2.6 0-1.3-.6-2.6-1.5-3.5-1-1-2.3-1.5-3.7-1.5-1.3 0-2.6.5-3.6 1.4s-1.5 2.2-1.7 3.7l-.2 1.7h3.2l.3-1q.3-.75.6-.9c.3-.2.5-.3.9-.3.3 0 .5.1.8.3.2.3.3.5.4 1 0 .7-.3 1.6-1.1 2.8s-2.4 2.8-4.6 4.9l-.5.4v2.5h10.4l2-5.5h-3.4l-.4.7zv1.5h.4v-1.5l-1.4-.5-.6 1.6h-6.8v1.5h1.5v-.4h-1.5l1 1.1q3.45-3.15 5.1-5.4c1-1.5 1.7-3 1.7-4.5 0-1.1-.4-2.3-1.2-3.1-.7-.8-1.8-1.3-2.9-1.3-.9 0-1.9.3-2.6.9-.8.6-1.4 1.4-1.7 2.4l1.4.5V720h-.4v1.5l1.5.2c.1-1 .4-1.5.8-1.9s.8-.5 1.5-.5c.8 0 1.2.2 1.7.6.5.5.6.8.6 1.4 0 .4-.1.9-.3 1.4q-.6 1.35-2.1 3c-1.6 1.8-2.6 2.8-2.9 3.1l-2.9 2.6h7.4c.7 0 1.3 0 1.7-.1.5-.1 1-.3 1.4-.6s.8-.7 1-1.2zv1.5zm-17.5-2.3 1.2.9 1.9-2.7v.4h-3.1zl1.2.9zv1.5h6.1v-12.8l-9 12.8h2.9zm6.2 0h1.5v-10.1H310l-6.9 9.8v3.2h5.6v3.5h4.6v-3.5h1.8v-4.4h-3.3zh1.5zv1.5h1.8v-1.5h-1.5v1.4h1.5v-1.5h-3.3v3.5h-.1v1.5h1.5v-5h-7.1v1.5h1.5v-.8l5.4-7.7h.3v-1.5h-1.5v10.1h1.5zm-9.5 7.3 1.2-.9c-.3-.4-.6-.8-.8-1.2s-.4-1-.5-1.8c-.2-1-.3-2.2-.3-3.5 0-1.2.1-2.3.3-3.4.2-1 .6-1.8.9-2.4.4-.6.9-1 1.5-1.3l.8-.4V715l-2.1.9c-1.9.8-3.4 2.3-4.6 4.2-1.1 1.9-1.7 4-1.7 6.3q0 2.4.9 4.5c.6 1.5 1.4 2.8 2.5 3.8.8.8 1.7 1.5 2.9 2l2.2 1.1v-3.6l-.6-.4c-.6-.4-1-.8-1.3-1.1zl-1.2.9c.5.6 1.2 1.2 1.9 1.7l.9-1.2h-1.5v.4h1.5l.7-1.3c-.9-.4-1.5-.9-2.1-1.5-.8-.8-1.4-1.7-1.8-2.8s-.7-2.2-.7-3.4c0-1.8.4-3.3 1.3-4.8.9-1.4 1.9-2.4 3.2-3l-.6-1.4h-1.5v.4h1.5l-.7-1.3c-1 .6-1.9 1.3-2.5 2.3s-1.1 2.1-1.4 3.4-.4 2.6-.4 4c0 1.5.1 2.8.3 4.1.2 1 .4 1.8.7 2.5s.7 1.3 1.2 1.9zM290 719.4l-1.4-.6c-.3.6-.5 1.1-.5 1.1l1.3.8-1.3-.8c-.2.4-.5.7-.7.9-.3.3-.5.4-.6.4l-.9.4v2.8h1.4v4.5c0 .8.1 1.4.3 2s.7 1.1 1.3 1.4c.5.3 1.1.5 1.6.5.8 0 1.6-.3 2.2-.8.7-.5 1.2-1.3 1.5-2.1l.7-2h-3.5l-.4.9.3.2-.2-.3-.1.1.3.2-.2-.3.2.3v-.4h-.2l.2.3v-.4.7l.5-.4c-.1-.1-.4-.3-.5-.2v.7l.5-.4-.6.5.7-.3-.1-.2-.6.5.7-.3-.2.1h.2l-.2.1h.2v-4.7h2.1v-3.7h-2.1V718H289l-.4.9zv1.5h.3v-1.5h-1.5v4.4h3.6v-1.5h-1.5v.7h1.5v-1.5h-3.6v7.3c0 .7 0 1.3.6 2.1.4.5 1.1.9 1.8.9.5 0 1.1-.2 1.5-.5.5-.3.8-.8 1-1.3l-1.4-.6v1.5h.4v-1.5l-1.4-.5c-.2.4-.3.7-.5.8-.2.2-.3.2-.4.2h-.1v-8.3h-2.9v1.5h1.5v-.3h-1.5l.6 1.4c.6-.2 1.1-.6 1.6-1s.9-1 1.3-1.5c.2-.4.4-.9.7-1.6zv1.5zm-3.1 3.6h1.5v-2.2h-3.8v1.5h1.5v-2.9l-.4-.2.2.3.1-.1-.4-.2.2.3-.2-.3.1.4.1-.1-.2-.3.1.4v-.1.1-.1.1-.2l-.1.2h.1v-.2l-.1.2s.1.1.2.3c.3.4.5.8 1 1.1.3.2.8.4 1.3.4.7 0 1.3-.3 1.6-.7.4-.4.7-1 .7-1.6 0-.9-.5-1.7-1.1-2.2-.8-.6-1.8-1-2.8-1s-2 .3-2.8.8-1.5 1.3-1.9 2.1c-.4.9-.6 1.8-.6 2.9v.6h1.5v-1.5h-3.2v3.7h1.7v5.2h.2l-.2-.1h.2l-.2-.1.4.2-.2-.4s-.2.1-.2.2l.4.2-.2-.4.1.1v-.1h-.1l.1.1v-.1h-1.9v3.4h8.3v-3.4h-2.3v.2l.1-.1h-.1v.2l.1-.1-.1.3.2-.2-.1-.1-.1.3.2-.2-1.1 1 1.2-1-.6.5.7-.3s0-.1-.1-.2l-.6.5.7-.3v-5.2h2.3V723zv-1.5h-3.8v7.4c.1 1 0 1.6.6 2.5.5.6 1.4 1 2.1 1h.8v-1.5h-1.5v.4h1.5v-1.5h-5.3v1.5h1.5v-.4h-1.5v1.5h.4c.5 0 1-.1 1.5-.4s.9-.8 1.1-1.3c.2-.6.2-1.1.2-1.8v-7.4h-3.2v1.5h1.5v-.7h-1.5v1.5h3.2v-2.1c0-.7.1-1.3.3-1.6.2-.4.4-.6.8-.9.4-.2.7-.3 1.2-.3.4 0 .6.1 1 .4h.1l.2-.1-.2.1v.1l.2-.1-.2.1.4-.2h-.5v.2l.4-.2h-.5.7l-.5-.5s-.2.2-.2.5h.7l-.5-.5.5.5v-.7c-.3 0-.5.2-.5.2l.5.5v-.7.6l.3-.5s-.1-.1-.3-.1v.6l.3-.5-.3.4.3-.4h-.1l-.3.4.3-.4-.3-.3c-.3-.4-.6-.8-1.1-1.2-.4-.3-1-.4-1.5-.4-.6 0-1.2.2-1.7.5-.5.4-.8 1-1 1.5-.2.7-.2 1.5-.2 3v2.1h3.8v-1.5h-1.5v.7zv-1.5zm-15.4 2.3-.5-1.4c-.3.1-.5.1-.6.1s-.1 0-.4-.2c-.3-.4-.6-1.1-.6-2.3 0-.8.2-1.2.3-1.4.3-.3.3-.2.4-.2s.1 0 .3.2.4.5.5 1c.2.6.3 1.2.3 1.6s0 1-.2 1.8l1.5.2-1-1.2c-.2.1-.4.3-.6.3zl.5 1.4q.9-.3 1.5-.9l.4-.4.1-.6c.1-.9.2-1.6.2-2.2 0-.8-.1-1.6-.4-2.5s-.7-1.7-1.3-2.3-1.5-1-2.4-1c-1 0-2.1.5-2.7 1.3-.8.9-1 2.1-1 3.3 0 1.6.3 3 1.2 4.1.6.9 1.7 1.5 2.8 1.4.5 0 1-.1 1.6-.3zm-4.5 6.2v1.5c1.5 0 3-.4 4.3-1.3 1.5-1 2.7-2.2 3.5-3.7s1.3-3.1 1.3-4.9c0-1.9-.6-3.7-1.8-5.1-1-1.2-2.4-1.9-3.9-1.9-1.7 0-3.3.8-4.3 2.3-.8 1.1-1.3 2.5-1.3 4s.4 2.9 1.4 3.9c.9 1 2.2 1.6 3.5 1.6 1.2 0 2.4-.5 3.6-1.2l-.8-1.3-1.5-.3c-.2 1-.6 1.8-1.2 2.6s-1.1 1.3-1.6 1.5c-.5.3-1.1.4-1.7.4H265v3.3h2.1V730h-.6v1.5h1.5v-.4h-1.5v1.5c1.1 0 2.1-.3 3-.8 1-.5 1.9-1.4 2.6-2.5.8-1.1 1.4-2.3 1.7-3.7l.8-3.6-3.1 2c-.9.6-1.5.8-2 .7-.5 0-.8-.1-1.3-.6-.4-.4-.6-.9-.6-1.8s.2-1.5.7-2.2c.6-.8 1.1-1 1.9-1 .7 0 1.1.2 1.7.8.7.8 1.1 1.8 1.1 3.1 0 1.2-.3 2.3-.9 3.4s-1.4 1.9-2.5 2.7c-.8.5-1.7.8-2.6.8zm-5.5-6.2-.5-1.4c-.3.1-.5.1-.6.1s-.1 0-.4-.2c-.3-.4-.6-1.1-.6-2.3 0-.8.2-1.2.3-1.4.3-.3.3-.2.4-.2s.1 0 .3.2.4.5.5 1c.2.6.3 1.2.3 1.6s0 1-.2 1.8l1.5.2-1-1.2c-.2.1-.4.3-.6.3zl.5 1.4q.9-.3 1.5-.9l.4-.4.1-.6c.1-.9.2-1.6.2-2.2 0-.8-.1-1.6-.4-2.5s-.7-1.7-1.3-2.3-1.5-1-2.4-1c-1 0-2.1.5-2.7 1.3-.8.9-1 2.1-1 3.3 0 1.6.3 3 1.2 4.1.6.9 1.7 1.5 2.8 1.4.5 0 1-.1 1.6-.3zm-4.5 6.2v1.5c1.5 0 3-.4 4.3-1.3 1.5-1 2.7-2.2 3.5-3.7s1.3-3.1 1.3-4.9c0-1.9-.6-3.7-1.8-5.1-1-1.2-2.4-1.9-3.9-1.9-1.7 0-3.3.8-4.3 2.3-.8 1.1-1.3 2.5-1.3 4s.4 2.9 1.4 3.9c.9 1 2.2 1.6 3.5 1.6 1.2 0 2.4-.5 3.6-1.2l-.8-1.3-1.5-.3c-.2 1-.6 1.8-1.2 2.6s-1.1 1.3-1.6 1.5c-.5.3-1.1.4-1.7.4H255v3.3h2.1V730h-.6v1.5h1.5v-.4h-1.5v1.5c1.1 0 2.1-.3 3-.8 1-.5 1.9-1.4 2.6-2.5.8-1.1 1.4-2.3 1.7-3.7l.8-3.6-3.1 2c-.9.6-1.5.8-2 .7-.5 0-.8-.1-1.3-.6-.4-.4-.6-.9-.6-1.8s.2-1.5.7-2.2c.6-.8 1.1-1 1.9-1 .7 0 1.1.2 1.7.8.7.8 1.1 1.8 1.1 3.1 0 1.2-.3 2.3-.9 3.4s-1.4 1.9-2.5 2.7c-.8.5-1.7.8-2.6.8zm-10.2-10.8 1.3.8c.5-.8.8-.9 1.3-.9.3 0 .4 0 .5.2.1.1.2.2.2.6 0 .3-.1.5-.2.7-.1.1-.2.3-.6.5s-.7.3-1 .4H247v3.1h1.8c.3 0 .6.1.9.2.4.2.6.3.7.4 0 0 .1.1.2.4s.2.6.2.9c0 .4-.1.5-.3.8-.3.3-.4.3-.6.3h-.3l-.1.2.1-.2-.1.2.1-.2c-.1 0-.3-.1-.5-.2l-1-.5-.4 1.4.4-1.4c-.3-.1-.6-.1-.9-.1-.5 0-1.2.2-1.6.6-.4.3-.7 1-.7 1.6 0 1 .6 1.6 1.1 1.9.9.5 1.7.6 2.7.6 2.1 0 4-.7 5.3-2.2 1-1.1 1.5-2.5 1.5-4q0-1.65-.9-3c-.6-.9-1.5-1.5-2.5-1.9l-.5 1.4 1 1.1c1.4-1.2 2.3-2.5 2.3-4.1 0-1-.4-1.9-1-2.6-.9-1.1-2.2-1.6-3.6-1.6-1.1 0-2.3.3-3.1 1.1-.8.7-1.4 1.6-1.8 2.6l-.6 1.3 2.8 1.4.7-1.1zl.7-1.4-.3-.2-.7 1.4 1.4.6c.3-.7.7-1.2 1-1.5.3-.2.6-.4 1.2-.4.8 0 1 .2 1.3.5s.3.5.3.7c0 .3-.2.9-1.3 1.8l-1.9 1.6 2.3.9c.6.2.9.5 1.2.8.2.3.3.7.4 1.2 0 .8-.2 1.4-.7 2-.6.7-1.5 1.1-3 1.1-.4 0-.7 0-.9-.1h-.2l-.1.2.1-.2h-.1l-.1.2.1-.2-.5.5h.7c0-.3-.2-.5-.2-.5l-.5.5h.7-.8l.6.6c.1-.1.3-.4.2-.6h-.8l.6.6-.5-.5v.7c.1 0 .4-.1.5-.2l-.5-.5v.7h.1l.1-.5-.2.4h.1l.1-.5-.2.4c.1 0 .3.1.5.3.4.2.7.4 1.1.5l.4-1.5-.4 1.4c.4.1.8.2 1.2.2 1.1 0 2.1-.5 2.8-1.2.7-.8 1.2-1.8 1.2-2.9 0-.7-.2-1.5-.5-2.1-.2-.5-.5-.9-.9-1.3-.5-.4-1-.7-1.6-1-.7-.3-1.4-.4-2.1-.4h-.3v1.5h1.5v-.3h-1.5l.2 1.5c.7-.1 1.5-.4 2.1-.8.7-.4 1.3-1 1.7-1.7s.5-1.4.5-2.1c0-1-.4-2-1.1-2.7s-1.7-1.1-2.6-1.1c-1.6 0-3 1-3.8 2.3zl.7-1.4zm-8.9-1.1.6 1.4c.2-.1.3-.1.4-.1v-.9l-.5.6c.1.1.4.2.5.2v-.8l-.5.6.4-.5-.7.2s0 .2.3.4l.4-.5-.7.2v9.6l.8.1-.7-.3-.1.2.8.1-.7-.3.6.3-.3-.6-.3.3.6.3-.3-.6.3.6-.2-.7-.1.1.3.6-.2-.7s-.3 0-.7.1h-1.5v3.3h8v-3.3h-2.2l-.1.6.3-.5h-.1l-.1.6.3-.5-.3.7.7-.2c-.1-.2-.3-.4-.4-.4l-.3.7.7-.2-.4.1.4-.1v-.1l-.4.1.4-.1v-13.7h-2.2l-4.9 2.4 1.4 3 1.3-.6zl1.4-.7-.1-.3-1.4.7.7 1.3 3.2-1.6-.7-1.3v1.5h.3v-1.5h-1.5v11.2c0 .8 0 1.2.2 1.9.2.6.7 1.1 1.1 1.3.7.3 1.1.3 1.8.3v-1.5h-1.5v.4h1.5v-1.5h-5v1.5h1.5v-.4H238v1.5c.7 0 1.1 0 1.9-.3.4-.2.8-.6 1.1-1.1.2-.5.2-.7.2-1v-8.2c0-1 0-1.6-.1-2.2l-1.5.3 1.5-.3c-.1-.4-.3-.9-.8-1.3-.4-.3-.9-.5-1.4-.5-.7 0-1.1.2-1.6.4zl1.4-.7z"/>
  <path d="M356.9 719.2c.4.5.7 1 1 1.6s.4 1.3.6 2.2c.2 1.1.3 2.4.3 3.8 0 1.3-.1 2.5-.4 3.7s-.6 2.2-1.2 2.9-1.2 1.4-2 1.8v.4q2.4-1.05 3.9-3.6c1.5-2.55 1.5-3.5 1.5-5.5 0-1.4-.3-2.7-.8-4s-1.2-2.4-2.2-3.3c-.7-.7-1.5-1.2-2.5-1.7v.4c.9.3 1.4.8 1.8 1.3m-14.3 2.8h-.4l-2.7 1.1.1.4c.3-.1.5-.1.7-.1s.3 0 .4.1.2.2.2.4c.1.3.1.9.1 1.9v3.4c0 .6 0 .9-.1 1.1s-.2.3-.4.4-.4.1-.9.1v.4h4.4v-.4c-.5 0-.8 0-1-.1s-.3-.2-.4-.4-.1-.6-.1-1.1v-4.8c.3-.4.7-.7 1.3-1 .3-.2.7-.3 1-.3q.75 0 1.2.6c.2.3.3.8.3 1.6v4.8c-.1.2-.2.4-.4.5s-.5.2-1 .2v.4h4.5v-.4c-.5 0-.8-.1-1-.2s-.3-.2-.4-.4-.1-.5-.1-1.1v-4.8c.5-.5.9-.8 1.3-1s.7-.3 1-.3q.9 0 1.2.6.3.45.3 1.5v4.7c-.1.2-.2.4-.3.5-.2.1-.5.2-.9.2h-.2v.4h4.4v-.4c-.4 0-.7-.1-.9-.2s-.3-.2-.4-.4-.1-.6-.1-1.2v-3.8c0-.8-.1-1.4-.2-1.8q-.3-.9-.9-1.2c-.6-.3-.8-.4-1.3-.4s-1 .1-1.4.4-1 .8-1.7 1.5c-.1-.6-.4-1.1-.8-1.4s-.9-.5-1.4-.5c-.3 0-.7.1-1 .2s-.7.3-.9.6c-.1.1-.5.5-1.2 1.1V722zm-14.1 1.9c.3-.1.5-.2.8-.2.8 0 1.4.4 1.9 1.2s.7 1.8.7 2.9c0 1-.2 1.8-.7 2.3s-1 .8-1.5.8-.9-.2-1.2-.5c-.5-.4-.8-1-1-1.7s-.3-1.4-.3-2c0-.5.1-1.3.2-2.1.4-.4.8-.6 1.1-.7m4.2-6.2c-.7 0-1.4.1-2.3.4s-1.7.8-2.5 1.7-1.6 1.8-2 2.8-.7 2.2-.7 3.4c0 1.9.6 3.4 1.9 4.5.6.6 1.4.9 2.3.9 1.3 0 2.4-.6 3.2-1.7.7-.9 1-1.9 1-3s-.3-2.1-1-2.8-1.4-1.1-2.4-1.1c-.9 0-1.9.3-2.8 1 .2-.9.5-1.7.9-2.3s.8-1.2 1.3-1.8 1.1-.9 1.6-1.2 1.2-.4 2.1-.5v-.4h-.6zm-9.6 11c-.2.3-.4.5-.6.7s-.5.3-.8.3-.8.1-1.5.1h-3.5c.4-.4 1.4-1.4 3-3.2 1.1-1.2 1.9-2.3 2.3-3.3.3-.7.5-1.3.5-2 0-.9-.4-1.8-1.1-2.4s-1.6-1-2.7-1c-1 0-1.9.3-2.5 1s-1.1 1.6-1.3 2.8h.4c.2-.7.6-1.3 1.1-1.7s1.1-.6 1.8-.6 1.3.3 1.8.8.8 1.2.8 2.1c0 1.1-.5 2.3-1.4 3.6s-2.6 3-4.9 5.1v.4h7.8l.9-2.5h-.1zm-17.5-2.3 4.6-6.6v6.6zm6.2 0v-8.6h-1.1l-6.1 8.8v1.3h5.6v3.5h1.6v-3.5h1.8v-1.4h-1.8zm-9.5 7.3c-.4-.5-.7-1-1-1.6s-.4-1.3-.6-2.2c-.2-1.1-.3-2.4-.3-3.8 0-1.3.1-2.5.4-3.7s.6-2.2 1.2-2.9 1.2-1.4 2-1.8v-.4q-2.4 1.05-3.9 3.6c-1.5 2.55-1.5 3.5-1.5 5.5 0 1.4.3 2.7.8 4s1.2 2.4 2.2 3.3c.7.7 1.5 1.2 2.5 1.7v-.4c-.9-.3-1.4-.8-1.8-1.3M290 719.4c-.3.7-.5 1.1-.6 1.4-.3.5-.6.9-1 1.2s-.7.6-1.1.7v.3h1.4v6c0 .6.1 1.1.2 1.4s.3.5.6.7.6.2.9.2c.4 0 .9-.2 1.3-.5s.7-.8 1-1.4h-.4c-.1.3-.3.5-.5.6s-.4.2-.6.2q-.45 0-.6-.3c-.15-.3-.2-.6-.2-1.2V723h2.1v-.7h-2.1v-2.9zm-3.1 3.6v-.7h-2.3v-.6c0-1.4 0-2.3.1-2.6s.2-.6.4-.7.5-.2.8-.2c.2 0 .5.1.7.2s.4.4.7.7.4.6.6.7.3.2.5.2.4-.1.5-.3.3-.4.3-.6c0-.4-.2-.7-.6-1-.6-.4-1.2-.7-1.9-.7s-1.4.2-2 .6-1 .9-1.3 1.5-.4 1.4-.4 2.3v.6h-1.7v.7h1.7v5.9c0 .6 0 1.1-.1 1.3s-.2.4-.4.5-.5.2-.7.2h-.4v.4h5.3v-.4h-.8c-.4 0-.7-.1-1-.4-.2-.2-.3-.7-.3-1.6v-6zm-15.4 2.3c-.4.1-.8.2-1.1.2-.6 0-1.1-.3-1.6-.8-.6-.8-.9-1.8-.9-3.2 0-1 .2-1.8.7-2.3s.9-.8 1.5-.8c.5 0 .9.2 1.3.6s.7 1 .9 1.7.3 1.4.3 2c0 .5-.1 1.2-.2 2q-.3.45-.9.6m-4.5 6.2c1.2 0 2.4-.3 3.4-1 1.3-.8 2.3-1.9 3-3.2s1.1-2.6 1.1-4.1c0-1.6-.5-3-1.4-4.1-.8-.9-1.7-1.3-2.8-1.3-1.3 0-2.3.5-3.1 1.7-.7.9-1 1.9-1 3.1s.3 2.1 1 2.9 1.5 1.1 2.4 1.1c.8 0 1.8-.3 2.8-1-.3 1.1-.7 2.2-1.4 3.1s-1.4 1.6-2.1 2-1.5.6-2.4.6v.4h.5zm-5.5-6.2c-.4.1-.8.2-1.1.2-.6 0-1.1-.3-1.6-.8-.6-.8-.9-1.8-.9-3.2 0-1 .2-1.8.7-2.3s.9-.8 1.5-.8c.5 0 .9.2 1.3.6s.7 1 .9 1.7.3 1.4.3 2c0 .5-.1 1.2-.2 2q-.3.45-.9.6m-4.5 6.2c1.2 0 2.4-.3 3.4-1 1.3-.8 2.3-1.9 3-3.2s1.1-2.6 1.1-4.1c0-1.6-.5-3-1.4-4.1-.8-.9-1.7-1.3-2.8-1.3-1.3 0-2.3.5-3.1 1.7-.7.9-1 1.9-1 3.1s.3 2.1 1 2.9 1.5 1.1 2.4 1.1c.8 0 1.8-.3 2.8-1-.3 1.1-.7 2.2-1.4 3.1s-1.4 1.6-2.1 2-1.5.6-2.4.6v.4h.5zm-10.2-10.8c.7-1.1 1.5-1.6 2.5-1.6.6 0 1.1.2 1.6.6s.6 1 .6 1.6c0 .5-.1 1-.4 1.4s-.6.8-1.1 1.1-1 .5-1.5.6v.3h.3q.75 0 1.5.3c.75.3.9.4 1.2.7.2.2.4.5.6.8q.3.75.3 1.5c0 .7-.2 1.3-.7 1.8s-1.1.8-1.7.8c-.3 0-.5 0-.8-.1-.1 0-.4-.2-.8-.4l-.8-.4c-.2-.1-.3-.1-.5-.1s-.4.1-.6.2-.2.3-.2.5c0 .3.2.5.5.7s.9.3 1.8.3c1.8 0 3.2-.5 4.1-1.6.7-.8 1.1-1.8 1.1-3q0-1.2-.6-2.1c-.6-.9-1-1-1.8-1.4q1.8-1.5 1.8-3c0-.6-.2-1.1-.6-1.7-.6-.7-1.4-1-2.4-1-.9 0-1.6.2-2.2.7s-1.1 1.2-1.4 2.1zm-8.9-1.1c.4-.2.8-.3 1-.3s.3 0 .4.1.2.3.2.5c.1.3.1.9.1 1.9v7.1c0 .8 0 1.3-.1 1.4s-.2.3-.4.4-.6.1-1.2.2v.4h5v-.4c-.6 0-1-.1-1.2-.2s-.3-.2-.4-.4-.1-.6-.1-1.4v-11.2h-.2l-3.2 1.6z"/>
  <path fill="red" d="m412.4 647.3-106.7 9.2 24.6-18.5-19.8-23.6z"/>
  <path fill="#fff" d="M412.4 647.3v-.2l-105.8 9 24-18.1-19.3-23 101 32.6zv-.2zl.1-.2-102.8-33.2 20.2 24-25.1 18.9 107.6-9.2.1-.5z"/>
  <path fill="#c8c8c8" d="M519.9 330.7c-1-2.6-2-5.8-2.9-9.3-1.3-5.3-2.4-11.2-3.1-17.1s-1.1-11.7-1.1-16.6c0-1.5 0-2.8.1-4.1.9-18.6 3.8-38.2 10.3-54.6 2.5-6.4 6.2-12.8 10.6-19 4.4-6.1 9.4-12 14.6-17.4 11.5-12 25-23.3 39.3-30.6 23.3-11.9 48.1-20 73.9-26.7 9.6-2.5 18.5-4.1 27.6-5.3s18.4-2.1 28.6-3c4.3-.4 8.3-.7 12.3-1 4.1-.3 8.3-.4 13.2-.4 4.7 0 10.2.2 16.7.6l1-15c-6.8-.4-12.5-.6-17.6-.6-5.3 0-9.9.2-14.2.5s-8.4.7-12.6 1c-10.3.9-19.8 1.7-29.3 3s-19.1 3-29.3 5.6c-26.5 6.8-52.4 15.3-77 27.8-16.4 8.4-31 20.7-43.3 33.5-5.6 5.8-11.1 12.2-16 19.1s-9.3 14.3-12.3 22.2c-7.3 18.8-10.3 39.8-11.3 59.4-.1 1.5-.1 3.2-.1 4.8 0 7.5.7 16.3 2.1 24.8.7 4.3 1.5 8.5 2.5 12.5s2.2 7.8 3.5 11.2zm-50.3-205.1c4.4.1 9.6 1 14.4 2.5s9.3 3.7 12.2 5.9c2.6 2 4.4 3.6 5.6 5.1.6.8 1.1 1.5 1.5 2.3s.7 1.7 1 2.8c.9 3.8 1.8 7.6 2.4 11.2.7 3.6 1.1 7 1.1 10.2 0 2.7-.3 5.1-1 7.4-1.3 4.6-4 9.3-7.4 14s-7.6 9.4-11.8 14.1c-5.5 6.2-11.1 12.6-16.9 18.1s-11.8 10.3-18.1 13.4c-6.1 3.1-12.8 5.2-20 6.8-7.1 1.6-14.7 2.5-22.3 3.2-7.7.7-15.6 1.2-23.4 1.2-7.7 0-15.3-.4-22.5-1.5l-2.2 14.8c8.1 1.2 16.4 1.7 24.7 1.7 8.4 0 16.7-.5 24.8-1.2 8-.7 16.1-1.7 24.2-3.5 8-1.8 16-4.3 23.5-8.1 8.2-4.1 15.3-9.8 21.7-16s12.3-12.8 17.8-19c4.1-4.6 8.6-9.6 12.7-15.2 4-5.5 7.6-11.7 9.7-18.6 1.2-3.9 1.6-7.8 1.6-11.6 0-4.5-.6-8.8-1.4-12.9s-1.7-8.1-2.6-11.7c-.5-2.2-1.2-4.2-2.1-6.1a27.7 27.7 0 0 0-5.2-7.2c-2-2-4.1-3.8-6.2-5.4-4.8-3.7-10.7-6.4-16.8-8.3s-12.5-3-18.6-3.2z"/>
  <path d="M1284.2 279c3.2 3.4 4.8 6.7 5.9 9.9.5 1.6 1 3.1 1.3 4.6.4 1.5.8 2.9 1.3 4.2 6.1 15.7 8.8 28 13.3 42.5 1.8 5.9 3.8 11.5 5.4 17s2.7 11 3 16.5c0 1.1.1 2.1.1 3.2 0 14.8-3.8 30.4-6.5 45.7-.5 2.8-1.6 5.8-2.7 8.8-1.1 3.1-2.3 6.3-2.7 9.8-.5 3.6-.8 7.4-.8 11.2 0 3.7.3 7.4 1 11 .9 4.6 2.7 8.9 4.5 13s3.4 8 4 11.8c.2 1.3.3 2.7.3 4.1 0 1.5-.2 3-.5 4.3s-.8 2.5-1.5 3.3c-9.8 12.7-21.1 25.2-31.4 37.8-18.7 23-37.5 45.9-56.7 68.5-21.2 25-43 49.5-64.5 74.4-22.4 25.9-42.7 52.8-65.6 77.9-5.6 6.1-12.1 11.6-18.9 16.4-10 7.2-20.1 14.8-30.9 19.3-8.9 3.7-19.4 5-29.4 5.8-1.3.1-2.7.2-4.1.2-5 0-10.2-.7-15.2-1.8-9.9-2.1-19.8-4.1-28.8-8.6l-2.2 4.5c9.8 4.9 20.2 6.9 30 9.1 5.3 1.1 10.8 1.9 16.3 1.9 1.5 0 3-.1 4.5-.2 10.2-.8 21.2-2.1 31-6.2 11.6-4.8 22-12.7 31.9-19.8 7-5 13.8-10.7 19.6-17.1 23.1-25.3 43.4-52.2 65.7-78 21.5-24.8 43.3-49.3 64.6-74.4 19.2-22.6 38-45.6 56.7-68.6 10.2-12.5 21.5-25 31.5-37.9 1.2-1.6 2-3.3 2.4-5.2.5-1.8.6-3.7.6-5.5 0-1.7-.2-3.4-.4-5-.8-4.6-2.6-8.8-4.3-12.9-1.8-4.1-3.4-8-4.2-11.9-.6-3.2-.9-6.6-.9-10.1s.3-7.1.7-10.6c.4-2.8 1.4-5.7 2.5-8.7s2.3-6.2 2.9-9.7c2.6-15.1 6.6-30.9 6.6-46.6 0-1.1 0-2.3-.1-3.4-.2-6.1-1.5-11.9-3.1-17.7s-3.7-11.4-5.4-17.1c-4.4-14.2-7.2-26.7-13.5-42.8-.4-1-.7-2.2-1.1-3.7-.6-2.2-1.3-4.9-2.5-7.8a31.9 31.9 0 0 0-5.9-8.9z"/>
  <path fill="#c8c8c8" d="M1204.1 227.2c2.9 1.7 5.1 3.1 6.9 4.4 1.3 1 2.2 1.8 2.9 2.5q.75.75 1.2 1.5c.4.7.7 1.2.9 2q.3 1.05.3 3c0 1.9-.3 4.5-.8 7.8-.6 3.3-1.4 7.4-2.3 12.2-.2 1-.3 2-.3 2.9 0 2.8.7 5.3 1.7 7.5.7 1.6 1.7 3.1 2.7 4.5 1.5 2 3.3 3.8 5.3 5.2 1 .7 2.1 1.3 3.2 1.9 1.2.5 2.5.9 3.9 1.1.6.1 1.3.1 1.9.1 2.4 0 4.6-.5 6.7-1.3 3.1-1.1 6.1-2.8 8.9-4.9 1.4-1 2.7-2.2 3.9-3.5q1.8-1.95 3.3-4.2c.7-1.1 1.4-2.3 2.1-3.4.5-.8 1-1.6 1.6-2.3.7-1 1.5-1.8 1.8-2l.2-.1-.4-.9.2.9c.1 0 .2-.1.2-.1l-.4-.9.2.9-.5-1.9v2c.2 0 .4 0 .5-.1l-.5-1.9v2-1.8l-.6 1.8c.1 0 .3.1.6.1v-1.8l-.6 1.8.2-.7-.3.7h.1l.2-.7-.3.7h.1l8-12.7c-1.1-.7-2.3-1.3-3.6-1.7q-1.95-.6-3.9-.6c-1.5 0-3 .3-4.3.7-2.3.8-4 2-5.5 3.3-2.1 1.9-3.7 4-4.9 5.9-1.3 1.9-2.3 3.7-3 4.9-.4.6-1.1 1.5-2 2.3-1.3 1.3-3.1 2.5-4.8 3.3-.8.4-1.6.7-2.2.8-.6.2-1 .2-1.1.2v.9l.1-.9h-.1v.9l.1-.9-.2 1.7.5-1.7h-.2l-.2 1.7.5-1.7-.1.4.1-.4-.1.4.1-.4s-.5-.2-1-.6c-.8-.6-1.7-1.6-2.3-2.6-.3-.5-.5-1-.6-1.3-.1-.4-.1-.6-.1-.7v-.1c.9-4.8 1.7-8.9 2.4-12.6.6-3.7 1-7 1-10.3 0-2.7-.3-5.4-1.1-8-.6-2-1.6-3.9-2.7-5.6-1.8-2.6-4-4.8-6.6-6.8s-5.6-3.9-9.2-6z"/>
  <path fill="#fff" d="M1401.7 389.4c6 3.7 10.1 6.5 14.1 9.6s7.9 6.3 13.2 10.6c.9.7 1.4 1.4 1.7 2s.4 1.2.4 1.9c0 .6-.1 1.4-.4 2.2-.5 1.5-1.5 3.2-2.8 5-2 2.7-4.7 5.5-7.3 8-1.3 1.3-2.6 2.5-3.7 3.6-1.2 1.1-2.2 2.2-3.1 3.1-.5.5-1.2 1.2-2.2 1.8-1.7 1.1-4 2.3-6.6 3.4-3.9 1.7-8.3 3.4-12.3 5.4-2 1-3.9 2-5.6 3.3-1.7 1.2-3.2 2.6-4.3 4.4-2.1 3.6-3.6 5.9-4.7 7.6-.8 1.2-1.4 2-1.8 2.6-.3.4-.6.8-.9 1.1-.4.5-1 1.1-1.6 1.9s-1.4 1.9-2.4 3.4c-.5.7-1.2 1.8-2 3.2-1.3 2-2.8 4.5-4.2 6.7-.7 1.1-1.4 2.2-1.9 3.1-.6.9-1 1.6-1.3 2.1-9.3 13.9-18.7 24.7-29.4 38.1-7.4 9.2-15.7 17.9-23.4 27.4-15.4 19-29.5 38.7-45.1 57.1-19.6 23.1-40.3 45.4-60.8 67.8-20.7 22.7-40.4 45.9-61.7 67.7-17.6 18-34.7 37.3-53.3 53.6-5.7 5-11.5 8.6-18.4 11.8-13.3 6.2-27.8 9.9-42.4 11.7l.8 6.9c15.2-1.8 30.4-5.7 44.5-12.3 7.3-3.4 13.9-7.4 20.1-12.9 19-16.7 36.2-36.1 53.6-53.9 21.6-22 41.3-45.3 61.9-67.9 20.5-22.5 41.2-44.8 60.9-68 15.8-18.7 30-38.5 45.2-57.2 7.4-9.2 15.8-17.9 23.4-27.4 10.6-13.3 20.2-24.3 29.7-38.6.5-.7 1.2-1.8 2-3.2 1.3-2 2.8-4.5 4.2-6.7.7-1.1 1.4-2.2 1.9-3 .6-.9 1-1.6 1.3-2.1 1.1-1.7 1.8-2.6 2.4-3.2.4-.5.8-.9 1.2-1.4.7-.8 1.6-1.9 2.8-3.7s2.9-4.4 5.3-8.5c.3-.5.8-1.1 1.6-1.7 1.4-1.1 3.4-2.3 5.9-3.5 3.7-1.8 8.1-3.4 12.1-5.3 2-.9 4-1.9 5.8-3s3.4-2.3 4.8-3.7c1-1.1 2.7-2.7 4.6-4.6 2.9-2.8 6.4-6.1 9.2-9.8 1.4-1.8 2.7-3.7 3.6-5.8.9-2 1.6-4.2 1.6-6.5 0-1.7-.4-3.4-1.2-5s-2-3-3.5-4.3c-5.3-4.3-9.2-7.6-13.3-10.8-4.2-3.2-8.6-6.2-14.7-10zM782.9 627.6c-.8-2.9-1.6-6.3-2.5-9.9-1.2-5.4-2.4-11.3-3.9-17.1-1.4-5.8-3.1-11.5-5.3-16.7-3.1-7.1-7.1-14.4-12-21.2s-10.6-13.1-17.2-17.9c-11.6-8.4-23.5-14.8-35.6-20.5s-24.4-10.8-36.9-16.6l-7.1 15.4c12.9 6 25.2 11 36.8 16.5s22.5 11.3 32.9 18.9c4.7 3.4 9.3 8.4 13.4 14.1s7.6 12.1 10.2 18.1c1.1 2.4 2.1 5.4 3 8.8 1.4 5 2.7 10.6 3.9 16.3s2.5 11.3 3.9 16.5z"/>
  <path fill="#fff" d="m1297.4 293.9 100.5 98.4L1324 494l13.7 10 78.3-107.6c2.5-3.4 2.1-8.1-.9-11.1l-105.7-103.6z"/>
  <path fill="#c8c8c8" d="M1402.4 388.5c6 3.7 10.2 6.6 14.2 9.7s7.9 6.3 13.2 10.6c1 .8 1.6 1.6 2 2.3s.5 1.5.5 2.3-.1 1.6-.5 2.5c-.5 1.6-1.6 3.4-2.9 5.3-2 2.8-4.7 5.6-7.4 8.1-1.3 1.3-2.6 2.5-3.7 3.6-1.2 1.1-2.2 2.1-3 3.1-.6.6-1.4 1.3-2.4 2-1.8 1.2-4.2 2.4-6.8 3.5-3.9 1.7-8.4 3.4-12.3 5.4-2 1-3.8 2-5.4 3.2s-3 2.5-4 4.1c-2.1 3.6-3.6 6-4.7 7.6-.8 1.2-1.4 2.1-1.9 2.7-.4.5-.7.8-1 1.2-.5.5-.9 1.1-1.6 1.9-.6.8-1.4 1.8-2.4 3.3-.5.7-1.2 1.8-2 3.1-1.3 2-2.8 4.5-4.2 6.7s-2.7 4.2-3.3 5.2c-9.3 13.9-18.7 24.8-29.5 38.2-7.4 9.3-15.7 18-23.4 27.4-15.3 18.9-29.5 38.7-45.1 57.1-19.6 23.1-40.3 45.4-60.8 67.9-20.7 22.7-40.3 45.9-61.7 67.7-17.6 18-34.7 37.3-53.3 53.6-5.7 5-11.7 8.7-18.7 11.9-13.4 6.2-28 10-42.7 11.8l.6 5c15.1-1.8 30.2-5.7 44.2-12.2 7.3-3.4 13.7-7.3 19.9-12.7 18.9-16.6 36.1-36.1 53.6-53.9 21.5-22 41.2-45.2 61.8-67.8 20.5-22.5 41.2-44.8 60.9-68 15.8-18.6 29.9-38.4 45.2-57.2 7.5-9.2 15.8-17.9 23.4-27.4 10.6-13.3 20.1-24.3 29.7-38.5.5-.7 1.2-1.8 2-3.2 1.3-2 2.8-4.5 4.2-6.7s2.6-4.2 3.3-5.1c1.1-1.7 1.8-2.6 2.4-3.3.4-.5.8-.9 1.3-1.5.7-.8 1.5-1.8 2.7-3.6s2.8-4.4 5.3-8.4c.4-.6 1-1.3 1.8-2 1.5-1.2 3.6-2.5 6.1-3.6 3.7-1.8 8.1-3.5 12.2-5.3 2-.9 4-1.9 5.7-2.9s3.3-2.2 4.6-3.6c1.1-1.2 2.8-2.8 4.7-4.6 2.9-2.8 6.3-6.1 9.1-9.7 1.4-1.8 2.6-3.6 3.5-5.6.9-1.9 1.5-4 1.5-6.1 0-1.5-.3-3.1-1.1-4.5-.7-1.5-1.8-2.8-3.3-4-5.3-4.3-9.2-7.6-13.3-10.7-4.1-3.2-8.5-6.2-14.6-10z"/>
  <path fill="#c8c8c8" d="m1298.1 293.3 101.1 99-74.5 102.3 12.1 8.8 78.3-107.6c2.2-3 1.8-7.2-.8-9.8l-105.7-103.6z"/>
  <path fill="#fff" d="M653.6 510.8c.1-.1 2.3-5.2 4.6-11.8 1.2-3.3 2.3-7.1 3.2-10.9.5-1.9.8-3.8 1.1-5.8.3-1.9.5-3.9.5-5.8 0-1.5-.1-2.9-.4-4.4s-.7-3.1-1.5-4.7c-.6-1.2-1.5-2.3-2.6-3.1-3.1-2.3-6.5-3.8-9.9-5-2.6-1-5.1-1.8-7.7-2.5-3.8-1.2-7.6-2.2-11.1-3.4-3.4-1.2-6.5-2.6-8.9-4.1-4.9-3.1-10.3-7.4-15.1-12s-9.2-9.6-12.2-14.2c-.8-1.2-1.7-2.3-2.6-3.4-1.6-1.9-3.3-3.6-5.1-5.3-2.6-2.5-5.3-4.8-7.3-6.4-2-1.7-3.4-2.7-3.5-2.8l-10.3 13.5.1-.1-.1.1.1-.1-.1.1c.1.1 3 2.3 6.4 5.2 1.7 1.4 3.4 3.1 4.9 4.6.8.8 1.4 1.5 2 2.2s1 1.3 1.3 1.7c3.9 5.9 9 11.7 14.6 17.1 5.6 5.3 11.7 10.2 17.7 14 3.6 2.3 7.3 3.9 11 5.3 5.5 2 11 3.5 15.6 4.9 2.3.7 4.4 1.4 6.1 2.2 1.7.7 3.1 1.5 4 2.2l5-6.9-7.6 3.8 1.2-.6-1.3.5v.1l1.2-.6-1.3.5.5-.2-.5.2.5-.2-.5.2s.2.7.2 1.7c0 .9-.1 2.1-.3 3.4-.3 2.3-1 5-1.8 7.8-1.2 4.1-2.7 8.2-3.9 11.2-.6 1.5-1.1 2.8-1.5 3.6-.2.4-.3.8-.4 1 0 .1-.1.2-.1.2v.1l2.4 1.1-2.4-1.1 2.4 1.1-2.4-1.1z"/>
  <path fill="#c8c8c8" d="M673.1 510.1s-.1 0-.3-.1c-1.3-.5-7.5-3-13.2-5.4-2.9-1.2-5.6-2.5-7.5-3.4q-.75-.3-1.2-.6l-.6-.3c-.1-.1-.2-.1-.2-.1l-1.2 1.8 1.4-1.7-.1-.1-1.2 1.8 1.4-1.7-3.5 4.4 4.3-3.6c-.5-.6-.7-.7-.9-.8l-3.5 4.4 4.3-3.6-5.3 4.4 6.2-3.1c-.3-.7-.7-1.1-.9-1.4l-5.3 4.4 6.2-3.1-6.5 3.2 7-1.9c-.1-.5-.3-1-.5-1.3l-6.5 3.2 7-1.9-7.1 1.9h7.3c0-.7-.1-1.4-.3-1.9l-7.1 1.9h7.3-7.4l6.8 3c.4-1 .6-2.1.6-3h-7.4l6.8 3v-.1c.4-.8.7-1.8 1.1-2.9 1.4-3.8 3.3-9.6 4.9-15.4.8-2.9 1.5-5.8 2-8.6.3-1.4.5-2.7.7-4s.3-2.5.3-3.8c0-.8 0-1.7-.2-2.6s-.4-2-1-3.2c-.5-1.1-1.3-2-2.3-2.7-3-2.2-6.3-3.7-9.7-4.9-5-1.9-10.3-3.2-15.2-4.8-4.9-1.5-9.4-3.3-12.6-5.4-5-3.2-10.4-7.4-15.2-12.1-4.9-4.7-9.3-9.7-12.3-14.4-1.5-2.3-3.4-4.3-5.3-6.3-2.9-3-6.1-5.7-8.6-7.8s-4.3-3.4-4.3-3.5l-9.1 11.9c.1.1 3.1 2.3 6.4 5.3 1.7 1.5 3.4 3.1 5 4.7 1.5 1.5 2.8 3.1 3.4 4 3.9 5.8 8.9 11.6 14.5 16.9 5.5 5.3 11.6 10.1 17.6 13.9 3.5 2.2 7.1 3.8 10.8 5.2 5.5 2 10.9 3.4 15.5 4.9 2.3.7 4.4 1.5 6.2 2.2 1.8.8 3.2 1.5 4.2 2.3l4.4-6.1-6.7 3.3 3.5-1.7-3.9.6c0 .1.1.4.4 1.1l3.5-1.7-3.9.6.6-.1-.7.1.6-.1-.7.1v.3c0 .5-.1 1.3-.2 2.3-.2 1.8-.7 4.2-1.4 6.8-.9 3.8-2.2 8.1-3.4 11.7-.6 1.8-1.2 3.5-1.7 4.9s-.9 2.5-1.2 3.1v-.1c-.5 1-.6 2.1-.6 3.1 0 1.3.3 2.3.6 3s.6 1.2.9 1.6c.6.7 1 1.1 1.3 1.4s.6.5.9.7q.75.6 1.5.9c.9.5 1.9 1 3 1.6 1.9.9 4.2 1.9 6.6 3 7.1 3.1 15 6.1 15 6.2zm114.2 132.5c-.4-.3-.7-.7-1-1.2-.6-.9-1.2-2.1-1.7-3.8q-.6-1.8-1.2-4.2c-.6-2.3-1.2-4.9-2.1-7.6-.5-1.4-1.1-2.7-1.8-4.1-.8-1.4-1.7-2.8-2.9-4.1-1.4-1.5-2.9-2.3-4.2-2.9-1.2-.5-2.3-.8-3.3-1.1-1.9-.4-3.7-.6-5.5-.8-2.7-.2-5.2-.4-7.3-.6-1-.1-1.9-.2-2.4-.4-.3-.1-.5-.1-.6-.2h-.1l-.7 1.5.8-1.4-.1-.1-.7 1.5.8-1.4c-1.8-1-3.3-2.2-4.2-3.5-.5-.6-.8-1.3-1-1.9-.2-.7-.3-1.3-.3-2.1 0-.4 0-.9.1-1.4.4-2.3.6-4.6.6-6.7 0-3.3-.5-6.4-1.2-9.2-1.2-4.3-3-8-4.9-11.3s-3.9-6.3-5.6-9.1c-4.1-6.7-8.9-13.6-14.4-20-5.4-6.4-11.4-12.4-18-17.5-3.7-2.9-6.4-5-8.6-6.7-1.7-1.3-3.1-2.3-4.6-3.3-1.1-.7-2.2-1.4-3.4-2.1-1.8-1-3.7-1.9-6-3s-5.1-2.3-8.8-3.9l-6 13.7c4.4 1.9 7.5 3.3 9.8 4.3 1.7.8 3 1.4 4.1 2.1.8.5 1.6.9 2.4 1.5 1.2.8 2.6 1.9 4.5 3.4s4.3 3.4 7.5 5.9c5.5 4.2 10.8 9.5 15.7 15.3s9.3 12 13 18.1c2.6 4.2 5.1 7.9 6.9 11.4.9 1.7 1.5 3.4 2 5.1s.7 3.4.7 5.3c0 1.2-.1 2.6-.4 4s-.4 2.8-.4 4.1c0 2.4.4 4.7 1.1 6.9 1.1 3.2 2.9 6 5 8.3s4.6 4.1 7.3 5.6c1.4.7 2.7 1.1 3.9 1.4 2.1.5 4.1.7 6.1.9 1.5.1 3 .2 4.3.3 2 .2 3.9.4 5 .6.5.1.9.2.9.3l.1-.2-.1.2.1-.2-.1.2 1.3-2.8-2.2 2.1c.5.5.9.7.9.7l1.3-2.8-2.2 2.1c.2.3.5.6.8 1.2.5.9 1 2.4 1.5 4.2.4 1.3.7 2.9 1.2 4.5.6 2.5 1.4 5.2 2.6 8.1.6 1.4 1.4 2.9 2.4 4.3s2.2 2.8 3.6 4z"/>
  <path d="M706.3 525.7c-17.4-9.9-36.3-17-54.1-24.2-6.4-2.6-12.2-4.9-17.4-7.2-7.8-3.4-14.4-6.7-20.3-10.9s-11.3-9.3-16.7-16.5c-2.7-3.6-5-7.9-6.9-12.7-3-7.3-5.3-15.8-7.8-24.6s-5.3-17.8-9.6-26.2c-3-6-6.8-11.5-10.9-16.8-6.2-8-13.1-15.4-19.5-22.6-6.5-7.3-12.5-14.4-17-21.5-3.2-5.1-5.8-10.7-8.1-16.7-3.5-8.9-6.6-18.6-11.3-28.2-2.4-4.8-5.2-9.5-8.7-14.1-3.5-4.5-7.8-8.8-12.9-12.7-4.1-3.1-8.6-5.3-13.2-7.1-6.9-2.6-14.1-4.1-21.2-5.3s-14.1-2.1-20.6-3.5c-44.2-9-94.8-18.5-142.5-26-23.8-3.7-47-7-68.2-9.4s-40.5-4-56.8-4.5c-17.5-.5-34.1-1.8-50.7-3.1s-33.3-2.6-51-3c-2.3-.1-5.3-.5-8.4-1.2-4.7-1.1-9.9-2.8-14.2-4.9-2.2-1-4.1-2.1-5.7-3.2s-2.8-2.1-3.4-2.9c-3.7-4.4-7.1-10.3-9.4-16.8s-3.7-13.6-3.7-20.4c0-.9 0-1.7.1-2.5 1.2-24.8 2.4-51.2 4.9-74.4.3-3.2 1.7-6.3 3.4-8.4.9-1.1 1.9-1.9 2.9-2.6q1.5-.9 3.3-1.2c1.6-.2 3.4-.4 5.2-.4 5.2 0 11.2 1 17.4 2.5s12.7 3.4 19.1 5.1c20.1 5.3 40 12 60.2 18.4s40.7 12.7 61.8 17.1c43.8 9.1 89.8 12.2 134.5 12.8 17.1.2 34.1.3 51.2.3 94.1 0 188.1-2.7 281.9-2.7 14.3 0 28.6.1 42.8.2 40 .4 80.3 3.5 118.7 11.5 32.5 6.8 61.3 17.1 89.4 28.8 28.1 11.6 55.5 24.6 84.9 36.5 45.1 18.2 86.8 37.2 131.4 56.3 2 .9 4.1 1.2 6 1.2s3.7-.3 5.4-.8c2.9-.9 5.6-2.2 8.1-3.8 3.7-2.4 7.1-5.4 10.1-8.5s5.5-6.2 7.4-9.1c1-1.6 2.4-3.1 4-4.6 2.5-2.2 5.6-4.2 9.1-5.6s7.3-2.2 11.1-2.2c4.6 0 9.2 1.1 13.8 3.8 9.1 5.3 19.2 11.7 28.7 18s18.6 12.3 25.9 17c3.7 2.4 7.8 4.8 11.9 7.3 6.1 3.8 12.4 8.1 17.5 12.9 2.6 2.4 4.9 5 6.9 7.7s3.6 5.6 4.7 8.7c8.5 22.6 14.8 42.9 20.5 63.7 5.7 20.9 10.9 42.3 17.1 67.3 1.1 4.3 1.5 8.8 1.5 13.4 0 6.4-.9 12.8-2 18.5q-.9 4.35-1.8 8.1t-1.5 6.9c-.1.3-.3 1.1-.6 2.1-.7 1.8-1.9 4.4-3.6 7.6-2.7 4.8-6.7 10.9-12.2 18.2-5.5 7.2-12.7 15.6-21.6 24.8l-.6.6c-.4.4-.8.9-1.4 1.6-2.1 2.5-5.8 6.8-10.6 12.6-17 20.4-48.6 58.6-77.2 93.3-14.3 17.3-27.9 33.7-38.5 46.5-5.3 6.4-9.9 11.9-13.4 16.1q-2.7 3.15-4.5 5.4c-1.2 1.4-2.2 2.5-2.7 3.2-7.2 8.1-14.8 17.9-22.9 27.9-8 10-16.5 20.1-24.8 28.4-12.5 12.5-26.9 24-41.9 33.5-5.6 3.6-11.5 6.9-17.4 9.3s-11.7 3.9-17 4h-1.1c-6.6 0-14.3-1.7-21.9-4.4-7.7-2.7-15.4-6.4-22.5-10.2-20.1-10.7-37.6-23.5-54.1-39.4-3.2-3.1-6.7-7.2-10.3-12.1-5.5-7.3-11.4-16.1-17.5-25-6.2-8.9-12.6-18-19.5-25.9-5.5-6.3-11.8-11.9-18.4-17s-13.6-9.7-20.3-13.7c-4.5-2.7-9.2-4.7-13.9-6.5-7.1-2.6-14.1-4.6-20.3-6.9-3.1-1.1-6-2.3-8.6-3.7-2.6-1.3-4.8-2.8-6.7-4.4-.4-.4-.8-.7-1.1-1.2-.6-.8-1.2-2-1.7-3.5-.8-2.2-1.3-5.1-2-8.4-.4-1.6-.8-3.3-1.3-5.1-.6-1.8-1.3-3.6-2.3-5.4l-13.1 7.4c.5.9 1.1 2.5 1.6 4.4.4 1.5.7 3.1 1.1 5 .6 2.7 1.3 5.8 2.6 9 .6 1.6 1.5 3.2 2.5 4.8q1.65 2.4 3.9 4.5c3.9 3.4 8.4 5.9 12.9 7.9 6.8 3.1 14 5.2 20.7 7.4s13 4.5 18 7.5c6.4 3.8 12.9 8.1 18.9 12.8s11.6 9.7 16.3 15c4.1 4.8 8.3 10.2 12.4 15.9 6.1 8.5 12.1 17.6 18.1 26.1 3 4.2 5.9 8.2 8.8 12 2.9 3.7 5.9 7.1 9 10.1 17.4 16.8 36.1 30.6 57.5 41.9 7.5 3.9 15.8 8 24.5 11 8.7 3.1 17.8 5.2 26.9 5.3h1.5c7.8-.2 15.2-2.3 22.3-5.1 7-2.9 13.7-6.6 19.8-10.5 15.9-10.1 31-22.2 44.4-35.5 9.1-9.1 17.8-19.5 25.9-29.6s15.8-19.9 22.5-27.4c.8-1 2.1-2.4 3.7-4.3 6.2-7.3 17.9-21.4 32.2-38.7 21.5-25.9 48.6-58.8 70.9-85.8 11.2-13.5 21.1-25.5 28.6-34.4 3.7-4.5 6.8-8.1 9.1-10.8 1.1-1.3 2.1-2.4 2.8-3.3.4-.4.6-.7.9-1l.4-.4c14.1-14.6 24.1-27.3 30.8-37.4 3.3-5 5.9-9.4 7.7-13.2.9-1.9 1.7-3.6 2.2-5.1.6-1.6 1-3 1.3-4.5.3-1.7.9-3.9 1.4-6.5.9-3.8 1.9-8.4 2.7-13.5s1.4-10.7 1.4-16.5c0-5.5-.5-11.2-2-17-6.2-24.9-11.4-46.4-17.2-67.6s-12.2-41.9-21-65.1c-2.3-6-5.5-11.2-9.4-15.7-5.7-6.8-12.6-12.2-19.3-16.7s-13.3-8.3-18.4-11.6c-7-4.5-16.1-10.5-25.7-16.9-9.6-6.3-19.8-12.9-29.4-18.4-6.9-4-14.3-5.8-21.3-5.8-7.9 0-15.3 2.1-21.6 5.6-3.2 1.7-6 3.8-8.6 6.1s-4.8 4.9-6.6 7.7c-.9 1.4-2.3 3.2-3.9 5.1-2.5 2.8-5.5 5.6-8.4 7.6-1.4 1-2.8 1.7-3.8 2.2-1.1.4-1.9.6-2.2.6h-.2l-.1.3.1-.3-.1.3.1-.3c-44.4-19-86.2-38-131.7-56.4-28.9-11.7-56.2-24.6-84.8-36.4s-58.4-22.5-92.1-29.6c-39.7-8.3-81-11.5-121.6-11.9-14.3-.1-28.7-.2-43-.2-94.1 0-188.1 2.7-281.9 2.7q-25.5 0-51-.3C285 111 240 107.9 197.6 99c-20.3-4.2-40.3-10.3-60.3-16.7-20.3-6.9-40.5-13.6-61.2-19.2-6.1-1.6-12.7-3.6-19.5-5.2S42.8 55 35.8 55c-2.4 0-4.9.2-7.3.5-3.2.5-6.2 1.6-8.8 3.1-3.9 2.4-7.1 5.7-9.4 9.5C8 72.1 6.5 76.4 6 81c-2.6 23.9-3.7 50.5-5 75.3v3.3c0 8.7 1.7 17.5 4.6 25.5s7 15.4 12.1 21.4c1.2 1.4 2.6 2.7 4.1 3.9 2.6 2.1 5.5 3.8 8.7 5.4 4.7 2.4 9.9 4.3 15.1 5.7s10.3 2.3 15 2.4c17.2.5 33.6 1.7 50.2 3s33.5 2.6 51.4 3.2c15.7.5 34.6 2.1 55.5 4.5 62.8 7.2 143.4 21.6 209.3 35.1 9.5 1.9 19.1 3 27.7 4.8 4.3.9 8.3 1.9 11.9 3.3s6.8 3 9.5 5c5.4 4 9.4 8.5 12.6 13.5 2.5 3.7 4.5 7.8 6.4 12 2.8 6.4 5.2 13.4 7.9 20.5s5.8 14.5 10.3 21.6c3.5 5.6 7.6 10.9 11.9 16 6.4 7.6 13.3 14.9 19.5 22.1s11.6 14.4 15.3 21.7c2.3 4.5 4.2 9.7 6 15.1 2.6 8.2 4.8 17.1 7.7 25.9 1.4 4.4 3 8.7 5 12.9 1.9 4.2 4.2 8.2 7.1 11.9 4.2 5.5 8.5 10.2 13.1 14.1 6.8 6 14.1 10.4 21.9 14.2s16.3 7.1 25.8 11c18 7.3 36.4 14.3 52.4 23.3z"/>
  <circle cx="826.5" cy="710.3" r="22.4" fill="#fff"/>
  <path fill="#181818" d="M848.9 710.3h-1.4c0 5.8-2.3 11-6.2 14.9-3.8 3.8-9 6.2-14.8 6.2s-11-2.3-14.9-6.2c-3.8-3.8-6.2-9-6.2-14.9 0-5.8 2.3-11 6.2-14.9 3.8-3.8 9-6.2 14.9-6.2 5.8 0 11 2.3 14.8 6.2 3.8 3.8 6.2 9 6.2 14.9zh1.4c0-13.1-10.6-23.7-23.7-23.7s-23.7 10.6-23.7 23.7 10.6 23.7 23.7 23.7 23.7-10.6 23.7-23.7z"/>
  <circle cx="818.3" cy="619.3" r="22.4" fill="#fff"/>
  <path fill="#181818" d="M840.6 619.3h-1.4c0 5.8-2.3 11-6.2 14.9-3.8 3.8-9 6.2-14.8 6.2s-11-2.3-14.9-6.2c-3.8-3.8-6.2-9-6.2-14.9 0-5.8 2.3-11 6.2-14.9 3.8-3.8 9-6.2 14.9-6.2 5.8 0 11 2.3 14.8 6.2 3.8 3.8 6.2 9 6.2 14.9zh1.4c0-13.1-10.6-23.7-23.7-23.7s-23.7 10.6-23.7 23.7 10.6 23.7 23.7 23.7 23.7-10.6 23.7-23.7z"/>
  <path d="M781.9 627.8c-.8-2.9-1.7-6.3-2.5-9.9-1.2-5.4-2.4-11.3-3.9-17.1-1.4-5.8-3.1-11.4-5.3-16.5-3.1-7-7.1-14.3-11.9-21s-10.5-12.9-17-17.7c-11.5-8.4-23.4-14.7-35.5-20.4s-24.4-10.8-36.9-16.6l-6.3 13.6c12.9 6 25.2 11 36.8 16.5s22.6 11.4 33 19c4.8 3.5 9.5 8.6 13.6 14.3 4.1 5.8 7.7 12.2 10.3 18.3 1.1 2.5 2.1 5.5 3.1 8.9 1.4 5 2.7 10.7 3.9 16.3 1.2 5.7 2.5 11.3 3.9 16.4z"/>
  <circle cx="690.6" cy="582" r="22.4" fill="#fff"/>
  <path fill="#181818" d="M712.9 582h-1.4c0 5.8-2.3 11-6.2 14.8-3.8 3.8-9 6.2-14.8 6.2s-11-2.3-14.9-6.2c-3.8-3.8-6.2-9-6.2-14.8s2.3-11 6.2-14.9c3.8-3.8 9-6.2 14.9-6.2 5.8 0 11 2.3 14.8 6.2 3.8 3.8 6.2 9 6.2 14.9zh1.4c0-13.1-10.6-23.7-23.7-23.7s-23.7 10.6-23.7 23.7 10.6 23.7 23.7 23.7 23.7-10.6 23.7-23.7z"/>
  <circle cx="459" cy="311.9" r="22.4" fill="#fff"/>
  <path fill="#181818" d="M481.3 311.9H480c0 5.8-2.3 11-6.2 14.8-3.8 3.8-9 6.2-14.8 6.2s-11-2.3-14.9-6.2c-3.8-3.8-6.2-9-6.2-14.8s2.3-11 6.2-14.9c3.8-3.8 9-6.2 14.9-6.2 5.8 0 11 2.3 14.8 6.2 3.8 3.8 6.2 9 6.2 14.9zh1.4c0-13.1-10.6-23.7-23.7-23.7s-23.7 10.6-23.7 23.7 10.6 23.7 23.7 23.7 23.7-10.6 23.7-23.7z"/>
  <circle cx="38.7" cy="253.8" r="22.4" fill="#fff"/>
  <path fill="#181818" d="M61.1 253.8h-1.4c0 5.8-2.3 11-6.2 14.9-3.8 3.8-9 6.2-14.9 6.2-5.8 0-11-2.3-14.9-6.2-3.8-3.8-6.2-9-6.2-14.9 0-5.8 2.3-11 6.2-14.9 3.8-3.8 9-6.2 14.9-6.2 5.8 0 11 2.3 14.9 6.2 3.8 3.8 6.2 9 6.2 14.9zh1.4c0-13.1-10.6-23.7-23.7-23.7s-23.7 10.6-23.7 23.7 10.6 23.7 23.7 23.7 23.7-10.6 23.7-23.7z"/>
  <circle cx="40.6" cy="23.7" r="22.4" fill="#fff"/>
  <path fill="#181818" d="M62.9 23.7h-1.4c0 5.8-2.3 11-6.2 14.9-3.8 3.8-9 6.2-14.9 6.2-5.8 0-11-2.3-14.9-6.2-3.8-3.8-6.2-9-6.2-14.9 0-5.8 2.3-11 6.2-14.9 3.8-3.8 9-6.2 14.9-6.2 5.8 0 11 2.3 14.9 6.2 3.8 3.8 6.2 9 6.2 14.9zh1.4C64.3 10.6 53.7 0 40.6 0S16.8 10.6 16.8 23.7s10.6 23.7 23.7 23.7 23.7-10.6 23.7-23.7z"/>
  <circle cx="279" cy="78.8" r="22.4" fill="#fff"/>
  <path fill="#181818" d="M301.4 78.8H300c0 5.8-2.3 11-6.2 14.9-3.8 3.8-9 6.2-14.9 6.2-5.8 0-11-2.3-14.9-6.2-3.8-3.8-6.2-9-6.2-14.9 0-5.8 2.3-11 6.2-14.9 3.8-3.8 9-6.2 14.9-6.2 5.8 0 11 2.3 14.9 6.2 3.8 3.8 6.2 9 6.2 14.9zh1.4c0-13.1-10.6-23.7-23.7-23.7s-23.7 10.6-23.7 23.7 10.6 23.7 23.7 23.7 23.7-10.6 23.7-23.7z"/>
  <circle cx="780.2" cy="157.1" r="22.4" fill="#fff"/>
  <path fill="#181818" d="M802.6 157.1h-1.4c0 5.8-2.3 11-6.2 14.9-3.8 3.8-9 6.2-14.9 6.2-5.8 0-11-2.3-14.8-6.2-3.8-3.8-6.2-9-6.2-14.9 0-5.8 2.3-11 6.2-14.9 3.8-3.8 9-6.2 14.8-6.2s11 2.3 14.9 6.2c3.8 3.8 6.2 9 6.2 14.9zh1.4c0-13.1-10.6-23.7-23.7-23.7s-23.7 10.6-23.7 23.7 10.6 23.7 23.7 23.7 23.7-10.6 23.7-23.7z"/>
  <circle cx="1020.5" cy="717.9" r="22.4" fill="#fff"/>
  <path fill="#181818" d="M1042.9 717.9h-1.4c0 5.8-2.3 11-6.2 14.8-3.8 3.8-9 6.2-14.9 6.2-5.8 0-11-2.3-14.8-6.2-3.8-3.8-6.2-9-6.2-14.8s2.3-11 6.2-14.9c3.8-3.8 9-6.2 14.8-6.2s11 2.3 14.9 6.2c3.8 3.8 6.2 9 6.2 14.9zh1.4c0-13.1-10.6-23.7-23.7-23.7s-23.7 10.6-23.7 23.7 10.6 23.7 23.7 23.7 23.7-10.6 23.7-23.7z"/>
  <path d="m1035.8 745.8-25.1 1.2 15.7 64.5z"/>
  <path fill="#fff" d="m1035.8 745.8-.1-.3-25.4 1.3 15.8 64.7h.5l9.5-66h-.4zh-.3l-9.2 64.2-15.3-62.7 24.8-1.2zh-.3z"/>
  <ellipse cx="1077.8" cy="150.8" fill="#fff" rx="47.6" ry="29.5"/>
  <path fill="#181818" d="M1125.4 150.8h-.8c0 3.9-1.3 7.6-3.6 11-3.5 5.1-9.4 9.5-16.9 12.7-7.5 3.1-16.6 5-26.3 5-13 0-24.8-3.3-33.3-8.5-4.2-2.6-7.6-5.7-10-9.1-2.3-3.4-3.6-7.1-3.6-11s1.3-7.6 3.6-11c3.5-5.1 9.4-9.5 16.9-12.7 7.5-3.1 16.6-5 26.3-5 13 0 24.8 3.3 33.3 8.5 4.2 2.6 7.6 5.7 10 9.1 2.3 3.4 3.6 7.1 3.6 11zh.8c0-4.2-1.4-8.3-3.9-11.9-3.7-5.5-9.9-10-17.6-13.3-7.7-3.2-17-5.1-27-5.1-13.3 0-25.3 3.3-34.1 8.8-4.4 2.7-8 6-10.5 9.6s-3.9 7.7-3.9 11.9 1.4 8.3 3.9 11.9c3.7 5.5 9.9 10 17.6 13.3 7.7 3.2 17 5.1 27 5.1 13.3 0 25.3-3.3 34.1-8.8 4.4-2.7 8-6 10.5-9.6s3.9-7.7 3.9-11.9z"/>
  <path d="M1114.8 176.5 1093 189l43.3 50.2z"/>
  <path fill="#fff" d="m1114.8 176.5-.1-.2-22.1 12.6 43.5 50.5.5-.3-21.6-63-.3.2zl-.2.1 21 61.3-42.1-48.8 21.5-12.3zl-.2.1z"/>
  <ellipse cx="1167.3" cy="106.6" fill="#fff" rx="47.6" ry="29.5"/>
  <path fill="#181818" d="M1215 106.6h-.8c0 3.9-1.3 7.6-3.6 11-3.5 5.1-9.4 9.5-16.9 12.7-7.5 3.1-16.6 5-26.3 5-13 0-24.8-3.3-33.3-8.5-4.2-2.6-7.6-5.7-10-9.1-2.3-3.4-3.6-7.1-3.6-11s1.3-7.6 3.6-11c3.5-5.1 9.4-9.5 16.9-12.7 7.5-3.1 16.6-5 26.3-5 13 0 24.8 3.3 33.3 8.5 4.2 2.6 7.6 5.7 10 9.1 2.3 3.4 3.6 7.1 3.6 11zh.8c0-4.2-1.4-8.3-3.9-11.9-3.7-5.5-9.9-10-17.6-13.3-7.7-3.2-17-5.1-27-5.1-13.3 0-25.3 3.3-34.1 8.8-4.4 2.7-8 6-10.5 9.6s-3.9 7.7-3.9 11.9 1.4 8.3 3.9 11.9c3.7 5.5 9.9 10 17.6 13.3 7.7 3.2 17 5.1 27 5.1 13.3 0 25.3-3.3 34.1-8.8 4.4-2.7 8-6 10.5-9.6s3.9-7.7 3.9-11.9z"/>
  <path d="m1184.6 140.7-24.7 4.6 24.3 61.7z"/>
  <path fill="#fff" d="M1184.6 140.7v-.3l-25.1 4.6 24.5 62.1.5-.1.4-66.7-.3.1zh-.3l-.3 64.8-23.7-60 24.4-4.6zh-.3z"/>
  <circle cx="1204.2" cy="342.7" r="28.6" fill="#fff"/>
  <path fill="#181818" d="M1232.8 342.7h-1.1c0 7.6-3.1 14.5-8.1 19.5s-11.9 8.1-19.5 8.1-14.5-3.1-19.5-8.1-8.1-11.9-8.1-19.5 3.1-14.5 8.1-19.5 11.9-8.1 19.5-8.1 14.5 3.1 19.5 8.1 8.1 11.9 8.1 19.5zh1.1c0-16.4-13.3-29.7-29.7-29.7s-29.7 13.3-29.7 29.7 13.3 29.7 29.7 29.7 29.7-13.3 29.7-29.7z"/>
  <path d="m1228.7 313.6 12.5 21.8 50.2-43.3z"/>
  <path fill="#fff" d="m1228.7 313.6-.3.2 12.7 22 50.5-43.5-.3-.4-63 21.6.1.3zl.1.3 61.3-21-48.9 42.1-12.3-21.5zl.1.3z"/>
  <circle cx="1235.8" cy="448.2" r="28.6" fill="#fff"/>
  <path fill="#181818" d="M1264.4 448.2h-1.1c0 7.6-3.1 14.5-8.1 19.5s-11.9 8.1-19.5 8.1-14.5-3.1-19.5-8.1-8.1-11.9-8.1-19.5 3.1-14.5 8.1-19.5 11.9-8.1 19.5-8.1 14.5 3.1 19.5 8.1 8.1 11.9 8.1 19.5zh1.1c0-16.4-13.3-29.7-29.7-29.7s-29.7 13.3-29.7 29.7 13.3 29.7 29.7 29.7 29.7-13.3 29.7-29.7z"/>
  <path d="m1270.5 437.9-2.5 25 66-6.1z"/>
  <path fill="#fff" d="M1270.5 437.9h-.3l-2.5 25.3 66.4-6.1v-.5l-63.9-19.1v.4zl-.1.3 62.2 18.5-64.3 5.9 2.5-24.7zl-.1.3z"/>
  <ellipse cx="1442.1" cy="338.7" fill="#fff" rx="47.6" ry="29.5"/>
  <path d="M1489.7 338.7h-.8c0 3.9-1.3 7.6-3.6 11-3.5 5.1-9.4 9.5-16.9 12.7-7.5 3.1-16.6 5-26.3 5-13 0-24.8-3.3-33.3-8.5-4.2-2.6-7.6-5.7-10-9.1-2.3-3.4-3.6-7.1-3.6-11s1.3-7.6 3.6-11c3.5-5.1 9.4-9.5 16.9-12.7 7.5-3.1 16.6-5 26.3-5 13 0 24.8 3.3 33.3 8.5 4.2 2.6 7.6 5.7 10 9.1 2.3 3.4 3.6 7.1 3.6 11zh.8c0-4.2-1.4-8.3-3.9-11.9-3.7-5.5-9.9-10-17.6-13.3-7.7-3.2-17-5.1-27-5.1-13.3 0-25.3 3.3-34.1 8.8-4.4 2.7-8 6-10.5 9.6s-3.9 7.7-3.9 11.9 1.4 8.3 3.9 11.9c3.7 5.5 9.9 10 17.6 13.3 7.7 3.2 17 5.1 27 5.1 13.3 0 25.3-3.3 34.1-8.8 4.4-2.7 8-6 10.5-9.6s3.9-7.7 3.9-11.9zM38.6 268.6c-6.6 0-11.7-3.7-11.7-11.9 0-7.7 4.5-18.4 19.8-18.4v5.7c-6.8 0-11.1 2.4-12.8 6.9 1.9-1.3 3.7-1.8 6.7-1.8 5.8 0 10.4 3 10.4 9.5s-5.4 10-12.4 10m.6-14.2c-4 0-6.1 1.3-6.1 4.4 0 2.7 2 4.4 5.8 4.4 3.9 0 6.2-1.7 6.2-4.4 0-3-2.2-4.4-5.9-4.4m979.3 477.8V711h-5v-4.3c3.3-.2 5.4-1.4 6-3.8h4.9v29.4h-5.9zm-203.2-6.8c.2-10.1 6.3-14.5 13.5-17.6 2.5-1.1 3.3-2.3 3.3-3.5 0-1.5-1.3-3-4.8-3s-6.3 1.6-8.4 3.5l-3.8-4.4c3.1-3.2 7.3-4.9 11.9-4.9 7 0 10.9 2.8 10.9 8.4 0 4.7-2.6 6.8-7.6 9.1-5.2 2.4-7.2 4.4-7.8 6.6h15.6v5.7h-22.8zm3.3-90.3c-4.4 0-8.4-1.7-11.6-5.6l4.5-3.6c2.4 2.6 4.7 3.5 7.7 3.5 3.9 0 5.7-1.4 5.7-3.7s-1.6-3.4-4.3-3.4h-3.5v-5.8h3.2c2.4 0 3.4-1.1 3.4-3 0-1.5-1.2-3-4.9-3-2.3 0-4.1.8-5.8 2.5l-4.3-3.9c2.8-2.9 5.8-4.3 10.1-4.3 6 0 10.8 2.8 10.8 8.3 0 3.2-1.7 5.1-3.4 6 1.9.7 4.6 2.6 4.6 6.4 0 6.3-4.8 9.6-12.2 9.6m-120.1-46.5v6h-5.7v-6h-16.1v-5.3l15.6-18.1h6.2v17.9h3.9v5.5zm-8.1-13.4-4.2 4.9c-.9 1.1-2.1 2.4-2.8 3.1 1 0 4.2-.1 5.8-.1h3.6v-4.8c0-1.7.1-5.3.1-6.4-.5.8-1.5 2.2-2.5 3.3M458.6 328.1c-4.2 0-7.8-.8-11.5-3.2l2.9-5c2.7 1.6 5.6 2.5 8.6 2.5 4 0 6.3-1.7 6.3-4.8s-2.2-4.4-5-4.4c-2.6 0-4.4.8-5.8 1.8l-5.6-2.1 1-14.7h19.6v5.7h-14.2l-.3 5.1c1.6-.9 3.4-1.3 6.2-1.3 6.6 0 10.1 4.2 10.1 9.7-.1 7-5.1 10.7-12.3 10.7M41.7 40.2h-6c0-9.5 3.2-17.6 8.7-23.8h-15v-5.6h22.1v5.7c-6 5.8-9.8 13.5-9.8 23.7M279 93.6c-7.6 0-12.3-3.5-12.3-9.3 0-4.1 2.4-6.2 4.7-7.1-2.1-1.1-3.4-3-3.4-5.2 0-5.8 4.9-8.7 11-8.7 5.8 0 11 2.7 11 8.5 0 2.1-1.1 4.2-3.4 5.4 2.3 1.1 4.7 3.1 4.7 6.8 0 6-4.7 9.6-12.3 9.6m0-13.5c-4.4 0-6.4 1.6-6.4 4.2 0 2.7 2.7 4.2 6.4 4.2 4 0 6.4-1.5 6.4-4.2s-1.9-4.2-6.4-4.2m0-11.7c-3.7 0-5.2 1.6-5.2 3.5s1.8 3.4 5.2 3.4c3.6 0 5.2-1.4 5.2-3.3 0-2-1.3-3.6-5.2-3.6m493.1 103.8v-5.7c6.8 0 11.1-2.4 12.8-6.9-1.9 1.3-3.7 1.8-6.7 1.8-5.8 0-10.4-3-10.4-9.5 0-6.6 5.5-10.1 12.4-10.1 6.6 0 11.7 3.7 11.7 11.9-.1 7.8-4.6 18.5-19.8 18.5m7.8-24.9c-3.9 0-6.2 1.7-6.2 4.4 0 3 2.2 4.4 5.9 4.4 4 0 6.1-1.3 6.1-4.4 0-2.7-2-4.4-5.8-4.4m356.6-25.3v-21.3h-5v-4.3c3.3-.2 5.4-1.4 6-3.8h4.9V122zm23.9.4c-8 0-12.3-6.2-12.3-15.2s4.3-15.2 12.4-15.2 12.4 6.1 12.4 15.1-4.5 15.3-12.5 15.3m0-24.5c-4.5 0-6.3 4.1-6.3 9.3 0 5.3 1.9 9.5 6.4 9.5s6.4-4.2 6.4-9.4c-.1-5.3-2-9.4-6.5-9.4m34.1 260.7v-21.3h-5V333c3.3-.2 5.4-1.4 6-3.8h4.9v29.4zm16.2 0v-21.3h-5V333c3.3-.2 5.4-1.4 6-3.8h4.9v29.4zm9.7 104.2v-21.3h-5v-4.3c3.3-.2 5.4-1.4 6-3.8h4.9v29.4zm12.1 0c.2-10.1 6.3-14.5 13.5-17.6 2.5-1.1 3.3-2.3 3.3-3.5 0-1.5-1.3-3-4.8-3s-6.3 1.6-8.4 3.5l-3.8-4.4c3.1-3.2 7.3-4.9 11.9-4.9 7 0 10.9 2.8 10.9 8.4 0 4.7-2.6 6.8-7.6 9.1-5.2 2.4-7.2 4.4-7.8 6.6h15.6v5.7h-22.8zm-123.7-297.7-2.5-7h-11.8l-2.4 7h-4.6l10.6-29.4h4.7l10.7 29.4zm-6.2-17.7c-.7-2.1-1.9-5.5-2.2-6.8-.3 1.3-1.4 4.6-2.1 6.8l-2.4 6.7h9.1zm91.2-26.3h-11.7V91.7h12.1c5.1 0 8.4 2.7 8.4 7.6 0 3-1.6 4.8-3.7 5.9 2.3.6 5 2.8 5 6.8-.1 6-3.7 9.1-10.1 9.1m.3-25.4h-7.9v7.6h7.9c2.9 0 4.1-1.8 4.1-3.7 0-2.2-1.1-3.9-4.1-3.9m.1 11.6h-8v9.7h7.9c3.9 0 5.3-2 5.3-4.9s-1.9-4.8-5.2-4.8m-935 584.3-42.6-63.3c-2.8-4.3-6.6-10.1-8.1-13.1 0 4.3.3 18.9.3 25.3v51H186V575.7h22.2l41.1 61.3c2.8 4.3 6.6 10.1 8.1 13.1 0-4.3-.3-18.9-.3-25.3v-49H280v115.9h-20.8zm787.3-526.1v-21.3h-5v-4.3c3.3-.2 5.4-1.4 6-3.8h4.9v29.4zm23.9.4c-8 0-12.3-6.2-12.3-15.2s4.3-15.2 12.3-15.2 12.3 6.1 12.3 15.1-4.3 15.3-12.3 15.3m0-24.5c-4.5 0-6.3 4.1-6.3 9.3 0 5.3 1.9 9.5 6.4 9.5s6.4-4.2 6.4-9.4c-.1-5.3-2-9.4-6.5-9.4"/>
  <path d="M1412 352.6v-21.3h-5V327c3.3-.2 5.4-1.4 6-3.8h4.9v29.4zm12.1 0c.2-10.1 6.3-14.5 13.5-17.6 2.5-1.1 3.3-2.3 3.3-3.5 0-1.5-1.3-3-4.8-3s-6.3 1.6-8.4 3.5l-3.8-4.4c3.1-3.2 7.3-4.9 11.9-4.9 7 0 10.9 2.8 10.9 8.4 0 4.7-2.6 6.8-7.6 9.1-5.2 2.4-7.2 4.4-7.8 6.6h15.6v5.7h-22.8zm50-.5-2.3-6.3h-10.7l-2.2 6.3h-4.2l9.6-26.7h4.2l9.7 26.7zm-5.6-16.1c-.7-1.9-1.7-5-2-6.1-.3 1.1-1.3 4.2-1.9 6.2l-2.1 6.1h8.2zM508 374.4l3.8-3.1-12.4-15.1-3.8 3.1 4.6 5.6-15.7 12.8 3.2 3.9 15.7-12.8zm7.3 8.3c-1.4-1.4-3.1-1.9-4.3-1.9l6-6.2-5.3-1.7-16.5 17.1 3.6 3.4 7.2-7.4c2.3-2.4 3.8-2.3 5.3-.8 1.5 1.4 1.6 3-.7 5.4l-7.1 7.4 3.6 3.4 7.4-7.7c3.6-3.7 4.3-7.6.8-11m15.2 13.4c-3.2-3.5-8.7-3.4-13 .5-4.4 4.1-4.9 9.2-1.2 13.2 1.7 1.9 4.4 3.1 6.8 2.9l-.2-4.6c-1.1 0-2.2-.5-3.2-1.5-1.2-1.3-1.8-3.4 0-5.3l7.7 8.3c.3-.2.7-.5 1.2-1 4-3.6 5.3-8.8 1.9-12.5m-3.6 7.5-4.4-4.8c1.5-1.2 3.4-1.3 4.6 0 1.6 1.7 1 3.6-.2 4.8m8.7 28 5.8-1.9 2.2 6.9 4.7-1.5-2.2-6.9 4.1-1.3 3.8 11.9 4.7-1.5-5.3-16.7-24 7.7 5.5 17.2 4.7-1.5zm8.4 31.9c3.7-.8 4.3-3.9 4.7-7.4s.6-4.1 1.3-4.3c.8-.2 1.3.3 1.7 2.2.3 1.5.3 3.7-.3 5.7l4.2.7c.7-2.2.8-4.9.4-7.2-.9-4.3-3.2-7-7.1-6.2s-4.4 3.9-4.8 8.6c-.2 2.2-.4 2.9-1.3 3.1-1 .2-1.5-.3-1.9-2.2-.5-2.4-.3-4.6.3-6.8l-4-.8c-.9 2.2-1.1 5.3-.5 8.2.8 4.2 3.1 7.3 7.3 6.4m9.3 9.2c-.2-3.5-.2-4.2.6-4.5s1.3 0 2.1 1.9c.6 1.5.9 3.6.6 5.7h4.2c.3-2.3 0-5-.9-7.2-1.6-4.1-4.4-6.4-8-4.9-3.7 1.5-3.7 4.6-3.2 9.3.2 2.2.1 3-.7 3.3-.9.4-1.6 0-2.3-1.8-.9-2.2-1.1-4.4-.8-6.7l-4.1-.1c-.5 2.4-.2 5.4.9 8.2 1.6 3.9 4.3 6.6 8.3 5 3.5-1.4 3.6-4.6 3.3-8.2m2.2 17.7c-1.1-1.4-1.4-3.6.5-5.2l6.8 9.1c.3-.2.7-.5 1.3-.9 4.3-3.2 6.2-8.2 3.1-12.3-2.9-3.8-8.3-4.3-12.9-.8-4.8 3.6-5.8 8.7-2.6 13 1.5 2 4 3.5 6.5 3.6l.3-4.6c-1.1-.2-2.2-.8-3-1.9m8.1-7c1.3 1.8.6 3.6-.7 4.7l-3.9-5.2c1.7-.9 3.6-.9 4.6.5m15.1 11.6c-2.9-3.4-6.2-4.7-9.2-2.1s-2 5.5-.1 9.9c.9 2 1 2.8.3 3.3-.7.6-1.5.5-2.7-1-1.6-1.8-2.5-3.9-2.9-6.1l-4 1.2c.3 2.4 1.5 5.2 3.5 7.5 2.8 3.2 6.2 4.9 9.5 2 2.9-2.4 1.9-5.5.6-8.8s-1.5-3.9-.9-4.4 1.3-.4 2.6 1.2c1 1.2 2 3.1 2.4 5.2l4-1.3c-.4-2.3-1.5-4.8-3.1-6.6"/>
  <path fill="red" fill-rule="evenodd" d="m1143.6 657.2 14.6-18.2 59 47.6 15.6 12.6.1.1-14.6 18.2-.2-.1-18.3 22.6 8.4 6.8-35.2 10.5 2.8-36.6 8.4 6.7 18.3-22.7z" clip-rule="evenodd"/>
</svg>
