<svg xmlns="http://www.w3.org/2000/svg" xmlns:xlink="http://www.w3.org/1999/xlink" id="svg2383" width="1391.037" height="871.234">
  <defs id="defs2385">
    <pattern id="pattern4912" width="18.181" height="18.138" patternTransform="translate(763.477 1693.907)scale(.17379)" patternUnits="userSpaceOnUse">
      <g id="g4907" transform="translate(-1025.535 -1215.281)">
        <path id="rect4899" d="M1025.535 1215.281h18.173v18.096h-18.173z" style="opacity:1;fill:#000;fill-opacity:1;stroke:none;stroke-width:.5;stroke-linecap:round;stroke-linejoin:round;stroke-miterlimit:4;stroke-dasharray:none;stroke-dashoffset:0;stroke-opacity:1"/>
        <path id="rect4903" d="M1025.535 1215.281h9.075v9.075h-9.075z" style="opacity:1;fill:#fff;fill-opacity:1;stroke:none;stroke-width:.5;stroke-linecap:round;stroke-linejoin:round;stroke-miterlimit:4;stroke-dasharray:none;stroke-dashoffset:0;stroke-opacity:1"/>
        <path id="rect4905" d="M1034.641 1224.344h9.075v9.075h-9.075z" style="opacity:1;fill:#fff;fill-opacity:1;stroke:none;stroke-width:.5;stroke-linecap:round;stroke-linejoin:round;stroke-miterlimit:4;stroke-dasharray:none;stroke-dashoffset:0;stroke-opacity:1"/>
      </g>
    </pattern>
    <pattern xlink:href="#pattern4912" id="pattern4166" patternTransform="translate(1606.006 1268.535)scale(.45625)"/>
    <clipPath id="clipPath9724" clipPathUnits="userSpaceOnUse">
      <path id="path9726" d="M727.24 720.308H2545.6v763.755H727.239z" style="fill:#6a6a6a;fill-opacity:1;fill-rule:nonzero;stroke:#010101;stroke-width:.94262564;stroke-linecap:round;stroke-linejoin:round;stroke-miterlimit:4;stroke-dasharray:none;stroke-dashoffset:0;stroke-opacity:1"/>
    </clipPath>
    <path id="rect153" d="M1745.986 1394.78h12.402v41.698h-12.402z"/>
  </defs>
  <g id="layer1" transform="translate(-1043.854 -878.928)">
    <path id="path3195" d="M1732.335 1323.937c-33.215-10.405-66.514-20.638-99.299-32.302-50.162-17.846-98.989-39.27-148.349-59.22-46.35-18.733-92.353-38.36-138.778-56.827a735 735 0 0 0-78.96-26.32c-56.99-15.47-115.096-27.214-170.482-45.462-13.604-4.483-31.436-13.005-36.489-25.722-5.36-13.489-13.8-30.847-8.374-44.864 5.267-13.608 16.699-28.578 29.909-34.096 18.294-7.642 39.565-7.797 61.014-6.58 34.78 1.973 67.558 15.14 100.495 12.562 12.924-1.012 26.005-13.975 32.9-25.124 11.849-19.16 17.02-44.44 28.712-64.005 7.85-13.135 20.389-24.09 34.097-29.311 11.416-4.349 34.851-.233 52.64 8.973 101.343 52.444 177.19 94.958 291.913 151.938 66.949 33.251 99.56-79.789 166.892-32.9 79.174 55.134 161.225 109.076 247.05 166.893 17.926 12.076 19.657 39.583 20.936 61.014 4.416 74.601 8.045 120.549 69.389 133.993 31.17 6.831 106.213 23.925 166.893 38.882 21.676 5.342 40.702 20.713 53.238 37.685 13.385 18.122 21.096 46.176 19.74 69.39-2.233 38.199-15.543 77.109-27.517 114.85-6.37 20.083-14.415 41.438-27.516 56.23-11.624 13.123-42.027 25.796-60.416 25.123-97.256-3.562-188.56-7.682-282.94-11.964-11.142-.505-24.05-8.723-32.302-16.15-7.699-6.93-12.027-16.777-13.758-26.919-4.582-26.846-5.669-59.945-16.151-84.942-5.07-12.09-18.892-23.524-32.302-26.32-109.018-22.727-225.2-28.575-334.982-50.247-13.443-2.654-26.64-12.296-34.694-22.731-9.492-12.296-14.357-29.796-14.357-44.864 0-14.044 10.026-33.113 20.338-42.47 11.222-10.183 24.746-16.05 40.677-16.75 20.358-.895 40.991 5.185 59.818 13.758 25.837 11.766 49.251 32.785 74.175 47.257 12.164 7.063 25.712 14.75 39.48 15.553 27.307 1.59 56.774-11.575 83.745-8.375 20.086 2.383 39.28 14.806 57.426 25.124 103.883 59.07 203.536 129.275 308.661 183.043 16.506 8.443 39.414 8.654 56.23 3.59 16.283-4.905 30.286-21.065 39.48-35.293 7.555-11.694 10.394-29.62 10.168-44.266-.173-11.276-5.495-23.442-11.365-32.9-8.486-13.672-17.303-25.969-31.106-34.694-20.892-13.208-45.454-22.117-69.389-29.91-164.691-53.62-331.109-102.524-496.49-154.33z" style="fill:none;fill-rule:evenodd;stroke:#fff;stroke-width:12;stroke-linecap:butt;stroke-linejoin:round;stroke-miterlimit:4;stroke-dasharray:none;stroke-opacity:1"/>
    <path id="path3193" d="M2150.539 1449.106c-19.018-6.156-37.675-12.162-55.706-19.89-32.216-13.806-64.253-27.251-94.663-43.517-3.885-2.078-2.666-8.547-5.832-11.515-3.215-3.014-10.082-4.244-14.506-4.785-15.117-1.852-31.595 1.789-46.508-2.393-119.479-33.504-239.767-70.67-355.918-114.851-88.105-33.513-174.146-60.441-260.883-91.746" style="fill:none;fill-rule:evenodd;stroke:#fff;stroke-width:4;stroke-linecap:butt;stroke-linejoin:round;stroke-miterlimit:4;stroke-dasharray:none;stroke-opacity:1"/>
    <path id="path3201" d="m2118.383 1279.448.203.455q.175 2.06.36 4.12l-.475.852-1.223.324-1.082-.428-.205-.457a894 894 0 0 1-.362-4.133l.48-.85 1.254-.342zm.735 8.24.207.455q.193 2.061.392 4.122l-.5.86-1.221.332-1.054-.425q-.106-.227-.208-.455a1396 1396 0 0 1-.394-4.13l.473-.856 1.22-.349zm.763 8.25.209.454.41 4.124q-.232.43-.467.859l-1.219.337-1.089-.44-.207-.433q-.207-2.064-.412-4.129l.5-.861 1.217-.356zm.825 8.251.21.454.415 4.13-.467.858-1.25.34-1.058-.443-.207-.433-.416-4.128.464-.88 1.22-.337zm.829 8.26.21.454q.19 2.069.375 4.137l-.47.859-1.22.332-1.087-.443q-.104-.216-.206-.433-.186-2.066-.376-4.132l.466-.88 1.22-.335zm.776 8.271.207.457a1161 1161 0 0 1 .386 4.138l-.475.856-1.254.329-1.054-.454-.206-.456a916 916 0 0 0-.381-4.107l.469-.878 1.252-.334zm.76 8.283.203.46q.18 2.076.339 4.158l-.52.855-1.228.305-1.047-.47-.2-.459a446 446 0 0 0-.336-4.13l.48-.853 1.224-.321zm.609 8.325.194.465q.132 2.087.228 4.178l-.514.838-1.237.265q-.531-.252-1.062-.5l-.184-.463a238 238 0 0 0-.227-4.127l.497-.84 1.262-.298q.522.24 1.043.482m.395 8.356.175.473q.052 2.094.053 4.191-.29.41-.583.814l-1.247.206-1.005-.549-.162-.47q-.001-2.056-.053-4.116.266-.408.528-.818l1.24-.25q.528.256 1.054.519m-.013 8.378.15.483a132 132 0 0 1-.187 4.203q-.3.392-.605.78-.63.064-1.261.124-.5-.311-1-.616l-.132-.477a129 129 0 0 0 .188-4.1q.302-.39.602-.786l1.25-.185q.498.285.994.574zm-.507 8.405q.059.237.114.475a80 80 0 0 1-.566 4.205q-.34.375-.684.742c-.433 0-.866 0-1.299-.01q-.45-.356-.903-.705l-.086-.485q.324-2.012.544-4.049.318-.366.632-.739.633-.043 1.265-.09.493.325.983.656m-1.317 8.362.06.485a62 62 0 0 1-1.102 4.096q-.384.327-.771.646-.626-.084-1.25-.172-.412-.415-.83-.82c-.01-.162-.015-.324-.023-.486a59 59 0 0 0 1.044-3.898q.354-.325.706-.657.632.026 1.264.048.453.375.902.757zm-2.395 8.106c0 .163-.01.325-.012.488a50 50 0 0 1-1.687 3.9 32 32 0 0 1-.87.513q-.618-.194-1.234-.392a50 50 0 0 0-.658-.931c.01-.051.012-.102.018-.153l.038-.328a45 45 0 0 0 1.595-3.66q.396-.264.789-.54.634.12 1.27.237.379.428.751.866m-3.627 7.623q-.052.249-.109.498a50 50 0 0 1-2.345 3.525q-.476.162-.953.313-.567-.28-1.133-.563-.238-.517-.484-1.029l.138-.462a46 46 0 0 0 2.207-3.312q.435-.189.87-.39.588.222 1.18.44.319.486.629.98m-4.91 6.847-.186.472a59 59 0 0 1-2.857 3.108q-.484.099-.968.189-.522-.362-1.042-.727a72 72 0 0 0-.35-1.116q.105-.22.207-.44a56 56 0 0 0 2.717-2.943q.474-.107.95-.224.545.317 1.093.631.222.522.436 1.05m-5.856 6.04q-.123.222-.25.442a69 69 0 0 1-3.234 2.698q-.502.024-1.002.04-.473-.424-.943-.85a85 85 0 0 0-.19-1.127l.261-.413a69 69 0 0 0 3.095-2.581q.477-.053.955-.116.498.392.998.781.16.562.31 1.126m-6.563 5.207-.284.414c-1.115.824-2.235 1.655-3.366 2.474q-.494.016-.986.027l-.922-.882q-.082-.585-.169-1.168l.285-.409c1.115-.807 2.23-1.629 3.352-2.45.334 0 .667-.01 1.001-.011q.458.44.913.88zm-6.78 4.895-.303.404a73 73 0 0 1-3.534 2.25q-.49-.028-.977-.064-.42-.493-.836-.99-.018-.568-.047-1.135.154-.185.307-.372a72 72 0 0 0 3.38-2.172c.321 0 .644.01.967.01l.905.937q.072.567.138 1.134zm-7.152 4.291q-.176.18-.353.356a39 39 0 0 1-3.848 1.611 31 31 0 0 1-.945-.25q-.309-.553-.61-1.11.086-.572.154-1.143.18-.147.359-.297a34 34 0 0 0 3.558-1.477q.46.078.927.146.374.504.751 1.007c.01.385.01.77.01 1.157zm-7.8 2.87q-.215.132-.432.262c-1.37.289-2.76.474-4.155.557q-.424-.25-.832-.514-.136-.619-.261-1.24.245-.525.47-1.054.211-.09.42-.184a25 25 0 0 0 3.715-.494q.416.195.843.374.247.598.502 1.193-.126.55-.27 1.1m-8.284.633a24 24 0 0 1-.464.119c-.01 0-.015 0-.023.01a34 34 0 0 1-4.117-.631 35 35 0 0 1-.657-.744q.03-.633.068-1.265.373-.427.73-.862.234-.029.463-.064c1.248.27 2.5.468 3.755.575q0 0 0 0 .339.307.694.604.06.63.132 1.257-.28.505-.58 1.005zm-8.112-1.63c-.166.01-.333.01-.5.013a55 55 0 0 1-3.907-1.425q-.27-.408-.533-.817l.291-1.23q.439-.38.87-.764c.16.01.32.014.48.02 1.224.494 2.455.95 3.691 1.349q.273.394.557.784-.083.628-.16 1.255-.39.41-.789.815" style="fill:#8c8c8c;fill-opacity:1;fill-rule:evenodd;stroke:#fff;stroke-width:1;stroke-linecap:round;stroke-linejoin:round;stroke-miterlimit:4;stroke-dasharray:none;stroke-dashoffset:0;stroke-opacity:1"/>
    <path id="path2419" d="M1732.335 1323.937c-33.215-10.405-66.514-20.638-99.299-32.302-50.162-17.846-98.989-39.27-148.349-59.22-46.35-18.733-92.353-38.36-138.778-56.827a735 735 0 0 0-78.96-26.32c-56.99-15.47-115.096-27.214-170.482-45.462-13.604-4.483-31.436-13.005-36.489-25.722-5.36-13.489-13.8-30.847-8.374-44.864 5.267-13.608 16.699-28.578 29.909-34.096 18.294-7.642 39.565-7.797 61.014-6.58 34.78 1.973 67.558 15.14 100.495 12.562 12.924-1.012 26.005-13.975 32.9-25.124 11.849-19.16 17.02-44.44 28.712-64.005 7.85-13.135 20.389-24.09 34.097-29.311 11.416-4.349 34.851-.233 52.64 8.973 101.343 52.444 177.19 94.958 291.913 151.938 66.949 33.251 99.56-79.789 166.892-32.9 79.174 55.134 161.225 109.076 247.05 166.893 17.926 12.076 19.657 39.583 20.936 61.014 4.416 74.601 8.045 120.549 69.389 133.993 31.17 6.831 106.213 23.925 166.893 38.882 21.676 5.342 40.702 20.713 53.238 37.685 13.385 18.122 21.096 46.176 19.74 69.39-2.233 38.199-15.543 77.109-27.517 114.85-6.37 20.083-14.415 41.438-27.516 56.23-11.624 13.123-42.027 25.796-60.416 25.123-97.256-3.562-188.56-7.682-282.94-11.964-11.142-.505-24.05-8.723-32.302-16.15-7.699-6.93-12.027-16.777-13.758-26.919-4.582-26.846-5.669-59.945-16.151-84.942-5.07-12.09-18.892-23.524-32.302-26.32-109.018-22.727-225.2-28.575-334.982-50.247-13.443-2.654-26.64-12.296-34.694-22.731-9.492-12.296-14.357-29.796-14.357-44.864 0-14.044 10.026-33.113 20.338-42.47 11.222-10.183 24.746-16.05 40.677-16.75 20.358-.895 40.991 5.185 59.818 13.758 25.837 11.766 49.251 32.785 74.175 47.257 12.164 7.063 25.712 14.75 39.48 15.553 27.307 1.59 56.774-11.575 83.745-8.375 20.086 2.383 39.28 14.806 57.426 25.124 103.883 59.07 203.536 129.275 308.661 183.043 16.506 8.443 39.414 8.654 56.23 3.59 16.283-4.905 30.286-21.065 39.48-35.293 7.555-11.694 10.394-29.62 10.168-44.266-.173-11.276-5.495-23.442-11.365-32.9-8.486-13.672-17.303-25.969-31.106-34.694-20.892-13.208-45.454-22.117-69.389-29.91-164.691-53.62-331.109-102.524-496.49-154.33z" style="fill:none;fill-rule:evenodd;stroke:#000;stroke-width:10;stroke-linecap:butt;stroke-linejoin:round;stroke-miterlimit:4;stroke-dasharray:none;stroke-opacity:1"/>
    <path id="path3191" d="M2150.539 1449.106c-19.018-6.156-37.675-12.162-55.706-19.89-32.216-13.806-64.253-27.251-94.663-43.517-3.885-2.078-2.666-8.547-5.832-11.515-3.215-3.014-10.082-4.244-14.506-4.785-15.117-1.852-31.595 1.789-46.508-2.393-119.479-33.504-239.767-70.67-355.918-114.851-88.105-33.513-174.146-60.441-260.883-91.746" style="fill:none;fill-rule:evenodd;stroke:#000;stroke-width:2;stroke-linecap:butt;stroke-linejoin:round;stroke-miterlimit:4;stroke-dasharray:none;stroke-opacity:1"/>
    <g id="g3814">
      <use xlink:href="#text3385" id="use3488" width="744.094" height="1052.362" x="0" y="0" style="stroke:#fff;stroke-width:2;stroke-miterlimit:4;stroke-dasharray:none;stroke-opacity:1"/>
      <g id="g3380" transform="translate(0 11.964)">
        <path id="path3378" d="M1174.83 1215.666a17.347 17.347 0 1 1-34.696 0 17.347 17.347 0 1 1 34.695 0" style="opacity:1;fill:#fff;fill-opacity:1;fill-rule:nonzero;stroke:#181818;stroke-width:1.50763822;stroke-linecap:round;stroke-linejoin:round;marker:none;marker-start:none;marker-mid:none;marker-end:none;stroke-miterlimit:4;stroke-dasharray:none;stroke-dashoffset:66;stroke-opacity:1;visibility:visible;display:inline;overflow:visible" transform="matrix(1.37931 0 0 1.27586 -508.7 -522.943)"/>
        <text xml:space="preserve" id="text3236" x="1077.924" y="1041.595" style="font-style:normal;font-weight:400;line-height:0%;font-family:&quot;Times New Roman&quot;;writing-mode:lr-tb;fill:#000;fill-opacity:1;stroke:none;stroke-width:1px;stroke-linecap:butt;stroke-linejoin:miter;stroke-opacity:1"><tspan id="tspan3238" x="1077.924" y="1041.595" style="font-size:40px;line-height:1.25">1</tspan></text>
      </g>
      <text xml:space="preserve" id="text3385" x="1148.527" y="1056.326" style="font-style:normal;font-weight:400;line-height:0%;font-family:&quot;Times New Roman&quot;;text-align:end;writing-mode:lr-tb;text-anchor:end;fill:#000;fill-opacity:1"><tspan id="tspan3387" x="1148.527" y="1056.326" style="font-size:22px;line-height:1.25">San</tspan><tspan id="tspan3389" x="1148.527" y="1083.826" style="font-size:22px;line-height:1.25">Donato</tspan></text>
    </g>
    <g id="g3824">
      <use xlink:href="#text3391" id="use3490" width="744.094" height="1052.362" x="0" y="0" style="stroke:#fff;stroke-width:2;stroke-miterlimit:4;stroke-dasharray:none;stroke-opacity:1"/>
      <g id="g3373" transform="translate(1.196 27.516)">
        <path id="path3371" d="M1174.83 1215.666a17.347 17.347 0 1 1-34.696 0 17.347 17.347 0 1 1 34.695 0" style="opacity:1;fill:#fff;fill-opacity:1;fill-rule:nonzero;stroke:#181818;stroke-width:1.50763822;stroke-linecap:round;stroke-linejoin:round;marker:none;marker-start:none;marker-mid:none;marker-end:none;stroke-miterlimit:4;stroke-dasharray:none;stroke-dashoffset:66;stroke-opacity:1;visibility:visible;display:inline;overflow:visible" transform="matrix(1.37931 0 0 1.27586 -363.047 -609.08)"/>
        <text xml:space="preserve" id="text3240" x="1223.88" y="955.457" style="font-style:normal;font-weight:400;line-height:0%;font-family:&quot;Times New Roman&quot;;writing-mode:lr-tb;fill:#000;fill-opacity:1;stroke:none;stroke-width:1px;stroke-linecap:butt;stroke-linejoin:miter;stroke-opacity:1"><tspan id="tspan3242" x="1223.88" y="955.457" style="font-size:40px;line-height:1.25">2</tspan></text>
      </g>
      <text xml:space="preserve" id="text3391" x="1191.578" y="935.119" style="font-style:normal;font-weight:400;line-height:0%;font-family:&quot;Times New Roman&quot;;writing-mode:lr-tb;fill:#000;fill-opacity:1"><tspan id="tspan3393" x="1191.578" y="935.119" style="font-size:22px;line-height:1.25">Luco</tspan></text>
    </g>
    <g id="g3833">
      <use xlink:href="#text3395" id="use3492" width="744.094" height="1052.362" x="0" y="0" style="stroke:#fff;stroke-width:2;stroke-miterlimit:4;stroke-dasharray:none;stroke-opacity:1"/>
      <g id="g3366" transform="translate(-11.964 4.785)">
        <path id="path3364" d="M1174.83 1215.666a17.347 17.347 0 1 1-34.696 0 17.347 17.347 0 1 1 34.695 0" style="opacity:1;fill:#fff;fill-opacity:1;fill-rule:nonzero;stroke:#181818;stroke-width:1.50763822;stroke-linecap:round;stroke-linejoin:round;marker:none;marker-start:none;marker-mid:none;marker-end:none;stroke-miterlimit:4;stroke-dasharray:none;stroke-dashoffset:66;stroke-opacity:1;visibility:visible;display:inline;overflow:visible" transform="matrix(1.37931 0 0 1.27586 -234.289 -638.755)"/>
        <text xml:space="preserve" id="text3244" x="1353.087" y="925.548" style="font-style:normal;font-weight:400;line-height:0%;font-family:&quot;Times New Roman&quot;;writing-mode:lr-tb;fill:#000;fill-opacity:1;stroke:none;stroke-width:1px;stroke-linecap:butt;stroke-linejoin:miter;stroke-opacity:1"><tspan id="tspan3246" x="1353.087" y="925.548" style="font-size:40px;line-height:1.25">3</tspan></text>
      </g>
      <text xml:space="preserve" id="text3395" x="1343.516" y="963.831" style="font-style:normal;font-weight:400;line-height:0%;font-family:&quot;Times New Roman&quot;;writing-mode:lr-tb;fill:#000;fill-opacity:1"><tspan id="tspan3397" x="1343.516" y="963.831" style="font-size:22px;line-height:1.25">Poggio</tspan><tspan id="tspan3399" x="1343.516" y="991.331" style="font-size:22px;line-height:1.25">Secco</tspan></text>
    </g>
    <g id="g3843">
      <use xlink:href="#text3416" id="use3494" width="744.094" height="1052.362" x="0" y="0" style="stroke:#fff;stroke-width:2;stroke-miterlimit:4;stroke-dasharray:none;stroke-opacity:1"/>
      <g id="g3411" transform="translate(17.945 19.142)">
        <path id="path3401" d="M1174.83 1215.666a17.347 17.347 0 1 1-34.696 0 17.347 17.347 0 1 1 34.695 0" style="opacity:1;fill:#fff;fill-opacity:1;fill-rule:nonzero;stroke:#181818;stroke-width:1.50763822;stroke-linecap:round;stroke-linejoin:round;marker:none;marker-start:none;marker-mid:none;marker-end:none;stroke-miterlimit:4;stroke-dasharray:none;stroke-dashoffset:66;stroke-opacity:1;visibility:visible;display:inline;overflow:visible" transform="matrix(1.37931 0 0 1.27586 92.787 -552.852)"/>
        <text xml:space="preserve" id="text3248" x="1679.695" y="1011.686" style="font-style:normal;font-weight:400;line-height:0%;font-family:&quot;Times New Roman&quot;;writing-mode:lr-tb;fill:#000;fill-opacity:1;stroke:none;stroke-width:1px;stroke-linecap:butt;stroke-linejoin:miter;stroke-opacity:1"><tspan id="tspan3250" x="1679.695" y="1011.686" style="font-size:40px;line-height:1.25">4</tspan></text>
      </g>
      <text xml:space="preserve" id="text3416" x="1665.338" y="1082.271" style="font-style:normal;font-weight:400;line-height:0%;font-family:&quot;Times New Roman&quot;;writing-mode:lr-tb;fill:#000;fill-opacity:1"><tspan id="tspan3418" x="1665.338" y="1082.271" style="font-size:22px;line-height:1.25">Materassi</tspan></text>
    </g>
    <g id="g3852">
      <use xlink:href="#text3420" id="use3496" width="744.094" height="1052.362" x="0" y="0" style="stroke:#fff;stroke-width:2;stroke-miterlimit:4;stroke-dasharray:none;stroke-opacity:1"/>
      <g id="g3359" transform="translate(-3.59 8.375)">
        <path id="path3357" d="M1174.83 1215.666a17.347 17.347 0 1 1-34.696 0 17.347 17.347 0 1 1 34.695 0" style="opacity:1;fill:#fff;fill-opacity:1;fill-rule:nonzero;stroke:#181818;stroke-width:1.50763822;stroke-linecap:round;stroke-linejoin:round;marker:none;marker-start:none;marker-mid:none;marker-end:none;stroke-miterlimit:4;stroke-dasharray:none;stroke-dashoffset:66;stroke-opacity:1;visibility:visible;display:inline;overflow:visible" transform="matrix(1.37931 0 0 1.27586 224.407 -523.631)"/>
        <text xml:space="preserve" id="text3252" x="1811.295" y="1040.399" style="font-style:normal;font-weight:400;line-height:0%;font-family:&quot;Times New Roman&quot;;writing-mode:lr-tb;fill:#000;fill-opacity:1;stroke:none;stroke-width:1px;stroke-linecap:butt;stroke-linejoin:miter;stroke-opacity:1"><tspan id="tspan3254" x="1811.295" y="1040.399" style="font-size:40px;line-height:1.25">5</tspan></text>
      </g>
      <text xml:space="preserve" id="text3420" x="1794.545" y="990.151" style="font-style:normal;font-weight:400;line-height:0%;font-family:&quot;Times New Roman&quot;;writing-mode:lr-tb;fill:#000;fill-opacity:1"><tspan id="tspan3422" x="1794.545" y="990.151" style="font-size:22px;line-height:1.25">Borgo San Lorenzo</tspan></text>
    </g>
    <g id="g3861">
      <use xlink:href="#text3424" id="use3498" width="744.094" height="1052.362" x="0" y="0" style="stroke:#fff;stroke-width:2;stroke-miterlimit:4;stroke-dasharray:none;stroke-opacity:1"/>
      <g id="g3352" transform="translate(-7.178 16.75)">
        <path id="path3348" d="M1174.83 1215.666a17.347 17.347 0 1 1-34.696 0 17.347 17.347 0 1 1 34.695 0" style="opacity:1;fill:#fff;fill-opacity:1;fill-rule:nonzero;stroke:#181818;stroke-width:1.50763822;stroke-linecap:round;stroke-linejoin:round;marker:none;marker-start:none;marker-mid:none;marker-end:none;stroke-miterlimit:4;stroke-dasharray:none;stroke-dashoffset:66;stroke-opacity:1;visibility:visible;display:inline;overflow:visible" transform="matrix(1.37931 0 0 1.27586 490.449 -355.217)"/>
        <text xml:space="preserve" id="text3256" x="2076.887" y="1209.086" style="font-style:normal;font-weight:400;line-height:0%;font-family:&quot;Times New Roman&quot;;writing-mode:lr-tb;fill:#000;fill-opacity:1;stroke:none;stroke-width:1px;stroke-linecap:butt;stroke-linejoin:miter;stroke-opacity:1"><tspan id="tspan3258" x="2076.887" y="1209.086" style="font-size:40px;line-height:1.25">6</tspan></text>
      </g>
      <text xml:space="preserve" id="text3424" x="1960.84" y="1217.46" style="font-style:normal;font-weight:400;line-height:0%;font-family:&quot;Times New Roman&quot;;writing-mode:lr-tb;fill:#000;fill-opacity:1"><tspan id="tspan3426" x="1960.84" y="1217.46" style="font-size:22px;line-height:1.25">Casanova</tspan></text>
    </g>
    <g id="g3870">
      <use xlink:href="#text3428" id="use3500" width="744.094" height="1052.362" x="0" y="0" style="stroke:#fff;stroke-width:2;stroke-miterlimit:4;stroke-dasharray:none;stroke-opacity:1"/>
      <g id="g3343" transform="translate(-9.57 11.964)">
        <path id="path3341" d="M1174.83 1215.666a17.347 17.347 0 1 1-34.696 0 17.347 17.347 0 1 1 34.695 0" style="opacity:1;fill:#fff;fill-opacity:1;fill-rule:nonzero;stroke:#181818;stroke-width:1.50763822;stroke-linecap:round;stroke-linejoin:round;marker:none;marker-start:none;marker-mid:none;marker-end:none;stroke-miterlimit:4;stroke-dasharray:none;stroke-dashoffset:66;stroke-opacity:1;visibility:visible;display:inline;overflow:visible" transform="matrix(1.37931 0 0 1.27586 590.709 -229.287)"/>
        <text xml:space="preserve" id="text3260" x="2177.382" y="1334.704" style="font-style:normal;font-weight:400;line-height:0%;font-family:&quot;Times New Roman&quot;;writing-mode:lr-tb;fill:#000;fill-opacity:1;stroke:none;stroke-width:1px;stroke-linecap:butt;stroke-linejoin:miter;stroke-opacity:1"><tspan id="tspan3262" x="2177.382" y="1334.704" style="font-size:40px;line-height:1.25">7</tspan></text>
      </g>
      <text xml:space="preserve" id="text3428" x="2163.025" y="1298.813" style="font-style:normal;font-weight:400;line-height:0%;font-family:&quot;Times New Roman&quot;;writing-mode:lr-tb;fill:#000;fill-opacity:1"><tspan id="tspan3430" x="2163.025" y="1298.813" style="font-size:22px;line-height:1.25">Savelli</tspan></text>
    </g>
    <g id="g3879">
      <use xlink:href="#text3432" id="use3502" width="744.094" height="1052.362" x="0" y="0" style="stroke:#fff;stroke-width:2;stroke-miterlimit:4;stroke-dasharray:none;stroke-opacity:1"/>
      <g id="g3336" transform="translate(25.124 38.284)">
        <path id="path3334" d="M1174.83 1215.666a17.347 17.347 0 1 1-34.696 0 17.347 17.347 0 1 1 34.695 0" style="opacity:1;fill:#fff;fill-opacity:1;fill-rule:nonzero;stroke:#181818;stroke-width:1.50763822;stroke-linecap:round;stroke-linejoin:round;marker:none;marker-start:none;marker-mid:none;marker-end:none;stroke-miterlimit:4;stroke-dasharray:none;stroke-dashoffset:66;stroke-opacity:1;visibility:visible;display:inline;overflow:visible" transform="matrix(1.37931 0 0 1.27586 788.314 -185.334)"/>
        <text xml:space="preserve" id="text3264" x="2374.782" y="1378.969" style="font-style:normal;font-weight:400;line-height:0%;font-family:&quot;Times New Roman&quot;;writing-mode:lr-tb;fill:#000;fill-opacity:1;stroke:none;stroke-width:1px;stroke-linecap:butt;stroke-linejoin:miter;stroke-opacity:1"><tspan id="tspan3266" x="2374.782" y="1378.969" style="font-size:40px;line-height:1.25">8</tspan></text>
      </g>
      <text xml:space="preserve" id="text3432" x="2326.927" y="1364.613" style="font-style:normal;font-weight:400;line-height:0%;font-family:&quot;Times New Roman&quot;;writing-mode:lr-tb;fill:#000;fill-opacity:1"><tspan id="tspan3434" x="2326.927" y="1364.613" style="font-size:22px;line-height:1.25">Arrabbiata1</tspan></text>
    </g>
    <g id="g3888">
      <use xlink:href="#text3436" id="use3504" width="744.094" height="1052.362" x="0" y="0" style="stroke:#fff;stroke-width:2;stroke-miterlimit:4;stroke-dasharray:none;stroke-opacity:1"/>
      <g id="g3329" transform="translate(2.393 3.59)">
        <path id="path3327" d="M1174.83 1215.666a17.347 17.347 0 1 1-34.696 0 17.347 17.347 0 1 1 34.695 0" style="opacity:1;fill:#fff;fill-opacity:1;fill-rule:nonzero;stroke:#181818;stroke-width:1.50763822;stroke-linecap:round;stroke-linejoin:round;marker:none;marker-start:none;marker-mid:none;marker-end:none;stroke-miterlimit:4;stroke-dasharray:none;stroke-dashoffset:66;stroke-opacity:1;visibility:visible;display:inline;overflow:visible" transform="matrix(1.37931 0 0 1.27586 786.99 172.418)"/>
        <text xml:space="preserve" id="text3268" x="2373.585" y="1736.682" style="font-style:normal;font-weight:400;line-height:0%;font-family:&quot;Times New Roman&quot;;writing-mode:lr-tb;fill:#000;fill-opacity:1;stroke:none;stroke-width:1px;stroke-linecap:butt;stroke-linejoin:miter;stroke-opacity:1"><tspan id="tspan3270" x="2373.585" y="1736.682" style="font-size:40px;line-height:1.25">9</tspan></text>
      </g>
      <text xml:space="preserve" id="text3436" x="2250.36" y="1745.057" style="font-style:normal;font-weight:400;line-height:0%;font-family:&quot;Times New Roman&quot;;writing-mode:lr-tb;fill:#000;fill-opacity:1"><tspan id="tspan3438" x="2250.36" y="1745.057" style="font-size:22px;line-height:1.25">Arrabbiata2</tspan></text>
    </g>
    <g id="g3906">
      <use xlink:href="#text3440" id="use3506" width="744.094" height="1052.362" x="0" y="0" style="stroke:#fff;stroke-width:2;stroke-miterlimit:4;stroke-dasharray:none;stroke-opacity:1"/>
      <g id="g3322" transform="translate(-16.75 20.338)">
        <path id="path3320" d="M1174.83 1215.666a17.347 17.347 0 1 1-34.696 0 17.347 17.347 0 1 1 34.695 0" style="opacity:1;fill:#fff;fill-opacity:1;fill-rule:nonzero;stroke:#181818;stroke-width:1.50763822;stroke-linecap:round;stroke-linejoin:round;marker:none;marker-start:none;marker-mid:none;marker-end:none;stroke-miterlimit:4;stroke-dasharray:none;stroke-dashoffset:66;stroke-opacity:1;visibility:visible;display:inline;overflow:visible" transform="matrix(1.37931 0 0 1.27586 444.566 98.204)"/>
        <text xml:space="preserve" id="text3272" x="2019.462" y="1662.508" style="font-style:normal;font-weight:400;line-height:0%;font-family:&quot;Times New Roman&quot;;writing-mode:lr-tb;fill:#000;fill-opacity:1;stroke:none;stroke-width:1px;stroke-linecap:butt;stroke-linejoin:miter;stroke-opacity:1"><tspan id="tspan3274" x="2019.462" y="1662.508" style="font-size:40px;line-height:1.25">10</tspan></text>
      </g>
      <text xml:space="preserve" id="text3440" x="1894.475" y="1690.118" style="font-style:normal;font-weight:400;line-height:0%;font-family:&quot;Times New Roman&quot;;writing-mode:lr-tb;fill:#000;fill-opacity:1"><tspan id="tspan3442" x="1894.475" y="1690.118" style="font-size:22px;line-height:1.25">Scarperia</tspan></text>
    </g>
    <g id="g3915">
      <use xlink:href="#text3444" id="use3508" width="744.094" height="1052.362" x="0" y="0" style="stroke:#fff;stroke-width:2;stroke-miterlimit:4;stroke-dasharray:none;stroke-opacity:1"/>
      <g id="g3315" transform="translate(17.945 28.713)">
        <path id="path3313" d="M1174.83 1215.666a17.347 17.347 0 1 1-34.696 0 17.347 17.347 0 1 1 34.695 0" style="opacity:1;fill:#fff;fill-opacity:1;fill-rule:nonzero;stroke:#181818;stroke-width:1.50763822;stroke-linecap:round;stroke-linejoin:round;marker:none;marker-start:none;marker-mid:none;marker-end:none;stroke-miterlimit:4;stroke-dasharray:none;stroke-dashoffset:66;stroke-opacity:1;visibility:visible;display:inline;overflow:visible" transform="matrix(1.37931 0 0 1.27586 317.22 7.046)"/>
        <text xml:space="preserve" id="text3276" x="1893.844" y="1571.584" style="font-style:normal;font-weight:400;line-height:0%;font-family:&quot;Times New Roman&quot;;writing-mode:lr-tb;fill:#000;fill-opacity:1;stroke:none;stroke-width:1px;stroke-linecap:butt;stroke-linejoin:miter;stroke-opacity:1"><tspan id="tspan3278" x="1893.844" y="1571.584" style="font-size:40px;line-height:1.25">11</tspan></text>
      </g>
      <text xml:space="preserve" id="text3444" x="1837.709" y="1591.922" style="font-style:normal;font-weight:400;line-height:0%;font-family:&quot;Times New Roman&quot;;writing-mode:lr-tb;fill:#000;fill-opacity:1"><tspan id="tspan3446" x="1837.709" y="1591.922" style="font-size:22px;line-height:1.25">Palagio</tspan></text>
    </g>
    <g id="g3924">
      <use xlink:href="#text3448" id="use3510" width="744.094" height="1052.362" x="0" y="0" style="stroke:#fff;stroke-width:2;stroke-miterlimit:4;stroke-dasharray:none;stroke-opacity:1"/>
      <g id="g3308" transform="translate(-16.75 11.964)">
        <path id="path3306" d="M1174.83 1215.666a17.347 17.347 0 1 1-34.696 0 17.347 17.347 0 1 1 34.695 0" style="opacity:1;fill:#fff;fill-opacity:1;fill-rule:nonzero;stroke:#181818;stroke-width:1.50763822;stroke-linecap:round;stroke-linejoin:round;marker:none;marker-start:none;marker-mid:none;marker-end:none;stroke-miterlimit:4;stroke-dasharray:none;stroke-dashoffset:66;stroke-opacity:1;visibility:visible;display:inline;overflow:visible" transform="matrix(1.37931 0 0 1.27586 6.58 -128.143)"/>
        <text xml:space="preserve" id="text3280" x="1581.593" y="1436.395" style="font-style:normal;font-weight:400;line-height:0%;font-family:&quot;Times New Roman&quot;;writing-mode:lr-tb;fill:#000;fill-opacity:1;stroke:none;stroke-width:1px;stroke-linecap:butt;stroke-linejoin:miter;stroke-opacity:1"><tspan id="tspan3282" x="1581.593" y="1436.395" style="font-size:40px;line-height:1.25">12</tspan></text>
      </g>
      <text xml:space="preserve" id="text3448" x="1445.207" y="1435.199" style="font-style:normal;font-weight:400;line-height:0%;font-family:&quot;Times New Roman&quot;;writing-mode:lr-tb;fill:#000;fill-opacity:1"><tspan id="tspan3450" x="1445.207" y="1435.199" style="font-size:22px;line-height:1.25">Correntaio</tspan></text>
    </g>
    <g id="g3933" transform="translate(3.307 4.409)">
      <g id="g3301" transform="translate(-2.795 -4.489)">
        <circle id="path3299" cx="1157.482" cy="1215.666" r="17.347" style="display:inline;overflow:visible;visibility:visible;opacity:1;fill:#fff;fill-opacity:1;fill-rule:nonzero;stroke:#181818;stroke-width:1.50764;stroke-linecap:round;stroke-linejoin:round;stroke-miterlimit:4;stroke-dasharray:none;stroke-dashoffset:66;stroke-opacity:1;marker:none;marker-start:none;marker-mid:none;marker-end:none" transform="matrix(1.37931 0 0 1.27586 192.382 -131.497)"/>
        <text xml:space="preserve" id="text3284" x="1768.226" y="1432.806" style="font-style:normal;font-weight:400;line-height:0%;font-family:&quot;Times New Roman&quot;;writing-mode:lr-tb;fill:#000;fill-opacity:1;stroke:none;stroke-width:1px;stroke-linecap:butt;stroke-linejoin:miter;stroke-opacity:1"><tspan id="tspan3286" x="1768.226" y="1432.806" style="font-size:40px;line-height:1.25">13</tspan></text>
      </g>
    </g>
    <g id="g3897" transform="translate(7.716 -7.716)">
      <g id="g3294" transform="translate(-303.185 -92.091)">
        <ellipse id="path3292" cx="2164.205" cy="1576.424" rx="23.927" ry="22.133" style="display:inline;overflow:visible;visibility:visible;opacity:1;fill:#fff;fill-opacity:1;fill-rule:nonzero;stroke:#181818;stroke-width:2;stroke-linecap:round;stroke-linejoin:round;stroke-miterlimit:4;stroke-dasharray:none;stroke-dashoffset:66;stroke-opacity:1;marker:none;marker-start:none;marker-mid:none;marker-end:none"/>
        <text xml:space="preserve" id="text3288" x="2142.555" y="1591.042" style="font-style:normal;font-weight:400;line-height:0%;font-family:&quot;Times New Roman&quot;;writing-mode:lr-tb;fill:#000;fill-opacity:1;stroke:none;stroke-width:1px;stroke-linecap:butt;stroke-linejoin:miter;stroke-opacity:1"><tspan id="tspan3290" x="2142.555" y="1591.042" style="font-size:40px;line-height:1.25">14</tspan></text>
        <ellipse id="path3292-7" cx="2582.66" cy="1705.117" rx="23.927" ry="22.133" style="display:inline;overflow:visible;visibility:visible;opacity:1;fill:#fff;fill-opacity:1;fill-rule:nonzero;stroke:#181818;stroke-width:2;stroke-linecap:round;stroke-linejoin:round;stroke-miterlimit:4;stroke-dasharray:none;stroke-dashoffset:66;stroke-opacity:1;marker:none;marker-start:none;marker-mid:none;marker-end:none"/>
        <text xml:space="preserve" id="text163" x="2466.923" y="1629.061" style="font-style:normal;font-variant:normal;font-weight:400;font-stretch:normal;font-size:40px;line-height:1.25;font-family:&quot;Times New Roman&quot;;-inkscape-font-specification:&quot;Times New Roman, &quot;;white-space:pre;inline-size:50.3118;fill:#000;fill-opacity:1;stroke:none" transform="translate(94.793 89.282)"><tspan x="2466.923" y="1629.061"><tspan>15</tspan></tspan></text>
      </g>
      <text xml:space="preserve" id="text3456" x="2191.966" y="1595.148" style="font-style:normal;font-weight:400;line-height:0%;font-family:&quot;Times New Roman&quot;;writing-mode:lr-tb;fill:#000;fill-opacity:1"><tspan id="tspan3458" x="2191.966" y="1595.148" style="font-size:22px;line-height:1.25">Bucine</tspan></text>
    </g>
    <g id="g4425" transform="rotate(-56.924 1288.712 2052.613)scale(1.35877)">
      <path id="path3463" d="M1695.937 1398.52h-24.481l12.24-21.2z" style="opacity:1;fill:red;fill-opacity:1;stroke:#fff;stroke-width:.61682928;stroke-linecap:round;stroke-linejoin:miter;stroke-miterlimit:4;stroke-dasharray:none;stroke-dashoffset:0;stroke-opacity:1" transform="rotate(167.046 1005.12 -296.537)scale(.514 -1.55789)"/>
      <rect id="rect3457" width="12.409" height="45.403" x="1763.349" y="1189.909" ry="0" style="opacity:1;fill:url(#pattern4166);fill-opacity:1;stroke:#000;stroke-width:.55197024;stroke-linecap:round;stroke-linejoin:round;stroke-miterlimit:4;stroke-dasharray:none;stroke-dashoffset:0;stroke-opacity:1;display:inline" transform="rotate(77.256)scale(1 -1)"/>
    </g>
    <g id="g3804" clip-path="url(#clipPath9724)" style="display:inline" transform="translate(-2614.612 -323.887)scale(1.82359)">
      <text xml:space="preserve" id="text3180" x="2073.466" y="964.031" style="font-style:normal;font-weight:400;line-height:0%;font-family:&quot;Times New Roman&quot;;fill:#000;fill-opacity:1;stroke:#fff;stroke-width:.548368px;stroke-linecap:butt;stroke-linejoin:miter;stroke-opacity:1"><tspan id="tspan3182" x="2073.466" y="964.031" style="font-size:64px;line-height:1.25;stroke-width:.548368">N</tspan></text>
      <path id="path2745" d="m2121.833 945.997 54.18 7.988-.054-1.03-11.903-9.17 10.879-10.366-.054-1.03z" style="fill:red;fill-opacity:1;fill-rule:nonzero;stroke:#fff;stroke-width:.54836828;stroke-linecap:round;stroke-linejoin:round;stroke-miterlimit:4;stroke-dasharray:none;stroke-dashoffset:0;stroke-opacity:1"/>
    </g>
    <text xml:space="preserve" id="text3448-5" x="1719.862" y="1478.306" style="font-style:normal;font-weight:400;line-height:0%;font-family:&quot;Times New Roman&quot;;writing-mode:lr-tb;fill:#000;fill-opacity:1"><tspan id="tspan3450-2" x="1719.862" y="1478.306" style="font-size:22px;line-height:1.25">Biondetti 1</tspan></text>
    <text xml:space="preserve" id="text3448-5-9" x="1834.647" y="1430.926" style="font-style:normal;font-weight:400;line-height:0%;font-family:&quot;Times New Roman&quot;;writing-mode:lr-tb;fill:#000;fill-opacity:1"><tspan id="tspan3450-2-5" x="1834.647" y="1430.926" style="font-size:22px;line-height:1.25">Biondetti 2</tspan></text>
  </g>
</svg>
