<!--Mugello Grand Prix layout, single-line outline traced from the Wikimedia source.
     Derived from File:Mugello_Racing_Circuit_track_map_15_turns.svg by Will Pittenger
     on Wikimedia Commons, CC BY-SA 3.0
     (https://commons.wikimedia.org/wiki/File:Mugello_Racing_Circuit_track_map_15_turns.svg).
     The source path2419 (the black centerline) was path-extracted and affine-fit
     to the normalized 0 0 1000 1000 viewBox. License is recorded in
     LICENSE-ASSETS.md. To re-fetch the source, see scripts/fetch-map.mjs.-->
<svg xmlns="http://www.w3.org/2000/svg" aria-label="Mugello track map" role="img" viewBox="0 0 1000 1000">
  <path fill="none" stroke="#1f1f21" stroke-linecap="round" stroke-linejoin="round" stroke-width="10" d="M496.651 515.019c-21.62-6.773-43.297-13.434-64.638-21.027-32.653-11.617-64.437-25.563-96.567-38.549-30.172-12.194-60.117-24.97-90.338-36.991a479 479 0 0 0-51.398-17.133c-37.098-10.07-74.922-17.715-110.975-29.594-8.856-2.918-20.463-8.465-23.752-16.743-3.49-8.78-8.984-20.08-5.451-29.204 3.428-8.858 10.87-18.603 19.469-22.195 11.908-4.975 25.754-5.075 39.717-4.283 22.64 1.284 43.976 9.855 65.416 8.177 8.413-.659 16.928-9.097 21.417-16.354 7.713-12.473 11.079-28.929 18.69-41.664 5.11-8.55 13.272-15.682 22.195-19.08 7.431-2.831 22.686-.152 34.266 5.84 65.969 34.139 115.341 61.813 190.02 98.904 43.58 21.645 64.808-51.938 108.638-21.416 51.538 35.89 104.949 71.003 160.816 108.639 11.669 7.86 12.796 25.766 13.628 39.716 2.875 48.562 5.237 78.472 45.169 87.223 20.29 4.446 69.139 15.574 108.638 25.31 14.11 3.477 26.495 13.483 34.655 24.53 8.713 11.797 13.733 30.059 12.85 45.17-1.453 24.866-10.118 50.194-17.912 74.761-4.147 13.073-9.383 26.974-17.911 36.603-7.567 8.542-27.358 16.792-39.328 16.354-63.309-2.319-122.743-5-184.179-7.788-7.253-.329-15.655-5.678-21.027-10.513-5.012-4.51-7.829-10.92-8.956-17.523-2.982-17.475-3.69-39.02-10.513-55.292-3.3-7.87-12.298-15.313-21.027-17.133-70.965-14.794-146.593-18.601-218.055-32.709-8.751-1.727-17.342-8.004-22.584-14.796-6.18-8.004-9.346-19.396-9.346-29.204 0-9.142 6.526-21.555 13.239-27.646 7.305-6.629 16.108-10.448 26.478-10.903 13.252-.583 26.683 3.375 38.939 8.955 16.818 7.66 32.06 21.342 48.284 30.762 7.918 4.598 16.737 9.602 25.7 10.124 17.775 1.035 36.956-7.534 54.513-5.451 13.075 1.55 25.569 9.638 37.381 16.354 67.622 38.452 132.491 84.151 200.922 119.151 10.745 5.496 25.656 5.634 36.603 2.337 10.6-3.193 19.714-13.712 25.7-22.974 4.917-7.612 6.765-19.28 6.618-28.814-.113-7.34-3.577-15.26-7.398-21.417-5.524-8.9-11.263-16.904-20.248-22.584-13.6-8.597-29.589-14.397-45.169-19.47-107.205-34.903-215.534-66.737-323.189-100.46"/>
</svg>
