<!--Created with Inkscape (http://www.inkscape.org/)-->
<svg xmlns="http://www.w3.org/2000/svg" xmlns:xlink="http://www.w3.org/1999/xlink" id="svg2383" width="1536.302" height="1036.144">
  <defs id="defs2385">
    <clipPath id="clipPath3490" clipPathUnits="userSpaceOnUse">
      <path id="rect3492" d="M683.14 104.104h1511.787v1003.748H683.14z" style="opacity:1;fill:#006a00;fill-opacity:1;fill-rule:nonzero;stroke:none" transform="rotate(135.918)"/>
    </clipPath>
    <clipPath id="clipPath9716" clipPathUnits="userSpaceOnUse">
      <path id="path9718" d="m871.135 932.363 1331.22 1238.666 520.27-559.145L1391.405 373.22z" style="fill:#6a6a6a;fill-opacity:1;fill-rule:nonzero;stroke:#010101;stroke-width:.9426257;stroke-linecap:round;stroke-linejoin:round;stroke-miterlimit:4;stroke-dasharray:none;stroke-dashoffset:0;stroke-opacity:1"/>
    </clipPath>
    <clipPath id="clipPath3494" clipPathUnits="userSpaceOnUse">
      <path id="rect3496" d="M-4232.846-2372.13h2168.193v1468.418h-2168.193z" style="opacity:1;fill:#006a00;fill-opacity:1;fill-rule:nonzero;stroke:none" transform="matrix(-.9473 -.32036 .9519 -.3064 0 0)"/>
    </clipPath>
    <pattern id="pattern4256" width="10.794" height="10.774" patternTransform="rotate(223.488 978.448 137.465)scale(.77603)" patternUnits="userSpaceOnUse">
      <g id="g4248" transform="rotate(.594 69171.93 -57749.58)scale(.588)">
        <path id="rect4250" d="M1025.535 1215.281h18.173v18.096h-18.173z" style="opacity:1;fill:#000;fill-opacity:1;stroke:none;stroke-width:.5;stroke-linecap:round;stroke-linejoin:round;stroke-miterlimit:4;stroke-dasharray:none;stroke-dashoffset:0;stroke-opacity:1"/>
        <path id="rect4252" d="M1025.535 1215.281h9.075v9.075h-9.075z" style="opacity:1;fill:#fff;fill-opacity:1;stroke:none;stroke-width:.5;stroke-linecap:round;stroke-linejoin:round;stroke-miterlimit:4;stroke-dasharray:none;stroke-dashoffset:0;stroke-opacity:1"/>
        <path id="rect4254" d="M1034.641 1224.344h9.075v9.075h-9.075z" style="opacity:1;fill:#fff;fill-opacity:1;stroke:none;stroke-width:.5;stroke-linecap:round;stroke-linejoin:round;stroke-miterlimit:4;stroke-dasharray:none;stroke-dashoffset:0;stroke-opacity:1"/>
      </g>
    </pattern>
    <pattern xlink:href="#pattern4256" id="pattern4264" patternTransform="translate(-1600.07 379.48)scale(-.77603)"/>
  </defs>
  <g id="layer1" transform="translate(-1098.807 -518.554)">
    <path id="path5753" d="M1541.552 868.31c22.553 7.536 41.444 7.632 57.986 5.794 8.582-.953 21.103-5.71 23.928-11.964 2.758-6.108-1.091-19.394-7.179-25.123-6.262-5.894-13.186-11.308-24.043-18.541-19.087-12.37-34.778-22.42-50.131-32.903-18.185-12.416-38.28-23.624-53.837-38.284-5.18-4.88-7.821-13.331-8.374-20.338-.643-8.147-1.06-21.077 4.785-25.123 9.709-6.721 29.074-2.256 41.873-7.179 7.938-3.053 14.44-10.33 20.338-16.749 7.66-8.336 11.09-26.953 24.338-27.516 39.546-1.72 81.492-.854 122.815 2.393 25.456 2 48.085 19.525 72.978 26.32 25.877 7.063 73.255 20.274 91.634 16.412 19.355-4.066 28.45-15.386 47.144-12.823 10.994 1.507 13.868 20.432 27.517 21.534 6.493.525 13.91-5.614 20.338-4.785 5.935.766 12.196 5.472 16.749 9.57 8.537 7.678-1.11 21.396-3.44 29.35-4.503 15.372.652 33.487-3.738 48.414-3.586 12.19-10.67 25.469-20.338 33.499-13.86 11.51-34.138 15.687-50.248 25.123-11.805 6.915-24.924 14.157-33.498 23.928-8.574 9.77-8.52 26.533-21.759 37.835-11.984 10.23-27.349 15.102-40.452 24.375-10.347 7.323-22.909 14.855-28.713 25.124-4.564 8.076-7.531 22.312-2.392 29.91 5.977 8.836 14.48 16.65 25.849 26.41" style="fill:none;fill-rule:evenodd;stroke:#fff;stroke-width:17;stroke-linecap:butt;stroke-linejoin:round;stroke-miterlimit:4;stroke-dasharray:none;stroke-opacity:1"/>
    <path id="path5755" d="M1538.28 867.206c-29.212-9.957-38.638-12.594-55.985-28.993-33.698-31.854-54.65-79.476-87.335-112.458-11.182-11.284-28.59-16.555-44.265-20.338-42.15-10.174-86.992-11.162-129.208-21.535-27.572-6.775-57.442-15.236-75.969-31.703-10.186-9.055-13.072-30.833-10.169-44.864 1.883-9.098 10.442-22.352 20.338-22.731 114.925-4.406 236.27 2.561 354.124 8.375 60.005 2.96 112.194 9.41 170.78 16.45 21.65 2.601 27.625-19.194 48.155-17.647 16.603 1.252 21.73 27.137 50.247 31.106 22.195 3.089 51.9 7.257 72.954 10.244 79.619 11.292 166.99 24.09 246.475 36.414 9.61 1.49 19.128-.716 27.608-3.059 10.412-2.876 24.198-8.554 35.8-10.101 8.649-1.153 21.325-4.533 26.32 1.196 17.54 20.123 14.155 46.135 26.32 66.997 7.13 12.23 26.887 17.436 41.872 21.534 31.673 8.663 65.828 16.75 98.102 16.75 17.176 0 33.194-12.549 50.247-16.75 10.464-2.578 22.674-7.077 32.302-3.589 17.889 6.481 39.115 17.914 50.247 33.498 14.79 20.706 28.55 48.986 27.516 75.371-3.995 102.017-7.554 211.728-15.552 317.036-1.573 20.709-5.312 41.918-13.16 61.015-16.08 39.126-36.652 77.197-58.622 113.655-33.063 54.865-69.238 108.383-106.477 160.312-6.228 8.686-14.796 17.882-23.927 21.535-6.82 2.728-17.937 1.816-23.927-2.393-8.765-6.16-17.38-18.064-20.338-28.713-3.024-10.886-1.45-24.888 2.392-35.89 4.932-14.121 13.482-28.454 23.928-39.48 18.266-19.282 43.041-32.754 62.21-51.444 12.734-12.415 27.026-25.87 33.499-41.873 7.883-19.49 11.107-43.86 9.57-64.603-.855-11.558-6.483-27.262-16.748-32.302-34.4-16.893-78.478-27.309-117.244-33.499-8.69-1.387-20.235 3.923-25.124 10.768-9.068 12.696-6.023 37.335-16.749 47.854-10.011 9.82-30.012 11.596-45.461 13.16-16.055 1.626-35.837 3.512-49.052-3.589-13.504-7.256-15.044-27.176-25.721-40.078-8.464-10.227-21.112-21.404-31.106-29.91-8.749-7.445-15.711-10.6-24.525-17.945-7.936-6.612-15.265-20.663-23.928-26.32-30.419-19.865-68.455-29.776-99.298-49.649-37.838-24.38-89.165-62.385-116.514-85.08-29.454-24.441-53.193-44.075-70.417-54.296s-41.442-13.053-59.819-20.637c-19.309-7.97-36.938-12.978-54.135-24.227-14.507-9.488-22.811-25.315-37.536-33.946-14.187-8.317-15.943-7.918-32.694-13.628z" style="fill:none;fill-rule:evenodd;stroke:#fff;stroke-width:17;stroke-linecap:butt;stroke-linejoin:round;stroke-miterlimit:4;stroke-dasharray:none;stroke-opacity:1"/>
    <path id="path4261" d="M2124.865 666.801c-17.622 4.543-47.09 16-60.54 20.072-8.285 2.508-17.762.065-26.32 1.795-10.186 2.059-21.39 3.975-29.909 9.57-11.819 7.764-26.028 21.979-32.339 29.162-1.455 1.656-7.633 5.87-8.935 11.515" style="fill:none;fill-rule:evenodd;stroke:#fff;stroke-width:17;stroke-linecap:butt;stroke-linejoin:round;stroke-miterlimit:4;stroke-dasharray:none;stroke-opacity:1"/>
    <path id="path4263" d="M1837.39 907.154c-14.844 11.705-26.687 14.984-37.012 16.6-18.986 2.97-35.01 4.295-53.089.597-8.242-1.686-13.565-11.557-20.338-17.347-5.59-4.778-10.234-12.09-16.75-14.356-7.242-2.52-16.707 1.606-24.525 0-6.738-1.385-14.011-4.508-19.141-8.973-5.638-4.906-7.426-14.057-13.16-19.142-20.181-17.892-29.997-25.14-52.436-40.016" style="fill:none;fill-rule:evenodd;stroke:#fff;stroke-width:17;stroke-linecap:butt;stroke-linejoin:round;stroke-miterlimit:4;stroke-dasharray:none;stroke-opacity:1"/>
    <use xlink:href="#text3606" id="use3766" width="744.094" height="1052.362" x="0" y="0" style="stroke:#fff;stroke-width:3;stroke-miterlimit:4;stroke-dasharray:none;stroke-opacity:1"/>
    <use xlink:href="#text3642" id="use3780" width="744.094" height="1052.362" x="0" y="0" style="stroke:#fff;stroke-width:3;stroke-miterlimit:4;stroke-dasharray:none;stroke-opacity:1"/>
    <use xlink:href="#text3646" id="use3782" width="744.094" height="1052.362" x="0" y="0" style="stroke:#fff;stroke-width:3;stroke-miterlimit:4;stroke-dasharray:none;stroke-opacity:1"/>
    <use xlink:href="#text3666" id="use3792" width="744.094" height="1052.362" x="0" y="0" style="stroke:#fff;stroke-width:3;stroke-miterlimit:4;stroke-dasharray:none;stroke-opacity:1"/>
    <path id="path3198" d="M2508.513 883.376c-1.097 25.522-7.222 50.994-9.608 76.567-6.787 72.728-9.921 145.984-18.843 218.337-2.942 23.855-9.067 47.54-16.75 70.286-10.063 29.795-21.26 58.447-37.386 87.334" style="fill:none;fill-rule:evenodd;stroke:#fff;stroke-width:7;stroke-linecap:butt;stroke-linejoin:round;stroke-miterlimit:4;stroke-dasharray:none;stroke-opacity:1"/>
    <path id="path3233" d="m1671.357 608.324 113.356 15.329" style="fill:none;fill-rule:evenodd;stroke:#fff;stroke-width:17;stroke-linecap:butt;stroke-linejoin:round;stroke-miterlimit:4;stroke-dasharray:none;stroke-opacity:1"/>
    <path id="path3194" d="M1811.194 927.584c8.318-.423 20.224.032 26.859-3.807 4.574-2.647 6.738-9.318 9.305-14.382 2.509-4.946 4.265-11.49 6.24-16.707" style="fill:none;fill-rule:evenodd;stroke:#fff;stroke-width:7;stroke-linecap:butt;stroke-linejoin:round;stroke-miterlimit:4;stroke-dasharray:none;stroke-opacity:1"/>
    <path id="path3196" d="M1293.891 578.892c19.558.502 45.244-8.127 55.833-7.88 15.148.356 114.906 6.486 125.202 6.768 10.292.282 40.64 10.288 62.019 11.751" style="fill:none;fill-rule:evenodd;stroke:#fff;stroke-width:7;stroke-linecap:butt;stroke-linejoin:round;stroke-miterlimit:4;stroke-dasharray:none;stroke-opacity:1"/>
    <path id="path3192" d="M1293.891 578.892c19.558.502 45.244-8.127 55.833-7.88 15.148.356 114.906 6.486 125.202 6.768 10.292.282 40.64 10.288 62.019 11.751" style="fill:none;fill-rule:evenodd;stroke:#c8c8c8;stroke-width:5;stroke-linecap:butt;stroke-linejoin:round;stroke-miterlimit:4;stroke-dasharray:none;stroke-opacity:1"/>
    <path id="path3188" d="M2508.513 883.376c-1.097 25.522-7.222 50.994-9.608 76.567-6.787 72.728-9.921 145.984-18.843 218.337-2.942 23.855-9.067 47.54-16.75 70.286-10.063 29.795-21.26 58.447-37.386 87.334" style="fill:none;fill-rule:evenodd;stroke:#000;stroke-width:5;stroke-linecap:butt;stroke-linejoin:round;stroke-miterlimit:4;stroke-dasharray:none;stroke-opacity:1"/>
    <path id="path3190" d="M1811.194 927.584c8.318-.423 20.224.032 26.859-3.807 4.574-2.647 6.738-9.318 9.305-14.382 2.509-4.946 4.265-11.49 6.24-16.707" style="fill:none;fill-rule:evenodd;stroke:#c8c8c8;stroke-width:5;stroke-linecap:butt;stroke-linejoin:round;stroke-miterlimit:4;stroke-dasharray:none;stroke-opacity:1"/>
    <path id="path3180" d="M1605.071 827.446c11.565 9.172 37.84 26.886 48.303 37.087 5.49 5.351 7.523 14.236 13.16 19.142 5.13 4.465 12.404 7.588 19.142 8.973 7.818 1.606 17.283-2.52 24.526 0 6.515 2.266 11.16 9.578 16.749 14.356 6.773 5.79 12.096 15.661 20.338 17.347 18.078 3.698 34.103 2.373 53.089-.598 10.325-1.615 21.185-6.131 33.199-13.459" style="fill:none;fill-rule:evenodd;stroke:#c8c8c8;stroke-width:15;stroke-linecap:butt;stroke-linejoin:round;stroke-miterlimit:4;stroke-dasharray:none;stroke-opacity:1"/>
    <path id="path3208" d="m1671.357 608.324 113.356 15.329" style="fill:none;fill-rule:evenodd;stroke:#c8c8c8;stroke-width:15;stroke-linecap:butt;stroke-linejoin:round;stroke-miterlimit:4;stroke-dasharray:none;stroke-opacity:1"/>
    <path id="path4242" d="M2124.865 666.801c-17.622 4.543-47.09 16-60.54 20.072-8.285 2.508-17.762.065-26.32 1.795-10.186 2.059-21.39 3.975-29.909 9.57-11.819 7.764-26.028 21.979-32.339 29.162-1.455 1.656-7.633 5.87-8.935 11.515" style="fill:none;fill-rule:evenodd;stroke:#c8c8c8;stroke-width:15;stroke-linecap:butt;stroke-linejoin:round;stroke-miterlimit:4;stroke-dasharray:none;stroke-opacity:1"/>
    <path id="path4246" d="M1868.068 692.742c8.515-3.367 17.545-7.647 20.742-13.442 3.183-5.77 2.42-14.39.547-21.439-1.517-5.712-5.143-12.213-9.87-15.552-6.14-4.338-13.51-7.218-22.187-8.444l-12.82-1.811" style="fill:none;fill-rule:evenodd;stroke:#c8c8c8;stroke-width:15;stroke-linecap:butt;stroke-linejoin:round;stroke-miterlimit:4;stroke-dasharray:none;stroke-opacity:1"/>
    <path id="path4248" d="M1837.39 907.154c-14.844 11.705-26.687 14.984-37.012 16.6-18.986 2.97-35.01 4.295-53.089.597-8.242-1.686-13.565-11.557-20.338-17.347-5.59-4.778-10.234-12.09-16.75-14.356-7.242-2.52-16.707 1.606-24.525 0-6.738-1.385-14.011-4.508-19.141-8.973-5.638-4.906-7.426-14.057-13.16-19.142-20.181-17.892-29.997-25.14-52.436-40.016" style="fill:none;fill-rule:evenodd;stroke:#c8c8c8;stroke-width:15;stroke-linecap:butt;stroke-linejoin:round;stroke-miterlimit:4;stroke-dasharray:none;stroke-opacity:1"/>
    <path id="path3249" d="M1541.552 868.31c22.553 7.536 41.444 7.632 57.986 5.794 8.582-.953 21.103-5.71 23.928-11.964 2.758-6.108-1.091-19.394-7.179-25.123-6.262-5.894-13.186-11.308-24.043-18.541-19.087-12.37-34.778-22.42-50.131-32.903-18.185-12.416-38.28-23.624-53.837-38.284-5.18-4.88-7.821-13.331-8.374-20.338-.643-8.147-1.06-21.077 4.785-25.123 9.709-6.721 29.074-2.256 41.873-7.179 7.938-3.053 14.44-10.33 20.338-16.749 7.66-8.336 11.09-26.953 24.338-27.516 39.546-1.72 81.492-.854 122.815 2.393 25.456 2 48.085 19.525 72.978 26.32 25.877 7.063 73.255 20.274 91.634 16.412 19.355-4.066 28.45-15.386 47.144-12.823 10.994 1.507 13.868 20.432 27.517 21.534 6.493.525 13.91-5.614 20.338-4.785 5.935.766 12.196 5.472 16.749 9.57 8.537 7.678-1.11 21.396-3.44 29.35-4.503 15.372.652 33.487-3.738 48.414-3.586 12.19-10.67 25.469-20.338 33.499-13.86 11.51-34.138 15.687-50.248 25.123-11.805 6.915-24.924 14.157-33.498 23.928-8.574 9.77-8.52 26.533-21.759 37.835-11.984 10.23-27.349 15.102-40.452 24.375-10.347 7.323-22.909 14.855-28.713 25.124-4.564 8.076-7.531 22.312-2.392 29.91 5.977 8.836 14.48 16.65 25.849 26.41" style="fill:none;fill-rule:evenodd;stroke:#c8c8c8;stroke-width:15;stroke-linecap:butt;stroke-linejoin:round;stroke-miterlimit:4;stroke-dasharray:none;stroke-opacity:1"/>
    <path id="path4252" d="M1538.28 867.206c-29.212-9.957-38.638-12.594-55.985-28.993-33.698-31.854-54.65-79.476-87.335-112.458-11.182-11.284-28.59-16.555-44.265-20.338-42.15-10.174-86.992-11.162-129.208-21.535-27.572-6.775-57.442-15.236-75.969-31.703-10.186-9.055-13.072-30.833-10.169-44.864 1.883-9.098 10.442-22.352 20.338-22.731 114.925-4.406 236.27 2.561 354.124 8.375 60.005 2.96 112.194 9.41 170.78 16.45 21.65 2.601 27.625-19.194 48.155-17.647 16.603 1.252 21.73 27.137 50.247 31.106 22.195 3.089 51.9 7.257 72.954 10.244 79.619 11.292 166.99 24.09 246.475 36.414 9.61 1.49 19.128-.716 27.608-3.059 10.412-2.876 24.198-8.554 35.8-10.101 8.649-1.153 21.325-4.533 26.32 1.196 17.54 20.123 14.155 46.135 26.32 66.997 7.13 12.23 26.887 17.436 41.872 21.534 31.673 8.663 65.828 16.75 98.102 16.75 17.176 0 33.194-12.549 50.247-16.75 10.464-2.578 22.674-7.077 32.302-3.589 17.889 6.481 39.115 17.914 50.247 33.498 14.79 20.706 28.55 48.986 27.516 75.371-3.995 102.017-7.554 211.728-15.552 317.036-1.573 20.709-5.312 41.918-13.16 61.015-16.08 39.126-36.652 77.197-58.622 113.655-33.063 54.865-69.238 108.383-106.477 160.312-6.228 8.686-14.796 17.882-23.927 21.535-6.82 2.728-17.937 1.816-23.927-2.393-8.765-6.16-17.38-18.064-20.338-28.713-3.024-10.886-1.45-24.888 2.392-35.89 4.932-14.121 13.482-28.454 23.928-39.48 18.266-19.282 43.041-32.754 62.21-51.444 12.734-12.415 27.026-25.87 33.499-41.873 7.883-19.49 11.107-43.86 9.57-64.603-.855-11.558-6.483-27.262-16.748-32.302-34.4-16.893-78.478-27.309-117.244-33.499-8.69-1.387-20.235 3.923-25.124 10.768-9.068 12.696-6.023 37.335-16.749 47.854-10.011 9.82-30.012 11.596-45.461 13.16-16.055 1.626-35.837 3.512-49.052-3.589-13.504-7.256-15.044-27.176-25.721-40.078-8.464-10.227-21.112-21.404-31.106-29.91-8.749-7.445-15.711-10.6-24.525-17.945-7.936-6.612-15.265-20.663-23.928-26.32-30.419-19.865-68.455-29.776-99.298-49.649-37.838-24.38-89.165-62.385-116.514-85.08-29.454-24.441-53.193-44.075-70.417-54.296s-41.442-13.053-59.819-20.637c-19.309-7.97-36.938-12.978-54.135-24.227-14.507-9.488-22.811-25.315-37.536-33.946-14.187-8.317-15.943-7.918-32.694-13.628z" style="fill:none;fill-rule:evenodd;stroke:#000;stroke-width:15;stroke-linecap:butt;stroke-linejoin:round;stroke-miterlimit:4;stroke-dasharray:none;stroke-opacity:1"/>
    <g id="g3227" transform="translate(-7.855 -22.748)">
      <path id="path3225" d="M1545.25 1454.947v19.739h-356v-19.739m266.66 9.392v10.347m-178-10.347v10.347m89.05-15.802v15.758" style="fill:none;fill-rule:evenodd;stroke:#fff;stroke-width:4;stroke-linecap:butt;stroke-linejoin:miter;stroke-miterlimit:4;stroke-dasharray:none;stroke-opacity:1"/>
      <path id="path2423" d="M1545.25 1455.702v18.984h-356v-18.984m266.66 9.391v9.592m-178-9.592v9.592m89.05-15.046v15.003" style="fill:none;fill-rule:evenodd;stroke:#000;stroke-width:2;stroke-linecap:butt;stroke-linejoin:miter;stroke-miterlimit:4;stroke-dasharray:none;stroke-opacity:1"/>
      <use xlink:href="#text2441" id="use3370" width="744.094" height="1052.362" x="0" y="0" style="stroke:#fff;stroke-width:3;stroke-miterlimit:4;stroke-dasharray:none;stroke-opacity:1"/>
      <text xml:space="preserve" id="text2441" x="1303.432" y="1447.795" style="font-size:20px;font-style:normal;font-weight:400;writing-mode:lr-tb;fill:#000;fill-opacity:1;font-family:Times New Roman"><tspan id="tspan2443" x="1303.432" y="1447.795">1479 ft (451 m)</tspan></text>
    </g>
    <g id="g3804" clip-path="none" style="display:inline" transform="translate(-2801.228 -521.581)scale(1.95553)">
      <text xml:space="preserve" id="text3180" x="2073.466" y="964.988" style="font-size:64px;font-style:normal;font-weight:400;fill:#000;fill-opacity:1;stroke:#fff;stroke-width:.51137096px;stroke-linecap:butt;stroke-linejoin:miter;stroke-opacity:1;font-family:Times New Roman"><tspan id="tspan3182" x="2073.466" y="964.988" style="stroke-width:.51137096">N</tspan></text>
      <path id="path2745" d="m2181.054 962.78-51.426-18.833.539-.88 14.836-2.38-4.615-14.3.54-.878z" style="fill:red;fill-opacity:1;fill-rule:nonzero;stroke:#fff;stroke-width:.51137096;stroke-linecap:round;stroke-linejoin:round;stroke-miterlimit:4;stroke-dasharray:none;stroke-dashoffset:0;stroke-opacity:1"/>
    </g>
    <g id="g3587" transform="translate(-29.91 1.196)">
      <path id="path3585" d="M2428.862 1324.13a25.114 25.114 0 1 1-50.227 0 25.114 25.114 0 1 1 50.227 0" style="fill:#fff;fill-opacity:1;fill-rule:nonzero;stroke:#181818;stroke-width:1.83606553;stroke-linecap:round;stroke-linejoin:round;marker:none;marker-start:none;marker-mid:none;marker-end:none;stroke-miterlimit:4;stroke-dasharray:none;stroke-dashoffset:66;stroke-opacity:1;visibility:visible;display:inline;overflow:visible" transform="translate(-372.091 82.79)scale(1.08929)"/>
      <text xml:space="preserve" id="text3372" x="2232.415" y="1544.068" style="font-size:56px;font-style:normal;font-weight:400;writing-mode:lr-tb;fill:#000;fill-opacity:1;stroke:none;stroke-width:1px;stroke-linecap:butt;stroke-linejoin:miter;stroke-opacity:1;font-family:Times New Roman"><tspan id="tspan3374" x="2232.415" y="1544.068">1</tspan></text>
    </g>
    <g id="g3580">
      <path id="path3578" d="M2428.862 1324.13a25.114 25.114 0 1 1-50.227 0 25.114 25.114 0 1 1 50.227 0" style="fill:#fff;fill-opacity:1;fill-rule:nonzero;stroke:#181818;stroke-width:1.83606553;stroke-linecap:round;stroke-linejoin:round;marker:none;marker-start:none;marker-mid:none;marker-end:none;stroke-miterlimit:4;stroke-dasharray:none;stroke-dashoffset:66;stroke-opacity:1;visibility:visible;display:inline;overflow:visible" transform="translate(-384.479 -40.435)scale(1.08929)"/>
      <text xml:space="preserve" id="text3376" x="2220.451" y="1420.842" style="font-size:56px;font-style:normal;font-weight:400;writing-mode:lr-tb;fill:#000;fill-opacity:1;stroke:none;stroke-width:1px;stroke-linecap:butt;stroke-linejoin:miter;stroke-opacity:1;font-family:Times New Roman"><tspan id="tspan3378" x="2220.451" y="1420.842">2</tspan></text>
    </g>
    <g id="g3559">
      <path id="path3557" d="M2428.862 1324.13a25.114 25.114 0 1 1-50.227 0 25.114 25.114 0 1 1 50.227 0" style="fill:#fff;fill-opacity:1;fill-rule:nonzero;stroke:#181818;stroke-width:1.83606553;stroke-linecap:round;stroke-linejoin:round;marker:none;marker-start:none;marker-mid:none;marker-end:none;stroke-miterlimit:4;stroke-dasharray:none;stroke-dashoffset:66;stroke-opacity:1;visibility:visible;display:inline;overflow:visible" transform="translate(-397.584 -149.79)scale(1.08929)"/>
      <text xml:space="preserve" id="text3388" x="2207.291" y="1310.777" style="font-size:56px;font-style:normal;font-weight:400;writing-mode:lr-tb;fill:#000;fill-opacity:1;stroke:none;stroke-width:1px;stroke-linecap:butt;stroke-linejoin:miter;stroke-opacity:1;font-family:Times New Roman"><tspan id="tspan3390" x="2207.291" y="1310.777">5</tspan></text>
    </g>
    <g id="g3552" transform="translate(11.964 -64.604)">
      <path id="path3550" d="M2428.862 1324.13a25.114 25.114 0 1 1-50.227 0 25.114 25.114 0 1 1 50.227 0" style="fill:#fff;fill-opacity:1;fill-rule:nonzero;stroke:#181818;stroke-width:1.7388587;stroke-linecap:round;stroke-linejoin:round;marker:none;marker-start:none;marker-mid:none;marker-end:none;stroke-miterlimit:4;stroke-dasharray:none;stroke-dashoffset:66;stroke-opacity:1;visibility:visible;display:inline;overflow:visible" transform="matrix(1.21448 0 0 1.08929 -793.164 -152.182)"/>
      <text xml:space="preserve" id="text3392" x="2098.422" y="1308.384" style="font-size:56px;font-style:normal;font-weight:400;writing-mode:lr-tb;fill:#000;fill-opacity:1;stroke:none;stroke-width:1px;stroke-linecap:butt;stroke-linejoin:miter;stroke-opacity:1;font-family:Times New Roman"><tspan id="tspan3394" x="2098.422" y="1308.384">5a</tspan></text>
    </g>
    <g id="g4801" clip-path="url(#clipPath9716)" style="display:inline" transform="rotate(50.965 2086.269 1787.29)scale(1.28861)">
      <path id="path3463" d="M1695.937 1398.52h-24.481l12.24-21.2z" clip-path="url(#clipPath3494)" style="opacity:1;fill:red;fill-opacity:1;stroke:#fff;stroke-width:.867217;stroke-linecap:round;stroke-linejoin:miter;stroke-miterlimit:4;stroke-dasharray:none;stroke-dashoffset:0;stroke-opacity:1;display:inline" transform="rotate(134.293 1438.103 1599.24)scale(.514 1.55789)"/>
      <rect id="rect3457" width="13.041" height="53.589" x="-1620.884" y="376.017" clip-path="url(#clipPath3490)" ry="0" style="opacity:1;fill:url(#pattern4264);fill-opacity:1;stroke:#000;stroke-width:.77603012;stroke-linecap:round;stroke-linejoin:round;stroke-miterlimit:4;stroke-dasharray:none;stroke-dashoffset:0;stroke-opacity:1;display:inline" transform="rotate(-135.918)"/>
    </g>
    <text xml:space="preserve" id="text3606" x="2065.011" y="1473.665" style="font-size:32px;font-style:normal;font-weight:400;writing-mode:lr-tb;fill:#000;fill-opacity:1;font-family:Times New Roman"><tspan id="tspan3608" x="2065.011" y="1473.665">Horseshoe</tspan></text>
    <g id="g3986">
      <use xlink:href="#text3618" id="use3770" width="744.094" height="1052.362" x="0" y="0" style="stroke:#fff;stroke-width:3;stroke-miterlimit:4;stroke-dasharray:none;stroke-opacity:1"/>
      <g id="g3566" transform="translate(-16.75 3.59)">
        <path id="path3564" d="M2428.862 1324.13a25.114 25.114 0 1 1-50.227 0 25.114 25.114 0 1 1 50.227 0" style="fill:#fff;fill-opacity:1;fill-rule:nonzero;stroke:#181818;stroke-width:1.83606553;stroke-linecap:round;stroke-linejoin:round;marker:none;marker-start:none;marker-mid:none;marker-end:none;stroke-miterlimit:4;stroke-dasharray:none;stroke-dashoffset:66;stroke-opacity:1;visibility:visible;display:inline;overflow:visible" transform="translate(-390.433 -286.886)scale(1.08929)"/>
        <text xml:space="preserve" id="text3384" x="2214.469" y="1174.391" style="font-size:56px;font-style:normal;font-weight:400;writing-mode:lr-tb;fill:#000;fill-opacity:1;stroke:none;stroke-width:1px;stroke-linecap:butt;stroke-linejoin:miter;stroke-opacity:1;font-family:Times New Roman"><tspan id="tspan3386" x="2214.469" y="1174.391">4</tspan></text>
      </g>
      <text xml:space="preserve" id="text3618" x="2174.424" y="1120.274" style="font-size:32px;font-style:normal;font-weight:400;writing-mode:lr-tb;fill:#000;fill-opacity:1;font-family:Times New Roman"><tspan id="tspan3620" x="2174.424" y="1120.274">Left Hook</tspan></text>
    </g>
    <g id="g3995">
      <use xlink:href="#text3622" id="use3772" width="744.094" height="1052.362" x="0" y="0" style="stroke:#fff;stroke-width:3;stroke-miterlimit:4;stroke-dasharray:none;stroke-opacity:1"/>
      <g id="g3545" transform="translate(3.773 23.895)">
        <path id="path3543" d="M2428.862 1324.13a25.114 25.114 0 1 1-50.227 0 25.114 25.114 0 1 1 50.227 0" style="fill:#fff;fill-opacity:1;fill-rule:nonzero;stroke:#181818;stroke-width:1.83606553;stroke-linecap:round;stroke-linejoin:round;marker:none;marker-start:none;marker-mid:none;marker-end:none;stroke-miterlimit:4;stroke-dasharray:none;stroke-dashoffset:66;stroke-opacity:1;visibility:visible;display:inline;overflow:visible" transform="translate(-582.391 -223.15)scale(1.08929)"/>
        <text xml:space="preserve" id="text3396" x="2021.854" y="1237.799" style="font-size:56px;font-style:normal;font-weight:400;writing-mode:lr-tb;fill:#000;fill-opacity:1;stroke:none;stroke-width:1px;stroke-linecap:butt;stroke-linejoin:miter;stroke-opacity:1;font-family:Times New Roman"><tspan id="tspan3398" x="2021.854" y="1237.799">6</tspan></text>
      </g>
      <g id="g3538" transform="translate(-18.864 21.38)">
        <path id="path3536" d="M2428.862 1324.13a25.114 25.114 0 1 1-50.227 0 25.114 25.114 0 1 1 50.227 0" style="fill:#fff;fill-opacity:1;fill-rule:nonzero;stroke:#181818;stroke-width:1.74324048;stroke-linecap:round;stroke-linejoin:round;marker:none;marker-start:none;marker-mid:none;marker-end:none;stroke-miterlimit:4;stroke-dasharray:none;stroke-dashoffset:66;stroke-opacity:1;visibility:visible;display:inline;overflow:visible" transform="matrix(1.20838 0 0 1.08929 -822.909 -324.841)"/>
        <text xml:space="preserve" id="text3400" x="2054.157" y="1136.108" style="font-size:56px;font-style:normal;font-weight:400;writing-mode:lr-tb;fill:#000;fill-opacity:1;stroke:none;stroke-width:1px;stroke-linecap:butt;stroke-linejoin:miter;stroke-opacity:1;font-family:Times New Roman"><tspan id="tspan3402" x="2054.157" y="1136.108">6a</tspan></text>
      </g>
      <text xml:space="preserve" id="text3622" x="1948.052" y="1210.822" style="font-size:32px;font-style:normal;font-weight:400;writing-mode:lr-tb;fill:#000;fill-opacity:1;font-family:Times New Roman"><tspan id="tspan3624" x="1948.052" y="1210.822">Snake</tspan></text>
    </g>
    <g id="g4440">
      <g id="g3503" transform="translate(191.216 47.027)">
        <path id="path3501" d="M2428.862 1324.13a25.114 25.114 0 1 1-50.227 0 25.114 25.114 0 1 1 50.227 0" style="fill:#fff;fill-opacity:1;fill-rule:nonzero;stroke:#181818;stroke-width:1.83606553;stroke-linecap:round;stroke-linejoin:round;marker:none;marker-start:none;marker-mid:none;marker-end:none;stroke-miterlimit:4;stroke-dasharray:none;stroke-dashoffset:66;stroke-opacity:1;visibility:visible;display:inline;overflow:visible" transform="translate(-1453.96 -737.915)scale(1.08929)"/>
        <text xml:space="preserve" id="text3420" x="1134.126" y="723.362" style="font-size:56px;font-style:normal;font-weight:400;writing-mode:lr-tb;fill:#000;fill-opacity:1;stroke:none;stroke-width:1px;stroke-linecap:butt;stroke-linejoin:miter;stroke-opacity:1;font-family:Times New Roman"><tspan id="tspan3422" x="1134.126" y="723.362">10</tspan></text>
      </g>
      <use xlink:href="#text3632" id="use3776" width="744.094" height="1052.362" x="0" y="0" style="stroke:#fff;stroke-width:3;stroke-miterlimit:4;stroke-dasharray:none;stroke-opacity:1"/>
      <text xml:space="preserve" id="text3632" x="1277.741" y="810.899" style="font-size:32px;font-style:normal;font-weight:400;writing-mode:lr-tb;fill:#000;fill-opacity:1;font-family:Times New Roman"><tspan id="tspan3634" x="1277.741" y="810.899">South</tspan><tspan id="tspan3636" x="1277.741" y="850.899">Bend</tspan></text>
    </g>
    <text xml:space="preserve" id="text3642" x="1966.706" y="400.975" style="font-size:32px;font-style:normal;font-weight:400;writing-mode:lr-tb;fill:#000;fill-opacity:1;font-family:Times New Roman" transform="rotate(6.493)"><tspan id="tspan3644" x="1966.706" y="400.975">Back straight</tspan></text>
    <text xml:space="preserve" id="text3646" x="1643.636" y="571.997" style="font-size:32px;font-style:normal;font-weight:400;writing-mode:lr-tb;fill:#000;fill-opacity:1;font-family:Times New Roman"><tspan id="tspan3648" x="1643.636" y="571.997">Madison Avenue</tspan></text>
    <text xml:space="preserve" id="text3666" x="2530.33" y="947.98" style="font-size:32px;font-style:normal;font-weight:400;writing-mode:lr-tb;fill:#000;fill-opacity:1;font-family:Times New Roman"><tspan id="tspan3668" x="2530.33" y="947.98">Front</tspan><tspan id="tspan3670" x="2530.33" y="987.98">Straight</tspan></text>
    <g id="g3917" transform="translate(-18.864 36.471)">
      <path id="path3915" d="M2428.862 1324.13a25.114 25.114 0 1 1-50.227 0 25.114 25.114 0 1 1 50.227 0" style="fill:#fff;fill-opacity:1;fill-rule:nonzero;stroke:#181818;stroke-width:1.64679825;stroke-linecap:round;stroke-linejoin:round;marker:none;marker-start:none;marker-mid:none;marker-end:none;stroke-miterlimit:4;stroke-dasharray:none;stroke-dashoffset:66;stroke-opacity:1;visibility:visible;display:inline;overflow:visible" transform="translate(-547.466 -930.209)scale(1.21448)"/>
      <text xml:space="preserve" id="text3863" x="2341.632" y="696.456" style="font-size:56px;font-style:normal;font-weight:400;writing-mode:lr-tb;fill:#000;fill-opacity:1;stroke:none;stroke-width:1px;stroke-linecap:butt;stroke-linejoin:miter;stroke-opacity:1;font-family:Times New Roman"><tspan id="tspan3865" x="2341.632" y="696.456">16</tspan></text>
    </g>
    <g id="g4158">
      <use xlink:href="#text3662" id="use3790" width="744.094" height="1052.362" x="0" y="0" style="stroke:#fff;stroke-width:3;stroke-miterlimit:4;stroke-dasharray:none;stroke-opacity:1"/>
      <g id="g3459" transform="translate(96.837 -13.834)">
        <path id="path3971" d="M2431.545 1324.13a27.796 25.114 0 1 1-55.593 0 27.796 25.114 0 1 1 55.593 0" style="fill:#fff;fill-opacity:1;fill-rule:nonzero;stroke:#181818;stroke-width:1.39933848;stroke-linecap:round;stroke-linejoin:round;marker:none;marker-start:none;marker-mid:none;marker-end:none;stroke-miterlimit:4;stroke-dasharray:none;stroke-dashoffset:66;stroke-opacity:1;visibility:visible;display:inline;overflow:visible" transform="matrix(1.8753 0 0 1.08929 -2022.624 -616.754)"/>
        <text xml:space="preserve" id="text3448" x="2444.171" y="844.195" style="font-size:56px;font-style:normal;font-weight:400;writing-mode:lr-tb;fill:#000;fill-opacity:1;stroke:none;stroke-width:1px;stroke-linecap:butt;stroke-linejoin:miter;stroke-opacity:1;font-family:Times New Roman"><tspan id="tspan3450" x="2444.171" y="844.195">17a</tspan></text>
      </g>
      <text xml:space="preserve" id="text3662" x="2500.147" y="755.564" style="font-size:32px;font-style:normal;font-weight:400;writing-mode:lr-tb;fill:#000;fill-opacity:1;font-family:Times New Roman"><tspan id="tspan3664" x="2500.147" y="755.564">Hog Pen</tspan></text>
      <g id="g3910" transform="translate(-3.773 22.637)">
        <path id="path3908" d="M2428.862 1324.13a25.114 25.114 0 1 1-50.227 0 25.114 25.114 0 1 1 50.227 0" style="fill:#fff;fill-opacity:1;fill-rule:nonzero;stroke:#181818;stroke-width:1.64679825;stroke-linecap:round;stroke-linejoin:round;marker:none;marker-start:none;marker-mid:none;marker-end:none;stroke-miterlimit:4;stroke-dasharray:none;stroke-dashoffset:66;stroke-opacity:1;visibility:visible;display:inline;overflow:visible" transform="translate(-456.302 -930.263)scale(1.21448)"/>
        <text xml:space="preserve" id="text3867" x="2432.96" y="696.456" style="font-size:56px;font-style:normal;font-weight:400;writing-mode:lr-tb;fill:#000;fill-opacity:1;stroke:none;stroke-width:1px;stroke-linecap:butt;stroke-linejoin:miter;stroke-opacity:1;font-family:Times New Roman"><tspan id="tspan3869" x="2432.96" y="696.456">17</tspan></text>
      </g>
    </g>
    <g id="g3975">
      <use xlink:href="#text3612" id="use3768" width="744.094" height="1052.362" x="0" y="0" style="stroke:#fff;stroke-width:3;stroke-miterlimit:4;stroke-dasharray:none;stroke-opacity:1"/>
      <g id="g3573" transform="translate(-8.803 1.258)">
        <path id="path3571" d="M2428.862 1324.13a25.114 25.114 0 1 1-50.227 0 25.114 25.114 0 1 1 50.227 0" style="fill:#fff;fill-opacity:1;fill-rule:nonzero;stroke:#181818;stroke-width:1.83606553;stroke-linecap:round;stroke-linejoin:round;marker:none;marker-start:none;marker-mid:none;marker-end:none;stroke-miterlimit:4;stroke-dasharray:none;stroke-dashoffset:66;stroke-opacity:1;visibility:visible;display:inline;overflow:visible" transform="translate(-265.471 -176.492)scale(1.08929)"/>
        <text xml:space="preserve" id="text3380" x="2340.087" y="1284.457" style="font-size:56px;font-style:normal;font-weight:400;writing-mode:lr-tb;fill:#000;fill-opacity:1;stroke:none;stroke-width:1px;stroke-linecap:butt;stroke-linejoin:miter;stroke-opacity:1;font-family:Times New Roman"><tspan id="tspan3382" x="2340.087" y="1284.457">3</tspan></text>
      </g>
      <text xml:space="preserve" id="text3612" x="2363.066" y="1121.531" style="font-size:32px;font-style:normal;font-weight:400;writing-mode:lr-tb;fill:#000;fill-opacity:1;font-family:Times New Roman"><tspan id="tspan3614" x="2363.066" y="1121.531">Nascar</tspan><tspan id="tspan3616" x="2363.066" y="1161.531">Bend</tspan></text>
      <path id="path3973" d="M1695.937 1398.52h-24.481l12.24-21.2z" clip-path="url(#clipPath3494)" style="fill:#000;fill-opacity:1;stroke:#fff;stroke-width:.56326467;stroke-linecap:round;stroke-linejoin:miter;stroke-miterlimit:4;stroke-dasharray:none;stroke-dashoffset:0;stroke-opacity:1;display:inline" transform="matrix(-.93522 -.42278 1.26604 -2.79792 2216.205 5800.448)"/>
    </g>
    <use xlink:href="#text3638" id="use3778" width="744.094" height="1052.362" x="0" y="0" style="stroke:#fff;stroke-width:3;stroke-miterlimit:4;stroke-dasharray:none;stroke-opacity:1"/>
    <text xml:space="preserve" id="text3638" x="1223.664" y="638.605" style="font-size:32px;font-style:normal;font-weight:400;writing-mode:lr-tb;fill:#000;fill-opacity:1;font-family:Times New Roman"><tspan id="tspan3640" x="1223.664" y="638.605">Oak Tree</tspan></text>
    <path id="path4050" d="M1695.937 1398.52h-24.481l12.24-21.2z" clip-path="url(#clipPath3494)" style="fill:#000;fill-opacity:1;stroke:#fff;stroke-width:.56326467;stroke-linecap:round;stroke-linejoin:miter;stroke-miterlimit:4;stroke-dasharray:none;stroke-dashoffset:0;stroke-opacity:1;display:inline" transform="matrix(.34598 -.96627 2.8909 1.0363 -3410.904 802.356)"/>
    <g id="g4401" transform="translate(422.898 263.929)">
      <path id="path4403" d="M2428.862 1324.13a25.114 25.114 0 1 1-50.227 0 25.114 25.114 0 1 1 50.227 0" style="fill:#fff;fill-opacity:1;fill-rule:nonzero;stroke:#181818;stroke-width:1.83606553;stroke-linecap:round;stroke-linejoin:round;marker:none;marker-start:none;marker-mid:none;marker-end:none;stroke-miterlimit:4;stroke-dasharray:none;stroke-dashoffset:66;stroke-opacity:1;visibility:visible;display:inline;overflow:visible" transform="translate(-1453.96 -737.915)scale(1.08929)"/>
      <text xml:space="preserve" id="text4405" x="1150.327" y="723.362" style="font-size:56px;font-style:normal;font-weight:400;writing-mode:lr-tb;fill:#000;fill-opacity:1;stroke:none;stroke-width:1px;stroke-linecap:butt;stroke-linejoin:miter;stroke-opacity:1;font-family:Times New Roman"><tspan id="tspan4407" x="1150.327" y="723.362">8</tspan></text>
    </g>
    <g id="g5113" transform="translate(535.851 321.874)">
      <path id="path5115" d="M2428.862 1324.13a25.114 25.114 0 1 1-50.227 0 25.114 25.114 0 1 1 50.227 0" style="fill:#fff;fill-opacity:1;fill-rule:nonzero;stroke:#181818;stroke-width:1.83606553;stroke-linecap:round;stroke-linejoin:round;marker:none;marker-start:none;marker-mid:none;marker-end:none;stroke-miterlimit:4;stroke-dasharray:none;stroke-dashoffset:66;stroke-opacity:1;visibility:visible;display:inline;overflow:visible" transform="translate(-1453.96 -737.915)scale(1.08929)"/>
      <text xml:space="preserve" id="text5117" x="1150.614" y="722.597" style="font-size:56px;font-style:normal;font-weight:400;writing-mode:lr-tb;fill:#000;fill-opacity:1;stroke:none;stroke-width:1px;stroke-linecap:butt;stroke-linejoin:miter;stroke-opacity:1;font-family:Times New Roman"><tspan id="tspan5119" x="1150.614" y="722.597">7</tspan></text>
    </g>
    <g id="g5121" transform="translate(292.757 182.064)">
      <path id="path5123" d="M2428.862 1324.13a25.114 25.114 0 1 1-50.227 0 25.114 25.114 0 1 1 50.227 0" style="fill:#fff;fill-opacity:1;fill-rule:nonzero;stroke:#181818;stroke-width:1.83606553;stroke-linecap:round;stroke-linejoin:round;marker:none;marker-start:none;marker-mid:none;marker-end:none;stroke-miterlimit:4;stroke-dasharray:none;stroke-dashoffset:66;stroke-opacity:1;visibility:visible;display:inline;overflow:visible" transform="translate(-1453.96 -737.915)scale(1.08929)"/>
      <text xml:space="preserve" id="text5125" x="1150.505" y="723.362" style="font-size:56px;font-style:normal;font-weight:400;writing-mode:lr-tb;fill:#000;fill-opacity:1;stroke:none;stroke-width:1px;stroke-linecap:butt;stroke-linejoin:miter;stroke-opacity:1;font-family:Times New Roman"><tspan id="tspan5127" x="1150.505" y="723.362">9</tspan></text>
    </g>
    <g id="g5669" transform="translate(-34.727 -6.87)">
      <path id="path5671" d="M2428.862 1324.13a25.114 25.114 0 1 1-50.227 0 25.114 25.114 0 1 1 50.227 0" style="fill:#fff;fill-opacity:1;fill-rule:nonzero;stroke:#181818;stroke-width:1.83606553;stroke-linecap:round;stroke-linejoin:round;marker:none;marker-start:none;marker-mid:none;marker-end:none;stroke-miterlimit:4;stroke-dasharray:none;stroke-dashoffset:66;stroke-opacity:1;visibility:visible;display:inline;overflow:visible" transform="translate(-1453.96 -737.915)scale(1.08929)"/>
      <text xml:space="preserve" id="text5673" x="1136.545" y="723.362" style="font-size:56px;font-style:normal;font-weight:400;writing-mode:lr-tb;fill:#000;fill-opacity:1;stroke:none;stroke-width:1px;stroke-linecap:butt;stroke-linejoin:miter;stroke-opacity:1;font-family:Times New Roman"><tspan id="tspan5675" x="1136.545" y="723.362">11</tspan></text>
    </g>
    <g id="g5677" transform="translate(-37.246 -155.497)">
      <path id="path5679" d="M2428.862 1324.13a25.114 25.114 0 1 1-50.227 0 25.114 25.114 0 1 1 50.227 0" style="fill:#fff;fill-opacity:1;fill-rule:nonzero;stroke:#181818;stroke-width:1.83606553;stroke-linecap:round;stroke-linejoin:round;marker:none;marker-start:none;marker-mid:none;marker-end:none;stroke-miterlimit:4;stroke-dasharray:none;stroke-dashoffset:66;stroke-opacity:1;visibility:visible;display:inline;overflow:visible" transform="translate(-1453.96 -737.915)scale(1.08929)"/>
      <text xml:space="preserve" id="text5681" x="1134.29" y="723.362" style="font-size:56px;font-style:normal;font-weight:400;writing-mode:lr-tb;fill:#000;fill-opacity:1;stroke:none;stroke-width:1px;stroke-linecap:butt;stroke-linejoin:miter;stroke-opacity:1;font-family:Times New Roman"><tspan id="tspan5683" x="1134.29" y="723.362">12</tspan></text>
    </g>
    <g id="g5731">
      <path id="path4097" d="M1695.937 1398.52h-24.481l12.24-21.2z" clip-path="url(#clipPath3494)" style="fill:#000;fill-opacity:1;stroke:#fff;stroke-width:.56326467;stroke-linecap:round;stroke-linejoin:miter;stroke-miterlimit:4;stroke-dasharray:none;stroke-dashoffset:0;stroke-opacity:1;display:inline" transform="matrix(.96627 -.34598 -1.0363 -2.8909 1918.169 5219.667)"/>
      <g id="g5708" transform="translate(917.404 -140.464)">
        <path id="path5710" d="M2428.862 1324.13a25.114 25.114 0 1 1-50.227 0 25.114 25.114 0 1 1 50.227 0" style="fill:#fff;fill-opacity:1;fill-rule:nonzero;stroke:#181818;stroke-width:1.83606553;stroke-linecap:round;stroke-linejoin:round;marker:none;marker-start:none;marker-mid:none;marker-end:none;stroke-miterlimit:4;stroke-dasharray:none;stroke-dashoffset:66;stroke-opacity:1;visibility:visible;display:inline;overflow:visible" transform="translate(-1453.96 -737.915)scale(1.08929)"/>
        <text xml:space="preserve" id="text5712" x="1134.098" y="723.362" style="font-size:56px;font-style:normal;font-weight:400;writing-mode:lr-tb;fill:#000;fill-opacity:1;stroke:none;stroke-width:1px;stroke-linecap:butt;stroke-linejoin:miter;stroke-opacity:1;font-family:Times New Roman"><tspan id="tspan5714" x="1134.098" y="723.362">14</tspan></text>
      </g>
    </g>
    <g id="g5738">
      <use xlink:href="#text3658" id="use3788" width="744.094" height="1052.362" x="0" y="0" style="stroke:#fff;stroke-width:3;stroke-miterlimit:4;stroke-dasharray:none;stroke-opacity:1"/>
      <text xml:space="preserve" id="text3658" x="2189" y="632.938" style="font-size:32px;font-style:normal;font-weight:400;writing-mode:lr-tb;fill:#000;fill-opacity:1;font-family:Times New Roman"><tspan id="tspan3660" x="2189" y="632.938">Roller Coaster</tspan></text>
      <g id="g3924" transform="translate(-17.573 35.193)">
        <path id="path3922" d="M2428.862 1324.13a25.114 25.114 0 1 1-50.227 0 25.114 25.114 0 1 1 50.227 0" style="fill:#fff;fill-opacity:1;fill-rule:nonzero;stroke:#181818;stroke-width:1.64679825;stroke-linecap:round;stroke-linejoin:round;marker:none;marker-start:none;marker-mid:none;marker-end:none;stroke-miterlimit:4;stroke-dasharray:none;stroke-dashoffset:66;stroke-opacity:1;visibility:visible;display:inline;overflow:visible" transform="translate(-648.8 -944.097)scale(1.21448)"/>
        <text xml:space="preserve" id="text3859" x="2241.064" y="682.622" style="font-size:56px;font-style:normal;font-weight:400;writing-mode:lr-tb;fill:#000;fill-opacity:1;stroke:none;stroke-width:1px;stroke-linecap:butt;stroke-linejoin:miter;stroke-opacity:1;font-family:Times New Roman"><tspan id="tspan3861" x="2241.064" y="682.622">15</tspan></text>
      </g>
      <g id="g5724">
        <path id="path4099" d="M1695.937 1398.52h-24.481l12.24-21.2z" clip-path="url(#clipPath3494)" style="fill:#000;fill-opacity:1;stroke:#fff;stroke-width:.56326467;stroke-linecap:round;stroke-linejoin:miter;stroke-miterlimit:4;stroke-dasharray:none;stroke-dashoffset:0;stroke-opacity:1;display:inline" transform="matrix(-1.02633 .00415 -.0113 -3.071 3916.195 4865.454)"/>
        <g id="g5716" transform="translate(-314.23 -278.691)">
          <path id="path5718" d="M2431.545 1324.13a27.796 25.114 0 1 1-55.593 0 27.796 25.114 0 1 1 55.593 0" style="fill:#fff;fill-opacity:1;fill-rule:nonzero;stroke:#181818;stroke-width:1.45271862;stroke-linecap:round;stroke-linejoin:round;marker:none;marker-start:none;marker-mid:none;marker-end:none;stroke-miterlimit:4;stroke-dasharray:none;stroke-dashoffset:66;stroke-opacity:1;visibility:visible;display:inline;overflow:visible" transform="matrix(1.74002 0 0 1.08929 -1697.434 -616.754)"/>
          <text xml:space="preserve" id="text5720" x="2441.491" y="844.195" style="font-size:56px;font-style:normal;font-weight:400;writing-mode:lr-tb;fill:#000;fill-opacity:1;stroke:none;stroke-width:1px;stroke-linecap:butt;stroke-linejoin:miter;stroke-opacity:1;font-family:Times New Roman"><tspan id="tspan5722" x="2441.491" y="844.195">14a</tspan></text>
        </g>
      </g>
    </g>
  </g>
</svg>
