<svg xmlns="http://www.w3.org/2000/svg" aria-label="Track map of Virginia International Raceway, Full Course layout" role="img" viewBox="0 0 1000 1000">
<!--Production track map for Virginia International Raceway (Full Course).
  Derived by path-extract from map-source.svg. The source path4252 is the
  black Full-Course centerline stroke; its raw d is affine-fit (uniform scale +
  translate) into the 0 0 1000 1000 viewBox. Source: Virginia International
  Raceway - Full Course.svg by Will Pittenger, CC BY 3.0, via Wikimedia Commons.
  Retraced 2026-06-11.-->
  <path fill="none" stroke="#1f1f21" stroke-linecap="round" stroke-linejoin="round" stroke-width="10" d="M318.168 381.227c-18.583-6.334-24.58-8.012-35.615-18.444-21.436-20.264-34.765-50.558-55.557-71.539-7.113-7.178-18.187-10.531-28.159-12.938-26.813-6.472-55.339-7.1-82.194-13.7-17.54-4.309-36.541-9.691-48.327-20.167-6.48-5.76-8.316-19.614-6.469-28.54 1.198-5.787 6.643-14.218 12.938-14.46 73.108-2.802 150.3 1.63 225.272 5.328 38.172 1.883 71.371 5.986 108.64 10.465 13.773 1.654 17.574-12.21 30.634-11.226 10.562.796 13.823 17.263 31.964 19.787 14.119 1.965 33.015 4.617 46.409 6.517 50.649 7.183 106.229 15.325 156.792 23.164 6.114.948 12.168-.455 17.563-1.945 6.623-1.83 15.393-5.442 22.774-6.426 5.502-.734 13.565-2.884 16.743.76 11.158 12.802 9.005 29.349 16.743 42.62 4.536 7.78 17.104 11.092 26.637 13.699 20.148 5.51 41.875 10.655 62.406 10.655 10.927 0 21.116-7.983 31.964-10.655 6.657-1.64 14.424-4.502 20.549-2.283 11.38 4.123 24.883 11.396 31.964 21.31 9.409 13.171 18.162 31.161 17.504 47.946-2.541 64.897-4.805 134.688-9.893 201.679-1 13.174-3.38 26.666-8.372 38.814-10.229 24.89-23.316 49.108-37.292 72.3-21.032 34.902-44.045 68.947-67.734 101.981-3.962 5.526-9.412 11.376-15.22 13.7-4.34 1.735-11.411 1.155-15.222-1.523-5.575-3.918-11.056-11.49-12.938-18.265-1.923-6.925-.922-15.832 1.522-22.831 3.138-8.983 8.577-18.1 15.222-25.115 11.62-12.266 27.38-20.836 39.574-32.726 8.1-7.897 17.192-16.457 21.31-26.637 5.015-12.398 7.066-27.9 6.088-41.096-.544-7.353-4.124-17.343-10.654-20.549-21.883-10.746-49.923-17.372-74.584-21.31-5.528-.882-12.872 2.496-15.982 6.85-5.769 8.076-3.832 23.75-10.655 30.442-6.368 6.247-19.092 7.377-28.92 8.372-10.213 1.034-22.797 2.234-31.203-2.284-8.59-4.615-9.57-17.287-16.363-25.495-5.384-6.506-13.43-13.616-19.787-19.027-5.566-4.736-9.995-6.743-15.602-11.415-5.048-4.206-9.71-13.145-15.221-16.744-19.35-12.636-43.547-18.941-63.168-31.583-24.07-15.51-56.721-39.686-74.119-54.123-18.737-15.548-33.838-28.038-44.795-34.54s-26.363-8.303-38.053-13.128c-12.283-5.07-23.498-8.256-34.438-15.412-9.228-6.035-14.51-16.104-23.878-21.594-9.025-5.29-10.142-5.037-20.798-8.67z"/>
</svg>
