<svg xmlns="http://www.w3.org/2000/svg" aria-label="Track map of the Autodromo Jose Carlos Pace (Interlagos), Grand Prix layout" role="img" viewBox="0 0 1000 1000">
<!--Production track map for the Autodromo Jose Carlos Pace (Interlagos), Grand Prix layout.
  Derived by path-extract from map-source.svg. The source path2840 is the
  Grand-Prix-circuit centerline; its raw d is affine-fit (uniform scale + translate)
  into the 0 0 1000 1000 viewBox. Source: Autodromo Jose Carlos Pace (AKA Interlagos)
  track map.svg by Will Pittenger, CC BY-SA 3.0, via Wikimedia Commons. Retraced 2026-06-11.-->
  <path fill="none" stroke="#1f1f21" stroke-linecap="round" stroke-linejoin="round" stroke-width="10" d="M722.176 706.309c58.004-16.222 116.524-31.1 173.979-48.779 9.48-2.917 15.117-7.07 23.38-12.433 7.184-4.664 11.889-10.222 16.35-17.073 3.127-4.802 4.115-12.27 3.251-17.885-.762-4.953-4.36-10.116-8.13-13.821-11.676-11.47-24.548-19.65-35.049-31.706-4.133-4.746-2.786-9.358-2.529-15.537.285-6.83 4.336-13.782 7.318-20.325 6.774-14.866 17.825-32.36 22.238-47.638 2.632-9.113.168-19.586-.814-29.267-.914-9.017-1.773-18.42-4.878-26.829-3.398-9.205-8.777-18.029-14.633-26.015-9.049-12.34-18.056-25.82-30.08-34.959-15.075-11.457-34.311-20.363-52.943-24.816-64.765-15.48-130.581-31.014-196.644-45.914-97.347-21.955-193.253-47.99-290.713-68.388-7.415-1.553-15.85-1.394-22.763.812-5.823 1.858-13.325 7.935-16.596 13.106-5.13 8.107-7.815 18.663-9.757 28.455-4.02 20.288-9.675 40.846-11.29 61.5-.824 10.51 1.57 21.957 3.974 31.994 2.204 9.204 7.773 17.913 13.008 26.015 6.147 9.513 12.009 20.113 21.137 26.829 70.815 52.09 146.464 98.859 218.694 149.589 8.798 6.18 18.588 12.58 24.389 21.137 5.038 7.433 6.73 17.674 8.13 26.83 1.582 10.356 2.998 21.586.813 31.706-2.964 13.727-9.135 27.722-16.26 39.836-3.714 6.314-9.661 12.321-16.26 15.446-13.997 6.63-30.092 10.303-45.527 13.821-21.42 4.883-43.39 9.509-65.039 11.382-6.534.565-11.319.61-16.924-2.34-3.26-1.716-6.35-4.668-8.72-7.884a30 30 0 0 1-2.662-4.311c-1.72-3.438-1.79-8.413-.814-12.195 1.193-4.618 4.675-8.796 7.318-13.008 6.028-9.609 14.298-18.3 18.698-28.454 2.645-6.105 1.316-15.792-.148-22.05-1.516-6.48-6.677-12.766-11.382-17.885-4.51-4.908-12.19-8.248-18.271-10.183-5.843-1.859-13.545-1.215-19.512.813-7.583 2.578-10.471 8.067-16.539 13.583-11.818 10.744-21.29 24.23-32.52 35.771-8.282 8.513-18.391 16.254-28.602 21.802-14.721 8.001-32.286 11.733-48.778 16.26-11.15 3.061-20.672 5.581-30.984 3.918-6.49-1.047-13.344-8.803-16.26-14.635-1.962-3.924.161-9.176 2.488-13.196 3.635-6.278 11.016-12.103 16.548-17.41 21.026-20.167 41.177-35.697 59.101-57.86 7.278-9 9.85-21.918 12.194-33.333 1.72-8.367 1.76-17.654 0-26.015-2.575-12.234-8.493-24.32-15.882-34.048-8.871-11.68-22.945-20.286-35.77-28.454-35.683-22.725-72.791-42.247-110.041-61.926-5.839-3.084-13.934-5.639-19.512-4.065-4.99 1.407-9.71 7.683-12.195 13.008-10.794 23.13-16.998 43.777-24.479 68.331-3.088 10.134-5.285 21.235-4.066 31.707 3.388 29.093 11.349 58.472 20.473 86.414 8.22 25.173 21.516 46.406 35.295 68.907 7.63 12.458 18.295 24.2 30.08 32.52 11.249 7.939 24.846 13.568 38.449 17.12 59.023 15.417 117.232 26.986 177.132 40.65 21.543 4.915 42.423 10.882 64.415 11.292 21.639.403 43.924-.688 65.04-5.69 77.255-18.304 153.393-42.78 230.074-64.227"/>
</svg>
