<!--Spa-Francorchamps GP layout, single-line outline traced from the Wikimedia source.
     Derived from File:Spa-Francorchamps_of_Belgium.svg by Will Pittenger
     on Wikimedia Commons, CC BY-SA 3.0
     (https://commons.wikimedia.org/wiki/File:Spa-Francorchamps_of_Belgium.svg).
     The source path2840 (the black centerline) was path-extracted and affine-fit
     to the normalized 0 0 1000 1000 viewBox. License is recorded in
     LICENSE-ASSETS.md. To re-fetch the source, see scripts/fetch-map.mjs.-->
<svg xmlns="http://www.w3.org/2000/svg" aria-label="Spa-Francorchamps track map" role="img" viewBox="0 0 1000 1000">
  <path fill="none" stroke="#1f1f21" stroke-linecap="round" stroke-linejoin="round" stroke-width="10" d="M215.928 625.452c-43.732 30.878-88.726 59.969-134.097 88.387-6.679 4.184-12.807 9.712-20.323 12.083-2.62.827-5.794 1.906-8.22.617-1.951-1.037-3.099-3.553-3.288-5.754-.53-6.18 4.564-13.662 6.343-17.495 12.166-26.21 21.116-48.785 33.935-72.022 6.349-11.507 12.99-22.98 21.208-33.236 12.022-15.004 27.166-27.215 40.69-40.88 12.285-12.417 24.556-24.848 36.75-37.354 8.483-8.7 18.026-16.505 25.331-26.215 5.261-6.994 7.978-15.655 13.083-22.762 3.8-5.291 7.809-10.635 12.947-14.64 5.976-4.657 13.082-7.814 20.186-10.446 9.21-3.412 19.596-3.028 28.674-6.774 7.125-2.942 13.186-7.561 19.45-11.851 11.057-7.574 21.234-16.357 31.913-24.455 11.078-8.402 22.096-16.887 33.36-25.038 8.628-6.243 17.28-12.467 26.208-18.276 4.126-2.683 8.278-5.354 12.631-7.651 6.604-3.484 13.457-6.5 20.393-9.261 18.283-7.28 37.334-12.472 55.82-19.215 70.183-25.598 190.012-73.39 209.112-80.618 14.708-5.567 29.033-12.683 44.438-15.845 3.226-.662 6.644-1.318 9.863-.616 4.572.995 8.544 3.537 12.125 6.37 3.647 2.886 5.823 6.95 8.9 10.275 1.584 1.713 2.816 3.507 4.663 4.727 2.533 1.672 5.335 2.588 8.22 3.082 2.65.454 5.266.162 7.81-.41 8.735-1.971 16.43-7.154 24.837-10.242 4.95-1.818 9.86-3.935 15.05-4.87 4.054-.73 8.327-1.449 12.344-.54 4.201.948 8.46 2.951 11.413 6.062 21.116 22.25 44.095 49.45 65.738 74.529 5.962 6.906 12.153 13.638 17.66 20.912 2.17 2.867 4.626 5.629 6.042 8.933 1.761 4.11 3.303 8.654 2.863 13.105-.353 3.57-2.2 6.964-4.315 9.863-1.814 2.486-4.245 4.593-6.926 6.104-2.748 1.548-5.901 2.419-9.028 2.828-2.683.352-5.496.35-8.11-.348-3.229-.862-6.25-2.58-8.899-4.618-3.815-2.932-6.612-6.998-9.72-10.672-10.894-12.877-23.641-31.557-31.25-39.8-2.524-2.733-6.94-3.791-10.768-4.438-3.586-.605-7.361-.253-10.892.616-6.8 1.676-12.686 5.942-19.125 8.693-8.989 3.842-18.123 7.334-27.222 10.906-10.263 4.029-20.436 8.317-30.874 11.871-11.365 3.87-22.94 7.115-34.524 10.275-21.496 5.864-43.396 10.182-64.876 16.105-6.35 1.75-12.881 3.08-18.906 5.74-4.597 2.03-9.066 4.525-12.954 7.706-3.29 2.692-6.485 5.743-8.563 9.453-2.587 4.62-3.57 10.024-4.467 15.241-.809 4.716-.728 9.547-.787 14.331-.07 5.644-.176 11.324.507 16.927.84 6.887 2.13 13.788 4.397 20.344 1.913 5.53 4.275 11.028 7.686 15.782 2.28 3.18 5.32 5.774 8.35 8.248 3.302 2.695 6.975 4.911 10.625 7.11 4.2 2.531 8.393 5.167 12.946 6.988 16.775 6.71 34.934 9.247 52.294 14.255 23.19 6.69 46.328 13.583 69.266 21.091 8.071 2.642 16.548 4.435 24.044 8.425 3.384 1.801 6.625 4.052 9.214 6.878 2.667 2.913 4.971 6.338 6.227 10.083 1.301 3.884 1.569 8.16 1.15 12.234-.44 4.278-2.033 8.266-3.288 12.33-2.135 6.918-6.076 13.338-7.206 20.49-.671 4.247-.62 8.701.322 12.898 1 4.458 2.875 8.829 5.548 12.535 1.192 1.652 2.87 2.919 4.521 4.11 10.811 7.8 22.732 14.158 34.86 19.598 16.268 7.297 34.38 13.93 48.533 25.49 3.355 2.74 6.363 6.154 8.22 10.068 1.617 3.412 2.548 7.334 2.26 11.098-.366 4.78-2.513 9.383-4.98 13.494-9.207 15.34-17.45 28.038-28.427 41.573-3.122 3.849-7.078 7.11-11.385 9.563a37.2 37.2 0 0 1-12.125 4.33c-6.103 1.044-12.263.69-18.323-.07-11.682-1.464-23.095-4.848-34.257-8.589-10.33-3.463-20.57-7.466-30.092-12.761-12.58-6.997-24.111-15.82-35.299-24.88-11.26-9.118-22.17-18.791-31.88-29.544-12.723-14.09-23.308-29.988-34.264-45.491-8.854-12.531-16.036-26.232-25.407-38.381-7.167-9.294-14.308-18.91-23.46-26.256-8.247-6.62-18.203-10.807-27.668-15.523-9.913-4.94-19.97-9.697-30.428-13.344-17.053-5.946-34.588-10.761-52.389-13.81-7.027-1.203-14.223-2.454-21.317-1.74-7.096.716-13.943 3.273-20.55 5.96-11.108 4.518-21.089 11.425-31.737 16.94-14.77 7.65-29.164 16.185-44.593 22.4-7.645 3.08-15.665 5.16-23.62 7.316-8.146 2.209-16.414 3.946-24.66 5.754-26.72 5.86-69.422 16.49-80.391 16.501-2.206.003-5.71-2.36-6.973-4.904-.854-1.719.105-3.838.205-5.754.207-3.977 1.862-8.075.822-11.92-.54-1.999-1.802-3.943-3.494-5.137-1.33-.938-3.103-1.368-4.726-1.233-2.842.236-5.52 1.791-7.81 3.494-15.637 11.633-28.402 22.17-43.114 32.558"/>
</svg>
