<svg xmlns="http://www.w3.org/2000/svg" stroke-miterlimit="10" clip-rule="evenodd" viewBox="0 0 690.66 638.5">
  <desc>
    SVG generated by Lineform
  </desc>
  <path fill="none" stroke="#999" stroke-width="6" d="M282.39 406.11c-2.91-3.81-1.51-6.27.51-7.46 2.96-1.76 6 2.4 7.52 4.54 1.66 2.36 2.96 5.15 3.07 8.32.08 2.35-.63 5.78-3.78 8.33M537.76 72.41c-2.89 1.39-4.6 1.97-9.14 4.44-4.77 2.59-25.29 15.62-26.28 15.93"/>
  <path fill="none" stroke="#999" stroke-width="6" d="M374.43 348.73c-12.05 7.56-31.17 18.85-36.33 22.75-12.46 9.42-23.82 30.83-27.48 33.62-5.26 4.01-8.48 6.33-13.56 9.56-2.61 1.66-5.46 3.54-7.54 5.56-5.56 5.41-29.3 29.16-46.14 46.13-1.14 1.26-2.49 2.78-2.75 4.46-.4 2.64-.21 3.56.22 5.86.72 3.88.97 8.74 3.33 11.91 3.64 4.91 4.35 4.27 4.69 5.99.62 3.18-1.1 10.07-.32 13.08.48 1.85 2.31 3.73 2.56 5.85.2 1.61-1.04 3.75-2.74 5.89-2.48 3.11-2.6 3.91-3.73 7.32-.79 2.41-.32 10.07-1.12 11.69-.93 1.86-3.84 4.15-5.04 5.84-1.23 1.74-1.2 2.72-2.16 4.46-2.33 3.71-5 7.16-7.19 10.96-5.39 9.35-7 12.44-9.53 13.13-.93.26-6.04.2-8 .5-2.21.32-3.73 1.36-5.58 2.02-1.78.61-2.67.9-4.72 1.62-2.27.79-4.69 2.27-6.74 3.55-2.32 1.45-4.96 3.04-7.51 4.18-1.3.58-1.93.88-3.23.99-2.31.19-4.96-.72-7.2-.81-1.9-.08-3.35-.2-5.52.36-2.16.55-3.83 1.27-5.67 2.47-3.04 1.98-6.19 5.68-9.17 7.19-5.45 2.76-8.91 4.53-14.21 6.57-1.08.41-3.41.66-4.36.54-1.34-.18-2.33-.48-3.37-.95-8.84-4.01-23.78-11.72-25.71-12.9-2.07-1.26-3.45-1.54-3.73-3.15-.19-1.06-.08-2.74.63-3.86 1.04-1.67 1.18-1.75 2.02-3.46.7-1.44 1.25-3.67 2.02-5.17 3.85-7.51 3.68-9.01 7.65-14.25 5.03-6.66 11.65-11.13 15.28-16.19 4.63-6.44 7.31-11.02 12.09-16 1.19-1.24 3.73-1.05 7.02-2.83 1.97-1.07 4.93-3.51 7.77-5.8 4.25-3.42 7.14-7.24 10.16-11.42 2-2.76 5.55-7.01 12.09-13.36 1.35-1.31 2.86-1.45 3.73-.76 1.72 1.37 1.3 3.56 2.52 5.35 2.25 3.3 6.29 4.71 11.09 3.54 4.89-1.18 5.93-6.38 9-9.59 25.71-26.97 66.15-66.29 74.96-75.18.47-.47 1.97-3.56 1.59-6.01-.46-2.98-6.4-9.17-9.34-10.58-5.27-2.52-5.66 9.53-7.91 13.58-1.24 2.23-2.09 4.72-3.96 6.38-3.68 3.28-7.91 5.81-12.72 5.8-5.01-.01-6.76-3.11-12.68-4.99-4.06-1.29-11.36-2.1-13.62-1.03-1.82.86-1.53.99-2.97 1.17-1.84.23-3.54-.81-4.9-2.25-2.09-2.23-2.97-3.82-4.99-6.48-1.47-1.93-3.9-3.13-5.21-5.39-.88-1.51-.54-2.32-2.57-3.87-1.43-1.09-7.59-.99-11.73-2.42-3.19-1.11-2.91-5.36-5.04-8.64-2.09-3.22-12.84-9.59-18.97-14.74-7.28-7.65-7.59-8.41-10.52-11.69s-5.47-5.82-7.82-9.08c-1.62-2.25-3.15-5.58-2.7-9.44.99-8.54 5.84-15.38 5.93-25.09.07-6.66.54-9.71-.98-20.68-.62-4.43-2.13-7.45-3.78-11.6-3.81-9.56-8.11-18.99-13.13-28.24a20.75 20.75 0 0 0-7.73-8c-3.51-2.07-7.77-3.79-11.69-5.75-1.98-.99-2.9-3.26-2.52-5.22.76-3.89 6.27-4.17 12.77-7.19 7.89-3.68 11.38-5.81 15.83-9.71 5.51-4.84 10.43-8.19 15.82-13.4 3.76-3.63 6.99-5.92 9.98-11.87 1.68-3.34 2.85-6.1 3.78-9.98 1.35-5.67.12-10.62.99-13.67 1.04-3.64 5.17-4.28 5.75-7.01.54-2.52-2.5-5.49-1.08-9.17.87-2.26 6.64-5.25 10.79-8.9 3.33-2.93 2.88-3.63 6.12-7.11 6.19-6.65 6.63-5.68 13.3-13.22 2.79-3.14 4.77-6 5.58-9.98 1.05-5.17-1.35-9.8-3.15-13.93-.58-1.35-1.62-2.16-3.32-2.79-1.44-.53-3.75.17-5.31-.45-2.7-1.08-4.31-1.9-6.83-3.87-3.11-2.42-4.44-4.59-4.59-6.47-.18-2.34 1.23-3.18 2.97-3.96 3.85-1.73 9.46-4.87 13.4-8.9 2.21-2.27 1.11-5.13 2.33-8.18.69-1.72 2.22-4.53 4.23-6.48 2.88-2.78 6.99-4.24 11.96-1.97 5.12 2.33 9.35 4.94 14.3 9.53 1.35 1.26.86 5.23 3.68 5.12 3.75-.15 1.84-2.6 5.76-4.49 6.17-2.99 14.55-3.32 20.77-1.71 2.91.72 6.3 2.44 9.26 1.98 3.84-.6 5.25-3.81 5.57-5.31.75-3.42-.11-8.42 1.8-10.88 1.96-2.51 2.93-3.86 15.2-7.82 11.64-3.76 15.83-1.61 21.85-3.96 6.87-2.68 12.36-11.31 17.71-10.97 2.82.18 5.5 1.66 6.03 4.95.94 5.92-.5 11.76-.54 17.17-.09 12.14 3.42 18.94 5.84 21.58 4.79 5.21 9.89 8.32 15.74 11.06 4.4 2.07 7.91 4.06 14.02 4.14 11.56.15 20.33.09 29.14 2.07 5.69 1.27 11.55 2.73 16.36 6.02 3.69 2.52 5.71 4.91 9.26 7.1 6.57 4.05 11.3 5.92 16.73 5.13 4.28-.63 10.34-4.61 14.92-8.45 3.87-3.24 7.42-8.18 12.41-9.26 7.47-1.62 11.14-.67 16.1-2.7 4.39-1.8 6.61-1.84 7.82-.72 3.1 2.87.82 6.11-1.35 7.73-5.03 3.78-13.55 10.64-16 11.24-5.92 1.46-4.79 6.43-3.47 7.73 3.07 3.04 7.7.85 8.3-1.37.44-1.66 1.71-2.7 4.22-4.5 2.88-2.06 5.88-3.65 11.33-5.57 2.38-.84 3.96-1.69 10.35-2.43 4.61-.54 9.3-6.54 13.03-11.88 4.8-6.88.29-8.05 1.38-12.01.9-3.3 1.78-6.71 6.02-9.62 3.68-2.53 23.03 3.97 24.46 4.85 3.42 2.12 5.08 6.17 8.27 7.65 3.69 1.7 5.2 1.73 8.27 3.14 2.16.99 8.91 10.68 8.99 13.31.14 4.33-7.33 16.17-2.87 20.05 3.93 3.43 5.09 2.46 9.53 4.68 3.05 1.52 3.05 6.48 3.24 9.89.17 3.33.09 7.73-2.61 9.17-5.4 2.88-12.7-1.53-18.79.18-3.25.91-2.16 5.13-6.21 10.25-4.7 5.95-6.92 12.58-6.92 16.28 0 5.48.54 12.49.09 17.44-.24 2.66-1.75 5.64-4.14 6.83-3.96 1.98-7.69 1.63-10.97 3.96-3.51 2.49-5.57 5.24-8.81 8.81-3.15 3.47-3.69 5.55-5.67 9.8-1.7 3.69-3.14 5.22-5.12 7.56-1.76 2.07-4.48 3.07-6.75 4.58-2.15 1.44-4.11 3.81-7.73 4.77-9.82 2.58-19.1 6.79-28.5 7.46-6.19.44-8.27-7.28-14.39-7.19-2.56.03-5 1.41-7.19 2.96-3.73 2.64-7.48 4.42-7.2 7.56.91 9.98 19.52 9.35 24.46 17.08 1.62 2.53 4.01 6.13 3.6 12.23-.22 3.33-2.91 6.09-5.4 8.09-5.79 4.68-26.07 16.19-39.38 24.19Zm-.45-.54"/>
  <text xml:space="preserve" font-family="Liberation Sans" font-size="9" opacity=".5">
            <tspan x="448.5" y="315.17">Döttinger Höhe</tspan>
        </text>
  <text xml:space="preserve" font-family="Liberation Sans" font-size="9" opacity=".5">
            <tspan x="493.17" y="276.5">Galgenkopf</tspan>
        </text>
  <text xml:space="preserve" font-family="Liberation Sans" font-size="9" opacity=".5">
            <tspan x="351.67" y="373.33">Antoniusbuche</tspan>
        </text>
  <text xml:space="preserve" font-family="Liberation Sans" font-size="9" opacity=".5">
            <tspan x="218" y="401">Hatzenbach</tspan>
        </text>
  <text xml:space="preserve" font-family="Liberation Sans" font-size="9" opacity=".5">
            <tspan x="140.33" y="410.67">Hoheneichen</tspan>
        </text>
  <text xml:space="preserve" font-family="Liberation Sans" font-size="9" opacity=".5">
            <tspan x="175.5" y="360.17">Quiddelbacher-</tspan>
            <tspan x="175.5" y="370.17">Höhe</tspan>
        </text>
  <text xml:space="preserve" font-family="Liberation Sans" font-size="9" opacity=".5">
            <tspan x="101.67" y="345">Flugplatz</tspan>
        </text>
  <text xml:space="preserve" font-family="Liberation Sans" font-size="9" opacity=".5">
            <tspan x="253.67" y="531.33">Bränkekopf</tspan>
        </text>
  <text xml:space="preserve" font-family="Liberation Sans" font-size="9" opacity=".5">
            <tspan x="163.67" y="562.67">Aschenschlag</tspan>
        </text>
  <text xml:space="preserve" font-family="Liberation Sans" font-size="9" opacity=".5">
            <tspan x="172" y="600.33">Seifgen</tspan>
        </text>
  <text xml:space="preserve" font-family="Liberation Sans" font-size="9" opacity=".5">
            <tspan x="51.67" y="579.33">Müllenbach</tspan>
        </text>
  <text xml:space="preserve" font-family="Liberation Sans" font-size="9" opacity=".5">
            <tspan x="112.33" y="582.67">Bocksberg</tspan>
        </text>
  <text xml:space="preserve" font-family="Liberation Sans" font-size="9" opacity=".5">
            <tspan x="93.67" y="526.67">Rassrück</tspan>
        </text>
  <text xml:space="preserve" font-family="Liberation Sans" font-size="9" opacity=".5">
            <tspan x="120.67" y="486.67">Scharfer Kopf</tspan>
        </text>
  <text xml:space="preserve" font-family="Liberation Sans" font-size="14" opacity=".5">
            <tspan x="272.33" y="197.33">Nordschleife</tspan>
        </text>
  <text xml:space="preserve" font-family="Liberation Sans" font-size="14" opacity=".5">
            <tspan x="228.33" y="588.33">Südschleife</tspan>
        </text>
  <text xml:space="preserve" font-family="Liberation Sans" font-size="9" opacity=".5">
            <tspan x="273" y="472.17">Start-und</tspan>
            <tspan x="273" y="482.17">Zielgerade</tspan>
        </text>
  <path fill="red" fill-rule="non-zero" d="m290.12 432.47 3.77 4.01-9.14 4.9Zm.73-37.79 4.49-3.17 3.59 9.73ZM123.76 601.99l-2.93 4.65-7.04-7.61ZM287.18 49.92l-1.5-5.29 10.37-.15ZM178.32 392.76l-4 3.77-4.93-9.12Zm245.55-67.86 2.84 4.71-9.96 2.88Zm0 0"/>
  <text xml:space="preserve" font-family="Liberation Sans" font-size="9" opacity=".5">
            <tspan x="143" y="262.67">Schwedenkreuz</tspan>
        </text>
  <text xml:space="preserve" font-family="Liberation Sans" font-size="9" opacity=".5">
            <tspan x="165.5" y="215.67">Fuchsröhre</tspan>
        </text>
  <text xml:space="preserve" font-family="Liberation Sans" font-size="9" opacity=".5">
            <tspan x="68.17" y="238.5">Aremberg</tspan>
        </text>
  <text xml:space="preserve" font-family="Liberation Sans" font-size="9" opacity=".5">
            <tspan x="102.67" y="180">Adenauer Forst</tspan>
        </text>
  <text xml:space="preserve" font-family="Liberation Sans" font-size="9" opacity=".5">
            <tspan x="151.17" y="130">Metzgesfeld</tspan>
        </text>
  <text xml:space="preserve" font-family="Liberation Sans" font-size="9" opacity=".5">
            <tspan x="141.67" y="91.75">Kallenhard</tspan>
        </text>
  <text xml:space="preserve" font-family="Liberation Sans" font-size="9" opacity=".5">
            <tspan x="215" y="88.5">Wehrseifen</tspan>
        </text>
  <text xml:space="preserve" font-family="Liberation Sans" font-size="9" opacity=".5">
            <tspan x="243.42" y="63.75">Exmühle</tspan>
        </text>
  <text xml:space="preserve" font-family="Liberation Sans" font-size="9" opacity=".5">
            <tspan x="291.92" y="79.92">Ausfahrt</tspan>
            <tspan x="291.92" y="89.92">Breidscheid</tspan>
        </text>
  <text xml:space="preserve" font-family="Liberation Sans" font-size="9" opacity=".5">
            <tspan x="351.5" y="39.75">Bergwerk</tspan>
        </text>
  <text xml:space="preserve" font-family="Liberation Sans" font-size="9" opacity=".5">
            <tspan x="376.25" y="83.75">Kesselchen</tspan>
        </text>
  <text xml:space="preserve" font-family="Liberation Sans" font-size="9" opacity=".5">
            <tspan x="441.25" y="90">Klostertal</tspan>
        </text>
  <text xml:space="preserve" font-family="Liberation Sans" font-size="9" opacity=".5">
            <tspan x="468.17" y="77.25">Steilstrecke</tspan>
        </text>
  <text xml:space="preserve" font-family="Liberation Sans" font-size="9" opacity=".5">
            <tspan x="477.5" y="132.25">Karussell</tspan>
        </text>
  <text xml:space="preserve" font-family="Liberation Sans" font-size="9" opacity=".5">
            <tspan x="505.75" y="61.25">Hohe Acht</tspan>
        </text>
  <text xml:space="preserve" font-family="Liberation Sans" font-size="9" opacity=".5">
            <tspan x="559.5" y="69.25">Hedwigshöhe</tspan>
        </text>
  <text xml:space="preserve" font-family="Liberation Sans" font-size="9" opacity=".5">
            <tspan x="588.5" y="91.25">Wippermann</tspan>
        </text>
  <text xml:space="preserve" font-family="Liberation Sans" font-size="9" opacity=".5">
            <tspan x="536.92" y="116.5">Eschbach</tspan>
        </text>
  <text xml:space="preserve" font-family="Liberation Sans" font-size="9" opacity=".5">
            <tspan x="603.25" y="136.25">Brünnchen</tspan>
        </text>
  <text xml:space="preserve" font-family="Liberation Sans" font-size="9" opacity=".5">
            <tspan x="332" y="392.75">Tiergarten</tspan>
        </text>
  <text xml:space="preserve" font-family="Liberation Sans" font-size="9" opacity=".5">
            <tspan x="269.33" y="387.58">Nordkehre</tspan>
        </text>
  <text xml:space="preserve" font-family="Liberation Sans" font-size="9" opacity=".5">
            <tspan x="411.75" y="127.67">Mutkurve</tspan>
        </text>
  <text xml:space="preserve" font-family="Liberation Sans" font-size="9" opacity=".5">
            <tspan x="483" y="206.83">Sprunghügel</tspan>
        </text>
  <text xml:space="preserve" font-family="Liberation Sans" font-size="9" opacity=".5">
            <tspan x="530.92" y="150">Eiskurve</tspan>
        </text>
  <text xml:space="preserve" font-family="Liberation Sans" font-size="9" opacity=".5">
            <tspan x="160.5" y="303.67">Kottenborn</tspan>
        </text>
  <text xml:space="preserve" font-family="Liberation Sans" font-size="9" opacity=".5">
            <tspan x="85.17" y="224.5">Poststraße</tspan>
        </text>
  <path fill="none" stroke="#000" stroke-width="3" d="m277.12 67.12 10 15.26"/>
  <text xml:space="preserve" font-family="Liberation Sans" font-size="9" opacity=".5">
            <tspan x="497.92" y="173.67">Pflanzgarten I</tspan>
        </text>
  <text xml:space="preserve" font-family="Liberation Sans" font-size="9" opacity=".5">
            <tspan x="393.33" y="226">Schwalbenschwanz</tspan>
        </text>
  <text xml:space="preserve" font-family="Liberation Sans" font-size="9" opacity=".5">
            <tspan x="374.08" y="245.17">kleines Karussell</tspan>
        </text>
  <text xml:space="preserve" font-family="Liberation Sans" font-size="9" opacity=".5">
            <tspan x="536.25" y="240.5">Pflanzgarten II</tspan>
        </text>
  <path fill="none" stroke="#000" stroke-width="5" d="M246.69 465.19c-10.54 7.91-12.23 10.12-14.09 8.46-6.94-6.24-7.59 2.65-8.66 7.04-1.92 7.83-7.23 20.44-5.88 24.12 1.45 3.94 8.78 4.6 10.5 7.13 2.92 4.29-8.08 7.28-12.37 10.62-4.92 3.84-11.5 9.62-14.75 14.38-2.75 4.01-5.47 7.18-9 4.37-2.46-1.95-1.04-4.41 2-7.25 6.03-5.62 13.62-13.96 14.12-16.87.51-2.98-1.7-6.18-1.37-9.38.71-6.96 8.54-25.79 9-30.62.44-4.66-10.96-6.32-13-10.63-1.51-3.18 18.49-23.96 22.12-26.12 3.24-1.94 25.6-5.7 38.46-8.86 4.25-1.04 3.84-7.26 6.58-7.6 5.09-.63 9.04-4.49 8.46-9.38-.14-1.19-.33-1.7-1.08-2.64-1.41-1.76-1.11-3.32-4.69-3.56-1.67-.11-3.72.03-5.98 4.08-1.24 2.23-2.52 3.97-4.39 5.63-3.69 3.28-7.6 6-12.41 5.99-5.01-.01-6.64-2.55-12.56-4.43-4.06-1.29-11.17-1.6-13.43-.53-1.82.86-1.53.99-2.97 1.17-1.84.23-3.54-.81-4.9-2.25-2.09-2.23-2.97-3.82-4.99-6.48-1.47-1.93-3.9-3.13-5.21-5.39-.88-1.51-.54-2.32-2.57-3.87-1.43-1.09-7.59-.99-11.73-2.42-3.19-1.11-2.91-5.36-5.04-8.64-2.09-3.22-12.84-9.59-18.97-14.74-7.28-7.65-7.59-8.41-10.52-11.69s-5.47-5.82-7.82-9.08c-1.62-2.25-3.15-5.58-2.7-9.44.99-8.54 5.84-15.38 5.93-25.09.07-6.66.54-9.71-.98-20.68-.62-4.43-2.13-7.45-3.78-11.6-3.81-9.56-8.11-18.99-13.13-28.24a20.75 20.75 0 0 0-7.73-8c-3.51-2.07-7.77-3.79-11.69-5.75-1.98-.99-2.9-3.26-2.52-5.22.76-3.89 6.27-4.17 12.77-7.19 7.89-3.68 11.38-5.81 15.83-9.71 5.51-4.84 10.43-8.19 15.82-13.4 3.76-3.63 6.99-5.92 9.98-11.87 1.68-3.34 2.85-6.1 3.78-9.98 1.35-5.67.12-10.62.99-13.67 1.04-3.64 5.17-4.28 5.75-7.01.54-2.52-2.5-5.49-1.08-9.17.87-2.26 6.64-5.25 10.79-8.9 3.33-2.93 2.88-3.63 6.12-7.11 6.19-6.65 6.63-5.68 13.3-13.22 2.79-3.14 4.77-6 5.58-9.98 1.05-5.17-1.35-9.8-3.15-13.93-.58-1.35-1.62-2.16-3.32-2.79-1.44-.53-3.75.17-5.31-.45-2.7-1.08-4.31-1.9-6.83-3.87-3.11-2.42-4.44-4.59-4.59-6.47-.18-2.34 1.23-3.18 2.97-3.96 3.85-1.73 9.46-4.87 13.4-8.9 2.21-2.27 1.11-5.13 2.33-8.18.69-1.72 2.22-4.53 4.23-6.48 2.88-2.78 6.99-4.24 11.96-1.97 5.12 2.33 9.35 4.94 14.3 9.53 1.35 1.26.86 5.23 3.68 5.12 3.75-.15 1.84-2.6 5.76-4.49 6.17-2.99 14.55-3.32 20.77-1.71 2.91.72 6.3 2.44 9.26 1.98 3.84-.6 5.25-3.81 5.57-5.31.75-3.42-.11-8.42 1.8-10.88 1.96-2.51 2.93-3.86 15.2-7.82 11.64-3.76 15.83-1.61 21.85-3.96 6.87-2.68 12.36-11.31 17.71-10.97 2.82.18 5.5 1.66 6.03 4.95.94 5.92-.5 11.76-.54 17.17-.09 12.14 3.42 18.94 5.84 21.58 4.79 5.21 9.89 8.32 15.74 11.06 4.4 2.07 7.91 4.06 14.02 4.14 11.56.15 20.33.09 29.14 2.07 5.69 1.27 11.55 2.73 16.36 6.02 3.69 2.52 5.71 4.91 9.26 7.1 6.57 4.05 11.3 5.92 16.73 5.13 4.28-.63 10.34-4.61 14.92-8.45 3.87-3.24 7.42-8.18 12.41-9.26 7.47-1.62 11.14-.67 16.1-2.7 4.39-1.8 6.61-1.84 7.82-.72 3.1 2.87.82 6.11-1.35 7.73-5.03 3.78-13.55 10.64-16 11.24-5.92 1.46-4.79 6.43-3.47 7.73 3.07 3.04 7.7.85 8.3-1.37.44-1.66 1.71-2.7 4.22-4.5 2.88-2.06 5.88-3.65 11.33-5.57 2.38-.84 3.96-1.69 10.35-2.43 4.61-.54 9.3-6.54 13.03-11.88 4.8-6.88.29-8.05 1.38-12.01.9-3.3 1.78-6.71 6.02-9.62 3.68-2.53 23.03 3.97 24.46 4.85 3.42 2.12 5.08 6.17 8.27 7.65 3.69 1.7 5.2 1.73 8.27 3.14 2.16.99 8.91 10.68 8.99 13.31.14 4.33-7.33 16.17-2.87 20.05 3.93 3.43 5.09 2.46 9.53 4.68 3.05 1.52 3.05 6.48 3.24 9.89.18 3.33.09 7.73-2.61 9.17-5.4 2.88-12.7-1.53-18.79.18-3.25.91-2.16 5.13-6.21 10.25-4.7 5.95-6.92 12.58-6.92 16.28 0 5.48.54 12.49.09 17.44-.24 2.66-1.75 5.64-4.14 6.83-3.96 1.98-7.69 1.63-10.97 3.96-3.51 2.49-5.57 5.24-8.81 8.81-3.15 3.47-3.69 5.55-5.67 9.8-1.7 3.69-3.14 5.22-5.12 7.56-1.76 2.07-4.48 3.07-6.74 4.58-2.16 1.44-4.12 3.81-7.74 4.77-9.82 2.58-19.1 6.79-28.5 7.46-6.19.44-8.27-7.28-14.39-7.19-2.56.03-5 1.41-7.19 2.96-3.73 2.64-7.48 4.42-7.2 7.56.91 9.98 19.52 9.35 24.46 17.08 1.62 2.53 4.01 6.13 3.6 12.23-.22 3.33-2.91 6.09-5.4 8.09-5.79 4.68-26.07 16.19-39.38 24.19l-65.64 40.73c-12.05 7.56-31.17 18.85-36.33 22.75-12.4 9.37-23.11 27.04-25.93 31.07-1.75 2.5-7.71 6.71-8.37 8.63-.77 2.22-.54 6.42-2.75 8-2.67 1.89-4.26 1.17-6.97 1.51-7.28.89-8.36 3.81-11.02 6.27Zm33.87-48.4"/>
  <g fill-rule="non-zero">
    <path d="m270.05 432.93 2.95 2.93-2.93 2.94-2.94-2.92Zm0 0"/>
    <path fill="#fff" d="m267.13 435.88 2.94 2.92-2.92 2.95-2.95-2.93Zm0 0"/>
    <path d="m264.2 438.82 2.95 2.93-2.93 2.94-2.94-2.92Zm0 0"/>
    <path fill="#fff" d="m272.97 435.83 2.95 2.93-2.93 2.95-2.94-2.93Zm-5.85 5.89 2.95 2.93-2.93 2.94-2.95-2.92Zm0 0"/>
    <path d="m270.02 438.75 2.95 2.93-2.93 2.94-2.94-2.92Zm5.87-.02 2.95 2.93-2.93 2.95-2.94-2.93Zm0 0"/>
    <path fill="#fff" d="m272.97 441.68 2.94 2.93-2.93 2.94-2.94-2.93Zm0 0"/>
    <path d="m270.04 444.62 2.94 2.93-2.92 2.95-2.95-2.93Zm0 0"/>
    <path fill="#fff" d="m278.81 441.64 2.95 2.92-2.93 2.95-2.94-2.93Zm-5.85 5.88 2.94 2.93-2.92 2.95-2.95-2.93Zm0 0"/>
    <path d="m275.86 444.55 2.94 2.93-2.92 2.95-2.95-2.93Zm5.92-.17 2.95 2.93-2.93 2.94-2.94-2.92Zm0 0"/>
    <path fill="#fff" d="m278.86 447.33 2.94 2.92-2.93 2.95-2.94-2.93Zm0 0"/>
    <path d="m275.93 450.27 2.94 2.93-2.92 2.94-2.95-2.92Zm0 0"/>
  </g>
</svg>
