<!--Nürburgring 24-hour combined layout, single-line outline traced from the Wikimedia source.
     Derived from File:Circuit_Nürburgring-2002-vs-1927.svg by Pitlane02
     on Wikimedia Commons, CC BY-SA 3.0
     (https://commons.wikimedia.org/wiki/File:Circuit_N%C3%BCrburgring-2002-vs-1927.svg).
     The source's 2002-layout centerline path (stroke=#000, stroke-width=5) was
     path-extracted and affine-fit to the normalized 0 0 1000 1000 viewBox.
     License is recorded in LICENSE-ASSETS.md. To re-fetch the source, see
     scripts/fetch-map.mjs.-->
<svg xmlns="http://www.w3.org/2000/svg" aria-label="Nürburgring track map" role="img" viewBox="0 0 1000 1000">
  <path fill="none" stroke="#1f1f21" stroke-linecap="round" stroke-linejoin="round" stroke-width="10.001" d="M306.89 814.689c-18.736 14.06-21.74 17.99-25.046 15.038-12.337-11.092-13.492 4.711-15.394 12.515-3.413 13.918-12.852 36.334-10.453 42.875 2.578 7.004 15.608 8.177 18.665 12.675 5.19 7.626-14.363 12.94-21.989 18.878-8.745 6.826-20.442 17.1-26.22 25.562-4.888 7.128-9.723 12.763-15.998 7.768-4.373-3.466-1.848-7.84 3.555-12.888 10.72-9.99 24.211-24.815 25.1-29.988.907-5.297-3.022-10.985-2.435-16.674 1.262-12.372 15.18-45.844 15.998-54.43.782-8.284-19.482-11.234-23.109-18.896-2.684-5.653 32.868-42.591 39.321-46.43 5.76-3.45 45.507-10.133 68.367-15.75 7.554-1.849 6.826-12.906 11.696-13.51 9.048-1.12 16.07-7.982 15.039-16.674-.25-2.115-.587-3.022-1.92-4.693-2.506-3.128-1.973-5.902-8.337-6.328-2.969-.196-6.613.053-10.63 7.252-2.204 3.965-4.48 7.058-7.804 10.008-6.56 5.83-13.51 10.666-22.06 10.648-8.906-.018-11.803-4.533-22.326-7.875-7.218-2.293-19.856-2.844-23.874-.942-3.235 1.529-2.72 1.76-5.28 2.08-3.27.409-6.292-1.44-8.71-4-3.715-3.964-5.279-6.79-8.87-11.518-2.613-3.431-6.932-5.564-9.26-9.582-1.565-2.684-.96-4.124-4.57-6.879-2.541-1.938-13.491-1.76-20.85-4.302-5.671-1.973-5.173-9.528-8.96-15.358-3.715-5.724-22.824-17.047-33.72-26.202-12.942-13.599-13.493-14.95-18.701-20.78s-9.724-10.346-13.901-16.14c-2.88-4-5.6-9.92-4.8-16.781 1.76-15.181 10.382-27.34 10.542-44.6.124-11.84.96-17.261-1.742-36.761-1.103-7.875-3.787-13.243-6.72-20.62-6.772-16.994-14.416-33.757-23.34-50.2a36.9 36.9 0 0 0-13.74-14.22c-6.24-3.68-13.813-6.738-20.78-10.222-3.52-1.76-5.156-5.795-4.48-9.28 1.35-6.914 11.145-7.412 22.7-12.78 14.025-6.542 20.229-10.328 28.14-17.26 9.794-8.604 18.54-14.56 28.12-23.82 6.685-6.453 12.426-10.524 17.741-21.1 2.987-5.938 5.066-10.844 6.72-17.741 2.4-10.08.213-18.878 1.76-24.3 1.848-6.47 9.19-7.608 10.22-12.46.96-4.48-4.443-9.76-1.92-16.301 1.547-4.018 11.804-9.333 19.181-15.821 5.92-5.209 5.12-6.453 10.879-12.639 11.003-11.821 11.786-10.097 23.642-23.5 4.96-5.581 8.48-10.665 9.92-17.74 1.866-9.19-2.4-17.42-5.6-24.762-1.031-2.4-2.88-3.84-5.902-4.96-2.56-.942-6.666.302-9.439-.8-4.8-1.92-7.661-3.377-12.141-6.879-5.528-4.302-7.893-8.16-8.16-11.501-.32-4.16 2.187-5.653 5.28-7.04 6.844-3.075 16.816-8.656 23.82-15.82 3.929-4.035 1.973-9.12 4.142-14.54 1.227-3.058 3.946-8.053 7.52-11.52 5.119-4.941 12.425-7.537 21.26-3.502 9.1 4.142 16.62 8.782 25.42 16.94 2.399 2.24 1.528 9.298 6.54 9.102 6.667-.266 3.271-4.622 10.24-7.981 10.967-5.315 25.864-5.902 36.92-3.04 5.173 1.28 11.2 4.337 16.461 3.52 6.826-1.067 9.332-6.773 9.901-9.44 1.333-6.079-.195-14.967 3.2-19.34 3.484-4.461 5.208-6.861 27.02-13.9 20.69-6.684 28.139-2.862 38.84-7.04 12.212-4.764 21.971-20.104 31.481-19.5 5.013.32 9.777 2.95 10.72 8.8 1.67 10.522-.89 20.904-.96 30.52-.16 21.58 6.079 33.668 10.38 38.361 8.515 9.261 17.581 14.79 27.98 19.66 7.822 3.68 14.061 7.218 24.922 7.36 20.55.266 36.139.16 51.8 3.68 10.114 2.257 20.53 4.852 29.081 10.7 6.56 4.48 10.15 8.729 16.46 12.622 11.68 7.199 20.088 10.523 29.74 9.119 7.608-1.12 18.38-8.195 26.522-15.021 6.879-5.76 13.19-14.54 22.06-16.46 13.278-2.88 19.802-1.192 28.62-4.8 7.803-3.2 11.75-3.271 13.9-1.28 5.51 5.102 1.458 10.861-2.4 13.74-8.941 6.72-24.086 18.914-28.441 19.981-10.524 2.595-8.515 11.43-6.169 13.74 5.458 5.405 13.688 1.512 14.754-2.434.783-2.951 3.04-4.8 7.502-8 5.12-3.662 10.452-6.488 20.14-9.9 4.23-1.494 7.04-3.005 18.398-4.32 8.195-.96 16.532-11.626 23.162-21.118 8.533-12.23.516-14.31 2.454-21.35 1.6-5.866 3.164-11.927 10.7-17.1 6.542-4.497 40.939 7.057 43.48 8.621 6.08 3.769 9.031 10.968 14.702 13.6 6.559 3.021 9.243 3.074 14.7 5.58 3.84 1.76 15.839 18.986 15.981 23.66.249 7.698-13.03 28.744-5.102 35.642 6.986 6.097 9.048 4.372 16.94 8.319 5.423 2.702 5.423 11.519 5.76 17.58.32 5.92.16 13.741-4.64 16.3-9.598 5.12-22.575-2.719-33.4.32-5.778 1.618-3.84 9.12-11.04 18.221-8.354 10.577-12.3 22.362-12.3 28.94 0 9.74.96 22.202.16 31.001-.427 4.728-3.111 10.026-7.36 12.141-7.039 3.52-13.67 2.897-19.5 7.04-6.24 4.426-9.901 9.314-15.66 15.66-5.6 6.168-6.56 9.866-10.08 17.42-3.021 6.56-5.581 9.28-9.1 13.44-3.13 3.679-7.965 5.456-11.982 8.14-3.84 2.56-7.324 6.773-13.759 8.48-17.456 4.586-33.952 12.07-50.661 13.26-11.004.783-14.701-12.94-25.58-12.78-4.55.053-8.888 2.506-12.78 5.261-6.631 4.693-13.297 7.857-12.8 13.44 1.618 17.74 34.7 16.62 43.48 30.36 2.88 4.498 7.129 10.897 6.4 21.74-.391 5.92-5.173 10.826-9.6 14.381-10.291 8.32-46.341 28.78-70.001 43L533.96 607.67c-21.42 13.439-55.408 33.508-64.58 40.44-22.042 16.657-41.08 48.067-46.093 55.23-3.111 4.445-13.706 11.929-14.879 15.342-1.369 3.946-.96 11.412-4.888 14.22-4.747 3.36-7.573 2.08-12.39 2.685-12.941 1.582-14.861 6.772-19.59 11.145Zm60.208-86.036"/>
</svg>
