<svg xmlns="http://www.w3.org/2000/svg" viewBox="0 0 3000 1572.9">
  <defs>
    <style>
      .cls-1{fill:#010101}.cls-2{fill:#ee302d}.cls-4{stroke-miterlimit:10}.cls-5{isolation:isolate}.cls-4,.cls-7{fill:#fff}.cls-4{stroke:#010101;stroke-width:5px}
    </style>
  </defs>
<!--Generator: Adobe Illustrator 28.7.1, SVG Export Plug-In . SVG Version: 1.2.0 Build 142)-->
  <g id="Layer_1">
    <g style="opacity:.6">
      <path d="m1530.9 670.4 929-166.6c3.6-.7 36.2-6.7 53.4-14.8 1.9-.9 3.6-1.7 5.3-2.4 13.8-6.3 22.8-10.8 45.1-29.9l-7.9-11c-6.6 5.7-16.7 9.8-24.1 14.4-23.1 14.4-48.3 22.1-74.9 26.9-1.8.3-929 166.6-929 166.6l3 16.8Zm500.6-569.2H2320l-82.6 59.7-4-7s12-5.8 12-17.8-10.8-18.4-17.9-18.4h-113.4c-5.8 0-11.8 1.5-15.3 6.5-2.2 3.2-3.1 7.5-2.3 11.3.4 1.8 1.3 4 3.1 4.8h-14.4l-37-30.7-16.6-8.4Z" style="fill:#c4c4c4"/>
    </g>
    <g class="cls-5">
      <path d="m176.5 1471.7-15.1-60.8h-.2l-14.9 60.8h-19.9l-23.6-89.2h19.6l14.1 60.8h.2l15.5-60.8h18.4l15.2 61.5h.2l14.6-61.5h19.2l-24 89.2h-19.5Zm45.3-44.8c.2-4.2 1.3-7.6 3.1-10.4s4.2-5 7-6.6q4.2-2.55 9.6-3.6c3.5-.7 7.1-1.1 10.7-1.1s6.5.2 9.9.7c3.3.5 6.4 1.4 9.1 2.7 2.8 1.3 5 3.2 6.8 5.6s2.6 5.5 2.6 9.4v33.6c0 2.9.2 5.7.5 8.4q.45 4.05 1.8 6h-18c-.3-1-.6-2-.8-3.1-.2-1-.4-2.1-.4-3.2-2.8 2.9-6.2 5-10 6.1-3.8 1.2-7.8 1.8-11.8 1.8s-6-.4-8.6-1.1c-2.7-.8-5-1.9-7-3.5s-3.6-3.6-4.7-6-1.7-5.3-1.7-8.6.6-6.7 1.9-9.1 3-4.3 5-5.7 4.4-2.5 7-3.2 5.3-1.3 7.9-1.7c2.7-.4 5.3-.8 7.9-1s4.9-.6 6.9-1.1 3.6-1.2 4.8-2.2 1.7-2.4 1.6-4.2c0-1.9-.3-3.4-.9-4.6s-1.5-2-2.5-2.6q-1.5-.9-3.6-1.2c-1.4-.2-2.9-.3-4.4-.3-3.5 0-6.2.8-8.2 2.2s-3.2 4-3.5 7.5H222Zm41 13.1c-.8.7-1.7 1.2-2.8 1.6s-2.3.7-3.6.9-2.6.5-4.1.6l-4.2.6c-1.3.2-2.6.6-3.9 1s-2.4 1-3.4 1.7-1.7 1.6-2.3 2.7-.9 2.5-.9 4.1.3 2.9.9 4 1.4 1.9 2.4 2.6 2.2 1.1 3.5 1.3 2.7.4 4.1.4q5.25 0 8.1-1.8t4.2-4.2c.9-1.6 1.5-3.3 1.7-4.9.2-1.7.3-3 .3-4zm67-33v11.9h-13v32q0 4.5 1.5 6c1.5 1.5 3 1.5 6 1.5s2 0 2.9-.1c.9 0 1.8-.2 2.6-.4v13.8c-1.5.2-3.2.4-5 .5-1.8 0-3.6.1-5.4.1q-4.2 0-7.8-.6c-2.5-.4-4.6-1.1-6.5-2.2s-3.4-2.6-4.4-4.6c-1.1-2-1.6-4.6-1.6-7.9v-38.1h-10.8V1407h10.8v-19.4h17.8v19.4h13Zm27.8-24.6v47.9l22.4-23.2h21l-24.4 23.8 27.1 40.9h-21.5l-17.8-28.9-6.9 6.6v22.2h-17.8v-89.2h17.8Zm52.9 14.6v-14.6h17.8v14.6zm17.8 10v64.6h-17.8V1407zm30.8 0v9h.4c2.2-3.8 5.2-6.5 8.8-8.2s7.2-2.6 11-2.6 8.6.6 11.7 1.9q4.5 1.95 7.2 5.4c1.8 2.3 3 5.1 3.7 8.4s1.1 6.9 1.1 10.9v39.8h-17.8v-36.5c0-5.3-.8-9.3-2.5-11.9s-4.6-3.9-8.9-3.9-8.3 1.4-10.5 4.3-3.2 7.6-3.2 14.2v33.9h-17.8v-64.6h16.9Zm72.2 48.6c.8 1.4 1.8 2.5 3.1 3.4s2.7 1.5 4.3 1.9q2.4.6 5.1.6c2.7 0 2.6-.1 3.9-.4 1.4-.3 2.6-.8 3.8-1.4s2.1-1.5 2.8-2.5c.8-1 1.1-2.4 1.1-3.9 0-2.7-1.8-4.7-5.3-6s-8.5-2.7-14.8-4c-2.6-.6-5.1-1.3-7.6-2.1s-4.6-1.8-6.6-3.1c-1.9-1.3-3.5-2.9-4.6-4.9q-1.8-3-1.8-7.2 0-6.3 2.4-10.2c1.6-2.7 3.8-4.8 6.4-6.3 2.7-1.5 5.7-2.6 9-3.2s6.8-.9 10.2-.9 6.9.3 10.2 1 6.2 1.8 8.8 3.4 4.7 3.7 6.4 6.3 2.7 5.9 3.1 9.9h-16.9q-.3-5.1-3.9-6.9c-2.3-1.2-5.1-1.8-8.2-1.8s-2.1 0-3.2.2c-1.2.1-2.2.4-3.2.8q-1.5.6-2.4 1.8c-.7.8-1 1.9-1 3.2s.6 2.9 1.8 3.9 2.7 1.8 4.6 2.4 4 1.2 6.4 1.7 4.9 1 7.4 1.6c2.6.6 5.1 1.3 7.6 2.1s4.6 1.9 6.6 3.3c1.9 1.4 3.5 3.1 4.6 5.1 1.2 2 1.8 4.6 1.8 7.6 0 4.2-.9 7.8-2.6 10.7s-3.9 5.2-6.7 6.9-5.9 3-9.4 3.7-7.1 1.1-10.8 1.1-7.4-.4-11-1.1c-3.6-.8-6.8-2-9.6-3.8q-4.2-2.7-6.9-6.9c-1.8-2.9-2.8-6.5-2.9-10.8h16.9c0 1.9.4 3.6 1.2 4.9ZM673 1471q-6.3 2.7-12.9 2.7c-6.8 0-13-1.2-18.4-3.6-5.5-2.4-10.1-5.6-13.8-9.8-3.8-4.2-6.6-9.1-8.6-14.7s-3-11.7-3-18.2 1-12.9 3-18.6 4.9-10.7 8.6-14.9 8.4-7.6 13.8-10c5.5-2.4 11.6-3.6 18.4-3.6s9 .7 13.3 2.1 8.2 3.4 11.6 6.1c3.5 2.7 6.3 6 8.6 9.9 2.2 3.9 3.6 8.4 4.1 13.5h-18.8c-1.2-5-3.4-8.8-6.8-11.2-3.3-2.5-7.4-3.8-12.1-3.8s-8.2.9-11.2 2.6q-4.65 2.55-7.5 6.9c-1.9 2.9-3.3 6.1-4.2 9.8s-1.3 7.5-1.3 11.4.4 7.4 1.3 10.9q1.35 5.25 4.2 9.6c1.9 2.8 4.4 5.1 7.5 6.8s6.8 2.6 11.2 2.6c6.5 0 11.5-1.6 15.1-4.9 3.5-3.3 5.6-8.1 6.2-14.3h-19.8v-14.6H699v48.2h-12.5l-2-10.1c-3.5 4.5-7.4 7.6-11.6 9.4Zm58.4-88.6v89.2h-17.8v-89.2zm33 73.8c2.7 2.6 6.5 3.9 11.5 3.9s6.7-.9 9.2-2.7q3.9-2.7 4.8-5.7h15.6c-2.5 7.8-6.3 13.3-11.5 16.6s-11.4 5-18.8 5-9.7-.8-13.8-2.4-7.5-3.9-10.4-6.9q-4.2-4.5-6.6-10.8c-1.5-4.2-2.3-8.8-2.3-13.8s.8-9.3 2.4-13.5 3.8-7.8 6.8-10.8c2.9-3 6.4-5.4 10.4-7.2s8.5-2.6 13.4-2.6 10.3 1.1 14.4 3.2 7.4 5 10.1 8.6c2.6 3.6 4.5 7.7 5.7 12.2q1.8 6.9 1.2 14.4h-46.6c.2 5.8 1.7 9.9 4.4 12.5Zm20-34c-2.1-2.3-5.4-3.5-9.7-3.5s-5.2.5-7.1 1.4c-1.9 1-3.4 2.1-4.5 3.6q-1.65 2.1-2.4 4.5c-.5 1.6-.7 3-.8 4.2h28.9c-.8-4.5-2.3-7.9-4.4-10.2M834 1407v9h.4c2.2-3.8 5.2-6.5 8.8-8.2s7.2-2.6 11-2.6 8.6.6 11.7 1.9q4.5 1.95 7.2 5.4c1.8 2.3 3 5.1 3.7 8.4s1.1 6.9 1.1 10.9v39.8h-17.8v-36.5c0-5.3-.8-9.3-2.5-11.9s-4.6-3.9-8.9-3.9-8.3 1.4-10.5 4.3-3.2 7.6-3.2 14.2v33.9h-17.8v-64.6h16.9Zm113.5-24.6v89.2h-19.6v-89.2zm32.3 24.6v9h.4c2.2-3.8 5.2-6.5 8.8-8.2s7.2-2.6 11-2.6 8.6.6 11.7 1.9q4.5 1.95 7.2 5.4c1.8 2.3 3 5.1 3.7 8.4s1.1 6.9 1.1 10.9v39.8h-17.8v-36.5c0-5.3-.8-9.3-2.5-11.9s-4.6-3.9-8.9-3.9-8.3 1.4-10.5 4.3-3.2 7.6-3.2 14.2v33.9H963v-64.6h16.9Zm92.7 0v11.9h-13v32q0 4.5 1.5 6c1.5 1.5 3 1.5 6 1.5s2 0 2.9-.1c.9 0 1.8-.2 2.6-.4v13.8c-1.5.2-3.2.4-5 .5-1.8 0-3.6.1-5.4.1q-4.2 0-7.8-.6c-2.5-.4-4.6-1.1-6.5-2.2s-3.4-2.6-4.4-4.6c-1.1-2-1.6-4.6-1.6-7.9v-38.1H1031V1407h10.8v-19.4h17.8v19.4h13Zm27.5 49.2c2.7 2.6 6.5 3.9 11.5 3.9s6.7-.9 9.2-2.7q3.9-2.7 4.8-5.7h15.6c-2.5 7.8-6.3 13.3-11.5 16.6s-11.4 5-18.8 5-9.7-.8-13.8-2.4-7.5-3.9-10.4-6.9q-4.2-4.5-6.6-10.8c-1.5-4.2-2.3-8.8-2.3-13.8s.8-9.3 2.4-13.5 3.8-7.8 6.8-10.8c2.9-3 6.4-5.4 10.4-7.2s8.5-2.6 13.4-2.6 10.3 1.1 14.4 3.2 7.4 5 10.1 8.6c2.6 3.6 4.5 7.7 5.7 12.2q1.8 6.9 1.2 14.4h-46.6c.2 5.8 1.7 9.9 4.4 12.5Zm20.1-34c-2.1-2.3-5.4-3.5-9.7-3.5s-5.2.5-7.1 1.4c-1.9 1-3.4 2.1-4.5 3.6q-1.65 2.1-2.4 4.5c-.5 1.6-.7 3-.8 4.2h28.9c-.8-4.5-2.3-7.9-4.4-10.2m49.5-15.2v12h.2c.8-2 2-3.9 3.4-5.6s3-3.2 4.9-4.4c1.8-1.2 3.8-2.1 5.9-2.8s4.2-1 6.5-1 2.5.2 3.9.6v16.5c-.8-.2-1.8-.3-3-.4s-2.3-.2-3.4-.2c-3.2 0-6 .5-8.2 1.6s-4.1 2.6-5.4 4.4-2.4 4.1-2.9 6.6q-.9 3.75-.9 8.1v29.1h-17.8v-64.6h16.9Zm50.9 0v9h.4c2.2-3.8 5.2-6.5 8.8-8.2s7.2-2.6 11-2.6 8.6.6 11.7 1.9q4.5 1.95 7.2 5.4c1.8 2.3 3 5.1 3.7 8.4s1.1 6.9 1.1 10.9v39.8h-17.8v-36.5c0-5.3-.8-9.3-2.5-11.9s-4.6-3.9-8.9-3.9-8.3 1.4-10.5 4.3-3.2 7.6-3.2 14.2v33.9h-17.8v-64.6h16.9Zm56.5 19.9c.2-4.2 1.3-7.6 3.1-10.4s4.2-5 7-6.6q4.2-2.55 9.6-3.6c3.5-.7 7.1-1.1 10.7-1.1s6.5.2 9.9.7c3.3.5 6.4 1.4 9.1 2.7 2.8 1.3 5 3.2 6.8 5.6s2.6 5.5 2.6 9.4v33.6c0 2.9.2 5.7.5 8.4q.45 4.05 1.8 6h-18c-.3-1-.6-2-.8-3.1-.2-1-.4-2.1-.4-3.2-2.8 2.9-6.2 5-10 6.1-3.8 1.2-7.8 1.8-11.8 1.8s-6-.4-8.6-1.1c-2.7-.8-5-1.9-7-3.5s-3.6-3.6-4.7-6-1.7-5.3-1.7-8.6.6-6.7 1.9-9.1 3-4.3 5-5.7 4.4-2.5 7-3.2 5.3-1.3 7.9-1.7c2.7-.4 5.3-.8 7.9-1s4.9-.6 6.9-1.1 3.6-1.2 4.8-2.2 1.7-2.4 1.6-4.2c0-1.9-.3-3.4-.9-4.6s-1.5-2-2.5-2.6q-1.5-.9-3.6-1.2c-1.4-.2-2.9-.3-4.4-.3-3.5 0-6.2.8-8.2 2.2s-3.2 4-3.5 7.5h-17.8Zm41 13.1c-.8.7-1.7 1.2-2.8 1.6s-2.3.7-3.6.9-2.6.5-4.1.6l-4.2.6c-1.3.2-2.6.6-3.9 1s-2.4 1-3.4 1.7-1.7 1.6-2.3 2.7-.9 2.5-.9 4.1.3 2.9.9 4 1.4 1.9 2.4 2.6 2.2 1.1 3.5 1.3 2.7.4 4.1.4q5.25 0 8.1-1.8t4.2-4.2c.9-1.6 1.5-3.3 1.7-4.9.2-1.7.3-3 .3-4zm67-33v11.9h-13v32q0 4.5 1.5 6c1.5 1.5 3 1.5 6 1.5s2 0 2.9-.1c.9 0 1.8-.2 2.6-.4v13.8c-1.5.2-3.2.4-5 .5-1.8 0-3.6.1-5.4.1q-4.2 0-7.8-.6c-2.5-.4-4.6-1.1-6.5-2.2s-3.4-2.6-4.4-4.6c-1.1-2-1.6-4.6-1.6-7.9v-38.1h-10.8V1407h10.8v-19.4h17.8v19.4h13Zm9-10v-14.6h17.8v14.6zm17.8 10v64.6H1394V1407zm14.3 18.3c1.6-4.2 3.8-7.8 6.8-10.8 2.9-3 6.4-5.2 10.5-6.9q6.15-2.4 13.8-2.4c7.65 0 9.7.8 13.8 2.4s7.6 3.9 10.6 6.9c2.9 3 5.2 6.5 6.8 10.8q2.4 6.3 2.4 14.1c0 7.8-.8 9.8-2.4 14s-3.8 7.7-6.8 10.7c-2.9 3-6.4 5.2-10.6 6.8s-8.7 2.4-13.8 2.4-9.7-.8-13.8-2.4-7.6-3.9-10.5-6.8c-2.9-3-5.2-6.5-6.8-10.7s-2.4-8.8-2.4-14 .8-9.9 2.4-14.1m16.1 21.7c.5 2.5 1.4 4.7 2.6 6.6 1.2 2 2.8 3.5 4.8 4.7q3 1.8 7.5 1.8c4.5 0 5.5-.6 7.6-1.8 2-1.2 3.7-2.7 4.9-4.7s2.1-4.2 2.6-6.6c.5-2.5.8-5 .8-7.6s-.2-5.1-.8-7.6-1.4-4.7-2.6-6.6-2.8-3.5-4.9-4.7c-2-1.2-4.6-1.8-7.6-1.8s-5.5.6-7.5 1.8-3.6 2.8-4.8 4.7-2.1 4.1-2.6 6.6-.8 5-.8 7.6.2 5.1.8 7.6m76.8-40v9h.4c2.2-3.8 5.2-6.5 8.8-8.2s7.2-2.6 11-2.6 8.6.6 11.7 1.9q4.5 1.95 7.2 5.4c1.8 2.3 3 5.1 3.7 8.4s1.1 6.9 1.1 10.9v39.8h-17.8v-36.5c0-5.3-.8-9.3-2.5-11.9s-4.6-3.9-8.9-3.9-8.3 1.4-10.5 4.3-3.2 7.6-3.2 14.2v33.9h-17.8v-64.6h16.9Zm56.5 19.9c.2-4.2 1.3-7.6 3.1-10.4s4.2-5 7-6.6q4.2-2.55 9.6-3.6c3.5-.7 7.1-1.1 10.7-1.1s6.5.2 9.9.7c3.3.5 6.4 1.4 9.1 2.7 2.8 1.3 5 3.2 6.8 5.6s2.6 5.5 2.6 9.4v33.6c0 2.9.2 5.7.5 8.4q.45 4.05 1.8 6h-18c-.3-1-.6-2-.8-3.1-.2-1-.4-2.1-.4-3.2-2.8 2.9-6.2 5-10 6.1-3.8 1.2-7.8 1.8-11.8 1.8s-6-.4-8.6-1.1c-2.7-.8-5-1.9-7-3.5s-3.6-3.6-4.7-6-1.7-5.3-1.7-8.6.6-6.7 1.9-9.1 3-4.3 5-5.7 4.4-2.5 7-3.2 5.3-1.3 7.9-1.7c2.7-.4 5.3-.8 7.9-1s4.9-.6 6.9-1.1 3.6-1.2 4.8-2.2 1.7-2.4 1.6-4.2c0-1.9-.3-3.4-.9-4.6s-1.5-2-2.5-2.6q-1.5-.9-3.6-1.2c-1.4-.2-2.9-.3-4.4-.3-3.5 0-6.2.8-8.2 2.2s-3.2 4-3.5 7.5h-17.8Zm41 13.1c-.8.7-1.7 1.2-2.8 1.6s-2.3.7-3.6.9-2.6.5-4.1.6l-4.2.6c-1.3.2-2.6.6-3.9 1s-2.4 1-3.4 1.7-1.7 1.6-2.3 2.7-.9 2.5-.9 4.1.3 2.9.9 4 1.4 1.9 2.4 2.6 2.2 1.1 3.5 1.3 2.7.4 4.1.4q5.25 0 8.1-1.8t4.2-4.2c.9-1.6 1.5-3.3 1.7-4.9.2-1.7.3-3 .3-4zm49.7-57.6v89.2h-17.8v-89.2zm69.5 25.4c-2.2 9.5-3.2 19.2-3.2 29.1s1.1 19.8 3.2 29.4 5.6 18.9 10.3 28h-14.8c-5.2-8.6-9.3-17.6-12.2-27.1s-4.3-19.2-4.3-29 .4-9.6 1.1-14.7 1.8-10.2 3.1-15.3c1.4-5.1 3.1-10 5.1-14.8s4.4-9.1 7.2-13.1h14.9c-4.8 8.8-8.2 18-10.4 27.6Zm37.8-25.4v72.8h43.5v16.5h-63.1v-89.2h19.6Zm53 42.9c1.6-4.2 3.8-7.8 6.8-10.8 2.9-3 6.4-5.2 10.5-6.9q6.15-2.4 13.8-2.4c7.65 0 9.7.8 13.8 2.4s7.6 3.9 10.6 6.9c2.9 3 5.2 6.5 6.8 10.8q2.4 6.3 2.4 14.1c0 7.8-.8 9.8-2.4 14s-3.8 7.7-6.8 10.7c-2.9 3-6.4 5.2-10.6 6.8s-8.7 2.4-13.8 2.4-9.7-.8-13.8-2.4-7.6-3.9-10.5-6.8c-2.9-3-5.2-6.5-6.8-10.7s-2.4-8.8-2.4-14 .8-9.9 2.4-14.1m16.1 21.7c.5 2.5 1.4 4.7 2.6 6.6 1.2 2 2.8 3.5 4.8 4.7q3 1.8 7.5 1.8c4.5 0 5.5-.6 7.6-1.8 2-1.2 3.7-2.7 4.9-4.7s2.1-4.2 2.6-6.6c.5-2.5.8-5 .8-7.6s-.2-5.1-.8-7.6-1.4-4.7-2.6-6.6-2.8-3.5-4.9-4.7c-2-1.2-4.6-1.8-7.6-1.8s-5.5.6-7.5 1.8-3.6 2.8-4.8 4.7-2.1 4.1-2.6 6.6-.8 5-.8 7.6.2 5.1.8 7.6m76.8-40v9h.4c2.2-3.8 5.2-6.5 8.8-8.2s7.2-2.6 11-2.6 8.6.6 11.7 1.9q4.5 1.95 7.2 5.4c1.8 2.3 3 5.1 3.7 8.4s1.1 6.9 1.1 10.9v39.8h-17.8v-36.5c0-5.3-.8-9.3-2.5-11.9s-4.6-3.9-8.9-3.9-8.3 1.4-10.5 4.3-3.2 7.6-3.2 14.2v33.9h-17.8v-64.6h16.9Zm118.3 69.4c-.7 3.3-2.2 6.4-4.6 9.3-2.3 2.9-5.7 5.3-10.1 7.3s-10.3 3-17.8 3-6.4-.4-9.7-1.2-6.3-2-9-3.7-5-3.8-6.8-6.4-2.8-5.8-3.1-9.4h17.6c.8 3.3 2.5 5.6 4.9 6.9s5.2 1.9 8.4 1.9c5 0 8.6-1.5 10.9-4.5q3.45-4.5 3.3-11.4v-8.5h-.2c-1.9 3.4-4.6 5.9-8.2 7.6-3.5 1.6-7.3 2.4-11.2 2.4s-9-.9-12.5-2.6-6.4-4-8.6-7-3.9-6.4-4.9-10.4-1.6-8.1-1.6-12.6.6-8.2 1.8-12.1 3-7.3 5.3-10.2c2.3-3 5.2-5.3 8.7-7.1s7.4-2.6 11.9-2.6 8 .8 11.2 2.4 5.9 4.2 8.1 8h.2v-8.6h16.9v60.5c0 2.6-.4 5.5-1.1 8.9Zm-24.3-21.5c1.9-1 3.5-2.3 4.8-4 1.2-1.7 2.2-3.6 2.8-5.7s.9-4.4.9-6.7-.2-5.2-.8-7.6-1.3-4.5-2.5-6.3-2.7-3.3-4.6-4.4-4.3-1.6-7.2-1.6-4.6.5-6.4 1.5-3.3 2.4-4.5 4.1-2.1 3.7-2.6 5.9-.8 4.5-.8 6.9.2 4.6.7 6.9 1.2 4.4 2.4 6.2c1.1 1.8 2.6 3.3 4.4 4.5q2.7 1.8 6.9 1.8c4.2 0 4.7-.5 6.6-1.5Zm133.5-48.7c-1.2-1.9-2.6-3.5-4.4-4.9s-3.7-2.5-5.9-3.3q-3.3-1.2-6.9-1.2c-4.4 0-8.2.9-11.2 2.6q-4.65 2.55-7.5 6.9c-1.9 2.9-3.3 6.1-4.2 9.8s-1.3 7.5-1.3 11.4.4 7.4 1.3 10.9q1.35 5.25 4.2 9.6c1.9 2.8 4.4 5.1 7.5 6.8s6.8 2.6 11.2 2.6 10.7-1.8 14.1-5.5 5.4-8.5 6.2-14.5h19c-.5 5.6-1.8 10.6-3.9 15.1s-4.8 8.3-8.2 11.5q-5.1 4.8-12 7.2c-4.6 1.7-9.6 2.5-15.1 2.5s-13-1.2-18.4-3.6c-5.5-2.4-10.1-5.6-13.8-9.8-3.8-4.2-6.6-9.1-8.6-14.7s-3-11.7-3-18.2 1-12.9 3-18.6 4.9-10.7 8.6-14.9 8.4-7.6 13.8-10c5.5-2.4 11.6-3.6 18.4-3.6s9.6.7 13.9 2.1c4.4 1.4 8.3 3.5 11.8 6.2s6.3 6.1 8.6 10.1 3.7 8.6 4.2 13.8h-19c-.3-2.2-1.1-4.3-2.2-6.2Zm34-9.2v-14.6h17.8v14.6zm17.7 10v64.6h-17.8V1407zm30.9 0v12h.2c.8-2 2-3.9 3.4-5.6s3-3.2 4.9-4.4c1.8-1.2 3.8-2.1 5.9-2.8s4.2-1 6.5-1 2.5.2 3.9.6v16.5c-.8-.2-1.8-.3-3-.4s-2.3-.2-3.4-.2c-3.2 0-6 .5-8.2 1.6s-4.1 2.6-5.4 4.4-2.4 4.1-2.9 6.6q-.9 3.75-.9 8.1v29.1h-17.8v-64.6h16.9Zm60.4 11.7c-2.8 0-5.2.6-7.1 1.9s-3.5 3-4.7 5-2.1 4.3-2.6 6.8-.8 4.9-.8 7.3.2 4.7.8 7.1q.75 3.6 2.4 6.6c1.1 2 2.6 3.6 4.6 4.8 1.9 1.2 4.2 1.9 7 1.9 4.2 0 7.5-1.2 9.8-3.6s3.7-5.6 4.3-9.6h17.1c-1.2 8.6-4.5 15.1-10 19.6s-12.5 6.8-21.1 6.8-9.3-.8-13.3-2.4-7.5-3.9-10.3-6.8-5-6.4-6.6-10.4-2.4-8.5-2.4-13.3.7-9.6 2.2-13.9 3.6-8 6.4-11.1 6.3-5.6 10.4-7.3c4.1-1.8 8.8-2.6 14-2.6s7.5.5 11.1 1.5c3.5 1 6.7 2.5 9.5 4.6 2.8 2 5.1 4.6 6.8 7.6q2.7 4.5 3 10.8H2303c-1.2-7.4-5.5-11.1-13.1-11.1Zm84.6 53v-9h-.4c-2.2 3.8-5.2 6.5-8.8 8.1-3.6 1.7-7.2 2.5-11 2.5s-8.6-.6-11.7-1.9c-3-1.2-5.4-3-7.2-5.3s-3-5.1-3.7-8.4-1.1-6.9-1.1-10.9V1407h17.8v36.5c0 5.3.8 9.3 2.5 11.9s4.6 3.9 8.9 3.9 8.3-1.4 10.5-4.3 3.2-7.6 3.2-14.2v-33.9h17.8v64.6h-16.9Zm30.9-74.7v-14.6h17.8v14.6zm17.7 10v64.6h-17.8V1407zm49.5 0v11.9h-13v32q0 4.5 1.5 6c1.5 1.5 3 1.5 6 1.5s2 0 2.9-.1c.9 0 1.8-.2 2.6-.4v13.8c-1.5.2-3.2.4-5 .5-1.8 0-3.6.1-5.4.1q-4.2 0-7.8-.6c-2.5-.4-4.6-1.1-6.5-2.2s-3.4-2.6-4.4-4.6c-1.1-2-1.6-4.6-1.6-7.9v-38.1h-10.8V1407h10.8v-19.4h17.8v19.4h13Zm11.2 59.8c2.2-9.5 3.3-19.1 3.3-28.9s-1.1-19.8-3.2-29.5c-2.2-9.7-5.5-19-10.1-28.1h14.6c5.2 8.6 9.3 17.7 12.2 27.2 2.9 9.6 4.3 19.3 4.3 29.1s-.3 9.6-1 14.7-1.7 10.2-3.1 15.2-3.1 9.9-5.2 14.7-4.5 9.1-7.2 13h-14.8c4.6-8.8 8-18 10.2-27.4" class="cls-5"/>
    </g>
    <circle cx="233" cy="990.7" r="41.3" class="cls-4" transform="rotate(-80.8 232.773 990.6)"/>
    <g class="cls-5">
      <path d="M233.1 1007.2v-21.9h-8.5v-5.2c1.2 0 2.3 0 3.5-.3 1.1-.2 2.1-.6 3-1.1s1.6-1.2 2.2-2.1 1-1.9 1.2-3.2h5.5v33.8z" class="cls-5"/>
    </g>
    <circle cx="255.4" cy="458.4" r="41.2" class="cls-4"/>
    <g class="cls-5">
      <path d="M245.3 448.7c.5-1.7 1.3-3.1 2.3-4.3s2.3-2.2 3.9-2.9 3.4-1 5.4-1 3 .2 4.4.7 2.6 1.2 3.7 2.1 1.9 2 2.5 3.3.9 2.8.9 4.4-.3 3.2-.8 4.4-1.3 2.3-2.2 3.3c-.9.9-1.9 1.8-3.1 2.6-1.1.8-2.3 1.5-3.5 2.3s-2.3 1.6-3.4 2.4c-1.1.9-2.1 1.9-2.9 3h16v5.9h-24.8c0-2 .3-3.7.8-5.1.6-1.4 1.3-2.7 2.3-3.9 1-1.1 2.1-2.2 3.4-3.2s2.7-1.9 4.1-2.9c.7-.5 1.5-1 2.4-1.6.8-.5 1.6-1.1 2.3-1.8.7-.6 1.3-1.4 1.7-2.2.5-.8.7-1.7.7-2.8 0-1.6-.5-2.9-1.4-3.8s-2.2-1.4-3.6-1.4-1.8.2-2.5.7-1.2 1.1-1.7 1.8c-.4.8-.7 1.6-.9 2.5q-.3 1.35-.3 2.7h-6.6c0-1.9.2-3.7.7-5.4Z" class="cls-5"/>
    </g>
    <circle cx="716.9" cy="474.9" r="41.2" class="cls-4"/>
    <g class="cls-5">
      <path d="M717.5 471.3c.8 0 1.6-.2 2.3-.6.7-.3 1.3-.7 1.8-1.3s.7-1.4.7-2.3c0-1.4-.5-2.6-1.4-3.3q-1.5-1.2-3.3-1.2c-1.8 0-3 .6-3.9 1.7s-1.3 2.6-1.3 4.3h-6.5c0-1.7.4-3.3.9-4.8.6-1.4 1.4-2.7 2.4-3.7q1.5-1.5 3.6-2.4c1.4-.6 3-.8 4.7-.8s2.7.2 4.1.6q2.1.6 3.6 1.8c1.1.8 2 1.8 2.6 2.9.7 1.2 1 2.5 1 4s-.4 3.1-1.2 4.3c-.8 1.3-2 2.1-3.5 2.6 1.9.5 3.3 1.4 4.4 2.8s1.6 3 1.6 5-.3 3.3-1 4.7-1.6 2.5-2.8 3.5-2.5 1.6-4 2.1-3.1.7-4.7.7-3.6-.3-5.2-.8-2.9-1.3-4-2.4c-1.1-1-1.9-2.3-2.5-3.8s-.9-3.3-.8-5.2h6.5c0 .9.2 1.8.4 2.6.3.8.6 1.5 1.1 2.1s1.1 1.1 1.8 1.4c.7.4 1.6.5 2.6.5 1.5 0 2.8-.5 3.9-1.4s1.6-2.2 1.6-3.9-.2-2.3-.7-2.9c-.5-.7-1.1-1.2-1.9-1.5s-1.6-.5-2.5-.5h-2.6v-4.8h2.4Z" class="cls-5"/>
    </g>
    <circle cx="1091.9" cy="212.2" r="41.2" class="cls-4"/>
    <g class="cls-5">
      <path d="M1079.3 220.9v-6.3l14.7-19.7h6.1v20.3h4.5v5.6h-4.5v7.8h-6.5v-7.8h-14.3Zm14.1-17.4-8.7 11.7h8.9v-11.7h-.1Z" class="cls-5"/>
    </g>
    <circle cx="2716.1" cy="297.5" r="41.2" class="cls-4"/>
    <g class="cls-5">
      <path d="m2713.4 285.9-1.4 7.7c.9-.8 1.9-1.5 3-1.9q1.65-.6 3.6-.6c1.95 0 3.2.3 4.4.9 1.3.6 2.4 1.4 3.3 2.5.9 1 1.6 2.2 2 3.6.5 1.4.7 2.9.7 4.5s-.3 3.4-1 4.9q-1.05 2.25-2.7 3.9c-1.1 1.1-2.5 1.9-4 2.5s-3.1.9-4.8.8c-1.6 0-3.2-.2-4.7-.7s-2.8-1.1-4-2-2.1-2-2.8-3.4c-.7-1.3-1.1-2.9-1.1-4.7h6.9c.2 1.5.7 2.8 1.7 3.7s2.3 1.4 3.8 1.4 1.7-.2 2.4-.6 1.3-.9 1.8-1.4q.75-.9 1.2-2.1c.3-.8.4-1.6.4-2.4s-.1-1.7-.4-2.5-.6-1.4-1.2-2c-.5-.6-1.1-1-1.8-1.4-.7-.3-1.5-.5-2.5-.5s-2.2.2-3 .7c-.8.4-1.5 1.1-2.2 2.1h-6.2l3.3-18.7h18.9v5.6h-14Z" class="cls-5"/>
    </g>
    <circle cx="2270.8" cy="800.2" r="41.2" class="cls-4"/>
    <g class="cls-5">
      <path d="M2275.1 788.6c-.8-.8-1.8-1.3-3-1.3s-2.2.4-3.1 1.1c-.8.7-1.5 1.6-2 2.7-.5 1-.8 2.2-1.1 3.4-.2 1.2-.4 2.3-.4 3.2.9-1.3 2-2.2 3.3-2.8s2.7-.9 4.3-.9 2.9.3 4.2.9 2.6 1.5 3.5 2.5 1.6 2.2 2 3.5.6 2.7.6 4-.3 3.4-.8 4.9q-.9 2.25-2.4 3.9c-1 1.1-2.3 2-3.7 2.6s-3.1.9-4.8.9c-2.5 0-4.7-.5-6.3-1.5-1.7-1-3-2.3-4-4-1-1.6-1.7-3.5-2.1-5.6q-.6-3.15-.6-6.3c0-3.15.2-4.2.7-6.3s1.3-4 2.3-5.7c1.1-1.7 2.4-3.1 4.1-4.1 1.7-1.1 3.7-1.6 6.1-1.6s2.8.2 4.1.6q1.95.6 3.3 1.8c1 .8 1.8 1.8 2.4 2.9.6 1.2 1 2.5 1.2 4h-6.5c-.2-1.1-.7-2.1-1.5-2.9Zm-5.8 11c-.7.3-1.3.8-1.7 1.4s-.8 1.2-1 2q-.3 1.2-.3 2.4c0 1.2.1 1.5.4 2.3.2.8.6 1.4 1.1 2s1 1.1 1.7 1.4c.7.4 1.4.5 2.3.5s1.6-.2 2.2-.5c.6-.4 1.2-.8 1.6-1.4.5-.6.8-1.2 1-2 .2-.7.3-1.5.3-2.3s-.1-1.6-.3-2.3c-.2-.8-.5-1.4-.9-2s-1-1.1-1.6-1.4c-.7-.4-1.4-.6-2.3-.6s-1.7.2-2.4.5Z" class="cls-5"/>
    </g>
    <circle cx="2804.4" cy="1003" r="41.2" class="cls-4"/>
    <g class="cls-5">
      <path d="M2812.6 997.3c-1.4 2.3-2.5 4.7-3.4 7.2s-1.6 5.1-2.1 7.7-.8 5-.8 7.3h-7.3c.4-5.1 1.6-9.9 3.5-14.6 2-4.7 4.6-8.9 7.8-12.8h-16v-6.4h23.1v5.9c-1.8 1.5-3.3 3.4-4.7 5.7Z" class="cls-5"/>
    </g>
    <circle cx="1936.8" cy="1070.4" r="41.2" class="cls-4"/>
    <g class="cls-5">
      <path d="M1927.8 1057.7c.7-1.2 1.6-2.1 2.6-2.9 1.1-.8 2.3-1.4 3.6-1.7 1.4-.4 2.7-.6 4.1-.6 2.1 0 3.9.3 5.3 1 1.4.6 2.6 1.4 3.5 2.3s1.5 1.9 1.9 2.9.6 2 .6 2.8c0 1.7-.4 3.1-1.2 4.4s-2.1 2.2-3.7 2.7c2 .5 3.6 1.5 4.7 3s1.6 3.3 1.6 5.4-.4 3.4-1.1 4.7-1.7 2.4-2.9 3.3-2.5 1.5-4.1 2c-1.5.4-3.1.7-4.6.7s-3.2-.2-4.8-.6c-1.5-.4-2.9-1-4.1-1.9s-2.2-2-2.9-3.3-1.1-2.9-1.1-4.7.6-4 1.7-5.4 2.7-2.4 4.7-2.9c-1.6-.5-2.9-1.4-3.7-2.7s-1.3-2.7-1.3-4.4.3-2.8 1-4Zm4.9 21.4c.3.7.7 1.3 1.3 1.8.5.5 1.2.9 1.9 1.2s1.5.4 2.3.4 1.6-.1 2.3-.4q1.05-.45 1.8-1.2t1.2-1.8c.3-.7.4-1.5.4-2.3s-.2-1.5-.5-2.2-.7-1.2-1.3-1.7-1.1-.9-1.8-1.1-1.4-.4-2.2-.4c-1.7 0-3.1.5-4.2 1.4-1.2.9-1.7 2.2-1.7 4s.2 1.7.5 2.4Zm1.9-13.5c1 .8 2.2 1.1 3.6 1.1s2.7-.4 3.6-1.1 1.4-1.9 1.4-3.3 0-.9-.2-1.5c-.1-.5-.4-1-.7-1.5q-.6-.75-1.5-1.2c-.7-.3-1.5-.5-2.6-.5s-1.3.1-2 .3c-.6.2-1.2.5-1.7.9s-.9.9-1.1 1.4c-.3.6-.4 1.3-.4 2 0 1.4.5 2.6 1.5 3.3Z" class="cls-5"/>
    </g>
    <circle cx="1946.8" cy="676.2" r="41.2" class="cls-4"/>
    <g class="cls-5">
      <path d="M1944.5 687c.8.8 1.8 1.3 3 1.3s2.3-.4 3.1-1.1 1.4-1.6 1.9-2.7c.5-1 .8-2.2 1-3.4s.3-2.3.4-3.2c-.9 1.3-2 2.2-3.3 2.8s-2.7.9-4.3.9-2.9-.3-4.2-.9c-1.4-.6-2.6-1.5-3.5-2.5s-1.6-2.2-2-3.5-.6-2.7-.6-4 .3-3.4.8-4.9q.9-2.25 2.4-3.9c1.5-1.65 2.3-2 3.7-2.6s3.1-1 4.8-1q3.9 0 6.3 1.5c1.7 1 3 2.3 4 4s1.7 3.5 2.1 5.6q.6 3.15.6 6.3c0 3.15-.2 4.2-.7 6.3s-1.3 4-2.3 5.7c-1.1 1.7-2.4 3.1-4.1 4.1s-3.7 1.6-6.1 1.6-2.8-.2-4.1-.6q-1.95-.6-3.3-1.8c-1-.8-1.8-1.8-2.4-2.9s-1-2.5-1.2-4h6.5c.2 1.1.7 2.1 1.5 2.9m5.8-11.1c.7-.3 1.2-.8 1.7-1.4s.8-1.2 1-2q.3-1.2.3-2.4c0-1.2-.1-1.5-.4-2.3-.2-.8-.6-1.4-1.1-2s-1-1.1-1.7-1.4c-.7-.4-1.4-.5-2.3-.5s-1.5.2-2.2.5c-.6.4-1.2.8-1.6 1.4-.5.6-.8 1.2-1 2s-.3 1.5-.3 2.3.1 1.6.3 2.3c.2.8.5 1.4.9 2s1 1.1 1.6 1.4c.7.4 1.4.6 2.3.6s1.7-.2 2.4-.5Z" class="cls-5"/>
    </g>
    <circle cx="1241.9" cy="1128.5" r="41.2" class="cls-4"/>
    <g class="cls-5">
      <path d="M1229.1 1145v-21.9h-8.5v-5.2c1.2 0 2.3 0 3.5-.3 1.1-.2 2.1-.6 3-1.1s1.6-1.2 2.2-2.1 1-1.9 1.2-3.2h5.5v33.8zm22.9 0v-21.9h-8.5v-5.2c1.2 0 2.3 0 3.5-.3 1.1-.2 2.1-.6 3-1.1s1.6-1.2 2.2-2.1 1-1.9 1.2-3.2h5.5v33.8z" class="cls-5"/>
    </g>
    <circle cx="1472" cy="767.2" r="41.2" class="cls-4"/>
    <g class="cls-5">
      <path d="M1456.8 783.7v-21.9h-8.5v-5.2c1.2 0 2.3 0 3.5-.3 1.1-.2 2.1-.6 3-1.1s1.6-1.2 2.2-2.1 1-1.9 1.2-3.2h5.5v33.8zm14.8-25.3q1.05-3.3 2.7-5.4c1.1-1.4 2.4-2.3 3.9-2.9q2.25-.9 4.8-.9c2.55 0 3.3.3 4.8.9s2.8 1.5 4 2.9c1.1 1.4 2 3.1 2.7 5.4.7 2.2 1 5 1 8.3s-.3 6.2-1 8.5q-1.05 3.45-2.7 5.4c-1.1 1.4-2.5 2.3-4 2.9q-2.25.9-4.8.9c-2.55 0-3.3-.3-4.8-.9s-2.8-1.5-3.9-2.9q-1.65-2.1-2.7-5.4c-.7-2.3-1-5.1-1-8.5s.3-6 1-8.3m6 11.8c0 1.4.3 2.7.6 4s.9 2.4 1.6 3.3 1.8 1.4 3.2 1.4 2.5-.5 3.3-1.4 1.3-2 1.6-3.3.5-2.6.6-4v-5.6c0-.8 0-1.7-.2-2.5-.1-.9-.3-1.7-.5-2.6s-.5-1.6-.9-2.3-.9-1.2-1.6-1.6q-.9-.6-2.4-.6c-1.5 0-1.7.2-2.3.6s-1.1 1-1.5 1.6c-.4.7-.7 1.4-.9 2.3s-.4 1.7-.5 2.6c0 .9-.2 1.7-.2 2.5v5.6Z" class="cls-5"/>
    </g>
    <path d="M1076.4 1062.2q4.05 0 6.9 1.2c2.85 1.2 3.4 1.8 4.6 3.1s2.1 2.8 2.6 4.4c.6 1.7.8 3.4.8 5.2s-.3 3.4-.8 5.1c-.6 1.7-1.4 3.2-2.6 4.5s-2.7 2.3-4.6 3.1q-2.85 1.2-6.9 1.2h-10v15.5h-9.5v-43.3zm-2.6 20.4c1.1 0 2.1 0 3.2-.2q1.5-.3 2.7-.9c.8-.5 1.4-1.1 1.8-2s.7-2 .7-3.3-.2-2.5-.7-3.3-1.1-1.5-1.8-2-1.7-.8-2.7-.9c-1-.2-2.1-.2-3.2-.2h-7.4v13h7.4Zm33-20.4v43.3h-9.5v-43.3zm5 8.1v-8h35.5v8h-13v35.3h-9.5v-35.3zM1072 1139l58.2-16.2-15.8 21.1 10.5 24.3z"/>
    <g class="cls-5">
      <path d="M2127.5 203.3v34.5h-7.6v-34.5zm12.4 9.5v3.5h.1c.9-1.4 2-2.5 3.4-3.2s2.8-1 4.2-1 3.3.2 4.5.7 2.1 1.2 2.8 2.1 1.2 2 1.4 3.2.4 2.7.4 4.2v15.4h-6.9v-14.1c0-2.1-.3-3.6-1-4.6-.6-1-1.8-1.5-3.4-1.5s-3.2.6-4.1 1.7-1.3 2.9-1.3 5.5v13.1h-6.9v-25h6.5Zm28.6 0v3.5h.1c.9-1.4 2-2.5 3.4-3.2s2.8-1 4.2-1 3.3.2 4.5.7 2.1 1.2 2.8 2.1 1.2 2 1.4 3.2.4 2.7.4 4.2v15.4h-6.9v-14.1c0-2.1-.3-3.6-1-4.6-.6-1-1.8-1.5-3.4-1.5s-3.2.6-4.1 1.7c-.8 1.1-1.3 2.9-1.3 5.5v13.1h-6.9v-25h6.5Zm29.5 19c1 1 2.5 1.5 4.4 1.5s2.6-.3 3.6-1 1.6-1.4 1.8-2.2h6c-1 3-2.4 5.1-4.4 6.4s-4.4 1.9-7.2 1.9-3.7-.3-5.3-.9-2.9-1.5-4-2.7-1.9-2.5-2.5-4.2c-.6-1.6-.9-3.4-.9-5.3s.3-3.6.9-5.2 1.5-3 2.6-4.2 2.5-2.1 4-2.8c1.6-.7 3.3-1 5.2-1s4 .4 5.6 1.2q2.4 1.2 3.9 3.3c1 1.4 1.7 3 2.2 4.7.5 1.8.6 3.6.5 5.6h-18c0 2.2.7 3.8 1.7 4.8Zm7.7-13.1c-.8-.9-2.1-1.4-3.7-1.4s-2 .2-2.7.6-1.3.8-1.7 1.4c-.4.5-.7 1.1-.9 1.7s-.3 1.2-.3 1.6h11.2c-.3-1.7-.9-3.1-1.7-4Zm19.2-5.9v4.6c.3-.8.8-1.5 1.3-2.1.5-.7 1.2-1.2 1.9-1.7s1.5-.8 2.3-1.1 1.6-.4 2.5-.4.9 0 1.5.2v6.4c-.3 0-.7-.1-1.2-.2h-1.3c-1.3 0-2.3.2-3.2.6s-1.6 1-2.1 1.7-.9 1.6-1.1 2.5c-.2 1-.3 2-.3 3.1v11.2h-6.9v-25h6.5Zm-97 34.5v28.1h16.8v6.4h-24.4v-34.5zm20.5 16.6c.6-1.6 1.5-3 2.6-4.2 1.1-1.1 2.5-2 4.1-2.7 1.6-.6 3.3-.9 5.3-.9s3.7.3 5.3.9 3 1.5 4.1 2.7c1.1 1.1 2 2.5 2.6 4.2q.9 2.4.9 5.4c0 3-.3 3.8-.9 5.4s-1.5 3-2.6 4.1-2.5 2-4.1 2.6-3.4.9-5.3.9-3.7-.3-5.3-.9-2.9-1.5-4.1-2.6c-1.1-1.1-2-2.5-2.6-4.1s-.9-3.4-.9-5.4.3-3.8.9-5.4m6.2 8.4c.2.9.5 1.8 1 2.6s1.1 1.4 1.9 1.8c.8.5 1.7.7 2.9.7s2.1-.2 2.9-.7 1.4-1.1 1.9-1.8c.5-.8.8-1.6 1-2.6.2-.9.3-1.9.3-2.9s0-2-.3-2.9c-.2-1-.5-1.8-1-2.6s-1.1-1.3-1.9-1.8-1.8-.7-2.9-.7-2.1.2-2.9.7-1.4 1.1-1.9 1.8-.8 1.6-1 2.6-.3 1.9-.3 2.9 0 2 .3 2.9m23.3-8.4c.6-1.6 1.5-3 2.6-4.2 1.1-1.1 2.5-2 4.1-2.7s3.3-.9 5.3-.9 3.7.3 5.3.9 3 1.5 4.1 2.7c1.1 1.1 2 2.5 2.6 4.2q.9 2.4.9 5.4c0 3-.3 3.8-.9 5.4s-1.5 3-2.6 4.1-2.5 2-4.1 2.6-3.4.9-5.3.9-3.7-.3-5.3-.9-2.9-1.5-4.1-2.6-2-2.5-2.6-4.1-.9-3.4-.9-5.4.3-3.8.9-5.4m6.2 8.4c.2.9.5 1.8 1 2.6s1.1 1.4 1.9 1.8c.8.5 1.7.7 2.9.7s2.1-.2 2.9-.7 1.4-1.1 1.9-1.8c.5-.8.8-1.6 1-2.6s.3-1.9.3-2.9 0-2-.3-2.9-.5-1.8-1-2.6-1.1-1.3-1.9-1.8-1.8-.7-2.9-.7-2.1.2-2.9.7-1.4 1.1-1.9 1.8-.8 1.6-1 2.6-.3 1.9-.3 2.9 0 2 .3 2.9m29.6-15.5v3.2c.8-1.4 1.9-2.3 3.2-2.9q1.95-.9 4.2-.9c2.25 0 3.7.4 5.1 1.1s2.6 1.7 3.5 2.9 1.6 2.6 2.1 4.3c.5 1.6.7 3.3.7 5.1s-.2 3.3-.7 4.8-1.1 2.9-2.1 4.1c-.9 1.2-2.1 2.1-3.4 2.8s-3 1.1-4.8 1.1-3-.3-4.3-.9-2.4-1.6-3.2-2.8v11.8h-6.9v-33.7h6.5Zm8.9 19.8c.8-.5 1.4-1 1.8-1.8.5-.7.8-1.6 1-2.5.2-1 .3-1.9.3-2.9s-.1-2-.3-2.9c-.2-1-.6-1.8-1-2.6-.5-.8-1.1-1.4-1.9-1.8-.8-.5-1.7-.7-2.8-.7s-2.1.2-2.8.7q-1.2.75-1.8 1.8c-.6 1.05-.8 1.6-1 2.6q-.3 1.5-.3 3c0 1.5.1 2 .3 2.9.2 1 .5 1.8 1 2.5s1.1 1.3 1.9 1.8 1.7.7 2.8.7 2.1-.2 2.8-.7Z" class="cls-5"/>
    </g>
    <g class="cls-5">
      <path d="M1487.5 151.5c1.6 0 3.1.1 4.5.4s2.5.8 3.5 1.4c1 .7 1.7 1.5 2.2 2.6s.8 2.4.8 4.1-.4 3.2-1.2 4.3c-.8 1.2-2 2.1-3.5 2.8 2.1.6 3.7 1.7 4.8 3.2 1 1.5 1.6 3.4 1.6 5.5s-.3 3.2-1 4.5-1.6 2.3-2.7 3.1q-1.65 1.2-3.9 1.8t-4.5.6h-16.7v-34.5h16.2Zm-1 14c1.4 0 2.5-.3 3.3-1 .9-.6 1.3-1.7 1.3-3.1s-.1-1.5-.4-2q-.45-.75-1.2-1.2c-.5-.3-1-.5-1.7-.6-.6-.1-1.3-.2-2-.2h-7.1v8.1h7.7Zm.4 14.6c.7 0 1.4 0 2.1-.2.7-.1 1.3-.4 1.8-.7s.9-.8 1.2-1.4.5-1.3.5-2.2c0-1.8-.5-3-1.5-3.8s-2.3-1.1-4-1.1h-8.3v9.5h8.1Zm17.3-11.4c0-1.6.5-2.9 1.2-4s1.6-1.9 2.7-2.6c1.1-.6 2.3-1.1 3.7-1.4s2.7-.4 4.1-.4 2.5 0 3.8.3c1.3.2 2.5.5 3.5 1 1.1.5 1.9 1.2 2.6 2.1s1 2.1 1 3.6v13c0 1.1 0 2.2.2 3.2.1 1 .4 1.8.7 2.3h-7l-.3-1.2c0-.4-.1-.8-.2-1.2q-1.65 1.65-3.9 2.4c-1.5.5-3 .7-4.5.7s-2.3-.1-3.3-.4-1.9-.7-2.7-1.4c-.8-.6-1.4-1.4-1.8-2.3s-.7-2-.7-3.3.2-2.6.7-3.5 1.1-1.6 1.9-2.2c.8-.5 1.7-1 2.7-1.2 1-.3 2-.5 3.1-.7 1-.2 2-.3 3-.4 1 0 1.9-.2 2.7-.4s1.4-.5 1.8-.8c.5-.4.7-.9.6-1.6 0-.7-.1-1.3-.4-1.8-.2-.4-.6-.8-1-1s-.9-.4-1.4-.5c-.5 0-1.1-.1-1.7-.1-1.4 0-2.4.3-3.2.9s-1.2 1.5-1.4 2.9h-6.9Zm15.8 5.1c-.3.3-.7.5-1.1.6s-.9.3-1.4.4-1 .2-1.6.2-1.1.1-1.6.2c-.5 0-1 .2-1.5.4s-.9.4-1.3.7-.7.6-.9 1-.3 1-.3 1.6.1 1.1.3 1.5.5.7.9 1 .8.4 1.4.5 1 .1 1.6.1c1.4 0 2.4-.2 3.1-.7s1.3-1 1.6-1.6c.4-.6.6-1.3.7-1.9 0-.6.1-1.2.1-1.5v-2.6Zm24.1-8.3c-1.1 0-2 .2-2.8.7-.7.5-1.3 1.1-1.8 1.9s-.8 1.7-1 2.6-.3 1.9-.3 2.8 0 1.8.3 2.8c.2.9.5 1.8.9 2.5.4.8 1 1.4 1.8 1.9.7.5 1.6.7 2.7.7 1.6 0 2.9-.5 3.8-1.4s1.4-2.1 1.7-3.7h6.6c-.5 3.3-1.7 5.8-3.9 7.6s-4.8 2.6-8.2 2.6-3.6-.3-5.1-.9c-1.6-.6-2.9-1.5-4-2.6s-1.9-2.5-2.6-4q-.9-2.4-.9-5.1c0-2.7.3-3.7.8-5.4.6-1.7 1.4-3.1 2.5-4.3s2.4-2.1 4-2.8 3.4-1 5.4-1 2.9.2 4.3.6 2.6 1 3.7 1.8 2 1.8 2.6 2.9 1.1 2.6 1.2 4.2h-6.7c-.5-2.9-2.1-4.3-5.1-4.3Zm23.3-14V170l8.6-9h8.1l-9.4 9.2 10.5 15.8h-8.3l-6.9-11.2-2.7 2.6v8.6h-6.9v-34.5h6.9Zm40.2 26c.4.8 1 1.5 1.7 2s1.5.9 2.4 1.1 1.9.4 2.9.4 1.4 0 2.2-.2c.8-.1 1.5-.3 2.2-.7.7-.3 1.2-.8 1.7-1.3.5-.6.7-1.3.7-2.1s-.3-1.7-.9-2.3-1.4-1.1-2.3-1.4c-1-.4-2.1-.7-3.3-1s-2.5-.6-3.7-1c-1.3-.3-2.5-.7-3.8-1.2q-1.8-.75-3.3-1.8c-1-.7-1.7-1.7-2.3-2.8s-.9-2.5-.9-4 .4-3.3 1.1-4.6c.8-1.3 1.7-2.4 3-3.3 1.2-.9 2.6-1.5 4.2-1.9 1.5-.4 3.1-.6 4.6-.6s3.5.2 5.2.6 3.1 1.1 4.4 2 2.3 2.1 3.1 3.5 1.1 3.1 1.1 5.1h-7.3c0-1-.3-1.9-.7-2.6s-.9-1.2-1.5-1.6-1.3-.7-2.1-.8-1.6-.2-2.6-.2-1.2 0-1.8.2c-.6.1-1.2.4-1.7.7q-.75.45-1.2 1.2c-.3.5-.5 1.1-.5 1.8s.1 1.2.4 1.6q.45.6 1.5 1.2c.8.4 1.8.7 3.1 1.1s3.1.8 5.2 1.4c.6.1 1.5.4 2.7.7s2.3.9 3.4 1.6 2.1 1.7 2.9 3q1.2 1.8 1.2 4.8c0 3-.3 3-.9 4.4s-1.5 2.5-2.7 3.5-2.7 1.7-4.5 2.3-3.9.8-6.2.8-3.7-.2-5.5-.7-3.4-1.2-4.7-2.2-2.5-2.3-3.3-3.8-1.2-3.4-1.2-5.5h7.3c0 1.2.2 2.1.6 2.9Zm38.5-16.5v4.6h-5V178c0 1.2.2 1.9.6 2.3s1.2.6 2.3.6h1.1c.4 0 .7 0 1-.1v5.3c-.6 0-1.2.2-1.9.2h-2.1c-1.1 0-2.1 0-3-.2-.9-.1-1.8-.4-2.5-.8s-1.3-1-1.7-1.8-.6-1.8-.6-3v-14.7h-4.2v-4.6h4.2v-7.5h6.9v7.5h5Zm9.8 0v4.6c.3-.8.8-1.5 1.3-2.1.5-.7 1.2-1.2 1.9-1.7s1.5-.8 2.3-1.1 1.6-.4 2.5-.4.9 0 1.5.2v6.4c-.3 0-.7-.1-1.2-.2h-1.3c-1.3 0-2.3.2-3.2.6s-1.6 1-2.1 1.7-.9 1.6-1.1 2.5-.3 2-.3 3.1v11.2h-6.9v-25h6.5Zm12 7.7c0-1.6.5-2.9 1.2-4s1.6-1.9 2.7-2.6c1.1-.6 2.3-1.1 3.7-1.4s2.7-.4 4.1-.4 2.5 0 3.8.3c1.3.2 2.5.5 3.5 1s1.9 1.2 2.6 2.1 1 2.1 1 3.6v13c0 1.1 0 2.2.2 3.2.1 1 .4 1.8.7 2.3h-7l-.3-1.2c-.1-.4-.1-.8-.2-1.2q-1.65 1.65-3.9 2.4c-1.5.5-3 .7-4.5.7s-2.3-.1-3.3-.4-1.9-.7-2.7-1.4c-.8-.6-1.4-1.4-1.8-2.3s-.7-2-.7-3.3.2-2.6.7-3.5 1.1-1.6 1.9-2.2c.8-.5 1.7-1 2.7-1.2s2-.5 3.1-.7c1-.2 2-.3 3-.4 1 0 1.9-.2 2.7-.4s1.4-.5 1.8-.8c.5-.4.7-.9.6-1.6 0-.7-.1-1.3-.4-1.8s-.6-.8-1-1-.9-.4-1.4-.5c-.5 0-1.1-.1-1.7-.1-1.4 0-2.4.3-3.2.9s-1.2 1.5-1.4 2.9h-6.9Zm15.8 5.1c-.3.3-.7.5-1.1.6s-.9.3-1.4.4c-.5 0-1 .2-1.6.2-.5 0-1.1.1-1.6.2-.5 0-1 .2-1.5.4s-.9.4-1.3.7-.7.6-.9 1-.3 1-.3 1.6.1 1.1.3 1.5.5.7.9 1c.4.2.8.4 1.4.5.5 0 1 .1 1.6.1 1.4 0 2.4-.2 3.1-.7s1.3-1 1.6-1.6c.4-.6.6-1.3.7-1.9 0-.6.1-1.2.1-1.5v-2.6Zm12.4-16.6v-5.6h6.9v5.6zm6.8 3.8v25h-6.9v-25zm29 26.8q-.45 1.95-1.8 3.6c-.9 1.1-2.2 2.1-3.9 2.8s-4 1.2-6.9 1.2-2.5-.2-3.7-.5c-1.3-.3-2.4-.8-3.5-1.4-1-.6-1.9-1.5-2.6-2.5q-1.05-1.5-1.2-3.6h6.8c.3 1.3.9 2.2 1.9 2.7.9.5 2 .7 3.2.7 1.9 0 3.3-.6 4.2-1.7.9-1.2 1.3-2.6 1.3-4.4v-3.3c-.7 1.3-1.8 2.3-3.2 2.9s-2.8.9-4.3.9-3.5-.3-4.8-1q-2.1-1.05-3.3-2.7c-.9-1.1-1.5-2.5-1.9-4s-.6-3.1-.6-4.9.2-3.2.7-4.7 1.2-2.8 2.1-4 2-2.1 3.4-2.7 2.9-1 4.6-1 3.1.3 4.3.9 2.3 1.6 3.1 3.1v-3.3h6.5v23.4c0 1-.1 2.1-.4 3.4Zm-9.4-8.3c.7-.4 1.4-.9 1.8-1.5.5-.6.8-1.4 1.1-2.2.2-.8.4-1.7.4-2.6s0-2-.3-2.9c-.2-.9-.5-1.7-1-2.4s-1-1.3-1.8-1.7c-.7-.4-1.7-.6-2.8-.6s-1.8.2-2.5.6-1.3.9-1.7 1.6c-.5.7-.8 1.4-1 2.3s-.3 1.7-.3 2.7 0 1.8.3 2.7q.3 1.35.9 2.4c.6 1.05 1 1.3 1.7 1.7.7.5 1.6.7 2.7.7s1.8-.2 2.6-.6Zm22.2-28v13h.1c.9-1.4 2-2.5 3.3-3.2 1.4-.7 2.7-1 4-1 1.8 0 3.3.2 4.5.7s2.1 1.2 2.8 2.1 1.2 2 1.4 3.2.4 2.7.4 4.2v15.4h-6.9v-14.1c0-2.1-.3-3.6-1-4.6-.6-1-1.8-1.5-3.4-1.5s-3.2.6-4.1 1.7c-.8 1.1-1.3 2.9-1.3 5.5V186h-6.9v-34.5h6.9Zm35.5 9.5v4.6h-5V178c0 1.2.2 1.9.6 2.3s1.2.6 2.3.6h1.1c.4 0 .7 0 1-.1v5.3c-.6 0-1.2.2-1.9.2h-2.1c-1.1 0-2.1 0-3-.2-1-.1-1.8-.4-2.5-.8s-1.3-1-1.7-1.8q-.6-1.2-.6-3v-14.7h-4.2v-4.6h4.2v-7.5h6.9v7.5h5Z" class="cls-5"/>
    </g>
    <g class="cls-5">
      <path d="M563.3 328.7v6.4h-18.2v7.4h16.7v5.9h-16.7v8.4h18.6v6.4h-26.2v-34.5zm10.5 28.3c.3.5.7 1 1.2 1.3s1 .6 1.7.7c.6.2 1.3.2 2 .2s1 0 1.5-.2c.5-.1 1-.3 1.4-.5s.8-.6 1.1-1 .4-.9.4-1.5c0-1-.7-1.8-2.1-2.3q-2.1-.75-5.7-1.5c-1-.2-2-.5-2.9-.8s-1.8-.7-2.5-1.2-1.3-1.1-1.8-1.9-.7-1.7-.7-2.8c0-1.6.3-2.9.9-4s1.5-1.8 2.5-2.4 2.2-1 3.5-1.3c1.3-.2 2.6-.4 4-.4s2.7.1 3.9.4c1.3.3 2.4.7 3.4 1.3s1.8 1.4 2.5 2.4 1.1 2.3 1.2 3.8h-6.5c0-1.3-.6-2.2-1.5-2.7s-2-.7-3.2-.7h-1.3c-.5 0-.9.2-1.2.3-.4.2-.7.4-.9.7-.3.3-.4.7-.4 1.2s.2 1.1.7 1.5 1 .7 1.8.9c.7.2 1.6.5 2.5.7s1.9.4 2.8.6c1 .2 2 .5 2.9.8s1.8.7 2.5 1.3c.7.5 1.3 1.2 1.8 2s.7 1.8.7 2.9c0 1.6-.3 3-1 4.1s-1.5 2-2.6 2.7-2.3 1.2-3.6 1.4c-1.4.3-2.8.4-4.2.4s-2.9-.1-4.2-.4c-1.4-.3-2.6-.8-3.7-1.4q-1.65-1.05-2.7-2.7c-.7-1.1-1.1-2.5-1.1-4.2h6.5c0 .7.2 1.4.5 1.9Zm25.9 0c.3.5.7 1 1.2 1.3s1 .6 1.7.7c.6.2 1.3.2 2 .2s1 0 1.5-.2c.5-.1 1-.3 1.4-.5s.8-.6 1.1-1 .4-.9.4-1.5c0-1-.7-1.8-2.1-2.3q-2.1-.75-5.7-1.5c-1-.2-2-.5-2.9-.8s-1.8-.7-2.5-1.2-1.3-1.1-1.8-1.9-.7-1.7-.7-2.8c0-1.6.3-2.9.9-4s1.5-1.8 2.5-2.4 2.2-1 3.5-1.3c1.3-.2 2.6-.4 4-.4s2.7.1 3.9.4c1.3.3 2.4.7 3.4 1.3s1.8 1.4 2.5 2.4 1.1 2.3 1.2 3.8h-6.5c0-1.3-.6-2.2-1.5-2.7s-2-.7-3.2-.7h-1.3c-.5 0-.9.2-1.2.3-.4.2-.7.4-.9.7-.3.3-.4.7-.4 1.2s.2 1.1.7 1.5 1 .7 1.8.9c.7.2 1.6.5 2.5.7s1.9.4 2.8.6c1 .2 2 .5 2.9.8s1.8.7 2.5 1.3c.7.5 1.3 1.2 1.8 2s.7 1.8.7 2.9c0 1.6-.3 3-1 4.1s-1.5 2-2.6 2.7-2.3 1.2-3.6 1.4c-1.4.3-2.8.4-4.2.4s-2.9-.1-4.2-.4c-1.4-.3-2.6-.8-3.7-1.4q-1.65-1.05-2.7-2.7c-.7-1.1-1.1-2.5-1.1-4.2h6.5c0 .7.2 1.4.5 1.9Zm27.5.2c1 1 2.5 1.5 4.4 1.5s2.6-.3 3.6-1 1.6-1.4 1.8-2.2h6c-1 3-2.4 5.1-4.4 6.4s-4.4 1.9-7.2 1.9-3.7-.3-5.3-.9-2.9-1.5-4-2.7-1.9-2.5-2.5-4.2c-.6-1.6-.9-3.4-.9-5.3s.3-3.6.9-5.2 1.5-3 2.6-4.2 2.5-2.1 4-2.8c1.6-.7 3.3-1 5.2-1s4 .4 5.6 1.2q2.4 1.2 3.9 3.3c1 1.4 1.7 3 2.2 4.7.5 1.8.6 3.6.5 5.6h-18c0 2.2.7 3.8 1.7 4.8Zm7.8-13.1c-.8-.9-2.1-1.4-3.7-1.4s-2 .2-2.7.6-1.3.8-1.7 1.4c-.4.5-.7 1.1-.9 1.7s-.3 1.2-.3 1.6h11.2c-.3-1.7-.9-3.1-1.7-4Zm18.4 12.9c.3.5.7 1 1.2 1.3s1 .6 1.7.7c.6.2 1.3.2 2 .2s1 0 1.5-.2c.5-.1 1-.3 1.4-.5s.8-.6 1.1-1 .4-.9.4-1.5c0-1-.7-1.8-2.1-2.3q-2.1-.75-5.7-1.5c-1-.2-2-.5-2.9-.8s-1.8-.7-2.5-1.2-1.3-1.1-1.8-1.9-.7-1.7-.7-2.8c0-1.6.3-2.9.9-4s1.5-1.8 2.5-2.4 2.2-1 3.5-1.3c1.3-.2 2.6-.4 4-.4s2.7.1 3.9.4c1.3.3 2.4.7 3.4 1.3s1.8 1.4 2.5 2.4 1.1 2.3 1.2 3.8h-6.5c0-1.3-.6-2.2-1.5-2.7s-2-.7-3.2-.7h-1.3c-.5 0-.9.2-1.2.3-.4.2-.7.4-.9.7-.3.3-.4.7-.4 1.2s.2 1.1.7 1.5 1 .7 1.8.9c.7.2 1.6.5 2.5.7s1.9.4 2.8.6c1 .2 2 .5 2.9.8s1.8.7 2.5 1.3c.7.5 1.3 1.2 1.8 2s.7 1.8.7 2.9c0 1.6-.3 3-1 4.1s-1.5 2-2.6 2.7-2.3 1.2-3.6 1.4c-1.4.3-2.8.4-4.2.4s-2.9-.1-4.2-.4c-1.4-.3-2.6-.8-3.7-1.4q-1.65-1.05-2.7-2.7c-.7-1.1-1.1-2.5-1.1-4.2h6.5c0 .7.2 1.4.5 1.9Z" class="cls-5"/>
    </g>
    <g class="cls-5">
      <path d="M102.3 1140.3v-6.4h28.2v6.4h-10.3v28.1h-7.6v-28.1zm38.4-6.3v13h.1c.9-1.4 2-2.5 3.3-3.2 1.4-.7 2.7-1 4-1 1.8 0 3.3.2 4.5.7s2.1 1.2 2.8 2.1 1.2 2 1.4 3.2.4 2.7.4 4.2v15.4h-6.9v-14.1c0-2.1-.3-3.6-1-4.6-.6-1-1.8-1.5-3.4-1.5s-3.2.6-4.1 1.7c-.8 1.1-1.3 2.9-1.3 5.5v13.1h-6.9V1134h6.9Zm29.1 28.4c1 1 2.5 1.5 4.4 1.5s2.6-.3 3.6-1 1.6-1.4 1.8-2.2h6c-1 3-2.4 5.1-4.4 6.4s-4.4 1.9-7.2 1.9-3.7-.3-5.3-.9-2.9-1.5-4-2.7-1.9-2.5-2.5-4.2c-.6-1.6-.9-3.4-.9-5.3s.3-3.6.9-5.2 1.5-3 2.6-4.2 2.5-2.1 4-2.8c1.6-.7 3.3-1 5.2-1s4 .4 5.6 1.2q2.4 1.2 3.9 3.3c1 1.4 1.7 3 2.2 4.7.5 1.8.6 3.6.5 5.6h-18c0 2.2.7 3.8 1.7 4.8Zm7.7-13.1c-.8-.9-2.1-1.4-3.7-1.4s-2 .2-2.7.6-1.3.8-1.7 1.4c-.4.5-.7 1.1-.9 1.7s-.3 1.2-.3 1.6h11.2c-.3-1.7-.9-3.1-1.7-4Zm-50.1 57.4c.8.8 1.8 1.3 3 1.3s2.3-.4 3.1-1.1 1.4-1.6 1.9-2.7.8-2.2 1-3.4.3-2.3.4-3.2c-.9 1.3-2 2.2-3.3 2.8s-2.7.9-4.3.9-2.9-.3-4.2-.9c-1.4-.6-2.6-1.5-3.5-2.5s-1.6-2.2-2-3.5-.6-2.7-.6-4 .3-3.4.8-4.9q.9-2.25 2.4-3.9c1-1.1 2.3-2 3.7-2.6s3.1-1 4.8-1q3.9 0 6.3 1.5c1.7 1 3 2.3 4 4s1.7 3.5 2.1 5.6q.6 3.15.6 6.3c0 3.15-.2 4.2-.7 6.3s-1.3 4-2.3 5.7c-1.1 1.7-2.4 3.1-4.1 4.1s-3.7 1.6-6.1 1.6-2.8-.2-4.1-.6q-1.95-.6-3.3-1.8c-1-.8-1.8-1.8-2.4-2.9-.6-1.2-1-2.5-1.2-4h6.5c.2 1.1.7 2.1 1.5 2.9m5.8-11c.7-.3 1.2-.8 1.7-1.4s.8-1.2 1-2q.3-1.2.3-2.4c0-1.2-.1-1.5-.4-2.3-.2-.8-.6-1.4-1.1-2s-1-1.1-1.7-1.4c-.7-.4-1.4-.5-2.3-.5s-1.5.2-2.2.5c-.6.4-1.2.8-1.6 1.4-.5.6-.8 1.2-1 2-.2.7-.3 1.5-.3 2.3s.1 1.6.3 2.3c.2.8.5 1.4.9 2s1 1.1 1.6 1.4c.7.4 1.4.6 2.3.6s1.7-.2 2.4-.5Zm13.4-8.6q1.05-3.3 2.7-5.4c1.1-1.4 2.4-2.3 3.9-2.9q2.25-.9 4.8-.9c2.55 0 3.3.3 4.8.9s2.8 1.5 4 2.9c1.1 1.4 2 3.1 2.7 5.4.7 2.2 1 5 1 8.3s-.3 6.2-1 8.5q-1.05 3.45-2.7 5.4c-1.1 1.4-2.5 2.3-4 2.9q-2.25.9-4.8.9c-2.55 0-3.3-.3-4.8-.9s-2.8-1.5-3.9-2.9q-1.65-2.1-2.7-5.4c-.7-2.3-1-5.1-1-8.5s.3-6 1-8.3m6 11.8c0 1.4.3 2.7.6 4s.9 2.4 1.6 3.3 1.8 1.4 3.2 1.4 2.5-.5 3.3-1.4 1.3-2 1.6-3.3.5-2.6.6-4v-5.6c0-.8 0-1.7-.2-2.5-.1-.9-.3-1.7-.5-2.6s-.5-1.6-.9-2.3-.9-1.2-1.6-1.6q-.9-.6-2.4-.6c-1.5 0-1.7.2-2.3.6s-1.1 1-1.5 1.6c-.4.7-.7 1.4-.9 2.3s-.4 1.7-.5 2.6c0 .9-.2 1.7-.2 2.5v5.6Z" class="cls-5"/>
    </g>
    <g class="cls-5">
      <path d="M2411.3 626.5c-.5-.7-1-1.4-1.7-1.9s-1.4-1-2.3-1.3-1.7-.5-2.7-.5c-1.7 0-3.2.3-4.3 1-1.2.7-2.2 1.5-2.9 2.7-.7 1.1-1.3 2.4-1.6 3.8s-.5 2.9-.5 4.4.2 2.9.5 4.2.9 2.6 1.6 3.7 1.7 2 2.9 2.6c1.2.7 2.6 1 4.3 1s4.1-.7 5.4-2.1 2.1-3.3 2.4-5.6h7.3c-.2 2.2-.7 4.1-1.5 5.8s-1.9 3.2-3.2 4.4-2.9 2.2-4.6 2.8-3.7 1-5.8 1-5-.5-7.1-1.4-3.9-2.2-5.3-3.8-2.6-3.5-3.3-5.7c-.8-2.2-1.2-4.5-1.2-7s.4-5 1.2-7.2 1.9-4.1 3.3-5.8 3.2-2.9 5.3-3.9 4.5-1.4 7.1-1.4 3.7.3 5.4.8q2.55.75 4.5 2.4 1.95 1.5 3.3 3.9c1.35 2.4 1.4 3.3 1.6 5.3h-7.3q-.15-1.35-.9-2.4Zm19.8-9.2v13h.1c.9-1.4 2-2.5 3.3-3.2 1.4-.7 2.7-1 4-1 1.8 0 3.3.2 4.5.7s2.1 1.2 2.8 2.1 1.2 2 1.4 3.2.4 2.7.4 4.2v15.4h-6.9v-14.1c0-2.1-.3-3.6-1-4.6-.6-1-1.8-1.5-3.4-1.5s-3.2.6-4.1 1.7-1.3 2.9-1.3 5.5v13.1h-6.9v-34.5h6.9Zm38.7 34.5v-3.5h-.1c-.9 1.4-2 2.5-3.4 3.1s-2.8 1-4.2 1-3.3-.2-4.5-.7-2.1-1.2-2.8-2.1-1.2-2-1.4-3.2-.4-2.7-.4-4.2v-15.4h6.9v14.1c0 2.1.3 3.6 1 4.6.6 1 1.8 1.5 3.4 1.5s3.2-.6 4.1-1.7c.8-1.1 1.3-2.9 1.3-5.5v-13.1h6.9v25h-6.5Zm25.5-25v4.6h-5v12.4c0 1.2.2 1.9.6 2.3s1.2.6 2.3.6h1.1c.4 0 .7 0 1-.1v5.3c-.6 0-1.2.2-1.9.2h-2.1c-1.1 0-2.1 0-3-.2-1-.1-1.8-.4-2.5-.8s-1.3-1-1.7-1.8q-.6-1.2-.6-3v-14.7h-4.2V627h4.2v-7.5h6.9v7.5h5Zm10.6 19c1 1 2.5 1.5 4.4 1.5s2.6-.3 3.6-1 1.6-1.4 1.8-2.2h6c-1 3-2.4 5.1-4.4 6.4s-4.4 1.9-7.2 1.9-3.7-.3-5.3-.9-2.9-1.5-4-2.7-1.9-2.5-2.5-4.2c-.6-1.6-.9-3.4-.9-5.3s.3-3.6.9-5.2 1.5-3 2.6-4.2 2.5-2.1 4-2.8c1.6-.7 3.3-1 5.2-1s4 .4 5.6 1.2q2.4 1.2 3.9 3.3c1 1.4 1.7 3 2.2 4.7.5 1.8.6 3.6.5 5.6h-18c0 2.2.7 3.8 1.7 4.8Zm7.7-13.1c-.8-.9-2.1-1.4-3.7-1.4s-2 .2-2.7.6-1.3.8-1.7 1.4c-.4.5-.7 1.1-.9 1.7s-.3 1.2-.3 1.6h11.2c-.3-1.7-.9-3.1-1.7-4Z" class="cls-5"/>
    </g>
    <g class="cls-5">
      <path d="M2654.3 148.9c.8-2.2 1.9-4.1 3.3-5.8s3.2-2.9 5.3-3.9 4.5-1.4 7.1-1.4 5.1.5 7.1 1.4c2.1.9 3.9 2.2 5.3 3.9 1.4 1.6 2.6 3.6 3.3 5.8q1.2 3.3 1.2 7.2c0 3.9-.4 4.9-1.2 7s-1.9 4.1-3.3 5.7-3.2 2.9-5.3 3.8-4.5 1.4-7.1 1.4-5-.5-7.1-1.4-3.9-2.2-5.3-3.8-2.6-3.5-3.3-5.7-1.2-4.5-1.2-7 .4-5 1.2-7.2m6.9 11.4c.3 1.4.9 2.6 1.6 3.7s1.7 2 2.9 2.6c1.2.7 2.6 1 4.3 1s3.2-.3 4.3-1c1.2-.7 2.2-1.5 2.9-2.6s1.3-2.3 1.6-3.7.5-2.8.5-4.2-.2-3-.5-4.4-.9-2.7-1.6-3.8-1.7-2-2.9-2.7-2.6-1-4.3-1-3.2.3-4.3 1c-1.2.7-2.2 1.5-2.9 2.7-.7 1.1-1.3 2.4-1.6 3.8s-.5 2.9-.5 4.4.2 2.9.5 4.2m47.1 12.8v-3.5h-.1c-.9 1.4-2 2.5-3.4 3.1s-2.8 1-4.2 1-3.3-.2-4.5-.7-2.1-1.2-2.8-2.1-1.2-2-1.4-3.2-.4-2.7-.4-4.2v-15.4h6.9v14.1c0 2.1.3 3.6 1 4.6.6 1 1.8 1.5 3.4 1.5s3.2-.6 4.1-1.7 1.3-2.9 1.3-5.5V148h6.9v25h-6.5Zm25.5-24.9v4.6h-5v12.4c0 1.2.2 1.9.6 2.3s1.2.6 2.3.6h1.1c.4 0 .7 0 1-.1v5.3c-.6 0-1.2.2-1.9.2h-2.1c-1.1 0-2.1 0-3-.2-1-.1-1.8-.4-2.5-.8s-1.3-1-1.7-1.8q-.6-1.2-.6-3V153h-4.2v-4.6h4.2v-7.5h6.9v7.5h5Zm10.6 18.9c1 1 2.5 1.5 4.4 1.5s2.6-.3 3.6-1 1.6-1.4 1.8-2.2h6c-1 3-2.4 5.1-4.4 6.4s-4.4 1.9-7.2 1.9-3.7-.3-5.3-.9-2.9-1.5-4-2.7-1.9-2.5-2.5-4.2c-.6-1.6-.9-3.4-.9-5.3s.3-3.6.9-5.2 1.5-3 2.6-4.2 2.5-2.1 4-2.8c1.6-.7 3.3-1 5.2-1s4 .4 5.6 1.2q2.4 1.2 3.9 3.3c1 1.4 1.7 3 2.2 4.7.5 1.8.6 3.6.5 5.6h-18c0 2.2.7 3.8 1.7 4.8Zm7.8-13.1c-.8-.9-2.1-1.4-3.7-1.4s-2 .2-2.7.6-1.3.8-1.7 1.4c-.4.5-.7 1.1-.9 1.7s-.3 1.2-.3 1.6h11.2c-.3-1.7-.9-3.1-1.7-4Zm19.1-5.8v4.6c.3-.8.8-1.5 1.3-2.1.5-.7 1.2-1.2 1.9-1.7s1.5-.8 2.3-1.1 1.6-.4 2.5-.4.9 0 1.5.2v6.4c-.3 0-.7-.1-1.2-.2h-1.3c-1.3 0-2.3.2-3.2.6s-1.6 1-2.1 1.7-.9 1.6-1.1 2.5c-.2 1-.3 2-.3 3.1V173h-6.9v-25h6.5Zm-102.8 34.5v28.1h16.8v6.4h-24.4v-34.5zm20.4 16.5c.6-1.6 1.5-3 2.6-4.2 1.1-1.1 2.5-2 4.1-2.7 1.6-.6 3.3-.9 5.3-.9s3.7.3 5.3.9 3 1.5 4.1 2.7c1.1 1.1 2 2.5 2.6 4.2q.9 2.4.9 5.4c0 3-.3 3.8-.9 5.4s-1.5 3-2.6 4.1-2.5 2-4.1 2.6-3.4.9-5.3.9-3.7-.3-5.3-.9-2.9-1.5-4.1-2.6c-1.1-1.1-2-2.5-2.6-4.1s-.9-3.4-.9-5.4.3-3.8.9-5.4m6.3 8.4c.2.9.5 1.8 1 2.6s1.1 1.4 1.9 1.8c.8.5 1.7.7 2.9.7s2.1-.2 2.9-.7 1.4-1.1 1.9-1.8c.5-.8.8-1.6 1-2.6.2-.9.3-1.9.3-2.9s0-2-.3-2.9c-.2-1-.5-1.8-1-2.6s-1.1-1.3-1.9-1.8-1.8-.7-2.9-.7-2.1.2-2.9.7-1.4 1.1-1.9 1.8-.8 1.6-1 2.6-.3 1.9-.3 2.9 0 2 .3 2.9m23.2-8.4c.6-1.6 1.5-3 2.6-4.2 1.1-1.1 2.5-2 4.1-2.7s3.3-.9 5.3-.9 3.7.3 5.3.9 3 1.5 4.1 2.7c1.1 1.1 2 2.5 2.6 4.2q.9 2.4.9 5.4c0 3-.3 3.8-.9 5.4s-1.5 3-2.6 4.1-2.5 2-4.1 2.6-3.4.9-5.3.9-3.7-.3-5.3-.9-2.9-1.5-4.1-2.6-2-2.5-2.6-4.1-.9-3.4-.9-5.4.3-3.8.9-5.4m6.3 8.4c.2.9.5 1.8 1 2.6s1.1 1.4 1.9 1.8c.8.5 1.7.7 2.9.7s2.1-.2 2.9-.7 1.4-1.1 1.9-1.8c.5-.8.8-1.6 1-2.6s.3-1.9.3-2.9 0-2-.3-2.9-.5-1.8-1-2.6-1.1-1.3-1.9-1.8-1.8-.7-2.9-.7-2.1.2-2.9.7-1.4 1.1-1.9 1.8-.8 1.6-1 2.6-.3 1.9-.3 2.9 0 2 .3 2.9m29.6-15.4v3.2c.8-1.4 1.9-2.3 3.2-2.9q1.95-.9 4.2-.9c2.25 0 3.7.4 5.1 1.1s2.6 1.7 3.5 2.9 1.6 2.6 2.1 4.3c.5 1.6.7 3.3.7 5.1s-.2 3.3-.7 4.8-1.1 2.9-2.1 4.1c-.9 1.2-2.1 2.1-3.4 2.8s-3 1.1-4.8 1.1-3-.3-4.3-.9-2.4-1.6-3.2-2.8v11.8h-6.9v-33.7h6.5Zm8.9 19.8c.8-.5 1.4-1 1.8-1.8.5-.7.8-1.6 1-2.5.2-1 .3-1.9.3-2.9s-.1-2-.3-2.9c-.2-1-.6-1.8-1-2.6-.5-.8-1.1-1.4-1.9-1.8-.8-.5-1.7-.7-2.8-.7s-2.1.2-2.8.7q-1.2.75-1.8 1.8c-.6 1.05-.8 1.6-1 2.6q-.3 1.5-.3 3c0 1.5.1 2 .3 2.9.2 1 .5 1.8 1 2.5s1.1 1.3 1.9 1.8 1.7.7 2.8.7 2.1-.2 2.8-.7Z" class="cls-5"/>
    </g>
    <g class="cls-5">
      <path d="M2249.8 1014.1v-7.4c0-1.1.1-2.1.5-3 .3-.9.8-1.8 1.4-2.5s1.3-1.3 2.2-1.8 1.8-.8 2.8-.9v3.2c-1.2.4-2.1 1-2.5 1.9-.5.8-.7 1.8-.7 3h3.2v7.4h-6.9Zm10.3 0v-7.4c0-1.1.1-2.1.5-3 .3-.9.8-1.8 1.4-2.5s1.3-1.3 2.2-1.8 1.8-.8 2.8-.9v3.2c-1.2.4-2.1 1-2.5 1.9-.5.8-.7 1.8-.7 3h3.2v7.4h-6.9Zm10.1-9.1v-6.4h28.2v6.4h-10.3v28.1h-7.6V1005zm38.3-6.4v13h.1c.9-1.4 2-2.5 3.3-3.2 1.4-.7 2.7-1 4-1 1.8 0 3.3.2 4.5.7s2.1 1.2 2.8 2.1 1.2 2 1.4 3.2.4 2.7.4 4.2v15.4h-6.9v-14.1c0-2.1-.3-3.6-1-4.6-.6-1-1.8-1.5-3.4-1.5s-3.2.6-4.1 1.7c-.8 1.1-1.3 2.9-1.3 5.5v13.1h-6.9v-34.5h6.9Zm29.1 28.5c1 1 2.5 1.5 4.4 1.5s2.6-.3 3.6-1 1.6-1.4 1.8-2.2h6c-1 3-2.4 5.1-4.4 6.4s-4.4 1.9-7.2 1.9-3.7-.3-5.3-.9-2.9-1.5-4-2.7-1.9-2.5-2.5-4.2c-.6-1.6-.9-3.4-.9-5.3s.3-3.6.9-5.2 1.5-3 2.6-4.2 2.5-2.1 4-2.8c1.6-.7 3.3-1 5.2-1s4 .4 5.6 1.2q2.4 1.2 3.9 3.3c1 1.4 1.7 3 2.2 4.7.5 1.8.6 3.6.5 5.6h-18c0 2.2.7 3.8 1.7 4.8Zm7.8-13.1c-.8-.9-2.1-1.4-3.7-1.4s-2 .2-2.7.6-1.3.8-1.7 1.4c-.4.5-.7 1.1-.9 1.7s-.3 1.2-.3 1.6h11.2c-.3-1.7-.9-3.1-1.7-4Zm43-15.4c1.6 0 3.1.1 4.5.4s2.5.8 3.5 1.4c1 .7 1.7 1.5 2.2 2.6s.8 2.4.8 4.1-.4 3.2-1.2 4.3c-.8 1.2-2 2.1-3.5 2.8 2.1.6 3.7 1.7 4.8 3.2 1 1.5 1.6 3.4 1.6 5.5s-.3 3.2-1 4.5-1.6 2.3-2.7 3.1-2.4 1.4-3.9 1.8q-2.25.6-4.5.6h-16.7v-34.5h16.2Zm-1 14c1.4 0 2.5-.3 3.3-1 .9-.6 1.3-1.7 1.3-3.1s-.1-1.5-.4-2q-.45-.75-1.2-1.2c-.5-.3-1-.5-1.7-.6-.6-.1-1.3-.2-2-.2h-7.1v8.1h7.7Zm.4 14.6c.7 0 1.4 0 2.1-.2.7-.1 1.3-.4 1.8-.7s.9-.8 1.2-1.4.5-1.3.5-2.2c0-1.8-.5-3-1.5-3.8s-2.3-1.1-4-1.1h-8.3v9.5h8.1Zm17.8-12c.6-1.6 1.5-3 2.6-4.2 1.1-1.1 2.5-2 4.1-2.7s3.3-.9 5.3-.9 3.7.3 5.3.9 3 1.5 4.1 2.7c1.1 1.1 2 2.5 2.6 4.2q.9 2.4.9 5.4c0 3-.3 3.8-.9 5.4s-1.5 3-2.6 4.1-2.5 2-4.1 2.6-3.4.9-5.3.9-3.7-.3-5.3-.9-2.9-1.5-4.1-2.6-2-2.5-2.6-4.1q-.9-2.4-.9-5.4c0-3 .3-3.8.9-5.4m6.2 8.4c.2.9.5 1.8 1 2.6s1.1 1.4 1.9 1.8c.8.5 1.7.7 2.9.7s2.1-.2 2.9-.7 1.4-1.1 1.9-1.8c.5-.8.8-1.6 1-2.6s.3-1.9.3-2.9 0-2-.3-2.9-.5-1.8-1-2.6c-.5-.7-1.1-1.3-1.9-1.8s-1.8-.7-2.9-.7-2.1.2-2.9.7-1.4 1.1-1.9 1.8-.8 1.6-1 2.6-.3 1.9-.3 2.9 0 2 .3 2.9m23.3-8.4c.6-1.6 1.5-3 2.6-4.2 1.1-1.1 2.5-2 4.1-2.7 1.6-.6 3.3-.9 5.3-.9s3.7.3 5.3.9 3 1.5 4.1 2.7c1.1 1.1 2 2.5 2.6 4.2q.9 2.4.9 5.4c0 3-.3 3.8-.9 5.4s-1.5 3-2.6 4.1-2.5 2-4.1 2.6-3.4.9-5.3.9-3.7-.3-5.3-.9-2.9-1.5-4.1-2.6c-1.1-1.1-2-2.5-2.6-4.1s-.9-3.4-.9-5.4.3-3.8.9-5.4m6.2 8.4c.2.9.5 1.8 1 2.6s1.1 1.4 1.9 1.8c.8.5 1.7.7 2.9.7s2.1-.2 2.9-.7 1.4-1.1 1.9-1.8c.5-.8.8-1.6 1-2.6.2-.9.3-1.9.3-2.9s0-2-.3-2.9c-.2-1-.5-1.8-1-2.6s-1.1-1.3-1.9-1.8-1.8-.7-2.9-.7-2.1.2-2.9.7-1.4 1.1-1.9 1.8-.8 1.6-1 2.6-.3 1.9-.3 2.9 0 2 .3 2.9m36.8-15.5v4.6h-5v12.4c0 1.2.2 1.9.6 2.3s1.2.6 2.3.6h1.1c.4 0 .7 0 1-.1v5.3c-.6 0-1.2.2-1.9.2h-2.1c-1.1 0-2.1 0-3-.2-.9-.1-1.8-.4-2.5-.8s-1.3-1-1.7-1.8-.6-1.8-.6-3v-14.7h-4.2v-4.6h4.2v-7.5h6.9v7.5h5Zm10.2-9.5v7.4c0 1.1-.1 2.1-.5 3-.3.9-.8 1.8-1.4 2.5s-1.3 1.3-2.2 1.8-1.8.8-2.8.9v-3.2c1.2-.4 2.1-1 2.5-1.9.5-.8.7-1.8.7-3h-3.2v-7.4h6.9Zm10.2 0v7.4c0 1.1-.1 2.1-.5 3-.3.9-.8 1.8-1.4 2.5s-1.3 1.3-2.2 1.8-1.8.8-2.8.9v-3.2c1.2-.4 2.1-1 2.5-1.9.5-.8.7-1.8.7-3h-3.2v-7.4h6.9Z" class="cls-5"/>
    </g>
    <g class="cls-5">
      <path d="M2016.4 1052.8v13.2h14v-13.2h7.6v34.5h-7.6v-14.9h-14v14.9h-7.6v-34.5zm34.8 28.5c1 1 2.5 1.5 4.4 1.5s2.6-.3 3.6-1 1.6-1.4 1.8-2.2h6c-1 3-2.4 5.1-4.4 6.4s-4.4 1.9-7.2 1.9-3.7-.3-5.3-.9-2.9-1.5-4-2.7-1.9-2.5-2.5-4.2c-.6-1.6-.9-3.4-.9-5.3s.3-3.6.9-5.2 1.5-3 2.6-4.2 2.5-2.1 4-2.8c1.6-.7 3.3-1 5.2-1s4 .4 5.6 1.2q2.4 1.2 3.9 3.3c1 1.4 1.7 3 2.2 4.7.5 1.8.6 3.6.5 5.6h-18c0 2.2.7 3.8 1.7 4.8Zm7.8-13.2c-.8-.9-2.1-1.4-3.7-1.4s-2 .2-2.7.6-1.3.8-1.7 1.4c-.4.5-.7 1.1-.9 1.7s-.3 1.2-.3 1.6h11.2c-.3-1.7-.9-3.1-1.7-4Zm19.9 13.2c1 1 2.5 1.5 4.4 1.5s2.6-.3 3.6-1 1.6-1.4 1.8-2.2h6c-1 3-2.4 5.1-4.4 6.4s-4.4 1.9-7.2 1.9-3.7-.3-5.3-.9-2.9-1.5-4-2.7-1.9-2.5-2.5-4.2c-.6-1.6-.9-3.4-.9-5.3s.3-3.6.9-5.2 1.5-3 2.6-4.2 2.5-2.1 4-2.8c1.6-.7 3.3-1 5.2-1s4 .4 5.6 1.2q2.4 1.2 3.9 3.3c1 1.4 1.7 3 2.2 4.7.5 1.8.6 3.6.5 5.6h-18c0 2.2.7 3.8 1.7 4.8Zm7.8-13.2c-.8-.9-2.1-1.4-3.7-1.4s-2 .2-2.7.6-1.3.8-1.7 1.4c-.4.5-.7 1.1-.9 1.7s-.3 1.2-.3 1.6h11.2c-.3-1.7-.9-3.1-1.7-4Zm19.6-15.3v34.5h-6.9v-34.5z" class="cls-5"/>
    </g>
    <g class="cls-5">
      <path d="M2653.8 991.4V985h28.2v6.4h-10.3v28.1h-7.6v-28.1zm26.2 10.2c.6-1.6 1.5-3 2.6-4.2 1.1-1.1 2.5-2 4.1-2.7 1.6-.6 3.3-.9 5.3-.9s3.7.3 5.3.9 3 1.5 4.1 2.7c1.1 1.1 2 2.5 2.6 4.2q.9 2.4.9 5.4c0 3-.3 3.8-.9 5.4s-1.5 3-2.6 4.1-2.5 2-4.1 2.6-3.4.9-5.3.9-3.7-.3-5.3-.9-2.9-1.5-4.1-2.6-2-2.5-2.6-4.1q-.9-2.4-.9-5.4c0-3 .3-3.8.9-5.4m6.3 8.3c.2.9.5 1.8 1 2.6s1.1 1.4 1.9 1.8 1.7.7 2.9.7 2.1-.2 2.9-.7 1.4-1.1 1.9-1.8c.5-.8.8-1.6 1-2.6s.3-1.9.3-2.9 0-2-.3-2.9c-.2-1-.5-1.8-1-2.6-.5-.7-1.1-1.3-1.9-1.8s-1.8-.7-2.9-.7-2.1.2-2.9.7-1.4 1.1-1.9 1.8-.8 1.6-1 2.6-.3 1.9-.3 2.9 0 2 .3 2.9m30.4 3.6c1 1 2.5 1.5 4.4 1.5s2.6-.3 3.6-1 1.6-1.4 1.8-2.2h6c-1 3-2.4 5.1-4.4 6.4s-4.4 1.9-7.2 1.9-3.7-.3-5.3-.9-2.9-1.5-4-2.7-1.9-2.5-2.5-4.2c-.6-1.6-.9-3.4-.9-5.3s.3-3.6.9-5.2 1.5-3 2.6-4.2 2.5-2.1 4-2.8c1.6-.7 3.3-1 5.2-1s4 .4 5.6 1.2 2.9 1.9 3.9 3.3 1.7 3 2.2 4.7c.5 1.8.6 3.6.5 5.6h-18c0 2.2.7 3.8 1.7 4.8Zm7.8-13.1c-.8-.9-2.1-1.4-3.7-1.4s-2 .2-2.7.6-1.3.8-1.7 1.4c-.4.5-.7 1.1-.9 1.7s-.3 1.2-.3 1.6h11.2c-.3-1.7-.9-3.1-1.7-4Z" class="cls-5"/>
    </g>
    <path d="M2899.1 996.1c-2-25.6-11.8-50.6-29.4-69.6-17.4-18.8-42.6-31.8-68.1-34.4-13.6-1.3-27.4-.6-40.9-.4-9.8.1-19.5.2-29.3.4-12.3.2-24.6.3-36.9.5-14.2.2-28.4.4-42.6.5l-46.5.6-48.6.6-48.7.6-47.1.6-43.5.6c-12.7.2-25.4.3-38.1.5-10.3.1-20.6.3-30.9.4-7.3 0-14.5.2-21.8.3-8.1.1-16.1.3-24.1-.2-24.9-1.8-49.1-11.9-67.9-28.1-19.6-16.9-31.8-41.5-35.3-67.1-3.7-26.7 2.3-54.7 17.8-76.9 9.6-13.8 22.8-24.8 36.2-34.8.7-.5 1.3-1 2-1.5 4.8-3.5 9.5-7 14.2-10.6 8.5-6.3 17.1-12.7 25.6-19 11.4-8.4 22.8-16.9 34.1-25.3 13.3-9.8 26.6-19.7 39.8-29.5 14.2-10.5 28.4-21.1 42.7-31.7 14.2-10.5 28.4-21.1 42.7-31.7 13.3-9.8 26.5-19.7 39.8-29.5 11.4-8.4 22.8-16.9 34.1-25.3 6.1-4.5 12.2-9.1 18.2-13.6 10.8-8.1 21.9-15.7 32-24.8 9.8-8.9 19-18.7 26.8-29.3 15.8-21.4 27.7-46.3 33.8-72.2 6.6-28.1 7.2-58.4 2.4-86.8-4.7-28-15.6-54.5-32.4-77.5-12.1-16.7-26.5-31.7-43-44.1-16.5-12.5-34.9-22.3-54.9-28-14.5-4.1-29.4-6.1-44.3-7.3-7.6-.6-15.2-1-22.9-1.1-4.3 0-8.6-.1-12.9-.1h-119.8c-5.8 0-11.5.7-17.1 2.7-9.2 3.3-16.4 10-23.3 16.7l-1.7 1.7c-8.1 7.8-16.2 15.5-24.6 23-2.3 2.1-4.5 4.3-7 6.1-6.9 5-15.6 5.8-23.9 5.8h-73.7c-14.4 0-27.2-5.1-37.9-14.6-.2-.1-.3-.3-.5-.4-7.8-6.9-15.4-14.3-22.9-21.6-6.6-6.7-13.8-12.5-22.4-16.3-7.8-3.5-16.4-3.1-24.8-3.1h-856.4c-30.6.1-61.3 2.1-91.5 7.3-29.7 5.1-58.7 13.6-87 24-27.4 10.1-54 22.2-79.5 36.3-25.3 13.9-49 30.6-71.1 49.2s-42 39.4-61.5 60.8c-20.4 22.3-39.5 45.7-60.3 67.6-19.2 20.1-40.5 38.1-63.5 53.6-23.4 15.8-48.9 27.8-76 35.6-28.4 8.1-58 12.1-87.4 14.2-30 2.1-60.3 5.5-89.5 12.6-28 6.9-55.1 18.5-80.4 32.3-24.4 13.3-46.8 30.5-66.2 50.3-19.2 19.6-35.1 41.8-46.9 66.6-12.4 26.2-19.9 54.6-27.4 82.5-3.1 11.5-6.2 22.9-9.3 34.4-4 14.8-8 29.7-12 44.5-4.4 16.3-8.8 32.7-13.2 49l-12.9 48c-3.7 13.7-7.4 27.5-11.1 41.2-2.6 9.6-5.2 19.2-7.8 28.9-1 3.6-1.9 7.3-2.9 10.9 0 0-18.7 64.2-14.4 97.9.4 3.3 1 6.5 1.8 9.7 4.7 18.8 16.2 36.8 33.1 46.8 8.4 5 18.1 7.6 27.7 8.8 61.2 7.4 122.4 15.1 183.7 22.3 56.9 6.8 113.7 13.2 170.6 19.6 28.4 3.1 56.7 6.2 85.1 9.3 34.3 3.8 68.7 7.5 103 11.3 37.3 4.1 74.6 8.2 111.9 12.2 37.3 4.1 74.5 8.2 111.8 12.2 34.2 3.7 68.4 7.5 102.6 11.2 28.2 3.1 56.3 6.2 84.5 9.2l57.3 6.3c7 .8 14.1 1.6 21.1 2.2 9 .8 18.1 1.3 27.1 1 27.8-1.1 54.7-12.6 76.7-29.2 21.3-16 37.9-36.5 44.4-62.7 4.6-18.6 5.1-37.8 7.2-56.8 5-46.7 9.9-93.4 14.7-140.2 3.1-30.7 6.2-61.4 8.8-92.2 3.8-45.7 5.9-89.5 37.5-126.2 4.9-5.7 10.3-11 16.1-15.8 21-17.6 46.5-27.8 73.3-32.6 7.6-1.3 15.1-2.8 22.6-4.1 0 0 387.5-69.5 387.6-69.5 19.7-3.5 41.6-2.9 59.9 5.8 16.2 7.7 30 20.3 39 35.8 1 1.7 1.9 3.5 2.8 5.3 1.9 3.9 3.5 8 4.9 12.1 4.2 13.2 5.4 27.4 2.5 41-3 13.7-9.5 26.2-16.1 38.4-5.4 10.1-10.9 20.2-16.3 30.3-7.6 14.2-15.3 28.3-22.9 42.5-8.7 16.2-17.4 32.4-26.2 48.6-8.7 16.2-17.4 32.4-26.1 48.5-7.6 14.1-15.2 28.3-22.8 42.4-8.2 15.2-16.7 30.4-24.2 46-12.4 25.7-21.1 54.5-18 83.3 2.6 23.7 12.3 47.3 32.3 61.4 14.3 10.1 32.7 17.2 50.5 16.4 0 0 736.3-35.1 762.9-36.2 10.9-.5 21.8-.9 32.7-1.6 28.8-1.6 58.7-1.9 86.2-11.5 10.5-3.6 20.5-8.6 29.8-14.7 10.7-7 20.4-15.5 28.7-25.1 8.8-10.1 17-21.3 21.7-34 4.7-12.8 5.4-26.8 4.3-40.3ZM1034.5 1189c-8.3-.8-16.7-1.8-25-2.6-15-1.6-30.1-3.2-45.1-4.8l-60.9-6.6c-24.1-2.6-48.3-5.2-72.4-7.8-26.5-2.9-53.1-5.7-79.6-8.6-27.5-3-55-5.9-82.5-8.9-27-2.9-54.1-5.8-81.1-8.8-25.2-2.7-50.3-5.4-75.5-8.2-21.8-2.4-43.6-4.7-65.5-7.1-17.1-1.8-34.1-3.7-51.2-5.6-32-3.5-63.9-7.3-95.8-11.6-23.9-3.2-47.8-6.2-71.7-9.4-12-1.6-23.9-3.3-35.8-5.2-18.1-2.9-35.1-3.2-49-16.7-10.8-10.6-16.9-25.4-18.5-40.2-1-8.9-.3-17.8 1.1-26.6 2-12.2 5.5-24.3 8.4-36.4 1.4-5.7 2.8-11.5 4.2-17.2 0 25.3 5.2 47.6 15.4 66.2 13.4 24.4 34.7 43.4 60.1 53.4 22.8 9 47.7 14 71.2 20 36.1 9.3 72.9 16.3 110 20.3h.5c17.1 1.8 34.1 3.7 51.2 5.6 21.8 2.4 43.6 4.7 65.5 7.1 25.2 2.7 50.3 5.4 75.5 8.2 27 2.9 54.1 5.8 81.1 8.8 27.5 3 55 5.9 82.5 8.9 26.5 2.9 53.1 5.7 79.6 8.6 24.1 2.6 48.3 5.2 72.4 7.8l60.9 6.6c15 1.6 30.1 3.2 45.1 4.8 8.3.9 16.7 1.8 25 2.6h.1c22.1 2.2 43.9 6.2 65.9 9.8 2.8.4 5.5.9 8.3 1.4-29.4-4-38.2-4.4-74.2-8h-.1Zm1815.7-124.2c-5.4 5.2-11.2 9.8-17.4 13.9-14.1 9.3-29.5 15.2-46 18.6-29.2 6.1-59.6 7.2-89.4 8.6-10.6.5-21.2 1-31.9 1.5-13.5.7-27.1 1.3-40.6 1.9-16 .8-32.1 1.5-48.1 2.3-18.1.9-36.3 1.8-54.4 2.6-19.8.9-39.6 1.9-59.5 2.9-21.1 1-42.2 2-63.3 3.1-22 1.1-44 2.1-66 3.2-22.5 1.1-44.9 2.2-67.4 3.2-22.5 1.1-45.1 2.2-67.6 3.2-22.2 1.1-44.4 2.1-66.6 3.2-21.4 1-42.9 2.1-64.4 3.1-20.3 1-40.6 1.9-60.9 2.9-18.8.9-37.5 1.8-56.3 2.7h-1c-10.2.5-20.1.6-30.1-1.9-9.7-2.4-18.9-6.7-27.1-12.5-3.7-2.6-7.1-5.8-9.9-9.3-19.5-24.3-17.3-57.8-8.8-86 5.9-19.4 15.4-37.4 24.6-55.3 10.2-20 21.1-39.9 31.6-59.5 8.7-16.2 17.4-32.4 26.1-48.5l10.8-20.1c12.7-23.5 25.3-47 38-70.5 5.9-11 11.8-22 18.1-32.7 10.4-17.6 17.7-37.3 18.8-57.8.2-4.3.2-8.7-.2-13-3.1-39.8-29.4-73.3-66.8-86.9-19.7-7.2-42.2-5.8-62.7-3l-412.1 73.9c-31.8 5.7-63 18.3-84.8 36.6q-9.75 8.1-18 17.7c-33.5 38.8-37.2 84.4-40.8 128.5l-.6 6.9c-2.5 30.3-2.5 61.2-5.5 91.1v.8c-4.4 42.8-9.2 88.6-14.8 140.1-3.5 32.4-6.5 65.5-31.2 89.8-19.1 18.8-45.6 32.1-72.3 34.6-18.1 1.7-37 .6-54.8-3.3-7.7-1.7-15.3-3.4-23-5.2-18.9-4.3-38-8.2-57.1-11.8-37.2-6.9-74.7-12.8-88.8-15-3.7-.6-6.8-2.8-8.7-6-1.9-3.4-5.3-5.6-9.2-6l-672.8-72.5c-29.7-3.2-60.1-6.1-88.8-14.8-3.7-1.1-7.4-2.4-11-3.8-23.1-9.1-42.6-26.7-54.4-48.4-11.3-20.7-14.8-44.5-14-67.9q.3-8.25 1.2-16.5v-1.4c2.2-22.3 4.4-44.8 10-66.6 5.7-22.2 11.2-44.6 16.7-66.8.2-.7.3-1.3.5-2 5.7-22.5 12.4-44.7 18.2-67.1 5.8-22 9.9-44.6 16.1-66.4 4.2-17.5 11.8-34.5 20-50.5 19.1-37.3 46.3-68 81.5-90.8q5.7-3.75 11.7-7.2c37.9-22.1 79.7-37 123-43.9 21.7-3.4 44-3.8 65.8-5.6 22.3-1.9 44.7-4.6 66.3-10.5 20.3-5.5 40-13.5 58.7-23.2 36-18.7 67.2-45.5 95-74.6 12.4-13 24.3-26.6 35.8-39.8 8.1-9.3 16.4-18.9 24.8-28 7.1-7.8 14.4-15.4 21.9-22.9 20.5-20.4 42.2-39.5 65.8-56.2 23.9-16.9 49.9-31 76.4-43.4 26.7-12.6 54.4-22.9 82.9-30.7 20.6-5.7 41.6-10 62.8-13.1 30.1-4.3 60.6-4.9 90.9-5h825s16.2-1.2 29.6 11.4 40 38.1 40 38.1 8.3 8.3 22.3 8.3h113.4c6.4 0 13.4-.6 19.2-3.6 5.5-2.8 9.8-7.5 14.2-11.8 4.4-4.4 9.3-8.4 14.3-12.2 10.9-8.3 22.8-15.6 35.5-20.8 12.5-5.2 25.1-7.2 38.5-8.2 23.1-1.6 71.5-.3 72.6-.2 6.4.1 12.7.2 19.1.4h2.1c28.2.9 57.5 4.1 83.2 16.3 24.5 11.7 45.9 29.1 62.7 50.4 17.3 21.9 28.7 48.1 33.4 75.6 4.6 27.3 3.8 55.1-2.2 80.4-5.5 23.3-16.3 46.3-31.1 66.4-14.1 19-32.1 33.1-50.5 47.7-36 28.6-72.6 56.1-109.5 83.4-16.7 12.4-33.4 24.8-50 37.1s-33.1 24.6-49.7 36.9c-8.6 6.4-17.2 12.8-25.8 19.1-18.4 13.7-36.6 27.5-55.6 40.5-8.6 5.9-17.2 12-25 19-7.7 7-14.8 14.6-20.8 23.1-17.3 24.9-24.8 57.1-20.5 88.3 4.2 30.3 19 58.4 40.8 77.1 21.5 18.5 47.5 30.7 75.8 32.8 7.7.6 20.8.4 28 .3l435.1-6.5c17.6-.2 34.1-.2 51.1 5.2 16.4 5.2 31.6 14.2 43 27.2 5.7 6.5 10.5 13.8 14.1 21.6 15.7 34 9.6 77.3-17.7 103.6Z" class="cls-1"/>
    <path d="m740.4 1254.3-124.9-13.8" style="fill:none;stroke:#ee302d;stroke-width:6.3px;stroke-miterlimit:10"/>
    <path d="m593.3 1238.1 32.7-9.4-8.8 12 6 13.6z" class="cls-2"/>
    <path d="m671.351 1206.126.703-6.361 6.361.702-.702 6.361z" class="cls-1"/>
    <path d="m665.064 1205.411.703-6.361 6.36.702-.701 6.361z" class="cls-7"/>
    <path d="m672.066 1199.839.702-6.361 6.362.702-.702 6.361zm-5.572-7.102.702-6.361 6.362.702-.703 6.361z" class="cls-7"/>
    <path d="m673.496 1187.165.702-6.362 6.362.703-.703 6.361z" class="cls-7"/>
    <path d="m667.924 1180.163.702-6.362 6.361.703-.702 6.361zm6.902-5.683.703-6.362 6.36.703-.701 6.36z" class="cls-7"/>
    <path d="m669.254 1167.478.702-6.362 6.362.703-.703 6.36z" class="cls-7"/>
    <path d="m676.256 1161.905.702-6.361 6.362.702-.703 6.362zm-5.572-7.102.702-6.361 6.361.702-.702 6.362z" class="cls-7"/>
    <path d="m677.686 1149.231.702-6.361 6.361.702-.702 6.361zm-5.672-7.013.702-6.361 6.362.702-.703 6.362z" class="cls-7"/>
    <path d="m679.016 1136.646.702-6.361 6.362.702-.703 6.361zm-5.572-7.102.702-6.361 6.361.702-.702 6.361z" class="cls-7"/>
    <path d="m680.446 1123.972.702-6.362 6.361.703-.702 6.361z" class="cls-7"/>
    <path d="m665.78 1199.124.701-6.361 6.362.702-.703 6.361zm7.001-5.672.702-6.362 6.362.703-.703 6.361z" class="cls-1"/>
    <path d="m667.209 1186.45.702-6.361 6.361.702-.702 6.361z" class="cls-1"/>
    <path d="m674.21 1180.878.703-6.362 6.361.703-.702 6.36zm-5.67-7.113.701-6.362 6.362.703-.703 6.361z" class="cls-1"/>
    <path d="m675.541 1168.192.702-6.36 6.362.701-.703 6.362z" class="cls-1"/>
    <path d="m669.969 1161.19.702-6.36 6.361.701-.702 6.362zm7.001-5.672.703-6.361 6.361.702-.702 6.362z" class="cls-1"/>
    <path d="m671.399 1148.516.702-6.361 6.361.702-.702 6.362z" class="cls-1"/>
    <path d="m678.301 1142.933.702-6.361 6.362.702-.703 6.361zm-5.572-7.102.702-6.361 6.362.702-.703 6.361z" class="cls-1"/>
    <path d="m679.73 1130.259.703-6.361 6.361.702-.702 6.361z" class="cls-1"/>
    <path d="m674.148 1123.356.702-6.361 6.361.702-.702 6.362z" class="cls-1"/>
    <path d="m2793.7 1428 100.5-48.7-21.8 43.7 27.1 40.6z" class="cls-2"/>
    <path d="m2705.6 1382.4 37.2 59.9h.2v-59.9h18.4v89.2h-19.6l-37.1-59.8h-.2v59.8h-18.4v-89.2z"/>
  </g>
</svg>
