<!--Watkins Glen International, traced single-line outline.
     Derived from File:Watkins_Glen_International_Long_Circuit_2024.svg by Stl66dmk (CC BY-SA 4.0) on Wikimedia Commons. The source draws
     the track as a filled band; its racing-line centerline was extracted by
     scripts/derive-map-from-band.mjs (even-odd raster, skeleton, cycle walk)
     and affine-fit to the normalized 0 0 1000 1000 viewBox. License is
     recorded in LICENSE-ASSETS.md. To re-fetch the source, see
     scripts/fetch-map.mjs.-->
<svg xmlns="http://www.w3.org/2000/svg" aria-label="Watkins Glen International track map" role="img" viewBox="0 0 1000 1000">
  <path fill="none" stroke="#1f1f21" stroke-linecap="round" stroke-linejoin="round" stroke-width="10" d="m367.1 322 15-1.7h292.2l4.8 1.8 14.2 12.5 6.4 3.5 35.5.2 5.1-1.5 14.7-12 7.4-3.7 6.4-.8h40.9l15.1 2.1 6.9 2.4 10.2 5.4 10.7 9.6 10.6 16.6 4.4 18.2.1 11.9-1.2 7.3-2.1 8.2-4.2 9.4-8.8 12.1-6.1 5.9-100 74.8-13.5 11.7-5.5 8.5-2.6 8.7-.1 12.2 1.9 7.8 3.9 7.5 9.2 10 10.5 5.6 10.5 2.1 122.7-1.8h37l6.8 1.2 12 6.3 5.9 6.5 3.5 6.2 1.9 6.6.6 10.2-3.7 11.3-5.8 6.7-11.9 8.8-6.9 2.7-11.6 2.1L687 655.9l-35.5 1.9-15.1-.2-7.3-2.4-6.8-5.2-3-4.4-2.7-7.3v-13.1l5.3-15.6 46-86.2 3.8-9.4 1.1-9.1-3.7-12.4-13.8-13.2-9.2-2.7-12.1.2-133 23.9-13.6 4.3-17.3 11.7-7.9 11.8-4.4 14.9-4.1 49.6-7 59.6-3.4 8.1-5.8 7.4-8.5 6-8.3 3.8-8.9 1.8-15.1-.5-20.9-3.2-8.5.2-237.5-25.7-64.4-8.6-3.8-1.4-6.1-5.2L52 631l-1.9-5.8-.1-12.7 3-13.9 3.6-7.9 5.4-27.5 19.7-72.5 7.5-14.8 10.8-13.3 15.8-12.7 18.9-9.2 19.5-5.3 44.8-5.7 13.1-4.4 11.4-5.7 8.2-5.3 11.5-9.8 33-35.3 22.1-19.2 17.6-10.6 12.2-5.8 22.4-7.8Z"/>
</svg>
