<!--Created with Inkscape (http://www.inkscape.org/)-->
<svg xmlns="http://www.w3.org/2000/svg" xmlns:xlink="http://www.w3.org/1999/xlink" id="svg4885" width="1396.764" height="991.234">
  <defs id="defs4887">
    <clipPath id="clipPath5481" clipPathUnits="userSpaceOnUse">
      <path id="path5483" d="M754.12 383.799h1430.017v991.234H754.12z" style="fill:none;fill-opacity:1;fill-rule:nonzero;stroke:#c8c8c8;stroke-width:12;stroke-linecap:square;stroke-linejoin:round;stroke-miterlimit:4;stroke-dashoffset:0;stroke-opacity:1"/>
    </clipPath>
    <clipPath id="clipPath5485" clipPathUnits="userSpaceOnUse">
      <path id="path5487" d="M754.12 383.799h1430.017v991.234H754.12z" style="fill:none;fill-opacity:1;fill-rule:nonzero;stroke:#c8c8c8;stroke-width:12;stroke-linecap:square;stroke-linejoin:round;stroke-miterlimit:4;stroke-dashoffset:0;stroke-opacity:1"/>
    </clipPath>
    <clipPath id="clipPath5489" clipPathUnits="userSpaceOnUse">
      <path id="path5491" d="M754.12 383.799h1430.017v991.234H754.12z" style="fill:none;fill-opacity:1;fill-rule:nonzero;stroke:#c8c8c8;stroke-width:12;stroke-linecap:square;stroke-linejoin:round;stroke-miterlimit:4;stroke-dashoffset:0;stroke-opacity:1"/>
    </clipPath>
    <clipPath id="clipPath5493" clipPathUnits="userSpaceOnUse">
      <path id="path5495" d="M754.12 383.799h1430.017v991.234H754.12z" style="fill:none;fill-opacity:1;fill-rule:nonzero;stroke:#c8c8c8;stroke-width:12;stroke-linecap:square;stroke-linejoin:round;stroke-miterlimit:4;stroke-dashoffset:0;stroke-opacity:1"/>
    </clipPath>
    <clipPath id="clipPath5497" clipPathUnits="userSpaceOnUse">
      <path id="path5499" d="M754.12 383.799h1430.017v991.234H754.12z" style="fill:none;fill-opacity:1;fill-rule:nonzero;stroke:#c8c8c8;stroke-width:12;stroke-linecap:square;stroke-linejoin:round;stroke-miterlimit:4;stroke-dashoffset:0;stroke-opacity:1"/>
    </clipPath>
    <clipPath id="clipPath5501" clipPathUnits="userSpaceOnUse">
      <path id="path5503" d="M754.12 383.799h1430.017v991.234H754.12z" style="fill:none;fill-opacity:1;fill-rule:nonzero;stroke:#c8c8c8;stroke-width:12;stroke-linecap:square;stroke-linejoin:round;stroke-miterlimit:4;stroke-dashoffset:0;stroke-opacity:1"/>
    </clipPath>
    <clipPath id="clipPath5505" clipPathUnits="userSpaceOnUse">
      <path id="path5507" d="M750.21 389.814h1430.017v991.234H750.21z" style="fill:none;fill-opacity:1;fill-rule:nonzero;stroke:#c8c8c8;stroke-width:12;stroke-linecap:square;stroke-linejoin:round;stroke-miterlimit:4;stroke-dashoffset:0;stroke-opacity:1"/>
    </clipPath>
    <clipPath id="clipPath5509" clipPathUnits="userSpaceOnUse">
      <path id="path5511" d="M754.12 383.799h1430.017v991.234H754.12z" style="fill:none;fill-opacity:1;fill-rule:nonzero;stroke:#c8c8c8;stroke-width:12;stroke-linecap:square;stroke-linejoin:round;stroke-miterlimit:4;stroke-dashoffset:0;stroke-opacity:1"/>
    </clipPath>
    <clipPath id="clipPath5513" clipPathUnits="userSpaceOnUse">
      <path id="path5515" d="M754.12 383.799h1430.017v991.234H754.12z" style="fill:none;fill-opacity:1;fill-rule:nonzero;stroke:#c8c8c8;stroke-width:12;stroke-linecap:square;stroke-linejoin:round;stroke-miterlimit:4;stroke-dashoffset:0;stroke-opacity:1"/>
    </clipPath>
    <clipPath id="clipPath5517" clipPathUnits="userSpaceOnUse">
      <path id="path5519" d="M754.12 383.799h1430.017v991.234H754.12z" style="fill:none;fill-opacity:1;fill-rule:nonzero;stroke:#c8c8c8;stroke-width:12;stroke-linecap:square;stroke-linejoin:round;stroke-miterlimit:4;stroke-dashoffset:0;stroke-opacity:1"/>
    </clipPath>
    <clipPath id="clipPath5521" clipPathUnits="userSpaceOnUse">
      <path id="path5523" d="M754.12 383.799h1430.017v991.234H754.12z" style="fill:none;fill-opacity:1;fill-rule:nonzero;stroke:#c8c8c8;stroke-width:12;stroke-linecap:square;stroke-linejoin:round;stroke-miterlimit:4;stroke-dashoffset:0;stroke-opacity:1"/>
    </clipPath>
    <clipPath id="clipPath5525" clipPathUnits="userSpaceOnUse">
      <path id="path5527" d="M754.12 383.799h1430.017v991.234H754.12z" style="fill:none;fill-opacity:1;fill-rule:nonzero;stroke:#c8c8c8;stroke-width:12;stroke-linecap:square;stroke-linejoin:round;stroke-miterlimit:4;stroke-dashoffset:0;stroke-opacity:1"/>
    </clipPath>
    <clipPath id="clipPath5529" clipPathUnits="userSpaceOnUse">
      <path id="path5531" d="M754.12 383.799h1430.017v991.234H754.12z" style="fill:none;fill-opacity:1;fill-rule:nonzero;stroke:#c8c8c8;stroke-width:12;stroke-linecap:square;stroke-linejoin:round;stroke-miterlimit:4;stroke-dashoffset:0;stroke-opacity:1"/>
    </clipPath>
    <clipPath id="clipPath5533" clipPathUnits="userSpaceOnUse">
      <path id="path5535" d="M754.12 383.799h1430.017v991.234H754.12z" style="fill:none;fill-opacity:1;fill-rule:nonzero;stroke:#c8c8c8;stroke-width:12;stroke-linecap:square;stroke-linejoin:round;stroke-miterlimit:4;stroke-dashoffset:0;stroke-opacity:1"/>
    </clipPath>
    <clipPath id="clipPath5537" clipPathUnits="userSpaceOnUse">
      <path id="path5539" d="M754.12 383.799h1430.017v991.234H754.12z" style="fill:none;fill-opacity:1;fill-rule:nonzero;stroke:#c8c8c8;stroke-width:12;stroke-linecap:square;stroke-linejoin:round;stroke-miterlimit:4;stroke-dashoffset:0;stroke-opacity:1"/>
    </clipPath>
    <clipPath id="clipPath5541" clipPathUnits="userSpaceOnUse">
      <path id="path5543" d="M754.12 383.799h1430.017v991.234H754.12z" style="fill:none;fill-opacity:1;fill-rule:nonzero;stroke:#c8c8c8;stroke-width:12;stroke-linecap:square;stroke-linejoin:round;stroke-miterlimit:4;stroke-dashoffset:0;stroke-opacity:1"/>
    </clipPath>
    <pattern id="pattern4912" width="18.181" height="18.138" patternTransform="translate(763.477 1693.907)scale(.17379)" patternUnits="userSpaceOnUse">
      <g id="g4907" transform="translate(-1025.535 -1215.281)">
        <path id="rect4899" d="M1025.535 1215.281h18.173v18.096h-18.173z" style="opacity:1;fill:#000;fill-opacity:1;stroke:none;stroke-width:.5;stroke-linecap:round;stroke-linejoin:round;stroke-miterlimit:4;stroke-dasharray:none;stroke-dashoffset:0;stroke-opacity:1"/>
        <path id="rect4903" d="M1025.535 1215.281h9.075v9.075h-9.075z" style="opacity:1;fill:#fff;fill-opacity:1;stroke:none;stroke-width:.5;stroke-linecap:round;stroke-linejoin:round;stroke-miterlimit:4;stroke-dasharray:none;stroke-dashoffset:0;stroke-opacity:1"/>
        <path id="rect4905" d="M1034.641 1224.344h9.075v9.075h-9.075z" style="opacity:1;fill:#fff;fill-opacity:1;stroke:none;stroke-width:.5;stroke-linecap:round;stroke-linejoin:round;stroke-miterlimit:4;stroke-dasharray:none;stroke-dashoffset:0;stroke-opacity:1"/>
      </g>
    </pattern>
    <pattern xlink:href="#pattern4912" id="pattern4166" patternTransform="translate(521.049 -1945.013)scale(.45625)"/>
  </defs>
  <g id="layer1" transform="translate(-754.12 -383.799)">
    <path id="path5599" d="M2080.065 637.235c-11.778 24.197-37.725 43.01-50.86 62.493-22.357 33.158-33.759 61.57-52.568 97.237-23.462 44.489-45.029 89.856-71.866 131.993-15.833 24.86-40.576 49.649-58.145 66.52-19.844 19.055-42.847 34.26-66.52 48.289-19.396 11.493-39.255 21.221-60.497 28.85-25.171 9.04-52.252 13.983-78.96 17.66-35.178 4.842-70.587 5.076-105.81 9.612-17.418 2.243-33.867 11.89-51.348 13.488-56.693 5.181-114.025 7.822-171.08 8.374-66.57.645-134.588-7.848-199.793-4.785-12 .554-17.071 14.012-21.607 18.684" clip-path="url(#clipPath5501)" style="fill:none;fill-rule:evenodd;stroke:#fff;stroke-width:4;stroke-linecap:round;stroke-linejoin:round;stroke-miterlimit:4;stroke-dasharray:none;stroke-opacity:1"/>
    <path id="path5597" d="M960.341 1307.526c5.743 7.098 14.268 10.211 23.235 8.492 13.045-2.502 21.601-15.12 19.1-28.164-2.502-13.045 1.942-13.53 6.166-16.578 9.833-7.094 25.339-16.18 36.459-28.412 12.807-14.088 23.047-30.302 29.909-48.141 5.102-13.266 5.457-28.56 9.892-41.866 2.344-7.033 7.667-15.671 14.356-17.946 13.25-4.505 30.291-2.319 45.462-2.393 66.98-.325 134.023 2.557 200.99 1.197 90.155-1.83 180.532-4.55 270.377-10.767 25.404-1.759 51.015-6.171 75.371-13.16 21.504-6.171 42.28-15.979 62.211-26.32 22.34-11.592 43.518-25.643 64.604-39.48 17.197-11.286 35.104-22.162 50.247-35.891 14.766-13.388 27.504-29.426 39.48-45.462 11.553-15.469 21.693-32.141 31.105-49.051 37.645-67.633 75.28-135.434 110.066-204.578 29.817-59.266 58.172-119.802 83.745-180.651 6.126-14.576-2.797-36.373-13.48-35.898-9.827.437-13.319 15.494-16.155 28.419-2.262 10.309-8.356 26.732-17.631 32.329-13.854 8.36-30.598 7.948-47.246 9.844-14.856 1.693-31.322.584-45.462-3.589-10.186-3.005-22.333-8.752-27.516-17.945-15.953-28.293-25.612-52.456-39.802-82.782-6.149-13.142-13.916-32.081-24.522-38.9-6.143-3.949-17.895-7.98-25.725-4.832-81.641 32.827-155.708 61.43-234.166 95.408-73.48 31.823-146.558 65.063-217.738 101.691-79.163 40.737-151.352 81.812-225.772 123.185-12.206 6.787-16.414 26.584-11.122 36.56 39.24 73.966 77.295 141.751 112.458 217.11 11.863 25.423 17.125 50.144 21.528 77.442 1.579 9.79-.877 25.099-6.89 31.113-7.147 7.146-17.637 8.365-29.582 8.067-117.966-2.95-233.671-8.368-350.535-14.056-39.041-1.9-79.611-6.77-117.243-2.693-10.223 1.107-20.533 13.752-25.719 22.156-6.379 10.339-7.336 25.339-8.374 38.284-2.988 37.267.206 75.866 5.995 112.759 1.198 7.632 7.25 21.39 14.67 21.842 41.668 2.538 87.738 1.287 132.47 8.962 8.928 1.532 19.028 7.58 24.784 14.695" clip-path="url(#clipPath5481)" style="fill:none;fill-rule:evenodd;stroke:#fefefe;stroke-width:12;stroke-linecap:round;stroke-linejoin:round;stroke-miterlimit:4;stroke-dasharray:none;stroke-opacity:1"/>
    <path id="path5595" d="M999.196 1298.402a24.063 24.063 0 1 1-48.125 0 24.063 24.063 0 1 1 48.125 0z" clip-path="url(#clipPath5505)" style="opacity:1;fill:none;fill-opacity:1;fill-rule:nonzero;stroke:#fff;stroke-width:14;stroke-linecap:square;stroke-linejoin:round;stroke-miterlimit:4;stroke-dasharray:none;stroke-dashoffset:0;stroke-opacity:1" transform="translate(3.91 -6.016)"/>
    <path id="path5593" d="M974.83 382.088c67.793 126.017 145.97 266.38 213.16 392.718 36.096 67.873 73.987 135.13 106.476 204.578 10.979 23.47 20.74 48.673 23.927 74.175 5.187 41.495 4.697 85.444 1.196 126.814-.886 10.472-13.305 18.827-14.356 28.713-.943 8.857 2.271 19.033 8.374 23.305 5.86 4.103 19.43 2.167 24.208-2.994 5.191-5.606 8.109-16.123 5.701-25.097-1.979-7.376-12.005-11.885-15.552-19.141-5.226-10.69-7.48-23.732-6.557-35.597" clip-path="url(#clipPath5529)" style="fill:none;fill-rule:evenodd;stroke:#fff;stroke-width:14;stroke-linecap:square;stroke-linejoin:round;stroke-miterlimit:4;stroke-dasharray:none;stroke-opacity:1"/>
    <g id="g5581">
      <path id="path5561" d="M770 1115.226c-8.822 80.609-14.036 168.136-22.859 248.746" clip-path="url(#clipPath5541)" style="fill:none;fill-rule:evenodd;stroke:#fff;stroke-width:14;stroke-linecap:square;stroke-linejoin:round;stroke-miterlimit:4;stroke-dasharray:none;stroke-opacity:1"/>
      <path id="path5563" d="M836.287 1376.232c-11.229-25.666-32.196-65.193-41.02-91.667-9.223-27.667-11.905-56.67-13.536-85.421-1.577-27.795.3-56.146 3.91-84.22" clip-path="url(#clipPath5537)" style="fill:none;fill-rule:evenodd;stroke:#fff;stroke-width:14;stroke-linecap:square;stroke-linejoin:round;stroke-miterlimit:4;stroke-dasharray:none;stroke-opacity:1"/>
      <path id="path5565" d="M1752.955 1089.66c54.541 104.671 103.55 183.201 102.265 191.296-3.08 19.398-63.866 57.95-107.379 96.852" clip-path="url(#clipPath5533)" style="fill:none;fill-rule:evenodd;stroke:#fff;stroke-width:14;stroke-linecap:square;stroke-linejoin:round;stroke-miterlimit:4;stroke-dasharray:none;stroke-opacity:1"/>
      <path id="path5567" d="M2119.982 379.773c-.399 23.528.328 58.35-2.418 81.586-2.439 20.63-8.936 40.849-14.357 61.014-4.549 16.922-8.079 34.434-15.552 50.247-30.412 64.344-65 127.026-98.102 190.222-28.31 54.048-53.648 110.265-86.139 161.51-16.56 26.12-38.265 49.714-61.014 70.585-20.719 19.008-44.664 35.617-69.39 49.05-25.92 14.084-53.864 26.855-82.548 33.499-41.902 9.706-85.983 12.129-129.207 15.553-77.609 6.147-155.485 13.311-233.291 13.16-126.773-.248-253.656-8.973-380.444-14.357-61.041-2.592-133.03-8.825-194.044-12.015" clip-path="url(#clipPath5525)" style="fill:none;fill-rule:evenodd;stroke:#fff;stroke-width:14;stroke-linecap:square;stroke-linejoin:round;stroke-miterlimit:4;stroke-dasharray:none;stroke-opacity:1"/>
      <path id="path5569" d="M2143.884 379.747s-7.074 139.753-10.768 148.608c-25.417 60.933-53.928 121.385-83.745 180.65-34.787 69.145-72.42 136.946-110.066 204.579-9.412 16.91-19.553 33.582-31.105 49.05-11.976 16.037-24.714 32.075-39.48 45.463-15.143 13.73-33.05 24.605-50.247 35.89-21.086 13.838-42.264 27.89-64.604 39.48-19.931 10.342-40.707 20.15-62.21 26.32-24.358 6.99-49.968 11.402-75.372 13.16-89.845 6.218-180.222 8.937-270.378 10.768-66.966 1.36-134.01-1.522-200.989-1.197-15.17.074-378.064-10.486-391.314-21.534" clip-path="url(#clipPath5517)" style="fill:none;fill-rule:evenodd;stroke:#fff;stroke-width:14;stroke-linecap:round;stroke-linejoin:round;stroke-miterlimit:4;stroke-dasharray:none;stroke-opacity:1"/>
      <path id="path5571" d="M752.513 961.439c18.344-7.976 35.588-21.112 55.032-23.928 38.38-5.558 80.014 5.374 118.44-1.196 38.54-6.59 79.176-19.092 112.459-38.284 21.351-12.312 37.43-35.422 51.443-56.229 12.307-18.274 12.348-46.179 27.517-61.014 21.12-20.657 54.26-30.264 81.352-45.462 87.36-49.007 171.157-97.6 261.102-141.438 54.028-26.333 111.667-53.349 166.903-77.19 103.028-44.468 228.2-92.964 333.88-135.236" clip-path="url(#clipPath5513)" style="fill:none;fill-rule:evenodd;stroke:#fff;stroke-width:14;stroke-linecap:square;stroke-linejoin:round;stroke-miterlimit:4;stroke-dasharray:none;stroke-opacity:1"/>
      <path id="path5573" d="M856.626 1371.19c-2.808-11.229-8.422-22.529-8.422-33.687 0-9.295 3.134-20.402 8.422-27.672 4.337-5.964 13.091-9.517 20.453-12.031 9.081-3.101 28.574-8.923 39.703-8.121" clip-path="url(#clipPath5509)" style="fill:none;fill-rule:evenodd;stroke:#fff;stroke-width:14;stroke-linecap:square;stroke-linejoin:round;stroke-miterlimit:4;stroke-dasharray:none;stroke-opacity:1"/>
      <path id="path5575" d="M749.965 754.571 996.57 640.813l256.022-112.458 267.985-110.066 95.89-35.968" clip-path="url(#clipPath5497)" style="fill:none;fill-rule:evenodd;stroke:#fff;stroke-width:14;stroke-linecap:square;stroke-linejoin:round;stroke-miterlimit:4;stroke-dasharray:none;stroke-opacity:1"/>
      <path id="path5577" d="M745.024 728.355c120.833-53.837 255.834-118.601 377.165-171.287 99.996-43.422 200.99-84.543 301.484-126.815 0 0 79.218-33.602 112.717-49.154" clip-path="url(#clipPath5493)" style="fill:none;fill-rule:evenodd;stroke:#fff;stroke-width:14;stroke-linecap:square;stroke-linejoin:round;stroke-miterlimit:4;stroke-dasharray:none;stroke-opacity:1"/>
      <path id="path5579" d="M792.784 382.106c50.13 90.636 105.149 188.605 155.28 279.24" clip-path="url(#clipPath5489)" style="fill:none;fill-rule:evenodd;stroke:#fff;stroke-width:14;stroke-linecap:square;stroke-linejoin:round;stroke-miterlimit:4;stroke-dasharray:none;stroke-opacity:1"/>
    </g>
    <path id="path5447" d="M770 1115.226c-8.822 80.609-14.036 168.136-22.859 248.746" clip-path="url(#clipPath5541)" style="fill:none;fill-rule:evenodd;stroke:#c8c8c8;stroke-width:12;stroke-linecap:square;stroke-linejoin:round;stroke-miterlimit:4;stroke-dasharray:none;stroke-opacity:1"/>
    <path id="path5445" d="M836.287 1376.232c-11.229-25.666-32.196-65.193-41.02-91.667-9.223-27.667-11.905-56.67-13.536-85.421-1.577-27.795.3-56.146 3.91-84.22" clip-path="url(#clipPath5537)" style="fill:none;fill-rule:evenodd;stroke:#c8c8c8;stroke-width:12;stroke-linecap:square;stroke-linejoin:round;stroke-miterlimit:4;stroke-dasharray:none;stroke-opacity:1"/>
    <path id="path5439" d="M1752.955 1089.66c54.541 104.671 103.55 183.201 102.265 191.296-3.08 19.398-63.866 57.95-107.379 96.852" clip-path="url(#clipPath5533)" style="fill:none;fill-rule:evenodd;stroke:#c8c8c8;stroke-width:12;stroke-linecap:square;stroke-linejoin:round;stroke-miterlimit:4;stroke-dasharray:none;stroke-opacity:1"/>
    <path id="path5429" d="M974.83 382.088c67.793 126.017 145.97 266.38 213.16 392.718 36.096 67.873 73.987 135.13 106.476 204.578 10.979 23.47 20.74 48.673 23.927 74.175 5.187 41.495 4.697 85.444 1.196 126.814-.886 10.472-13.305 18.827-14.356 28.713-.943 8.857 2.271 19.033 8.374 23.305 5.86 4.103 19.43 2.167 24.208-2.994 5.191-5.606 8.109-16.123 5.701-25.097-1.979-7.376-12.005-11.885-15.552-19.141-5.226-10.69-7.48-23.732-6.557-35.597" clip-path="url(#clipPath5529)" style="fill:none;fill-rule:evenodd;stroke:#c8c8c8;stroke-width:12;stroke-linecap:square;stroke-linejoin:round;stroke-miterlimit:4;stroke-dasharray:none;stroke-opacity:1"/>
    <path id="path5421" d="M2119.982 379.773c-.399 23.528.328 58.35-2.418 81.586-2.439 20.63-8.936 40.849-14.357 61.014-4.549 16.922-8.079 34.434-15.552 50.247-30.412 64.344-65 127.026-98.102 190.222-28.31 54.048-53.648 110.265-86.139 161.51-16.56 26.12-38.265 49.714-61.014 70.585-20.719 19.008-44.664 35.617-69.39 49.05-25.92 14.084-53.864 26.855-82.548 33.499-41.902 9.706-85.983 12.129-129.207 15.553-77.609 6.147-155.485 13.311-233.291 13.16-126.773-.248-253.656-8.973-380.444-14.357-61.041-2.592-133.03-8.825-194.044-12.015" clip-path="url(#clipPath5525)" style="fill:none;fill-rule:evenodd;stroke:#d0e21a;stroke-width:12;stroke-linecap:square;stroke-linejoin:round;stroke-miterlimit:4;stroke-dasharray:none;stroke-opacity:1"/>
    <path id="path5470" d="M1005.233 1273.683c9.833-7.095 28.948-18.586 40.068-30.819 12.807-14.088 23.047-30.302 29.909-48.141 5.102-13.266 11.171-44.201 10.493-57.507" clip-path="url(#clipPath5521)" style="fill:none;fill-rule:evenodd;stroke:#c8c8c8;stroke-width:12;stroke-linecap:square;stroke-linejoin:round;stroke-miterlimit:4;stroke-dasharray:none;stroke-opacity:1"/>
    <path id="path5427" d="M2143.884 379.747s-7.074 139.753-10.768 148.608c-25.417 60.933-53.928 121.385-83.745 180.65-34.787 69.145-72.42 136.946-110.066 204.579-9.412 16.91-19.553 33.582-31.105 49.05-11.976 16.037-24.714 32.075-39.48 45.463-15.143 13.73-33.05 24.605-50.247 35.89-21.086 13.838-42.264 27.89-64.604 39.48-19.931 10.342-40.707 20.15-62.21 26.32-24.358 6.99-49.968 11.402-75.372 13.16-89.845 6.218-180.222 8.937-270.378 10.768-66.966 1.36-134.01-1.522-200.989-1.197-15.17.074-378.064-10.486-391.314-21.534" clip-path="url(#clipPath5517)" style="fill:none;fill-rule:evenodd;stroke:#d0e21a;stroke-width:12;stroke-linecap:round;stroke-linejoin:round;stroke-miterlimit:4;stroke-dasharray:none;stroke-opacity:1"/>
    <path id="path5431" d="M752.513 961.439c18.344-7.976 35.588-21.112 55.032-23.928 38.38-5.558 80.014 5.374 118.44-1.196 38.54-6.59 79.176-19.092 112.459-38.284 21.351-12.312 37.43-35.422 51.443-56.229 12.307-18.274 12.348-46.179 27.517-61.014 21.12-20.657 54.26-30.264 81.352-45.462 87.36-49.007 171.157-97.6 261.102-141.438 54.028-26.333 111.667-53.349 166.903-77.19 103.028-44.468 228.2-92.964 333.88-135.236" clip-path="url(#clipPath5513)" style="fill:none;fill-rule:evenodd;stroke:#c8c8c8;stroke-width:12;stroke-linecap:square;stroke-linejoin:round;stroke-miterlimit:4;stroke-dasharray:none;stroke-opacity:1"/>
    <path id="path5441" d="M856.626 1371.19c-2.808-11.229-8.422-22.529-8.422-33.687 0-9.295 3.134-20.402 8.422-27.672 4.337-5.964 13.091-9.517 20.453-12.031 9.081-3.101 28.574-8.923 39.703-8.121" clip-path="url(#clipPath5509)" style="fill:none;fill-rule:evenodd;stroke:#c8c8c8;stroke-width:12;stroke-linecap:square;stroke-linejoin:round;stroke-miterlimit:4;stroke-dasharray:none;stroke-opacity:1"/>
    <path id="path5443" d="M999.196 1298.402a24.063 24.063 0 1 1-48.125 0 24.063 24.063 0 1 1 48.125 0z" clip-path="url(#clipPath5505)" style="opacity:1;fill:none;fill-opacity:1;fill-rule:nonzero;stroke:#c8c8c8;stroke-width:12;stroke-linecap:square;stroke-linejoin:round;stroke-miterlimit:4;stroke-dasharray:none;stroke-dashoffset:0;stroke-opacity:1" transform="translate(3.91 -6.016)"/>
    <path id="path5419" d="M2080.065 637.235c-11.778 24.197-37.725 43.01-50.86 62.493-22.357 33.158-33.759 61.57-52.568 97.237-23.462 44.489-45.029 89.856-71.866 131.993-15.833 24.86-40.576 49.649-58.145 66.52-19.844 19.055-42.847 34.26-66.52 48.289-19.396 11.493-39.255 21.221-60.497 28.85-25.171 9.04-52.252 13.983-78.96 17.66-35.178 4.842-70.587 5.076-105.81 9.612-17.418 2.243-33.867 11.89-51.348 13.488-56.693 5.181-114.025 7.822-171.08 8.374-66.57.645-134.588-7.848-199.793-4.785-12 .554-17.071 14.012-21.607 18.684" clip-path="url(#clipPath5501)" style="fill:none;fill-rule:evenodd;stroke:#000;stroke-width:2;stroke-linecap:round;stroke-linejoin:round;stroke-miterlimit:4;stroke-dasharray:none;stroke-opacity:1"/>
    <path id="path5433" d="M749.965 754.571 996.57 640.813l256.022-112.458 267.985-110.066 95.89-35.968" clip-path="url(#clipPath5497)" style="fill:none;fill-rule:evenodd;stroke:#c8c8c8;stroke-width:12;stroke-linecap:square;stroke-linejoin:round;stroke-miterlimit:4;stroke-dasharray:none;stroke-opacity:1"/>
    <path id="path5435" d="M745.024 728.355c120.833-53.837 255.834-118.601 377.165-171.287 99.996-43.422 200.99-84.543 301.484-126.815 0 0 79.218-33.602 112.717-49.154" clip-path="url(#clipPath5493)" style="fill:none;fill-rule:evenodd;stroke:#c8c8c8;stroke-width:12;stroke-linecap:square;stroke-linejoin:round;stroke-miterlimit:4;stroke-dasharray:none;stroke-opacity:1"/>
    <path id="path5437" d="M792.784 382.106c50.13 90.636 105.149 188.605 155.28 279.24" clip-path="url(#clipPath5489)" style="fill:none;fill-rule:evenodd;stroke:#c8c8c8;stroke-width:12;stroke-linecap:square;stroke-linejoin:round;stroke-miterlimit:4;stroke-dasharray:none;stroke-opacity:1"/>
    <path id="path5476" d="M800.982 1283.568c41.668.733 97.964 3.693 143.899 8.361" clip-path="url(#clipPath5485)" style="fill:none;fill-rule:evenodd;stroke:#c8c8c8;stroke-width:12;stroke-linecap:square;stroke-linejoin:round;stroke-miterlimit:4;stroke-dasharray:none;stroke-opacity:1"/>
    <path id="path5463" d="M960.341 1307.526c5.743 7.098 14.268 10.211 23.235 8.492 13.045-2.502 21.601-15.12 19.1-28.164-2.502-13.045 1.942-13.53 6.166-16.578 9.833-7.094 25.339-16.18 36.459-28.412 12.807-14.088 23.047-30.302 29.909-48.141 5.102-13.266 5.457-28.56 9.892-41.866 2.344-7.033 7.667-15.671 14.356-17.946 13.25-4.505 30.291-2.319 45.462-2.393 66.98-.325 134.023 2.557 200.99 1.197 90.155-1.83 180.532-4.55 270.377-10.767 25.404-1.759 51.015-6.171 75.371-13.16 21.504-6.171 42.28-15.979 62.211-26.32 22.34-11.592 43.518-25.643 64.604-39.48 17.197-11.286 35.104-22.162 50.247-35.891 14.766-13.388 27.504-29.426 39.48-45.462 11.553-15.469 21.693-32.141 31.105-49.051 37.645-67.633 75.28-135.434 110.066-204.578 29.817-59.266 58.172-119.802 83.745-180.651 6.126-14.576-2.797-36.373-13.48-35.898-9.827.437-13.319 15.494-16.155 28.419-2.262 10.309-8.356 26.732-17.631 32.329-13.854 8.36-30.598 7.948-47.246 9.844-14.856 1.693-31.322.584-45.462-3.589-10.186-3.005-22.333-8.752-27.516-17.945-15.953-28.293-25.612-52.456-39.802-82.782-6.149-13.142-13.916-32.081-24.522-38.9-6.143-3.949-17.895-7.98-25.725-4.832-81.641 32.827-155.708 61.43-234.166 95.408-73.48 31.823-146.558 65.063-217.738 101.691-79.163 40.737-151.352 81.812-225.772 123.185-12.206 6.787-16.414 26.584-11.122 36.56 39.24 73.966 77.295 141.751 112.458 217.11 11.863 25.423 17.125 50.144 21.528 77.442 1.579 9.79-.877 25.099-6.89 31.113-7.147 7.146-17.637 8.365-29.582 8.067-117.966-2.95-233.671-8.368-350.535-14.056-39.041-1.9-79.611-6.77-117.243-2.693-10.223 1.107-20.533 13.752-25.719 22.156-6.379 10.339-7.336 25.339-8.374 38.284-2.988 37.267.206 75.866 5.995 112.759 1.198 7.632 7.25 21.39 14.67 21.842 41.668 2.538 87.738 1.287 132.47 8.962 8.928 1.532 19.028 7.58 24.784 14.695" clip-path="url(#clipPath5481)" style="fill:none;fill-rule:evenodd;stroke:#000;stroke-width:10;stroke-linecap:round;stroke-linejoin:round;stroke-miterlimit:4;stroke-dasharray:none;stroke-opacity:1"/>
    <g id="g5556" transform="translate(95.628 20.446)">
      <text xml:space="preserve" id="text3180" x="1531.219" y="820.203" style="font-size:64px;font-style:normal;font-weight:400;fill:#000;fill-opacity:1;stroke:#fff;stroke-width:1px;stroke-linecap:butt;stroke-linejoin:miter;stroke-opacity:1;font-family:Times New Roman"><tspan id="tspan3182" x="1531.219" y="820.203">N</tspan></text>
      <path id="path2745" d="m1589.688 774.559 10.556 53.738.953-.394 4.671-14.281 13.402 6.794.953-.394z" style="fill:red;fill-opacity:1;fill-rule:nonzero;stroke:#fff;stroke-width:1;stroke-linecap:round;stroke-linejoin:round;stroke-miterlimit:4;stroke-dasharray:none;stroke-dashoffset:0;stroke-opacity:1"/>
    </g>
    <g id="g5718" transform="translate(-26.597 -2.418)">
      <path id="path5716" d="M2097.505 473.282a24.179 24.179 0 1 1-48.358 0 24.179 24.179 0 1 1 48.358 0z" style="opacity:1;fill:#fff;fill-opacity:1;fill-rule:nonzero;stroke:#181818;stroke-width:1;stroke-linecap:square;stroke-linejoin:round;stroke-miterlimit:4;stroke-dasharray:none;stroke-dashoffset:0;stroke-opacity:1" transform="translate(-924.605 697.34)"/>
      <text xml:space="preserve" id="text5607" x="1138.818" y="1184.136" style="font-size:40px;font-style:normal;font-weight:400;fill:#000;fill-opacity:1;stroke:none;stroke-width:1px;stroke-linecap:butt;stroke-linejoin:miter;stroke-opacity:1;font-family:Times New Roman"><tspan id="tspan5609" x="1138.818" y="1184.136">1</tspan></text>
    </g>
    <g id="g5711" transform="translate(22.836 39.746)">
      <path id="path5709" d="M2097.505 473.282a24.179 24.179 0 1 1-48.358 0 24.179 24.179 0 1 1 48.358 0z" style="opacity:1;fill:#fff;fill-opacity:1;fill-rule:nonzero;stroke:#181818;stroke-width:1;stroke-linecap:square;stroke-linejoin:round;stroke-miterlimit:4;stroke-dasharray:none;stroke-dashoffset:0;stroke-opacity:1" transform="translate(-1033.713 808.561)"/>
      <text xml:space="preserve" id="text5611" x="1030.014" y="1295.358" style="font-size:40px;font-style:normal;font-weight:400;fill:#000;fill-opacity:1;stroke:none;stroke-width:1px;stroke-linecap:butt;stroke-linejoin:miter;stroke-opacity:1;font-family:Times New Roman"><tspan id="tspan5613" x="1030.014" y="1295.358">2</tspan></text>
    </g>
    <g id="g5704" transform="translate(-36.097 12.09)">
      <path id="path5702" d="M2097.505 473.282a24.179 24.179 0 1 1-48.358 0 24.179 24.179 0 1 1 48.358 0z" style="opacity:1;fill:#fff;fill-opacity:1;fill-rule:nonzero;stroke:#181818;stroke-width:1;stroke-linecap:square;stroke-linejoin:round;stroke-miterlimit:4;stroke-dasharray:none;stroke-dashoffset:0;stroke-opacity:1" transform="translate(-1141.757 846.272)"/>
      <text xml:space="preserve" id="text5615" x="922.419" y="1332.835" style="font-size:40px;font-style:normal;font-weight:400;fill:#000;fill-opacity:1;stroke:none;stroke-width:1px;stroke-linecap:butt;stroke-linejoin:miter;stroke-opacity:1;font-family:Times New Roman"><tspan id="tspan5617" x="922.419" y="1332.835">3</tspan></text>
    </g>
    <g id="g5697" transform="translate(30.037 -21.627)">
      <path id="path5695" d="M2097.505 473.282a24.179 24.179 0 1 1-48.358 0 24.179 24.179 0 1 1 48.358 0z" style="opacity:1;fill:#fff;fill-opacity:1;fill-rule:nonzero;stroke:#181818;stroke-width:1;stroke-linecap:square;stroke-linejoin:round;stroke-miterlimit:4;stroke-dasharray:none;stroke-dashoffset:0;stroke-opacity:1" transform="translate(-1251.302 768.666)"/>
      <text xml:space="preserve" id="text5619" x="812.405" y="1255.464" style="font-size:40px;font-style:normal;font-weight:400;fill:#000;fill-opacity:1;stroke:none;stroke-width:1px;stroke-linecap:butt;stroke-linejoin:miter;stroke-opacity:1;font-family:Times New Roman"><tspan id="tspan5621" x="812.405" y="1255.464">4</tspan></text>
    </g>
    <g id="g5690">
      <path id="path5688" d="M2097.505 473.282a24.179 24.179 0 1 1-48.358 0 24.179 24.179 0 1 1 48.358 0z" style="opacity:1;fill:#fff;fill-opacity:1;fill-rule:nonzero;stroke:#181818;stroke-width:1;stroke-linecap:square;stroke-linejoin:round;stroke-miterlimit:4;stroke-dasharray:none;stroke-dashoffset:0;stroke-opacity:1" transform="translate(-1269.416 564.864)"/>
      <text xml:space="preserve" id="text5623" x="794.271" y="1051.153" style="font-size:40px;font-style:normal;font-weight:400;fill:#000;fill-opacity:1;stroke:none;stroke-width:1px;stroke-linecap:butt;stroke-linejoin:miter;stroke-opacity:1;font-family:Times New Roman"><tspan id="tspan5625" x="794.271" y="1051.153">5</tspan></text>
    </g>
    <g id="g5683" transform="translate(-23.022 -6.007)">
      <path id="path5681" d="M2097.505 473.282a24.179 24.179 0 1 1-48.358 0 24.179 24.179 0 1 1 48.358 0z" style="opacity:1;fill:#fff;fill-opacity:1;fill-rule:nonzero;stroke:#181818;stroke-width:1;stroke-linecap:square;stroke-linejoin:round;stroke-miterlimit:4;stroke-dasharray:none;stroke-dashoffset:0;stroke-opacity:1" transform="translate(-795.064 574.262)"/>
      <text xml:space="preserve" id="text5627" x="1268.174" y="1060.825" style="font-size:40px;font-style:normal;font-weight:400;fill:#000;fill-opacity:1;stroke:none;stroke-width:1px;stroke-linecap:butt;stroke-linejoin:miter;stroke-opacity:1;font-family:Times New Roman"><tspan id="tspan5629" x="1268.174" y="1060.825">6</tspan></text>
    </g>
    <g id="g5676" transform="translate(55.492 8.344)">
      <path id="path5674" d="M2097.505 473.282a24.179 24.179 0 1 1-48.358 0 24.179 24.179 0 1 1 48.358 0z" style="opacity:1;fill:#fff;fill-opacity:1;fill-rule:nonzero;stroke:#181818;stroke-width:1;stroke-linecap:square;stroke-linejoin:round;stroke-miterlimit:4;stroke-dasharray:none;stroke-dashoffset:0;stroke-opacity:1" transform="translate(-749.358 488.74)"/>
      <text xml:space="preserve" id="text5631" x="1314.114" y="974.99" style="font-size:40px;font-style:normal;font-weight:400;fill:#000;fill-opacity:1;stroke:none;stroke-width:1px;stroke-linecap:butt;stroke-linejoin:miter;stroke-opacity:1;font-family:Times New Roman"><tspan id="tspan5633" x="1314.114" y="974.99">7</tspan></text>
    </g>
    <g id="g5669">
      <path id="path5667" d="M2097.505 473.282a24.179 24.179 0 1 1-48.358 0 24.179 24.179 0 1 1 48.358 0z" style="opacity:1;fill:#fff;fill-opacity:1;fill-rule:nonzero;stroke:#181818;stroke-width:1;stroke-linecap:square;stroke-linejoin:round;stroke-miterlimit:4;stroke-dasharray:none;stroke-dashoffset:0;stroke-opacity:1" transform="translate(-843.45 288.953)"/>
      <text xml:space="preserve" id="text5635" x="1219.817" y="775.516" style="font-size:40px;font-style:normal;font-weight:400;fill:#000;fill-opacity:1;stroke:none;stroke-width:1px;stroke-linecap:butt;stroke-linejoin:miter;stroke-opacity:1;font-family:Times New Roman"><tspan id="tspan5637" x="1219.817" y="775.516">8</tspan></text>
    </g>
    <g id="g5662" transform="translate(-4.836 7.254)">
      <path id="path5660" d="M2097.505 473.282a24.179 24.179 0 1 1-48.358 0 24.179 24.179 0 1 1 48.358 0z" style="opacity:1;fill:#fff;fill-opacity:1;fill-rule:nonzero;stroke:#181818;stroke-width:1;stroke-linecap:square;stroke-linejoin:round;stroke-miterlimit:4;stroke-dasharray:none;stroke-dashoffset:0;stroke-opacity:1" transform="translate(-188.334 -24.123)"/>
      <text xml:space="preserve" id="text5639" x="1875.06" y="462.401" style="font-size:40px;font-style:normal;font-weight:400;fill:#000;fill-opacity:1;stroke:none;stroke-width:1px;stroke-linecap:butt;stroke-linejoin:miter;stroke-opacity:1;font-family:Times New Roman"><tspan id="tspan5641" x="1875.06" y="462.401">9</tspan></text>
    </g>
    <path id="path5658" d="M2097.505 473.282a24.179 24.179 0 1 1-48.358 0 24.179 24.179 0 1 1 48.358 0z" style="opacity:1;fill:#fff;fill-opacity:1;fill-rule:nonzero;stroke:#181818;stroke-width:1;stroke-linecap:square;stroke-linejoin:round;stroke-miterlimit:4;stroke-dasharray:none;stroke-dashoffset:0;stroke-opacity:1" transform="translate(-108.934 126.955)"/>
    <text xml:space="preserve" id="text5643" x="1942.761" y="613.518" style="font-size:40px;font-style:normal;font-weight:400;fill:#000;fill-opacity:1;stroke:none;stroke-width:1px;stroke-linecap:butt;stroke-linejoin:miter;stroke-opacity:1;font-family:Times New Roman"><tspan id="tspan5645" x="1942.761" y="613.518">10</tspan></text>
    <g id="g5653" transform="translate(-37.246 14.418)">
      <path id="path5651" d="M2097.505 473.282a24.179 24.179 0 1 1-48.358 0 24.179 24.179 0 1 1 48.358 0z" style="opacity:1;fill:#fff;fill-opacity:1;fill-rule:nonzero;stroke:#181818;stroke-width:1;stroke-linecap:square;stroke-linejoin:round;stroke-miterlimit:4;stroke-dasharray:none;stroke-dashoffset:0;stroke-opacity:1" transform="translate(-1.858 -1.426)"/>
      <text xml:space="preserve" id="text5647" x="2051.565" y="485.371" style="font-size:40px;font-style:normal;font-weight:400;fill:#000;fill-opacity:1;stroke:none;stroke-width:1px;stroke-linecap:butt;stroke-linejoin:miter;stroke-opacity:1;font-family:Times New Roman"><tspan id="tspan5649" x="2051.565" y="485.371">11</tspan></text>
    </g>
    <path id="path3463" d="M1695.937 1398.52h-24.481l12.24-21.2z" style="opacity:1;fill:red;fill-opacity:1;stroke:#fff;stroke-width:.83812821;stroke-linecap:round;stroke-linejoin:miter;stroke-miterlimit:4;stroke-dasharray:none;stroke-dashoffset:0;stroke-opacity:1;display:inline" transform="rotate(46.716 -2271.672 620.6)scale(.514 -1.5579)"/>
    <rect id="rect3457" width="13.041" height="53.589" x="678.391" y="-2023.639" ry="0" style="opacity:1;fill:url(#pattern4166);fill-opacity:1;stroke:#000;stroke-width:.74999946;stroke-linecap:round;stroke-linejoin:round;stroke-miterlimit:4;stroke-dasharray:none;stroke-dashoffset:0;stroke-opacity:1;display:inline" transform="rotate(-43.074)scale(1 -1)"/>
    <path id="path4856" d="M1695.937 1398.52h-24.481l12.24-21.2z" style="opacity:1;fill:#000;fill-opacity:1;stroke:#fff;stroke-width:.83812821;stroke-linecap:round;stroke-linejoin:miter;stroke-miterlimit:4;stroke-dasharray:none;stroke-dashoffset:0;stroke-opacity:1;display:inline" transform="rotate(133.545 447.845 2079.946)scale(-.514 1.5579)"/>
    <path id="path5740" d="M1695.937 1398.52h-24.481l12.24-21.2z" style="opacity:1;fill:#000;fill-opacity:1;stroke:#fff;stroke-width:.83812821;stroke-linecap:round;stroke-linejoin:miter;stroke-miterlimit:4;stroke-dasharray:none;stroke-dashoffset:0;stroke-opacity:1;display:inline" transform="rotate(106.666 1227.07 2427.973)scale(-.514 1.5579)"/>
    <path id="path5742" d="M1695.937 1398.52h-24.481l12.24-21.2z" style="opacity:1;fill:#000;fill-opacity:1;stroke:#fff;stroke-width:.83812821;stroke-linecap:round;stroke-linejoin:miter;stroke-miterlimit:4;stroke-dasharray:none;stroke-dashoffset:0;stroke-opacity:1;display:inline" transform="rotate(243.534 -130.22 891.955)scale(-.514 1.5579)"/>
    <path id="path5744" d="M1695.937 1398.52h-24.481l12.24-21.2z" style="opacity:1;fill:#000;fill-opacity:1;stroke:#fff;stroke-width:.83812821;stroke-linecap:round;stroke-linejoin:miter;stroke-miterlimit:4;stroke-dasharray:none;stroke-dashoffset:0;stroke-opacity:1;display:inline" transform="rotate(223.334 -203.47 1374.848)scale(-.514 1.5579)"/>
    <path id="path5746" d="M1695.937 1398.52h-24.481l12.24-21.2z" style="opacity:1;fill:#000;fill-opacity:1;stroke:#fff;stroke-width:.83812821;stroke-linecap:round;stroke-linejoin:miter;stroke-miterlimit:4;stroke-dasharray:none;stroke-dashoffset:0;stroke-opacity:1;display:inline" transform="rotate(67.672 668.452 3084.93)scale(-.514 1.5579)"/>
    <path id="path5748" d="M1695.937 1398.52h-24.481l12.24-21.2z" style="opacity:1;fill:#000;fill-opacity:1;stroke:#fff;stroke-width:.83812821;stroke-linecap:round;stroke-linejoin:miter;stroke-miterlimit:4;stroke-dasharray:none;stroke-dashoffset:0;stroke-opacity:1;display:inline" transform="rotate(133.545 206.524 -401.403)scale(.514 -1.5579)"/>
    <text xml:space="preserve" id="text5750" x="153.1" y="2092.089" style="font-size:32.00000381px;font-style:normal;font-weight:400;fill:#000;fill-opacity:1;stroke:#fefefe;stroke-width:.60000002;stroke-linecap:butt;stroke-linejoin:miter;stroke-miterlimit:4;stroke-dasharray:none;stroke-opacity:1;font-family:Times New Roman" transform="rotate(-61.368)"><tspan id="tspan5752" x="153.1" y="2092.089">East Shoreline Drive</tspan></text>
    <text xml:space="preserve" id="text5754" x="914.664" y="1021.466" style="font-size:31.99999619px;font-style:normal;font-weight:400;fill:#000;fill-opacity:1;stroke:#fefefe;stroke-width:.59999996;stroke-linecap:butt;stroke-linejoin:miter;stroke-miterlimit:4;stroke-dasharray:none;stroke-opacity:1;font-family:Times New Roman" transform="rotate(3.068)"><tspan id="tspan5756" x="914.664" y="1021.466">West Shoreline Drive</tspan></text>
    <path id="text5762" d="m898.205 895.973-.023.578q-.828-.032-1.355.243-.526.277-1.027 1.07-.334.534-1.086 2.569l-6.575 16.832-.625-.025-4.29-13.726-5.327 13.347-.562-.022-5.599-17.828q-.625-1.996-.798-2.362a2.05 2.05 0 0 0-.816-.916q-.527-.31-1.449-.346l.023-.578 7.838.31-.023.577-.375-.015q-.827-.032-1.279.325-.452.358-.473.889-.021.546.588 2.54l3.7 12.046 3.911-9.963-.554-1.804-.444-1.44a7.7 7.7 0 0 0-.68-1.404 1.9 1.9 0 0 0-.48-.52 2.8 2.8 0 0 0-.764-.436q-.293-.106-.933-.13l.023-.578 8.244.325-.023.578-.562-.023q-.875-.034-1.295.325-.421.359-.446.999-.032.795.593 2.806l3.605 11.667 4.488-11.504q.764-1.909.793-2.658.015-.36-.2-.68a1.2 1.2 0 0 0-.552-.46q-.586-.242-1.537-.28l.022-.577zm2.287 11.597q.173 3.182 1.839 4.9 1.667 1.716 3.772 1.592 1.404-.082 2.396-.917.99-.832 1.583-2.746l.502.283q-.202 2.157-1.673 4.004-1.471 1.848-3.843 1.989-2.573.152-4.524-1.744t-2.152-5.28q-.216-3.666 1.541-5.828 1.76-2.163 4.597-2.33 2.402-.142 4.04 1.349 1.638 1.492 1.795 4.143zm-.054-.905 6.613-.391q-.159-1.368-.441-1.915a3.1 3.1 0 0 0-1.244-1.304q-.801-.453-1.644-.404-1.295.078-2.256 1.144-.963 1.065-1.028 2.87zm19.934-6.613.529 4.846-.513.056q-.84-2.22-1.853-2.941-1.014-.722-2.443-.566-1.088.118-1.693.766-.605.647-.529 1.347.096.87.66 1.436.552.585 2.105 1.138l2.388.855q3.321 1.194 3.596 3.71.212 1.941-1.126 3.29-1.338 1.35-3.156 1.547-1.304.142-3.033-.14-.53-.1-.856-.064-.357.038-.515.465l-.512.056-.555-5.08.513-.055q.672 2.127 2.02 3.096 1.347.968 2.87.802 1.07-.117 1.678-.82.608-.702.51-1.588-.117-1.072-.95-1.72t-3.207-1.52-3.172-1.697q-.795-.81-.943-2.16-.192-1.755.883-3.067t2.986-1.52q.838-.093 2.073.134.818.147 1.082.118.248-.027.377-.151.128-.124.273-.517zm6.089-5.19.688 4.652 3.308-.49.16 1.083-3.308.489 1.358 9.181q.204 1.376.669 1.797.464.42 1.083.33.51-.077.942-.464.433-.388.604-1.045l.603-.09q-.318 1.596-1.193 2.507-.876.911-1.927 1.067-.712.105-1.45-.188a2.4 2.4 0 0 1-1.171-.98q-.434-.686-.66-2.217l-1.408-9.521-2.241.331-.076-.51q.8-.465 1.569-1.408a9.3 9.3 0 0 0 1.3-2.159q.268-.64.67-2.295zm23.89-7.41 1.617 7.147-.564.128q-.74-1.996-1.725-3.054-.984-1.06-2.457-1.479t-2.875-.102q-1.584.358-2.402 1.56-.817 1.203-.538 2.437.214.945 1.045 1.574 1.203.93 5.185 2.03 3.247.9 4.495 1.49a6 6 0 0 1 2.074 1.59 5.3 5.3 0 0 1 1.106 2.233q.531 2.347-.906 4.458t-4.302 2.76q-.9.203-1.722.245-.49.03-2.085-.113t-1.99-.054q-.381.086-.55.365-.17.278-.114 1.019l-.564.127-1.604-7.086.564-.128q.9 2.135 1.82 3.089.921.953 2.466 1.372t3.19.047q1.906-.431 2.782-1.686.878-1.256.567-2.628-.172-.763-.767-1.444-.595-.683-1.63-1.153-.698-.323-3.686-1.209t-4.308-1.516-2.14-1.566a4.96 4.96 0 0 1-1.111-2.216q-.504-2.225.84-4.22 1.342-1.993 3.98-2.59 1.644-.372 3.672.018.939.189 1.29.109.396-.09.594-.383t.188-1.044zm8.634 10.88q.87 3.067 2.874 4.375t4.03.722q1.352-.39 2.135-1.422t.939-3.028l.552.166q.279 2.147-.75 4.274t-3.31 2.786q-2.476.716-4.798-.704-2.32-1.419-3.262-4.677-1.019-3.527.22-6.024 1.24-2.497 3.97-3.285 2.313-.669 4.238.426 1.927 1.095 2.664 3.646zm-.252-.87 6.365-1.84q-.457-1.298-.853-1.77a3.1 3.1 0 0 0-1.5-.997q-.882-.266-1.692-.032-1.245.36-1.95 1.612-.703 1.253-.37 3.027zm21.01 1.5q-1.518 2.335-1.961 2.772a4.2 4.2 0 0 1-1.568.961q-1.401.49-2.643-.151-1.242-.642-1.79-2.205-.345-.988-.155-1.865.255-1.215 1.441-2.623 1.188-1.409 4.225-3.895l-.186-.53q-.706-2.021-1.61-2.549-.906-.528-2.13-.1-.929.325-1.3 1.018-.385.697-.157 1.346l.328.845q.238.678.02 1.169-.218.49-.778.685a1.22 1.22 0 0 1-1.027-.07q-.48-.263-.712-.927-.444-1.268.483-2.784.926-1.516 3.271-2.336 1.8-.63 3.161-.427 1.03.153 1.784.982.488.54 1.173 2.503l1.604 4.587q.675 1.932.902 2.341t.447.498a.6.6 0 0 0 .443.01.85.85 0 0 0 .376-.247q.243-.3.819-1.495l.288.826q-.878 2.79-2.382 3.316-.723.253-1.326-.099-.603-.351-1.04-1.556zm-.336-.958-1.8-5.148q-1.918 1.664-2.438 2.26-.938 1.055-1.192 1.94a2.78 2.78 0 0 0 .04 1.723q.372 1.062 1.25 1.541.88.48 1.706.19 1.121-.392 2.434-2.506zm9.651-16.321 1.862 4.505-.476.197q-1.426-1.896-2.602-2.306t-2.504.139q-1.011.417-1.41 1.209-.4.79-.132 1.44.334.81 1.035 1.196.692.407 2.339.504l2.532.154q3.522.218 4.489 2.557.745 1.805-.162 3.474-.908 1.668-2.598 2.367-1.212.501-2.951.712-.537.054-.84.178-.332.138-.364.59l-.477.198-1.952-4.722.477-.197q1.24 1.854 2.804 2.408 1.565.554 2.98-.031.996-.412 1.383-1.256.386-.845.046-1.668-.411-.996-1.393-1.386-.981-.389-3.504-.563t-3.52-.743q-.99-.555-1.509-1.811-.674-1.632-.009-3.192.666-1.56 2.442-2.294.78-.322 2.029-.45.826-.087 1.071-.189.23-.096.32-.25.087-.154.118-.573zm2.38-9.336a1.52 1.52 0 0 1 1.207-.058q.613.22.893.815.279.593.061 1.214a1.5 1.5 0 0 1-.811.9 1.53 1.53 0 0 1-1.218.054 1.53 1.53 0 0 1-.903-.818 1.52 1.52 0 0 1-.058-1.207 1.54 1.54 0 0 1 .829-.9zm4.359 6.221 4.894 10.407q.572 1.215.938 1.536t.806.355 1.359-.398l.239.51-6.292 2.959-.24-.51q.948-.445 1.187-.782.238-.337.23-.85-.009-.514-.574-1.716l-2.347-4.991q-.991-2.107-1.411-2.67-.312-.405-.607-.482-.295-.078-.663.095-.396.187-.862.665l-.437-.416 3.158-3.42zm17.962 5.446q-.394 1.462-1.043 2.36a4.95 4.95 0 0 1-1.664 1.452q-2.056 1.124-4.533.242-2.475-.882-3.951-3.583t-1.001-5.872 3.15-4.632q1.658-.906 3.318-.443l-1.266-2.317q-1.176-2.152-1.548-2.59-.374-.438-.69-.496a.96.96 0 0 0-.646.121q-.356.195-.826.737l-.44-.383 2.904-3.58.617-.338 7.934 14.521q1.206 2.208 1.575 2.638t.7.5.632-.097q.37-.203.86-.773l.413.398-2.883 3.587-.63.344zm-.524-.96-3.536-6.472a5 5 0 0 0-1.423-1.43q-.83-.543-1.723-.563-.892-.02-1.537.332-1.207.66-1.56 2.26-.47 2.107 1.029 4.85 1.513 2.768 3.525 3.584 2.013.814 3.493.006 1.248-.682 1.732-2.567zm3.54-9.322q1.734 2.674 4.035 3.332 2.301.66 4.064-.498 1.176-.771 1.62-1.988.446-1.216.005-3.17l.577-.004q.899 1.97.544 4.305-.356 2.336-2.342 3.638-2.155 1.414-4.792.742t-4.496-3.507q-2.014-3.07-1.566-5.821t2.825-4.31q2.012-1.32 4.175-.843 2.165.478 3.62 2.7zm-.498-.758 5.54-3.633q-.82-1.107-1.337-1.44a3.1 3.1 0 0 0-1.728-.512q-.921.006-1.626.469-1.085.712-1.388 2.115-.303 1.405.54 3.001zm27.943-38.111.403.414q-.594.578-.756 1.15-.163.573.068 1.482.157.609 1.114 2.556l7.676 16.36-.448.435-12.907-6.342 6.009 13.054-.403.393-16.783-8.22q-1.876-.92-2.262-1.047a2.05 2.05 0 0 0-1.226-.039q-.587.169-1.248.812l-.403-.415 5.622-5.47.403.415-.27.262q-.592.577-.645 1.15-.051.575.319.955.381.393 2.247 1.324l11.282 5.613-4.53-9.697-1.69-.841-1.35-.67a7.7 7.7 0 0 0-1.486-.474 1.9 1.9 0 0 0-.707-.01 2.8 2.8 0 0 0-.843.254q-.278.14-.737.587l-.403-.415 5.913-5.753.403.415-.403.392q-.627.61-.657 1.162t.417 1.011q.555.571 2.443 1.503l10.943 5.421-5.25-11.177q-.859-1.868-1.382-2.405a1.12 1.12 0 0 0-.63-.324 1.2 1.2 0 0 0-.715.084q-.578.259-1.26.922l-.404-.414zm18.277 6.04q.062 2.785-.059 3.395a4.2 4.2 0 0 1-.752 1.677q-.882 1.195-2.27 1.365t-2.72-.814q-.843-.623-1.18-1.454-.474-1.146-.287-2.979.188-1.832 1.297-5.597l-.453-.334q-1.722-1.272-2.767-1.198-1.044.073-1.815 1.117-.585.792-.5 1.572.075.794.628 1.202l.747.513q.578.428.675.954.097.528-.257 1.005-.344.466-.888.52t-1.11-.364q-1.082-.798-1.17-2.572-.09-1.774 1.387-3.773 1.132-1.534 2.371-2.134.937-.454 2.027-.194.708.174 2.38 1.407l3.909 2.886q1.647 1.215 2.064 1.427.417.21.65.159a.6.6 0 0 0 .371-.24.85.85 0 0 0 .172-.417q.032-.385-.166-1.696l.704.52q.846 2.8-.1 4.082-.455.615-1.151.665-.697.05-1.737-.7zm-.817-.603-4.387-3.238q-.648 2.454-.741 3.24-.18 1.401.108 2.274.287.874 1.004 1.402.905.668 1.901.568.996-.099 1.516-.804.705-.955.599-3.442zm-6.808-9.449 3.285-5.806.504.284-.162.286q-.345.612-.254 1.068t.486.679q.53.3 1.723.382l7.999.522-5.304-6.68a3.3 3.3 0 0 0-.97-.855q-.246-.139-.422-.113a.84.84 0 0 0-.43.206q-.22.18-.55.765l-.504-.284 2.293-4.053.504.285q-.231.534-.221.898.009.365.273.945.121.23.785 1.055l9.56 12.105q1.393 1.758 1.645 3.47.25 1.714-.372 2.815-.455.803-1.209 1.058t-1.353-.084q-.57-.323-.706-.893-.135-.57.234-1.223.255-.448.992-1.054.51-.429.588-.565.231-.408.083-1.13-.15-.72-1.082-1.895l-1.662-2.107-11.929-.843q-.537-.034-1.416.06-.669.071-.955.196-.395.19-.95.791z" style="font-size:32px;font-style:normal;font-weight:400;fill:#000;fill-opacity:1;stroke:#fefefe;stroke-width:.60000002;stroke-linecap:butt;stroke-linejoin:miter;stroke-miterlimit:4;stroke-opacity:1;font-family:Times New Roman"/>
    <path id="path5766" d="M867.48 915.392c61.459 7.636 188.635-16.821 215.068-111.74" style="fill:none;fill-rule:evenodd;stroke:none;stroke-width:1px;stroke-linecap:butt;stroke-linejoin:miter;stroke-opacity:1"/>
    <text xml:space="preserve" id="text5771" x="860.95" y="919.699" style="font-size:32px;font-style:normal;font-weight:400;fill:#000;fill-opacity:1;stroke:#fefefe;stroke-width:.59999996;stroke-linecap:butt;stroke-linejoin:miter;stroke-miterlimit:4;stroke-dasharray:none;stroke-opacity:1;font-family:Times New Roman" transform="rotate(-22.29)"><tspan id="tspan5773" x="860.95" y="919.699">East Ocean Boulevard</tspan></text>
    <text xml:space="preserve" id="text5775" x="415.857" y="953.435" style="font-size:32px;font-style:normal;font-variant:normal;font-weight:400;font-stretch:normal;text-align:start;line-height:200%;writing-mode:lr-tb;text-anchor:start;fill:#000;fill-opacity:1;stroke:#fefefe;stroke-width:.59999996;stroke-linecap:butt;stroke-linejoin:miter;stroke-miterlimit:4;stroke-dasharray:none;stroke-opacity:1;font-family:Times New Roman;-inkscape-font-specification:Times New Roman" transform="rotate(-23.866)"><tspan id="tspan5777" x="415.857" y="953.435">West Ocean</tspan><tspan id="tspan5779" x="415.857" y="1017.435">Boulevard</tspan></text>
    <text xml:space="preserve" id="text5781" x="770.365" y="-544.012" style="font-size:32px;font-style:normal;font-weight:400;fill:#000;fill-opacity:1;stroke:#fefefe;stroke-width:.60000002;stroke-linecap:butt;stroke-linejoin:miter;stroke-miterlimit:4;stroke-dasharray:none;stroke-opacity:1;font-family:Times New Roman" transform="rotate(62.206)"><tspan id="tspan5783" x="770.365" y="-544.012">Pacific Avenue</tspan></text>
    <text xml:space="preserve" id="text5785" x="833.075" y="-688.157" style="font-size:32px;font-style:normal;font-weight:400;fill:#000;fill-opacity:1;stroke:#fefefe;stroke-width:.59999996;stroke-linecap:butt;stroke-linejoin:miter;stroke-miterlimit:4;stroke-dasharray:none;stroke-opacity:1;font-family:Times New Roman" transform="rotate(61.52)"><tspan id="tspan5787" x="833.075" y="-688.157">South Pine</tspan><tspan id="tspan5789" x="833.075" y="-648.157">Avenue</tspan></text>
    <text xml:space="preserve" id="text5791" x="1948.826" y="1212.161" style="font-size:32px;font-style:normal;font-weight:400;text-align:end;text-anchor:end;fill:#000;fill-opacity:1;stroke:#fefefe;stroke-width:.60000002;stroke-linecap:butt;stroke-linejoin:miter;stroke-miterlimit:4;stroke-dasharray:none;stroke-opacity:1;font-family:Times New Roman"><tspan id="tspan5793" x="1948.826" y="1212.161">Shoreline</tspan><tspan id="tspan5795" x="1948.826" y="1252.161">Village</tspan><tspan id="tspan5797" x="1948.826" y="1292.161">Drive</tspan></text>
    <text xml:space="preserve" id="text5799" x="1119.794" y="1243.4" style="font-size:32px;font-style:normal;font-weight:400;fill:#000;fill-opacity:1;stroke:#fefefe;stroke-width:.60000002;stroke-linecap:butt;stroke-linejoin:miter;stroke-miterlimit:4;stroke-dasharray:none;stroke-opacity:1;font-family:Times New Roman"><tspan id="tspan5801" x="1119.794" y="1243.4">Aquarium</tspan><tspan id="tspan5868" x="1119.794" y="1283.4">Way</tspan></text>
    <path id="path5807" d="M1695.937 1398.52h-24.481l12.24-21.2z" style="opacity:1;fill:#000;fill-opacity:1;stroke:#fff;stroke-width:.83812821;stroke-linecap:round;stroke-linejoin:miter;stroke-miterlimit:4;stroke-dasharray:none;stroke-dashoffset:0;stroke-opacity:1;display:inline" transform="rotate(-81.211 -426.23 550.525)scale(-.514 1.5579)"/>
    <text xml:space="preserve" id="text5809" x="915.54" y="1371.96" style="font-size:32px;font-style:normal;font-weight:400;fill:#000;fill-opacity:1;stroke:#fefefe;stroke-width:.60000002;stroke-linecap:butt;stroke-linejoin:miter;stroke-miterlimit:4;stroke-dasharray:none;stroke-opacity:1;font-family:Times New Roman"><tspan id="tspan5811" x="915.54" y="1371.96">South Chesnut Place</tspan></text>
    <path id="path5813" d="M1695.937 1398.52h-24.481l12.24-21.2z" style="opacity:1;fill:#000;fill-opacity:1;stroke:#fff;stroke-width:.83812821;stroke-linecap:round;stroke-linejoin:miter;stroke-miterlimit:4;stroke-dasharray:none;stroke-dashoffset:0;stroke-opacity:1;display:inline" transform="rotate(87.459 -969.304 -387.01)scale(.514 -1.5579)"/>
    <path id="path5832" d="m1446.825 1093.039-13.591.547 20.828 45.967 14.062-.906z" style="fill:#aaa;fill-opacity:.87058824;fill-rule:evenodd;stroke:none;stroke-width:17;stroke-linecap:square;stroke-linejoin:round;stroke-miterlimit:4;stroke-dasharray:none;stroke-opacity:1"/>
    <path id="path5838" d="m1019.52 1086.339.446 51.703 17.057.627-.853-51.703z" style="fill:#aaa;fill-opacity:.87058824;fill-rule:evenodd;stroke:none;stroke-width:17;stroke-linecap:square;stroke-linejoin:round;stroke-miterlimit:4;stroke-dasharray:none;stroke-opacity:1"/>
    <path id="path5844" d="M1243.398 694.712 1222.96 706.4l13.133 23.724 20.437-11.687z" style="fill:#aaa;fill-opacity:.87058824;fill-rule:evenodd;stroke:none;stroke-width:17;stroke-linecap:square;stroke-linejoin:round;stroke-miterlimit:4;stroke-dasharray:none;stroke-opacity:1"/>
    <path id="path5850" d="m1514.054 546.713-12.639 6.172 21.714 39.836 12.608-6.172zm-28.185 11.169-46.04 23.084 23.874 40.105 46.04-23.084zm-56.783 28.97-9.142 5.163L1441.796 633l9.173-5.164z" style="fill:#aaa;fill-opacity:.87058824;fill-rule:evenodd;stroke:none;stroke-width:17;stroke-linecap:square;stroke-linejoin:round;stroke-miterlimit:4;stroke-dasharray:none;stroke-opacity:1"/>
    <text xml:space="preserve" id="text5758" x="904.607" y="1233.229" style="font-size:32px;font-style:normal;font-weight:400;fill:#000;fill-opacity:1;stroke:#fefefe;stroke-width:.60000002;stroke-linecap:butt;stroke-linejoin:miter;stroke-miterlimit:4;stroke-dasharray:none;stroke-opacity:1;font-family:Times New Roman" transform="rotate(-27.383)"><tspan id="tspan5760" x="904.607" y="1233.229">East Seaside Way</tspan></text>
  </g>
</svg>
