<!--Long Beach Street Circuit (current IndyCar Grand Prix layout), traced single-line outline.
     Derived from File:Long_Beach_Street_Circuit_IndyCar.svg by Will Pittenger on Wikimedia
     Commons (https://commons.wikimedia.org/wiki/File:Long_Beach_Street_Circuit_IndyCar.svg,
     public domain). The source path5463 (the track centerline) was extracted and affine-fit
     to the normalized 0 0 1000 1000 viewBox. License is recorded in LICENSE-ASSETS.md.
     To re-fetch the source, see scripts/fetch-map.mjs.-->
<svg xmlns="http://www.w3.org/2000/svg" aria-label="Long Beach Street Circuit track map" role="img" viewBox="0 0 1000 1000">
  <path fill="none" stroke="#1f1f21" stroke-linecap="round" stroke-linejoin="round" stroke-width="10" d="M168.551 794.526c3.827 4.73 9.507 6.804 15.482 5.658 8.692-1.667 14.394-10.074 12.727-18.766s1.294-9.015 4.109-11.046c6.552-4.727 16.884-10.781 24.293-18.932 8.534-9.387 15.357-20.19 19.93-32.077 3.399-8.84 3.635-19.03 6.59-27.897 1.562-4.686 5.11-10.442 9.566-11.958 8.829-3.001 20.184-1.545 30.293-1.594 44.63-.217 89.302 1.704 133.924.798 60.073-1.22 120.293-3.032 180.159-7.175 16.927-1.172 33.992-4.112 50.221-8.769 14.329-4.112 28.173-10.647 41.453-17.537 14.886-7.724 28.997-17.087 43.047-26.307 11.459-7.52 23.39-14.767 33.481-23.915 9.839-8.92 18.327-19.607 26.306-30.292 7.698-10.308 14.455-21.417 20.726-32.684 25.084-45.066 50.161-90.243 73.34-136.315 19.868-39.49 38.761-79.827 55.801-120.372 4.082-9.713-1.863-24.237-8.982-23.92-6.548.291-8.874 10.324-10.764 18.936-1.507 6.87-5.568 17.812-11.748 21.542-9.231 5.57-20.388 5.296-31.481 6.56-9.9 1.127-20.87.388-30.293-2.392-6.787-2.003-14.88-5.832-18.334-11.958-10.63-18.852-17.066-34.952-26.521-55.16-4.097-8.756-9.273-21.376-16.34-25.92-4.093-2.63-11.924-5.316-17.141-3.219-54.4 21.874-103.752 40.932-156.03 63.573-48.962 21.204-97.656 43.353-145.085 67.759-52.748 27.144-100.849 54.513-150.437 82.081-8.133 4.522-10.937 17.714-7.41 24.36 26.146 49.286 51.503 94.453 74.933 144.666 7.904 16.94 11.41 33.413 14.344 51.602 1.053 6.523-.584 16.724-4.59 20.731-4.763 4.762-11.753 5.574-19.712 5.375-78.603-1.965-155.7-5.575-233.57-9.365-26.014-1.266-53.046-4.511-78.121-1.795-6.812.738-13.682 9.164-17.138 14.763-4.25 6.89-4.888 16.884-5.58 25.51-1.99 24.832.138 50.551 3.995 75.134.798 5.085 4.831 14.253 9.775 14.554 27.765 1.69 58.462.857 88.268 5.971 5.949 1.021 12.679 5.051 16.514 9.792"/>
</svg>
