<!--Sebring International Raceway Grand Prix Road Course, traced single-line outline.
     Derived from File:Sebring_International_Raceway.svg by Will Pittenger on Wikimedia
     Commons (https://commons.wikimedia.org/wiki/File:Sebring_International_Raceway.svg,
     CC BY-SA 3.0). The source's path4147 (the track outline) was extracted and
     affine-fit to the normalized 0 0 1000 1000 viewBox. License is recorded in
     LICENSE-ASSETS.md. To re-fetch the source, see scripts/fetch-map.mjs.-->
<svg xmlns="http://www.w3.org/2000/svg" aria-label="Sebring International Raceway track map" role="img" viewBox="0 0 1000 1000">
  <path fill="none" stroke="#1f1f21" stroke-linecap="round" stroke-linejoin="round" stroke-width="10" d="M706.03 707.712c48.409-.237 83.265-38.699 72.519-96.532l-26.414-142.157c-2.256-12.136-1.625-24.64-1.92-36.98l-1.442-60.032c-.47-19.577-10.168-27.375-29.296-27.375h-16.809c-9.466.001-19.2-3.608-26.894-9.124l-25.454-18.25c-22.137-15.873-53.683-14.743-64.834 15.368l-4.803 12.967c-38.662 104.39-144.122 162.27-243.01 162.808l-265.1 1.441c-8.842.048-18.747-5.958-22.573-13.927-3.276-6.827-.745-15.019 4.803-20.171l6.724-6.244c5.53-5.135 8.569-48.8 23.052-62.914l56.67-55.229c11.741-11.442 39.479-20.466 60.512-27.374l65.796-21.612c23.242-7.634 43.787-23.429 60.992-40.822l132.07-133.51c14.712-14.874 29.6-4.57 40.342 9.124l19.21 24.493c8.056 10.271 42.652 29.165 65.048 29.792 29.753.834 79.989-24.029 79.989-24.029l23.533-14.407c7.498-4.591 17.142-4.863 25.934-4.803l69.637.48c26.065.18 37.257 11.882 37.46 36.5l1.92 233.885c.066 7.87-.073 15.881-1.92 23.532l-3.362 13.928c-2.684 11.118-.679 23.591 3.842 34.097l34.099 79.243c3.773 8.77 9.532 16.827 16.328 23.532l72.038 71.078c10.815 10.67 17.68 43.397 5.283 58.591l-14.888 18.25c-5.994 7.348-9.007 17.06-10.566 26.414L913.02 836.9c-3.632 21.796-20.575 34.074-37.46 34.099l-674.76.96c-15.54.022-31.462-5.959-44.183-14.888l-49.947-35.06c-13.14-9.222-14.772-33.14-7.684-47.544l14.889-30.256c12.048-24.486 64.38-33.928 99.412-34.099z"/>
</svg>
