<svg xmlns="http://www.w3.org/2000/svg" aria-label="Track map of the Circuit des 24 Heures du Mans, Le Mans" role="img" viewBox="0 0 1000 1000">
<!--Production track map for the Circuit des 24 Heures du Mans (full 24h circuit).
  Derived by path-extract from map-source.svg. The source path2830 is the
  black 13.626 km layout centerline (drawn via use for casing+line); its d is
  affine-fit (uniform scale + translate) into the 0 0 1000 1000 viewBox.
  Source: Circuit_de_la_Sarthe_track_map.svg by Will Pittenger, CC BY-SA 3.0,
  via Wikimedia Commons. Retraced 2026-06-11.-->
  <path fill="none" stroke="#1f1f21" stroke-linecap="round" stroke-linejoin="round" stroke-width="10" d="M336.283 797.963c-11.113 1.94-22.155 4.289-33.256 6.304-9.259 1.68-18.506 3.53-27.822 4.782-5.248.704-10.572.897-15.868 1.086-4.848.173-9.73.314-14.563 0-4.079-.266-8.165-.915-12.172-1.739-3.746-.77-7.733-1.349-11.085-3.043-3.386-1.711-6.337-4.508-9.13-7.173-5.177-4.942-9.652-10.712-14.78-15.65-.741-.713-1.864-1.47-2.825-1.304-2.807.486-5.617 2.613-8.477 3.26-.98.223-2.284.035-3.044-.651-7.572-6.85-14.418-14.898-21.952-21.954-1.595-1.494-3.495-2.692-5.434-3.695-4.365-2.257-9.312-3.553-13.477-6.086-2.863-1.741-5.457-4.181-7.608-6.738-1.689-2.008-3.113-4.44-3.912-6.956-2.17-6.83-2.597-14.398-5-21.084-.93-2.588-2.984-4.952-4.999-6.738-1.173-1.04-2.986-1.436-4.564-1.739-1.828-.35-3.792-.396-5.651-.217-1.908.183-3.746 1.16-5.652 1.304-1.934.146-4.043.125-5.869-.434-1.723-.528-3.302-1.723-4.782-2.827-2.506-1.867-4.866-3.965-7.173-6.085-2.185-2.01-4.559-3.91-6.303-6.304-6.806-9.343-13.482-19.015-19.345-28.91-1.093-1.843-1.657-4.232-1.522-6.302.154-2.35 1.26-4.792 2.391-6.956 2.998-5.734 6.492-11.275 9.999-16.736 1.564-2.436 3.185-4.894 5.217-6.956 16.95-17.21 34.189-34.257 51.731-50.862a49.7 49.7 0 0 1 9.347-6.956c73.652-42.335 147.691-84.168 221.707-125.852 1.119-.63 2.475-1.153 3.695-1.086 1.46.078 2.858 1.18 4.347 1.521 1.989.456 4.191 1.218 6.087.87 1.655-.305 3.374-1.566 4.564-2.826 1.273-1.348 1.887-3.331 2.826-5 1.018-1.809 1.778-3.812 3.043-5.433 1.56-2.002 3.215-4.157 5.434-5.434 89.435-51.47 180.083-101.389 269.526-152.804 1.56-.897 2.548-2.626 3.478-4.13.592-.958.884-2.144 1.087-3.26.232-1.275-.008-2.637.217-3.913.21-1.187.42-2.53 1.087-3.478.71-1.008 1.898-1.89 3.043-2.39 1.174-.514 2.597-.634 3.913-.653 3.538-.053 7.115.564 10.65.434 2.407-.088 4.919-.312 7.173-1.086 2.6-.893 4.944-2.578 7.39-3.913 8.711-4.751 17.241-9.874 26.084-14.346 3.909-1.976 7.961-3.78 12.172-4.999 40.348-11.678 80.933-22.721 121.504-33.69 20.797-5.623 41.667-11.194 62.6-16.086 2.325-.542 4.782-.257 7.173-.217 6.014.104 12.196-.115 18.041.652 1.328.175 2.772 1.177 3.478 2.174.525.742.268 2.028.217 3.043-2.049 40.356-3.963 80.76-6.52 121.07-.197 3.09-.953 6.133-1.74 9.129-7.618 29.028-15.225 58.104-23.475 86.944-1.241 4.343-3.081 8.514-4.999 12.607-14.311 30.54-28.18 61.605-43.69 91.291-1.372 2.629-4.415 4.1-6.955 5.651-6.589 4.027-14.07 6.927-20.432 11.086-1.173.766-2.039 2.35-2.173 3.695-.228 2.277-.119 5.108 1.087 7.173 7.634 13.077 17.241 25.367 25.43 38.255.65 1.022 1.214 2.424 1.087 3.478-.09.757-.951 1.584-1.738 1.957-29.934 14.19-60.466 27.496-90.422 41.732-2.212 1.052-4.148 2.63-6.086 4.13-14.147 10.961-28.056 22.245-42.168 33.257-5.016 3.913-10.277 7.518-15.215 11.52-3.467 2.808-6.859 5.745-10 8.912-5.625 5.672-10.59 12.029-16.3 17.605-3.565 3.48-7.41 6.857-11.521 9.564-1.83 1.206-4.144 1.721-6.303 2.174-2.333.489-4.795.756-7.174.652-2.62-.114-5.394-.388-7.824-1.304-2.57-.968-4.76-2.938-7.173-4.347-4.905-2.865-9.702-6.016-14.78-8.477-1.95-.945-4.164-1.49-6.304-1.74-2.207-.257-4.513-.037-6.738.218-2.195.252-4.387.712-6.521 1.304-5.692 1.581-11.426 3.192-16.954 5.217-1.79.656-3.5 1.672-5 2.826a16.4 16.4 0 0 0-3.478 3.695c-1.084 1.588-1.701 3.497-2.607 5.217-1.195 2.265-2.307 4.595-3.696 6.738-1.147 1.77-2.332 3.64-3.913 5-2.041 1.755-4.596 2.967-6.955 4.346-1.482.867-2.924 2.008-4.564 2.391-2.707.631-5.651.61-8.478.652-2.028.03-4.196.185-6.085-.435-2.53-.83-4.852-2.492-7.173-3.912-3.837-2.347-7.346-5.34-11.303-7.39-2.056-1.065-4.45-1.745-6.738-1.957-2.42-.223-5.05-.071-7.39.653-5.63 1.74-10.932 4.716-16.52 6.738a214 214 0 0 1-16.52 5.216 40 40 0 0 1-7.39 1.304c-3.166.245-6.411-.302-9.564 0-2.137.205-4.368.579-6.303 1.522-9.804 4.78-19.204 10.563-28.909 15.65-12.828 6.723-26.054 12.817-38.69 19.78-1.565.862-2.986 2.281-3.912 3.695-.45.687.136 1.845-.217 2.608-.588 1.266-1.38 2.77-2.61 3.478-4.566 2.626-10.263 3.882-14.78 6.52-1.063.622-1.72 1.937-1.797 3.24-.033.56.04 1.078-.042 1.612-.188 1.205-1.426 2.3-2.508 2.539-9.786 2.153-20.17 3.028-30.213 4.782"/>
</svg>
