<!--Created with Inkscape (http://www.inkscape.org/)-->
<svg xmlns="http://www.w3.org/2000/svg" xmlns:xlink="http://www.w3.org/1999/xlink" id="svg2502" width="990.921" height="983.785">
  <defs id="defs2504">
    <clipPath id="clipPath3490" clipPathUnits="userSpaceOnUse">
      <path id="rect3492" d="M683.14 104.104h1511.787v1003.748H683.14z" style="opacity:1;fill:#006a00;fill-opacity:1;fill-rule:nonzero;stroke:none" transform="rotate(135.918)"/>
    </clipPath>
    <clipPath id="clipPath3494" clipPathUnits="userSpaceOnUse">
      <path id="rect3496" d="M-4232.846-2372.13h2168.193v1468.418h-2168.193z" style="opacity:1;fill:#006a00;fill-opacity:1;fill-rule:nonzero;stroke:none" transform="matrix(-.9473 -.32036 .9519 -.3064 0 0)"/>
    </clipPath>
    <clipPath id="clipPath9716" clipPathUnits="userSpaceOnUse">
      <path id="path9718" d="m871.135 932.363 1331.22 1238.666 520.27-559.145L1391.405 373.22z" style="fill:#6a6a6a;fill-opacity:1;fill-rule:nonzero;stroke:#010101;stroke-width:.9426257;stroke-linecap:round;stroke-linejoin:round;stroke-miterlimit:4;stroke-dasharray:none;stroke-dashoffset:0;stroke-opacity:1"/>
    </clipPath>
    <pattern id="pattern4912" width="18.181" height="18.138" patternTransform="translate(763.477 1693.907)scale(.17379)" patternUnits="userSpaceOnUse">
      <g id="g4907" transform="translate(-1025.535 -1215.281)">
        <path id="rect4899" d="M1025.535 1215.281h18.173v18.096h-18.173z" style="opacity:1;fill:#000;fill-opacity:1;stroke:none;stroke-width:.5;stroke-linecap:round;stroke-linejoin:round;stroke-miterlimit:4;stroke-dasharray:none;stroke-dashoffset:0;stroke-opacity:1"/>
        <path id="rect4903" d="M1025.535 1215.281h9.075v9.075h-9.075z" style="opacity:1;fill:#fff;fill-opacity:1;stroke:none;stroke-width:.5;stroke-linecap:round;stroke-linejoin:round;stroke-miterlimit:4;stroke-dasharray:none;stroke-dashoffset:0;stroke-opacity:1"/>
        <path id="rect4905" d="M1034.641 1224.344h9.075v9.075h-9.075z" style="opacity:1;fill:#fff;fill-opacity:1;stroke:none;stroke-width:.5;stroke-linecap:round;stroke-linejoin:round;stroke-miterlimit:4;stroke-dasharray:none;stroke-dashoffset:0;stroke-opacity:1"/>
      </g>
    </pattern>
    <pattern xlink:href="#pattern4912" id="pattern4166" patternTransform="translate(-1778.227 454.643)scale(.45625)"/>
  </defs>
  <g id="layer1" style="display:inline" transform="translate(-775.603 -501.782)">
    <use xlink:href="#text3489" id="use3575" width="990.921" height="970.955" x="0" y="0" style="stroke:#fff;stroke-width:2;stroke-miterlimit:4;stroke-opacity:1;stroke-dasharray:none"/>
    <use xlink:href="#text3493" id="use3577" width="990.921" height="970.955" x="0" y="0" style="stroke:#fff;stroke-width:2;stroke-miterlimit:4;stroke-opacity:1;stroke-dasharray:none"/>
    <path id="path3312" d="M1381.06 1445.61c1.171-.215 7.062-1.084 12.316-2.67 22.673-6.853 72.12-23.69 99.98-36.22" style="fill:none;stroke:#c8c8c8;stroke-width:5;stroke-linecap:butt;stroke-linejoin:round;stroke-miterlimit:4;stroke-opacity:1;stroke-dasharray:none"/>
    <path id="path3314" d="M1158.08 1461.856c11.948 2.355 23.914 2.477 36.08 2.346 60.58-.651 122.277-.289 182.16-6.453 19.904-2.05 39.196-8.652 57.493-17.014 54.45-24.882 105.093-51.212 157.814-79.493 6.337-3.4 13.877-9.64 17.306-15.547 3.611-6.218 5.901-15.219 4.694-22.293-1.53-8.961-4.165-18.402-9.974-25.813-5.533-7.06-13.863-14.762-22-17.6-8.681-3.029-22.286-1.995-30.213 2.64-17.495 10.228-28.777 29.254-46.053 41.946-21.053 15.468-44.053 29.557-68.054 39.894-29.58 12.74-61.508 19.928-92.693 26.106-10.272 2.036-22.671-.74-31.973-4.986-8.69-3.967-19.173-16.672-21.707-26.107-20.15-75.045-30.772-146.441-46.053-223.813-2.495-12.681.216-27.08 4.693-38.72 3.345-8.698 10.665-17.07 18.773-22.294 50.167-32.322 98.101-59.751 151.654-86.24 19.194-9.493 50.398-17.61 71.573-21.413 74.647-13.406 142.123-22.384 217.653-34.906 14.582-2.418 28.421-14.63 37.84-25.227 6.226-7.004 9.247-17.69 10.267-27.28.935-8.793 2.04-26.61-5.573-39.307-67.843-113.124-134.73-207.541-209.44-315.333-3.903-5.63-16.008-11.78-22.88-12.32-27.936-2.197-56.331-2.347-84.48-2.347-14.091 0-35.767.181-48.987 4.694-52.095 17.78-95.61 40.955-146.96 62.186-30 12.404-61.276 22.17-90.347 36.374-22.164 10.828-41.833 28.831-64.826 36.666-29.807 10.156-59.336 9.067-89.467 14.96-5.542 1.084-14.06 6.526-14.08 16.72-.018 9.18 6.84 18.343 7.04 28.16.19 9.347-5 24.483-12.907 30.507-17.838 13.59-33.24 22.303-53.386 31.973-18.965 9.103-40.08 12.1-58.667 21.707-16.222 8.384-31.244 21.058-41.947 35.2-11.2 14.8-20.042 33.044-21.12 51.627-.724 12.495 5.096 30.265 12.907 40.48 43.033 56.274 90.974 103.705 136.987 158.986 8.352 10.035 17.198 23.351 17.6 35.2.38 11.227-7.987 23.987-15.254 34.027-52.182 72.094-107.491 135.033-159.866 205.626-9.124 12.298-9.83 23.182-3.227 30.8 5.83 6.727 29.208 5.4 43.707 8.507 115.75 24.808 207.569 43.845 325.893 67.173z" style="fill:none;stroke:#fff;stroke-width:17;stroke-linecap:butt;stroke-linejoin:round;stroke-miterlimit:4;stroke-opacity:1;stroke-dasharray:none"/>
    <path id="path3316" d="M936.98 1177.872c-17.6 24.933-38.243 48.098-54.633 73.81-19.886 31.195-36.724 65.226-57.2 95.48-3.48 5.141-11.318 6.116-15.84 10.267-2.616 2.4-5.415 6.257-5.574 9.386-.134 2.64 2.36 6.894 4.694 7.92 2.555 1.125 6.696-2.15 9.973-1.466 52.457 10.951 104.652 25.012 157.227 36.373 55.568 12.008 111.41 21.325 167.2 32.267 10.015 1.964 20.039 4.754 30.213 5.28 33.337 1.723 66.878 1.15 100.32 1.466 28.549.27 54.58-.409 83.013-.586 10.69-.067 25.684-1.854 35.787-5.28 23.337-7.916 44.097-18.446 66.88-28.16 6.42-2.738 91.1-46.044 100.613-52.214 7.297-4.731 23.202-18.782 26.694-24.053 3.578-5.402 4.655-16.342 2.346-22.587-1.993-5.39-8.338-10.939-14.077-13.495-5.016-2.235-10.971-2.809-16.573-2.494-4.86.272-11.936 2.655-15.99 5.43-19.82 13.563-38.133 27.195-57.788 39.855" style="fill:none;stroke:#fff;stroke-width:8;stroke-linecap:butt;stroke-linejoin:round;stroke-miterlimit:4;stroke-opacity:1;stroke-dasharray:none"/>
    <path id="path2538" d="M1158.08 1461.856c11.948 2.355 23.914 2.477 36.08 2.346 60.58-.651 122.277-.289 182.16-6.453 19.904-2.05 39.196-8.652 57.493-17.014 54.45-24.882 105.093-51.212 157.814-79.493 6.337-3.4 13.877-9.64 17.306-15.547 3.611-6.218 5.901-15.219 4.694-22.293-1.53-8.961-4.165-18.402-9.974-25.813-5.533-7.06-13.863-14.762-22-17.6-8.681-3.029-22.286-1.995-30.213 2.64-17.495 10.228-28.777 29.254-46.053 41.946-21.053 15.468-44.053 29.557-68.054 39.894-29.58 12.74-61.508 19.928-92.693 26.106-10.272 2.036-22.671-.74-31.973-4.986-8.69-3.967-19.173-16.672-21.707-26.107-20.15-75.045-30.772-146.441-46.053-223.813-2.495-12.681.216-27.08 4.693-38.72 3.345-8.698 10.665-17.07 18.773-22.294 50.167-32.322 98.101-59.751 151.654-86.24 19.194-9.493 50.398-17.61 71.573-21.413 74.647-13.406 142.123-22.384 217.653-34.906 14.582-2.418 28.421-14.63 37.84-25.227 6.226-7.004 9.247-17.69 10.267-27.28.935-8.793 2.04-26.61-5.573-39.307-67.843-113.124-134.73-207.541-209.44-315.333-3.903-5.63-16.008-11.78-22.88-12.32-27.936-2.197-56.331-2.347-84.48-2.347-14.091 0-35.767.181-48.987 4.694-52.095 17.78-95.61 40.955-146.96 62.186-30 12.404-61.276 22.17-90.347 36.374-22.164 10.828-41.833 28.831-64.826 36.666-29.807 10.156-59.336 9.067-89.467 14.96-5.542 1.084-14.06 6.526-14.08 16.72-.018 9.18 6.84 18.343 7.04 28.16.19 9.347-5 24.483-12.907 30.507-17.838 13.59-33.24 22.303-53.386 31.973-18.965 9.103-40.08 12.1-58.667 21.707-16.222 8.384-31.244 21.058-41.947 35.2-11.2 14.8-20.042 33.044-21.12 51.627-.724 12.495 5.096 30.265 12.907 40.48 43.033 56.274 90.974 103.705 136.987 158.986 8.352 10.035 17.198 23.351 17.6 35.2.38 11.227-7.987 23.987-15.254 34.027-52.182 72.094-107.491 135.033-159.866 205.626-9.124 12.298-9.83 23.182-3.227 30.8 5.83 6.727 29.208 5.4 43.707 8.507 115.75 24.808 207.569 43.845 325.893 67.173z" style="fill:none;stroke:#000;stroke-width:15;stroke-linecap:butt;stroke-linejoin:round;stroke-miterlimit:4;stroke-opacity:1;stroke-dasharray:none"/>
    <path id="path3310" d="M936.98 1177.872c-17.6 24.933-38.243 48.098-54.633 73.81-19.886 31.195-36.724 65.226-57.2 95.48-3.48 5.141-11.318 6.116-15.84 10.267-2.616 2.4-5.415 6.257-5.574 9.386-.134 2.64 2.36 6.894 4.694 7.92 2.555 1.125 6.696-2.15 9.973-1.466 52.457 10.951 104.652 25.012 157.227 36.373 55.568 12.008 111.41 21.325 167.2 32.267 10.015 1.964 20.039 4.754 30.213 5.28 33.337 1.723 66.878 1.15 100.32 1.466 28.549.27 54.58-.409 83.013-.586 10.69-.067 25.684-1.854 35.787-5.28 23.337-7.916 44.097-18.446 66.88-28.16 6.42-2.738 91.1-46.044 100.613-52.214 7.297-4.731 23.202-18.782 26.694-24.053 3.578-5.402 4.655-16.342 2.346-22.587-1.993-5.39-8.338-10.939-14.077-13.495-5.016-2.235-10.971-2.809-16.573-2.494-4.86.272-11.936 2.655-15.99 5.43-19.82 13.563-38.133 27.195-57.788 39.855" style="fill:none;stroke:#000;stroke-width:5;stroke-linecap:butt;stroke-linejoin:round;stroke-miterlimit:4;stroke-opacity:1;stroke-dasharray:none"/>
    <path id="path3497" d="M155.085 242.883c9.866-5.524 22.015-18.784 26.045-27.228 4.257-8.92 5.634-46.993 14.206-54.458 14.018-12.206 14.567-13.51 28.413-15.39 16.98-2.304 42.224 0 66.296-8.287" style="fill:none;stroke:none" transform="translate(775.603 501.782)"/>
  </g>
  <g id="layer4" style="display:inline">
    <g id="g3804" clip-path="none" style="display:inline" transform="translate(-1784.798 -465.912)">
      <text xml:space="preserve" id="text3180" x="2073.466" y="964.988" style="font-size:64px;font-style:normal;font-weight:400;fill:#000;fill-opacity:1;stroke:#fff;stroke-width:1px;stroke-linecap:butt;stroke-linejoin:miter;stroke-opacity:1;font-family:Times New Roman"><tspan id="tspan3182" x="2073.466" y="964.988">N</tspan></text>
      <path id="path2745" d="m2121.56 960.58 43.803-32.872.444.93-6.085 13.74 14.507 3.918.444.93z" style="fill:red;fill-opacity:1;fill-rule:nonzero;stroke:#fff;stroke-width:1;stroke-linecap:round;stroke-linejoin:round;stroke-miterlimit:4;stroke-opacity:1;stroke-dasharray:none;stroke-dashoffset:0"/>
    </g>
    <g id="g4801" clip-path="url(#clipPath9716)" style="display:inline" transform="rotate(228.34 -621.724 491.767)scale(-1.1436 1.1436)">
      <path id="path3463" d="M1695.937 1398.52h-24.481l12.24-21.2z" clip-path="url(#clipPath3494)" style="fill:red;fill-opacity:1;stroke:#fff;stroke-width:.97717649;stroke-linecap:round;stroke-linejoin:miter;stroke-miterlimit:4;stroke-opacity:1;stroke-dasharray:none;stroke-dashoffset:0;display:inline" transform="rotate(134.293 1438.103 1599.24)scale(.514 1.55789)"/>
      <rect id="rect3457" width="13.041" height="53.589" x="-1620.884" y="376.017" clip-path="url(#clipPath3490)" ry="0" style="fill:url(#pattern4166);fill-opacity:1;stroke:#000;stroke-width:.8744275;stroke-linecap:round;stroke-linejoin:round;stroke-miterlimit:4;stroke-opacity:1;stroke-dasharray:none;stroke-dashoffset:0;display:inline" transform="rotate(-135.918)"/>
    </g>
  </g>
  <g id="layer2" style="display:inline">
    <g id="g3401" transform="translate(-759.126 -482.952)">
      <path id="path3399" d="M38.838 915.052a21.773 21.773 0 1 1-43.546 0 21.773 21.773 0 1 1 43.546 0" style="fill:#fff;fill-opacity:1;fill-rule:nonzero;stroke:#181818;stroke-width:2;stroke-linecap:round;stroke-linejoin:round;stroke-miterlimit:4;stroke-opacity:1;stroke-dasharray:none;stroke-dashoffset:66;marker:none;visibility:visible;display:inline;overflow:visible" transform="translate(779.617 497.093)"/>
      <text xml:space="preserve" id="text3395" x="1.177" y="923.879" style="font-size:40px;font-style:normal;font-weight:400;writing-mode:lr-tb;fill:#000;fill-opacity:1;stroke:none;font-family:Times New Roman" transform="translate(775.603 501.782)"><tspan id="tspan3397" x="1.177" y="923.879">11</tspan></text>
    </g>
    <g id="g3471" transform="translate(-781.488 -493.544)">
      <path id="path3469" d="M38.838 915.052a21.773 21.773 0 1 1-43.546 0 21.773 21.773 0 1 1 43.546 0" style="fill:#fff;fill-opacity:1;fill-rule:nonzero;stroke:#181818;stroke-width:2;stroke-linecap:round;stroke-linejoin:round;stroke-miterlimit:4;stroke-opacity:1;stroke-dasharray:none;stroke-dashoffset:66;marker:none;visibility:visible;display:inline;overflow:visible" transform="translate(1621.401 351.156)"/>
      <text xml:space="preserve" id="text3355" x="853.264" y="777.941" style="font-size:40px;font-style:normal;font-weight:400;writing-mode:lr-tb;fill:#000;fill-opacity:1;stroke:none;font-family:Times New Roman" transform="translate(775.603 501.782)"><tspan id="tspan3357" x="853.264" y="777.941">2</tspan></text>
    </g>
    <g id="g3464" transform="translate(-788.549 -473.536)">
      <path id="path3462" d="M38.838 915.052a21.773 21.773 0 1 1-43.546 0 21.773 21.773 0 1 1 43.546 0" style="fill:#fff;fill-opacity:1;fill-rule:nonzero;stroke:#181818;stroke-width:2;stroke-linecap:round;stroke-linejoin:round;stroke-miterlimit:4;stroke-opacity:1;stroke-dasharray:none;stroke-dashoffset:66;marker:none;visibility:visible;display:inline;overflow:visible" transform="translate(1326.723 407.882)"/>
      <text xml:space="preserve" id="text3359" x="559.035" y="834.433" style="font-size:40px;font-style:normal;font-weight:400;writing-mode:lr-tb;fill:#000;fill-opacity:1;stroke:none;font-family:Times New Roman" transform="translate(775.603 501.782)"><tspan id="tspan3361" x="559.035" y="834.433">3</tspan></text>
    </g>
    <g id="g3457" transform="translate(-787.372 -499.428)">
      <path id="path3455" d="M38.838 915.052a21.773 21.773 0 1 1-43.546 0 21.773 21.773 0 1 1 43.546 0" style="fill:#fff;fill-opacity:1;fill-rule:nonzero;stroke:#181818;stroke-width:2;stroke-linecap:round;stroke-linejoin:round;stroke-miterlimit:4;stroke-opacity:1;stroke-dasharray:none;stroke-dashoffset:66;marker:none;visibility:visible;display:inline;overflow:visible" transform="translate(1274.23 198.157)"/>
      <text xml:space="preserve" id="text3363" x="506.074" y="624.942" style="font-size:40px;font-style:normal;font-weight:400;writing-mode:lr-tb;fill:#000;fill-opacity:1;stroke:none;font-family:Times New Roman" transform="translate(775.603 501.782)"><tspan id="tspan3365" x="506.074" y="624.942">4</tspan></text>
    </g>
    <g id="g3450" transform="translate(-762.657 -479.42)">
      <path id="path3448" d="M38.838 915.052a21.773 21.773 0 1 1-43.546 0 21.773 21.773 0 1 1 43.546 0" style="fill:#fff;fill-opacity:1;fill-rule:nonzero;stroke:#181818;stroke-width:2;stroke-linecap:round;stroke-linejoin:round;stroke-miterlimit:4;stroke-opacity:1;stroke-dasharray:none;stroke-dashoffset:66;marker:none;visibility:visible;display:inline;overflow:visible" transform="translate(1690.878 -60.257)"/>
      <text xml:space="preserve" id="text3367" x="922.702" y="366.021" style="font-size:40px;font-style:normal;font-weight:400;writing-mode:lr-tb;fill:#000;fill-opacity:1;stroke:none;font-family:Times New Roman" transform="translate(775.603 501.782)"><tspan id="tspan3369" x="922.702" y="366.021">5</tspan></text>
    </g>
    <g id="g3443" transform="translate(-769.718 -494.72)">
      <path id="path3441" d="M38.838 915.052a21.773 21.773 0 1 1-43.546 0 21.773 21.773 0 1 1 43.546 0" style="fill:#fff;fill-opacity:1;fill-rule:nonzero;stroke:#181818;stroke-width:2;stroke-linecap:round;stroke-linejoin:round;stroke-miterlimit:4;stroke-opacity:1;stroke-dasharray:none;stroke-dashoffset:66;marker:none;visibility:visible;display:inline;overflow:visible" transform="translate(1492.429 -372.413)"/>
      <text xml:space="preserve" id="text3371" x="723.803" y="54.138" style="font-size:40px;font-style:normal;font-weight:400;writing-mode:lr-tb;fill:#000;fill-opacity:1;stroke:none;font-family:Times New Roman" transform="translate(775.603 501.782)"><tspan id="tspan3373" x="723.803" y="54.138">6</tspan></text>
    </g>
    <g id="g3436" transform="translate(-771.788 -450.213)">
      <path id="path3434" d="M38.838 915.052a21.773 21.773 0 1 1-43.546 0 21.773 21.773 0 1 1 43.546 0" style="fill:#fff;fill-opacity:1;fill-rule:nonzero;stroke:#181818;stroke-width:2;stroke-linecap:round;stroke-linejoin:round;stroke-miterlimit:4;stroke-opacity:1;stroke-dasharray:none;stroke-dashoffset:66;marker:none;visibility:visible;display:inline;overflow:visible" transform="translate(1095.574 -244.993)"/>
      <text xml:space="preserve" id="text3375" x="327.183" y="181.245" style="font-size:40px;font-style:normal;font-weight:400;writing-mode:lr-tb;fill:#000;fill-opacity:1;stroke:none;font-family:Times New Roman" transform="translate(775.603 501.782)"><tspan id="tspan3377" x="327.183" y="181.245">7</tspan></text>
    </g>
    <g id="g3415" transform="translate(-794.434 -493.544)">
      <path id="path3413" d="M38.838 915.052a21.773 21.773 0 1 1-43.546 0 21.773 21.773 0 1 1 43.546 0" style="fill:#fff;fill-opacity:1;fill-rule:nonzero;stroke:#181818;stroke-width:2;stroke-linecap:round;stroke-linejoin:round;stroke-miterlimit:4;stroke-opacity:1;stroke-dasharray:none;stroke-dashoffset:66;marker:none;visibility:visible;display:inline;overflow:visible" transform="translate(837.907 -45.191)"/>
      <text xml:space="preserve" id="text3387" x="69.438" y="381.321" style="font-size:40px;font-style:normal;font-weight:400;writing-mode:lr-tb;fill:#000;fill-opacity:1;stroke:none;font-family:Times New Roman" transform="translate(775.603 501.782)"><tspan id="tspan3389" x="69.438" y="381.321">9</tspan></text>
    </g>
    <g id="g3529" transform="translate(-775.603 -501.782)">
      <g id="g3478" style="font-size:24px" transform="translate(21.178 9.457)">
        <path id="path3476" d="M38.838 915.052a21.773 21.773 0 1 1-43.546 0 21.773 21.773 0 1 1 43.546 0" style="font-size:24px;fill:#fff;fill-opacity:1;fill-rule:nonzero;stroke:#181818;stroke-width:2;stroke-linecap:round;stroke-linejoin:round;stroke-miterlimit:4;stroke-opacity:1;stroke-dasharray:none;stroke-dashoffset:66;marker:none;visibility:visible;display:inline;overflow:visible" transform="translate(1448.697 538.285)"/>
        <text xml:space="preserve" id="text3351" x="680.257" y="965.071" style="font-size:40px;font-style:normal;font-variant:normal;font-weight:400;font-stretch:normal;text-align:start;line-height:125%;writing-mode:lr-tb;text-anchor:start;fill:#000;fill-opacity:1;stroke:none;font-family:Times New Roman;-inkscape-font-specification:Times New Roman" transform="translate(775.603 501.782)"><tspan id="tspan3353" x="680.257" y="965.071">1</tspan></text>
      </g>
      <path id="path3527" d="M1695.937 1398.52h-24.481l12.24-21.2z" clip-path="url(#clipPath3494)" style="fill:#000;fill-opacity:1;stroke:#fff;stroke-width:.97717649;stroke-linecap:round;stroke-linejoin:miter;stroke-miterlimit:4;stroke-opacity:1;stroke-dasharray:none;stroke-dashoffset:0;display:inline" transform="matrix(-.0415 .58635 1.77717 .12579 -956.018 298.937)"/>
    </g>
    <g id="g3540" transform="translate(-775.603 -501.782)">
      <g id="g3429" transform="translate(101.41 101.127)">
        <path id="path3427" d="M38.838 915.052a21.773 21.773 0 1 1-43.546 0 21.773 21.773 0 1 1 43.546 0" style="fill:#fff;fill-opacity:1;fill-rule:nonzero;stroke:#181818;stroke-width:2;stroke-linecap:round;stroke-linejoin:round;stroke-miterlimit:4;stroke-opacity:1;stroke-dasharray:none;stroke-dashoffset:66;marker:none;visibility:visible;display:inline;overflow:visible" transform="translate(928.657 -308.86)"/>
        <text xml:space="preserve" id="text3379" x="160.06" y="117.692" style="font-size:40px;font-style:normal;font-weight:400;writing-mode:lr-tb;fill:#000;fill-opacity:1;stroke:none;font-family:Times New Roman" transform="translate(775.603 501.782)"><tspan id="tspan3381" x="160.06" y="117.692">8</tspan></text>
      </g>
      <path id="path3538" d="M1695.937 1398.52h-24.481l12.24-21.2z" clip-path="url(#clipPath3494)" style="fill:#000;fill-opacity:1;stroke:#fff;stroke-width:.97717649;stroke-linecap:round;stroke-linejoin:miter;stroke-miterlimit:4;stroke-opacity:1;stroke-dasharray:none;stroke-dashoffset:0;display:inline" transform="rotate(116.161 14.558 -887.176)scale(.58782 -1.78162)"/>
    </g>
    <g id="g3549" transform="translate(-775.603 -501.782)">
      <g id="g3422" transform="translate(75.913 62.647)">
        <path id="path3420" d="M38.838 915.052a21.773 21.773 0 1 1-43.546 0 21.773 21.773 0 1 1 43.546 0" style="fill:#fff;fill-opacity:1;fill-rule:nonzero;stroke:#181818;stroke-width:2;stroke-linecap:round;stroke-linejoin:round;stroke-miterlimit:4;stroke-opacity:1;stroke-dasharray:none;stroke-dashoffset:66;marker:none;visibility:visible;display:inline;overflow:visible" transform="translate(955.124 -218.237)"/>
        <text xml:space="preserve" id="text3383" x="176.537" y="208.314" style="font-size:40px;font-style:normal;font-weight:400;writing-mode:lr-tb;fill:#000;fill-opacity:1;stroke:none;font-family:Times New Roman" transform="translate(775.603 501.782)"><tspan id="tspan3385" x="176.537" y="208.314">8a</tspan></text>
      </g>
      <path id="path3547" d="M1695.937 1398.52h-24.481l12.24-21.2z" clip-path="url(#clipPath3494)" style="fill:#000;fill-opacity:1;stroke:#fff;stroke-width:.97717649;stroke-linecap:round;stroke-linejoin:miter;stroke-miterlimit:4;stroke-opacity:1;stroke-dasharray:none;stroke-dashoffset:0;display:inline" transform="rotate(116.161 -1.64 -860.415)scale(.58782 -1.78162)"/>
    </g>
    <g id="g3228" style="display:inline" transform="translate(-775.603 -501.782)">
      <g id="g3408" transform="translate(5.885 9.415)">
        <path id="path3406" d="M38.838 915.052a21.773 21.773 0 1 1-43.546 0 21.773 21.773 0 1 1 43.546 0" style="fill:#fff;fill-opacity:1;fill-rule:nonzero;stroke:#181818;stroke-width:2;stroke-linecap:round;stroke-linejoin:round;stroke-miterlimit:4;stroke-opacity:1;stroke-dasharray:none;stroke-dashoffset:66;marker:none;visibility:visible;display:inline;overflow:visible" transform="translate(904.922 190.153)"/>
      </g>
      <text xml:space="preserve" id="text3391" x="124.753" y="616.704" style="font-size:40px;font-style:normal;font-weight:400;writing-mode:lr-tb;fill:#000;fill-opacity:1;stroke:none;display:inline;font-family:Times New Roman" transform="translate(781.488 511.197)"><tspan id="tspan3393" x="124.753" y="616.704">10</tspan></text>
    </g>
    <path id="path3536" d="M1695.937 1398.52h-24.481l12.24-21.2z" clip-path="url(#clipPath3494)" style="fill:#000;fill-opacity:1;stroke:#fff;stroke-width:.97717649;stroke-linecap:round;stroke-linejoin:miter;stroke-miterlimit:4;stroke-opacity:1;stroke-dasharray:none;stroke-dashoffset:0;display:inline" transform="matrix(-.56857 .14916 .4521 1.7233 658.96 -2470.87)"/>
  </g>
  <g id="layer3">
    <text xml:space="preserve" id="text3483" x="1630.186" y="1320.513" style="font-size:32px;font-style:normal;font-weight:400;writing-mode:lr-tb;fill:#000;fill-opacity:1;display:inline;font-family:Times New Roman" transform="translate(-775.603 -501.782)"><tspan id="tspan3485" x="1630.186" y="1320.513">Andretti</tspan><tspan id="tspan3487" x="1630.186" y="1360.513">Hairpin</tspan></text>
    <text xml:space="preserve" id="text3489" x="844.662" y="1069.259" style="font-size:32px;font-style:normal;font-weight:400;writing-mode:lr-tb;fill:#000;fill-opacity:1;display:inline;font-family:Times New Roman" transform="rotate(-24.347 -1550.811 1546.769)"><tspan id="tspan3491" x="844.662" y="1069.259">Rahal Straight</tspan></text>
    <path id="text3493" d="m931.963 717.097 3.334 3.692-.46.377q-.965-.906-1.551-1.152-.95-.393-1.844-.215t-1.91 1.011l-2.306 1.894 10.27 12.512q1.24 1.51 1.873 1.616.876.131 1.83-.653l.567-.466.367.447-6.944 5.7-.367-.446.58-.476q1.038-.851.958-1.838-.053-.605-1.182-1.98l-10.27-12.513-1.97 1.616q-1.146.942-1.491 1.508-.44.744-.351 1.763.088 1.02.916 2.2l-.46.377-2.958-4zm-.24-2.25 8.273 6.415q-.444-2.538-.247-3.671.195-1.133.818-1.936.747-.963 1.814-1.243t2.462.268q.972.377 3.071 2.006l4 3.102q1.076.832 1.604.966.393.106.795-.056t1.015-.952l.445.344-4.308 5.557-.445-.345.201-.26q.613-.789.611-1.285-.001-.495-.374-.982-.17-.191-1.132-.937l-4.001-3.103q-1.852-1.436-2.581-1.694-.729-.26-1.345-.064-.615.195-1.075.787-.47.606-.655 1.509-.187.903.08 2.573l5.977 4.634q1.16.9 1.545.99.385.092.849-.112t1.134-1.068l.445.345-4.347 5.606-.445-.345q.585-.753.685-1.367.067-.343-.163-.76-.231-.416-1.293-1.239l-10.236-7.937q-1.94-1.503-2.455-1.755-.517-.252-.825-.185-.309.066-.558.388-.202.259-.454.992l-.566-.162 1.24-4.455zm16.821-.732q3.051.922 5.234-.06 2.182-.983 2.782-3.005.4-1.347-.046-2.564-.445-1.216-2.043-2.424l.437-.375q1.959.923 3.195 2.936t.56 4.29q-.733 2.472-3.18 3.66-2.446 1.19-5.698.225-3.52-1.045-4.954-3.435t-.625-5.115q.685-2.307 2.645-3.339 1.961-1.032 4.507-.276zm-.869-.258 1.885-6.351q-1.34-.316-1.95-.237a3.1 3.1 0 0 0-1.65.725q-.7.6-.94 1.408-.368 1.244.307 2.511t2.348 1.944m-4.903-38.47 7.173.817-.087.477q-3.356.372-5.077 1.885t-2.173 3.987q-.38 2.074.368 3.943.747 1.867 2.877 3.249 2.13 1.38 5.559 2.007 2.828.516 5.068-.012t3.68-2.148 1.866-3.956q.37-2.029-.215-3.74-.585-1.71-2.828-4.042l.394-.42q2.496 2.075 3.406 4.401.91 2.327.385 5.2-.946 5.181-5.307 7.323-3.246 1.6-7.12.893-3.12-.57-5.478-2.445t-3.348-4.59-.46-5.62q.414-2.259 1.921-4.255.456-.585.507-.86a1.03 1.03 0 0 0-.16-.776q-.343-.476-1.05-.78zm10.746-11.813q1.326-2.967 4.383-3.758 2.608-.666 5.105.45 1.754.784 3.176 2.428 1.421 1.645 1.674 3.53.255 1.884-.556 3.696-1.32 2.952-4.45 3.642a8 8 0 0 1-5.108-.52q-1.798-.803-3.175-2.488-1.378-1.685-1.577-3.52a6.6 6.6 0 0 1 .528-3.46m.73.856q-.338.756-.23 1.72.109.965 1.026 1.939.916.974 2.685 1.764 2.853 1.275 5.429 1.065 2.574-.21 3.403-2.064.619-1.385-.121-2.793t-3.522-2.651q-3.48-1.556-6.147-.95-1.823.4-2.523 1.97m11.128-16.159 2.11 2.431q-.753-3.608.675-4.847.65-.564 1.417-.537.768.027 1.219.546.399.46.369 1.045t-.456.954q-.412.358-1.28.396-.865.038-1.114.254-.212.185-.255.635-.112.945.285 2.546l4.496 5.18q.778.897 1.401 1.163.43.186 1.004.06t1.306-.76l.368.424-5.534 4.803-.37-.424q.828-.717 1.003-1.325.13-.446-.11-.96-.115-.252-.934-1.196l-3.635-4.19q-1.639-1.889-2.028-2.181-.389-.294-.739-.28a1.05 1.05 0 0 0-.656.28q-.366.318-.673.894l-.487-.322 2.122-4.158zm7.616-15.574 6.548 12.656 1.704-4.629q.54-1.475.576-1.81a.67.67 0 0 0-.061-.391.7.7 0 0 0-.477-.36q-.333-.083-.875.162l-.23-.444 5.524-2.858.23.444q-1.125.617-1.715 1.327-.591.712-1.07 1.996l-1.703 4.699 5.394 2.434q2.243 1.005 2.952 1.217 1.003.309 1.603.244.42-.041 1.28-.486l.258.5-6.176 3.195-.258-.5q.52-.286.632-.53a.55.55 0 0 0-.024-.506q-.165-.318-1.087-.74l-6.477-2.964 2.183 4.22q.639 1.234 1.013 1.533.375.3.78.3.405.001 1.481-.537l.259.5-6.467 3.345-.259-.5q.972-.502 1.335-.99.213-.303.2-.7-.028-.567-.61-1.69l-5.988-11.575q-1.142-2.205-1.494-2.648t-.671-.515-.68.114q-.291.15-.752.688l-.487-.363 2.97-3.508zm28.414-.24.637 4.833-.512.068q-.889-2.2-1.918-2.9-1.03-.7-2.455-.511-1.084.143-1.675.803-.59.662-.499 1.358.114.868.692 1.422.563.573 2.13 1.09l2.406.803q3.346 1.119 3.677 3.629.256 1.935-1.052 3.314-1.308 1.378-3.12 1.617-1.302.171-3.036-.073-.532-.088-.857-.045-.357.047-.505.476l-.51.068-.668-5.066.51-.067q.72 2.111 2.089 3.05 1.37.939 2.887.739 1.07-.141 1.66-.857t.475-1.6q-.14-1.068-.988-1.698t-3.24-1.448q-2.394-.819-3.21-1.626-.813-.791-.99-2.139-.231-1.75.814-3.086 1.046-1.336 2.951-1.587.837-.11 2.077.09.82.127 1.084.093.248-.033.373-.16.124-.126.262-.523zm16.962 8.327q-.43 2.854-2.037 4.464-1.605 1.609-3.65 1.715-2.435.127-4.35-1.823-1.917-1.95-2.098-5.43-.176-3.37 1.72-5.58 1.896-2.212 4.704-2.358 2.107-.11 3.522.936 1.416 1.044 1.478 2.246.031.593-.332.98-.363.386-1.05.422-.92.048-1.42-.52-.281-.315-.415-1.23-.134-.918-.705-1.372-.57-.44-1.538-.39-1.56.082-2.452 1.286-1.185 1.595-1.054 4.107.134 2.559 1.491 4.452t3.496 1.782q1.53-.08 2.692-1.189.82-.762 1.534-2.692zm5.724-9.522.169 3.215q1.625-3.309 3.513-3.409.858-.044 1.447.448.59.493.626 1.18.031.609-.352 1.051-.382.443-.945.472-.546.03-1.253-.473-.708-.503-1.035-.486-.281.015-.592.344-.668.678-1.34 2.183l.36 6.85q.064 1.186.392 1.779.225.41.754.664.53.255 1.497.203l.03.562-7.318.385-.03-.562q1.094-.057 1.605-.428.377-.27.504-.825.064-.27 0-1.517l-.291-5.54q-.132-2.496-.258-2.967-.127-.47-.411-.674a1.05 1.05 0 0 0-.69-.183q-.484.025-1.08.291l-.186-.553 4.23-1.975zm8.775 5.305q.303 3.173 2.04 4.82 1.735 1.646 3.835 1.436 1.399-.14 2.355-1.015.957-.873 1.468-2.81l.514.263q-.112 2.163-1.507 4.07-1.394 1.906-3.757 2.145-2.565.258-4.593-1.556t-2.367-5.188q-.368-3.652 1.3-5.886 1.667-2.233 4.497-2.518 2.394-.24 4.092 1.183t1.964 4.065zm-.091-.902 6.592-.663q-.216-1.36-.52-1.895a3.1 3.1 0 0 0-1.297-1.252q-.82-.42-1.659-.335-1.29.13-2.208 1.235-.917 1.106-.908 2.91m8.724-4.873 5.84-1.374.133.563q-.792.25-.99.537-.196.288-.096.713.111.472.527 1.08l4.867 7.314 1.46-7.23-1.273-1.867q-.58-.827-1.256-1.037-.384-.135-1.308.035l-.132-.563 6.631-1.56.133.562q-1.085.304-1.459.76-.246.315-.121.848.072.304.268.595l5.047 7.256 1.12-8.402q.11-.893 0-1.38-.068-.289-.418-.447-.351-.158-1.224.015l-.133-.563 4.396-1.034.132.563q-1.277.51-1.524 2.253l-1.83 13.095-.624.147-5.577-8.078-1.967 9.853-.562.133-7.228-10.66q-.703-1.006-1.22-1.293-.517-.288-1.476-.27l-.132-.564z" style="font-size:32px;font-style:normal;font-weight:400;writing-mode:lr-tb;fill:#000;fill-opacity:1;display:inline;font-family:Times New Roman" transform="translate(-775.603 -501.782)"/>
    <text xml:space="preserve" id="text3502" x="864.392" y="872.522" style="font-size:32px;font-style:normal;font-weight:400;writing-mode:lr-tb;fill:#000;fill-opacity:1;display:inline;font-family:Times New Roman" transform="translate(-775.603 -501.782)"><tspan id="tspan3504" x="864.392" y="872.522">Rainey</tspan><tspan id="tspan3506" x="864.392" y="912.522">Curve</tspan></text>
  </g>
</svg>
