<!--Created with Inkscape (http://www.inkscape.org/)-->
<svg xmlns="http://www.w3.org/2000/svg" xmlns:xlink="http://www.w3.org/1999/xlink" id="svg2383" width="1380.295" height="469.69">
  <defs id="defs2385">
    <clipPath id="clipPath3490" clipPathUnits="userSpaceOnUse">
      <path id="rect3492" d="M683.14 104.104h1511.787v1003.748H683.14z" style="opacity:1;fill:#006a00;fill-opacity:1;fill-rule:nonzero;stroke:none" transform="rotate(135.918)"/>
    </clipPath>
    <clipPath id="clipPath3494" clipPathUnits="userSpaceOnUse">
      <path id="rect3496" d="M-4232.846-2372.13h2168.193v1468.418h-2168.193z" style="opacity:1;fill:#006a00;fill-opacity:1;fill-rule:nonzero;stroke:none" transform="matrix(-.9473 -.32036 .9519 -.3064 0 0)"/>
    </clipPath>
    <pattern id="pattern4912" width="18.181" height="18.138" patternTransform="translate(763.477 1693.907)scale(.17379)" patternUnits="userSpaceOnUse">
      <g id="g4907" transform="translate(-1025.535 -1215.281)">
        <path id="rect4899" d="M1025.535 1215.281h18.173v18.096h-18.173z" style="opacity:1;fill:#000;fill-opacity:1;stroke:none;stroke-width:.5;stroke-linecap:round;stroke-linejoin:round;stroke-miterlimit:4;stroke-dasharray:none;stroke-dashoffset:0;stroke-opacity:1"/>
        <path id="rect4903" d="M1025.535 1215.281h9.075v9.075h-9.075z" style="opacity:1;fill:#fff;fill-opacity:1;stroke:none;stroke-width:.5;stroke-linecap:round;stroke-linejoin:round;stroke-miterlimit:4;stroke-dasharray:none;stroke-dashoffset:0;stroke-opacity:1"/>
        <path id="rect4905" d="M1034.641 1224.344h9.075v9.075h-9.075z" style="opacity:1;fill:#fff;fill-opacity:1;stroke:none;stroke-width:.5;stroke-linecap:round;stroke-linejoin:round;stroke-miterlimit:4;stroke-dasharray:none;stroke-dashoffset:0;stroke-opacity:1"/>
      </g>
    </pattern>
    <pattern xlink:href="#pattern4912" id="pattern4166" patternTransform="translate(-1778.227 454.643)scale(.45625)"/>
  </defs>
  <g id="layer1" transform="translate(-1288.23 -918.789)">
    <use xlink:href="#text3968" id="use3972" x="0" y="0" style="stroke:#fff;stroke-opacity:1;stroke-width:1.5;stroke-miterlimit:4;stroke-dasharray:none"/>
    <path id="path3389" d="M1239.71 287.438c12.26 17.595 28.567 74.502 42.608 110.733" style="fill:none;stroke:#fff;stroke-width:12;stroke-linecap:butt;stroke-linejoin:round;stroke-miterlimit:4;stroke-opacity:1;stroke-dasharray:none" transform="translate(1330.146 674.761)"/>
    <g id="g3804" transform="translate(176.351 218.005)">
      <text xml:space="preserve" id="text3180" x="2073.466" y="964.988" style="font-size:64px;font-style:normal;font-weight:400;fill:#000;fill-opacity:1;stroke:#fff;stroke-width:1px;stroke-linecap:butt;stroke-linejoin:miter;stroke-opacity:1;font-family:Times New Roman"><tspan id="tspan3182" x="2073.466" y="964.988">N</tspan></text>
      <path id="path2745" d="m2134.112 966.948 30.317-45.608.73.73-1.15 14.98 14.982-1.148.73.73z" style="fill:red;fill-opacity:1;fill-rule:nonzero;stroke:#fff;stroke-width:1;stroke-linecap:round;stroke-linejoin:round;stroke-miterlimit:4;stroke-opacity:1;stroke-dasharray:none;stroke-dashoffset:0"/>
    </g>
    <path id="path3385" d="M-14.26 690.509c-7.58-.176-14.538-7.626-18.715-13.368-2.953-4.06-3.313-10.925-2.673-16.042.548-4.389 2.903-9.295 6.238-12.477 22.51-21.475 46.775-42.06 71.297-61.493 6.967-5.521 14.566-11.136 23.171-13.368 101.311-26.286 205.625-45.622 306.576-72.188 6.29-1.656 11.871-7.09 15.15-12.477 5.039-8.278 7.335-18.785 9.804-28.519 7.928-31.262 11.67-64.017 21.389-94.468 3.65-11.436 10.992-22.005 18.715-31.192 9.507-11.31 20.857-21.819 32.975-30.301 11.648-8.154 24.776-15.885 38.322-19.607 13.487-3.705 28.97-4.996 42.778-2.673 17.979 3.024 37.197 9.248 52.58 18.715 11.65 7.169 21.317 19.468 28.52 31.192 5.571 9.07 9.642 20.394 9.803 31.193.73 49.21-10.205 94.614-6.163 141.098.71 8.177 12.86 17.483 20.744 18.373 10.534 1.19 24.883-2.039 35.477-6.657 12.577-5.482 29.893-17.71 38.227-28.478 32.364-41.814 50.676-83.783 81.936-127.01 6.765-9.355 17.295-16.131 27.627-21.389 39.872-20.29 80.876-40.616 122.987-55.255 20.273-7.047 42.598-9.515 64.167-9.803 67.254-.9 135.148 2.866 202.304 6.238 3.844.193 7.869 2.56 9.783 5.368 2.542 3.728 3.006 9.751 1.079 14.011-3.718 8.217-12.908 13.968-17.1 22.508-3.83 7.8-5.613 17.423-2.178 23.546 3.398 6.057 14.388 9.65 22.675 12.994 8.646 3.488 16.23 6.738 22.656 12.745 7.239 6.767 12.963 16.36 16.29 26.26 9.15 27.234 19.314 53.674 21.752 81.157.83 9.354-3.736 21.674-9.899 28.67-4.829 5.48-13.834 8.34-21.142 8.438-14.972.2-30.097-5.499-45.699-7.547-13.808-1.814-28.712-3.317-41.886-.494-11.78 2.524-24.047 8.377-32.975 16.535-8.302 7.587-15.003 18.686-18.715 29.41-4.309 12.447-5.48 27.023-2.448 38.816 2.315 9.002 9.607 18.081 18.812 18.413 23.77.857 51.08-10.335 77.212-12.593 21.994-1.9 45.503.114 65.552 7.527 15.302 5.658 29.318 16.603 35.991 31.042 3.992 8.638 4.95 22.725 1.632 31.686-2.623 7.08-5.694 11.39-13.656 14.183-8.97 3.148-25.045 3.31-34.888 3.318-311.586.288-742.007 3.316-929.4 4.663-146.218 1.05-287.272.983-366.683-.7z" style="fill:none;stroke:#fff;stroke-width:12;stroke-linecap:butt;stroke-linejoin:round;stroke-miterlimit:4;stroke-opacity:1;stroke-dasharray:none" transform="translate(1330.146 674.761)"/>
    <path id="path3383" d="M1239.71 287.438c12.26 17.595 28.567 74.502 42.608 110.733" style="fill:none;stroke:#c8c8c8;stroke-width:10;stroke-linecap:butt;stroke-linejoin:round;stroke-miterlimit:4;stroke-opacity:1;stroke-dasharray:none" transform="translate(1330.146 674.761)"/>
    <path id="path3387" d="M1056.57 683.158c-33.942.322-57.687-5.372-101.823-4.229-65.676 1.71-132.818-.743-197.2-2.054-14.98-.305-27.856-12.298-42.212-16.756-6.052-1.879-12.788-3.262-19.011-2.255-19.662 3.182-38.592 16.248-58.685 16.352-134.799.663-270.508-.074-405.96-1.852-33.852-.435-67.34 10.07-101.179 9.666-33.877-.404-67.703-.433-101.5 0-22.911.294-37.391 5.88-46.883 3.666" style="fill:none;stroke:#fff;stroke-width:4;stroke-linecap:butt;stroke-linejoin:round;stroke-miterlimit:4;stroke-opacity:1;stroke-dasharray:none" transform="translate(1330.146 674.761)"/>
    <path id="path2609" d="M-14.26 690.509c-7.58-.176-14.538-7.626-18.715-13.368-2.953-4.06-3.313-10.925-2.673-16.042.548-4.389 2.903-9.295 6.238-12.477 22.51-21.475 46.775-42.06 71.297-61.493 6.967-5.521 14.566-11.136 23.171-13.368 101.311-26.286 205.625-45.622 306.576-72.188 6.29-1.656 11.871-7.09 15.15-12.477 5.039-8.278 7.335-18.785 9.804-28.519 7.928-31.262 11.67-64.017 21.389-94.468 3.65-11.436 10.992-22.005 18.715-31.192 9.507-11.31 20.857-21.819 32.975-30.301 11.648-8.154 24.776-15.885 38.322-19.607 13.487-3.705 28.97-4.996 42.778-2.673 17.979 3.024 37.197 9.248 52.58 18.715 11.65 7.169 21.317 19.468 28.52 31.192 5.571 9.07 9.642 20.394 9.803 31.193.73 49.21-10.205 94.614-6.163 141.098.71 8.177 12.86 17.483 20.744 18.373 10.534 1.19 24.883-2.039 35.477-6.657 12.577-5.482 29.893-17.71 38.227-28.478 32.364-41.814 50.676-83.783 81.936-127.01 6.765-9.355 17.295-16.131 27.627-21.389 39.872-20.29 80.876-40.616 122.987-55.255 20.273-7.047 42.598-9.515 64.167-9.803 67.254-.9 135.148 2.866 202.304 6.238 3.844.193 7.869 2.56 9.783 5.368 2.542 3.728 3.006 9.751 1.079 14.011-3.718 8.217-12.908 13.968-17.1 22.508-3.83 7.8-5.613 17.423-2.178 23.546 3.398 6.057 14.388 9.65 22.675 12.994 8.646 3.488 16.23 6.738 22.656 12.745 7.239 6.767 12.963 16.36 16.29 26.26 9.15 27.234 19.314 53.674 21.752 81.157.83 9.354-3.736 21.674-9.899 28.67-4.829 5.48-13.834 8.34-21.142 8.438-14.972.2-30.097-5.499-45.699-7.547-13.808-1.814-28.712-3.317-41.886-.494-11.78 2.524-24.047 8.377-32.975 16.535-8.302 7.587-15.003 18.686-18.715 29.41-4.309 12.447-5.48 27.023-2.448 38.816 2.315 9.002 9.607 18.081 18.812 18.413 23.77.857 51.08-10.335 77.212-12.593 21.994-1.9 45.503.114 65.552 7.527 15.302 5.658 29.318 16.603 35.991 31.042 3.992 8.638 4.95 22.725 1.632 31.686-2.623 7.08-5.694 11.39-13.656 14.183-8.97 3.148-25.045 3.31-34.888 3.318-311.586.288-742.007 3.316-929.4 4.663-146.218 1.05-287.272.983-366.683-.7z" style="fill:none;stroke:#000;stroke-width:10;stroke-linecap:butt;stroke-linejoin:round;stroke-miterlimit:4;stroke-opacity:1;stroke-dasharray:none" transform="translate(1330.146 674.761)"/>
    <path id="path3381" d="M1056.57 683.158c-33.942.322-57.687-5.372-101.823-4.229-65.676 1.71-132.818-.743-197.2-2.054-14.98-.305-27.856-12.298-42.212-16.756-6.052-1.879-12.788-3.262-19.011-2.255-19.662 3.182-38.592 16.248-58.685 16.352-134.799.663-270.508-.074-405.96-1.852-33.852-.435-67.34 10.07-101.179 9.666-33.877-.404-67.703-.433-101.5 0-22.911.294-37.391 5.88-46.883 3.666" style="fill:none;stroke:#000;stroke-width:2;stroke-linecap:butt;stroke-linejoin:round;stroke-miterlimit:4;stroke-opacity:1;stroke-dasharray:none" transform="translate(1330.146 674.761)"/>
    <g id="g4801" transform="rotate(135.976 1414.376 1128.45)">
      <path id="path3463" d="M1695.937 1398.52h-24.481l12.24-21.2z" clip-path="url(#clipPath3494)" style="opacity:1;fill:red;fill-opacity:1;stroke:#fff;stroke-width:.83812821;stroke-linecap:round;stroke-linejoin:miter;stroke-miterlimit:4;stroke-opacity:1;stroke-dasharray:none;stroke-dashoffset:0;display:inline" transform="rotate(134.293 1438.103 1599.24)scale(.514 1.55789)"/>
      <rect id="rect3457" width="13.041" height="53.589" x="-1620.884" y="376.017" clip-path="url(#clipPath3490)" ry="0" style="opacity:1;fill:url(#pattern4166);fill-opacity:1;stroke:#000;stroke-width:.74999946;stroke-linecap:round;stroke-linejoin:round;stroke-miterlimit:4;stroke-opacity:1;stroke-dasharray:none;stroke-dashoffset:0;display:inline" transform="rotate(-135.918)"/>
    </g>
    <g id="g3678" transform="translate(-23.696 24.607)">
      <path id="path3468-27" d="M1285.052 632.625c0 11.068-8.983 20.05-20.05 20.05-11.069 0-20.051-8.982-20.051-20.05s8.982-20.05 20.05-20.05 20.05 8.982 20.05 20.05" style="opacity:1;color:#000;fill:#fff;fill-opacity:1;fill-rule:nonzero;stroke:#181818;stroke-width:1;stroke-linecap:round;stroke-linejoin:round;stroke-miterlimit:4;stroke-opacity:1;stroke-dasharray:none;stroke-dashoffset:66;marker:none;marker-start:none;marker-mid:none;marker-end:none;visibility:visible;display:inline;overflow:visible" transform="translate(133.073 568.285)"/>
      <text xml:space="preserve" id="text3408" x="58.329" y="539.664" style="font-size:40px;font-style:normal;font-weight:400;writing-mode:lr-tb;fill:#000;fill-opacity:1;stroke:none;font-family:Times New Roman" transform="translate(1330.146 674.761)"><tspan id="tspan3410" x="58.329" y="539.664">2</tspan></text>
    </g>
    <g id="g3608" transform="translate(-5.468 10.937)">
      <path id="path3468-5" d="M1285.052 632.625c0 11.068-8.983 20.05-20.05 20.05-11.069 0-20.051-8.982-20.051-20.05s8.982-20.05 20.05-20.05 20.05 8.982 20.05 20.05" style="opacity:1;color:#000;fill:#fff;fill-opacity:1;fill-rule:nonzero;stroke:#181818;stroke-width:1;stroke-linecap:round;stroke-linejoin:round;stroke-miterlimit:4;stroke-opacity:1;stroke-dasharray:none;stroke-dashoffset:66;marker:none;marker-start:none;marker-mid:none;marker-end:none;visibility:visible;display:inline;overflow:visible" transform="translate(830.536 535.11)"/>
      <text xml:space="preserve" id="text3428" x="755.538" y="505.942" style="font-size:40px;font-style:normal;font-weight:400;writing-mode:lr-tb;fill:#000;fill-opacity:1;stroke:none;font-family:Times New Roman" transform="translate(1330.146 674.761)"><tspan id="tspan3430" x="755.538" y="505.942">7</tspan></text>
    </g>
    <g id="g3594">
      <path id="path3468-21" d="M1285.052 632.625c0 11.068-8.983 20.05-20.05 20.05-11.069 0-20.051-8.982-20.051-20.05s8.982-20.05 20.05-20.05 20.05 8.982 20.05 20.05" style="opacity:1;color:#000;fill:#fff;fill-opacity:1;fill-rule:nonzero;stroke:#181818;stroke-width:1;stroke-linecap:round;stroke-linejoin:round;stroke-miterlimit:4;stroke-opacity:1;stroke-dasharray:none;stroke-dashoffset:66;marker:none;marker-start:none;marker-mid:none;marker-end:none;visibility:visible;display:inline;overflow:visible" transform="translate(872.664 365.28)"/>
      <text xml:space="preserve" id="text3432" x="797.461" y="336.425" style="font-size:40px;font-style:normal;font-weight:400;writing-mode:lr-tb;fill:#000;fill-opacity:1;stroke:none;font-family:Times New Roman" transform="translate(1330.146 674.761)"><tspan id="tspan3434" x="797.461" y="336.425">8</tspan></text>
    </g>
    <g id="g3552" transform="translate(6 10)">
      <path id="path3468-15" d="M1285.052 632.625c0 11.068-8.983 20.05-20.05 20.05-11.069 0-20.051-8.982-20.051-20.05s8.982-20.05 20.05-20.05 20.05 8.982 20.05 20.05" style="opacity:1;color:#000;fill:#fff;fill-opacity:1;fill-rule:nonzero;stroke:#181818;stroke-width:1;stroke-linecap:round;stroke-linejoin:round;stroke-miterlimit:4;stroke-opacity:1;stroke-dasharray:none;stroke-dashoffset:66;marker:none;marker-start:none;marker-mid:none;marker-end:none;visibility:visible;display:inline;overflow:visible" transform="translate(1242.505 381.45)"/>
      <text xml:space="preserve" id="text3444" x="1157.458" y="352.83" style="font-size:40px;font-style:normal;font-weight:400;writing-mode:lr-tb;fill:#000;fill-opacity:1;stroke:none;font-family:Times New Roman" transform="translate(1330.146 674.761)"><tspan id="tspan3446" x="1157.458" y="352.83">11</tspan></text>
    </g>
    <g id="g3538" transform="translate(2.734 15.494)">
      <path id="path3468-1" d="M1285.052 632.625c0 11.068-8.983 20.05-20.05 20.05-11.069 0-20.051-8.982-20.051-20.05s8.982-20.05 20.05-20.05 20.05 8.982 20.05 20.05" style="opacity:1;color:#000;fill:#fff;fill-opacity:1;fill-rule:nonzero;stroke:#181818;stroke-width:1;stroke-linecap:round;stroke-linejoin:round;stroke-miterlimit:4;stroke-opacity:1;stroke-dasharray:none;stroke-dashoffset:66;marker:none;marker-start:none;marker-mid:none;marker-end:none;visibility:visible;display:inline;overflow:visible" transform="translate(1308.825 423.374)"/>
      <text xml:space="preserve" id="text3448" x="1222.166" y="394.754" style="font-size:40px;font-style:normal;font-weight:400;writing-mode:lr-tb;fill:#000;fill-opacity:1;stroke:none;font-family:Times New Roman" transform="translate(1330.146 674.761)"><tspan id="tspan3450" x="1222.166" y="394.754">12</tspan></text>
    </g>
    <g id="g3888">
      <use xlink:href="#text3701" id="use3735" width="1445.146" height="912.42" x="0" y="0" style="stroke:#fff;stroke-width:2;stroke-miterlimit:4;stroke-opacity:1;stroke-dasharray:none"/>
      <g id="g3664" transform="translate(12.76 11.848)">
        <path id="path3468-13" d="M1285.052 632.625c0 11.068-8.983 20.05-20.05 20.05-11.069 0-20.051-8.982-20.051-20.05s8.982-20.05 20.05-20.05 20.05 8.982 20.05 20.05" style="opacity:1;color:#000;fill:#fff;fill-opacity:1;fill-rule:nonzero;stroke:#181818;stroke-width:1;stroke-linecap:round;stroke-linejoin:round;stroke-miterlimit:4;stroke-opacity:1;stroke-dasharray:none;stroke-dashoffset:66;marker:none;marker-start:none;marker-mid:none;marker-end:none;visibility:visible;display:inline;overflow:visible" transform="translate(412.419 502.9)"/>
        <text xml:space="preserve" id="text3412" x="338.124" y="474.044" style="font-size:40px;font-style:normal;font-weight:400;writing-mode:lr-tb;fill:#000;fill-opacity:1;stroke:none;font-family:Times New Roman" transform="translate(1330.146 674.761)"><tspan id="tspan3414" x="338.124" y="474.044">3</tspan></text>
      </g>
      <text xml:space="preserve" id="text3701" x="1587.156" y="1119.641" style="font-size:24px;font-style:normal;font-weight:400;writing-mode:lr-tb;fill:#000;fill-opacity:1;font-family:Times New Roman"><tspan id="tspan3703" x="1587.156" y="1119.641">Coca Cola</tspan></text>
    </g>
    <g id="g3897">
      <use xlink:href="#text3705" id="use3737" width="1445.146" height="912.42" x="0" y="0" style="stroke:#fff;stroke-width:2;stroke-miterlimit:4;stroke-opacity:1;stroke-dasharray:none"/>
      <g id="g3650" transform="translate(-117.569 -6.38)">
        <path id="path3468-3" d="M1285.052 632.625c0 11.068-8.983 20.05-20.05 20.05-11.069 0-20.051-8.982-20.051-20.05s8.982-20.05 20.05-20.05 20.05 8.982 20.05 20.05" style="opacity:1;color:#000;fill:#fff;fill-opacity:1;fill-rule:nonzero;stroke:#181818;stroke-width:1;stroke-linecap:round;stroke-linejoin:round;stroke-miterlimit:4;stroke-opacity:1;stroke-dasharray:none;stroke-dashoffset:66;marker:none;marker-start:none;marker-mid:none;marker-end:none;visibility:visible;display:inline;overflow:visible" transform="translate(604.278 351.375)"/>
        <text xml:space="preserve" id="text3416" x="529.514" y="322.754" style="font-size:40px;font-style:normal;font-weight:400;writing-mode:lr-tb;fill:#000;fill-opacity:1;stroke:none;font-family:Times New Roman" transform="translate(1330.146 674.761)"><tspan id="tspan3418" x="529.514" y="322.754">4</tspan></text>
      </g>
      <g id="g3636">
        <path id="path3468-54" d="M1285.052 632.625c0 11.068-8.983 20.05-20.05 20.05-11.069 0-20.051-8.982-20.051-20.05s8.982-20.05 20.05-20.05 20.05 8.982 20.05 20.05" style="opacity:1;color:#000;fill:#fff;fill-opacity:1;fill-rule:nonzero;stroke:#181818;stroke-width:1;stroke-linecap:round;stroke-linejoin:round;stroke-miterlimit:4;stroke-opacity:1;stroke-dasharray:none;stroke-dashoffset:66;marker:none;marker-start:none;marker-mid:none;marker-end:none;visibility:visible;display:inline;overflow:visible" transform="translate(735.537 363.73)"/>
        <text xml:space="preserve" id="text3420" x="660.754" y="334.602" style="font-size:40px;font-style:normal;font-weight:400;writing-mode:lr-tb;fill:#000;fill-opacity:1;stroke:none;font-family:Times New Roman" transform="translate(1330.146 674.761)"><tspan id="tspan3422" x="660.754" y="334.602">5</tspan></text>
      </g>
      <text xml:space="preserve" id="text3705" x="1842.344" y="996.604" style="font-size:24px;font-style:normal;font-weight:400;writing-mode:lr-tb;fill:#000;fill-opacity:1;font-family:Times New Roman"><tspan id="tspan3707" x="1842.344" y="996.604">100 R</tspan></text>
    </g>
    <g id="g3910">
      <use xlink:href="#text3709" id="use3739" width="1445.146" height="912.42" x="0" y="0" style="stroke:#fff;stroke-width:2;stroke-miterlimit:4;stroke-opacity:1;stroke-dasharray:none"/>
      <g id="g3622" transform="translate(-13.67 12.76)">
        <path id="path3468-89" d="M1285.052 632.625c0 11.068-8.983 20.05-20.05 20.05-11.069 0-20.051-8.982-20.051-20.05s8.982-20.05 20.05-20.05 20.05 8.982 20.05 20.05" style="opacity:1;color:#000;fill:#fff;fill-opacity:1;fill-rule:nonzero;stroke:#181818;stroke-width:1;stroke-linecap:round;stroke-linejoin:round;stroke-miterlimit:4;stroke-opacity:1;stroke-dasharray:none;stroke-dashoffset:66;marker:none;marker-start:none;marker-mid:none;marker-end:none;visibility:visible;display:inline;overflow:visible" transform="translate(680.392 557.582)"/>
        <text xml:space="preserve" id="text3424" x="605.159" y="528.727" style="font-size:40px;font-style:normal;font-weight:400;writing-mode:lr-tb;fill:#000;fill-opacity:1;stroke:none;font-family:Times New Roman" transform="translate(1330.146 674.761)"><tspan id="tspan3426" x="605.159" y="528.727">6</tspan></text>
      </g>
      <text xml:space="preserve" id="text3709" x="1956.267" y="1230.83" style="font-size:24px;font-style:normal;font-weight:400;writing-mode:lr-tb;fill:#000;fill-opacity:1;font-family:Times New Roman"><tspan id="tspan3711" x="1956.267" y="1230.83">Hairpin</tspan></text>
    </g>
    <g id="g3919">
      <use xlink:href="#text3713" id="use3741" width="1445.146" height="912.42" x="0" y="0" style="stroke:#fff;stroke-width:2;stroke-miterlimit:4;stroke-opacity:1;stroke-dasharray:none"/>
      <g id="g3580" transform="translate(-12.76 2.734)">
        <path id="path3468-2" d="M1285.052 632.625c0 11.068-8.983 20.05-20.05 20.05-11.069 0-20.051-8.982-20.051-20.05s8.982-20.05 20.05-20.05 20.05 8.982 20.05 20.05" style="opacity:1;color:#000;fill:#fff;fill-opacity:1;fill-rule:nonzero;stroke:#181818;stroke-width:1;stroke-linecap:round;stroke-linejoin:round;stroke-miterlimit:4;stroke-opacity:1;stroke-dasharray:none;stroke-dashoffset:66;marker:none;marker-start:none;marker-mid:none;marker-end:none;visibility:visible;display:inline;overflow:visible" transform="translate(1084.89 346.18)"/>
        <text xml:space="preserve" id="text3436" x="1009.814" y="317.286" style="font-size:40px;font-style:normal;font-weight:400;writing-mode:lr-tb;fill:#000;fill-opacity:1;stroke:none;font-family:Times New Roman" transform="translate(1330.146 674.761)"><tspan id="tspan3438" x="1009.814" y="317.286">9</tspan></text>
      </g>
      <text xml:space="preserve" id="text3713" x="2312.618" y="1027.591" style="font-size:24px;font-style:normal;font-weight:400;writing-mode:lr-tb;fill:#000;fill-opacity:1;font-family:Times New Roman"><tspan id="tspan3715" x="2312.618" y="1027.591">300 R</tspan></text>
    </g>
    <g id="g3928">
      <use xlink:href="#text3717" id="use3743" width="1445.146" height="912.42" x="0" y="0" style="stroke:#fff;stroke-width:2;stroke-miterlimit:4;stroke-opacity:1;stroke-dasharray:none"/>
      <g id="g3566" transform="translate(-11.848 26.43)">
        <path id="path3468-6" d="M1285.052 632.625c0 11.068-8.983 20.05-20.05 20.05-11.069 0-20.051-8.982-20.051-20.05s8.982-20.05 20.05-20.05 20.05 8.982 20.05 20.05" style="opacity:1;color:#000;fill:#fff;fill-opacity:1;fill-rule:nonzero;stroke:#181818;stroke-width:1;stroke-linecap:round;stroke-linejoin:round;stroke-miterlimit:4;stroke-opacity:1;stroke-dasharray:none;stroke-dashoffset:66;marker:none;marker-start:none;marker-mid:none;marker-end:none;visibility:visible;display:inline;overflow:visible" transform="translate(1358.157 304.218)"/>
        <text xml:space="preserve" id="text3440" x="1271.381" y="275.362" style="font-size:40px;font-style:normal;font-weight:400;writing-mode:lr-tb;fill:#000;fill-opacity:1;stroke:none;font-family:Times New Roman" transform="translate(1330.146 674.761)"><tspan id="tspan3442" x="1271.381" y="275.362">10</tspan></text>
      </g>
      <text xml:space="preserve" id="text3717" x="2576.92" y="936.453" style="font-size:24px;font-style:normal;font-weight:400;writing-mode:lr-tb;fill:#000;fill-opacity:1;font-family:Times New Roman"><tspan id="tspan3719" x="2576.92" y="936.453">Dunlop</tspan></text>
    </g>
    <g id="g3937">
      <g id="g3524" transform="translate(-62.886 -22.785)">
        <path id="path3468-4" d="M1285.052 632.625c0 11.068-8.983 20.05-20.05 20.05-11.069 0-20.051-8.982-20.051-20.05s8.982-20.05 20.05-20.05 20.05 8.982 20.05 20.05" style="opacity:1;color:#000;fill:#fff;fill-opacity:1;fill-rule:nonzero;stroke:#181818;stroke-width:1;stroke-linecap:round;stroke-linejoin:round;stroke-miterlimit:4;stroke-opacity:1;stroke-dasharray:none;stroke-dashoffset:66;marker:none;marker-start:none;marker-mid:none;marker-end:none;visibility:visible;display:inline;overflow:visible" transform="translate(1400.044 544.823)"/>
        <text xml:space="preserve" id="text3452" x="1314.216" y="515.968" style="font-size:40px;font-style:normal;font-weight:400;writing-mode:lr-tb;fill:#000;fill-opacity:1;stroke:none;font-family:Times New Roman" transform="translate(1330.146 674.761)"><tspan id="tspan3454" x="1314.216" y="515.968">13</tspan></text>
      </g>
      <text xml:space="preserve" id="text3721" x="2605.552" y="1218.982" style="font-size:24px;font-style:normal;font-weight:400;writing-mode:lr-tb;fill:#000;fill-opacity:1;stroke:none;font-family:Times New Roman"><tspan id="tspan3723" x="2605.552" y="1218.982">13th</tspan></text>
    </g>
    <g id="g3945">
      <use xlink:href="#text3725" id="use3745" width="1445.146" height="912.42" x="0" y="0" style="stroke:#fff;stroke-width:2;stroke-miterlimit:4;stroke-opacity:1;stroke-dasharray:none"/>
      <g id="g3510" transform="translate(92.961 -60.151)">
        <path id="path3468-8" d="M1285.052 632.625c0 11.068-8.983 20.05-20.05 20.05-11.069 0-20.051-8.982-20.051-20.05s8.982-20.05 20.05-20.05 20.05 8.982 20.05 20.05" style="opacity:1;color:#000;fill:#fff;fill-opacity:1;fill-rule:nonzero;stroke:#181818;stroke-width:1;stroke-linecap:round;stroke-linejoin:round;stroke-miterlimit:4;stroke-opacity:1;stroke-dasharray:none;stroke-dashoffset:66;marker:none;marker-start:none;marker-mid:none;marker-end:none;visibility:visible;display:inline;overflow:visible" transform="translate(1088.343 623.552)"/>
        <text xml:space="preserve" id="text3456" x="1000.7" y="595.258" style="font-size:40px;font-style:normal;font-weight:400;writing-mode:lr-tb;fill:#000;fill-opacity:1;stroke:none;font-family:Times New Roman" transform="translate(1330.146 674.761)"><tspan id="tspan3458" x="1000.7" y="595.258">14</tspan></text>
      </g>
      <g id="g3496" transform="translate(13.67 31.898)">
        <path id="path3468-0" d="M1285.052 632.625c0 11.068-8.983 20.05-20.05 20.05-11.069 0-20.051-8.982-20.051-20.05s8.982-20.05 20.05-20.05 20.05 8.982 20.05 20.05" style="opacity:1;color:#000;fill:#fff;fill-opacity:1;fill-rule:nonzero;stroke:#181818;stroke-width:1;stroke-linecap:round;stroke-linejoin:round;stroke-miterlimit:4;stroke-opacity:1;stroke-dasharray:none;stroke-dashoffset:66;marker:none;marker-start:none;marker-mid:none;marker-end:none;visibility:visible;display:inline;overflow:visible" transform="translate(1159.78 631.404)"/>
        <text xml:space="preserve" id="text3460" x="1073.611" y="602.549" style="font-size:40px;font-style:normal;font-weight:400;writing-mode:lr-tb;fill:#000;fill-opacity:1;stroke:none;font-family:Times New Roman" transform="translate(1330.146 674.761)"><tspan id="tspan3462" x="1073.611" y="602.549">15</tspan></text>
      </g>
      <text xml:space="preserve" id="text3725" x="2402.845" y="1256.349" style="font-size:24px;font-style:normal;font-weight:400;writing-mode:lr-tb;fill:#000;fill-opacity:1;font-family:Times New Roman"><tspan id="tspan3727" x="2402.845" y="1256.349">Netz</tspan></text>
    </g>
    <g id="g3878">
      <use xlink:href="#text3697" id="use3733" width="1445.146" height="912.42" x="0" y="0" style="stroke:#fff;stroke-width:2;stroke-miterlimit:4;stroke-opacity:1;stroke-dasharray:none"/>
      <g id="g3692" transform="translate(2.734 14.582)">
        <path id="path3468-19" d="M1285.052 632.625c0 11.068-8.983 20.05-20.05 20.05-11.069 0-20.051-8.982-20.051-20.05s8.982-20.05 20.05-20.05 20.05 8.982 20.05 20.05" style="opacity:1;color:#000;fill:#fff;fill-opacity:1;fill-rule:nonzero;stroke:#181818;stroke-width:1;stroke-linecap:round;stroke-linejoin:round;stroke-miterlimit:4;stroke-opacity:1;stroke-dasharray:none;stroke-dashoffset:66;marker:none;marker-start:none;marker-mid:none;marker-end:none;visibility:visible;display:inline;overflow:visible" transform="translate(93.275 681.296)"/>
        <text xml:space="preserve" id="text3404" x="18.228" y="652.675" style="font-size:40px;font-style:normal;font-weight:400;writing-mode:lr-tb;fill:#000;fill-opacity:1;stroke:none;font-family:Times New Roman" transform="translate(1330.146 674.761)"><tspan id="tspan3406" x="18.228" y="652.675">1</tspan></text>
      </g>
      <text xml:space="preserve" id="text3697" x="1383.918" y="1326.525" style="font-size:24px;font-style:normal;font-weight:400;writing-mode:lr-tb;fill:#000;fill-opacity:1;font-family:Times New Roman"><tspan id="tspan3699" x="1383.918" y="1326.525">1st</tspan></text>
      <path id="path4856" d="M1695.937 1398.52h-24.481l12.24-21.2z" style="opacity:1;fill:#000;fill-opacity:1;stroke:#fff;stroke-width:.83812821;stroke-linecap:round;stroke-linejoin:miter;stroke-miterlimit:4;stroke-opacity:1;stroke-dasharray:none;stroke-dashoffset:0;display:inline" transform="rotate(259.458 -114.148 841.71)scale(-.514 1.5579)"/>
    </g>
    <g id="g3958">
      <use xlink:href="#text3729" id="use3747" width="1445.146" height="912.42" x="0" y="0" style="stroke:#fff;stroke-width:2;stroke-miterlimit:4;stroke-opacity:1;stroke-dasharray:none"/>
      <g id="g3482" transform="translate(31.898 20.962)">
        <path id="path3468" d="M1285.052 632.625c0 11.068-8.983 20.05-20.05 20.05-11.069 0-20.051-8.982-20.051-20.05s8.982-20.05 20.05-20.05 20.05 8.982 20.05 20.05" style="opacity:1;color:#000;fill:#fff;fill-opacity:1;fill-rule:nonzero;stroke:#181818;stroke-width:1;stroke-linecap:round;stroke-linejoin:round;stroke-miterlimit:4;stroke-opacity:1;stroke-dasharray:none;stroke-dashoffset:66;marker:none;marker-start:none;marker-mid:none;marker-end:none;visibility:visible;display:inline;overflow:visible" transform="translate(1333.49 670.594)"/>
        <text xml:space="preserve" id="text3464" x="1246.774" y="641.739" style="font-size:40px;font-style:normal;font-weight:400;writing-mode:lr-tb;fill:#000;fill-opacity:1;stroke:none;font-family:Times New Roman" transform="translate(1330.146 674.761)"><tspan id="tspan3466" x="1246.774" y="641.739">16</tspan></text>
      </g>
      <text xml:space="preserve" id="text3729" x="2472.111" y="1346.576" style="font-size:24px;font-style:normal;font-weight:400;writing-mode:lr-tb;fill:#000;fill-opacity:1;font-family:Times New Roman"><tspan id="tspan3731" x="2472.111" y="1346.576">Panasonic</tspan></text>
      <path id="path4856-0" d="M1695.937 1398.52h-24.481l12.24-21.2z" style="opacity:1;fill:#000;fill-opacity:1;stroke:#fff;stroke-width:.83812821;stroke-linecap:round;stroke-linejoin:miter;stroke-miterlimit:4;stroke-opacity:1;stroke-dasharray:none;stroke-dashoffset:0;display:inline" transform="rotate(77.4 1376.843 3907.168)scale(-.514 1.5579)"/>
    </g>
    <text xml:space="preserve" id="text3968" x="1653.688" y="1385.79" style="font-size:16px;font-style:normal;font-weight:400;writing-mode:lr-tb;fill:#000;fill-opacity:1;font-family:Times New Roman"><tspan id="tspan3970" x="1653.688" y="1385.79">Note: Some series run this circuit in reverse</tspan></text>
    <path id="path3978" d="M2625.72 1113.232c3.99 13.45 7.14 26.93 8.36 40.671.83 9.354-3.737 21.674-9.9 28.67-4.829 5.481-13.834 8.341-21.142 8.439-14.972.2-30.097-5.5-45.698-7.548-13.809-1.813-28.713-3.317-41.887-.494-11.78 2.524-24.047 8.378-32.975 16.536-8.302 7.586-15.003 18.685-18.715 29.41-4.309 12.447-5.48 27.022-2.448 38.815 2.315 9.002 9.607 18.082 18.812 18.414 23.77.856 51.08-10.335 77.213-12.594 21.993-1.9 45.502.114 65.551 7.528 15.302 5.657 29.318 16.602 35.991 31.041 3.992 8.639 4.95 22.725 1.632 31.686-2.623 7.081-5.694 11.39-13.656 14.184-8.97 3.147-25.045 3.309-34.888 3.318-155.793.144-488.607 3.38-658.587 3.505" style="fill:none;stroke:#0ff;stroke-width:4;stroke-linecap:round;stroke-linejoin:round;stroke-miterlimit:4;stroke-opacity:1;stroke-dasharray:4,12;stroke-dashoffset:0"/>
    <path id="path3982" d="M1736.757 1087.8c3.141-15.903 6.506-31.704 11.366-46.93 3.65-11.435 10.992-22.004 18.715-31.192 9.507-11.31 20.857-21.818 32.975-30.3 11.648-8.154 24.776-15.886 38.322-19.607 13.487-3.706 28.97-4.997 42.778-2.674 17.979 3.025 37.197 9.248 52.58 18.715 11.65 7.17 21.317 19.468 28.52 31.193 5.571 9.07 9.643 20.394 9.803 31.192.73 49.21-10.205 94.615-6.163 141.098.71 8.177 12.86 17.483 20.744 18.373 10.534 1.19 24.883-2.038 35.477-6.656 12.578-5.483 29.893-17.711 38.227-28.478 32.364-41.815 50.676-83.784 81.936-127.01 6.765-9.355 17.295-16.132 27.627-21.39 39.872-20.29 80.876-40.616 122.987-55.255 20.273-7.047 42.598-9.514 64.167-9.803 67.254-.9 135.148 2.867 202.304 6.239 3.844.193 7.869 2.56 9.783 5.367 2.542 3.728 3.006 9.752 1.079 14.011-3.718 8.218-12.908 13.969-17.1 22.508-3.83 7.8-5.613 17.424-2.178 23.547 3.398 6.056 14.388 9.649 22.675 12.993 8.646 3.489 16.23 6.738 22.656 12.745 7.239 6.767 12.963 16.361 16.29 26.26 4.575 13.618 9.403 27.036 13.393 40.486" style="fill:none;stroke:red;stroke-width:4;stroke-linecap:round;stroke-linejoin:round;stroke-miterlimit:4;stroke-opacity:1;stroke-dasharray:4,12;stroke-dashoffset:0"/>
    <path id="path3974" d="M1953.383 1364.813c-87.838.068-177.116.484-270.812 1.157-146.22 1.05-287.273.984-366.684-.7h0c-7.582-.176-14.54-7.625-18.716-13.368-2.953-4.06-3.313-10.924-2.673-16.041.548-4.39 2.903-9.296 6.238-12.477 22.51-21.475 46.775-42.061 71.297-61.494 6.967-5.521 14.566-11.135 23.171-13.368 101.311-26.286 205.625-45.622 306.576-72.188 6.29-1.655 11.871-7.09 15.15-12.477 5.039-8.277 7.335-18.785 9.804-28.518 3.964-15.631 6.882-31.636 10.023-47.539" style="fill:none;stroke:#ff0;stroke-width:4;stroke-linecap:round;stroke-linejoin:round;stroke-miterlimit:4;stroke-opacity:1;stroke-dasharray:4,12;stroke-dashoffset:0"/>
  </g>
</svg>
