<svg xmlns="http://www.w3.org/2000/svg" aria-label="Track map of Fuji Speedway, Grand Prix layout" role="img" viewBox="0 0 1000 1000">
<!--Production track map for Fuji Speedway (Grand Prix layout).
  Derived by path-extract from map-source.svg. The source path2609 is the black
  Grand-Prix-circuit centerline; its raw d is affine-fit (uniform scale + translate)
  into the 0 0 1000 1000 viewBox. Source: Fuji.svg by Will Pittenger, CC BY-SA 3.0,
  via Wikimedia Commons. Retraced 2026-06-11.-->
  <path fill="none" stroke="#1f1f21" stroke-linecap="round" stroke-linejoin="round" stroke-width="10" d="M74.15 633.398c-4.87-.113-9.339-4.899-12.022-8.587-1.897-2.608-2.128-7.018-1.717-10.305.352-2.819 1.865-5.97 4.007-8.014 14.46-13.795 30.046-27.018 45.798-39.5 4.475-3.547 9.356-7.153 14.883-8.587 65.077-16.885 132.083-29.305 196.929-46.37 4.04-1.064 7.625-4.554 9.731-8.015 3.237-5.317 4.712-12.066 6.298-18.319 5.093-20.08 7.496-41.12 13.74-60.681 2.344-7.346 7.06-14.135 12.02-20.036 6.108-7.265 13.398-14.016 21.182-19.464 7.482-5.238 15.915-10.204 24.616-12.594 8.664-2.38 18.609-3.21 27.479-1.717 11.548 1.942 23.893 5.94 33.774 12.021 7.484 4.605 13.693 12.505 18.32 20.036 3.579 5.826 6.194 13.1 6.297 20.037.469 31.61-6.555 60.775-3.959 90.634.456 5.252 8.26 11.23 13.325 11.802 6.767.764 15.984-1.31 22.789-4.276 8.078-3.522 19.201-11.376 24.555-18.293 20.789-26.86 32.551-53.818 52.631-81.585 4.346-6.009 11.11-10.361 17.746-13.739 25.612-13.033 51.95-26.09 79-35.493 13.023-4.526 27.363-6.112 41.218-6.297 43.2-.578 86.812 1.841 129.95 4.007 2.469.124 5.054 1.645 6.284 3.448 1.633 2.395 1.93 6.264.693 9-2.388 5.278-8.291 8.973-10.984 14.458-2.46 5.01-3.606 11.192-1.4 15.125 2.183 3.89 9.243 6.199 14.566 8.347 5.554 2.24 10.425 4.328 14.553 8.186 4.65 4.347 8.327 10.51 10.464 16.868 5.877 17.494 12.406 34.478 13.972 52.132.533 6.008-2.4 13.922-6.358 18.416-3.102 3.52-8.887 5.357-13.58 5.42-9.618.128-19.334-3.533-29.356-4.848-8.87-1.165-18.443-2.13-26.905-.317-7.567 1.62-15.446 5.38-21.181 10.62-5.333 4.874-9.637 12.004-12.022 18.892-2.768 7.996-3.52 17.358-1.572 24.934 1.487 5.782 6.17 11.614 12.083 11.827 15.27.55 32.812-6.638 49.597-8.089 14.128-1.22 29.23.073 42.108 4.835 9.829 3.635 18.832 10.665 23.118 19.94 2.565 5.548 3.18 14.597 1.049 20.353-1.685 4.548-3.658 7.317-8.772 9.11-5.762 2.023-16.088 2.127-22.41 2.132-200.147.185-476.627 2.13-596.999 2.995-93.922.675-184.528.632-235.538-.45z"/>
</svg>
