<!--Road America Full Course, traced single-line outline.
     Derived from File:Road_America.svg by Will Pittenger on Wikimedia Commons
     (https://commons.wikimedia.org/wiki/File:Road_America.svg, CC BY-SA 3.0).
     The source's path2858 (the track outline) was extracted and affine-fit
     to the normalized 0 0 1000 1000 viewBox. License is recorded in
     LICENSE-ASSETS.md. To re-fetch the source, see scripts/fetch-map.mjs.-->
<svg xmlns="http://www.w3.org/2000/svg" aria-label="Road America track map" role="img" viewBox="0 0 1000 1000">
  <path fill="none" stroke="#1f1f21" stroke-linecap="round" stroke-linejoin="round" stroke-width="10" d="M442.11 814.3c-46.312 0-58.886 1.408-88.33 1.112-9.048-.092-18.086-.663-27.13-.89-12.823-.321-25.648-.624-38.474-.667-14.085-.048-28.17.18-42.253.444-22.021.413-44.026 1.545-66.05 1.78-13.194.14-26.39-.05-39.585-.223-7.19-.094-14.4.11-21.571-.445-3.878-.3-7.824-.489-11.564-1.556-3.829-1.092-7.433-2.93-10.897-4.893-4.168-2.363-8.358-4.882-11.787-8.228-3.225-3.148-5.854-6.937-8.005-10.897-2.8-5.153-4.816-10.764-6.228-16.457-2.876-11.602-2.878-23.732-4.447-35.581-2.25-16.993-4.322-34.016-7.116-50.927-1.096-6.627-2.761-13.155-3.78-19.793-1.554-10.107-2.884-20.264-3.559-30.467-1.838-27.74-4.042-55.726-1.334-83.395.413-4.226 1.01-8.545 2.668-12.454 1.15-2.709 2.934-5.16 4.923-7.329 2.637-2.875 5.617-5.546 9.118-7.339 4.1-2.098 8.798-2.897 13.36-3.533 3.965-.553 8.012-.467 12.008-.222 32.061 1.97 63.675 8.564 95.404 13.565 24.376 3.842 48.801 6.913 72.943 11.787 20.564 4.151 41.164 7.875 61.157 14.01 12.956 3.976 25.198 9.99 37.9 14.712 23.598 8.775 47.44 16.316 71.163 24.463 25.245 8.669 50.708 16.722 75.74 25.984 17.132 6.34 33.77 13.968 50.928 20.238 11.157 4.077 22.532 6.978 33.802 10.452 23.805 7.339 47.316 15.72 71.434 21.957 12.585 3.255 25.24 6.605 38.158 8.053 5.864.657 11.82.77 17.698.269 4.489-.383 9.331-.331 13.284-2.493 3.695-2.021 7.2-5.25 8.66-9.2 2.084-5.634.128-12.001 0-18-.924-43.665-.654-87.506-5.547-130.905-.32-2.846-.52-5.78-1.557-8.45-.86-2.218-2.098-4.884-3.78-6.895-1.834-2.191-3.962-4.843-6.672-6.226-3.161-1.615-6.855-2.536-10.452-2.892-3.846-.38-7.71 0-11.564 0-13.07-.007-26.143-.25-39.212-.034-13.052.216-26.086 1.198-39.14 1.334-5.63.059-11.316.574-16.89-.223-4.66-.666-10.003-1.545-14.454-3.78-4.346-2.183-8.636-5.521-12.232-9.118-4.052-4.053-7.494-9.127-11.119-13.788-7.223-9.288-14.76-18.765-22.016-28.243-12.913-16.864-25.863-34.13-39.14-50.927-21.291-26.932-40.225-56.121-64.971-79.918-1.393-1.34-4.698-5.581-8.007-6.004-1.815-.233-5.836-1.503-8.45-.446-3.414 1.382-7.593 3.171-10.897 5.56-12.162 8.791-23.436 19.602-35.373 29.133-7.146 5.706-13.862 12.073-21.696 16.79-4.462 2.688-9.364 4.598-14.233 6.45a89 89 0 0 1-10.515 3.273c-4.62 1.132-9.304 2.133-14.043 2.542-3.091.267-6.223.266-9.308-.063-4.091-.436-8.1-1.493-12.084-2.518-3.445-.886-6.864-1.904-10.201-3.136-5.177-1.91-10.395-3.85-15.192-6.577-4.292-2.44-8.44-5.261-12.009-8.674-3.554-3.399-7.26-7.269-10.007-11.564-2.542-3.975-4.954-8.372-6.672-12.898-1.844-4.862-3.811-9.917-4.67-15.122-.977-5.927-1.34-11.992-1.334-18.014.007-6.484-.013-13.083 1.475-19.394 1.531-6.496 4.366-12.68 7.561-18.54 3.119-5.721 6.733-11.28 11.213-16.012 3.847-4.061 8.491-7.343 13.203-10.358 5.892-3.77 12.143-7.075 18.68-9.563 9.68-3.683 20.375-6.013 30.072-7.81 34.65-6.418 67.978-12.016 101.886-18.466 19.752-3.757 39.278-8.759 59.154-11.786 7.046-1.073 14.152-1.76 21.262-2.255 6.212-.433 12.458-1.036 18.673-.627 4.499.297 9.113.662 13.342 2.224 12.686 4.685 24.009 12.978 35.044 20.94 9.607 6.93 18.054 15.343 26.921 23.2 12.609 11.169 25.176 22.396 37.362 34.024 16.078 15.344 30.972 31.903 47.146 47.146 8.448 7.963 17.19 15.97 26.464 23.129 9.3 7.177 19.515 13.51 29.577 19.792 18.367 11.468 37.018 22.524 56.159 32.644 10.025 5.3 20.228 10.304 30.69 14.678 11.704 4.892 23.727 9.015 35.804 12.898 9.83 3.16 19.865 5.64 29.8 8.45 12.6 3.566 25.552 6.058 37.806 10.675 5.15 1.941 10.661 3.606 14.9 7.117 3.185 2.638 5.765 6.181 7.339 10.007 1.34 3.258 1.816 6.939 1.556 10.452-.733 9.892-5.445 19.087-8.673 28.466-3.696 10.74-7.938 21.287-12.231 31.802-3.389 8.299-5.755 17.19-10.675 24.685-5.469 8.329-13.633 14.536-20.46 21.793-6.072 6.456-12.96 12.226-18.235 19.348-3.202 4.322-5.81 9.1-8.006 14.01-2.105 4.708-3.882 9.62-4.893 14.678-.8 4.008-.713 8.147-.89 12.231-.29 6.7-1.08 13.46-.28 20.12 1.162 9.655 4.116 18.96 6.894 28.244 4.175 13.946 10.672 27.074 14.233 41.141 2.12 8.374 2.757 17.018 3.78 25.574 1.052 8.796 2.064 17.618 2.002 26.465-.035 5.06-1.016 10.104-1.779 15.122-.396 2.605-.334 5.385-1.451 7.772-3.144 6.716-8.566 12.295-14.174 17.146-2.88 2.491-6.316 4.064-9.761 5.512-5.475 2.301-11.264 3.748-17.112 4.53-10.396 1.39-20.975-.146-31.463-.2-37.162-.187-74.324-.395-111.486-.42-22.882-.016-45.766.372-68.648.164-52.652-.479-129.088-3.253-157.93-3.253z"/>
</svg>
